<svg width="626" height="26" viewBox="0 0 626 26" fill="none" xmlns="http://www.w3.org/2000/svg">
<path d="M1.22391 8.432C1.47991 5.344 2.87991 3.136 5.42391 1.808C6.71991 1.136 8.04791 0.8 9.40791 0.8C9.82391 0.8 10.2239 0.823999 10.6079 0.871999C12.3999 1.096 13.7119 1.536 14.5439 2.192C16.6079 3.824 17.5839 6.336 17.4719 9.728C17.4239 11.328 16.9839 12.984 16.1519 14.696C15.2719 16.504 14.1999 17.84 12.9359 18.704C12.2639 19.168 11.0719 19.856 9.35991 20.768C9.83991 20.608 10.5039 20.552 11.3519 20.6C12.8559 20.664 13.7439 20.752 14.0159 20.864C14.6719 21.136 15.0639 21.84 15.1919 22.976C15.3199 24.128 14.4559 24.736 12.5999 24.8C11.1439 24.848 9.51191 24.84 7.70391 24.776C5.03191 24.664 3.55991 24.416 3.28791 24.032C2.93591 23.52 2.75991 22.896 2.75991 22.16C2.75991 21.952 2.77591 21.728 2.80791 21.488C2.95191 20.416 3.38391 19.568 4.10391 18.944C4.55191 18.56 5.41591 18.088 6.69591 17.528C9.84791 16.136 11.6319 14.384 12.0479 12.272C12.2719 11.184 12.3519 9.864 12.2879 8.312C12.2079 5.992 11.1519 4.832 9.11991 4.832C8.79991 4.832 8.50391 4.856 8.23191 4.904C6.69591 5.176 5.87991 6.656 5.78391 9.344C5.76791 10.048 5.76791 10.456 5.78391 10.568C5.78391 11.08 5.63191 11.536 5.32791 11.936C4.99191 12.384 4.57591 12.616 4.07991 12.632C3.47191 12.648 2.98391 12.536 2.61591 12.296C1.52791 11.592 1.06391 10.304 1.22391 8.432ZM21.5598 3.152C22.6798 1.664 24.0078 0.88 25.5438 0.8C27.5118 0.687999 29.0238 1.072 30.0798 1.952C30.9438 2.672 31.7758 4.048 32.5758 6.08C33.2478 7.792 33.5838 9.896 33.5838 12.392C33.5838 13.592 33.5118 14.848 33.3678 16.16C32.9038 20.384 31.8158 22.944 30.1038 23.84C28.8718 24.48 27.7118 24.8 26.6238 24.8C26.1918 24.8 25.7838 24.752 25.3998 24.656C23.5918 24.192 22.2238 23.136 21.2958 21.488C20.5758 20.208 20.0798 18.488 19.8078 16.328C19.5838 14.584 19.4718 12.904 19.4718 11.288C19.4718 7.704 20.1678 4.992 21.5598 3.152ZM23.3598 11.96C23.4878 17.528 24.5198 20.376 26.4558 20.504C27.5758 20.584 28.3918 19.872 28.9038 18.368C29.2718 17.328 29.4558 16.144 29.4558 14.816C29.4558 13.52 29.3118 11.976 29.0238 10.184C28.6398 7.896 28.1278 6.512 27.4878 6.032C27.0878 5.728 26.3598 5.632 25.3038 5.744C23.9278 6.4 23.2798 8.472 23.3598 11.96ZM35.3723 8.432C35.6283 5.344 37.0283 3.136 39.5723 1.808C40.8683 1.136 42.1963 0.8 43.5563 0.8C43.9723 0.8 44.3723 0.823999 44.7563 0.871999C46.5483 1.096 47.8603 1.536 48.6923 2.192C50.7563 3.824 51.7323 6.336 51.6203 9.728C51.5723 11.328 51.1323 12.984 50.3003 14.696C49.4203 16.504 48.3483 17.84 47.0843 18.704C46.4123 19.168 45.2203 19.856 43.5083 20.768C43.9883 20.608 44.6523 20.552 45.5003 20.6C47.0043 20.664 47.8923 20.752 48.1643 20.864C48.8203 21.136 49.2123 21.84 49.3403 22.976C49.4683 24.128 48.6043 24.736 46.7483 24.8C45.2923 24.848 43.6603 24.84 41.8523 24.776C39.1803 24.664 37.7083 24.416 37.4363 24.032C37.0843 23.52 36.9083 22.896 36.9083 22.16C36.9083 21.952 36.9243 21.728 36.9563 21.488C37.1003 20.416 37.5323 19.568 38.2523 18.944C38.7003 18.56 39.5643 18.088 40.8443 17.528C43.9963 16.136 45.7803 14.384 46.1963 12.272C46.4203 11.184 46.5003 9.864 46.4363 8.312C46.3563 5.992 45.3003 4.832 43.2683 4.832C42.9483 4.832 42.6523 4.856 42.3803 4.904C40.8443 5.176 40.0283 6.656 39.9323 9.344C39.9163 10.048 39.9163 10.456 39.9323 10.568C39.9323 11.08 39.7803 11.536 39.4763 11.936C39.1403 12.384 38.7243 12.616 38.2283 12.632C37.6203 12.648 37.1323 12.536 36.7643 12.296C35.6763 11.592 35.2123 10.304 35.3723 8.432ZM58.4202 10.76C58.4202 10.76 58.4202 11.76 58.4202 13.76V14.168C58.9962 14.248 59.4602 14.304 59.8122 14.336C60.7882 14.416 61.3962 14.416 61.6362 14.336C61.7322 12.416 61.7002 9.776 61.5402 6.416C61.3802 3.184 62.0602 1.48 63.5802 1.304C65.1162 1.112 65.9082 2.136 65.9562 4.376C65.9722 5.24 65.9002 6.888 65.7402 9.32C65.5962 11.432 65.5882 13.072 65.7162 14.24C66.4682 14.272 67.4362 14.256 68.6202 14.192C69.5962 14.144 70.5962 14.176 71.6202 14.288C72.2922 14.368 72.6282 14.816 72.6282 15.632C72.6282 15.936 72.5882 16.272 72.5082 16.64C72.2842 17.664 71.7082 18.296 70.7802 18.536C70.3002 18.664 69.4122 18.688 68.1162 18.608C66.9802 18.528 66.2362 18.608 65.8842 18.848C65.5482 19.072 65.3802 19.776 65.3802 20.96C65.3802 21.424 65.3882 21.792 65.4042 22.064C65.4522 22.864 65.3882 23.48 65.2122 23.912C64.9562 24.536 64.4682 24.832 63.7482 24.8C62.5962 24.752 61.9962 24.232 61.9482 23.24L61.7322 18.944C60.5802 19.072 59.1482 19.048 57.4362 18.872C56.2842 18.76 55.4522 18.52 54.9402 18.152C54.3002 17.704 53.9322 16.968 53.8362 15.944L53.8602 12.824C53.8762 10.6 53.7962 8.184 53.6202 5.576C53.5882 5.096 53.5722 4.656 53.5722 4.256C53.5722 2.736 53.7962 1.792 54.2442 1.424C54.8042 0.959999 55.4362 0.751999 56.1402 0.8C57.2602 0.88 57.9802 1.568 58.3002 2.864C58.4602 3.472 58.5402 4.568 58.5402 6.152C58.5402 7.912 58.5002 9.448 58.4202 10.76ZM91.5376 0.8C94.5616 1.072 96.6496 3.552 97.8016 8.24C98.0576 9.264 98.3696 11.104 98.7376 13.76C99.0256 15.824 99.1696 17.712 99.1696 19.424C99.1696 20.592 99.0176 21.664 98.7136 22.64C98.2816 24.08 97.6096 24.8 96.6976 24.8C95.8656 24.8 95.2496 24.616 94.8496 24.248C94.4496 23.88 94.1936 23.272 94.0816 22.424C93.9696 21.592 93.8976 20.24 93.8656 18.368C93.8336 16.592 93.7376 15.224 93.5776 14.264C93.1936 11.88 92.5776 10.672 91.7296 10.64C90.8496 10.608 90.1696 10.672 89.6896 10.832C88.7296 11.152 88.1376 11.952 87.9136 13.232C87.8016 13.856 87.7856 14.928 87.8656 16.448C87.9776 18.784 88.0896 20.408 88.2016 21.32C88.2336 21.576 88.2496 21.792 88.2496 21.968C88.2496 23.888 87.4576 24.848 85.8736 24.848C85.7136 24.848 85.5056 24.832 85.2496 24.8C83.9696 24.64 83.1296 23.912 82.7296 22.616C82.4736 21.8 82.3936 20.6 82.4896 19.016C82.6336 16.536 82.7216 15.056 82.7536 14.576C82.8336 13.408 83.1296 11.528 83.6416 8.936C84.0896 6.68 84.5376 4.984 84.9856 3.848C85.4176 2.776 86.1776 1.976 87.2656 1.448C88.2096 0.983999 89.3136 0.751999 90.5776 0.751999C90.8656 0.751999 91.1856 0.767999 91.5376 0.8ZM92.6896 6.344C92.7216 6.232 92.7376 6.112 92.7376 5.984C92.7376 4.928 92.0656 4.352 90.7216 4.256C89.8576 4.192 89.1616 4.432 88.6336 4.976C88.2816 5.328 88.1056 5.672 88.1056 6.008C88.1056 6.168 88.1616 6.344 88.2736 6.536C88.5296 6.968 88.9056 7.232 89.4016 7.328C89.5616 7.36 90.0416 7.376 90.8416 7.376C91.8336 7.376 92.4496 7.032 92.6896 6.344ZM103.996 0.8C105.452 0.527999 106.46 0.855999 107.02 1.784C107.292 2.232 107.484 2.8 107.596 3.488C107.708 4.176 107.724 4.792 107.644 5.336C107.436 6.84 107.292 7.888 107.212 8.48C106.94 9.952 106.78 11.28 106.732 12.464C106.7 13.344 106.676 13.976 106.66 14.36C106.548 16.92 106.732 18.4 107.212 18.8C107.884 19.36 108.852 19.64 110.116 19.64C110.916 19.528 111.516 19.448 111.916 19.4C112.78 19.4 113.58 19.368 114.316 19.304C115.196 19.224 115.948 19.304 116.572 19.544C117.42 19.848 117.844 20.392 117.844 21.176C117.844 22.76 117.428 23.736 116.596 24.104C116.308 24.232 115.588 24.36 114.436 24.488C112.58 24.696 110.932 24.8 109.492 24.8C108.884 24.8 108.212 24.728 107.476 24.584C105.796 24.264 104.628 23.872 103.972 23.408C103.572 23.12 103.212 22.656 102.892 22.016C102.604 21.424 102.436 20.864 102.388 20.336C102.308 19.552 102.252 19 102.22 18.68C102.06 17.08 101.956 15.976 101.908 15.368C101.716 13.528 101.604 12.032 101.572 10.88C101.524 8.816 101.492 7.552 101.476 7.088C101.444 6.032 101.42 5.288 101.404 4.856C101.34 3.032 101.668 1.864 102.388 1.352C102.708 1.064 103.116 0.903999 103.612 0.871999C103.82 0.823999 103.948 0.8 103.996 0.8ZM123.074 0.8C124.53 0.527999 125.538 0.855999 126.098 1.784C126.37 2.232 126.562 2.8 126.674 3.488C126.786 4.176 126.802 4.792 126.722 5.336C126.514 6.84 126.37 7.888 126.29 8.48C126.018 9.952 125.858 11.28 125.81 12.464C125.778 13.344 125.754 13.976 125.738 14.36C125.626 16.92 125.81 18.4 126.29 18.8C126.962 19.36 127.93 19.64 129.194 19.64C129.994 19.528 130.594 19.448 130.994 19.4C131.858 19.4 132.658 19.368 133.394 19.304C134.274 19.224 135.026 19.304 135.65 19.544C136.498 19.848 136.922 20.392 136.922 21.176C136.922 22.76 136.506 23.736 135.674 24.104C135.386 24.232 134.666 24.36 133.514 24.488C131.658 24.696 130.01 24.8 128.57 24.8C127.962 24.8 127.29 24.728 126.554 24.584C124.874 24.264 123.706 23.872 123.05 23.408C122.65 23.12 122.29 22.656 121.97 22.016C121.682 21.424 121.514 20.864 121.466 20.336C121.386 19.552 121.33 19 121.298 18.68C121.138 17.08 121.034 15.976 120.986 15.368C120.794 13.528 120.682 12.032 120.65 10.88C120.602 8.816 120.57 7.552 120.554 7.088C120.522 6.032 120.498 5.288 120.482 4.856C120.418 3.032 120.746 1.864 121.466 1.352C121.786 1.064 122.194 0.903999 122.69 0.871999C122.898 0.823999 123.026 0.8 123.074 0.8ZM149.925 2.312C150.821 1.528 152.797 1.024 155.853 0.8C157.549 0.671999 159.509 0.783999 161.733 1.136C164.053 1.504 165.437 2.664 165.885 4.616C166.093 5.528 166.197 6.296 166.197 6.92C166.197 7.736 166.037 8.424 165.717 8.984C164.389 11.272 162.125 12.432 158.925 12.464C158.445 12.464 157.741 12.432 156.813 12.368C155.885 12.288 155.197 12.248 154.749 12.248C154.573 12.248 154.485 12.304 154.485 12.416C154.485 12.592 154.661 12.872 155.013 13.256C156.197 14.52 157.173 15.616 157.941 16.544C159.045 17.856 159.877 18.832 160.437 19.472C161.589 20.88 162.165 21.944 162.165 22.664C162.165 23.432 161.749 24.016 160.917 24.416C160.613 24.56 160.309 24.632 160.005 24.632C159.013 24.632 158.005 24.088 156.981 23C156.229 22.184 155.565 21.208 154.989 20.072L152.085 14.24C152.421 17.536 152.581 19.528 152.565 20.216C152.549 21.448 152.549 22.128 152.565 22.256C152.565 22.656 152.469 23.088 152.277 23.552C152.085 24.016 151.813 24.336 151.461 24.512C151.205 24.64 150.781 24.736 150.189 24.8C149.069 24.928 148.509 24 148.509 22.016C148.445 21.648 148.397 21.208 148.365 20.696C148.125 16.92 148.013 13.728 148.029 11.12C148.045 9.328 148.069 8.088 148.101 7.4C148.245 4.744 148.853 3.048 149.925 2.312ZM157.701 5.024C157.077 4.736 156.461 4.592 155.853 4.592C155.229 4.592 154.661 4.76 154.149 5.096C153.397 5.576 153.013 6.256 152.997 7.136C152.981 8.288 153.589 8.896 154.821 8.96C157.237 9.088 158.573 8.56 158.829 7.376C159.069 6.256 158.693 5.472 157.701 5.024ZM177.387 1.16C178.971 1.608 179.883 2.224 180.123 3.008C180.235 3.376 180.291 3.736 180.291 4.088C180.291 4.52 180.203 4.92 180.027 5.288C179.675 6.04 179.259 6.544 178.779 6.8C178.459 6.976 178.019 7.064 177.459 7.064C177.155 7.064 176.811 7.04 176.427 6.992C176.507 7.888 176.547 8.84 176.547 9.848C176.547 10.648 176.619 12.032 176.763 14C176.891 15.824 176.939 17.2 176.907 18.128C176.891 18.544 176.891 18.856 176.907 19.064C176.923 19.592 177.011 19.832 177.171 19.784C179.251 19.528 180.443 20.032 180.747 21.296C180.795 21.504 180.819 21.704 180.819 21.896C180.819 22.856 180.299 23.592 179.259 24.104C178.507 24.488 177.571 24.72 176.451 24.8C174.755 24.928 173.475 24.896 172.611 24.704C171.443 24.448 170.603 24.112 170.091 23.696C169.371 23.136 169.051 22.328 169.131 21.272C169.243 19.832 169.947 19.112 171.243 19.112C171.483 19.112 171.731 19.144 171.987 19.208C172.019 19.208 172.235 19.248 172.635 19.328C172.699 18.592 172.699 17.52 172.635 16.112C172.571 14.528 172.547 13.448 172.563 12.872C172.595 12.12 172.579 11.136 172.515 9.92C172.451 8.592 172.419 7.608 172.419 6.968C170.835 6.776 169.955 6.664 169.779 6.632C169.443 6.536 169.139 6.288 168.867 5.888C168.547 5.424 168.395 4.592 168.411 3.392C168.427 2.224 169.523 1.448 171.699 1.064C172.707 0.888 173.651 0.8 174.531 0.8C175.571 0.8 176.523 0.92 177.387 1.16ZM202.598 8.096C202.598 9.648 202.206 10.568 201.422 10.856C200.766 11.096 200.214 11.224 199.766 11.24C199.238 11.256 198.71 11.144 198.182 10.904C197.67 10.648 197.31 10.4 197.102 10.16C196.894 9.904 196.742 9.52 196.646 9.008C196.502 8.288 196.422 7.896 196.406 7.832C195.574 6.296 194.286 5.528 192.542 5.528C192.35 5.528 192.142 5.536 191.918 5.552C190.062 5.728 188.798 6.624 188.126 8.24C187.454 9.856 187.214 12.288 187.406 15.536C187.47 16.656 187.758 17.736 188.27 18.776C188.942 20.2 190.654 20.912 193.406 20.912C194.462 20.816 194.99 20.768 194.99 20.768C195.63 20.688 196.086 20.464 196.358 20.096C196.63 19.728 196.782 19.344 196.814 18.944C196.878 18.576 196.806 18.024 196.598 17.288C196.486 16.904 196.166 16.712 195.638 16.712C195.158 16.712 194.494 16.872 193.646 17.192C193.054 17.416 192.55 17.528 192.134 17.528C191.254 17.528 190.71 17.024 190.502 16.016C190.374 15.392 190.31 14.872 190.31 14.456C190.31 13.912 190.422 13.56 190.646 13.4C191.03 13.128 191.55 12.936 192.206 12.824C192.958 12.712 193.518 12.632 193.886 12.584C194.094 12.552 194.31 12.536 194.534 12.536C195.334 12.536 196.358 12.696 197.606 13.016C199.27 13.448 200.27 14.184 200.606 15.224C200.814 15.864 200.918 16.52 200.918 17.192C200.918 17.592 200.878 17.984 200.798 18.368C200.414 20.208 199.878 21.656 199.19 22.712C198.518 23.768 197.374 24.424 195.758 24.68C194.974 24.808 193.582 24.848 191.582 24.8C189.758 24.752 188.47 24.52 187.718 24.104C186.678 23.528 185.934 23.04 185.486 22.64C184.846 22.08 184.302 21.368 183.854 20.504C183.246 19.352 182.942 17.248 182.942 14.192C182.942 12.832 183.022 11.2 183.182 9.296C183.358 7.2 183.862 5.64 184.694 4.616C186.438 2.472 188.598 1.216 191.174 0.847999C191.958 0.735999 193.102 0.719999 194.606 0.8C196.43 0.895999 197.838 1.176 198.83 1.64C199.966 2.168 200.886 3.064 201.59 4.328C202.262 5.528 202.598 6.784 202.598 8.096ZM215.827 7.664C215.795 5.616 215.795 4.4 215.827 4.016C215.971 2.352 216.419 1.36 217.171 1.04C217.539 0.88 217.867 0.8 218.155 0.8C218.875 0.8 219.411 1.136 219.763 1.808C220.051 2.352 220.179 3.008 220.147 3.776C220.099 4.976 220.091 5.952 220.123 6.704L220.363 11.96C220.411 13.08 220.443 13.72 220.459 13.88C220.683 15.656 220.859 16.984 220.987 17.864C221.179 19.416 221.243 20.744 221.179 21.848C221.131 22.6 220.931 23.216 220.579 23.696C220.179 24.24 219.627 24.512 218.923 24.512C218.619 24.512 218.291 24.456 217.939 24.344C217.219 24.136 216.739 23.568 216.499 22.64C216.371 22.192 216.291 21.4 216.259 20.264L216.091 15.416C216.043 13.944 215.411 13.272 214.195 13.4C212.835 13.544 211.851 13.592 211.243 13.544C210.459 13.496 210.059 14.08 210.043 15.296C210.027 16.56 210.067 17.928 210.163 19.4C210.259 20.856 210.299 21.992 210.283 22.808C210.251 24.456 209.283 25.12 207.379 24.8C206.691 24.688 206.203 24.472 205.915 24.152C205.627 23.848 205.475 23.352 205.459 22.664C205.427 21.656 205.411 21.128 205.411 21.08C205.427 20.584 205.379 19.424 205.267 17.6C205.123 14.976 205.027 13.144 204.979 12.104C204.851 9.864 204.779 8.168 204.763 7.016C204.747 5.208 204.763 4.08 204.811 3.632C204.987 2.096 205.467 1.208 206.251 0.967999C206.603 0.855999 206.907 0.8 207.163 0.8C208.219 0.8 208.963 1.704 209.395 3.512C209.619 4.44 209.723 5.392 209.707 6.368C209.691 7.664 209.723 8.416 209.803 8.624C210.011 9.152 210.651 9.424 211.723 9.44C213.275 9.456 214.163 9.448 214.387 9.416C215.363 9.208 215.843 8.624 215.827 7.664ZM241.234 6.104C240.242 6.552 239.002 6.776 237.514 6.776C237.018 6.776 236.49 6.752 235.93 6.704C236.522 11.696 236.914 15.48 237.106 18.056C237.25 20.04 237.322 21.184 237.322 21.488C237.242 23.104 236.794 24.072 235.978 24.392C235.418 24.552 234.858 24.64 234.298 24.656C233.674 24.672 233.098 24.52 232.57 24.2C231.994 23.832 231.682 23.352 231.634 22.76C231.554 21.848 231.514 20.72 231.514 19.376C231.498 17.28 231.498 15.512 231.514 14.072C231.53 12.2 231.506 10.776 231.442 9.8L231.25 6.848C229.682 7.024 228.506 7.088 227.722 7.04C227.178 7.008 226.69 6.936 226.258 6.824C225.586 6.488 225.138 6.176 224.914 5.888C224.498 5.472 224.29 5.016 224.29 4.52C224.29 3.96 224.498 3.392 224.914 2.816C225.33 2.24 225.946 1.896 226.762 1.784C229.322 1.416 231.738 1.216 234.01 1.184C234.746 1.168 236.186 1.152 238.33 1.136C239.658 1.12 240.634 1.256 241.258 1.544C242.522 2.12 243.154 3.04 243.154 4.304C243.154 4.928 242.514 5.528 241.234 6.104ZM262.769 17.528C262.817 18.328 262.673 19.192 262.337 20.12C262.017 21.064 261.721 21.648 261.449 21.872C260.969 22.272 260.601 22.56 260.345 22.736C259.897 23.04 259.481 23.264 259.097 23.408C258.009 23.824 256.297 24.184 253.961 24.488C252.905 24.632 252.121 24.672 251.609 24.608C250.505 24.496 249.673 24.408 249.113 24.344C248.297 24.216 247.537 23.848 246.833 23.24C246.273 22.76 245.993 22.12 245.993 21.32C245.993 21 246.041 20.648 246.137 20.264C246.425 19.144 247.225 18.584 248.537 18.584C248.777 18.584 249.025 18.6 249.281 18.632C250.705 18.808 251.777 18.968 252.497 19.112C252.913 19.08 253.297 19.064 253.649 19.064C254.833 19.08 255.745 18.992 256.385 18.8C257.489 18.48 258.001 17.848 257.921 16.904C257.825 15.88 256.945 15.192 255.281 14.84C254.625 14.696 253.385 14.592 251.561 14.528C249.529 14.448 247.993 14.064 246.953 13.376C245.689 12.544 244.953 11.184 244.745 9.296C244.713 8.992 244.697 8.664 244.697 8.312C244.697 7.08 244.977 5.928 245.537 4.856C246.097 3.768 246.753 2.968 247.505 2.456C248.193 1.976 249.177 1.616 250.457 1.376C252.313 1.04 253.849 0.871999 255.065 0.871999C255.369 0.871999 255.649 0.879999 255.905 0.895998L258.353 1.136C259.729 1.28 260.417 1.968 260.417 3.2C260.417 3.584 260.345 3.968 260.201 4.352C259.961 4.992 259.169 5.312 257.825 5.312C257.505 5.312 257.105 5.288 256.625 5.24C255.841 5.16 255.081 5.12 254.345 5.12C253.241 5.12 252.281 5.216 251.465 5.408C250.121 5.728 249.393 6.504 249.281 7.736C249.185 8.84 249.473 9.64 250.145 10.136C250.641 10.52 251.489 10.776 252.689 10.904C253.729 10.952 254.657 10.992 255.473 11.024C257.761 11.104 259.457 11.56 260.561 12.392C261.121 12.824 261.625 13.608 262.073 14.744C262.473 15.752 262.705 16.68 262.769 17.528ZM275.433 2.312C276.329 1.528 278.305 1.024 281.361 0.8C283.057 0.671999 285.017 0.783999 287.241 1.136C289.561 1.504 290.945 2.664 291.393 4.616C291.601 5.528 291.705 6.296 291.705 6.92C291.705 7.736 291.545 8.424 291.225 8.984C289.897 11.272 287.633 12.432 284.433 12.464C283.953 12.464 283.249 12.432 282.321 12.368C281.393 12.288 280.705 12.248 280.257 12.248C280.081 12.248 279.993 12.304 279.993 12.416C279.993 12.592 280.169 12.872 280.521 13.256C281.705 14.52 282.681 15.616 283.449 16.544C284.553 17.856 285.385 18.832 285.945 19.472C287.097 20.88 287.673 21.944 287.673 22.664C287.673 23.432 287.257 24.016 286.425 24.416C286.121 24.56 285.817 24.632 285.513 24.632C284.521 24.632 283.513 24.088 282.489 23C281.737 22.184 281.073 21.208 280.497 20.072L277.593 14.24C277.929 17.536 278.089 19.528 278.073 20.216C278.057 21.448 278.057 22.128 278.073 22.256C278.073 22.656 277.977 23.088 277.785 23.552C277.593 24.016 277.321 24.336 276.969 24.512C276.713 24.64 276.289 24.736 275.697 24.8C274.577 24.928 274.017 24 274.017 22.016C273.953 21.648 273.905 21.208 273.873 20.696C273.633 16.92 273.521 13.728 273.537 11.12C273.553 9.328 273.577 8.088 273.609 7.4C273.753 4.744 274.361 3.048 275.433 2.312ZM283.209 5.024C282.585 4.736 281.969 4.592 281.361 4.592C280.737 4.592 280.169 4.76 279.657 5.096C278.905 5.576 278.521 6.256 278.505 7.136C278.489 8.288 279.097 8.896 280.329 8.96C282.745 9.088 284.081 8.56 284.337 7.376C284.577 6.256 284.201 5.472 283.209 5.024ZM307.671 4.976C307.335 5.648 306.855 6.072 306.231 6.248C305.911 6.344 305.247 6.4 304.239 6.416C303.327 6.432 302.487 6.432 301.719 6.416C300.967 6.4 300.199 6.536 299.415 6.824C298.711 7.08 298.247 7.504 298.023 8.096C297.927 8.32 297.815 8.952 297.687 9.992C297.687 10.36 297.727 11.048 297.807 12.056C297.999 13.096 298.519 13.664 299.367 13.76C299.895 13.824 300.631 13.832 301.575 13.784C302.535 13.736 303.311 13.728 303.903 13.76L305.607 13.856C306.135 13.888 306.607 14.048 307.023 14.336C307.503 14.672 307.743 15.088 307.743 15.584C307.743 15.808 307.711 16.16 307.647 16.64C307.583 16.832 307.431 17.048 307.191 17.288C306.583 17.672 305.727 17.808 304.623 17.696C303.407 17.568 302.503 17.488 301.911 17.456C301.047 17.408 300.519 17.368 300.327 17.336C300.087 17.304 299.871 17.288 299.679 17.288C299.487 17.288 299.319 17.304 299.175 17.336C298.711 17.336 298.399 17.696 298.239 18.416C298.079 19.104 298.159 19.584 298.479 19.856C298.895 20.208 299.295 20.416 299.679 20.48C301.135 20.72 302.431 20.792 303.567 20.696C305.679 20.52 306.903 20.928 307.239 21.92C307.303 22.128 307.335 22.352 307.335 22.592C307.335 24.064 306.407 24.8 304.551 24.8C304.327 24.8 303.719 24.752 302.727 24.656C299.975 24.432 298.311 24.272 297.735 24.176C295.191 23.728 293.895 22.184 293.847 19.544C293.799 16.888 293.703 14.584 293.559 12.632C293.495 11.8 293.463 11.072 293.463 10.448C293.463 8.752 293.631 7.032 293.967 5.288C294.415 2.936 296.263 1.512 299.511 1.016C300.551 0.855999 301.327 0.783999 301.839 0.8C303.487 0.863999 304.967 1.112 306.279 1.544C306.743 1.752 307.127 2.16 307.431 2.768C307.735 3.36 307.847 3.912 307.767 4.424C307.719 4.744 307.687 4.928 307.671 4.976ZM328.699 17.528C328.747 18.328 328.603 19.192 328.267 20.12C327.947 21.064 327.651 21.648 327.379 21.872C326.899 22.272 326.531 22.56 326.275 22.736C325.827 23.04 325.411 23.264 325.027 23.408C323.939 23.824 322.227 24.184 319.891 24.488C318.835 24.632 318.051 24.672 317.539 24.608C316.435 24.496 315.603 24.408 315.043 24.344C314.227 24.216 313.467 23.848 312.763 23.24C312.203 22.76 311.923 22.12 311.923 21.32C311.923 21 311.971 20.648 312.067 20.264C312.355 19.144 313.155 18.584 314.467 18.584C314.707 18.584 314.955 18.6 315.211 18.632C316.635 18.808 317.707 18.968 318.427 19.112C318.843 19.08 319.227 19.064 319.579 19.064C320.763 19.08 321.675 18.992 322.315 18.8C323.419 18.48 323.931 17.848 323.851 16.904C323.755 15.88 322.875 15.192 321.211 14.84C320.555 14.696 319.315 14.592 317.491 14.528C315.459 14.448 313.923 14.064 312.883 13.376C311.619 12.544 310.883 11.184 310.675 9.296C310.643 8.992 310.627 8.664 310.627 8.312C310.627 7.08 310.907 5.928 311.467 4.856C312.027 3.768 312.683 2.968 313.435 2.456C314.123 1.976 315.107 1.616 316.387 1.376C318.243 1.04 319.779 0.871999 320.995 0.871999C321.299 0.871999 321.579 0.879999 321.835 0.895998L324.283 1.136C325.659 1.28 326.347 1.968 326.347 3.2C326.347 3.584 326.275 3.968 326.131 4.352C325.891 4.992 325.099 5.312 323.755 5.312C323.435 5.312 323.035 5.288 322.555 5.24C321.771 5.16 321.011 5.12 320.275 5.12C319.171 5.12 318.211 5.216 317.395 5.408C316.051 5.728 315.323 6.504 315.211 7.736C315.115 8.84 315.403 9.64 316.075 10.136C316.571 10.52 317.419 10.776 318.619 10.904C319.659 10.952 320.587 10.992 321.403 11.024C323.691 11.104 325.387 11.56 326.491 12.392C327.051 12.824 327.555 13.608 328.003 14.744C328.403 15.752 328.635 16.68 328.699 17.528ZM344.725 4.976C344.389 5.648 343.909 6.072 343.285 6.248C342.965 6.344 342.301 6.4 341.293 6.416C340.381 6.432 339.541 6.432 338.773 6.416C338.021 6.4 337.253 6.536 336.469 6.824C335.765 7.08 335.301 7.504 335.077 8.096C334.981 8.32 334.869 8.952 334.741 9.992C334.741 10.36 334.781 11.048 334.861 12.056C335.053 13.096 335.573 13.664 336.421 13.76C336.949 13.824 337.685 13.832 338.629 13.784C339.589 13.736 340.365 13.728 340.957 13.76L342.661 13.856C343.189 13.888 343.661 14.048 344.077 14.336C344.557 14.672 344.797 15.088 344.797 15.584C344.797 15.808 344.765 16.16 344.701 16.64C344.637 16.832 344.485 17.048 344.245 17.288C343.637 17.672 342.781 17.808 341.677 17.696C340.461 17.568 339.557 17.488 338.965 17.456C338.101 17.408 337.573 17.368 337.381 17.336C337.141 17.304 336.925 17.288 336.733 17.288C336.541 17.288 336.373 17.304 336.229 17.336C335.765 17.336 335.453 17.696 335.293 18.416C335.133 19.104 335.213 19.584 335.533 19.856C335.949 20.208 336.349 20.416 336.733 20.48C338.189 20.72 339.485 20.792 340.621 20.696C342.733 20.52 343.957 20.928 344.293 21.92C344.357 22.128 344.389 22.352 344.389 22.592C344.389 24.064 343.461 24.8 341.605 24.8C341.381 24.8 340.773 24.752 339.781 24.656C337.029 24.432 335.365 24.272 334.789 24.176C332.245 23.728 330.949 22.184 330.901 19.544C330.853 16.888 330.757 14.584 330.613 12.632C330.549 11.8 330.517 11.072 330.517 10.448C330.517 8.752 330.685 7.032 331.021 5.288C331.469 2.936 333.317 1.512 336.565 1.016C337.605 0.855999 338.381 0.783999 338.893 0.8C340.541 0.863999 342.021 1.112 343.333 1.544C343.797 1.752 344.181 2.16 344.485 2.768C344.789 3.36 344.901 3.912 344.821 4.424C344.773 4.744 344.741 4.928 344.725 4.976ZM350.082 2.312C350.978 1.528 352.954 1.024 356.01 0.8C357.706 0.671999 359.666 0.783999 361.89 1.136C364.21 1.504 365.594 2.664 366.042 4.616C366.25 5.528 366.354 6.296 366.354 6.92C366.354 7.736 366.194 8.424 365.874 8.984C364.546 11.272 362.282 12.432 359.082 12.464C358.602 12.464 357.898 12.432 356.97 12.368C356.042 12.288 355.354 12.248 354.906 12.248C354.73 12.248 354.642 12.304 354.642 12.416C354.642 12.592 354.818 12.872 355.17 13.256C356.354 14.52 357.33 15.616 358.098 16.544C359.202 17.856 360.034 18.832 360.594 19.472C361.746 20.88 362.322 21.944 362.322 22.664C362.322 23.432 361.906 24.016 361.074 24.416C360.77 24.56 360.466 24.632 360.162 24.632C359.17 24.632 358.162 24.088 357.138 23C356.386 22.184 355.722 21.208 355.146 20.072L352.242 14.24C352.578 17.536 352.738 19.528 352.722 20.216C352.706 21.448 352.706 22.128 352.722 22.256C352.722 22.656 352.626 23.088 352.434 23.552C352.242 24.016 351.97 24.336 351.618 24.512C351.362 24.64 350.938 24.736 350.346 24.8C349.226 24.928 348.666 24 348.666 22.016C348.602 21.648 348.554 21.208 348.522 20.696C348.282 16.92 348.17 13.728 348.186 11.12C348.202 9.328 348.226 8.088 348.258 7.4C348.402 4.744 349.01 3.048 350.082 2.312ZM357.858 5.024C357.234 4.736 356.618 4.592 356.01 4.592C355.386 4.592 354.818 4.76 354.306 5.096C353.554 5.576 353.17 6.256 353.154 7.136C353.138 8.288 353.746 8.896 354.978 8.96C357.394 9.088 358.73 8.56 358.986 7.376C359.226 6.256 358.85 5.472 357.858 5.024ZM388.199 3.92C388.231 4.992 387.999 6.464 387.503 8.336C387.119 9.776 386.663 11.2 386.135 12.608L384.503 17C383.591 19.432 382.479 21.6 381.167 23.504C380.607 24.064 380.239 24.4 380.063 24.512C379.679 24.752 379.199 24.84 378.623 24.776C377.663 24.664 376.871 24.336 376.247 23.792C375.735 23.344 375.215 22.632 374.687 21.656C374.031 20.376 373.551 19.416 373.247 18.776C371.919 16.184 370.615 12.896 369.335 8.912C368.791 7.216 368.543 5.816 368.591 4.712C368.623 3.88 368.671 3.336 368.735 3.08C369.039 1.736 369.815 0.983999 371.063 0.823999C371.767 0.743999 372.415 0.863999 373.007 1.184C374.159 1.808 374.879 3.936 375.167 7.568C375.295 9.056 375.607 10.72 376.103 12.56C376.327 13.376 376.831 14.992 377.615 17.408C377.839 18.096 377.991 18.44 378.071 18.44C378.103 18.44 378.119 18.368 378.119 18.224C378.919 18.496 379.863 16.272 380.951 11.552C381.047 11.168 381.303 9.728 381.719 7.232C382.023 5.376 382.351 3.992 382.703 3.08C383.151 1.896 383.815 1.144 384.695 0.823999C385.095 0.679999 385.479 0.607999 385.847 0.607999C386.183 0.607999 386.463 0.671999 386.687 0.8C387.663 1.328 388.167 2.368 388.199 3.92ZM403.741 4.976C403.405 5.648 402.925 6.072 402.301 6.248C401.981 6.344 401.317 6.4 400.309 6.416C399.397 6.432 398.557 6.432 397.789 6.416C397.037 6.4 396.269 6.536 395.485 6.824C394.781 7.08 394.317 7.504 394.093 8.096C393.997 8.32 393.885 8.952 393.757 9.992C393.757 10.36 393.797 11.048 393.877 12.056C394.069 13.096 394.589 13.664 395.437 13.76C395.965 13.824 396.701 13.832 397.645 13.784C398.605 13.736 399.381 13.728 399.973 13.76L401.677 13.856C402.205 13.888 402.677 14.048 403.093 14.336C403.573 14.672 403.813 15.088 403.813 15.584C403.813 15.808 403.781 16.16 403.717 16.64C403.653 16.832 403.501 17.048 403.261 17.288C402.653 17.672 401.797 17.808 400.693 17.696C399.477 17.568 398.573 17.488 397.981 17.456C397.117 17.408 396.589 17.368 396.397 17.336C396.157 17.304 395.941 17.288 395.749 17.288C395.557 17.288 395.389 17.304 395.245 17.336C394.781 17.336 394.469 17.696 394.309 18.416C394.149 19.104 394.229 19.584 394.549 19.856C394.965 20.208 395.365 20.416 395.749 20.48C397.205 20.72 398.501 20.792 399.637 20.696C401.749 20.52 402.973 20.928 403.309 21.92C403.373 22.128 403.405 22.352 403.405 22.592C403.405 24.064 402.477 24.8 400.621 24.8C400.397 24.8 399.789 24.752 398.797 24.656C396.045 24.432 394.381 24.272 393.805 24.176C391.261 23.728 389.965 22.184 389.917 19.544C389.869 16.888 389.773 14.584 389.629 12.632C389.565 11.8 389.533 11.072 389.533 10.448C389.533 8.752 389.701 7.032 390.037 5.288C390.485 2.936 392.333 1.512 395.581 1.016C396.621 0.855999 397.397 0.783999 397.909 0.8C399.557 0.863999 401.037 1.112 402.349 1.544C402.813 1.752 403.197 2.16 403.501 2.768C403.805 3.36 403.917 3.912 403.837 4.424C403.789 4.744 403.757 4.928 403.741 4.976ZM425.729 13.616C425.729 15.36 425.465 17.08 424.937 18.776C424.745 19.4 424.201 20.264 423.305 21.368C422.121 22.808 420.409 23.848 418.169 24.488C417.497 24.68 416.761 24.784 415.961 24.8C413.801 24.848 412.089 24.592 410.825 24.032C409.065 23.264 407.849 19.632 407.177 13.136C406.905 10.592 406.801 8.744 406.865 7.592C406.961 5.544 407.185 4.168 407.537 3.464C408.097 2.328 409.217 1.552 410.897 1.136C412.209 0.815999 413.417 0.655999 414.521 0.655999C415.081 0.655999 415.633 0.703999 416.177 0.8C417.617 1.056 418.897 1.464 420.017 2.024C421.153 2.584 422.049 3.272 422.705 4.088C423.201 4.696 423.761 5.704 424.385 7.112C424.417 7.208 424.465 7.296 424.529 7.376C425.329 9.328 425.729 11.408 425.729 13.616ZM415.625 6.968C415.097 6.856 414.601 6.8 414.137 6.8C413.625 6.8 413.193 6.88 412.841 7.04C412.153 7.36 411.713 8.504 411.521 10.472C411.409 11.8 411.409 13.128 411.521 14.456C411.649 15.928 411.793 16.984 411.953 17.624C412.129 18.248 412.545 18.736 413.201 19.088C413.777 19.392 414.425 19.544 415.145 19.544C415.673 19.544 416.233 19.456 416.825 19.28C418.089 18.896 419.017 18.232 419.609 17.288C420.105 16.488 420.409 15.368 420.521 13.928C420.633 12.488 420.193 11.048 419.201 9.608C418.209 8.152 417.017 7.272 415.625 6.968ZM431.894 22.016C431.99 23.056 431.678 23.792 430.958 24.224C430.558 24.464 430.078 24.52 429.518 24.392C429.31 24.344 429.158 24.272 429.062 24.176V24.128C429.046 24.096 429.038 24.072 429.038 24.056C428.926 23.96 428.758 23.864 428.534 23.768C428.198 23.4 428.03 22.976 428.03 22.496C428.03 22.272 428.078 22.016 428.174 21.728C428.334 21.264 428.638 20.872 429.086 20.552C429.55 20.232 430.03 20.072 430.526 20.072C431.326 20.072 431.782 20.72 431.894 22.016ZM459.457 17.528C459.505 18.328 459.361 19.192 459.025 20.12C458.705 21.064 458.409 21.648 458.137 21.872C457.657 22.272 457.289 22.56 457.033 22.736C456.585 23.04 456.169 23.264 455.785 23.408C454.697 23.824 452.985 24.184 450.649 24.488C449.593 24.632 448.809 24.672 448.297 24.608C447.193 24.496 446.361 24.408 445.801 24.344C444.985 24.216 444.225 23.848 443.521 23.24C442.961 22.76 442.681 22.12 442.681 21.32C442.681 21 442.729 20.648 442.825 20.264C443.113 19.144 443.913 18.584 445.225 18.584C445.465 18.584 445.713 18.6 445.969 18.632C447.393 18.808 448.465 18.968 449.185 19.112C449.601 19.08 449.985 19.064 450.337 19.064C451.521 19.08 452.433 18.992 453.073 18.8C454.177 18.48 454.689 17.848 454.609 16.904C454.513 15.88 453.633 15.192 451.969 14.84C451.313 14.696 450.073 14.592 448.249 14.528C446.217 14.448 444.681 14.064 443.641 13.376C442.377 12.544 441.641 11.184 441.433 9.296C441.401 8.992 441.385 8.664 441.385 8.312C441.385 7.08 441.665 5.928 442.225 4.856C442.785 3.768 443.441 2.968 444.193 2.456C444.881 1.976 445.865 1.616 447.145 1.376C449.001 1.04 450.537 0.871999 451.753 0.871999C452.057 0.871999 452.337 0.879999 452.593 0.895998L455.041 1.136C456.417 1.28 457.105 1.968 457.105 3.2C457.105 3.584 457.033 3.968 456.889 4.352C456.649 4.992 455.857 5.312 454.513 5.312C454.193 5.312 453.793 5.288 453.313 5.24C452.529 5.16 451.769 5.12 451.033 5.12C449.929 5.12 448.969 5.216 448.153 5.408C446.809 5.728 446.081 6.504 445.969 7.736C445.873 8.84 446.161 9.64 446.833 10.136C447.329 10.52 448.177 10.776 449.377 10.904C450.417 10.952 451.345 10.992 452.161 11.024C454.449 11.104 456.145 11.56 457.249 12.392C457.809 12.824 458.313 13.608 458.761 14.744C459.161 15.752 459.393 16.68 459.457 17.528ZM471.619 0.8C472.595 0.88 473.331 0.983999 473.827 1.112C474.563 1.32 475.227 1.664 475.819 2.144C476.491 2.704 476.955 3.296 477.211 3.92C477.675 5.04 477.955 6.12 478.051 7.16L478.291 9.608C478.387 10.584 478.443 11.408 478.459 12.08C478.475 13.136 478.403 14.432 478.243 15.968C479.331 16.256 480.507 16.632 481.771 17.096C482.011 17.224 482.187 17.456 482.299 17.792C482.411 18.112 482.451 18.424 482.419 18.728C482.419 18.936 482.395 19.088 482.347 19.184C482.299 19.344 482.251 19.496 482.203 19.64C482.139 19.912 481.891 20.12 481.459 20.264C481.043 20.424 480.683 20.48 480.379 20.432C480.091 20.432 479.859 20.4 479.683 20.336C478.547 20.096 477.923 19.96 477.811 19.928H477.739V20.024C477.643 20.504 477.427 21.136 477.091 21.92C476.547 23.168 475.451 23.984 473.803 24.368C472.379 24.688 471.203 24.824 470.275 24.776C468.707 24.68 467.307 24.512 466.075 24.272C464.203 23.904 463.027 22.92 462.547 21.32C462.483 21.096 462.347 20.304 462.139 18.944C461.963 17.728 461.851 16.296 461.803 14.648C461.787 13.224 461.771 11.792 461.755 10.352C461.739 8.944 462.051 7.12 462.691 4.88C463.475 2.112 465.923 0.727999 470.035 0.727999C470.531 0.727999 471.059 0.751999 471.619 0.8ZM474.115 15.056C474.115 9.456 473.259 6.392 471.547 5.864C470.779 5.624 469.715 5.624 468.355 5.864C466.947 6.12 466.083 7.704 465.763 10.616C465.571 12.296 465.571 14.328 465.763 16.712C465.955 19.064 467.035 20.384 469.003 20.672C469.755 20.784 470.395 20.84 470.923 20.84C471.835 20.84 472.459 20.696 472.795 20.408C473.355 19.944 473.635 19.536 473.635 19.184C472.339 19.024 471.051 18.744 469.771 18.344C469.259 18.184 468.835 17.944 468.499 17.624C468.163 17.288 468.083 16.952 468.259 16.616C468.499 15.816 468.883 15.368 469.411 15.272C470.211 15.128 471.083 15.12 472.027 15.248C473.163 15.392 473.859 15.48 474.115 15.512V15.056ZM502.841 18.368C502.665 21.68 500.881 23.648 497.489 24.272C496.273 24.496 495.185 24.608 494.225 24.608C492.257 24.608 490.425 24.04 488.729 22.904C487.385 22.008 486.553 20.76 486.233 19.16C486.089 18.44 485.889 16.768 485.633 14.144L485.009 7.76C484.929 6.944 484.889 6.176 484.889 5.456C484.889 4.176 485.033 3.232 485.321 2.624C485.769 1.696 486.521 1.248 487.577 1.28C488.761 1.328 489.553 1.76 489.953 2.576C490.193 3.056 490.353 4.016 490.433 5.456C490.497 6.432 490.497 7.952 490.433 10.016C490.385 12.016 490.401 13.536 490.481 14.576C490.609 16.304 490.817 17.432 491.105 17.96C491.665 18.984 492.793 19.568 494.489 19.712C495.177 19.776 495.841 19.56 496.481 19.064C497.137 18.552 497.545 17.144 497.705 14.84C497.753 13.768 497.825 12.16 497.921 10.016C497.985 8.672 497.961 6.928 497.849 4.784C497.737 2.672 498.433 1.52 499.937 1.328C500.177 1.296 500.393 1.28 500.585 1.28C501.657 1.28 502.465 1.704 503.009 2.552C503.473 3.272 503.705 4.192 503.705 5.312C503.705 5.76 503.673 6.184 503.609 6.584C503.353 8.2 503.177 10.16 503.081 12.464L502.841 18.368ZM514.77 1.16C516.354 1.608 517.266 2.224 517.506 3.008C517.618 3.376 517.674 3.736 517.674 4.088C517.674 4.52 517.586 4.92 517.41 5.288C517.058 6.04 516.642 6.544 516.162 6.8C515.842 6.976 515.402 7.064 514.842 7.064C514.538 7.064 514.194 7.04 513.81 6.992C513.89 7.888 513.93 8.84 513.93 9.848C513.93 10.648 514.002 12.032 514.146 14C514.274 15.824 514.322 17.2 514.29 18.128C514.274 18.544 514.274 18.856 514.29 19.064C514.306 19.592 514.394 19.832 514.554 19.784C516.634 19.528 517.826 20.032 518.13 21.296C518.178 21.504 518.202 21.704 518.202 21.896C518.202 22.856 517.682 23.592 516.642 24.104C515.89 24.488 514.954 24.72 513.834 24.8C512.138 24.928 510.858 24.896 509.994 24.704C508.826 24.448 507.986 24.112 507.474 23.696C506.754 23.136 506.434 22.328 506.514 21.272C506.626 19.832 507.33 19.112 508.626 19.112C508.866 19.112 509.114 19.144 509.37 19.208C509.402 19.208 509.618 19.248 510.018 19.328C510.082 18.592 510.082 17.52 510.018 16.112C509.954 14.528 509.93 13.448 509.946 12.872C509.978 12.12 509.962 11.136 509.898 9.92C509.834 8.592 509.802 7.608 509.802 6.968C508.218 6.776 507.338 6.664 507.162 6.632C506.826 6.536 506.522 6.288 506.25 5.888C505.93 5.424 505.778 4.592 505.794 3.392C505.81 2.224 506.906 1.448 509.082 1.064C510.09 0.888 511.034 0.8 511.914 0.8C512.954 0.8 513.906 0.92 514.77 1.16ZM539.237 13.616C539.237 15.36 538.973 17.08 538.445 18.776C538.253 19.4 537.709 20.264 536.813 21.368C535.629 22.808 533.917 23.848 531.677 24.488C531.005 24.68 530.269 24.784 529.469 24.8C527.309 24.848 525.597 24.592 524.333 24.032C522.573 23.264 521.357 19.632 520.685 13.136C520.413 10.592 520.309 8.744 520.373 7.592C520.469 5.544 520.693 4.168 521.045 3.464C521.605 2.328 522.725 1.552 524.405 1.136C525.717 0.815999 526.925 0.655999 528.029 0.655999C528.589 0.655999 529.141 0.703999 529.685 0.8C531.125 1.056 532.405 1.464 533.525 2.024C534.661 2.584 535.557 3.272 536.213 4.088C536.709 4.696 537.269 5.704 537.893 7.112C537.925 7.208 537.973 7.296 538.037 7.376C538.837 9.328 539.237 11.408 539.237 13.616ZM529.133 6.968C528.605 6.856 528.109 6.8 527.645 6.8C527.133 6.8 526.701 6.88 526.349 7.04C525.661 7.36 525.221 8.504 525.029 10.472C524.917 11.8 524.917 13.128 525.029 14.456C525.157 15.928 525.301 16.984 525.461 17.624C525.637 18.248 526.053 18.736 526.709 19.088C527.285 19.392 527.933 19.544 528.653 19.544C529.181 19.544 529.741 19.456 530.333 19.28C531.597 18.896 532.525 18.232 533.117 17.288C533.613 16.488 533.917 15.368 534.029 13.928C534.141 12.488 533.701 11.048 532.709 9.608C531.717 8.152 530.525 7.272 529.133 6.968ZM555.122 5.912C555.458 8.104 555.69 9.616 555.818 10.448C556.17 12.64 556.354 13.816 556.37 13.976C556.466 14.92 556.538 15.44 556.586 15.536C556.666 16.24 556.722 16.768 556.754 17.12C556.85 18.08 556.954 18.56 557.066 18.56C557.114 18.56 557.146 18.488 557.162 18.344C557.242 17.912 557.346 16.848 557.474 15.152L557.858 9.248C558.018 6.768 558.178 5.112 558.338 4.28C558.834 1.944 559.69 0.775999 560.906 0.775999C561.978 0.775999 562.762 1.232 563.258 2.144C563.674 2.896 563.842 3.84 563.762 4.976C563.474 9.2 562.898 13.368 562.034 17.48C561.074 21.992 559.874 24.408 558.434 24.728C557.826 24.872 557.354 24.896 557.018 24.8C556.698 24.72 556.226 24.432 555.602 23.936C554.642 23.168 553.85 21.304 553.226 18.344C552.938 16.984 552.674 15.304 552.434 13.304C552.29 12.184 552.106 10.496 551.882 8.24C551.578 11.504 551.346 13.552 551.186 14.384C551.058 15.056 550.898 16.248 550.706 17.96C550.386 20.824 549.938 22.64 549.362 23.408C549.058 23.824 548.49 24.176 547.658 24.464C547.338 24.576 547.018 24.632 546.698 24.632C546.186 24.632 545.706 24.48 545.258 24.176C544.522 23.68 544.042 23.152 543.818 22.592C543.418 21.616 543.074 20.456 542.786 19.112C542.53 17.704 542.322 16.52 542.162 15.56C541.938 14.168 541.674 11.92 541.37 8.816C541.114 6.176 541.018 4.368 541.082 3.392C541.146 2.32 541.546 1.584 542.282 1.184C542.666 0.975999 543.026 0.871999 543.362 0.871999C544.562 0.871999 545.41 1.968 545.906 4.16C546.13 5.136 546.306 6.704 546.434 8.864C546.626 12.048 546.754 13.912 546.818 14.456C547.026 16.12 547.146 17.08 547.178 17.336C547.178 17.752 547.21 17.96 547.274 17.96C547.322 17.96 547.346 17.88 547.346 17.72C547.826 15.528 548.122 13.696 548.234 12.224C548.442 9.648 548.706 7.512 549.026 5.816C549.554 3.032 550.546 1.656 552.002 1.688C552.738 1.704 553.314 1.928 553.73 2.36C554.05 2.68 554.362 3.232 554.666 4.016C554.842 4.48 554.994 5.112 555.122 5.912ZM575.803 0.8C578.827 1.072 580.915 3.552 582.067 8.24C582.323 9.264 582.635 11.104 583.003 13.76C583.291 15.824 583.435 17.712 583.435 19.424C583.435 20.592 583.283 21.664 582.979 22.64C582.547 24.08 581.875 24.8 580.963 24.8C580.131 24.8 579.515 24.616 579.115 24.248C578.715 23.88 578.459 23.272 578.347 22.424C578.235 21.592 578.163 20.24 578.131 18.368C578.099 16.592 578.003 15.224 577.843 14.264C577.459 11.88 576.843 10.672 575.995 10.64C575.115 10.608 574.435 10.672 573.955 10.832C572.995 11.152 572.403 11.952 572.179 13.232C572.067 13.856 572.051 14.928 572.131 16.448C572.243 18.784 572.355 20.408 572.467 21.32C572.499 21.576 572.515 21.792 572.515 21.968C572.515 23.888 571.723 24.848 570.139 24.848C569.979 24.848 569.771 24.832 569.515 24.8C568.235 24.64 567.395 23.912 566.995 22.616C566.739 21.8 566.659 20.6 566.755 19.016C566.899 16.536 566.987 15.056 567.019 14.576C567.099 13.408 567.395 11.528 567.907 8.936C568.355 6.68 568.803 4.984 569.251 3.848C569.683 2.776 570.443 1.976 571.531 1.448C572.475 0.983999 573.579 0.751999 574.843 0.751999C575.131 0.751999 575.451 0.767999 575.803 0.8ZM576.955 6.344C576.987 6.232 577.003 6.112 577.003 5.984C577.003 4.928 576.331 4.352 574.987 4.256C574.123 4.192 573.427 4.432 572.899 4.976C572.547 5.328 572.371 5.672 572.371 6.008C572.371 6.168 572.427 6.344 572.539 6.536C572.795 6.968 573.171 7.232 573.667 7.328C573.827 7.36 574.307 7.376 575.107 7.376C576.099 7.376 576.715 7.032 576.955 6.344ZM587.925 2.312C588.821 1.528 590.797 1.024 593.853 0.8C595.549 0.671999 597.509 0.783999 599.733 1.136C602.053 1.504 603.437 2.664 603.885 4.616C604.093 5.528 604.197 6.296 604.197 6.92C604.197 7.736 604.037 8.424 603.717 8.984C602.389 11.272 600.125 12.432 596.925 12.464C596.445 12.464 595.741 12.432 594.813 12.368C593.885 12.288 593.197 12.248 592.749 12.248C592.573 12.248 592.485 12.304 592.485 12.416C592.485 12.592 592.661 12.872 593.013 13.256C594.197 14.52 595.173 15.616 595.941 16.544C597.045 17.856 597.877 18.832 598.437 19.472C599.589 20.88 600.165 21.944 600.165 22.664C600.165 23.432 599.749 24.016 598.917 24.416C598.613 24.56 598.309 24.632 598.005 24.632C597.013 24.632 596.005 24.088 594.981 23C594.229 22.184 593.565 21.208 592.989 20.072L590.085 14.24C590.421 17.536 590.581 19.528 590.565 20.216C590.549 21.448 590.549 22.128 590.565 22.256C590.565 22.656 590.469 23.088 590.277 23.552C590.085 24.016 589.813 24.336 589.461 24.512C589.205 24.64 588.781 24.736 588.189 24.8C587.069 24.928 586.509 24 586.509 22.016C586.445 21.648 586.397 21.208 586.365 20.696C586.125 16.92 586.013 13.728 586.029 11.12C586.045 9.328 586.069 8.088 586.101 7.4C586.245 4.744 586.853 3.048 587.925 2.312ZM595.701 5.024C595.077 4.736 594.461 4.592 593.853 4.592C593.229 4.592 592.661 4.76 592.149 5.096C591.397 5.576 591.013 6.256 590.997 7.136C590.981 8.288 591.589 8.896 592.821 8.96C595.237 9.088 596.573 8.56 596.829 7.376C597.069 6.256 596.693 5.472 595.701 5.024ZM625.323 13.616C625.323 15.36 625.059 17.08 624.531 18.776C624.339 19.4 623.795 20.264 622.899 21.368C621.715 22.808 620.003 23.848 617.763 24.488C617.091 24.68 616.355 24.784 615.555 24.8C613.395 24.848 611.683 24.592 610.419 24.032C608.659 23.264 607.443 19.632 606.771 13.136C606.499 10.592 606.395 8.744 606.459 7.592C606.555 5.544 606.779 4.168 607.131 3.464C607.691 2.328 608.811 1.552 610.491 1.136C611.803 0.815999 613.011 0.655999 614.115 0.655999C614.675 0.655999 615.227 0.703999 615.771 0.8C617.211 1.056 618.491 1.464 619.611 2.024C620.747 2.584 621.643 3.272 622.299 4.088C622.795 4.696 623.355 5.704 623.979 7.112C624.011 7.208 624.059 7.296 624.123 7.376C624.923 9.328 625.323 11.408 625.323 13.616ZM615.219 6.968C614.691 6.856 614.195 6.8 613.731 6.8C613.219 6.8 612.787 6.88 612.435 7.04C611.747 7.36 611.307 8.504 611.115 10.472C611.003 11.8 611.003 13.128 611.115 14.456C611.243 15.928 611.387 16.984 611.547 17.624C611.723 18.248 612.139 18.736 612.795 19.088C613.371 19.392 614.019 19.544 614.739 19.544C615.267 19.544 615.827 19.456 616.419 19.28C617.683 18.896 618.611 18.232 619.203 17.288C619.699 16.488 620.003 15.368 620.115 13.928C620.227 12.488 619.787 11.048 618.795 9.608C617.803 8.152 616.611 7.272 615.219 6.968Z" fill="white"/>
</svg>
