<svg width="228" height="82" viewBox="0 0 228 82" fill="none" xmlns="http://www.w3.org/2000/svg">
<rect width="228" height="82" rx="10" fill="#48817B"/>
<path d="M33.9866 27.4C35.4373 27.3787 36.8773 27.4853 38.3066 27.72C41.8693 28.296 43.896 30.2267 44.3866 33.512C44.4506 33.9387 44.4826 34.3013 44.4826 34.6C44.4826 36.1573 43.992 37.6827 43.0106 39.176C41.816 40.9893 39.2773 42.1093 35.3946 42.536C38.9146 43.0907 41.2186 43.688 42.3066 44.328C44.6533 45.736 45.8586 47.976 45.9226 51.048C45.944 52.584 45.848 53.7253 45.6346 54.472C45.08 56.392 43.7786 57.6933 41.7306 58.376C39.384 59.1653 37.1653 59.56 35.0746 59.56C34.2853 59.56 33.5173 59.5067 32.7706 59.4C31.2133 59.1653 30.04 58.8453 29.2506 58.44C27.0533 57.3093 25.72 55.0693 25.2506 51.72C24.6533 47.4107 24.3546 43.208 24.3546 39.112C24.3546 37.5973 24.3973 36.104 24.4826 34.632C24.6746 31.0693 26.392 28.8613 29.6346 28.008C31.0853 27.624 32.536 27.4213 33.9866 27.4ZM29.8586 35.08C29.9226 36.7013 30.7866 37.512 32.4506 37.512C32.7066 37.512 33.0373 37.48 33.4426 37.416C35.832 37.0533 36.9413 36.0613 36.7706 34.44C36.6213 32.84 35.4053 32.072 33.1226 32.136C30.8826 32.2 29.7946 33.1813 29.8586 35.08ZM32.1306 48.232C30.9146 48.744 30.3386 49.5973 30.4026 50.792C30.4666 51.9867 31.2026 52.8187 32.6106 53.288C33.4426 53.5653 34.2426 53.704 35.0106 53.704C36.8666 53.704 37.9866 53.0853 38.3706 51.848C38.4773 51.5067 38.5306 51.1867 38.5306 50.888C38.5306 49.5653 37.56 48.616 35.6186 48.04C35.1066 47.8907 34.5946 47.816 34.0826 47.816C33.4426 47.816 32.792 47.9547 32.1306 48.232ZM73.7329 50.824C73.4982 55.24 71.1196 57.864 66.5969 58.696C64.9756 58.9947 63.5249 59.144 62.2449 59.144C59.6209 59.144 57.1782 58.3867 54.9169 56.872C53.1249 55.6773 52.0156 54.0133 51.5889 51.88C51.3969 50.92 51.1302 48.6907 50.7889 45.192L49.9569 36.68C49.8502 35.592 49.7969 34.568 49.7969 33.608C49.7969 31.9013 49.9889 30.6427 50.3729 29.832C50.9702 28.5947 51.9729 27.9973 53.3809 28.04C54.9596 28.104 56.0156 28.68 56.5489 29.768C56.8689 30.408 57.0822 31.688 57.1889 33.608C57.2742 34.9093 57.2742 36.936 57.1889 39.688C57.1249 42.3547 57.1462 44.3813 57.2529 45.768C57.4236 48.072 57.7009 49.576 58.0849 50.28C58.8316 51.6453 60.3356 52.424 62.5969 52.616C63.5142 52.7013 64.3996 52.4133 65.2529 51.752C66.1276 51.0693 66.6716 49.192 66.8849 46.12C66.9489 44.6907 67.0449 42.5467 67.1729 39.688C67.2582 37.896 67.2262 35.5707 67.0769 32.712C66.9276 29.896 67.8556 28.36 69.8609 28.104C70.1809 28.0613 70.4689 28.04 70.7249 28.04C72.1542 28.04 73.2316 28.6053 73.9569 29.736C74.5756 30.696 74.8849 31.9227 74.8849 33.416C74.8849 34.0133 74.8422 34.5787 74.7569 35.112C74.4156 37.2667 74.1809 39.88 74.0529 42.952L73.7329 50.824ZM97.4774 47.016C96.3467 48.4027 94.7681 49.096 92.7414 49.096C92.4214 49.096 92.0907 49.0747 91.7494 49.032C91.7921 50.3973 91.9094 51.7733 92.1014 53.16C92.2507 54.0987 92.4321 55.2613 92.6454 56.648C92.7094 57.224 92.5921 57.7787 92.2934 58.312C91.9947 58.8453 91.5894 59.1867 91.0774 59.336C90.5654 59.4853 89.9041 59.528 89.0934 59.464C87.6427 59.336 86.8961 58.0667 86.8534 55.656C86.8321 54.2693 86.6401 52.104 86.2774 49.16C84.4001 49.224 82.8214 48.7973 81.5414 47.88C80.2827 46.9413 79.4401 45.576 79.0134 43.784C78.8001 42.8453 78.4161 40.0827 77.8614 35.496C77.6907 34.0667 77.6054 32.8613 77.6054 31.88C77.6054 29.9387 77.9361 28.7333 78.5974 28.264C79.5361 27.6027 80.4427 27.2933 81.3174 27.336C83.4294 27.464 84.5707 28.7013 84.7414 31.048C84.8054 32.2213 84.9441 34.3653 85.1574 37.48C85.2001 38.056 85.2534 38.9307 85.3174 40.104C85.4454 42.1307 86.0747 43.3573 87.2054 43.784C87.5894 43.9333 88.1761 44.0187 88.9654 44.04C91.0347 44.104 92.2294 43.208 92.5494 41.352C92.6561 40.712 92.6987 39.6773 92.6774 38.248C92.6561 37.2027 92.6134 35.2507 92.5494 32.392C92.4641 29.896 93.0081 28.392 94.1814 27.88C95.1201 27.4747 95.9627 27.272 96.7094 27.272C98.1601 27.272 99.1947 27.9867 99.8134 29.416C100.283 30.4827 100.485 31.8267 100.421 33.448C100.336 35.88 100.101 38.2373 99.7174 40.52C99.1841 43.6773 98.4374 45.8427 97.4774 47.016ZM122.34 28.168C124.111 28.7653 125.839 30.7173 127.524 34.024C128.292 35.5387 129.327 38.0987 130.628 41.704C131.439 44.0293 132.047 45.768 132.452 46.92C133.306 49.288 134.02 50.9733 134.596 51.976C134.724 52.2107 134.852 52.328 134.98 52.328C135.151 52.328 135.258 51.9547 135.3 51.208C135.386 49.928 135.258 47.1867 134.916 42.984C134.575 38.7813 134.426 35.112 134.468 31.976C134.511 28.9253 135.695 27.4 138.02 27.4C140.879 27.4 142.308 29.7253 142.308 34.376C142.308 34.952 142.276 35.816 142.212 36.968C142.148 38.12 142.116 38.984 142.116 39.56C142.116 45.2773 141.743 50.0133 140.996 53.768C140.676 55.368 140.292 56.5307 139.844 57.256C139.226 58.2587 138.223 58.8987 136.836 59.176C136.41 59.2613 135.962 59.304 135.492 59.304C134.34 59.304 133.338 58.9733 132.484 58.312C130.479 56.7547 128.367 52.968 126.148 46.952C125.039 43.944 124.26 41.768 123.812 40.424C123.236 38.6747 122.671 37.8 122.116 37.8C122.01 37.8 121.914 37.832 121.828 37.896C120.996 38.3227 120.58 39.2187 120.58 40.584C120.58 40.8827 120.591 41.1493 120.612 41.384C121.124 46.9093 121.636 50.8347 122.148 53.16C122.34 54.0347 122.436 54.792 122.436 55.432C122.436 56.456 122.212 57.3413 121.764 58.088C121.231 58.9627 120.484 59.4 119.524 59.4C118.01 59.4 116.986 58.8987 116.452 57.896C115.62 56.36 115.204 52.52 115.204 46.376C115.204 41.9387 115.183 39.2933 115.14 38.44C115.098 37.5653 115.076 36.6907 115.076 35.816C115.076 32.936 115.332 31.0693 115.844 30.216C116.868 28.488 118.116 27.624 119.588 27.624C120.335 27.624 121.252 27.8053 122.34 28.168ZM146.405 32.84C147.451 29.1493 150.715 27.304 156.197 27.304C156.88 27.304 157.595 27.336 158.341 27.4C159.749 27.5067 160.795 27.656 161.477 27.848C162.309 28.0827 163.163 28.5627 164.037 29.288C164.912 30.0133 165.509 30.7707 165.829 31.56C166.448 33.0533 166.811 34.4933 166.917 35.88C166.96 36.5413 167.067 37.6293 167.237 39.144C167.387 40.4667 167.461 41.5867 167.461 42.504C167.483 44.7867 167.163 48.3067 166.501 53.064C166.437 53.512 166.149 54.344 165.637 55.56C165.04 56.9893 163.749 58.0453 161.765 58.728C160.4 59.1973 158.992 59.432 157.541 59.432C157.221 59.432 156.901 59.4213 156.581 59.4C155.045 59.2933 154.064 59.1973 153.637 59.112C152.869 58.9627 151.899 58.664 150.725 58.216C149.915 57.9173 149.072 57.3093 148.197 56.392C147.237 55.368 146.757 54.4827 146.757 53.736L145.733 49.736C145.456 48.6693 145.296 47.08 145.253 44.968C145.232 43.3467 145.221 41.7253 145.221 40.104C145.2 38.12 145.595 35.6987 146.405 32.84ZM158.117 34.088C156.923 33.7467 155.664 33.7467 154.341 34.088C152.933 34.4293 152.037 36.1787 151.653 39.336C151.461 40.872 151.365 42.344 151.365 43.752C151.365 45.3093 151.493 46.92 151.749 48.584C152.219 51.592 153.307 53.256 155.013 53.576C155.483 53.6613 155.952 53.704 156.421 53.704C157.488 53.704 158.373 53.448 159.077 52.936C160.08 52.2107 160.763 49.9707 161.125 46.216C161.253 44.8933 161.317 43.6773 161.317 42.568C161.317 40.8187 161.125 39.2187 160.741 37.768C160.187 35.656 159.312 34.4293 158.117 34.088ZM189.597 34.216C190.045 37.1387 190.354 39.1547 190.525 40.264C190.994 43.1867 191.24 44.7547 191.261 44.968C191.389 46.2267 191.485 46.92 191.549 47.048C191.656 47.9867 191.73 48.6907 191.773 49.16C191.901 50.44 192.04 51.08 192.189 51.08C192.253 51.08 192.296 50.984 192.317 50.792C192.424 50.216 192.562 48.7973 192.733 46.536L193.245 38.664C193.458 35.3573 193.672 33.1493 193.885 32.04C194.546 28.9253 195.688 27.368 197.309 27.368C198.738 27.368 199.784 27.976 200.445 29.192C201 30.1947 201.224 31.4533 201.117 32.968C200.733 38.6 199.965 44.1573 198.813 49.64C197.533 55.656 195.933 58.8773 194.013 59.304C193.202 59.496 192.573 59.528 192.125 59.4C191.698 59.2933 191.069 58.9093 190.237 58.248C188.957 57.224 187.901 54.7387 187.069 50.792C186.685 48.9787 186.333 46.7387 186.013 44.072C185.821 42.5787 185.576 40.328 185.277 37.32C184.872 41.672 184.562 44.4027 184.349 45.512C184.178 46.408 183.965 47.9973 183.709 50.28C183.282 54.0987 182.685 56.52 181.917 57.544C181.512 58.0987 180.754 58.568 179.645 58.952C179.218 59.1013 178.792 59.176 178.365 59.176C177.682 59.176 177.042 58.9733 176.445 58.568C175.464 57.9067 174.824 57.2027 174.525 56.456C173.992 55.1547 173.533 53.608 173.149 51.816C172.808 49.9387 172.53 48.36 172.317 47.08C172.018 45.224 171.666 42.2267 171.261 38.088C170.92 34.568 170.792 32.1573 170.877 30.856C170.962 29.4267 171.496 28.4453 172.477 27.912C172.989 27.6347 173.469 27.496 173.917 27.496C175.517 27.496 176.648 28.9573 177.309 31.88C177.608 33.1813 177.842 35.272 178.013 38.152C178.269 42.3973 178.44 44.8827 178.525 45.608C178.802 47.8267 178.962 49.1067 179.005 49.448C179.005 50.0027 179.048 50.28 179.133 50.28C179.197 50.28 179.229 50.1733 179.229 49.96C179.869 47.0373 180.264 44.5947 180.413 42.632C180.69 39.1973 181.042 36.3493 181.469 34.088C182.173 30.376 183.496 28.5413 185.437 28.584C186.418 28.6053 187.186 28.904 187.741 29.48C188.168 29.9067 188.584 30.6427 188.989 31.688C189.224 32.3067 189.426 33.1493 189.597 34.216Z" fill="white"/>
</svg>
