<svg width="240" height="82" viewBox="0 0 240 82" fill="none" xmlns="http://www.w3.org/2000/svg">
<rect width="240" height="82" rx="10" fill="#48817B"/>
<path d="M40.0995 25.4C41.5502 25.3787 42.9902 25.4853 44.4195 25.72C47.9822 26.296 50.0088 28.2267 50.4995 31.512C50.5635 31.9387 50.5955 32.3013 50.5955 32.6C50.5955 34.1573 50.1048 35.6827 49.1235 37.176C47.9288 38.9893 45.3902 40.1093 41.5075 40.536C45.0275 41.0907 47.3315 41.688 48.4195 42.328C50.7662 43.736 51.9715 45.976 52.0355 49.048C52.0568 50.584 51.9608 51.7253 51.7475 52.472C51.1928 54.392 49.8915 55.6933 47.8435 56.376C45.4968 57.1653 43.2782 57.56 41.1875 57.56C40.3982 57.56 39.6302 57.5067 38.8835 57.4C37.3262 57.1653 36.1528 56.8453 35.3635 56.44C33.1662 55.3093 31.8328 53.0693 31.3635 49.72C30.7662 45.4107 30.4675 41.208 30.4675 37.112C30.4675 35.5973 30.5102 34.104 30.5955 32.632C30.7875 29.0693 32.5048 26.8613 35.7475 26.008C37.1982 25.624 38.6488 25.4213 40.0995 25.4ZM35.9715 33.08C36.0355 34.7013 36.8995 35.512 38.5635 35.512C38.8195 35.512 39.1502 35.48 39.5555 35.416C41.9448 35.0533 43.0542 34.0613 42.8835 32.44C42.7342 30.84 41.5182 30.072 39.2355 30.136C36.9955 30.2 35.9075 31.1813 35.9715 33.08ZM38.2435 46.232C37.0275 46.744 36.4515 47.5973 36.5155 48.792C36.5795 49.9867 37.3155 50.8187 38.7235 51.288C39.5555 51.5653 40.3555 51.704 41.1235 51.704C42.9795 51.704 44.0995 51.0853 44.4835 49.848C44.5902 49.5067 44.6435 49.1867 44.6435 48.888C44.6435 47.5653 43.6728 46.616 41.7315 46.04C41.2195 45.8907 40.7075 45.816 40.1955 45.816C39.5555 45.816 38.9048 45.9547 38.2435 46.232ZM79.8458 48.824C79.6111 53.24 77.2324 55.864 72.7098 56.696C71.0884 56.9947 69.6378 57.144 68.3578 57.144C65.7338 57.144 63.2911 56.3867 61.0298 54.872C59.2378 53.6773 58.1284 52.0133 57.7018 49.88C57.5098 48.92 57.2431 46.6907 56.9018 43.192L56.0698 34.68C55.9631 33.592 55.9098 32.568 55.9098 31.608C55.9098 29.9013 56.1018 28.6427 56.4858 27.832C57.0831 26.5947 58.0858 25.9973 59.4938 26.04C61.0724 26.104 62.1284 26.68 62.6618 27.768C62.9818 28.408 63.1951 29.688 63.3018 31.608C63.3871 32.9093 63.3871 34.936 63.3018 37.688C63.2378 40.3547 63.2591 42.3813 63.3658 43.768C63.5364 46.072 63.8138 47.576 64.1978 48.28C64.9444 49.6453 66.4484 50.424 68.7098 50.616C69.6271 50.7013 70.5124 50.4133 71.3658 49.752C72.2404 49.0693 72.7844 47.192 72.9978 44.12C73.0618 42.6907 73.1578 40.5467 73.2858 37.688C73.3711 35.896 73.3391 33.5707 73.1898 30.712C73.0404 27.896 73.9684 26.36 75.9738 26.104C76.2938 26.0613 76.5818 26.04 76.8378 26.04C78.2671 26.04 79.3444 26.6053 80.0698 27.736C80.6884 28.696 80.9978 29.9227 80.9978 31.416C80.9978 32.0133 80.9551 32.5787 80.8698 33.112C80.5284 35.2667 80.2938 37.88 80.1658 40.952L79.8458 48.824ZM103.59 45.016C102.46 46.4027 100.881 47.096 98.8542 47.096C98.5343 47.096 98.2036 47.0747 97.8623 47.032C97.9049 48.3973 98.0223 49.7733 98.2143 51.16C98.3636 52.0987 98.5449 53.2613 98.7583 54.648C98.8223 55.224 98.7049 55.7787 98.4062 56.312C98.1076 56.8453 97.7023 57.1867 97.1903 57.336C96.6783 57.4853 96.0169 57.528 95.2063 57.464C93.7556 57.336 93.0089 56.0667 92.9663 53.656C92.9449 52.2693 92.7529 50.104 92.3903 47.16C90.5129 47.224 88.9343 46.7973 87.6543 45.88C86.3956 44.9413 85.5529 43.576 85.1263 41.784C84.9129 40.8453 84.5289 38.0827 83.9743 33.496C83.8036 32.0667 83.7183 30.8613 83.7183 29.88C83.7183 27.9387 84.0489 26.7333 84.7103 26.264C85.6489 25.6027 86.5556 25.2933 87.4303 25.336C89.5423 25.464 90.6836 26.7013 90.8542 29.048C90.9183 30.2213 91.0569 32.3653 91.2703 35.48C91.3129 36.056 91.3663 36.9307 91.4303 38.104C91.5583 40.1307 92.1876 41.3573 93.3183 41.784C93.7023 41.9333 94.2889 42.0187 95.0783 42.04C97.1476 42.104 98.3423 41.208 98.6623 39.352C98.7689 38.712 98.8116 37.6773 98.7903 36.248C98.7689 35.2027 98.7263 33.2507 98.6623 30.392C98.5769 27.896 99.1209 26.392 100.294 25.88C101.233 25.4747 102.076 25.272 102.822 25.272C104.273 25.272 105.308 25.9867 105.926 27.416C106.396 28.4827 106.598 29.8267 106.534 31.448C106.449 33.88 106.214 36.2373 105.83 38.52C105.297 41.6773 104.55 43.8427 103.59 45.016ZM128.453 26.168C130.224 26.7653 131.952 28.7173 133.637 32.024C134.405 33.5387 135.44 36.0987 136.741 39.704C137.552 42.0293 138.16 43.768 138.565 44.92C139.419 47.288 140.133 48.9733 140.709 49.976C140.837 50.2107 140.965 50.328 141.093 50.328C141.264 50.328 141.371 49.9547 141.413 49.208C141.499 47.928 141.371 45.1867 141.029 40.984C140.688 36.7813 140.539 33.112 140.581 29.976C140.624 26.9253 141.808 25.4 144.133 25.4C146.992 25.4 148.421 27.7253 148.421 32.376C148.421 32.952 148.389 33.816 148.325 34.968C148.261 36.12 148.229 36.984 148.229 37.56C148.229 43.2773 147.856 48.0133 147.109 51.768C146.789 53.368 146.405 54.5307 145.957 55.256C145.339 56.2587 144.336 56.8987 142.949 57.176C142.523 57.2613 142.075 57.304 141.605 57.304C140.453 57.304 139.451 56.9733 138.597 56.312C136.592 54.7547 134.48 50.968 132.261 44.952C131.152 41.944 130.373 39.768 129.925 38.424C129.349 36.6747 128.784 35.8 128.229 35.8C128.123 35.8 128.027 35.832 127.941 35.896C127.109 36.3227 126.693 37.2187 126.693 38.584C126.693 38.8827 126.704 39.1493 126.725 39.384C127.237 44.9093 127.749 48.8347 128.261 51.16C128.453 52.0347 128.549 52.792 128.549 53.432C128.549 54.456 128.325 55.3413 127.877 56.088C127.344 56.9627 126.597 57.4 125.637 57.4C124.123 57.4 123.099 56.8987 122.565 55.896C121.733 54.36 121.317 50.52 121.317 44.376C121.317 39.9387 121.296 37.2933 121.253 36.44C121.211 35.5653 121.189 34.6907 121.189 33.816C121.189 30.936 121.445 29.0693 121.957 28.216C122.981 26.488 124.229 25.624 125.701 25.624C126.448 25.624 127.365 25.8053 128.453 26.168ZM152.518 30.84C153.564 27.1493 156.828 25.304 162.31 25.304C162.993 25.304 163.708 25.336 164.454 25.4C165.862 25.5067 166.908 25.656 167.59 25.848C168.422 26.0827 169.276 26.5627 170.15 27.288C171.025 28.0133 171.622 28.7707 171.942 29.56C172.561 31.0533 172.924 32.4933 173.03 33.88C173.073 34.5413 173.18 35.6293 173.35 37.144C173.5 38.4667 173.574 39.5867 173.574 40.504C173.596 42.7867 173.276 46.3067 172.614 51.064C172.55 51.512 172.262 52.344 171.75 53.56C171.153 54.9893 169.862 56.0453 167.878 56.728C166.513 57.1973 165.105 57.432 163.654 57.432C163.334 57.432 163.014 57.4213 162.694 57.4C161.158 57.2933 160.177 57.1973 159.75 57.112C158.982 56.9627 158.012 56.664 156.838 56.216C156.028 55.9173 155.185 55.3093 154.31 54.392C153.35 53.368 152.87 52.4827 152.87 51.736L151.846 47.736C151.569 46.6693 151.409 45.08 151.366 42.968C151.345 41.3467 151.334 39.7253 151.334 38.104C151.313 36.12 151.708 33.6987 152.518 30.84ZM164.23 32.088C163.036 31.7467 161.777 31.7467 160.454 32.088C159.046 32.4293 158.15 34.1787 157.766 37.336C157.574 38.872 157.478 40.344 157.478 41.752C157.478 43.3093 157.606 44.92 157.862 46.584C158.332 49.592 159.42 51.256 161.126 51.576C161.596 51.6613 162.065 51.704 162.534 51.704C163.601 51.704 164.486 51.448 165.19 50.936C166.193 50.2107 166.876 47.9707 167.238 44.216C167.366 42.8933 167.43 41.6773 167.43 40.568C167.43 38.8187 167.238 37.2187 166.854 35.768C166.3 33.656 165.425 32.4293 164.23 32.088ZM195.71 32.216C196.158 35.1387 196.467 37.1547 196.638 38.264C197.107 41.1867 197.352 42.7547 197.374 42.968C197.502 44.2267 197.598 44.92 197.662 45.048C197.768 45.9867 197.843 46.6907 197.886 47.16C198.014 48.44 198.152 49.08 198.302 49.08C198.366 49.08 198.408 48.984 198.43 48.792C198.536 48.216 198.675 46.7973 198.846 44.536L199.358 36.664C199.571 33.3573 199.784 31.1493 199.998 30.04C200.659 26.9253 201.8 25.368 203.422 25.368C204.851 25.368 205.896 25.976 206.558 27.192C207.112 28.1947 207.336 29.4533 207.23 30.968C206.846 36.6 206.078 42.1573 204.926 47.64C203.646 53.656 202.046 56.8773 200.126 57.304C199.315 57.496 198.686 57.528 198.238 57.4C197.811 57.2933 197.182 56.9093 196.35 56.248C195.07 55.224 194.014 52.7387 193.182 48.792C192.798 46.9787 192.446 44.7387 192.126 42.072C191.934 40.5787 191.688 38.328 191.39 35.32C190.984 39.672 190.675 42.4027 190.462 43.512C190.291 44.408 190.078 45.9973 189.822 48.28C189.395 52.0987 188.798 54.52 188.03 55.544C187.624 56.0987 186.867 56.568 185.758 56.952C185.331 57.1013 184.904 57.176 184.478 57.176C183.795 57.176 183.155 56.9733 182.558 56.568C181.576 55.9067 180.936 55.2027 180.638 54.456C180.104 53.1547 179.646 51.608 179.262 49.816C178.92 47.9387 178.643 46.36 178.43 45.08C178.131 43.224 177.779 40.2267 177.374 36.088C177.032 32.568 176.904 30.1573 176.99 28.856C177.075 27.4267 177.608 26.4453 178.59 25.912C179.102 25.6347 179.582 25.496 180.03 25.496C181.63 25.496 182.76 26.9573 183.422 29.88C183.72 31.1813 183.955 33.272 184.126 36.152C184.382 40.3973 184.552 42.8827 184.638 43.608C184.915 45.8267 185.075 47.1067 185.118 47.448C185.118 48.0027 185.16 48.28 185.246 48.28C185.31 48.28 185.342 48.1733 185.342 47.96C185.982 45.0373 186.376 42.5947 186.526 40.632C186.803 37.1973 187.155 34.3493 187.582 32.088C188.286 28.376 189.608 26.5413 191.55 26.584C192.531 26.6053 193.299 26.904 193.854 27.48C194.28 27.9067 194.696 28.6427 195.102 29.688C195.336 30.3067 195.539 31.1493 195.71 32.216Z" fill="white"/>
</svg>
