<svg width="1440" height="213" viewBox="0 0 1440 213" fill="none" xmlns="http://www.w3.org/2000/svg">
<rect x="-9.01465" y="0.729248" width="1453.03" height="136" transform="rotate(3 -9.01465 0.729248)" fill="black"/>
<path d="M27.0738 56.5756C27.2242 52.4819 27.3515 50.0532 27.4556 49.2896C27.9174 45.9812 28.916 44.0469 30.4514 43.4865C31.2032 43.2054 31.8666 43.08 32.4419 43.1101C33.8799 43.1855 34.9152 43.9127 35.5479 45.2917C36.0662 46.4083 36.2532 47.7319 36.1089 49.2625C35.8874 51.6541 35.7693 53.6026 35.7545 55.1079L35.6837 65.6306C35.6623 67.8726 35.6592 69.1542 35.6744 69.4754C35.9359 73.046 36.1484 75.7168 36.312 77.4878C36.533 80.6076 36.5218 83.2667 36.2784 85.4649C36.1038 86.9619 35.6399 88.1712 34.8866 89.0931C34.0308 90.1377 32.8998 90.6232 31.4938 90.5495C30.8866 90.5177 30.2374 90.3715 29.546 90.111C28.1298 89.6202 27.2306 88.4355 26.8484 86.5569C26.6396 85.6487 26.5627 84.0585 26.6177 81.7863L26.7896 72.086C26.8478 69.141 25.6559 67.7327 23.2138 67.8611C20.4825 68.0063 18.5122 67.9992 17.3029 67.8397C15.742 67.6618 14.882 68.7863 14.7228 71.2133C14.5585 73.7361 14.4952 76.4726 14.5329 79.4226C14.5722 82.3406 14.5332 84.6137 14.4158 86.2418C14.1794 89.5299 12.1765 90.7548 8.40726 89.9164C7.04487 89.6207 6.09282 89.1382 5.5511 88.4689C5.00771 87.8316 4.75605 86.8251 4.7961 85.4493C4.8377 83.4327 4.86101 82.3764 4.86604 82.2806C4.94991 81.2916 4.97546 78.9698 4.94269 75.315C4.92974 70.0592 4.92976 66.3901 4.94275 64.308C4.92157 59.8207 4.95529 56.4258 5.04392 54.1233C5.20121 50.5106 5.35123 48.2593 5.494 47.3696C6.00629 44.3202 7.05792 42.5969 8.64889 42.1996C9.36365 42.0128 9.97668 41.9328 10.488 41.9596C12.5971 42.0701 13.9884 43.9535 14.662 47.6097C15.0122 49.4866 15.1203 51.3989 14.9862 53.3466C14.8186 55.9333 14.8038 57.4386 14.9418 57.8624C15.302 58.9388 16.5517 59.549 18.6911 59.6932C21.7892 59.8876 23.5636 59.9646 24.0143 59.9241C25.9854 59.6108 27.0052 58.4947 27.0738 56.5756ZM45.0345 51.9413C46.8901 46.4949 51.9243 43.9869 60.137 44.4173C61.1596 44.4709 62.2276 44.575 63.3411 44.7295C65.4418 44.9998 66.9959 45.3055 68.0035 45.6467C69.2313 46.0636 70.4719 46.8496 71.7251 48.0047C72.9784 49.1599 73.8137 50.3413 74.2311 51.5488C75.0406 53.8342 75.4708 56.0198 75.5217 58.1053C75.5337 59.0993 75.6081 60.7374 75.7448 63.0197C75.8647 65.0127 75.8886 66.6963 75.8166 68.0704C75.6694 71.4914 74.9137 76.739 73.5496 83.8133C73.4185 84.4794 72.9218 85.703 72.0594 87.4843C71.0524 89.5785 69.0362 91.059 66.0107 91.9259C63.9286 92.5217 61.8011 92.7627 59.6281 92.6488C59.1487 92.6237 58.6702 92.5826 58.1926 92.5255C55.9001 92.2452 54.4376 92.0243 53.8052 91.863C52.6665 91.579 51.236 91.0554 49.5135 90.2922C48.3227 89.7812 47.1081 88.8043 45.8699 87.3615C44.5123 85.7523 43.8628 84.3884 43.9214 83.2699L42.7015 77.1978C42.3698 75.5782 42.2549 73.1849 42.3568 70.0179C42.4521 67.5875 42.5634 65.158 42.6907 62.7294C42.8145 59.7558 43.5958 56.1597 45.0345 51.9413ZM62.4805 54.7301C60.7177 54.125 58.8323 54.0262 56.8243 54.4337C54.6884 54.8345 53.2089 57.3845 52.3858 62.0839C51.9776 64.3697 51.7182 66.5671 51.6077 68.6762C51.4855 71.009 51.5508 73.4317 51.8036 75.9444C52.2705 80.4871 53.7696 83.0651 56.301 83.6784C56.9973 83.8431 57.697 83.9438 58.4001 83.9807C59.9979 84.0644 61.3441 83.7504 62.4389 83.0388C63.9978 82.031 65.1962 78.7292 66.0342 73.1333C66.3298 71.1621 66.5211 69.3456 66.6082 67.6839C66.7455 65.0635 66.5835 62.6517 66.1222 60.4486C65.4571 57.2414 64.2432 55.3352 62.4805 54.7301ZM88.0624 46.0251C90.9989 45.6342 92.9778 46.3948 93.9991 48.3069C94.4955 49.2301 94.8195 50.3847 94.9712 51.7705C95.1228 53.1563 95.0903 54.3883 94.8736 55.4665C94.3007 58.4486 93.9034 60.5266 93.6817 61.7006C92.9844 64.6121 92.5258 67.2477 92.306 69.6075C92.15 71.3617 92.0359 72.6215 91.9637 73.3867C91.4721 78.488 91.6847 81.4632 92.6015 82.3123C93.885 83.5011 95.7891 84.1617 98.3136 84.294C99.9231 84.1541 101.13 84.0571 101.934 84.0031C103.659 84.0935 105.261 84.1133 106.737 84.0626C108.503 83.9949 109.997 84.2334 111.218 84.778C112.88 85.474 113.67 86.6049 113.588 88.1707C113.422 91.3344 112.489 93.2401 110.789 93.888C110.2 94.1136 108.749 94.2938 106.434 94.4289C102.706 94.6501 99.4033 94.6853 96.5272 94.5345C95.3129 94.4709 93.9782 94.2568 92.5233 93.8921C89.2014 93.0772 86.9097 92.172 85.648 91.1766C84.8793 90.5595 84.2088 89.5951 83.6367 88.2833C83.1235 87.0708 82.8465 85.9348 82.8059 84.8752C82.7282 83.301 82.6741 82.1926 82.6437 81.5501C82.4916 78.3378 82.3995 76.1219 82.3673 74.9026C82.1764 71.2075 82.1093 68.2079 82.1659 65.9037C82.2861 61.7763 82.3545 59.2484 82.3711 58.32C82.4177 56.2076 82.4477 54.7191 82.4609 53.8546C82.524 50.2049 83.3014 47.9065 84.793 46.9592C85.4623 46.4175 86.2939 46.1407 87.2879 46.1287C87.7084 46.0546 87.9665 46.02 88.0624 46.0251ZM149.073 78.6869C147.27 80.6752 144.851 81.5899 141.815 81.4308C141.336 81.4057 140.842 81.3478 140.334 81.257C140.291 83.3056 140.359 85.376 140.538 87.4682C140.688 88.886 140.868 90.6418 141.079 92.7357C141.129 93.6036 140.91 94.4252 140.421 95.2007C139.931 95.9761 139.298 96.4556 138.519 96.6391C137.74 96.8226 136.746 96.8346 135.537 96.6751C133.374 96.3695 132.355 94.4095 132.48 90.7951C132.557 88.7162 132.44 85.4576 132.128 81.0192C129.31 80.9677 126.979 80.2046 125.134 78.73C123.322 77.2252 122.167 75.1138 121.669 72.396C121.423 70.9732 121.064 66.8047 120.594 59.8906C120.45 57.7361 120.417 55.9239 120.494 54.4539C120.646 51.5459 121.236 49.7664 122.264 49.1153C123.722 48.1983 125.104 47.8061 126.411 47.9387C129.565 48.2962 131.177 50.2393 131.249 53.7679C131.252 55.5305 131.292 58.7529 131.367 63.4353C131.386 64.3015 131.397 65.6158 131.4 67.3785C131.433 70.4243 132.28 72.3112 133.94 73.0391C134.503 73.2929 135.375 73.4668 136.556 73.5608C139.651 73.8191 141.511 72.5707 142.136 69.8156C142.346 68.8653 142.491 67.3188 142.571 65.1761C142.621 63.6085 142.71 60.6812 142.839 56.3941C142.907 52.6485 143.84 50.4383 145.638 49.7634C147.076 49.23 148.354 48.9925 149.472 49.0512C151.645 49.165 153.139 50.3168 153.954 52.5064C154.573 54.1411 154.771 56.1702 154.548 58.5939C154.229 62.2302 153.693 65.7429 152.938 69.1321C151.891 73.8197 150.603 77.0046 149.073 78.6869ZM203.084 63.3486C201.157 62.831 199.426 62.532 197.892 62.4516C192.044 62.1451 187.986 64.6722 185.719 70.0329C185.17 71.318 184.852 72.8073 184.763 74.501C184.651 76.6421 184.955 79.0934 185.676 81.8548C186.772 86.0139 189.62 88.214 194.222 88.4552C194.829 88.487 195.726 88.4859 196.914 88.452C198.135 88.3879 199.049 88.3717 199.656 88.4035C203.619 88.6112 206.07 89.8291 207.011 92.0574C207.268 92.6477 207.38 93.2784 207.344 93.9495C207.246 95.8349 205.545 97.412 202.242 98.6809C198.712 99.3931 196.211 99.7267 194.739 99.6816C191.283 99.5966 187.679 98.6547 183.928 96.8559C178.801 94.4083 175.984 88.5568 175.475 79.3015C175.381 77.438 175.381 75.5955 175.477 73.774C175.601 71.4092 175.885 69.0369 176.33 66.6569C177.125 62.5008 178.387 59.5068 180.118 57.6748C182.219 55.4778 184.399 53.9418 186.656 53.0667C188.519 52.3632 191.188 51.8783 194.663 51.6117C196.368 51.4768 197.892 51.4445 199.234 51.5149C201.215 51.6187 202.865 51.9295 204.184 52.4472C207.755 53.4034 209.601 55.7753 209.723 59.5629C209.825 62.5162 208.422 63.9167 205.514 63.7643C204.779 63.7258 203.969 63.5872 203.084 63.3486ZM242.201 62.4666C241.459 63.7736 240.456 64.5701 239.192 64.8564C238.542 65.0146 237.21 65.0569 235.195 64.9834C233.372 64.9199 231.695 64.832 230.162 64.7196C228.662 64.6089 227.114 64.8002 225.518 65.2933C224.085 65.7309 223.114 66.5292 222.605 67.6881C222.389 68.1255 222.1 69.376 221.735 71.4398C221.697 72.1748 221.704 73.5531 221.759 75.5747C222.033 77.6719 223.012 78.8608 224.696 79.1413C225.744 79.3244 227.213 79.4174 229.104 79.4203C231.026 79.425 232.577 79.4902 233.756 79.6161L237.149 79.9862C238.2 80.1054 239.126 80.4743 239.927 81.0931C240.85 81.8144 241.286 82.6704 241.234 83.661C241.211 84.1084 241.11 84.8081 240.932 85.7601C240.784 86.1369 240.458 86.5524 239.953 87.0066C238.699 87.7099 236.975 87.8919 234.782 87.5527C232.366 87.1697 230.569 86.9153 229.39 86.7895C227.67 86.6031 226.619 86.468 226.239 86.384C225.763 86.2949 225.333 86.2404 224.95 86.2203C224.566 86.2002 224.229 86.2146 223.938 86.2634C223.012 86.2148 222.351 86.9012 221.956 88.3225C221.564 89.6798 221.674 90.6469 222.284 91.2236C223.078 91.9702 223.856 92.4275 224.616 92.5955C227.499 93.2273 230.08 93.5067 232.359 93.4339C236.595 93.3035 238.997 94.2465 239.564 96.2629C239.67 96.685 239.711 97.1358 239.686 97.6151C239.532 100.555 237.601 101.928 233.894 101.734C233.447 101.71 232.238 101.551 230.266 101.255C224.793 100.52 221.487 100.026 220.346 99.7739C215.312 98.6129 212.885 95.3934 213.066 90.1157C213.248 84.8059 213.297 80.1942 213.214 76.2805C213.173 74.612 213.186 73.1547 213.251 71.9084C213.428 68.521 213.944 65.1033 214.798 61.6553C215.939 57.0046 219.779 54.354 226.318 53.7033C228.412 53.4926 229.969 53.43 230.99 53.5156C234.275 53.8159 237.205 54.4661 239.78 55.4663C240.685 55.9303 241.409 56.7853 241.953 58.0315C242.498 59.2457 242.664 60.3599 242.45 61.3741C242.321 62.0082 242.238 62.3724 242.201 62.4666ZM286.271 68.237C286.051 69.9878 285.541 71.7716 284.741 73.5882C283.107 77.2517 280.287 79.3951 276.281 80.0183C275.474 80.1362 273.577 80.261 270.59 80.3929C269.241 80.4504 267.863 80.4423 266.457 80.3686C263.933 80.2363 261.356 79.8769 258.727 79.2905C258.604 86.526 258.694 90.9368 258.995 92.5227C259.244 93.8816 259.385 95.1707 259.417 96.3901C259.438 97.8331 259.298 98.9794 258.997 99.8288C258.716 100.904 257.968 101.73 256.752 102.307C255.568 102.886 254.439 103.035 253.364 102.754C251.182 102.191 250.015 99.6946 249.863 95.2645C249.787 93.0495 249.746 91.3811 249.741 90.2593C249.565 86.8855 249.53 83.5831 249.635 80.3522L250.153 70.4777C250.272 68.2088 250.714 65.8768 251.481 63.4816C252.783 59.4162 255.945 56.8742 260.965 55.8555C262.941 55.4464 266.214 55.3616 270.784 55.6011C275.162 55.8305 278.62 56.7968 281.158 58.5C283.108 59.8198 284.479 61.1734 285.271 62.5608C286.212 64.1803 286.545 66.0723 286.271 68.237ZM270.303 72.1105C271.954 71.1717 272.815 70.0312 272.885 68.689C272.927 67.8901 272.683 67.0442 272.153 66.1512C270.977 64.1349 269.111 63.0597 266.554 62.9258C265.819 62.8872 265.162 62.9008 264.582 62.9666C260.972 63.3542 259.155 65.3258 259.129 68.8813C259.1 71.2511 260.984 72.5995 264.781 72.9266C266.854 73.0994 268.186 73.073 268.774 72.8475L269.755 72.4664C270.019 72.32 270.202 72.2014 270.303 72.1105ZM312.104 71.5134C312.255 67.4197 312.382 64.991 312.486 64.2274C312.948 60.9191 313.947 58.9847 315.482 58.4243C316.234 58.1432 316.897 58.0178 317.473 58.0479C318.911 58.1233 319.946 58.8505 320.579 60.2295C321.097 61.3461 321.284 62.6697 321.14 64.2003C320.918 66.592 320.8 68.5405 320.785 70.0457L320.714 80.5685C320.693 82.8104 320.69 84.092 320.705 84.4132C320.967 87.9838 321.179 90.6546 321.343 92.4256C321.564 95.5454 321.553 98.2045 321.309 100.403C321.135 101.9 320.671 103.109 319.917 104.031C319.062 105.076 317.931 105.561 316.524 105.487C315.917 105.456 315.268 105.309 314.577 105.049C313.161 104.558 312.261 103.373 311.879 101.495C311.67 100.587 311.593 98.9964 311.648 96.7241L311.82 87.0238C311.879 84.0788 310.687 82.6705 308.245 82.7989C305.513 82.9441 303.543 82.937 302.334 82.7775C300.773 82.5996 299.913 83.7241 299.753 86.1511C299.589 88.674 299.526 91.4104 299.564 94.3604C299.603 97.2785 299.564 99.5515 299.447 101.18C299.21 104.468 297.207 105.693 293.438 104.854C292.076 104.558 291.124 104.076 290.582 103.407C290.038 102.769 289.787 101.763 289.827 100.387C289.868 98.3705 289.892 97.3143 289.897 97.2184C289.981 96.2294 290.006 93.9076 289.973 90.2529C289.96 84.997 289.96 81.328 289.973 79.2458C289.952 74.7585 289.986 71.3636 290.075 69.0611C290.232 65.4484 290.382 63.1972 290.525 62.3074C291.037 59.2581 292.089 57.5347 293.68 57.1375C294.394 56.9506 295.007 56.8706 295.519 56.8974C297.628 57.0079 299.019 58.8913 299.693 62.5476C300.043 64.4245 300.151 66.3368 300.017 68.2844C299.849 70.8712 299.834 72.3765 299.972 72.8003C300.333 73.8766 301.582 74.4868 303.722 74.631C306.82 74.8254 308.594 74.9024 309.045 74.8619C311.016 74.5486 312.036 73.4325 312.104 71.5134ZM347.509 59.6221C353.52 60.4819 357.431 65.6536 359.241 75.1373C359.645 77.2093 360.076 80.9169 360.533 86.2602C360.892 90.4127 360.982 94.1986 360.803 97.6179C360.68 99.9507 360.265 102.076 359.555 103.993C358.542 106.824 357.124 108.192 355.303 108.096C353.641 108.009 352.43 107.577 351.67 106.8C350.909 106.024 350.461 104.782 350.327 103.077C350.19 101.404 350.188 98.6958 350.32 94.9536C350.442 91.4031 350.393 88.6608 350.174 86.7267C349.657 81.925 348.553 79.4479 346.862 79.2952C345.108 79.1392 343.743 79.1958 342.768 79.4651C340.817 80.0038 339.551 81.5396 338.97 84.0727C338.681 85.3072 338.536 87.4466 338.537 90.4908C338.516 95.1681 338.57 98.4234 338.698 100.257C338.735 100.771 338.745 101.204 338.726 101.556C338.525 105.391 336.843 107.225 333.679 107.059C333.36 107.043 332.946 106.989 332.438 106.898C329.898 106.445 328.297 104.903 327.634 102.272C327.208 100.616 327.174 98.2107 327.531 95.0571C328.078 90.1189 328.409 87.1722 328.523 86.2169C328.805 83.8925 329.593 80.1686 330.887 75.0453C332.018 70.5864 333.09 67.2459 334.104 65.0239C335.079 62.9281 336.681 61.4098 338.909 60.4691C340.843 59.6412 343.072 59.2934 345.597 59.4257C346.172 59.4559 346.809 59.5213 347.509 59.6221ZM349.23 70.8155C349.305 70.5951 349.35 70.3571 349.363 70.1015C349.474 67.9924 348.192 66.7716 345.517 66.4392C343.799 66.2209 342.383 66.6274 341.272 67.6587C340.532 68.3249 340.144 68.9935 340.109 69.6646C340.092 69.9841 340.186 70.3415 340.39 70.7367C340.856 71.6263 341.579 72.1929 342.56 72.4366C342.876 72.5173 343.833 72.5995 345.431 72.6832C347.412 72.787 348.678 72.1645 349.23 70.8155ZM372.391 60.9261C375.327 60.5352 377.306 61.2958 378.328 63.2079C378.824 64.1312 379.148 65.2857 379.3 66.6715C379.451 68.0574 379.419 69.2894 379.202 70.3675C378.629 73.3496 378.232 75.4277 378.01 76.6017C377.313 79.5132 376.854 82.1488 376.635 84.5085C376.479 86.2627 376.364 87.5225 376.292 88.2878C375.801 93.389 376.013 96.3642 376.93 97.2134C378.214 98.4022 380.118 99.0627 382.642 99.195C384.252 99.0551 385.458 98.9581 386.262 98.9041C387.988 98.9945 389.589 99.0144 391.066 98.9636C392.832 98.8959 394.325 99.1344 395.547 99.6791C397.208 100.375 397.998 101.506 397.916 103.072C397.75 106.235 396.817 108.141 395.117 108.789C394.529 109.015 393.077 109.195 390.763 109.33C387.034 109.551 383.732 109.586 380.856 109.436C379.641 109.372 378.307 109.158 376.852 108.793C373.53 107.978 371.238 107.073 369.977 106.078C369.208 105.461 368.537 104.496 367.965 103.184C367.452 101.972 367.175 100.836 367.134 99.7762C367.057 98.202 367.003 97.0937 366.972 96.4512C366.82 93.2388 366.728 91.023 366.696 89.8036C366.505 86.1085 366.438 83.1089 366.494 80.8047C366.615 76.6774 366.683 74.1495 366.7 73.2211C366.746 71.1086 366.776 69.6201 366.789 68.7557C366.853 65.106 367.63 62.8075 369.122 61.8603C369.791 61.3185 370.622 61.0417 371.616 61.0297C372.037 60.9556 372.295 60.9211 372.391 60.9261ZM405.945 70.8558C407.801 65.4094 412.835 62.9015 421.048 63.3319C422.071 63.3855 423.139 63.4895 424.252 63.644C426.353 63.9143 427.907 64.2201 428.914 64.5613C430.142 64.9781 431.383 65.7641 432.636 66.9193C433.889 68.0745 434.725 69.2558 435.142 70.4633C435.952 72.7488 436.382 74.9343 436.433 77.0198C436.445 78.0138 436.519 79.652 436.656 81.9342C436.776 83.9272 436.8 85.6108 436.728 86.9849C436.58 90.4059 435.825 95.6535 434.461 102.728C434.329 103.394 433.833 104.618 432.97 106.399C431.963 108.493 429.947 109.974 426.922 110.84C424.84 111.436 422.712 111.677 420.539 111.563C420.06 111.538 419.581 111.497 419.104 111.44C416.811 111.16 415.349 110.939 414.716 110.778C413.577 110.494 412.147 109.97 410.424 109.207C409.234 108.696 408.019 107.719 406.781 106.276C405.423 104.667 404.774 103.303 404.832 102.184L403.612 96.1123C403.281 94.4927 403.166 92.0994 403.268 88.9324C403.363 86.5021 403.474 84.0726 403.602 81.6439C403.725 78.6703 404.507 75.0743 405.945 70.8558ZM423.391 73.6447C421.629 73.0396 419.743 72.9408 417.735 73.3482C415.599 73.749 414.12 76.2991 413.297 80.9984C412.889 83.2842 412.629 85.4816 412.519 87.5907C412.396 89.9235 412.462 92.3463 412.715 94.859C413.181 99.4016 414.681 101.98 417.212 102.593C417.908 102.758 418.608 102.858 419.311 102.895C420.909 102.979 422.255 102.665 423.35 101.953C424.909 100.945 426.107 97.6437 426.945 92.0479C427.241 90.0766 427.432 88.2602 427.519 86.5985C427.656 83.978 427.494 81.5663 427.033 79.3631C426.368 76.1559 425.154 74.2498 423.391 73.6447ZM481.238 78.4547C481.018 80.2056 480.508 81.9894 479.708 83.806C478.074 87.4695 475.254 89.6128 471.248 90.236C470.441 90.3539 468.544 90.4788 465.557 90.6107C464.208 90.6682 462.83 90.6601 461.424 90.5864C458.9 90.4541 456.323 90.0947 453.694 89.5083C453.571 96.7438 453.66 101.155 453.962 102.74C454.211 104.099 454.352 105.389 454.384 106.608C454.405 108.051 454.264 109.197 453.963 110.047C453.683 111.121 452.935 111.947 451.719 112.524C450.535 113.103 449.405 113.252 448.331 112.972C446.149 112.409 444.982 109.912 444.83 105.482C444.754 103.267 444.713 101.599 444.708 100.477C444.532 97.1032 444.497 93.8009 444.602 90.5699L445.119 80.6955C445.238 78.4266 445.681 76.0946 446.447 73.6994C447.75 69.634 450.911 67.092 455.932 66.0733C457.908 65.6642 461.181 65.5794 465.75 65.8188C470.128 66.0483 473.586 67.0146 476.125 68.7178C478.074 70.0376 479.445 71.3912 480.238 72.7786C481.178 74.398 481.512 76.2901 481.238 78.4547ZM465.27 82.3283C466.921 81.3894 467.782 80.2489 467.852 78.9068C467.894 78.1079 467.65 77.2619 467.12 76.369C465.944 74.3527 464.078 73.2775 461.521 73.1435C460.786 73.105 460.129 73.1186 459.548 73.1843C455.939 73.572 454.121 75.5436 454.095 79.0991C454.067 81.4688 455.951 82.8173 459.747 83.1444C461.821 83.3172 463.152 83.2908 463.741 83.0653L464.722 82.6841C464.986 82.5378 465.169 82.4192 465.27 82.3283ZM486.32 75.068C488.175 69.6217 493.209 67.1137 501.422 67.5441C502.445 67.5977 503.513 67.7017 504.626 67.8562C506.727 68.1265 508.281 68.4323 509.288 68.7735C510.516 69.1903 511.757 69.9763 513.01 71.1315C514.263 72.2867 515.099 73.468 515.516 74.6755C516.326 76.961 516.756 79.1465 516.807 81.2321C516.819 82.226 516.893 83.8642 517.03 86.1465C517.15 88.1395 517.174 89.823 517.102 91.1971C516.954 94.6181 516.199 99.8658 514.835 106.94C514.704 107.606 514.207 108.83 513.344 110.611C512.337 112.705 510.321 114.186 507.296 115.053C505.214 115.648 503.086 115.889 500.913 115.776C500.434 115.75 499.955 115.709 499.478 115.652C497.185 115.372 495.723 115.151 495.09 114.99C493.952 114.706 492.521 114.182 490.799 113.419C489.608 112.908 488.393 111.931 487.155 110.488C485.797 108.879 485.148 107.515 485.206 106.397L483.987 100.325C483.655 98.705 483.54 96.3117 483.642 93.1447C483.737 90.7143 483.848 88.2848 483.976 85.8561C484.1 82.8825 484.881 79.2865 486.32 75.068ZM503.766 77.8569C502.003 77.2518 500.117 77.153 498.109 77.5605C495.973 77.9612 494.494 80.5113 493.671 85.2107C493.263 87.4964 493.003 89.6939 492.893 91.803C492.77 94.1358 492.836 96.5585 493.089 99.0712C493.556 103.614 495.055 106.192 497.586 106.805C498.282 106.97 498.982 107.071 499.685 107.107C501.283 107.191 502.629 106.877 503.724 106.166C505.283 105.158 506.481 101.856 507.319 96.2601C507.615 94.2889 507.806 92.4724 507.893 90.8107C508.031 88.1903 507.869 85.7785 507.407 83.5753C506.742 80.3681 505.528 78.462 503.766 77.8569ZM560.553 96.4544C560.371 99.9376 559.663 103.345 558.431 106.677C557.983 107.904 556.806 109.572 554.9 111.683C552.385 114.436 548.857 116.334 544.316 117.377C542.954 117.69 541.473 117.821 539.873 117.769C535.554 117.639 532.162 116.949 529.696 115.698C526.261 113.98 524.213 106.598 523.55 93.5539C523.273 88.4444 523.259 84.7426 523.508 82.4484C523.914 78.3681 524.505 75.6433 525.282 74.2741C526.519 72.0638 528.837 70.6312 532.236 69.9761C534.89 69.4743 537.32 69.2812 539.525 69.3968C540.643 69.4554 541.74 69.6091 542.817 69.8577C545.666 70.5198 548.18 71.4686 550.358 72.7043C552.569 73.9417 554.286 75.4096 555.511 77.108C556.438 78.3743 557.451 80.4461 558.55 83.3236C558.604 83.5187 558.69 83.6994 558.81 83.8659C560.203 87.8483 560.784 92.0445 560.553 96.4544ZM541.069 82.119C540.026 81.8401 539.041 81.6763 538.114 81.6278C537.092 81.5742 536.221 81.6887 535.501 81.9714C534.093 82.5385 533.095 84.7774 532.505 88.6879C532.143 91.3285 532.004 93.9809 532.088 96.6449C532.19 99.5983 532.367 101.722 532.62 103.017C532.906 104.282 533.685 105.3 534.959 106.072C536.077 106.74 537.356 107.111 538.794 107.186C539.848 107.242 540.976 107.124 542.177 106.835C544.742 106.2 546.665 104.971 547.946 103.148C549.02 101.602 549.744 99.3968 550.119 96.5324C550.493 93.6681 549.765 90.746 547.935 87.7661C546.106 84.7543 543.817 82.8719 541.069 82.119ZM577.457 78.3062C577.529 79.3675 577.44 82.5992 577.189 88.0015C577.021 91.8059 576.673 95.0882 576.144 97.8483C575.166 103.052 573.735 105.605 571.849 105.506C570.347 105.427 569.173 104.597 568.327 103.014C567.629 101.664 567.322 100.174 567.408 98.544C567.657 93.7826 567.673 87.679 567.454 80.2334C567.43 79.4631 567.434 78.7743 567.466 78.1672C567.706 73.5974 569.33 71.3433 572.339 71.4049C574.26 71.4415 575.548 72.23 576.204 73.7705C576.946 75.5077 577.364 77.0196 577.457 78.3062ZM572.751 119.492C571.114 119.535 570.19 119.438 569.978 119.203C567.623 118.278 566.498 116.825 566.601 114.844C566.645 114.013 566.902 113.081 567.373 112.049C568.637 109.327 570.244 108.017 572.193 108.12C572.704 108.146 573.289 108.305 573.947 108.596C576.046 109.507 577.043 110.969 576.937 112.983C576.904 113.622 576.773 114.272 576.546 114.933C575.525 117.923 574.259 119.443 572.751 119.492ZM1216.16 118.893C1216.31 114.799 1216.44 112.371 1216.54 111.607C1217 108.299 1218 106.364 1219.54 105.804C1220.29 105.523 1220.95 105.397 1221.53 105.428C1222.97 105.503 1224 106.23 1224.63 107.609C1225.15 108.726 1225.34 110.049 1225.2 111.58C1224.97 113.972 1224.86 115.92 1224.84 117.425L1224.77 127.948C1224.75 130.19 1224.75 131.472 1224.76 131.793C1225.02 135.363 1225.24 138.034 1225.4 139.805C1225.62 142.925 1225.61 145.584 1225.37 147.782C1225.19 149.279 1224.73 150.489 1223.97 151.41C1223.12 152.455 1221.99 152.941 1220.58 152.867C1219.97 152.835 1219.32 152.689 1218.63 152.428C1217.22 151.938 1216.32 150.753 1215.94 148.874C1215.73 147.966 1215.65 146.376 1215.7 144.104L1215.88 134.403C1215.93 131.458 1214.74 130.05 1212.3 130.178C1209.57 130.324 1207.6 130.317 1206.39 130.157C1204.83 129.979 1203.97 131.104 1203.81 133.531C1203.65 136.054 1203.58 138.79 1203.62 141.74C1203.66 144.658 1203.62 146.931 1203.5 148.559C1203.27 151.847 1201.26 153.072 1197.49 152.234C1196.13 151.938 1195.18 151.456 1194.64 150.786C1194.09 150.149 1193.84 149.142 1193.88 147.767C1193.92 145.75 1193.95 144.694 1193.95 144.598C1194.04 143.609 1194.06 141.287 1194.03 137.632C1194.02 132.377 1194.02 128.708 1194.03 126.625C1194.01 122.138 1194.04 118.743 1194.13 116.441C1194.29 112.828 1194.44 110.577 1194.58 109.687C1195.09 106.638 1196.14 104.914 1197.74 104.517C1198.45 104.33 1199.06 104.25 1199.57 104.277C1201.68 104.387 1203.08 106.271 1203.75 109.927C1204.1 111.804 1204.21 113.716 1204.07 115.664C1203.91 118.251 1203.89 119.756 1204.03 120.18C1204.39 121.256 1205.64 121.866 1207.78 122.011C1210.88 122.205 1212.65 122.282 1213.1 122.241C1215.07 121.928 1216.09 120.812 1216.16 118.893ZM1234.12 114.259C1235.98 108.812 1241.01 106.304 1249.22 106.735C1250.25 106.788 1251.31 106.892 1252.43 107.047C1254.53 107.317 1256.08 107.623 1257.09 107.964C1258.32 108.381 1259.56 109.167 1260.81 110.322C1262.07 111.477 1262.9 112.659 1263.32 113.866C1264.13 116.152 1264.56 118.337 1264.61 120.423C1264.62 121.417 1264.69 123.055 1264.83 125.337C1264.95 127.33 1264.98 129.014 1264.9 130.388C1264.76 133.809 1264 139.056 1262.64 146.131C1262.51 146.797 1262.01 148.02 1261.15 149.802C1260.14 151.896 1258.12 153.376 1255.1 154.243C1253.02 154.839 1250.89 155.08 1248.71 154.966C1248.24 154.941 1247.76 154.9 1247.28 154.843C1244.99 154.563 1243.52 154.342 1242.89 154.18C1241.75 153.896 1240.32 153.373 1238.6 152.61C1237.41 152.099 1236.2 151.122 1234.96 149.679C1233.6 148.07 1232.95 146.706 1233.01 145.587L1231.79 139.515C1231.46 137.896 1231.34 135.502 1231.44 132.335C1231.54 129.905 1231.65 127.475 1231.78 125.047C1231.9 122.073 1232.68 118.477 1234.12 114.259ZM1251.57 117.048C1249.8 116.442 1247.92 116.344 1245.91 116.751C1243.78 117.152 1242.3 119.702 1241.47 124.401C1241.06 126.687 1240.81 128.885 1240.69 130.994C1240.57 133.326 1240.64 135.749 1240.89 138.262C1241.36 142.804 1242.86 145.382 1245.39 145.996C1246.08 146.16 1246.78 146.261 1247.49 146.298C1249.08 146.382 1250.43 146.068 1251.53 145.356C1253.08 144.348 1254.28 141.047 1255.12 135.451C1255.42 133.48 1255.61 131.663 1255.7 130.001C1255.83 127.381 1255.67 124.969 1255.21 122.766C1254.54 119.559 1253.33 117.653 1251.57 117.048ZM1277.15 108.342C1280.09 107.952 1282.06 108.712 1283.09 110.624C1283.58 111.548 1283.91 112.702 1284.06 114.088C1284.21 115.474 1284.18 116.706 1283.96 117.784C1283.39 120.766 1282.99 122.844 1282.77 124.018C1282.07 126.93 1281.61 129.565 1281.39 131.925C1281.24 133.679 1281.12 134.939 1281.05 135.704C1280.56 140.805 1280.77 143.781 1281.69 144.63C1282.97 145.819 1284.88 146.479 1287.4 146.611C1289.01 146.471 1290.22 146.374 1291.02 146.32C1292.75 146.411 1294.35 146.431 1295.82 146.38C1297.59 146.312 1299.08 146.551 1300.3 147.095C1301.97 147.791 1302.76 148.922 1302.67 150.488C1302.51 153.652 1301.58 155.558 1299.88 156.205C1299.29 156.431 1297.84 156.611 1295.52 156.746C1291.79 156.967 1288.49 157.003 1285.61 156.852C1284.4 156.788 1283.07 156.574 1281.61 156.21C1278.29 155.395 1276 154.489 1274.73 153.494C1273.97 152.877 1273.3 151.912 1272.72 150.601C1272.21 149.388 1271.93 148.252 1271.89 147.193C1271.82 145.618 1271.76 144.51 1271.73 143.868C1271.58 140.655 1271.49 138.439 1271.45 137.22C1271.26 133.525 1271.2 130.525 1271.25 128.221C1271.37 124.094 1271.44 121.566 1271.46 120.637C1271.5 118.525 1271.53 117.037 1271.55 116.172C1271.61 112.522 1272.39 110.224 1273.88 109.277C1274.55 108.735 1275.38 108.458 1276.37 108.446C1276.8 108.372 1277.05 108.337 1277.15 108.342ZM1338.16 141.004C1336.36 142.993 1333.94 143.907 1330.9 143.748C1330.42 143.723 1329.93 143.665 1329.42 143.574C1329.38 145.623 1329.45 147.693 1329.62 149.786C1329.77 151.203 1329.95 152.959 1330.17 155.053C1330.22 155.921 1330 156.743 1329.51 157.518C1329.02 158.294 1328.38 158.773 1327.61 158.957C1326.83 159.14 1325.83 159.152 1324.62 158.992C1322.46 158.687 1321.44 156.727 1321.57 153.112C1321.64 151.034 1321.53 147.775 1321.21 143.337C1318.4 143.285 1316.07 142.522 1314.22 141.047C1312.41 139.543 1311.25 137.431 1310.76 134.713C1310.51 133.291 1310.15 129.122 1309.68 122.208C1309.54 120.054 1309.5 118.241 1309.58 116.771C1309.73 113.863 1310.32 112.084 1311.35 111.433C1312.81 110.516 1314.19 110.124 1315.5 110.256C1318.65 110.614 1320.26 112.557 1320.34 116.085C1320.34 117.848 1320.38 121.07 1320.45 125.753C1320.47 126.619 1320.48 127.933 1320.49 129.696C1320.52 132.742 1321.37 134.629 1323.03 135.357C1323.59 135.61 1324.46 135.784 1325.64 135.878C1328.74 136.136 1330.6 134.888 1331.22 132.133C1331.43 131.183 1331.58 129.636 1331.66 127.493C1331.71 125.926 1331.8 122.999 1331.93 118.711C1331.99 114.966 1332.93 112.756 1334.72 112.081C1336.16 111.547 1337.44 111.31 1338.56 111.369C1340.73 111.482 1342.23 112.634 1343.04 114.824C1343.66 116.458 1343.86 118.488 1343.63 120.911C1343.32 124.548 1342.78 128.06 1342.03 131.449C1340.98 136.137 1339.69 139.322 1338.16 141.004ZM1392.17 125.666C1390.24 125.148 1388.51 124.849 1386.98 124.769C1381.13 124.463 1377.07 126.99 1374.81 132.35C1374.26 133.635 1373.94 135.125 1373.85 136.818C1373.74 138.959 1374.04 141.411 1374.76 144.172C1375.86 148.331 1378.71 150.531 1383.31 150.773C1383.92 150.804 1384.81 150.803 1386 150.769C1387.22 150.705 1388.14 150.689 1388.74 150.721C1392.71 150.929 1395.16 152.147 1396.1 154.375C1396.36 154.965 1396.47 155.596 1396.43 156.267C1396.33 158.152 1394.63 159.729 1391.33 160.998C1387.8 161.711 1385.3 162.044 1383.83 161.999C1380.37 161.914 1376.77 160.972 1373.02 159.173C1367.89 156.726 1365.07 150.874 1364.56 141.619C1364.47 139.755 1364.47 137.913 1364.56 136.091C1364.69 133.727 1364.97 131.354 1365.42 128.974C1366.21 124.818 1367.47 121.824 1369.2 119.992C1371.31 117.795 1373.49 116.259 1375.74 115.384C1377.61 114.681 1380.28 114.196 1383.75 113.929C1385.46 113.794 1386.98 113.762 1388.32 113.832C1390.3 113.936 1391.95 114.247 1393.27 114.765C1396.84 115.721 1398.69 118.093 1398.81 121.88C1398.91 124.834 1397.51 126.234 1394.6 126.082C1393.87 126.043 1393.06 125.905 1392.17 125.666ZM1431.29 124.784C1430.55 126.091 1429.54 126.888 1428.28 127.174C1427.63 127.332 1426.3 127.374 1424.28 127.301C1422.46 127.237 1420.78 127.149 1419.25 127.037C1417.75 126.926 1416.2 127.118 1414.6 127.611C1413.17 128.048 1412.2 128.847 1411.69 130.006C1411.48 130.443 1411.19 131.693 1410.82 133.757C1410.78 134.492 1410.79 135.87 1410.85 137.892C1411.12 139.989 1412.1 141.178 1413.78 141.459C1414.83 141.642 1416.3 141.735 1418.19 141.738C1420.11 141.742 1421.66 141.808 1422.84 141.933L1426.24 142.304C1427.29 142.423 1428.21 142.792 1429.01 143.41C1429.94 144.132 1430.37 144.988 1430.32 145.978C1430.3 146.426 1430.2 147.126 1430.02 148.077C1429.87 148.454 1429.54 148.87 1429.04 149.324C1427.79 150.027 1426.06 150.209 1423.87 149.87C1421.45 149.487 1419.66 149.233 1418.48 149.107C1416.76 148.921 1415.71 148.785 1415.33 148.701C1414.85 148.612 1414.42 148.558 1414.04 148.538C1413.65 148.518 1413.32 148.532 1413.03 148.581C1412.1 148.532 1411.44 149.219 1411.04 150.64C1410.65 151.997 1410.76 152.964 1411.37 153.541C1412.17 154.288 1412.94 154.745 1413.7 154.913C1416.59 155.545 1419.17 155.824 1421.45 155.751C1425.68 155.621 1428.08 156.564 1428.65 158.58C1428.76 159.002 1428.8 159.453 1428.77 159.933C1428.62 162.872 1426.69 164.245 1422.98 164.051C1422.53 164.028 1421.32 163.868 1419.35 163.573C1413.88 162.837 1410.57 162.343 1409.43 162.091C1404.4 160.93 1401.97 157.711 1402.15 152.433C1402.33 147.123 1402.38 142.512 1402.3 138.598C1402.26 136.929 1402.27 135.472 1402.34 134.226C1402.52 130.838 1403.03 127.421 1403.88 123.973C1405.03 119.322 1408.87 116.671 1415.4 116.021C1417.5 115.81 1419.06 115.747 1420.08 115.833C1423.36 116.133 1426.29 116.784 1428.87 117.784C1429.77 118.248 1430.5 119.103 1431.04 120.349C1431.58 121.563 1431.75 122.677 1431.54 123.692C1431.41 124.326 1431.32 124.69 1431.29 124.784ZM1475.36 130.554C1475.14 132.305 1474.63 134.089 1473.83 135.906C1472.19 139.569 1469.37 141.712 1465.37 142.336C1464.56 142.454 1462.66 142.578 1459.68 142.71C1458.33 142.768 1456.95 142.76 1455.54 142.686C1453.02 142.554 1450.44 142.194 1447.81 141.608C1447.69 148.843 1447.78 153.254 1448.08 154.84C1448.33 156.199 1448.47 157.488 1448.5 158.707C1448.52 160.151 1448.38 161.297 1448.08 162.146C1447.8 163.221 1447.05 164.047 1445.84 164.624C1444.65 165.203 1443.53 165.352 1442.45 165.071C1440.27 164.508 1439.1 162.012 1438.95 157.582C1438.87 155.367 1438.83 153.698 1438.83 152.577C1438.65 149.203 1438.62 145.9 1438.72 142.67L1439.24 132.795C1439.36 130.526 1439.8 128.194 1440.57 125.799C1441.87 121.734 1445.03 119.192 1450.05 118.173C1452.03 117.764 1455.3 117.679 1459.87 117.918C1464.25 118.148 1467.71 119.114 1470.24 120.817C1472.19 122.137 1473.57 123.491 1474.36 124.878C1475.3 126.498 1475.63 128.39 1475.36 130.554ZM1459.39 134.428C1461.04 133.489 1461.9 132.349 1461.97 131.006C1462.01 130.208 1461.77 129.362 1461.24 128.469C1460.06 126.452 1458.2 125.377 1455.64 125.243C1454.91 125.205 1454.25 125.218 1453.67 125.284C1450.06 125.672 1448.24 127.643 1448.22 131.199C1448.19 133.568 1450.07 134.917 1453.87 135.244C1455.94 135.417 1457.27 135.39 1457.86 135.165L1458.84 134.784C1459.11 134.637 1459.29 134.519 1459.39 134.428ZM1501.19 133.831C1501.34 129.737 1501.47 127.308 1501.57 126.545C1502.03 123.236 1503.03 121.302 1504.57 120.742C1505.32 120.461 1505.98 120.335 1506.56 120.365C1508 120.441 1509.03 121.168 1509.67 122.547C1510.18 123.664 1510.37 124.987 1510.23 126.518C1510.01 128.909 1509.89 130.858 1509.87 132.363L1509.8 142.886C1509.78 145.128 1509.78 146.409 1509.79 146.731C1510.05 150.301 1510.27 152.972 1510.43 154.743C1510.65 157.863 1510.64 160.522 1510.4 162.72C1510.22 164.217 1509.76 165.426 1509 166.348C1508.15 167.393 1507.02 167.878 1505.61 167.805C1505 167.773 1504.35 167.627 1503.66 167.366C1502.25 166.875 1501.35 165.691 1500.97 163.812C1500.76 162.904 1500.68 161.314 1500.74 159.042L1500.91 149.341C1500.97 146.396 1499.77 144.988 1497.33 145.116C1494.6 145.262 1492.63 145.254 1491.42 145.095C1489.86 144.917 1489 146.042 1488.84 148.469C1488.68 150.991 1488.61 153.728 1488.65 156.678C1488.69 159.596 1488.65 161.869 1488.53 163.497C1488.3 166.785 1486.29 168.01 1482.52 167.172C1481.16 166.876 1480.21 166.393 1479.67 165.724C1479.13 165.087 1478.87 164.08 1478.91 162.704C1478.96 160.688 1478.98 159.632 1478.98 159.536C1479.07 158.547 1479.09 156.225 1479.06 152.57C1479.05 147.314 1479.05 143.645 1479.06 141.563C1479.04 137.076 1479.07 133.681 1479.16 131.379C1479.32 127.766 1479.47 125.515 1479.61 124.625C1480.12 121.575 1481.18 119.852 1482.77 119.455C1483.48 119.268 1484.09 119.188 1484.61 119.215C1486.71 119.325 1488.11 121.209 1488.78 124.865C1489.13 126.742 1489.24 128.654 1489.1 130.602C1488.94 133.189 1488.92 134.694 1489.06 135.118C1489.42 136.194 1490.67 136.804 1492.81 136.948C1495.91 137.143 1497.68 137.22 1498.13 137.179C1500.1 136.866 1501.12 135.75 1501.19 133.831ZM1536.6 121.939C1542.61 122.799 1546.52 127.971 1548.33 137.455C1548.73 139.527 1549.16 143.234 1549.62 148.578C1549.98 152.73 1550.07 156.516 1549.89 159.935C1549.77 162.268 1549.35 164.393 1548.64 166.311C1547.63 169.142 1546.21 170.509 1544.39 170.414C1542.73 170.327 1541.52 169.895 1540.76 169.118C1540 168.341 1539.55 167.1 1539.41 165.394C1539.28 163.721 1539.27 161.013 1539.41 157.271C1539.53 153.721 1539.48 150.978 1539.26 149.044C1538.74 144.242 1537.64 141.765 1535.95 141.613C1534.2 141.457 1532.83 141.513 1531.85 141.783C1529.9 142.321 1528.64 143.857 1528.06 146.39C1527.77 147.625 1527.62 149.764 1527.62 152.808C1527.6 157.486 1527.66 160.741 1527.79 162.574C1527.82 163.089 1527.83 163.522 1527.81 163.873C1527.61 167.708 1525.93 169.543 1522.77 169.377C1522.45 169.36 1522.03 169.306 1521.52 169.216C1518.99 168.762 1517.38 167.22 1516.72 164.59C1516.29 162.933 1516.26 160.528 1516.62 157.374C1517.17 152.436 1517.5 149.49 1517.61 148.534C1517.89 146.21 1518.68 142.486 1519.97 137.363C1521.1 132.904 1522.18 129.563 1523.19 127.341C1524.17 125.245 1525.77 123.727 1528 122.787C1529.93 121.959 1532.16 121.611 1534.68 121.743C1535.26 121.773 1535.9 121.839 1536.6 121.939ZM1538.32 133.133C1538.39 132.913 1538.44 132.675 1538.45 132.419C1538.56 130.31 1537.28 129.089 1534.6 128.757C1532.89 128.538 1531.47 128.945 1530.36 129.976C1529.62 130.642 1529.23 131.311 1529.2 131.982C1529.18 132.302 1529.27 132.659 1529.48 133.054C1529.94 133.944 1530.67 134.51 1531.65 134.754C1531.96 134.835 1532.92 134.917 1534.52 135.001C1536.5 135.104 1537.77 134.482 1538.32 133.133ZM1561.48 123.243C1564.41 122.853 1566.39 123.613 1567.41 125.525C1567.91 126.449 1568.23 127.603 1568.39 128.989C1568.54 130.375 1568.51 131.607 1568.29 132.685C1567.72 135.667 1567.32 137.745 1567.1 138.919C1566.4 141.831 1565.94 144.466 1565.72 146.826C1565.57 148.58 1565.45 149.84 1565.38 150.605C1564.89 155.706 1565.1 158.682 1566.02 159.531C1567.3 160.72 1569.2 161.38 1571.73 161.512C1573.34 161.372 1574.55 161.276 1575.35 161.222C1577.07 161.312 1578.68 161.332 1580.15 161.281C1581.92 161.213 1583.41 161.452 1584.63 161.996C1586.3 162.692 1587.09 163.823 1587 165.389C1586.84 168.553 1585.9 170.459 1584.2 171.106C1583.62 171.332 1582.16 171.512 1579.85 171.647C1576.12 171.868 1572.82 171.904 1569.94 171.753C1568.73 171.689 1567.39 171.475 1565.94 171.111C1562.62 170.296 1560.33 169.39 1559.06 168.395C1558.29 167.778 1557.62 166.814 1557.05 165.502C1556.54 164.289 1556.26 163.153 1556.22 162.094C1556.14 160.519 1556.09 159.411 1556.06 158.769C1555.91 155.556 1555.81 153.34 1555.78 152.121C1555.59 148.426 1555.52 145.426 1555.58 143.122C1555.7 138.995 1555.77 136.467 1555.79 135.538C1555.83 133.426 1555.86 131.938 1555.88 131.073C1555.94 127.423 1556.72 125.125 1558.21 124.178C1558.88 123.636 1559.71 123.359 1560.7 123.347C1561.12 123.273 1561.38 123.238 1561.48 123.243ZM1595.03 133.173C1596.89 127.727 1601.92 125.219 1610.13 125.649C1611.16 125.703 1612.23 125.807 1613.34 125.961C1615.44 126.232 1616.99 126.537 1618 126.879C1619.23 127.296 1620.47 128.082 1621.72 129.237C1622.98 130.392 1623.81 131.573 1624.23 132.781C1625.04 135.066 1625.47 137.252 1625.52 139.337C1625.53 140.331 1625.61 141.969 1625.74 144.252C1625.86 146.245 1625.89 147.928 1625.81 149.302C1625.67 152.723 1624.91 157.971 1623.55 165.045C1623.42 165.711 1622.92 166.935 1622.06 168.716C1621.05 170.81 1619.03 172.291 1616.01 173.158C1613.93 173.754 1611.8 173.995 1609.63 173.881C1609.15 173.856 1608.67 173.815 1608.19 173.757C1605.9 173.477 1604.44 173.256 1603.8 173.095C1602.66 172.811 1601.23 172.287 1599.51 171.524C1598.32 171.013 1597.11 170.036 1595.87 168.593C1594.51 166.984 1593.86 165.62 1593.92 164.502L1592.7 158.43C1592.37 156.81 1592.25 154.417 1592.35 151.25C1592.45 148.819 1592.56 146.39 1592.69 143.961C1592.81 140.988 1593.59 137.392 1595.03 133.173ZM1612.48 135.962C1610.72 135.357 1608.83 135.258 1606.82 135.666C1604.69 136.066 1603.21 138.616 1602.38 143.316C1601.98 145.602 1601.72 147.799 1601.61 149.908C1601.48 152.241 1601.55 154.664 1601.8 157.176C1602.27 161.719 1603.77 164.297 1606.3 164.91C1607 165.075 1607.69 165.176 1608.4 165.213C1610 165.296 1611.34 164.982 1612.44 164.271C1614 163.263 1615.19 159.961 1616.03 154.365C1616.33 152.394 1616.52 150.578 1616.61 148.916C1616.74 146.295 1616.58 143.884 1616.12 141.681C1615.45 138.473 1614.24 136.567 1612.48 135.962ZM1670.33 140.772C1670.11 142.523 1669.6 144.307 1668.79 146.123C1667.16 149.787 1664.34 151.93 1660.33 152.553C1659.53 152.671 1657.63 152.796 1654.64 152.928C1653.29 152.986 1651.92 152.977 1650.51 152.904C1647.99 152.771 1645.41 152.412 1642.78 151.826C1642.66 159.061 1642.75 163.472 1643.05 165.058C1643.3 166.417 1643.44 167.706 1643.47 168.925C1643.49 170.368 1643.35 171.515 1643.05 172.364C1642.77 173.439 1642.02 174.265 1640.81 174.842C1639.62 175.421 1638.49 175.57 1637.42 175.289C1635.24 174.726 1634.07 172.23 1633.92 167.8C1633.84 165.585 1633.8 163.916 1633.79 162.794C1633.62 159.421 1633.58 156.118 1633.69 152.887L1634.21 143.013C1634.33 140.744 1634.77 138.412 1635.53 136.017C1636.84 131.951 1640 129.409 1645.02 128.391C1646.99 127.982 1650.27 127.897 1654.84 128.136C1659.22 128.366 1662.67 129.332 1665.21 131.035C1667.16 132.355 1668.53 133.709 1669.32 135.096C1670.27 136.715 1670.6 138.607 1670.33 140.772ZM1654.36 144.646C1656.01 143.707 1656.87 142.566 1656.94 141.224C1656.98 140.425 1656.74 139.579 1656.21 138.686C1655.03 136.67 1653.16 135.595 1650.61 135.461C1649.87 135.422 1649.22 135.436 1648.64 135.502C1645.03 135.889 1643.21 137.861 1643.18 141.416C1643.15 143.786 1645.04 145.135 1648.83 145.462C1650.91 145.635 1652.24 145.608 1652.83 145.383L1653.81 145.002C1654.07 144.855 1654.26 144.737 1654.36 144.646ZM1675.41 137.385C1677.26 131.939 1682.3 129.431 1690.51 129.862C1691.53 129.915 1692.6 130.019 1693.71 130.174C1695.81 130.444 1697.37 130.75 1698.38 131.091C1699.6 131.508 1700.84 132.294 1702.1 133.449C1703.35 134.604 1704.19 135.785 1704.6 136.993C1705.41 139.278 1705.84 141.464 1705.89 143.549C1705.91 144.543 1705.98 146.182 1706.12 148.464C1706.24 150.457 1706.26 152.14 1706.19 153.515C1706.04 156.936 1705.29 162.183 1703.92 169.257C1703.79 169.924 1703.29 171.147 1702.43 172.929C1701.42 175.023 1699.41 176.503 1696.38 177.37C1694.3 177.966 1692.17 178.207 1690 178.093C1689.52 178.068 1689.04 178.027 1688.56 177.97C1686.27 177.689 1684.81 177.468 1684.18 177.307C1683.04 177.023 1681.61 176.5 1679.89 175.736C1678.69 175.225 1677.48 174.248 1676.24 172.806C1674.88 171.196 1674.23 169.833 1674.29 168.714L1673.07 162.642C1672.74 161.022 1672.63 158.629 1672.73 155.462C1672.82 153.032 1672.94 150.602 1673.06 148.174C1673.19 145.2 1673.97 141.604 1675.41 137.385ZM1692.85 140.174C1691.09 139.569 1689.2 139.47 1687.2 139.878C1685.06 140.279 1683.58 142.829 1682.76 147.528C1682.35 149.814 1682.09 152.011 1681.98 154.12C1681.86 156.453 1681.92 158.876 1682.18 161.389C1682.64 165.931 1684.14 168.509 1686.67 169.123C1687.37 169.287 1688.07 169.388 1688.77 169.425C1690.37 169.509 1691.72 169.195 1692.81 168.483C1694.37 167.475 1695.57 164.173 1696.41 158.578C1696.7 156.606 1696.89 154.79 1696.98 153.128C1697.12 150.508 1696.96 148.096 1696.49 145.893C1695.83 142.686 1694.62 140.779 1692.85 140.174ZM1749.64 158.772C1749.46 162.255 1748.75 165.663 1747.52 168.995C1747.07 170.221 1745.89 171.89 1743.99 174.001C1741.47 176.753 1737.94 178.651 1733.4 179.695C1732.04 180.008 1730.56 180.139 1728.96 180.087C1724.64 179.957 1721.25 179.266 1718.78 178.015C1715.35 176.297 1713.3 168.916 1712.64 155.871C1712.36 150.762 1712.35 147.06 1712.59 144.766C1713 140.685 1713.59 137.961 1714.37 136.591C1715.61 134.381 1717.92 132.949 1721.32 132.294C1723.98 131.792 1726.41 131.599 1728.61 131.714C1729.73 131.773 1730.83 131.926 1731.9 132.175C1734.75 132.837 1737.27 133.786 1739.45 135.022C1741.66 136.259 1743.37 137.727 1744.6 139.425C1745.52 140.692 1746.54 142.764 1747.64 145.641C1747.69 145.836 1747.78 146.017 1747.9 146.183C1749.29 150.166 1749.87 154.362 1749.64 158.772ZM1730.16 144.436C1729.11 144.157 1728.13 143.994 1727.2 143.945C1726.18 143.892 1725.31 144.006 1724.59 144.289C1723.18 144.856 1722.18 147.095 1721.59 151.005C1721.23 153.646 1721.09 156.298 1721.18 158.962C1721.28 161.916 1721.45 164.04 1721.71 165.335C1721.99 166.6 1722.77 167.618 1724.05 168.39C1725.16 169.057 1726.44 169.428 1727.88 169.504C1728.94 169.559 1730.06 169.442 1731.26 169.152C1733.83 168.518 1735.75 167.289 1737.03 165.465C1738.11 163.919 1738.83 161.714 1739.21 158.85C1739.58 155.986 1738.85 153.063 1737.02 150.084C1735.19 147.072 1732.9 145.189 1730.16 144.436ZM1766.54 140.624C1766.62 141.685 1766.53 144.917 1766.28 150.319C1766.11 154.123 1765.76 157.406 1765.23 160.166C1764.25 165.37 1762.82 167.922 1760.94 167.823C1759.43 167.745 1758.26 166.914 1757.41 165.332C1756.72 163.981 1756.41 162.491 1756.49 160.861C1756.74 156.1 1756.76 149.996 1756.54 142.551C1756.52 141.78 1756.52 141.092 1756.55 140.485C1756.79 135.915 1758.42 133.661 1761.43 133.722C1763.35 133.759 1764.63 134.547 1765.29 136.088C1766.03 137.825 1766.45 139.337 1766.54 140.624ZM1761.84 181.81C1760.2 181.852 1759.28 181.756 1759.06 181.52C1756.71 180.596 1755.58 179.143 1755.69 177.162C1755.73 176.331 1755.99 175.399 1756.46 174.366C1757.72 171.645 1759.33 170.335 1761.28 170.437C1761.79 170.464 1762.38 170.623 1763.03 170.913C1765.13 171.825 1766.13 173.287 1766.02 175.3C1765.99 175.939 1765.86 176.589 1765.63 177.25C1764.61 180.241 1763.35 181.761 1761.84 181.81Z" fill="white"/>
<path d="M621.617 87.7343C621.768 83.6406 621.895 81.2119 621.999 80.4483C622.461 77.1399 623.459 75.2056 624.995 74.6452C625.747 74.3641 626.41 74.2387 626.985 74.2688C628.423 74.3442 629.459 75.0714 630.091 76.4504C630.61 77.567 630.797 78.8906 630.652 80.4212C630.431 82.8128 630.313 84.7613 630.298 86.2666L630.227 96.7893C630.206 99.0313 630.203 100.313 630.218 100.634C630.479 104.205 630.692 106.875 630.855 108.646C631.076 111.766 631.065 114.425 630.822 116.624C630.647 118.121 630.183 119.33 629.43 120.252C628.574 121.296 627.443 121.782 626.037 121.708C625.43 121.676 624.781 121.53 624.089 121.27C622.673 120.779 621.774 119.594 621.392 117.716C621.183 116.807 621.106 115.217 621.161 112.945L621.333 103.245C621.391 100.3 620.199 98.8914 617.757 99.0198C615.026 99.165 613.056 99.1579 611.846 98.9984C610.285 98.8205 609.425 99.945 609.266 102.372C609.102 104.895 609.039 107.631 609.076 110.581C609.116 113.499 609.077 115.772 608.959 117.401C608.723 120.689 606.72 121.913 602.951 121.075C601.588 120.779 600.636 120.297 600.095 119.628C599.551 118.99 599.299 117.984 599.34 116.608C599.381 114.591 599.404 113.535 599.409 113.439C599.493 112.45 599.519 110.128 599.486 106.474C599.473 101.218 599.473 97.5488 599.486 95.4667C599.465 90.9794 599.499 87.5845 599.587 85.282C599.745 81.6693 599.895 79.418 600.037 78.5283C600.55 75.4789 601.601 73.7556 603.192 73.3583C603.907 73.1715 604.52 73.0915 605.031 73.1183C607.141 73.2288 608.532 75.1122 609.205 78.7684C609.556 80.6454 609.664 82.5576 609.53 84.5053C609.362 87.0921 609.347 88.5973 609.485 89.0211C609.845 90.0975 611.095 90.7077 613.235 90.8519C616.333 91.0463 618.107 91.1233 618.558 91.0828C620.529 90.7695 621.549 89.6534 621.617 87.7343ZM639.578 83.1C641.434 77.6536 646.468 75.1456 654.68 75.5761C655.703 75.6296 656.771 75.7337 657.885 75.8882C659.985 76.1585 661.539 76.4642 662.547 76.8054C663.775 77.2223 665.015 78.0083 666.269 79.1634C667.522 80.3186 668.357 81.5 668.775 82.7075C669.584 84.993 670.014 87.1785 670.065 89.264C670.077 90.258 670.152 91.8961 670.288 94.1784C670.408 96.1714 670.432 97.855 670.36 99.2291C670.213 102.65 669.457 107.898 668.093 114.972C667.962 115.638 667.465 116.862 666.603 118.643C665.596 120.737 663.58 122.218 660.554 123.085C658.472 123.68 656.345 123.921 654.172 123.808C653.692 123.782 653.214 123.741 652.736 123.684C650.444 123.404 648.981 123.183 648.349 123.022C647.21 122.738 645.779 122.214 644.057 121.451C642.866 120.94 641.652 119.963 640.413 118.52C639.056 116.911 638.406 115.547 638.465 114.429L637.245 108.356C636.913 106.737 636.798 104.344 636.9 101.177C636.996 98.7463 637.107 96.3167 637.234 93.8881C637.358 90.9145 638.139 87.3184 639.578 83.1ZM657.024 85.8888C655.261 85.2837 653.376 85.1849 651.368 85.5924C649.232 85.9932 647.752 88.5432 646.929 93.2426C646.521 95.5284 646.262 97.7258 646.151 99.8349C646.029 102.168 646.094 104.59 646.347 107.103C646.814 111.646 648.313 114.224 650.844 114.837C651.541 115.002 652.24 115.103 652.943 115.139C654.541 115.223 655.888 114.909 656.982 114.197C658.541 113.19 659.74 109.888 660.578 104.292C660.873 102.321 661.065 100.504 661.152 98.8426C661.289 96.2222 661.127 93.8104 660.666 91.6073C660.001 88.4001 658.787 86.4939 657.024 85.8888ZM682.606 77.1838C685.542 76.7929 687.521 77.5535 688.543 79.4656C689.039 80.3888 689.363 81.5434 689.515 82.9292C689.666 84.315 689.634 85.547 689.417 86.6252C688.844 89.6073 688.447 91.6853 688.225 92.8593C687.528 95.7708 687.069 98.4064 686.849 100.766C686.693 102.52 686.579 103.78 686.507 104.545C686.016 109.647 686.228 112.622 687.145 113.471C688.428 114.66 690.333 115.32 692.857 115.453C694.467 115.313 695.673 115.216 696.477 115.162C698.203 115.252 699.804 115.272 701.281 115.221C703.047 115.154 704.54 115.392 705.761 115.937C707.423 116.633 708.213 117.764 708.131 119.329C707.965 122.493 707.032 124.399 705.332 125.047C704.743 125.272 703.292 125.453 700.978 125.588C697.249 125.809 693.947 125.844 691.071 125.693C689.856 125.63 688.522 125.415 687.067 125.051C683.745 124.236 681.453 123.331 680.191 122.335C679.423 121.718 678.752 120.754 678.18 119.442C677.667 118.23 677.39 117.093 677.349 116.034C677.272 114.46 677.218 113.351 677.187 112.709C677.035 109.496 676.943 107.281 676.911 106.061C676.72 102.366 676.653 99.3666 676.709 97.0624C676.83 92.935 676.898 90.4072 676.915 89.4787C676.961 87.3663 676.991 85.8778 677.004 85.0133C677.067 81.3636 677.845 79.0652 679.336 78.1179C680.006 77.5762 680.837 77.2994 681.831 77.2874C682.252 77.2133 682.51 77.1787 682.606 77.1838ZM743.616 109.846C741.814 111.834 739.395 112.749 736.359 112.589C735.879 112.564 735.386 112.506 734.878 112.416C734.835 114.464 734.902 116.535 735.081 118.627C735.231 120.045 735.411 121.801 735.622 123.894C735.673 124.762 735.453 125.584 734.964 126.359C734.475 127.135 733.841 127.614 733.062 127.798C732.284 127.981 731.29 127.993 730.08 127.834C727.917 127.528 726.899 125.568 727.024 121.954C727.101 119.875 726.983 116.616 726.671 112.178C723.854 112.126 721.523 111.363 719.677 109.889C717.866 108.384 716.71 106.273 716.212 103.555C715.966 102.132 715.608 97.9634 715.137 91.0493C714.994 88.8948 714.96 87.0826 715.037 85.6126C715.19 82.7046 715.78 80.9251 716.807 80.274C718.265 79.357 719.648 78.9648 720.954 79.0974C724.108 79.4549 725.721 81.398 725.792 84.9266C725.796 86.6892 725.835 89.9116 725.91 94.594C725.929 95.4602 725.94 96.7745 725.944 98.5372C725.977 101.583 726.823 103.47 728.483 104.198C729.047 104.452 729.919 104.626 731.099 104.719C734.194 104.978 736.054 103.729 736.679 100.974C736.889 100.024 737.034 98.4775 737.115 96.3348C737.165 94.7672 737.254 91.8399 737.382 87.5528C737.451 83.8072 738.384 81.597 740.181 80.9221C741.619 80.3887 742.897 80.1512 744.016 80.2099C746.189 80.3237 747.683 81.4755 748.497 83.6651C749.116 85.2998 749.315 87.3289 749.091 89.7526C748.773 93.3889 748.236 96.9016 747.482 100.291C746.435 104.978 745.146 108.163 743.616 109.846ZM797.628 94.5073C795.7 93.9897 793.969 93.6907 792.435 93.6103C786.587 93.3038 782.53 95.8309 780.262 101.192C779.714 102.477 779.396 103.966 779.307 105.66C779.195 107.801 779.499 110.252 780.219 113.014C781.315 117.173 784.164 119.373 788.765 119.614C789.373 119.646 790.27 119.645 791.457 119.611C792.678 119.547 793.592 119.53 794.2 119.562C798.162 119.77 800.614 120.988 801.554 123.216C801.812 123.806 801.923 124.437 801.888 125.108C801.789 126.994 800.088 128.571 796.785 129.84C793.255 130.552 790.754 130.885 789.283 130.84C785.826 130.755 782.223 129.813 778.472 128.015C773.345 125.567 770.527 119.715 770.019 110.46C769.924 108.597 769.925 106.754 770.02 104.933C770.144 102.568 770.429 100.196 770.874 97.8156C771.668 93.6595 772.931 90.6655 774.661 88.8335C776.763 86.6365 778.942 85.1005 781.199 84.2254C783.063 83.5219 785.732 83.037 789.206 82.7705C790.912 82.6355 792.435 82.6032 793.778 82.6736C795.759 82.7774 797.409 83.0882 798.728 83.6059C802.298 84.5621 804.145 86.934 804.267 90.7216C804.368 93.6749 802.965 95.0754 800.057 94.923C799.322 94.8845 798.512 94.7459 797.628 94.5073ZM836.744 93.6253C836.003 94.9323 835 95.7289 833.735 96.0151C833.086 96.1733 831.754 96.2156 829.739 96.1421C827.916 96.0786 826.238 95.9907 824.706 95.8783C823.206 95.7676 821.657 95.9589 820.061 96.452C818.629 96.8896 817.657 97.6879 817.148 98.8468C816.933 99.2842 816.643 100.535 816.279 102.598C816.24 103.333 816.248 104.712 816.302 106.733C816.577 108.831 817.556 110.019 819.24 110.3C820.287 110.483 821.757 110.576 823.647 110.579C825.569 110.584 827.12 110.649 828.299 110.775L831.692 111.145C832.744 111.264 833.67 111.633 834.47 112.252C835.394 112.973 835.83 113.829 835.778 114.82C835.754 115.267 835.653 115.967 835.475 116.919C835.327 117.296 835.001 117.711 834.497 118.165C833.242 118.869 831.518 119.051 829.325 118.711C826.91 118.328 825.113 118.074 823.934 117.948C822.213 117.762 821.163 117.627 820.783 117.543C820.307 117.454 819.877 117.399 819.493 117.379C819.11 117.359 818.773 117.373 818.482 117.422C817.555 117.374 816.894 118.06 816.499 119.481C816.108 120.839 816.217 121.806 816.828 122.382C817.622 123.129 818.399 123.586 819.159 123.754C822.042 124.386 824.623 124.665 826.902 124.593C831.139 124.462 833.541 125.405 834.108 127.422C834.214 127.844 834.254 128.294 834.229 128.774C834.075 131.714 832.145 133.087 828.438 132.892C827.99 132.869 826.781 132.709 824.81 132.414C819.337 131.678 816.03 131.185 814.89 130.933C809.856 129.772 807.429 126.552 807.609 121.274C807.791 115.965 807.841 111.353 807.758 107.439C807.717 105.771 807.729 104.313 807.794 103.067C807.972 99.6797 808.487 96.262 809.341 92.814C810.482 88.1633 814.322 85.5127 820.861 84.862C822.955 84.6513 824.512 84.5887 825.533 84.6743C828.818 84.9746 831.748 85.6248 834.323 86.625C835.228 87.089 835.952 87.944 836.496 89.1902C837.041 90.4044 837.207 91.5186 836.994 92.5328C836.864 93.1669 836.781 93.5311 836.744 93.6253ZM880.815 99.3957C880.595 101.147 880.085 102.93 879.285 104.747C877.651 108.41 874.831 110.554 870.825 111.177C870.017 111.295 868.12 111.42 865.133 111.552C863.784 111.609 862.407 111.601 861.001 111.527C858.476 111.395 855.9 111.036 853.271 110.449C853.148 117.685 853.237 122.095 853.538 123.681C853.788 125.04 853.928 126.329 853.961 127.549C853.981 128.992 853.841 130.138 853.54 130.988C853.259 132.062 852.511 132.888 851.295 133.465C850.111 134.044 848.982 134.193 847.907 133.913C845.726 133.35 844.559 130.853 844.406 126.423C844.33 124.208 844.29 122.54 844.284 121.418C844.109 118.044 844.073 114.742 844.179 111.511L844.696 101.636C844.815 99.3675 845.258 97.0355 846.024 94.6403C847.327 90.5749 850.488 88.0329 855.508 87.0142C857.484 86.6051 860.757 86.5203 865.327 86.7598C869.705 86.9892 873.163 87.9555 875.701 89.6587C877.651 90.9785 879.022 92.3321 879.815 93.7195C880.755 95.339 881.089 97.231 880.815 99.3957ZM864.846 103.269C866.498 102.33 867.359 101.19 867.429 99.8477C867.471 99.0488 867.227 98.2029 866.697 97.3099C865.521 95.2936 863.654 94.2184 861.098 94.0845C860.363 94.0459 859.705 94.0595 859.125 94.1253C855.516 94.5129 853.698 96.4845 853.672 100.04C853.644 102.41 855.528 103.758 859.324 104.085C861.398 104.258 862.729 104.232 863.318 104.006L864.299 103.625C864.563 103.479 864.745 103.36 864.846 103.269ZM906.648 102.672C906.798 98.5784 906.926 96.1497 907.03 95.3861C907.492 92.0778 908.49 90.1434 910.026 89.583C910.777 89.3019 911.441 89.1765 912.016 89.2066C913.454 89.282 914.489 90.0092 915.122 91.3882C915.64 92.5048 915.827 93.8284 915.683 95.359C915.462 97.7507 915.343 99.6992 915.329 101.204L915.258 111.727C915.236 113.969 915.233 115.251 915.249 115.572C915.51 119.143 915.723 121.813 915.886 123.584C916.107 126.704 916.096 129.363 915.853 131.561C915.678 133.058 915.214 134.268 914.461 135.19C913.605 136.234 912.474 136.72 911.068 136.646C910.461 136.614 909.812 136.468 909.12 136.207C907.704 135.717 906.805 134.532 906.423 132.653C906.214 131.745 906.137 130.155 906.192 127.883L906.364 118.183C906.422 115.238 905.23 113.829 902.788 113.958C900.057 114.103 898.086 114.096 896.877 113.936C895.316 113.758 894.456 114.883 894.297 117.31C894.133 119.833 894.069 122.569 894.107 125.519C894.146 128.437 894.107 130.71 893.99 132.338C893.754 135.626 891.751 136.851 887.981 136.013C886.619 135.717 885.667 135.235 885.125 134.565C884.582 133.928 884.33 132.922 884.37 131.546C884.412 129.529 884.435 128.473 884.44 128.377C884.524 127.388 884.55 125.066 884.517 121.412C884.504 116.156 884.504 112.487 884.517 110.404C884.496 105.917 884.529 102.522 884.618 100.22C884.775 96.6071 884.925 94.3559 885.068 93.4661C885.58 90.4168 886.632 88.6934 888.223 88.2962C888.938 88.1093 889.551 88.0293 890.062 88.0561C892.171 88.1666 893.563 90.05 894.236 93.7063C894.586 95.5832 894.694 97.4955 894.56 99.4431C894.393 102.03 894.378 103.535 894.516 103.959C894.876 105.035 896.126 105.646 898.265 105.79C901.363 105.984 903.138 106.061 903.588 106.021C905.56 105.707 906.579 104.591 906.648 102.672ZM942.052 90.7808C948.064 91.6406 951.974 96.8123 953.784 106.296C954.189 108.368 954.619 112.076 955.076 117.419C955.435 121.571 955.525 125.357 955.346 128.777C955.224 131.109 954.808 133.235 954.099 135.152C953.085 137.983 951.668 139.351 949.846 139.255C948.184 139.168 946.973 138.736 946.213 137.959C945.453 137.182 945.005 135.941 944.87 134.236C944.733 132.562 944.731 129.855 944.863 126.112C944.985 122.562 944.937 119.82 944.718 117.885C944.2 113.084 943.096 110.607 941.406 110.454C939.652 110.298 938.287 110.355 937.311 110.624C935.361 111.162 934.094 112.698 933.513 115.231C933.224 116.466 933.08 118.605 933.081 121.65C933.06 126.327 933.113 129.582 933.242 131.415C933.279 131.93 933.288 132.363 933.27 132.715C933.069 136.549 931.386 138.384 928.223 138.218C927.903 138.201 927.489 138.148 926.982 138.057C924.442 137.603 922.84 136.061 922.177 133.431C921.751 131.774 921.717 129.369 922.074 126.216C922.622 121.278 922.952 118.331 923.067 117.376C923.349 115.051 924.137 111.327 925.43 106.204C926.561 101.745 927.634 98.4046 928.647 96.1826C929.622 94.0868 931.224 92.5685 933.452 91.6278C935.386 90.7999 937.616 90.4521 940.14 90.5844C940.715 90.6146 941.353 90.68 942.052 90.7808ZM943.773 101.974C943.849 101.754 943.893 101.516 943.906 101.26C944.017 99.1511 942.735 97.9303 940.061 97.5979C938.342 97.3796 936.927 97.7861 935.815 98.8174C935.075 99.4836 934.688 100.152 934.653 100.823C934.636 101.143 934.729 101.5 934.933 101.895C935.399 102.785 936.122 103.352 937.103 103.595C937.419 103.676 938.376 103.758 939.974 103.842C941.955 103.946 943.222 103.323 943.773 101.974ZM966.934 92.0848C969.871 91.6939 971.85 92.4545 972.871 94.3666C973.367 95.2899 973.691 96.4444 973.843 97.8302C973.995 99.2161 973.962 100.448 973.746 101.526C973.173 104.508 972.775 106.586 972.554 107.76C971.856 110.672 971.398 113.307 971.178 115.667C971.022 117.421 970.908 118.681 970.836 119.446C970.344 124.548 970.557 127.523 971.473 128.372C972.757 129.561 974.661 130.221 977.186 130.354C978.795 130.214 980.002 130.117 980.806 130.063C982.531 130.153 984.133 130.173 985.609 130.122C987.375 130.055 988.869 130.293 990.09 130.838C991.752 131.534 992.542 132.665 992.46 134.23C992.294 137.394 991.361 139.3 989.661 139.948C989.072 140.173 987.621 140.354 985.306 140.489C981.578 140.71 978.275 140.745 975.399 140.594C974.185 140.531 972.85 140.316 971.395 139.952C968.073 139.137 965.782 138.232 964.52 137.236C963.751 136.619 963.081 135.655 962.509 134.343C961.995 133.131 961.719 131.995 961.678 130.935C961.6 129.361 961.546 128.252 961.516 127.61C961.364 124.398 961.271 122.182 961.239 120.962C961.048 117.267 960.981 114.268 961.038 111.963C961.158 107.836 961.226 105.308 961.243 104.38C961.29 102.267 961.32 100.779 961.333 99.9144C961.396 96.2647 962.173 93.9662 963.665 93.019C964.334 92.4772 965.166 92.2004 966.16 92.1884C966.58 92.1143 966.839 92.0798 966.934 92.0848ZM1000.49 102.015C1002.34 96.5682 1007.38 94.0602 1015.59 94.4906C1016.61 94.5442 1017.68 94.6482 1018.8 94.8027C1020.9 95.073 1022.45 95.3788 1023.46 95.72C1024.69 96.1368 1025.93 96.9228 1027.18 98.078C1028.43 99.2332 1029.27 100.414 1029.69 101.622C1030.49 103.907 1030.93 106.093 1030.98 108.179C1030.99 109.173 1031.06 110.811 1031.2 113.093C1031.32 115.086 1031.34 116.77 1031.27 118.144C1031.12 121.565 1030.37 126.812 1029 133.887C1028.87 134.553 1028.38 135.776 1027.51 137.558C1026.51 139.652 1024.49 141.132 1021.47 141.999C1019.38 142.595 1017.26 142.836 1015.08 142.722C1014.6 142.697 1014.12 142.656 1013.65 142.599C1011.35 142.318 1009.89 142.098 1009.26 141.936C1008.12 141.652 1006.69 141.129 1004.97 140.365C1003.78 139.854 1002.56 138.878 1001.32 137.435C999.967 135.826 999.317 134.462 999.376 133.343L998.156 127.271C997.824 125.651 997.709 123.258 997.811 120.091C997.907 117.661 998.018 115.231 998.145 112.803C998.269 109.829 999.05 106.233 1000.49 102.015ZM1017.93 104.803C1016.17 104.198 1014.29 104.099 1012.28 104.507C1010.14 104.908 1008.66 107.458 1007.84 112.157C1007.43 114.443 1007.17 116.64 1007.06 118.749C1006.94 121.082 1007.01 123.505 1007.26 126.018C1007.72 130.56 1009.22 133.138 1011.76 133.752C1012.45 133.916 1013.15 134.017 1013.85 134.054C1015.45 134.138 1016.8 133.824 1017.89 133.112C1019.45 132.104 1020.65 128.802 1021.49 123.207C1021.78 121.235 1021.98 119.419 1022.06 117.757C1022.2 115.137 1022.04 112.725 1021.58 110.522C1020.91 107.315 1019.7 105.408 1017.93 104.803ZM1075.78 109.613C1075.56 111.364 1075.05 113.148 1074.25 114.965C1072.62 118.628 1069.8 120.772 1065.79 121.395C1064.98 121.513 1063.09 121.638 1060.1 121.769C1058.75 121.827 1057.37 121.819 1055.97 121.745C1053.44 121.613 1050.87 121.253 1048.24 120.667C1048.11 127.903 1048.2 132.313 1048.51 133.899C1048.75 135.258 1048.9 136.547 1048.93 137.767C1048.95 139.21 1048.81 140.356 1048.51 141.205C1048.23 142.28 1047.48 143.106 1046.26 143.683C1045.08 144.262 1043.95 144.411 1042.87 144.13C1040.69 143.568 1039.53 141.071 1039.37 136.641C1039.3 134.426 1039.26 132.758 1039.25 131.636C1039.08 128.262 1039.04 124.96 1039.15 121.729L1039.66 111.854C1039.78 109.585 1040.22 107.253 1040.99 104.858C1042.29 100.793 1045.45 98.2507 1050.47 97.232C1052.45 96.8229 1055.72 96.7381 1060.29 96.9775C1064.67 97.207 1068.13 98.1733 1070.67 99.8765C1072.62 101.196 1073.99 102.55 1074.78 103.937C1075.72 105.557 1076.06 107.449 1075.78 109.613ZM1059.81 113.487C1061.46 112.548 1062.33 111.408 1062.4 110.065C1062.44 109.267 1062.19 108.421 1061.66 107.528C1060.49 105.511 1058.62 104.436 1056.06 104.302C1055.33 104.264 1054.67 104.277 1054.09 104.343C1050.48 104.731 1048.66 106.702 1048.64 110.258C1048.61 112.628 1050.49 113.976 1054.29 114.303C1056.36 114.476 1057.7 114.45 1058.28 114.224L1059.27 113.843C1059.53 113.696 1059.71 113.578 1059.81 113.487ZM1080.86 106.227C1082.72 100.78 1087.75 98.2724 1095.97 98.7028C1096.99 98.7564 1098.06 98.8605 1099.17 99.0149C1101.27 99.2852 1102.82 99.591 1103.83 99.9322C1105.06 100.349 1106.3 101.135 1107.55 102.29C1108.81 103.445 1109.64 104.627 1110.06 105.834C1110.87 108.12 1111.3 110.305 1111.35 112.391C1111.36 113.385 1111.44 115.023 1111.57 117.305C1111.69 119.298 1111.72 120.982 1111.65 122.356C1111.5 125.777 1110.74 131.024 1109.38 138.099C1109.25 138.765 1108.75 139.989 1107.89 141.77C1106.88 143.864 1104.86 145.344 1101.84 146.211C1099.76 146.807 1097.63 147.048 1095.46 146.934C1094.98 146.909 1094.5 146.868 1094.02 146.811C1091.73 146.531 1090.27 146.31 1089.63 146.148C1088.49 145.864 1087.06 145.341 1085.34 144.578C1084.15 144.067 1082.94 143.09 1081.7 141.647C1080.34 140.038 1079.69 138.674 1079.75 137.555L1078.53 131.483C1078.2 129.864 1078.08 127.47 1078.19 124.303C1078.28 121.873 1078.39 119.444 1078.52 117.015C1078.64 114.041 1079.42 110.445 1080.86 106.227ZM1098.31 109.016C1096.55 108.411 1094.66 108.312 1092.65 108.719C1090.52 109.12 1089.04 111.67 1088.21 116.369C1087.81 118.655 1087.55 120.853 1087.44 122.962C1087.31 125.294 1087.38 127.717 1087.63 130.23C1088.1 134.773 1089.6 137.351 1092.13 137.964C1092.83 138.129 1093.53 138.229 1094.23 138.266C1095.83 138.35 1097.17 138.036 1098.27 137.324C1099.83 136.316 1101.02 133.015 1101.86 127.419C1102.16 125.448 1102.35 123.631 1102.44 121.969C1102.57 119.349 1102.41 116.937 1101.95 114.734C1101.29 111.527 1100.07 109.621 1098.31 109.016ZM1155.1 127.613C1154.91 131.096 1154.21 134.504 1152.97 137.836C1152.53 139.062 1151.35 140.731 1149.44 142.842C1146.93 145.594 1143.4 147.492 1138.86 148.536C1137.5 148.849 1136.02 148.98 1134.42 148.928C1130.1 148.798 1126.71 148.107 1124.24 146.857C1120.8 145.138 1118.76 137.757 1118.09 124.713C1117.82 119.603 1117.8 115.901 1118.05 113.607C1118.46 109.527 1119.05 106.802 1119.83 105.433C1121.06 103.222 1123.38 101.79 1126.78 101.135C1129.43 100.633 1131.86 100.44 1134.07 100.555C1135.19 100.614 1136.28 100.768 1137.36 101.016C1140.21 101.678 1142.72 102.627 1144.9 103.863C1147.11 105.1 1148.83 106.568 1150.05 108.267C1150.98 109.533 1151.99 111.605 1153.09 114.482C1153.15 114.677 1153.23 114.858 1153.35 115.025C1154.75 119.007 1155.33 123.203 1155.1 127.613ZM1135.61 113.278C1134.57 112.999 1133.58 112.835 1132.66 112.786C1131.64 112.733 1130.76 112.847 1130.04 113.13C1128.64 113.697 1127.64 115.936 1127.05 119.847C1126.69 122.487 1126.55 125.14 1126.63 127.804C1126.73 130.757 1126.91 132.881 1127.16 134.176C1127.45 135.441 1128.23 136.459 1129.5 137.231C1130.62 137.898 1131.9 138.27 1133.34 138.345C1134.39 138.4 1135.52 138.283 1136.72 137.994C1139.28 137.359 1141.21 136.13 1142.49 134.306C1143.56 132.761 1144.29 130.555 1144.66 127.691C1145.04 124.827 1144.31 121.905 1142.48 118.925C1140.65 115.913 1138.36 114.031 1135.61 113.278ZM1172 109.465C1172.07 110.526 1171.98 113.758 1171.73 119.16C1171.56 122.965 1171.22 126.247 1170.69 129.007C1169.71 134.211 1168.28 136.764 1166.39 136.665C1164.89 136.586 1163.72 135.755 1162.87 134.173C1162.17 132.823 1161.87 131.332 1161.95 129.703C1162.2 124.941 1162.22 118.838 1162 111.392C1161.97 110.622 1161.98 109.933 1162.01 109.326C1162.25 104.756 1163.87 102.502 1166.88 102.564C1168.8 102.6 1170.09 103.389 1170.75 104.929C1171.49 106.666 1171.91 108.178 1172 109.465ZM1167.29 150.651C1165.66 150.693 1164.73 150.597 1164.52 150.362C1162.17 149.437 1161.04 147.984 1161.14 146.003C1161.19 145.172 1161.45 144.24 1161.92 143.207C1163.18 140.486 1164.79 139.176 1166.74 139.278C1167.25 139.305 1167.83 139.464 1168.49 139.755C1170.59 140.666 1171.59 142.128 1171.48 144.141C1171.45 144.78 1171.32 145.43 1171.09 146.091C1170.07 149.082 1168.8 150.602 1167.29 150.651Z" fill="#F3C205"/>
</svg>
