<svg width="622" height="102" viewBox="0 0 622 102" fill="none" xmlns="http://www.w3.org/2000/svg">
<path d="M30.9418 12.88C28.9898 12.464 27.2458 12.256 25.7098 12.256C19.8538 12.256 15.9338 14.992 13.9498 20.464C13.4698 21.776 13.2298 23.28 13.2298 24.976C13.2298 27.12 13.6618 29.552 14.5258 32.272C15.8378 36.368 18.7978 38.416 23.4058 38.416C24.0138 38.416 24.9098 38.368 26.0938 38.272C27.3098 38.144 28.2218 38.08 28.8298 38.08C32.7978 38.08 35.3098 39.168 36.3658 41.344C36.6538 41.92 36.7978 42.544 36.7978 43.216C36.7978 45.104 35.1818 46.768 31.9498 48.208C28.4618 49.104 25.9818 49.568 24.5098 49.6C21.0538 49.696 17.4058 48.944 13.5658 47.344C8.31775 45.168 5.19775 39.472 4.20575 30.256C4.01375 28.4 3.91775 26.56 3.91775 24.736C3.91775 22.368 4.07775 19.984 4.39775 17.584C4.97375 13.392 6.07775 10.336 7.70975 8.416C9.69375 6.112 11.7898 4.464 13.9978 3.472C15.8218 2.672 18.4618 2.048 21.9178 1.6C23.6138 1.376 25.1338 1.264 26.4778 1.264C28.4618 1.264 30.1258 1.488 31.4698 1.936C35.0858 2.704 37.0538 4.976 37.3738 8.752C37.6298 11.696 36.3018 13.168 33.3898 13.168C32.6538 13.168 31.8378 13.072 30.9418 12.88ZM43.5586 9.76C45.1266 4.224 50.0226 1.456 58.2466 1.456C59.2706 1.456 60.3426 1.504 61.4626 1.6C63.5746 1.76 65.1426 1.984 66.1666 2.272C67.4146 2.624 68.6946 3.344 70.0066 4.432C71.3186 5.52 72.2146 6.656 72.6946 7.84C73.6226 10.08 74.1666 12.24 74.3266 14.32C74.3906 15.312 74.5506 16.944 74.8066 19.216C75.0306 21.2 75.1426 22.88 75.1426 24.256C75.1746 27.68 74.6946 32.96 73.7026 40.096C73.6066 40.768 73.1746 42.016 72.4066 43.84C71.5106 45.984 69.5746 47.568 66.5986 48.592C64.5506 49.296 62.4386 49.648 60.2626 49.648C59.7826 49.648 59.3026 49.632 58.8226 49.6C56.5186 49.44 55.0466 49.296 54.4066 49.168C53.2546 48.944 51.7986 48.496 50.0386 47.824C48.8226 47.376 47.5586 46.464 46.2466 45.088C44.8066 43.552 44.0866 42.224 44.0866 41.104L42.5506 35.104C42.1346 33.504 41.8946 31.12 41.8306 27.952C41.7986 25.52 41.7826 23.088 41.7826 20.656C41.7506 17.68 42.3426 14.048 43.5586 9.76ZM61.1266 11.632C59.3346 11.12 57.4466 11.12 55.4626 11.632C53.3506 12.144 52.0066 14.768 51.4306 19.504C51.1426 21.808 50.9986 24.016 50.9986 26.128C50.9986 28.464 51.1906 30.88 51.5746 33.376C52.2786 37.888 53.9106 40.384 56.4706 40.864C57.1746 40.992 57.8786 41.056 58.5826 41.056C60.1826 41.056 61.5106 40.672 62.5666 39.904C64.0706 38.816 65.0946 35.456 65.6386 29.824C65.8306 27.84 65.9266 26.016 65.9266 24.352C65.9266 21.728 65.6386 19.328 65.0626 17.152C64.2306 13.984 62.9186 12.144 61.1266 11.632ZM91.9299 2.752C94.5859 3.648 97.1779 6.576 99.7059 11.536C100.858 13.808 102.41 17.648 104.362 23.056C105.578 26.544 106.49 29.152 107.098 30.88C108.378 34.432 109.45 36.96 110.314 38.464C110.506 38.816 110.698 38.992 110.89 38.992C111.146 38.992 111.306 38.432 111.37 37.312C111.498 35.392 111.306 31.28 110.794 24.976C110.282 18.672 110.058 13.168 110.122 8.464C110.186 3.888 111.962 1.6 115.45 1.6C119.738 1.6 121.882 5.088 121.882 12.064C121.882 12.928 121.834 14.224 121.738 15.952C121.642 17.68 121.594 18.976 121.594 19.84C121.594 28.416 121.034 35.52 119.914 41.152C119.434 43.552 118.858 45.296 118.186 46.384C117.258 47.888 115.754 48.848 113.674 49.264C113.034 49.392 112.362 49.456 111.658 49.456C109.93 49.456 108.426 48.96 107.146 47.968C104.138 45.632 100.97 39.952 97.6419 30.928C95.9779 26.416 94.8099 23.152 94.1379 21.136C93.2739 18.512 92.4259 17.2 91.5939 17.2C91.4339 17.2 91.2899 17.248 91.1619 17.344C89.9139 17.984 89.2899 19.328 89.2899 21.376C89.2899 21.824 89.3059 22.224 89.3379 22.576C90.1059 30.864 90.8739 36.752 91.6419 40.24C91.9299 41.552 92.0739 42.688 92.0739 43.648C92.0739 45.184 91.7379 46.512 91.0659 47.632C90.2659 48.944 89.1459 49.6 87.7059 49.6C85.4339 49.6 83.8979 48.848 83.0979 47.344C81.8499 45.04 81.2259 39.28 81.2259 30.064C81.2259 23.408 81.1939 19.44 81.1299 18.16C81.0659 16.848 81.0339 15.536 81.0339 14.224C81.0339 9.904 81.4179 7.104 82.1859 5.824C83.7219 3.232 85.5939 1.936 87.8019 1.936C88.9219 1.936 90.2979 2.208 91.9299 2.752ZM161.147 12.208C159.163 13.104 156.683 13.552 153.707 13.552C152.715 13.552 151.659 13.504 150.539 13.408C151.723 23.392 152.507 30.96 152.891 36.112C153.179 40.08 153.323 42.368 153.323 42.976C153.163 46.208 152.267 48.144 150.635 48.784C149.515 49.104 148.395 49.28 147.275 49.312C146.027 49.344 144.875 49.04 143.819 48.4C142.667 47.664 142.043 46.704 141.947 45.52C141.787 43.696 141.707 41.44 141.707 38.752C141.675 34.56 141.675 31.024 141.707 28.144C141.739 24.4 141.691 21.552 141.563 19.6L141.179 13.696C138.043 14.048 135.691 14.176 134.123 14.08C133.035 14.016 132.059 13.872 131.195 13.648C129.851 12.976 128.955 12.352 128.507 11.776C127.675 10.944 127.259 10.032 127.259 9.04C127.259 7.92 127.675 6.784 128.507 5.632C129.339 4.48 130.571 3.792 132.203 3.568C137.323 2.832 142.155 2.432 146.699 2.368C148.171 2.336 151.051 2.304 155.339 2.272C157.995 2.24 159.947 2.512 161.195 3.088C163.723 4.24 164.987 6.08 164.987 8.608C164.987 9.856 163.707 11.056 161.147 12.208ZM172.874 4.624C174.666 3.056 178.618 2.048 184.73 1.6C188.122 1.344 192.042 1.568 196.49 2.272C201.13 3.008 203.898 5.328 204.794 9.232C205.21 11.056 205.418 12.592 205.418 13.84C205.418 15.472 205.098 16.848 204.458 17.968C201.802 22.544 197.274 24.864 190.874 24.928C189.914 24.928 188.506 24.864 186.65 24.736C184.794 24.576 183.418 24.496 182.522 24.496C182.17 24.496 181.994 24.608 181.994 24.832C181.994 25.184 182.346 25.744 183.05 26.512C185.418 29.04 187.37 31.232 188.906 33.088C191.114 35.712 192.778 37.664 193.898 38.944C196.202 41.76 197.354 43.888 197.354 45.328C197.354 46.864 196.522 48.032 194.858 48.832C194.25 49.12 193.642 49.264 193.034 49.264C191.05 49.264 189.034 48.176 186.986 46C185.482 44.368 184.154 42.416 183.002 40.144L177.194 28.48C177.866 35.072 178.186 39.056 178.154 40.432C178.122 42.896 178.122 44.256 178.154 44.512C178.154 45.312 177.962 46.176 177.578 47.104C177.194 48.032 176.65 48.672 175.946 49.024C175.434 49.28 174.586 49.472 173.402 49.6C171.162 49.856 170.042 48 170.042 44.032C169.914 43.296 169.818 42.416 169.754 41.392C169.274 33.84 169.05 27.456 169.082 22.24C169.114 18.656 169.162 16.176 169.226 14.8C169.514 9.488 170.73 6.096 172.874 4.624ZM188.426 10.048C187.178 9.472 185.946 9.184 184.73 9.184C183.482 9.184 182.346 9.52 181.322 10.192C179.818 11.152 179.05 12.512 179.018 14.272C178.986 16.576 180.202 17.792 182.666 17.92C187.498 18.176 190.17 17.12 190.682 14.752C191.162 12.512 190.41 10.944 188.426 10.048ZM227.989 1.6C234.037 2.144 238.213 7.104 240.517 16.48C241.029 18.528 241.653 22.208 242.389 27.52C242.965 31.648 243.253 35.424 243.253 38.848C243.253 41.184 242.949 43.328 242.341 45.28C241.477 48.16 240.133 49.6 238.309 49.6C236.645 49.6 235.413 49.232 234.613 48.496C233.813 47.76 233.301 46.544 233.077 44.848C232.853 43.184 232.709 40.48 232.645 36.736C232.581 33.184 232.389 30.448 232.069 28.528C231.301 23.76 230.069 21.344 228.373 21.28C226.613 21.216 225.253 21.344 224.293 21.664C222.373 22.304 221.189 23.904 220.741 26.464C220.517 27.712 220.485 29.856 220.645 32.896C220.869 37.568 221.093 40.816 221.317 42.64C221.381 43.152 221.413 43.584 221.413 43.936C221.413 47.776 219.829 49.696 216.661 49.696C216.341 49.696 215.925 49.664 215.413 49.6C212.853 49.28 211.173 47.824 210.373 45.232C209.861 43.6 209.701 41.2 209.893 38.032C210.181 33.072 210.357 30.112 210.421 29.152C210.581 26.816 211.173 23.056 212.197 17.872C213.093 13.36 213.989 9.968 214.885 7.696C215.749 5.552 217.269 3.952 219.445 2.896C221.333 1.968 223.541 1.504 226.069 1.504C226.645 1.504 227.285 1.536 227.989 1.6ZM230.293 12.688C230.357 12.464 230.389 12.224 230.389 11.968C230.389 9.856 229.045 8.704 226.357 8.512C224.629 8.384 223.237 8.864 222.181 9.952C221.477 10.656 221.125 11.344 221.125 12.016C221.125 12.336 221.237 12.688 221.461 13.072C221.973 13.936 222.725 14.464 223.717 14.656C224.037 14.72 224.997 14.752 226.597 14.752C228.581 14.752 229.813 14.064 230.293 12.688ZM274.457 12.88C272.505 12.464 270.761 12.256 269.225 12.256C263.369 12.256 259.449 14.992 257.465 20.464C256.985 21.776 256.745 23.28 256.745 24.976C256.745 27.12 257.177 29.552 258.041 32.272C259.353 36.368 262.313 38.416 266.921 38.416C267.529 38.416 268.425 38.368 269.609 38.272C270.825 38.144 271.737 38.08 272.345 38.08C276.313 38.08 278.825 39.168 279.881 41.344C280.169 41.92 280.313 42.544 280.313 43.216C280.313 45.104 278.697 46.768 275.465 48.208C271.977 49.104 269.497 49.568 268.025 49.6C264.569 49.696 260.921 48.944 257.081 47.344C251.833 45.168 248.713 39.472 247.721 30.256C247.529 28.4 247.433 26.56 247.433 24.736C247.433 22.368 247.593 19.984 247.913 17.584C248.489 13.392 249.593 10.336 251.225 8.416C253.209 6.112 255.305 4.464 257.513 3.472C259.337 2.672 261.977 2.048 265.433 1.6C267.129 1.376 268.649 1.264 269.993 1.264C271.977 1.264 273.641 1.488 274.985 1.936C278.601 2.704 280.569 4.976 280.889 8.752C281.145 11.696 279.817 13.168 276.905 13.168C276.169 13.168 275.353 13.072 274.457 12.88ZM320.194 12.208C318.21 13.104 315.73 13.552 312.754 13.552C311.762 13.552 310.706 13.504 309.586 13.408C310.77 23.392 311.554 30.96 311.938 36.112C312.226 40.08 312.37 42.368 312.37 42.976C312.21 46.208 311.314 48.144 309.682 48.784C308.562 49.104 307.442 49.28 306.322 49.312C305.074 49.344 303.922 49.04 302.866 48.4C301.714 47.664 301.09 46.704 300.994 45.52C300.834 43.696 300.754 41.44 300.754 38.752C300.722 34.56 300.722 31.024 300.754 28.144C300.786 24.4 300.738 21.552 300.61 19.6L300.226 13.696C297.09 14.048 294.738 14.176 293.17 14.08C292.082 14.016 291.106 13.872 290.242 13.648C288.898 12.976 288.002 12.352 287.554 11.776C286.722 10.944 286.306 10.032 286.306 9.04C286.306 7.92 286.722 6.784 287.554 5.632C288.386 4.48 289.618 3.792 291.25 3.568C296.37 2.832 301.202 2.432 305.746 2.368C307.218 2.336 310.098 2.304 314.386 2.272C317.042 2.24 318.994 2.512 320.242 3.088C322.77 4.24 324.034 6.08 324.034 8.608C324.034 9.856 322.754 11.056 320.194 12.208ZM361.724 1.6C367.772 2.144 371.948 7.104 374.252 16.48C374.764 18.528 375.388 22.208 376.124 27.52C376.7 31.648 376.988 35.424 376.988 38.848C376.988 41.184 376.684 43.328 376.076 45.28C375.212 48.16 373.868 49.6 372.044 49.6C370.38 49.6 369.148 49.232 368.348 48.496C367.548 47.76 367.036 46.544 366.812 44.848C366.588 43.184 366.444 40.48 366.38 36.736C366.316 33.184 366.124 30.448 365.804 28.528C365.036 23.76 363.804 21.344 362.108 21.28C360.348 21.216 358.988 21.344 358.028 21.664C356.108 22.304 354.924 23.904 354.476 26.464C354.252 27.712 354.22 29.856 354.38 32.896C354.604 37.568 354.828 40.816 355.052 42.64C355.116 43.152 355.148 43.584 355.148 43.936C355.148 47.776 353.564 49.696 350.396 49.696C350.076 49.696 349.66 49.664 349.148 49.6C346.588 49.28 344.908 47.824 344.108 45.232C343.596 43.6 343.436 41.2 343.628 38.032C343.916 33.072 344.092 30.112 344.156 29.152C344.316 26.816 344.908 23.056 345.932 17.872C346.828 13.36 347.724 9.968 348.62 7.696C349.484 5.552 351.004 3.952 353.18 2.896C355.068 1.968 357.276 1.504 359.804 1.504C360.38 1.504 361.02 1.536 361.724 1.6ZM364.028 12.688C364.092 12.464 364.124 12.224 364.124 11.968C364.124 9.856 362.78 8.704 360.092 8.512C358.364 8.384 356.972 8.864 355.916 9.952C355.212 10.656 354.86 11.344 354.86 12.016C354.86 12.336 354.972 12.688 355.196 13.072C355.708 13.936 356.46 14.464 357.452 14.656C357.772 14.72 358.732 14.752 360.332 14.752C362.316 14.752 363.548 14.064 364.028 12.688ZM419.232 27.232C419.232 30.72 418.704 34.16 417.648 37.552C417.264 38.8 416.176 40.528 414.384 42.736C412.016 45.616 408.592 47.696 404.112 48.976C402.768 49.36 401.296 49.568 399.696 49.6C395.376 49.696 391.952 49.184 389.424 48.064C385.904 46.528 383.472 39.264 382.128 26.272C381.584 21.184 381.376 17.488 381.504 15.184C381.696 11.088 382.144 8.336 382.848 6.928C383.968 4.656 386.208 3.104 389.568 2.272C392.192 1.632 394.608 1.312 396.816 1.312C397.936 1.312 399.04 1.408 400.128 1.6C403.008 2.112 405.568 2.928 407.808 4.048C410.08 5.168 411.872 6.544 413.184 8.176C414.176 9.392 415.296 11.408 416.544 14.224C416.608 14.416 416.704 14.592 416.832 14.752C418.432 18.656 419.232 22.816 419.232 27.232ZM399.024 13.936C397.968 13.712 396.976 13.6 396.048 13.6C395.024 13.6 394.16 13.76 393.456 14.08C392.08 14.72 391.2 17.008 390.816 20.944C390.592 23.6 390.592 26.256 390.816 28.912C391.072 31.856 391.36 33.968 391.68 35.248C392.032 36.496 392.864 37.472 394.176 38.176C395.328 38.784 396.624 39.088 398.064 39.088C399.12 39.088 400.24 38.912 401.424 38.56C403.952 37.792 405.808 36.464 406.992 34.576C407.984 32.976 408.592 30.736 408.816 27.856C409.04 24.976 408.16 22.096 406.176 19.216C404.192 16.304 401.808 14.544 399.024 13.936ZM461.466 27.232C461.466 30.72 460.938 34.16 459.882 37.552C459.498 38.8 458.41 40.528 456.618 42.736C454.25 45.616 450.826 47.696 446.346 48.976C445.002 49.36 443.53 49.568 441.93 49.6C437.61 49.696 434.186 49.184 431.658 48.064C428.138 46.528 425.706 39.264 424.362 26.272C423.818 21.184 423.61 17.488 423.738 15.184C423.93 11.088 424.378 8.336 425.082 6.928C426.202 4.656 428.442 3.104 431.802 2.272C434.426 1.632 436.842 1.312 439.05 1.312C440.17 1.312 441.274 1.408 442.362 1.6C445.242 2.112 447.802 2.928 450.042 4.048C452.314 5.168 454.106 6.544 455.418 8.176C456.41 9.392 457.53 11.408 458.778 14.224C458.842 14.416 458.938 14.592 459.066 14.752C460.666 18.656 461.466 22.816 461.466 27.232ZM441.258 13.936C440.202 13.712 439.21 13.6 438.282 13.6C437.258 13.6 436.394 13.76 435.69 14.08C434.314 14.72 433.434 17.008 433.05 20.944C432.826 23.6 432.826 26.256 433.05 28.912C433.306 31.856 433.594 33.968 433.914 35.248C434.266 36.496 435.098 37.472 436.41 38.176C437.562 38.784 438.858 39.088 440.298 39.088C441.354 39.088 442.474 38.912 443.658 38.56C446.186 37.792 448.042 36.464 449.226 34.576C450.218 32.976 450.826 30.736 451.05 27.856C451.274 24.976 450.394 22.096 448.41 19.216C446.426 16.304 444.042 14.544 441.258 13.936ZM470.437 4.624C472.229 3.056 476.181 2.048 482.293 1.6C485.685 1.344 489.605 1.568 494.053 2.272C498.693 3.008 501.461 5.328 502.357 9.232C502.773 11.056 502.981 12.592 502.981 13.84C502.981 15.472 502.661 16.848 502.021 17.968C499.365 22.544 494.837 24.864 488.437 24.928C487.477 24.928 486.069 24.864 484.213 24.736C482.357 24.576 480.981 24.496 480.085 24.496C479.733 24.496 479.557 24.608 479.557 24.832C479.557 25.184 479.909 25.744 480.613 26.512C482.981 29.04 484.933 31.232 486.469 33.088C488.677 35.712 490.341 37.664 491.461 38.944C493.765 41.76 494.917 43.888 494.917 45.328C494.917 46.864 494.085 48.032 492.421 48.832C491.813 49.12 491.205 49.264 490.597 49.264C488.613 49.264 486.597 48.176 484.549 46C483.045 44.368 481.717 42.416 480.565 40.144L474.757 28.48C475.429 35.072 475.749 39.056 475.717 40.432C475.685 42.896 475.685 44.256 475.717 44.512C475.717 45.312 475.525 46.176 475.141 47.104C474.757 48.032 474.213 48.672 473.509 49.024C472.997 49.28 472.149 49.472 470.965 49.6C468.725 49.856 467.605 48 467.605 44.032C467.477 43.296 467.381 42.416 467.317 41.392C466.837 33.84 466.613 27.456 466.645 22.24C466.677 18.656 466.725 16.176 466.789 14.8C467.077 9.488 468.293 6.096 470.437 4.624ZM485.989 10.048C484.741 9.472 483.509 9.184 482.293 9.184C481.045 9.184 479.909 9.52 478.885 10.192C477.381 11.152 476.613 12.512 476.581 14.272C476.549 16.576 477.765 17.792 480.229 17.92C485.061 18.176 487.733 17.12 488.245 14.752C488.725 12.512 487.973 10.944 485.989 10.048ZM534.912 9.952C534.24 11.296 533.28 12.144 532.032 12.496C531.392 12.688 530.064 12.8 528.048 12.832C526.224 12.864 524.544 12.864 523.008 12.832C521.504 12.8 519.968 13.072 518.4 13.648C516.992 14.16 516.064 15.008 515.616 16.192C515.424 16.64 515.2 17.904 514.944 19.984C514.944 20.72 515.024 22.096 515.184 24.112C515.568 26.192 516.608 27.328 518.304 27.52C519.36 27.648 520.832 27.664 522.72 27.568C524.64 27.472 526.192 27.456 527.376 27.52L530.784 27.712C531.84 27.776 532.784 28.096 533.616 28.672C534.576 29.344 535.056 30.176 535.056 31.168C535.056 31.616 534.992 32.32 534.864 33.28C534.736 33.664 534.432 34.096 533.952 34.576C532.736 35.344 531.024 35.616 528.816 35.392C526.384 35.136 524.576 34.976 523.392 34.912C521.664 34.816 520.608 34.736 520.224 34.672C519.744 34.608 519.312 34.576 518.928 34.576C518.544 34.576 518.208 34.608 517.92 34.672C516.992 34.672 516.368 35.392 516.048 36.832C515.728 38.208 515.888 39.168 516.528 39.712C517.36 40.416 518.16 40.832 518.928 40.96C521.84 41.44 524.432 41.584 526.704 41.392C530.928 41.04 533.376 41.856 534.048 43.84C534.176 44.256 534.24 44.704 534.24 45.184C534.24 48.128 532.384 49.6 528.672 49.6C528.224 49.6 527.008 49.504 525.024 49.312C519.52 48.864 516.192 48.544 515.04 48.352C509.952 47.456 507.36 44.368 507.264 39.088C507.168 33.776 506.976 29.168 506.688 25.264C506.56 23.6 506.496 22.144 506.496 20.896C506.496 17.504 506.832 14.064 507.504 10.576C508.4 5.872 512.096 3.024 518.592 2.032C520.672 1.712 522.224 1.568 523.248 1.6C526.544 1.728 529.504 2.224 532.128 3.088C533.056 3.504 533.824 4.32 534.432 5.536C535.04 6.72 535.264 7.824 535.104 8.848C535.008 9.488 534.944 9.856 534.912 9.952ZM576.968 35.056C577.064 36.656 576.776 38.384 576.104 40.24C575.464 42.128 574.872 43.296 574.328 43.744C573.368 44.544 572.632 45.12 572.12 45.472C571.224 46.08 570.392 46.528 569.624 46.816C567.448 47.648 564.024 48.368 559.352 48.976C557.24 49.264 555.672 49.344 554.648 49.216C552.44 48.992 550.776 48.816 549.656 48.688C548.024 48.432 546.504 47.696 545.096 46.48C543.976 45.52 543.416 44.24 543.416 42.64C543.416 42 543.512 41.296 543.704 40.528C544.28 38.288 545.88 37.168 548.504 37.168C548.984 37.168 549.48 37.2 549.992 37.264C552.84 37.616 554.984 37.936 556.424 38.224C557.256 38.16 558.024 38.128 558.728 38.128C561.096 38.16 562.92 37.984 564.2 37.6C566.408 36.96 567.432 35.696 567.272 33.808C567.08 31.76 565.32 30.384 561.992 29.68C560.68 29.392 558.2 29.184 554.552 29.056C550.488 28.896 547.416 28.128 545.336 26.752C542.808 25.088 541.336 22.368 540.92 18.592C540.856 17.984 540.824 17.328 540.824 16.624C540.824 14.16 541.384 11.856 542.504 9.712C543.624 7.536 544.936 5.936 546.44 4.912C547.816 3.952 549.784 3.232 552.344 2.752C556.056 2.08 559.128 1.744 561.56 1.744C562.168 1.744 562.728 1.76 563.24 1.792L568.136 2.272C570.888 2.56 572.264 3.936 572.264 6.4C572.264 7.168 572.12 7.936 571.832 8.704C571.352 9.984 569.768 10.624 567.08 10.624C566.44 10.624 565.64 10.576 564.68 10.48C563.112 10.32 561.592 10.24 560.12 10.24C557.912 10.24 555.992 10.432 554.36 10.816C551.672 11.456 550.216 13.008 549.992 15.472C549.8 17.68 550.376 19.28 551.72 20.272C552.712 21.04 554.408 21.552 556.808 21.808C558.888 21.904 560.744 21.984 562.376 22.048C566.952 22.208 570.344 23.12 572.552 24.784C573.672 25.648 574.68 27.216 575.576 29.488C576.376 31.504 576.84 33.36 576.968 35.056ZM617.421 35.056C617.517 36.656 617.229 38.384 616.557 40.24C615.917 42.128 615.325 43.296 614.781 43.744C613.821 44.544 613.085 45.12 612.573 45.472C611.677 46.08 610.845 46.528 610.077 46.816C607.901 47.648 604.477 48.368 599.805 48.976C597.693 49.264 596.125 49.344 595.101 49.216C592.893 48.992 591.229 48.816 590.109 48.688C588.477 48.432 586.957 47.696 585.549 46.48C584.429 45.52 583.869 44.24 583.869 42.64C583.869 42 583.965 41.296 584.157 40.528C584.733 38.288 586.333 37.168 588.957 37.168C589.437 37.168 589.933 37.2 590.445 37.264C593.293 37.616 595.437 37.936 596.877 38.224C597.709 38.16 598.477 38.128 599.181 38.128C601.549 38.16 603.373 37.984 604.653 37.6C606.861 36.96 607.885 35.696 607.725 33.808C607.533 31.76 605.773 30.384 602.445 29.68C601.133 29.392 598.653 29.184 595.005 29.056C590.941 28.896 587.869 28.128 585.789 26.752C583.261 25.088 581.789 22.368 581.373 18.592C581.309 17.984 581.277 17.328 581.277 16.624C581.277 14.16 581.837 11.856 582.957 9.712C584.077 7.536 585.389 5.936 586.893 4.912C588.269 3.952 590.237 3.232 592.797 2.752C596.509 2.08 599.581 1.744 602.013 1.744C602.621 1.744 603.181 1.76 603.693 1.792L608.589 2.272C611.341 2.56 612.717 3.936 612.717 6.4C612.717 7.168 612.573 7.936 612.285 8.704C611.805 9.984 610.221 10.624 607.533 10.624C606.893 10.624 606.093 10.576 605.133 10.48C603.565 10.32 602.045 10.24 600.573 10.24C598.365 10.24 596.445 10.432 594.813 10.816C592.125 11.456 590.669 13.008 590.445 15.472C590.253 17.68 590.829 19.28 592.173 20.272C593.165 21.04 594.861 21.552 597.261 21.808C599.341 21.904 601.197 21.984 602.829 22.048C607.405 22.208 610.797 23.12 613.005 24.784C614.125 25.648 615.133 27.216 616.029 29.488C616.829 31.504 617.293 33.36 617.421 35.056Z" fill="black"/>
<path d="M2.98992 82.96C3.92326 81.72 5.02992 81.0667 6.30992 81C7.94992 80.9067 9.20992 81.2267 10.0899 81.96C10.8099 82.56 11.5033 83.7067 12.1699 85.4C12.7299 86.8267 13.0099 88.58 13.0099 90.66C13.0099 91.66 12.9499 92.7067 12.8299 93.8C12.4433 97.32 11.5366 99.4533 10.1099 100.2C9.08326 100.733 8.11659 101 7.20992 101C6.84992 101 6.50992 100.96 6.18992 100.88C4.68326 100.493 3.54326 99.6133 2.76992 98.24C2.16992 97.1733 1.75659 95.74 1.52992 93.94C1.34326 92.4867 1.24992 91.0867 1.24992 89.74C1.24992 86.7533 1.82992 84.4933 2.98992 82.96ZM4.48992 90.3C4.59659 94.94 5.45659 97.3133 7.06992 97.42C8.00326 97.4867 8.68326 96.8933 9.10992 95.64C9.41659 94.7733 9.56992 93.7867 9.56992 92.68C9.56992 91.6 9.44992 90.3133 9.20992 88.82C8.88992 86.9133 8.46326 85.76 7.92992 85.36C7.59659 85.1067 6.98992 85.0267 6.10992 85.12C4.96326 85.6667 4.42326 87.3933 4.48992 90.3ZM28.0604 88.82C26.4071 90.66 25.2137 92.0133 24.4804 92.88C25.5071 93.9333 26.2471 94.7133 26.7004 95.22C27.7137 96.3533 28.3404 97.2267 28.5804 97.84C28.6737 98.1467 28.6804 98.5467 28.6004 99.04C28.5337 99.5067 28.1471 99.9267 27.4404 100.3C27.1471 100.46 26.8737 100.54 26.6204 100.54C26.2204 100.54 25.8471 100.367 25.5004 100.02C24.9537 99.4733 23.7937 98.02 22.0204 95.66L19.3804 99.22C18.8204 99.9667 18.1804 100.373 17.4604 100.44C16.7404 100.493 16.1804 100.107 15.7804 99.28C15.6337 98.9733 15.5604 98.66 15.5604 98.34C15.5604 97.8067 15.7737 97.2533 16.2004 96.68C16.9871 95.6267 18.1471 94.3467 19.6804 92.84C18.2804 91.4 16.9871 89.6933 15.8004 87.72C15.3071 86.8933 15.0604 86.1733 15.0604 85.56C15.0604 85.0533 15.2204 84.62 15.5404 84.26C16.0071 83.7267 16.5071 83.46 17.0404 83.46C17.3204 83.46 17.6071 83.5333 17.9004 83.68C18.6071 84.0267 19.4271 85.0067 20.3604 86.62C20.8004 87.4067 21.4537 88.58 22.3204 90.14L24.5604 87.2C25.5471 85.9067 26.3737 85.0533 27.0404 84.64C27.2537 84.5067 27.4737 84.44 27.7004 84.44C28.1537 84.44 28.6004 84.72 29.0404 85.28C29.2671 85.5733 29.3804 85.9 29.3804 86.26C29.3804 86.98 28.9404 87.8333 28.0604 88.82ZM38.629 81C41.149 81.2267 42.889 83.2933 43.849 87.2C44.0623 88.0533 44.3223 89.5867 44.629 91.8C44.869 93.52 44.989 95.0933 44.989 96.52C44.989 97.4933 44.8623 98.3867 44.609 99.2C44.249 100.4 43.689 101 42.929 101C42.2357 101 41.7223 100.847 41.389 100.54C41.0557 100.233 40.8423 99.7267 40.749 99.02C40.6557 98.3267 40.5957 97.2 40.569 95.64C40.5423 94.16 40.4623 93.02 40.329 92.22C40.009 90.2333 39.4957 89.2267 38.789 89.2C38.0557 89.1733 37.489 89.2267 37.089 89.36C36.289 89.6267 35.7957 90.2933 35.609 91.36C35.5157 91.88 35.5023 92.7733 35.569 94.04C35.6623 95.9867 35.7557 97.34 35.849 98.1C35.8757 98.3133 35.889 98.4933 35.889 98.64C35.889 100.24 35.229 101.04 33.909 101.04C33.7757 101.04 33.6023 101.027 33.389 101C32.3223 100.867 31.6223 100.26 31.289 99.18C31.0757 98.5 31.009 97.5 31.089 96.18C31.209 94.1133 31.2823 92.88 31.309 92.48C31.3757 91.5067 31.6223 89.94 32.049 87.78C32.4223 85.9 32.7957 84.4867 33.169 83.54C33.529 82.6467 34.1623 81.98 35.069 81.54C35.8557 81.1533 36.7757 80.96 37.829 80.96C38.069 80.96 38.3357 80.9733 38.629 81ZM39.589 85.62C39.6157 85.5267 39.629 85.4267 39.629 85.32C39.629 84.44 39.069 83.96 37.949 83.88C37.229 83.8267 36.649 84.0267 36.209 84.48C35.9157 84.7733 35.769 85.06 35.769 85.34C35.769 85.4733 35.8157 85.62 35.909 85.78C36.1223 86.14 36.4357 86.36 36.849 86.44C36.9823 86.4667 37.3823 86.48 38.049 86.48C38.8757 86.48 39.389 86.1933 39.589 85.62ZM47.0707 84.4C47.724 83.52 48.4974 82.76 49.3907 82.12C50.4574 81.3733 51.4507 81 52.3707 81C52.9974 81 53.4907 81.28 53.8507 81.84C54.2507 82.4667 54.4507 83.9133 54.4507 86.18V93.04C54.4507 95.4933 54.3774 97.1667 54.2307 98.06C54.6974 98.0467 55.224 98.0467 55.8107 98.06C56.2374 98.0733 56.5574 98.3 56.7707 98.74C56.984 99.1933 57.0174 99.62 56.8707 100.02C56.8307 100.113 56.804 100.18 56.7907 100.22C56.4574 100.7 55.7307 100.96 54.6107 101C53.384 101.04 51.5907 100.993 49.2307 100.86C48.324 100.807 47.8707 100.427 47.8707 99.72C47.8707 99.4533 47.9574 99.16 48.1307 98.84C48.384 98.3867 48.9774 98.16 49.9107 98.16C50.1107 98.16 50.3307 98.1667 50.5707 98.18C50.624 97.7933 50.6574 96.4733 50.6707 94.22C50.684 91.8333 50.624 88.8133 50.4907 85.16C49.704 86.24 48.904 86.78 48.0907 86.78C47.744 86.78 47.4174 86.6467 47.1107 86.38C46.804 86.1133 46.6507 85.8067 46.6507 85.46C46.6507 85.1267 46.7907 84.7733 47.0707 84.4ZM62.7779 83.46C63.1646 83.2867 63.6779 83.2067 64.3179 83.22H65.6779C66.2246 83.22 66.8712 83.42 67.6179 83.82C68.3779 84.2067 68.8979 84.6333 69.1779 85.1C69.5779 85.74 69.8246 86.3533 69.9179 86.94C70.0246 87.6067 69.9512 89.2467 69.6979 91.86C69.6179 92.6733 69.5779 93.4067 69.5779 94.06C69.5779 95.42 69.7446 96.3667 70.0779 96.9C70.4646 97.5133 70.6579 98.04 70.6579 98.48C70.6579 98.68 70.6246 98.8333 70.5579 98.94C70.2379 99.46 69.7712 99.72 69.1579 99.72C69.0112 99.72 68.8579 99.7067 68.6979 99.68C68.1379 99.5867 67.6512 99.06 67.2379 98.1L67.0379 98.5C66.5712 99.1533 65.8112 99.66 64.7579 100.02C63.8379 100.34 62.9179 100.473 61.9979 100.42C61.1579 100.38 60.4712 100.173 59.9379 99.8C58.3779 98.72 57.5979 97.2533 57.5979 95.4C57.5979 94.16 58.0312 93.12 58.8979 92.28C59.7646 91.44 60.8246 90.9733 62.0779 90.88C62.2646 90.8667 62.5046 90.86 62.7979 90.86C64.0379 90.86 65.0712 91.1067 65.8979 91.6C66.1246 91.7733 66.3112 91.9133 66.4579 92.02C66.4979 91.7533 66.5179 91.6067 66.5179 91.58C66.5979 91.1 66.6379 90.68 66.6379 90.32C66.6379 89.7467 66.5379 89.2733 66.3379 88.9C66.0046 88.2733 65.6046 87.9133 65.1379 87.82C64.6846 87.7267 64.0846 87.76 63.3379 87.92C63.2179 87.9467 63.0712 87.96 62.8979 87.96C62.3512 87.96 61.8379 87.7533 61.3579 87.34C60.8779 86.9267 60.6379 86.4467 60.6379 85.9C60.6379 85.74 60.6712 85.5467 60.7379 85.32C60.9779 84.5467 61.3312 84.0667 61.7979 83.88C61.9179 83.84 62.0112 83.8 62.0779 83.76C62.3979 83.6133 62.6312 83.5133 62.7779 83.46ZM62.1979 97.3C62.6512 97.3 63.0646 97.18 63.4379 96.94C63.8646 96.6733 64.0779 96.3267 64.0779 95.9C64.0779 95.74 64.0379 95.5467 63.9579 95.32C63.7179 94.64 63.2779 94.3 62.6379 94.3C61.5446 94.3 60.9579 94.7267 60.8779 95.58C60.7979 96.3267 60.9912 96.8333 61.4579 97.1C61.6846 97.2333 61.9312 97.3 62.1979 97.3ZM74.3826 83.1C75.1559 82.1667 76.4892 81.5133 78.3826 81.14C78.8492 81.0467 79.3492 81 79.8826 81C81.1359 81 82.1959 81.36 83.0626 82.08C84.2226 83.04 84.8892 84.0933 85.0626 85.24C85.1826 86.0267 85.2426 86.8867 85.2426 87.82C85.2426 88.86 85.1692 89.9933 85.0226 91.22C84.7292 93.6467 84.2626 95.5733 83.6226 97C82.9559 98.48 82.3292 99.4867 81.7426 100.02C80.9559 100.753 79.8626 101.08 78.4626 101C77.2492 100.933 76.3359 100.713 75.7226 100.34C75.0159 99.9133 74.4826 99.1533 74.1226 98.06C74.0159 97.74 73.9626 97.4667 73.9626 97.24C73.9626 96.8533 74.0959 96.56 74.3626 96.36C74.9092 95.9467 75.3626 95.74 75.7226 95.74C76.3092 95.74 76.7226 96.0267 76.9626 96.6C77.2159 97.1733 77.3959 97.52 77.5026 97.64C77.7826 97.9733 78.2092 98.1267 78.7826 98.1C79.5826 98.06 80.2759 96.9867 80.8626 94.88C81.4092 92.92 81.6826 91.42 81.6826 90.38C81.5092 90.6733 80.9092 91.1 79.8826 91.66C79.4692 91.8867 78.9692 92 78.3826 92C77.6092 92 76.7159 91.76 75.7026 91.28C73.9826 90.4667 73.1426 89.1333 73.1826 87.28C73.2092 86.2 73.2692 85.4467 73.3626 85.02C73.5226 84.38 73.8626 83.74 74.3826 83.1ZM76.7226 86.88C76.8559 87.64 77.4292 88 78.4426 87.96C79.4292 87.92 80.0292 87.42 80.2426 86.46C80.2826 86.2867 80.3026 86.1333 80.3026 86C80.3026 85.32 79.9226 84.8867 79.1626 84.7C78.8426 84.62 78.5359 84.58 78.2426 84.58C77.7492 84.58 77.3626 84.74 77.0826 85.06C76.8026 85.3667 76.6626 85.7733 76.6626 86.28C76.6626 86.4533 76.6826 86.6533 76.7226 86.88ZM86.7074 87.36C86.9208 84.7867 88.0874 82.9467 90.2074 81.84C91.2874 81.28 92.3941 81 93.5274 81C93.8741 81 94.2074 81.02 94.5274 81.06C96.0208 81.2467 97.1141 81.6133 97.8074 82.16C99.5274 83.52 100.341 85.6133 100.247 88.44C100.207 89.7733 99.8408 91.1533 99.1474 92.58C98.4141 94.0867 97.5208 95.2 96.4674 95.92C95.9074 96.3067 94.9141 96.88 93.4874 97.64C93.8874 97.5067 94.4408 97.46 95.1474 97.5C96.4008 97.5533 97.1408 97.6267 97.3674 97.72C97.9141 97.9467 98.2408 98.5333 98.3474 99.48C98.4541 100.44 97.7341 100.947 96.1874 101C94.9741 101.04 93.6141 101.033 92.1074 100.98C89.8808 100.887 88.6541 100.68 88.4274 100.36C88.1341 99.9333 87.9874 99.4133 87.9874 98.8C87.9874 98.6267 88.0008 98.44 88.0274 98.24C88.1474 97.3467 88.5074 96.64 89.1074 96.12C89.4808 95.8 90.2008 95.4067 91.2674 94.94C93.8941 93.78 95.3808 92.32 95.7274 90.56C95.9141 89.6533 95.9808 88.5533 95.9274 87.26C95.8608 85.3267 94.9808 84.36 93.2874 84.36C93.0208 84.36 92.7741 84.38 92.5474 84.42C91.2674 84.6467 90.5874 85.88 90.5074 88.12C90.4941 88.7067 90.4941 89.0467 90.5074 89.14C90.5074 89.5667 90.3808 89.9467 90.1274 90.28C89.8474 90.6533 89.5008 90.8467 89.0874 90.86C88.5808 90.8733 88.1741 90.78 87.8674 90.58C86.9608 89.9933 86.5741 88.92 86.7074 87.36ZM113.754 95.76C113.421 96.4267 112.761 96.7533 111.774 96.74C110.774 96.7267 109.661 96.66 108.434 96.54C108.501 97.2333 108.534 97.8267 108.534 98.32C108.534 98.9333 108.481 99.3867 108.374 99.68C108.094 100.24 107.807 100.587 107.514 100.72C107.234 100.853 106.774 100.873 106.134 100.78C105.107 100.633 104.641 99.3467 104.734 96.92C104.427 97.04 104.094 97.1 103.734 97.1C103.334 97.1 102.894 97.0267 102.414 96.88C101.521 96.6133 101.074 96.08 101.074 95.28C101.074 95.0667 101.121 94.84 101.214 94.6C101.361 94.0667 101.827 93.72 102.614 93.56C103.254 93.52 103.894 93.4733 104.534 93.42C104.401 92.0867 104.181 90.3133 103.874 88.1C103.821 87.7267 103.794 87.3 103.794 86.82C103.794 85.46 104.134 84.3667 104.814 83.54C105.707 82.4467 106.807 81.8533 108.114 81.76C109.207 81.68 109.994 81.7333 110.474 81.92C111.141 82.1867 111.607 82.78 111.874 83.7C111.941 83.94 111.974 84.1667 111.974 84.38C111.974 85.6067 111.074 86.2333 109.274 86.26C108.154 86.2733 107.641 87.16 107.734 88.92C107.827 90.5467 107.921 91.9533 108.014 93.14C108.974 92.8333 110.167 92.6867 111.594 92.7C112.994 92.7133 113.787 93.06 113.974 93.74C114.041 93.9933 114.074 94.2267 114.074 94.44C114.074 94.88 113.967 95.32 113.754 95.76ZM115.313 84.4C115.966 83.52 116.74 82.76 117.633 82.12C118.7 81.3733 119.693 81 120.613 81C121.24 81 121.733 81.28 122.093 81.84C122.493 82.4667 122.693 83.9133 122.693 86.18V93.04C122.693 95.4933 122.62 97.1667 122.473 98.06C122.94 98.0467 123.466 98.0467 124.053 98.06C124.48 98.0733 124.8 98.3 125.013 98.74C125.226 99.1933 125.26 99.62 125.113 100.02C125.073 100.113 125.046 100.18 125.033 100.22C124.7 100.7 123.973 100.96 122.853 101C121.626 101.04 119.833 100.993 117.473 100.86C116.566 100.807 116.113 100.427 116.113 99.72C116.113 99.4533 116.2 99.16 116.373 98.84C116.626 98.3867 117.22 98.16 118.153 98.16C118.353 98.16 118.573 98.1667 118.813 98.18C118.866 97.7933 118.9 96.4733 118.913 94.22C118.926 91.8333 118.866 88.8133 118.733 85.16C117.946 86.24 117.146 86.78 116.333 86.78C115.986 86.78 115.66 86.6467 115.353 86.38C115.046 86.1133 114.893 85.8067 114.893 85.46C114.893 85.1267 115.033 84.7733 115.313 84.4ZM133.28 81C134.347 80.9733 135.133 81 135.64 81.08C136.547 81.2267 137 81.6467 137 82.34C137 82.9667 136.867 83.4267 136.6 83.72C136.333 84.0133 135.873 84.24 135.22 84.4C134.633 84.5467 133.753 84.66 132.58 84.74C131.407 84.82 130.58 84.92 130.1 85.04C130.007 87.0533 129.96 88.3267 129.96 88.86C131.04 88.4867 132.54 88.1867 134.46 87.96C134.793 87.92 135.153 87.9 135.54 87.9C137.34 87.9 138.887 88.5 140.18 89.7C141.193 90.9667 141.64 92.4267 141.52 94.08C141.387 95.8533 140.687 97.3933 139.42 98.7C138.167 100.007 136.653 100.773 134.88 101C134.253 101.08 133.66 101.12 133.1 101.12C132.06 101.12 131.193 100.973 130.5 100.68C129.473 100.24 128.793 99.82 128.46 99.42C128.327 99.22 128.26 98.98 128.26 98.7C128.26 98.46 128.313 98.1867 128.42 97.88C128.66 97.2133 129.053 96.8533 129.6 96.8C130.12 96.76 130.707 96.78 131.36 96.86C131.84 96.9267 132.78 96.8867 134.18 96.74C135.46 96.6067 136.467 96.1733 137.2 95.44C137.707 94.9333 137.96 94.4333 137.96 93.94C137.96 93.7267 137.9 93.5 137.78 93.26C137.42 92.5267 137.033 92.0867 136.62 91.94C136.273 91.8067 135.68 91.7533 134.84 91.78C134.04 91.8067 133.1 91.9133 132.02 92.1L129.22 92.68C128.9 92.7467 128.587 92.78 128.28 92.78C127.52 92.78 127.06 92.4933 126.9 91.92C126.687 91.16 126.567 90.5267 126.54 90.02C126.5 89.46 126.473 88.6467 126.46 87.58C126.447 86.9533 126.467 85.9267 126.52 84.5C126.547 83.62 126.66 82.6667 126.86 81.64C127.407 81.5067 127.787 81.44 128 81.44L130.06 81.2C130.94 81.0933 132.013 81.0267 133.28 81ZM154.143 85.7C153.33 85.5267 152.603 85.44 151.963 85.44C149.523 85.44 147.89 86.58 147.063 88.86C146.863 89.4067 146.763 90.0333 146.763 90.74C146.763 91.6333 146.943 92.6467 147.303 93.78C147.85 95.4867 149.083 96.34 151.003 96.34C151.256 96.34 151.63 96.32 152.123 96.28C152.63 96.2267 153.01 96.2 153.263 96.2C154.916 96.2 155.963 96.6533 156.403 97.56C156.523 97.8 156.583 98.06 156.583 98.34C156.583 99.1267 155.91 99.82 154.563 100.42C153.11 100.793 152.076 100.987 151.463 101C150.023 101.04 148.503 100.727 146.903 100.06C144.716 99.1533 143.416 96.78 143.003 92.94C142.923 92.1667 142.883 91.4 142.883 90.64C142.883 89.6533 142.95 88.66 143.083 87.66C143.323 85.9133 143.783 84.64 144.463 83.84C145.29 82.88 146.163 82.1933 147.083 81.78C147.843 81.4467 148.943 81.1867 150.383 81C151.09 80.9067 151.723 80.86 152.283 80.86C153.11 80.86 153.803 80.9533 154.363 81.14C155.87 81.46 156.69 82.4067 156.823 83.98C156.93 85.2067 156.376 85.82 155.163 85.82C154.856 85.82 154.516 85.78 154.143 85.7ZM158.68 87.36C158.893 84.7867 160.06 82.9467 162.18 81.84C163.26 81.28 164.367 81 165.5 81C165.847 81 166.18 81.02 166.5 81.06C167.993 81.2467 169.087 81.6133 169.78 82.16C171.5 83.52 172.313 85.6133 172.22 88.44C172.18 89.7733 171.813 91.1533 171.12 92.58C170.387 94.0867 169.493 95.2 168.44 95.92C167.88 96.3067 166.887 96.88 165.46 97.64C165.86 97.5067 166.413 97.46 167.12 97.5C168.373 97.5533 169.113 97.6267 169.34 97.72C169.887 97.9467 170.213 98.5333 170.32 99.48C170.427 100.44 169.707 100.947 168.16 101C166.947 101.04 165.587 101.033 164.08 100.98C161.853 100.887 160.627 100.68 160.4 100.36C160.107 99.9333 159.96 99.4133 159.96 98.8C159.96 98.6267 159.973 98.44 160 98.24C160.12 97.3467 160.48 96.64 161.08 96.12C161.453 95.8 162.173 95.4067 163.24 94.94C165.867 93.78 167.353 92.32 167.7 90.56C167.887 89.6533 167.953 88.5533 167.9 87.26C167.833 85.3267 166.953 84.36 165.26 84.36C164.993 84.36 164.747 84.38 164.52 84.42C163.24 84.6467 162.56 85.88 162.48 88.12C162.467 88.7067 162.467 89.0467 162.48 89.14C162.48 89.5667 162.353 89.9467 162.1 90.28C161.82 90.6533 161.473 90.8467 161.06 90.86C160.553 90.8733 160.147 90.78 159.84 90.58C158.933 89.9933 158.547 88.92 158.68 87.36ZM177.887 89.3C177.887 89.3 177.887 90.1333 177.887 91.8V92.14C178.367 92.2067 178.753 92.2533 179.047 92.28C179.86 92.3467 180.367 92.3467 180.567 92.28C180.647 90.68 180.62 88.48 180.487 85.68C180.353 82.9867 180.92 81.5667 182.187 81.42C183.467 81.26 184.127 82.1133 184.167 83.98C184.18 84.7 184.12 86.0733 183.987 88.1C183.867 89.86 183.86 91.2267 183.967 92.2C184.593 92.2267 185.4 92.2133 186.387 92.16C187.2 92.12 188.033 92.1467 188.887 92.24C189.447 92.3067 189.727 92.68 189.727 93.36C189.727 93.6133 189.693 93.8933 189.627 94.2C189.44 95.0533 188.96 95.58 188.187 95.78C187.787 95.8867 187.047 95.9067 185.967 95.84C185.02 95.7733 184.4 95.84 184.107 96.04C183.827 96.2267 183.687 96.8133 183.687 97.8C183.687 98.1867 183.693 98.4933 183.707 98.72C183.747 99.3867 183.693 99.9 183.547 100.26C183.333 100.78 182.927 101.027 182.327 101C181.367 100.96 180.867 100.527 180.827 99.7L180.647 96.12C179.687 96.2267 178.493 96.2067 177.067 96.06C176.107 95.9667 175.413 95.7667 174.987 95.46C174.453 95.0867 174.147 94.4733 174.067 93.62L174.087 91.02C174.1 89.1667 174.033 87.1533 173.887 84.98C173.86 84.58 173.847 84.2133 173.847 83.88C173.847 82.6133 174.033 81.8267 174.407 81.52C174.873 81.1333 175.4 80.96 175.987 81C176.92 81.0667 177.52 81.64 177.787 82.72C177.92 83.2267 177.987 84.14 177.987 85.46C177.987 86.9267 177.953 88.2067 177.887 89.3ZM198.727 81C201.247 81.2267 202.987 83.2933 203.947 87.2C204.16 88.0533 204.42 89.5867 204.727 91.8C204.967 93.52 205.087 95.0933 205.087 96.52C205.087 97.4933 204.96 98.3867 204.707 99.2C204.347 100.4 203.787 101 203.027 101C202.333 101 201.82 100.847 201.487 100.54C201.153 100.233 200.94 99.7267 200.847 99.02C200.753 98.3267 200.693 97.2 200.667 95.64C200.64 94.16 200.56 93.02 200.427 92.22C200.107 90.2333 199.593 89.2267 198.887 89.2C198.153 89.1733 197.587 89.2267 197.187 89.36C196.387 89.6267 195.893 90.2933 195.707 91.36C195.613 91.88 195.6 92.7733 195.667 94.04C195.76 95.9867 195.853 97.34 195.947 98.1C195.973 98.3133 195.987 98.4933 195.987 98.64C195.987 100.24 195.327 101.04 194.007 101.04C193.873 101.04 193.7 101.027 193.487 101C192.42 100.867 191.72 100.26 191.387 99.18C191.173 98.5 191.107 97.5 191.187 96.18C191.307 94.1133 191.38 92.88 191.407 92.48C191.473 91.5067 191.72 89.94 192.147 87.78C192.52 85.9 192.893 84.4867 193.267 83.54C193.627 82.6467 194.26 81.98 195.167 81.54C195.953 81.1533 196.873 80.96 197.927 80.96C198.167 80.96 198.433 80.9733 198.727 81ZM199.687 85.62C199.713 85.5267 199.727 85.4267 199.727 85.32C199.727 84.44 199.167 83.96 198.047 83.88C197.327 83.8267 196.747 84.0267 196.307 84.48C196.013 84.7733 195.867 85.06 195.867 85.34C195.867 85.4733 195.913 85.62 196.007 85.78C196.22 86.14 196.533 86.36 196.947 86.44C197.08 86.4667 197.48 86.48 198.147 86.48C198.973 86.48 199.487 86.1933 199.687 85.62ZM219.868 83.14C220.295 83.6467 220.508 84.4667 220.508 85.6C220.508 86.1867 220.448 86.8533 220.328 87.6L219.908 93.46C219.735 95.8467 219.282 97.5667 218.548 98.62C217.548 100.073 215.855 100.747 213.468 100.64C209.642 100.48 207.542 98.9533 207.168 96.06C207.102 95.5533 207.068 95.1133 207.068 94.74C207.068 92.6333 207.882 91.2533 209.508 90.6C210.108 90.36 210.715 90.24 211.328 90.24C212.782 90.24 214.342 90.88 216.008 92.16C215.822 89.1733 215.728 86.96 215.728 85.52C215.728 84.4667 215.782 83.7867 215.888 83.48C216.128 82.8 216.688 82.3733 217.568 82.2C217.715 82.1733 217.868 82.16 218.028 82.16C218.695 82.16 219.308 82.4867 219.868 83.14ZM211.808 96.56C212.182 96.8667 212.555 97.02 212.928 97.02C213.368 97.02 213.822 96.8 214.288 96.36C214.662 96 214.848 95.66 214.848 95.34C214.848 94.9267 214.555 94.5333 213.968 94.16C213.502 93.8667 213.062 93.72 212.648 93.72C212.182 93.72 211.782 93.9333 211.448 94.36C211.195 94.68 211.068 95 211.068 95.32C211.068 95.7467 211.315 96.16 211.808 96.56ZM234.521 85.78C234.588 86.3667 234.621 86.8133 234.621 87.12C234.621 87.84 234.495 88.5333 234.241 89.2C233.908 90.0667 233.441 90.5467 232.841 90.64C233.735 91.0933 234.328 92.2933 234.621 94.24C234.728 94.9467 234.781 95.5733 234.781 96.12C234.781 97.5467 234.448 98.64 233.781 99.4C232.861 100.44 231.661 100.973 230.181 101C228.435 101.027 227.121 100.973 226.241 100.84C224.428 100.547 223.455 99.9067 223.321 98.92C223.281 98.6267 223.261 98.3667 223.261 98.14C223.261 96.9933 223.668 96.42 224.481 96.42C224.588 96.42 224.701 96.4333 224.821 96.46C226.021 96.5933 226.981 96.6667 227.701 96.68C228.488 96.7067 229.055 96.6933 229.401 96.64C230.188 96.52 230.648 96.24 230.781 95.8C230.995 95.0933 231.101 94.5733 231.101 94.24C231.101 93.0933 230.308 92.4267 228.721 92.24C227.721 92.2 226.721 92.16 225.721 92.12C224.495 91.9733 223.748 91.5 223.481 90.7C223.388 90.42 223.341 90.1667 223.341 89.94C223.341 89.4467 223.575 89.06 224.041 88.78C224.428 88.54 224.888 88.42 225.421 88.42C225.608 88.42 225.828 88.4467 226.081 88.5C226.828 88.66 227.715 88.6667 228.741 88.52C229.741 88.3733 230.281 88.06 230.361 87.58C230.388 87.3933 230.401 87.22 230.401 87.06C230.401 86.3667 230.128 85.8067 229.581 85.38C229.101 85.1 228.681 84.9267 228.321 84.86C227.895 84.7933 227.068 84.7933 225.841 84.86C224.748 84.9267 223.981 84.8933 223.541 84.76C222.728 84.52 222.328 83.9733 222.341 83.12C222.355 82.2267 222.955 81.62 224.141 81.3C224.755 81.14 225.708 81.04 227.001 81C228.521 80.96 229.641 80.9867 230.361 81.08C231.695 81.2667 232.701 81.7667 233.381 82.58C233.981 83.3133 234.361 84.38 234.521 85.78ZM243.28 81C244.347 80.9733 245.133 81 245.64 81.08C246.547 81.2267 247 81.6467 247 82.34C247 82.9667 246.867 83.4267 246.6 83.72C246.333 84.0133 245.873 84.24 245.22 84.4C244.633 84.5467 243.753 84.66 242.58 84.74C241.407 84.82 240.58 84.92 240.1 85.04C240.007 87.0533 239.96 88.3267 239.96 88.86C241.04 88.4867 242.54 88.1867 244.46 87.96C244.793 87.92 245.153 87.9 245.54 87.9C247.34 87.9 248.887 88.5 250.18 89.7C251.193 90.9667 251.64 92.4267 251.52 94.08C251.387 95.8533 250.687 97.3933 249.42 98.7C248.167 100.007 246.653 100.773 244.88 101C244.253 101.08 243.66 101.12 243.1 101.12C242.06 101.12 241.193 100.973 240.5 100.68C239.473 100.24 238.793 99.82 238.46 99.42C238.327 99.22 238.26 98.98 238.26 98.7C238.26 98.46 238.313 98.1867 238.42 97.88C238.66 97.2133 239.053 96.8533 239.6 96.8C240.12 96.76 240.707 96.78 241.36 96.86C241.84 96.9267 242.78 96.8867 244.18 96.74C245.46 96.6067 246.467 96.1733 247.2 95.44C247.707 94.9333 247.96 94.4333 247.96 93.94C247.96 93.7267 247.9 93.5 247.78 93.26C247.42 92.5267 247.033 92.0867 246.62 91.94C246.273 91.8067 245.68 91.7533 244.84 91.78C244.04 91.8067 243.1 91.9133 242.02 92.1L239.22 92.68C238.9 92.7467 238.587 92.78 238.28 92.78C237.52 92.78 237.06 92.4933 236.9 91.92C236.687 91.16 236.567 90.5267 236.54 90.02C236.5 89.46 236.473 88.6467 236.46 87.58C236.447 86.9533 236.467 85.9267 236.52 84.5C236.547 83.62 236.66 82.6667 236.86 81.64C237.407 81.5067 237.787 81.44 238 81.44L240.06 81.2C240.94 81.0933 242.013 81.0267 243.28 81ZM262.423 82.54C263.17 83.38 263.503 84.3467 263.423 85.44C263.276 87.52 262.476 88.9 261.023 89.58C261.25 89.7133 261.39 89.8 261.443 89.84C262.643 90.5867 263.436 91.2467 263.823 91.82C264.116 92.2467 264.336 92.62 264.483 92.94C264.883 93.7933 265.05 94.5933 264.983 95.34C264.903 95.9667 264.85 96.3867 264.823 96.6C264.73 97.2267 264.57 97.74 264.343 98.14C263.783 99.1267 263.15 99.86 262.443 100.34C261.736 100.82 260.763 101.04 259.523 101C259.123 100.987 258.81 100.967 258.583 100.94C257.61 100.82 256.603 100.487 255.563 99.94C254.696 99.4867 254.03 98.9133 253.563 98.22C253.483 98.1 253.423 98.0133 253.383 97.96C252.97 97.2667 252.75 96.6133 252.723 96C252.696 95.5067 252.716 95.0133 252.783 94.52C252.796 94.0267 252.91 93.52 253.123 93C253.123 92.9733 253.13 92.9533 253.143 92.94C253.396 92.4333 253.636 91.9333 253.863 91.44C254.143 90.9333 254.523 90.5 255.003 90.14C255.23 89.9667 255.723 89.6667 256.483 89.24C254.816 88.5867 253.896 87.32 253.723 85.44C253.67 84.7867 253.716 84.1667 253.863 83.58C254.13 82.54 254.916 81.8067 256.223 81.38C257.156 81.0733 258.01 80.92 258.783 80.92C260.25 80.92 261.463 81.46 262.423 82.54ZM259.663 85.7C259.703 85.58 259.723 85.4867 259.723 85.42C259.67 84.7133 259.356 84.2667 258.783 84.08C258.503 83.9867 258.276 83.94 258.103 83.94C257.57 83.94 257.256 84.24 257.163 84.84C257.136 85 257.123 85.1933 257.123 85.42C257.123 86.3 257.59 86.74 258.523 86.74C259.07 86.6333 259.45 86.2867 259.663 85.7ZM258.963 92.18C258.323 92.18 257.796 92.42 257.383 92.9C256.983 93.3667 256.783 93.9267 256.783 94.58C256.783 95.5933 257.17 96.3733 257.943 96.92C258.29 97.16 258.656 97.28 259.043 97.28C259.323 97.28 259.63 97.2067 259.963 97.06C260.71 96.74 261.07 95.9 261.043 94.54C261.016 93.1933 260.53 92.4267 259.583 92.24C259.37 92.2 259.163 92.18 258.963 92.18ZM278.234 86.54C278.247 86.6467 278.254 86.78 278.254 86.94C278.254 87.7667 277.874 88.18 277.114 88.18C276.807 88.18 276.407 88.1 275.914 87.94C274.94 87.62 274.08 87.46 273.334 87.46C271.614 87.46 270.447 88.3467 269.834 90.12C269.66 90.6133 269.574 91.1467 269.574 91.72C269.574 92.4933 269.727 93.3733 270.034 94.36C270.42 95.6133 271.234 96.24 272.474 96.24C272.834 96.24 273.354 96.16 274.034 96C274.727 95.8267 275.254 95.74 275.614 95.74C276.734 95.74 277.474 96.2 277.834 97.12C277.954 97.4267 278.014 97.74 278.014 98.06C278.014 98.9 277.447 99.58 276.314 100.1C275.06 100.42 274.167 100.587 273.634 100.6C272.434 100.64 271.12 100.367 269.694 99.78C267.667 98.94 266.567 96.8133 266.394 93.4C266.327 92.08 266.367 90.6533 266.514 89.12C266.714 87.1733 267.04 85.8133 267.494 85.04C268.28 83.7067 269.994 83.0733 272.634 83.14C276.1 83.22 277.967 84.3533 278.234 86.54ZM292.431 85.78C292.498 86.3667 292.531 86.8133 292.531 87.12C292.531 87.84 292.405 88.5333 292.151 89.2C291.818 90.0667 291.351 90.5467 290.751 90.64C291.645 91.0933 292.238 92.2933 292.531 94.24C292.638 94.9467 292.691 95.5733 292.691 96.12C292.691 97.5467 292.358 98.64 291.691 99.4C290.771 100.44 289.571 100.973 288.091 101C286.345 101.027 285.031 100.973 284.151 100.84C282.338 100.547 281.365 99.9067 281.231 98.92C281.191 98.6267 281.171 98.3667 281.171 98.14C281.171 96.9933 281.578 96.42 282.391 96.42C282.498 96.42 282.611 96.4333 282.731 96.46C283.931 96.5933 284.891 96.6667 285.611 96.68C286.398 96.7067 286.965 96.6933 287.311 96.64C288.098 96.52 288.558 96.24 288.691 95.8C288.905 95.0933 289.011 94.5733 289.011 94.24C289.011 93.0933 288.218 92.4267 286.631 92.24C285.631 92.2 284.631 92.16 283.631 92.12C282.405 91.9733 281.658 91.5 281.391 90.7C281.298 90.42 281.251 90.1667 281.251 89.94C281.251 89.4467 281.485 89.06 281.951 88.78C282.338 88.54 282.798 88.42 283.331 88.42C283.518 88.42 283.738 88.4467 283.991 88.5C284.738 88.66 285.625 88.6667 286.651 88.52C287.651 88.3733 288.191 88.06 288.271 87.58C288.298 87.3933 288.311 87.22 288.311 87.06C288.311 86.3667 288.038 85.8067 287.491 85.38C287.011 85.1 286.591 84.9267 286.231 84.86C285.805 84.7933 284.978 84.7933 283.751 84.86C282.658 84.9267 281.891 84.8933 281.451 84.76C280.638 84.52 280.238 83.9733 280.251 83.12C280.265 82.2267 280.865 81.62 282.051 81.3C282.665 81.14 283.618 81.04 284.911 81C286.431 80.96 287.551 80.9867 288.271 81.08C289.605 81.2667 290.611 81.7667 291.291 82.58C291.891 83.3133 292.271 84.38 292.431 85.78ZM298.93 83.46C299.317 83.2867 299.83 83.2067 300.47 83.22H301.83C302.377 83.22 303.024 83.42 303.77 83.82C304.53 84.2067 305.05 84.6333 305.33 85.1C305.73 85.74 305.977 86.3533 306.07 86.94C306.177 87.6067 306.104 89.2467 305.85 91.86C305.77 92.6733 305.73 93.4067 305.73 94.06C305.73 95.42 305.897 96.3667 306.23 96.9C306.617 97.5133 306.81 98.04 306.81 98.48C306.81 98.68 306.777 98.8333 306.71 98.94C306.39 99.46 305.924 99.72 305.31 99.72C305.164 99.72 305.01 99.7067 304.85 99.68C304.29 99.5867 303.804 99.06 303.39 98.1L303.19 98.5C302.724 99.1533 301.964 99.66 300.91 100.02C299.99 100.34 299.07 100.473 298.15 100.42C297.31 100.38 296.624 100.173 296.09 99.8C294.53 98.72 293.75 97.2533 293.75 95.4C293.75 94.16 294.184 93.12 295.05 92.28C295.917 91.44 296.977 90.9733 298.23 90.88C298.417 90.8667 298.657 90.86 298.95 90.86C300.19 90.86 301.224 91.1067 302.05 91.6C302.277 91.7733 302.464 91.9133 302.61 92.02C302.65 91.7533 302.67 91.6067 302.67 91.58C302.75 91.1 302.79 90.68 302.79 90.32C302.79 89.7467 302.69 89.2733 302.49 88.9C302.157 88.2733 301.757 87.9133 301.29 87.82C300.837 87.7267 300.237 87.76 299.49 87.92C299.37 87.9467 299.224 87.96 299.05 87.96C298.504 87.96 297.99 87.7533 297.51 87.34C297.03 86.9267 296.79 86.4467 296.79 85.9C296.79 85.74 296.824 85.5467 296.89 85.32C297.13 84.5467 297.484 84.0667 297.95 83.88C298.07 83.84 298.164 83.8 298.23 83.76C298.55 83.6133 298.784 83.5133 298.93 83.46ZM298.35 97.3C298.804 97.3 299.217 97.18 299.59 96.94C300.017 96.6733 300.23 96.3267 300.23 95.9C300.23 95.74 300.19 95.5467 300.11 95.32C299.87 94.64 299.43 94.3 298.79 94.3C297.697 94.3 297.11 94.7267 297.03 95.58C296.95 96.3267 297.144 96.8333 297.61 97.1C297.837 97.2333 298.084 97.3 298.35 97.3ZM313.375 89.3C313.375 89.3 313.375 90.1333 313.375 91.8V92.14C313.855 92.2067 314.242 92.2533 314.535 92.28C315.348 92.3467 315.855 92.3467 316.055 92.28C316.135 90.68 316.108 88.48 315.975 85.68C315.842 82.9867 316.408 81.5667 317.675 81.42C318.955 81.26 319.615 82.1133 319.655 83.98C319.668 84.7 319.608 86.0733 319.475 88.1C319.355 89.86 319.348 91.2267 319.455 92.2C320.082 92.2267 320.888 92.2133 321.875 92.16C322.688 92.12 323.522 92.1467 324.375 92.24C324.935 92.3067 325.215 92.68 325.215 93.36C325.215 93.6133 325.182 93.8933 325.115 94.2C324.928 95.0533 324.448 95.58 323.675 95.78C323.275 95.8867 322.535 95.9067 321.455 95.84C320.508 95.7733 319.888 95.84 319.595 96.04C319.315 96.2267 319.175 96.8133 319.175 97.8C319.175 98.1867 319.182 98.4933 319.195 98.72C319.235 99.3867 319.182 99.9 319.035 100.26C318.822 100.78 318.415 101.027 317.815 101C316.855 100.96 316.355 100.527 316.315 99.7L316.135 96.12C315.175 96.2267 313.982 96.2067 312.555 96.06C311.595 95.9667 310.902 95.7667 310.475 95.46C309.942 95.0867 309.635 94.4733 309.555 93.62L309.575 91.02C309.588 89.1667 309.522 87.1533 309.375 84.98C309.348 84.58 309.335 84.2133 309.335 83.88C309.335 82.6133 309.522 81.8267 309.895 81.52C310.362 81.1333 310.888 80.96 311.475 81C312.408 81.0667 313.008 81.64 313.275 82.72C313.408 83.2267 313.475 84.14 313.475 85.46C313.475 86.9267 313.442 88.2067 313.375 89.3ZM342.415 91.68C342.415 93.1333 342.195 94.5667 341.755 95.98C341.595 96.5 341.142 97.22 340.395 98.14C339.408 99.34 337.982 100.207 336.115 100.74C335.555 100.9 334.942 100.987 334.275 101C332.475 101.04 331.048 100.827 329.995 100.36C328.528 99.72 327.515 96.6933 326.955 91.28C326.728 89.16 326.642 87.62 326.695 86.66C326.775 84.9533 326.962 83.8067 327.255 83.22C327.722 82.2733 328.655 81.6267 330.055 81.28C331.148 81.0133 332.155 80.88 333.075 80.88C333.542 80.88 334.002 80.92 334.455 81C335.655 81.2133 336.722 81.5533 337.655 82.02C338.602 82.4867 339.348 83.06 339.895 83.74C340.308 84.2467 340.775 85.0867 341.295 86.26C341.322 86.34 341.362 86.4133 341.415 86.48C342.082 88.1067 342.415 89.84 342.415 91.68ZM333.995 86.14C333.555 86.0467 333.142 86 332.755 86C332.328 86 331.968 86.0667 331.675 86.2C331.102 86.4667 330.735 87.42 330.575 89.06C330.482 90.1667 330.482 91.2733 330.575 92.38C330.682 93.6067 330.802 94.4867 330.935 95.02C331.082 95.54 331.428 95.9467 331.975 96.24C332.455 96.4933 332.995 96.62 333.595 96.62C334.035 96.62 334.502 96.5467 334.995 96.4C336.048 96.08 336.822 95.5267 337.315 94.74C337.728 94.0733 337.982 93.14 338.075 91.94C338.168 90.74 337.802 89.54 336.975 88.34C336.148 87.1267 335.155 86.3933 333.995 86.14ZM346.213 82.96C347.146 81.72 348.253 81.0667 349.533 81C351.173 80.9067 352.433 81.2267 353.313 81.96C354.033 82.56 354.726 83.7067 355.393 85.4C355.953 86.8267 356.233 88.58 356.233 90.66C356.233 91.66 356.173 92.7067 356.053 93.8C355.666 97.32 354.759 99.4533 353.333 100.2C352.306 100.733 351.339 101 350.433 101C350.073 101 349.733 100.96 349.413 100.88C347.906 100.493 346.766 99.6133 345.993 98.24C345.393 97.1733 344.979 95.74 344.753 93.94C344.566 92.4867 344.473 91.0867 344.473 89.74C344.473 86.7533 345.053 84.4933 346.213 82.96ZM347.713 90.3C347.819 94.94 348.679 97.3133 350.293 97.42C351.226 97.4867 351.906 96.8933 352.333 95.64C352.639 94.7733 352.793 93.7867 352.793 92.68C352.793 91.6 352.673 90.3133 352.433 88.82C352.113 86.9133 351.686 85.76 351.153 85.36C350.819 85.1067 350.213 85.0267 349.333 85.12C348.186 85.6667 347.646 87.3933 347.713 90.3ZM365.543 81C368.063 81.2267 369.803 83.2933 370.763 87.2C370.976 88.0533 371.236 89.5867 371.543 91.8C371.783 93.52 371.903 95.0933 371.903 96.52C371.903 97.4933 371.776 98.3867 371.523 99.2C371.163 100.4 370.603 101 369.843 101C369.15 101 368.636 100.847 368.303 100.54C367.97 100.233 367.756 99.7267 367.663 99.02C367.57 98.3267 367.51 97.2 367.483 95.64C367.456 94.16 367.376 93.02 367.243 92.22C366.923 90.2333 366.41 89.2267 365.703 89.2C364.97 89.1733 364.403 89.2267 364.003 89.36C363.203 89.6267 362.71 90.2933 362.523 91.36C362.43 91.88 362.416 92.7733 362.483 94.04C362.576 95.9867 362.67 97.34 362.763 98.1C362.79 98.3133 362.803 98.4933 362.803 98.64C362.803 100.24 362.143 101.04 360.823 101.04C360.69 101.04 360.516 101.027 360.303 101C359.236 100.867 358.536 100.26 358.203 99.18C357.99 98.5 357.923 97.5 358.003 96.18C358.123 94.1133 358.196 92.88 358.223 92.48C358.29 91.5067 358.536 89.94 358.963 87.78C359.336 85.9 359.71 84.4867 360.083 83.54C360.443 82.6467 361.076 81.98 361.983 81.54C362.77 81.1533 363.69 80.96 364.743 80.96C364.983 80.96 365.25 80.9733 365.543 81ZM366.503 85.62C366.53 85.5267 366.543 85.4267 366.543 85.32C366.543 84.44 365.983 83.96 364.863 83.88C364.143 83.8267 363.563 84.0267 363.123 84.48C362.83 84.7733 362.683 85.06 362.683 85.34C362.683 85.4733 362.73 85.62 362.823 85.78C363.036 86.14 363.35 86.36 363.763 86.44C363.896 86.4667 364.296 86.48 364.963 86.48C365.79 86.48 366.303 86.1933 366.503 85.62ZM383.185 82.54C383.931 83.38 384.265 84.3467 384.185 85.44C384.038 87.52 383.238 88.9 381.785 89.58C382.011 89.7133 382.151 89.8 382.205 89.84C383.405 90.5867 384.198 91.2467 384.585 91.82C384.878 92.2467 385.098 92.62 385.245 92.94C385.645 93.7933 385.811 94.5933 385.745 95.34C385.665 95.9667 385.611 96.3867 385.585 96.6C385.491 97.2267 385.331 97.74 385.105 98.14C384.545 99.1267 383.911 99.86 383.205 100.34C382.498 100.82 381.525 101.04 380.285 101C379.885 100.987 379.571 100.967 379.345 100.94C378.371 100.82 377.365 100.487 376.325 99.94C375.458 99.4867 374.791 98.9133 374.325 98.22C374.245 98.1 374.185 98.0133 374.145 97.96C373.731 97.2667 373.511 96.6133 373.485 96C373.458 95.5067 373.478 95.0133 373.545 94.52C373.558 94.0267 373.671 93.52 373.885 93C373.885 92.9733 373.891 92.9533 373.905 92.94C374.158 92.4333 374.398 91.9333 374.625 91.44C374.905 90.9333 375.285 90.5 375.765 90.14C375.991 89.9667 376.485 89.6667 377.245 89.24C375.578 88.5867 374.658 87.32 374.485 85.44C374.431 84.7867 374.478 84.1667 374.625 83.58C374.891 82.54 375.678 81.8067 376.985 81.38C377.918 81.0733 378.771 80.92 379.545 80.92C381.011 80.92 382.225 81.46 383.185 82.54ZM380.425 85.7C380.465 85.58 380.485 85.4867 380.485 85.42C380.431 84.7133 380.118 84.2667 379.545 84.08C379.265 83.9867 379.038 83.94 378.865 83.94C378.331 83.94 378.018 84.24 377.925 84.84C377.898 85 377.885 85.1933 377.885 85.42C377.885 86.3 378.351 86.74 379.285 86.74C379.831 86.6333 380.211 86.2867 380.425 85.7ZM379.725 92.18C379.085 92.18 378.558 92.42 378.145 92.9C377.745 93.3667 377.545 93.9267 377.545 94.58C377.545 95.5933 377.931 96.3733 378.705 96.92C379.051 97.16 379.418 97.28 379.805 97.28C380.085 97.28 380.391 97.2067 380.725 97.06C381.471 96.74 381.831 95.9 381.805 94.54C381.778 93.1933 381.291 92.4267 380.345 92.24C380.131 92.2 379.925 92.18 379.725 92.18ZM393.435 81C394.342 80.9867 395.242 81.0533 396.135 81.2C398.362 81.56 399.629 82.7667 399.935 84.82C399.975 85.0867 399.995 85.3133 399.995 85.5C399.995 86.4733 399.689 87.4267 399.075 88.36C398.329 89.4933 396.742 90.1933 394.315 90.46C396.515 90.8067 397.955 91.18 398.635 91.58C400.102 92.46 400.855 93.86 400.895 95.78C400.909 96.74 400.849 97.4533 400.715 97.92C400.369 99.12 399.555 99.9333 398.275 100.36C396.809 100.853 395.422 101.1 394.115 101.1C393.622 101.1 393.142 101.067 392.675 101C391.702 100.853 390.969 100.653 390.475 100.4C389.102 99.6933 388.269 98.2933 387.975 96.2C387.602 93.5067 387.415 90.88 387.415 88.32C387.415 87.3733 387.442 86.44 387.495 85.52C387.615 83.2933 388.689 81.9133 390.715 81.38C391.622 81.14 392.529 81.0133 393.435 81ZM390.855 85.8C390.895 86.8133 391.435 87.32 392.475 87.32C392.635 87.32 392.842 87.3 393.095 87.26C394.589 87.0333 395.282 86.4133 395.175 85.4C395.082 84.4 394.322 83.92 392.895 83.96C391.495 84 390.815 84.6133 390.855 85.8ZM392.275 94.02C391.515 94.34 391.155 94.8733 391.195 95.62C391.235 96.3667 391.695 96.8867 392.575 97.18C393.095 97.3533 393.595 97.44 394.075 97.44C395.235 97.44 395.935 97.0533 396.175 96.28C396.242 96.0667 396.275 95.8667 396.275 95.68C396.275 94.8533 395.669 94.26 394.455 93.9C394.135 93.8067 393.815 93.76 393.495 93.76C393.095 93.76 392.689 93.8467 392.275 94.02ZM406.997 83.46C407.383 83.2867 407.897 83.2067 408.537 83.22H409.897C410.443 83.22 411.09 83.42 411.837 83.82C412.597 84.2067 413.117 84.6333 413.397 85.1C413.797 85.74 414.043 86.3533 414.137 86.94C414.243 87.6067 414.17 89.2467 413.917 91.86C413.837 92.6733 413.797 93.4067 413.797 94.06C413.797 95.42 413.963 96.3667 414.297 96.9C414.683 97.5133 414.877 98.04 414.877 98.48C414.877 98.68 414.843 98.8333 414.777 98.94C414.457 99.46 413.99 99.72 413.377 99.72C413.23 99.72 413.077 99.7067 412.917 99.68C412.357 99.5867 411.87 99.06 411.457 98.1L411.257 98.5C410.79 99.1533 410.03 99.66 408.977 100.02C408.057 100.34 407.137 100.473 406.217 100.42C405.377 100.38 404.69 100.173 404.157 99.8C402.597 98.72 401.817 97.2533 401.817 95.4C401.817 94.16 402.25 93.12 403.117 92.28C403.983 91.44 405.043 90.9733 406.297 90.88C406.483 90.8667 406.723 90.86 407.017 90.86C408.257 90.86 409.29 91.1067 410.117 91.6C410.343 91.7733 410.53 91.9133 410.677 92.02C410.717 91.7533 410.737 91.6067 410.737 91.58C410.817 91.1 410.857 90.68 410.857 90.32C410.857 89.7467 410.757 89.2733 410.557 88.9C410.223 88.2733 409.823 87.9133 409.357 87.82C408.903 87.7267 408.303 87.76 407.557 87.92C407.437 87.9467 407.29 87.96 407.117 87.96C406.57 87.96 406.057 87.7533 405.577 87.34C405.097 86.9267 404.857 86.4467 404.857 85.9C404.857 85.74 404.89 85.5467 404.957 85.32C405.197 84.5467 405.55 84.0667 406.017 83.88C406.137 83.84 406.23 83.8 406.297 83.76C406.617 83.6133 406.85 83.5133 406.997 83.46ZM406.417 97.3C406.87 97.3 407.283 97.18 407.657 96.94C408.083 96.6733 408.297 96.3267 408.297 95.9C408.297 95.74 408.257 95.5467 408.177 95.32C407.937 94.64 407.497 94.3 406.857 94.3C405.763 94.3 405.177 94.7267 405.097 95.58C405.017 96.3267 405.21 96.8333 405.677 97.1C405.903 97.2333 406.15 97.3 406.417 97.3ZM421.441 89.3C421.441 89.3 421.441 90.1333 421.441 91.8V92.14C421.921 92.2067 422.308 92.2533 422.601 92.28C423.415 92.3467 423.921 92.3467 424.121 92.28C424.201 90.68 424.175 88.48 424.041 85.68C423.908 82.9867 424.475 81.5667 425.741 81.42C427.021 81.26 427.681 82.1133 427.721 83.98C427.735 84.7 427.675 86.0733 427.541 88.1C427.421 89.86 427.415 91.2267 427.521 92.2C428.148 92.2267 428.955 92.2133 429.941 92.16C430.755 92.12 431.588 92.1467 432.441 92.24C433.001 92.3067 433.281 92.68 433.281 93.36C433.281 93.6133 433.248 93.8933 433.181 94.2C432.995 95.0533 432.515 95.58 431.741 95.78C431.341 95.8867 430.601 95.9067 429.521 95.84C428.575 95.7733 427.955 95.84 427.661 96.04C427.381 96.2267 427.241 96.8133 427.241 97.8C427.241 98.1867 427.248 98.4933 427.261 98.72C427.301 99.3867 427.248 99.9 427.101 100.26C426.888 100.78 426.481 101.027 425.881 101C424.921 100.96 424.421 100.527 424.381 99.7L424.201 96.12C423.241 96.2267 422.048 96.2067 420.621 96.06C419.661 95.9667 418.968 95.7667 418.541 95.46C418.008 95.0867 417.701 94.4733 417.621 93.62L417.641 91.02C417.655 89.1667 417.588 87.1533 417.441 84.98C417.415 84.58 417.401 84.2133 417.401 83.88C417.401 82.6133 417.588 81.8267 417.961 81.52C418.428 81.1333 418.955 80.96 419.541 81C420.475 81.0667 421.075 81.64 421.341 82.72C421.475 83.2267 421.541 84.14 421.541 85.46C421.541 86.9267 421.508 88.2067 421.441 89.3ZM446.781 95.76C446.448 96.4267 445.788 96.7533 444.801 96.74C443.801 96.7267 442.688 96.66 441.461 96.54C441.528 97.2333 441.561 97.8267 441.561 98.32C441.561 98.9333 441.508 99.3867 441.401 99.68C441.121 100.24 440.835 100.587 440.541 100.72C440.261 100.853 439.801 100.873 439.161 100.78C438.135 100.633 437.668 99.3467 437.761 96.92C437.455 97.04 437.121 97.1 436.761 97.1C436.361 97.1 435.921 97.0267 435.441 96.88C434.548 96.6133 434.101 96.08 434.101 95.28C434.101 95.0667 434.148 94.84 434.241 94.6C434.388 94.0667 434.855 93.72 435.641 93.56C436.281 93.52 436.921 93.4733 437.561 93.42C437.428 92.0867 437.208 90.3133 436.901 88.1C436.848 87.7267 436.821 87.3 436.821 86.82C436.821 85.46 437.161 84.3667 437.841 83.54C438.735 82.4467 439.835 81.8533 441.141 81.76C442.235 81.68 443.021 81.7333 443.501 81.92C444.168 82.1867 444.635 82.78 444.901 83.7C444.968 83.94 445.001 84.1667 445.001 84.38C445.001 85.6067 444.101 86.2333 442.301 86.26C441.181 86.2733 440.668 87.16 440.761 88.92C440.855 90.5467 440.948 91.9533 441.041 93.14C442.001 92.8333 443.195 92.6867 444.621 92.7C446.021 92.7133 446.815 93.06 447.001 93.74C447.068 93.9933 447.101 94.2267 447.101 94.44C447.101 94.88 446.995 95.32 446.781 95.76ZM449.82 81.46C450.594 81.3 451.507 81.1867 452.56 81.12C453.147 81.08 454.067 81.04 455.32 81C456.52 80.96 457.94 81.0333 459.58 81.22C460.967 81.38 461.734 82.5667 461.88 84.78C462.014 86.78 462 88.88 461.84 91.08C461.68 93.4267 461.567 95.1867 461.5 96.36C461.274 99.2 460.92 100.733 460.44 100.96C460.134 101.107 459.8 101.18 459.44 101.18C459.107 101.18 458.714 101.12 458.26 101C457.354 100.76 456.894 100.36 456.88 99.8C456.854 98.8 456.967 97.44 457.22 95.72C457.514 93.64 457.68 92.2733 457.72 91.62C457.84 89.7 457.92 88.3133 457.96 87.46C458.014 86.3267 457.974 85.4133 457.84 84.72C456.814 84.5733 455.754 84.5267 454.66 84.58C453.674 84.6333 453.034 84.7667 452.74 84.98C452.367 85.2467 452.147 85.8333 452.08 86.74C452.04 87.5267 452.014 88.12 452 88.52C451.974 89.32 451.954 90.12 451.94 90.92C451.834 91.9333 451.534 92.6133 451.04 92.96C450.72 93.1867 450.42 93.3 450.14 93.3C449.927 93.3 449.72 93.2333 449.52 93.1C449 92.74 448.66 92.38 448.5 92.02C448.38 91.7533 448.307 91.24 448.28 90.48C448.227 89.2667 448.247 86.88 448.34 83.32C448.634 82.2133 449.127 81.5933 449.82 81.46ZM479.602 91.68C479.602 93.1333 479.382 94.5667 478.942 95.98C478.782 96.5 478.329 97.22 477.582 98.14C476.596 99.34 475.169 100.207 473.302 100.74C472.742 100.9 472.129 100.987 471.462 101C469.662 101.04 468.236 100.827 467.182 100.36C465.716 99.72 464.702 96.6933 464.142 91.28C463.916 89.16 463.829 87.62 463.882 86.66C463.962 84.9533 464.149 83.8067 464.442 83.22C464.909 82.2733 465.842 81.6267 467.242 81.28C468.336 81.0133 469.342 80.88 470.262 80.88C470.729 80.88 471.189 80.92 471.642 81C472.842 81.2133 473.909 81.5533 474.842 82.02C475.789 82.4867 476.536 83.06 477.082 83.74C477.496 84.2467 477.962 85.0867 478.482 86.26C478.509 86.34 478.549 86.4133 478.602 86.48C479.269 88.1067 479.602 89.84 479.602 91.68ZM471.182 86.14C470.742 86.0467 470.329 86 469.942 86C469.516 86 469.156 86.0667 468.862 86.2C468.289 86.4667 467.922 87.42 467.762 89.06C467.669 90.1667 467.669 91.2733 467.762 92.38C467.869 93.6067 467.989 94.4867 468.122 95.02C468.269 95.54 468.616 95.9467 469.162 96.24C469.642 96.4933 470.182 96.62 470.782 96.62C471.222 96.62 471.689 96.5467 472.182 96.4C473.236 96.08 474.009 95.5267 474.502 94.74C474.916 94.0733 475.169 93.14 475.262 91.94C475.356 90.74 474.989 89.54 474.162 88.34C473.336 87.1267 472.342 86.3933 471.182 86.14ZM483.06 81.82C484.66 81.5 485.573 82.48 485.8 84.76C485.813 84.8933 485.82 85.18 485.82 85.62C485.82 87.1667 485.5 89.5333 484.86 92.72C485.687 91.28 486.933 90.56 488.6 90.56C488.853 90.56 489.167 90.5867 489.54 90.64C491.647 90.9333 493.087 91.8867 493.86 93.5C494.14 94.0867 494.28 94.6733 494.28 95.26C494.28 96.3 493.84 97.3667 492.96 98.46C491.8 99.9 490.167 100.62 488.06 100.62C487.687 100.62 487.28 100.593 486.84 100.54C484.36 100.247 482.7 98.6133 481.86 95.64C481.327 93.7733 481.113 91.2133 481.22 87.96C481.3 85.56 481.36 84.1733 481.4 83.8C481.52 82.68 482.073 82.02 483.06 81.82ZM486.94 95.98C487.087 96.2067 487.387 96.42 487.84 96.62C488.293 96.82 488.72 96.8067 489.12 96.58C489.533 96.34 489.773 95.9733 489.84 95.48C489.907 94.9467 489.867 94.5933 489.72 94.42C489.387 94.0333 489.013 93.84 488.6 93.84C488.28 93.84 487.94 93.9533 487.58 94.18C487.22 94.4067 486.987 94.6667 486.88 94.96C486.72 95.3867 486.74 95.7267 486.94 95.98ZM495.899 84.4C496.552 83.52 497.325 82.76 498.219 82.12C499.285 81.3733 500.279 81 501.199 81C501.825 81 502.319 81.28 502.679 81.84C503.079 82.4667 503.279 83.9133 503.279 86.18V93.04C503.279 95.4933 503.205 97.1667 503.059 98.06C503.525 98.0467 504.052 98.0467 504.639 98.06C505.065 98.0733 505.385 98.3 505.599 98.74C505.812 99.1933 505.845 99.62 505.699 100.02C505.659 100.113 505.632 100.18 505.619 100.22C505.285 100.7 504.559 100.96 503.439 101C502.212 101.04 500.419 100.993 498.059 100.86C497.152 100.807 496.699 100.427 496.699 99.72C496.699 99.4533 496.785 99.16 496.959 98.84C497.212 98.3867 497.805 98.16 498.739 98.16C498.939 98.16 499.159 98.1667 499.399 98.18C499.452 97.7933 499.485 96.4733 499.499 94.22C499.512 91.8333 499.452 88.8133 499.319 85.16C498.532 86.24 497.732 86.78 496.919 86.78C496.572 86.78 496.245 86.6467 495.939 86.38C495.632 86.1133 495.479 85.8067 495.479 85.46C495.479 85.1267 495.619 84.7733 495.899 84.4ZM516.466 82.54C517.213 83.38 517.546 84.3467 517.466 85.44C517.319 87.52 516.519 88.9 515.066 89.58C515.293 89.7133 515.433 89.8 515.486 89.84C516.686 90.5867 517.479 91.2467 517.866 91.82C518.159 92.2467 518.379 92.62 518.526 92.94C518.926 93.7933 519.093 94.5933 519.026 95.34C518.946 95.9667 518.893 96.3867 518.866 96.6C518.773 97.2267 518.613 97.74 518.386 98.14C517.826 99.1267 517.193 99.86 516.486 100.34C515.779 100.82 514.806 101.04 513.566 101C513.166 100.987 512.853 100.967 512.626 100.94C511.653 100.82 510.646 100.487 509.606 99.94C508.739 99.4867 508.073 98.9133 507.606 98.22C507.526 98.1 507.466 98.0133 507.426 97.96C507.013 97.2667 506.793 96.6133 506.766 96C506.739 95.5067 506.759 95.0133 506.826 94.52C506.839 94.0267 506.953 93.52 507.166 93C507.166 92.9733 507.173 92.9533 507.186 92.94C507.439 92.4333 507.679 91.9333 507.906 91.44C508.186 90.9333 508.566 90.5 509.046 90.14C509.273 89.9667 509.766 89.6667 510.526 89.24C508.859 88.5867 507.939 87.32 507.766 85.44C507.713 84.7867 507.759 84.1667 507.906 83.58C508.173 82.54 508.959 81.8067 510.266 81.38C511.199 81.0733 512.053 80.92 512.826 80.92C514.293 80.92 515.506 81.46 516.466 82.54ZM513.706 85.7C513.746 85.58 513.766 85.4867 513.766 85.42C513.713 84.7133 513.399 84.2667 512.826 84.08C512.546 83.9867 512.319 83.94 512.146 83.94C511.613 83.94 511.299 84.24 511.206 84.84C511.179 85 511.166 85.1933 511.166 85.42C511.166 86.3 511.633 86.74 512.566 86.74C513.113 86.6333 513.493 86.2867 513.706 85.7ZM513.006 92.18C512.366 92.18 511.839 92.42 511.426 92.9C511.026 93.3667 510.826 93.9267 510.826 94.58C510.826 95.5933 511.213 96.3733 511.986 96.92C512.333 97.16 512.699 97.28 513.086 97.28C513.366 97.28 513.673 97.2067 514.006 97.06C514.753 96.74 515.113 95.9 515.086 94.54C515.059 93.1933 514.573 92.4267 513.626 92.24C513.413 92.2 513.206 92.18 513.006 92.18ZM524.836 87.62C524.836 87.82 524.863 88.0867 524.916 88.42C524.956 88.8067 524.983 89.0667 524.996 89.2C525.023 89.64 525.07 90 525.136 90.28C525.283 90.8533 525.756 91.14 526.556 91.14C526.756 91.14 526.916 91.1333 527.036 91.12C528.796 90.92 529.996 90.7933 530.636 90.74C530.783 90.7267 530.99 90.72 531.256 90.72C532.736 90.72 533.476 91.3067 533.476 92.48C533.476 92.84 533.383 93.2133 533.196 93.6C532.81 94.3867 532.05 94.7467 530.916 94.68C528.676 94.5467 527.556 94.48 527.556 94.48C526.463 94.44 525.91 94.8067 525.896 95.58C525.883 96.42 526.01 97.3533 526.276 98.38C526.396 98.8467 526.456 99.2533 526.456 99.6C526.456 100.027 526.343 100.333 526.116 100.52C525.743 100.827 525.156 100.987 524.356 101C523.583 101.013 523.043 100.947 522.736 100.8C522.083 100.48 521.696 99.4467 521.576 97.7C521.51 96.66 521.456 96.04 521.416 95.84C521.403 95.8 521.396 95.76 521.396 95.72V83.84C521.69 82.9333 522.296 82.2667 523.216 81.84C523.843 81.5467 524.743 81.3267 525.916 81.18C527.103 81.0333 528.216 80.9733 529.256 81C530.563 81.04 531.763 81.1467 532.856 81.32C533.816 81.48 534.383 81.8933 534.556 82.56C534.636 82.8667 534.676 83.1467 534.676 83.4C534.676 84.1067 534.303 84.7 533.556 85.18C533.396 85.2867 533.15 85.34 532.816 85.34C532.376 85.34 531.816 85.2733 531.136 85.14C529.87 84.8867 528.596 84.82 527.316 84.94C526.49 85.02 525.843 85.3733 525.376 86C525.016 86.4933 524.836 87.0333 524.836 87.62ZM537.669 81.82C539.269 81.5 540.183 82.48 540.409 84.76C540.423 84.8933 540.429 85.18 540.429 85.62C540.429 87.1667 540.109 89.5333 539.469 92.72C540.296 91.28 541.543 90.56 543.209 90.56C543.463 90.56 543.776 90.5867 544.149 90.64C546.256 90.9333 547.696 91.8867 548.469 93.5C548.749 94.0867 548.889 94.6733 548.889 95.26C548.889 96.3 548.449 97.3667 547.569 98.46C546.409 99.9 544.776 100.62 542.669 100.62C542.296 100.62 541.889 100.593 541.449 100.54C538.969 100.247 537.309 98.6133 536.469 95.64C535.936 93.7733 535.723 91.2133 535.829 87.96C535.909 85.56 535.969 84.1733 536.009 83.8C536.129 82.68 536.683 82.02 537.669 81.82ZM541.549 95.98C541.696 96.2067 541.996 96.42 542.449 96.62C542.903 96.82 543.329 96.8067 543.729 96.58C544.143 96.34 544.383 95.9733 544.449 95.48C544.516 94.9467 544.476 94.5933 544.329 94.42C543.996 94.0333 543.623 93.84 543.209 93.84C542.889 93.84 542.549 93.9533 542.189 94.18C541.829 94.4067 541.596 94.6667 541.489 94.96C541.329 95.3867 541.349 95.7267 541.549 95.98ZM554.348 87.62C554.348 87.82 554.375 88.0867 554.428 88.42C554.468 88.8067 554.495 89.0667 554.508 89.2C554.535 89.64 554.582 90 554.648 90.28C554.795 90.8533 555.268 91.14 556.068 91.14C556.268 91.14 556.428 91.1333 556.548 91.12C558.308 90.92 559.508 90.7933 560.148 90.74C560.295 90.7267 560.502 90.72 560.768 90.72C562.248 90.72 562.988 91.3067 562.988 92.48C562.988 92.84 562.895 93.2133 562.708 93.6C562.322 94.3867 561.562 94.7467 560.428 94.68C558.188 94.5467 557.068 94.48 557.068 94.48C555.975 94.44 555.422 94.8067 555.408 95.58C555.395 96.42 555.522 97.3533 555.788 98.38C555.908 98.8467 555.968 99.2533 555.968 99.6C555.968 100.027 555.855 100.333 555.628 100.52C555.255 100.827 554.668 100.987 553.868 101C553.095 101.013 552.555 100.947 552.248 100.8C551.595 100.48 551.208 99.4467 551.088 97.7C551.022 96.66 550.968 96.04 550.928 95.84C550.915 95.8 550.908 95.76 550.908 95.72V83.84C551.202 82.9333 551.808 82.2667 552.728 81.84C553.355 81.5467 554.255 81.3267 555.428 81.18C556.615 81.0333 557.728 80.9733 558.768 81C560.075 81.04 561.275 81.1467 562.368 81.32C563.328 81.48 563.895 81.8933 564.068 82.56C564.148 82.8667 564.188 83.1467 564.188 83.4C564.188 84.1067 563.815 84.7 563.068 85.18C562.908 85.2867 562.662 85.34 562.328 85.34C561.888 85.34 561.328 85.2733 560.648 85.14C559.382 84.8867 558.108 84.82 556.828 84.94C556.002 85.02 555.355 85.3733 554.888 86C554.528 86.4933 554.348 87.0333 554.348 87.62ZM570.141 83.46C570.528 83.2867 571.041 83.2067 571.681 83.22H573.041C573.588 83.22 574.235 83.42 574.981 83.82C575.741 84.2067 576.261 84.6333 576.541 85.1C576.941 85.74 577.188 86.3533 577.281 86.94C577.388 87.6067 577.315 89.2467 577.061 91.86C576.981 92.6733 576.941 93.4067 576.941 94.06C576.941 95.42 577.108 96.3667 577.441 96.9C577.828 97.5133 578.021 98.04 578.021 98.48C578.021 98.68 577.988 98.8333 577.921 98.94C577.601 99.46 577.135 99.72 576.521 99.72C576.375 99.72 576.221 99.7067 576.061 99.68C575.501 99.5867 575.015 99.06 574.601 98.1L574.401 98.5C573.935 99.1533 573.175 99.66 572.121 100.02C571.201 100.34 570.281 100.473 569.361 100.42C568.521 100.38 567.835 100.173 567.301 99.8C565.741 98.72 564.961 97.2533 564.961 95.4C564.961 94.16 565.395 93.12 566.261 92.28C567.128 91.44 568.188 90.9733 569.441 90.88C569.628 90.8667 569.868 90.86 570.161 90.86C571.401 90.86 572.435 91.1067 573.261 91.6C573.488 91.7733 573.675 91.9133 573.821 92.02C573.861 91.7533 573.881 91.6067 573.881 91.58C573.961 91.1 574.001 90.68 574.001 90.32C574.001 89.7467 573.901 89.2733 573.701 88.9C573.368 88.2733 572.968 87.9133 572.501 87.82C572.048 87.7267 571.448 87.76 570.701 87.92C570.581 87.9467 570.435 87.96 570.261 87.96C569.715 87.96 569.201 87.7533 568.721 87.34C568.241 86.9267 568.001 86.4467 568.001 85.9C568.001 85.74 568.035 85.5467 568.101 85.32C568.341 84.5467 568.695 84.0667 569.161 83.88C569.281 83.84 569.375 83.8 569.441 83.76C569.761 83.6133 569.995 83.5133 570.141 83.46ZM569.561 97.3C570.015 97.3 570.428 97.18 570.801 96.94C571.228 96.6733 571.441 96.3267 571.441 95.9C571.441 95.74 571.401 95.5467 571.321 95.32C571.081 94.64 570.641 94.3 570.001 94.3C568.908 94.3 568.321 94.7267 568.241 95.58C568.161 96.3267 568.355 96.8333 568.821 97.1C569.048 97.2333 569.295 97.3 569.561 97.3ZM581.986 81.82C583.586 81.5 584.499 82.48 584.726 84.76C584.739 84.8933 584.746 85.18 584.746 85.62C584.746 87.1667 584.426 89.5333 583.786 92.72C584.613 91.28 585.859 90.56 587.526 90.56C587.779 90.56 588.093 90.5867 588.466 90.64C590.573 90.9333 592.013 91.8867 592.786 93.5C593.066 94.0867 593.206 94.6733 593.206 95.26C593.206 96.3 592.766 97.3667 591.886 98.46C590.726 99.9 589.093 100.62 586.986 100.62C586.613 100.62 586.206 100.593 585.766 100.54C583.286 100.247 581.626 98.6133 580.786 95.64C580.253 93.7733 580.039 91.2133 580.146 87.96C580.226 85.56 580.286 84.1733 580.326 83.8C580.446 82.68 580.999 82.02 581.986 81.82ZM585.866 95.98C586.013 96.2067 586.313 96.42 586.766 96.62C587.219 96.82 587.646 96.8067 588.046 96.58C588.459 96.34 588.699 95.9733 588.766 95.48C588.833 94.9467 588.793 94.5933 588.646 94.42C588.313 94.0333 587.939 93.84 587.526 93.84C587.206 93.84 586.866 93.9533 586.506 94.18C586.146 94.4067 585.913 94.6667 585.806 94.96C585.646 95.3867 585.666 95.7267 585.866 95.98ZM594.325 87.36C594.538 84.7867 595.705 82.9467 597.825 81.84C598.905 81.28 600.011 81 601.145 81C601.491 81 601.825 81.02 602.145 81.06C603.638 81.2467 604.731 81.6133 605.425 82.16C607.145 83.52 607.958 85.6133 607.865 88.44C607.825 89.7733 607.458 91.1533 606.765 92.58C606.031 94.0867 605.138 95.2 604.085 95.92C603.525 96.3067 602.531 96.88 601.105 97.64C601.505 97.5067 602.058 97.46 602.765 97.5C604.018 97.5533 604.758 97.6267 604.985 97.72C605.531 97.9467 605.858 98.5333 605.965 99.48C606.071 100.44 605.351 100.947 603.805 101C602.591 101.04 601.231 101.033 599.725 100.98C597.498 100.887 596.271 100.68 596.045 100.36C595.751 99.9333 595.605 99.4133 595.605 98.8C595.605 98.6267 595.618 98.44 595.645 98.24C595.765 97.3467 596.125 96.64 596.725 96.12C597.098 95.8 597.818 95.4067 598.885 94.94C601.511 93.78 602.998 92.32 603.345 90.56C603.531 89.6533 603.598 88.5533 603.545 87.26C603.478 85.3267 602.598 84.36 600.905 84.36C600.638 84.36 600.391 84.38 600.165 84.42C598.885 84.6467 598.205 85.88 598.125 88.12C598.111 88.7067 598.111 89.0467 598.125 89.14C598.125 89.5667 597.998 89.9467 597.745 90.28C597.465 90.6533 597.118 90.8467 596.705 90.86C596.198 90.8733 595.791 90.78 595.485 90.58C594.578 89.9933 594.191 88.92 594.325 87.36ZM621.371 95.76C621.038 96.4267 620.378 96.7533 619.391 96.74C618.391 96.7267 617.278 96.66 616.051 96.54C616.118 97.2333 616.151 97.8267 616.151 98.32C616.151 98.9333 616.098 99.3867 615.991 99.68C615.711 100.24 615.425 100.587 615.131 100.72C614.851 100.853 614.391 100.873 613.751 100.78C612.725 100.633 612.258 99.3467 612.351 96.92C612.045 97.04 611.711 97.1 611.351 97.1C610.951 97.1 610.511 97.0267 610.031 96.88C609.138 96.6133 608.691 96.08 608.691 95.28C608.691 95.0667 608.738 94.84 608.831 94.6C608.978 94.0667 609.445 93.72 610.231 93.56C610.871 93.52 611.511 93.4733 612.151 93.42C612.018 92.0867 611.798 90.3133 611.491 88.1C611.438 87.7267 611.411 87.3 611.411 86.82C611.411 85.46 611.751 84.3667 612.431 83.54C613.325 82.4467 614.425 81.8533 615.731 81.76C616.825 81.68 617.611 81.7333 618.091 81.92C618.758 82.1867 619.225 82.78 619.491 83.7C619.558 83.94 619.591 84.1667 619.591 84.38C619.591 85.6067 618.691 86.2333 616.891 86.26C615.771 86.2733 615.258 87.16 615.351 88.92C615.445 90.5467 615.538 91.9533 615.631 93.14C616.591 92.8333 617.785 92.6867 619.211 92.7C620.611 92.7133 621.405 93.06 621.591 93.74C621.658 93.9933 621.691 94.2267 621.691 94.44C621.691 94.88 621.585 95.32 621.371 95.76Z" fill="black"/>
</svg>
