<svg width="618" height="51" viewBox="0 0 618 51" fill="none" xmlns="http://www.w3.org/2000/svg">
<path d="M28.9418 12.88C26.9898 12.464 25.2458 12.256 23.7098 12.256C17.8538 12.256 13.9338 14.992 11.9498 20.464C11.4698 21.776 11.2298 23.28 11.2298 24.976C11.2298 27.12 11.6618 29.552 12.5258 32.272C13.8378 36.368 16.7978 38.416 21.4058 38.416C22.0138 38.416 22.9098 38.368 24.0938 38.272C25.3098 38.144 26.2218 38.08 26.8298 38.08C30.7978 38.08 33.3098 39.168 34.3658 41.344C34.6538 41.92 34.7978 42.544 34.7978 43.216C34.7978 45.104 33.1818 46.768 29.9498 48.208C26.4618 49.104 23.9818 49.568 22.5098 49.6C19.0538 49.696 15.4058 48.944 11.5658 47.344C6.31775 45.168 3.19775 39.472 2.20575 30.256C2.01375 28.4 1.91775 26.56 1.91775 24.736C1.91775 22.368 2.07775 19.984 2.39775 17.584C2.97375 13.392 4.07775 10.336 5.70975 8.416C7.69375 6.112 9.78975 4.464 11.9978 3.472C13.8218 2.672 16.4618 2.048 19.9178 1.6C21.6138 1.376 23.1338 1.264 24.4778 1.264C26.4618 1.264 28.1258 1.488 29.4698 1.936C33.0858 2.704 35.0538 4.976 35.3738 8.752C35.6298 11.696 34.3018 13.168 31.3898 13.168C30.6538 13.168 29.8378 13.072 28.9418 12.88ZM41.5586 9.76C43.1266 4.224 48.0226 1.456 56.2466 1.456C57.2706 1.456 58.3426 1.504 59.4626 1.6C61.5746 1.76 63.1426 1.984 64.1666 2.272C65.4146 2.624 66.6946 3.344 68.0066 4.432C69.3186 5.52 70.2146 6.656 70.6946 7.84C71.6226 10.08 72.1666 12.24 72.3266 14.32C72.3906 15.312 72.5506 16.944 72.8066 19.216C73.0306 21.2 73.1426 22.88 73.1426 24.256C73.1746 27.68 72.6946 32.96 71.7026 40.096C71.6066 40.768 71.1746 42.016 70.4066 43.84C69.5106 45.984 67.5746 47.568 64.5986 48.592C62.5506 49.296 60.4386 49.648 58.2626 49.648C57.7826 49.648 57.3026 49.632 56.8226 49.6C54.5186 49.44 53.0466 49.296 52.4066 49.168C51.2546 48.944 49.7986 48.496 48.0386 47.824C46.8226 47.376 45.5586 46.464 44.2466 45.088C42.8066 43.552 42.0866 42.224 42.0866 41.104L40.5506 35.104C40.1346 33.504 39.8946 31.12 39.8306 27.952C39.7986 25.52 39.7826 23.088 39.7826 20.656C39.7506 17.68 40.3426 14.048 41.5586 9.76ZM59.1266 11.632C57.3346 11.12 55.4466 11.12 53.4626 11.632C51.3506 12.144 50.0066 14.768 49.4306 19.504C49.1426 21.808 48.9986 24.016 48.9986 26.128C48.9986 28.464 49.1906 30.88 49.5746 33.376C50.2786 37.888 51.9106 40.384 54.4706 40.864C55.1746 40.992 55.8786 41.056 56.5826 41.056C58.1826 41.056 59.5106 40.672 60.5666 39.904C62.0706 38.816 63.0946 35.456 63.6386 29.824C63.8306 27.84 63.9266 26.016 63.9266 24.352C63.9266 21.728 63.6386 19.328 63.0626 17.152C62.2306 13.984 60.9186 12.144 59.1266 11.632ZM89.9299 2.752C92.5859 3.648 95.1779 6.576 97.7059 11.536C98.8579 13.808 100.41 17.648 102.362 23.056C103.578 26.544 104.49 29.152 105.098 30.88C106.378 34.432 107.45 36.96 108.314 38.464C108.506 38.816 108.698 38.992 108.89 38.992C109.146 38.992 109.306 38.432 109.37 37.312C109.498 35.392 109.306 31.28 108.794 24.976C108.282 18.672 108.058 13.168 108.122 8.464C108.186 3.888 109.962 1.6 113.45 1.6C117.738 1.6 119.882 5.088 119.882 12.064C119.882 12.928 119.834 14.224 119.738 15.952C119.642 17.68 119.594 18.976 119.594 19.84C119.594 28.416 119.034 35.52 117.914 41.152C117.434 43.552 116.858 45.296 116.186 46.384C115.258 47.888 113.754 48.848 111.674 49.264C111.034 49.392 110.362 49.456 109.658 49.456C107.93 49.456 106.426 48.96 105.146 47.968C102.138 45.632 98.9699 39.952 95.6419 30.928C93.9779 26.416 92.8099 23.152 92.1379 21.136C91.2739 18.512 90.4259 17.2 89.5939 17.2C89.4339 17.2 89.2899 17.248 89.1619 17.344C87.9139 17.984 87.2899 19.328 87.2899 21.376C87.2899 21.824 87.3059 22.224 87.3379 22.576C88.1059 30.864 88.8739 36.752 89.6419 40.24C89.9299 41.552 90.0739 42.688 90.0739 43.648C90.0739 45.184 89.7379 46.512 89.0659 47.632C88.2659 48.944 87.1459 49.6 85.7059 49.6C83.4339 49.6 81.8979 48.848 81.0979 47.344C79.8499 45.04 79.2259 39.28 79.2259 30.064C79.2259 23.408 79.1939 19.44 79.1299 18.16C79.0659 16.848 79.0339 15.536 79.0339 14.224C79.0339 9.904 79.4179 7.104 80.1859 5.824C81.7219 3.232 83.5939 1.936 85.8019 1.936C86.9219 1.936 88.2979 2.208 89.9299 2.752ZM159.147 12.208C157.163 13.104 154.683 13.552 151.707 13.552C150.715 13.552 149.659 13.504 148.539 13.408C149.723 23.392 150.507 30.96 150.891 36.112C151.179 40.08 151.323 42.368 151.323 42.976C151.163 46.208 150.267 48.144 148.635 48.784C147.515 49.104 146.395 49.28 145.275 49.312C144.027 49.344 142.875 49.04 141.819 48.4C140.667 47.664 140.043 46.704 139.947 45.52C139.787 43.696 139.707 41.44 139.707 38.752C139.675 34.56 139.675 31.024 139.707 28.144C139.739 24.4 139.691 21.552 139.563 19.6L139.179 13.696C136.043 14.048 133.691 14.176 132.123 14.08C131.035 14.016 130.059 13.872 129.195 13.648C127.851 12.976 126.955 12.352 126.507 11.776C125.675 10.944 125.259 10.032 125.259 9.04C125.259 7.92 125.675 6.784 126.507 5.632C127.339 4.48 128.571 3.792 130.203 3.568C135.323 2.832 140.155 2.432 144.699 2.368C146.171 2.336 149.051 2.304 153.339 2.272C155.995 2.24 157.947 2.512 159.195 3.088C161.723 4.24 162.987 6.08 162.987 8.608C162.987 9.856 161.707 11.056 159.147 12.208ZM170.874 4.624C172.666 3.056 176.618 2.048 182.73 1.6C186.122 1.344 190.042 1.568 194.49 2.272C199.13 3.008 201.898 5.328 202.794 9.232C203.21 11.056 203.418 12.592 203.418 13.84C203.418 15.472 203.098 16.848 202.458 17.968C199.802 22.544 195.274 24.864 188.874 24.928C187.914 24.928 186.506 24.864 184.65 24.736C182.794 24.576 181.418 24.496 180.522 24.496C180.17 24.496 179.994 24.608 179.994 24.832C179.994 25.184 180.346 25.744 181.05 26.512C183.418 29.04 185.37 31.232 186.906 33.088C189.114 35.712 190.778 37.664 191.898 38.944C194.202 41.76 195.354 43.888 195.354 45.328C195.354 46.864 194.522 48.032 192.858 48.832C192.25 49.12 191.642 49.264 191.034 49.264C189.05 49.264 187.034 48.176 184.986 46C183.482 44.368 182.154 42.416 181.002 40.144L175.194 28.48C175.866 35.072 176.186 39.056 176.154 40.432C176.122 42.896 176.122 44.256 176.154 44.512C176.154 45.312 175.962 46.176 175.578 47.104C175.194 48.032 174.65 48.672 173.946 49.024C173.434 49.28 172.586 49.472 171.402 49.6C169.162 49.856 168.042 48 168.042 44.032C167.914 43.296 167.818 42.416 167.754 41.392C167.274 33.84 167.05 27.456 167.082 22.24C167.114 18.656 167.162 16.176 167.226 14.8C167.514 9.488 168.73 6.096 170.874 4.624ZM186.426 10.048C185.178 9.472 183.946 9.184 182.73 9.184C181.482 9.184 180.346 9.52 179.322 10.192C177.818 11.152 177.05 12.512 177.018 14.272C176.986 16.576 178.202 17.792 180.666 17.92C185.498 18.176 188.17 17.12 188.682 14.752C189.162 12.512 188.41 10.944 186.426 10.048ZM225.989 1.6C232.037 2.144 236.213 7.104 238.517 16.48C239.029 18.528 239.653 22.208 240.389 27.52C240.965 31.648 241.253 35.424 241.253 38.848C241.253 41.184 240.949 43.328 240.341 45.28C239.477 48.16 238.133 49.6 236.309 49.6C234.645 49.6 233.413 49.232 232.613 48.496C231.813 47.76 231.301 46.544 231.077 44.848C230.853 43.184 230.709 40.48 230.645 36.736C230.581 33.184 230.389 30.448 230.069 28.528C229.301 23.76 228.069 21.344 226.373 21.28C224.613 21.216 223.253 21.344 222.293 21.664C220.373 22.304 219.189 23.904 218.741 26.464C218.517 27.712 218.485 29.856 218.645 32.896C218.869 37.568 219.093 40.816 219.317 42.64C219.381 43.152 219.413 43.584 219.413 43.936C219.413 47.776 217.829 49.696 214.661 49.696C214.341 49.696 213.925 49.664 213.413 49.6C210.853 49.28 209.173 47.824 208.373 45.232C207.861 43.6 207.701 41.2 207.893 38.032C208.181 33.072 208.357 30.112 208.421 29.152C208.581 26.816 209.173 23.056 210.197 17.872C211.093 13.36 211.989 9.968 212.885 7.696C213.749 5.552 215.269 3.952 217.445 2.896C219.333 1.968 221.541 1.504 224.069 1.504C224.645 1.504 225.285 1.536 225.989 1.6ZM228.293 12.688C228.357 12.464 228.389 12.224 228.389 11.968C228.389 9.856 227.045 8.704 224.357 8.512C222.629 8.384 221.237 8.864 220.181 9.952C219.477 10.656 219.125 11.344 219.125 12.016C219.125 12.336 219.237 12.688 219.461 13.072C219.973 13.936 220.725 14.464 221.717 14.656C222.037 14.72 222.997 14.752 224.597 14.752C226.581 14.752 227.813 14.064 228.293 12.688ZM272.457 12.88C270.505 12.464 268.761 12.256 267.225 12.256C261.369 12.256 257.449 14.992 255.465 20.464C254.985 21.776 254.745 23.28 254.745 24.976C254.745 27.12 255.177 29.552 256.041 32.272C257.353 36.368 260.313 38.416 264.921 38.416C265.529 38.416 266.425 38.368 267.609 38.272C268.825 38.144 269.737 38.08 270.345 38.08C274.313 38.08 276.825 39.168 277.881 41.344C278.169 41.92 278.313 42.544 278.313 43.216C278.313 45.104 276.697 46.768 273.465 48.208C269.977 49.104 267.497 49.568 266.025 49.6C262.569 49.696 258.921 48.944 255.081 47.344C249.833 45.168 246.713 39.472 245.721 30.256C245.529 28.4 245.433 26.56 245.433 24.736C245.433 22.368 245.593 19.984 245.913 17.584C246.489 13.392 247.593 10.336 249.225 8.416C251.209 6.112 253.305 4.464 255.513 3.472C257.337 2.672 259.977 2.048 263.433 1.6C265.129 1.376 266.649 1.264 267.993 1.264C269.977 1.264 271.641 1.488 272.985 1.936C276.601 2.704 278.569 4.976 278.889 8.752C279.145 11.696 277.817 13.168 274.905 13.168C274.169 13.168 273.353 13.072 272.457 12.88ZM318.194 12.208C316.21 13.104 313.73 13.552 310.754 13.552C309.762 13.552 308.706 13.504 307.586 13.408C308.77 23.392 309.554 30.96 309.938 36.112C310.226 40.08 310.37 42.368 310.37 42.976C310.21 46.208 309.314 48.144 307.682 48.784C306.562 49.104 305.442 49.28 304.322 49.312C303.074 49.344 301.922 49.04 300.866 48.4C299.714 47.664 299.09 46.704 298.994 45.52C298.834 43.696 298.754 41.44 298.754 38.752C298.722 34.56 298.722 31.024 298.754 28.144C298.786 24.4 298.738 21.552 298.61 19.6L298.226 13.696C295.09 14.048 292.738 14.176 291.17 14.08C290.082 14.016 289.106 13.872 288.242 13.648C286.898 12.976 286.002 12.352 285.554 11.776C284.722 10.944 284.306 10.032 284.306 9.04C284.306 7.92 284.722 6.784 285.554 5.632C286.386 4.48 287.618 3.792 289.25 3.568C294.37 2.832 299.202 2.432 303.746 2.368C305.218 2.336 308.098 2.304 312.386 2.272C315.042 2.24 316.994 2.512 318.242 3.088C320.77 4.24 322.034 6.08 322.034 8.608C322.034 9.856 320.754 11.056 318.194 12.208ZM359.724 1.6C365.772 2.144 369.948 7.104 372.252 16.48C372.764 18.528 373.388 22.208 374.124 27.52C374.7 31.648 374.988 35.424 374.988 38.848C374.988 41.184 374.684 43.328 374.076 45.28C373.212 48.16 371.868 49.6 370.044 49.6C368.38 49.6 367.148 49.232 366.348 48.496C365.548 47.76 365.036 46.544 364.812 44.848C364.588 43.184 364.444 40.48 364.38 36.736C364.316 33.184 364.124 30.448 363.804 28.528C363.036 23.76 361.804 21.344 360.108 21.28C358.348 21.216 356.988 21.344 356.028 21.664C354.108 22.304 352.924 23.904 352.476 26.464C352.252 27.712 352.22 29.856 352.38 32.896C352.604 37.568 352.828 40.816 353.052 42.64C353.116 43.152 353.148 43.584 353.148 43.936C353.148 47.776 351.564 49.696 348.396 49.696C348.076 49.696 347.66 49.664 347.148 49.6C344.588 49.28 342.908 47.824 342.108 45.232C341.596 43.6 341.436 41.2 341.628 38.032C341.916 33.072 342.092 30.112 342.156 29.152C342.316 26.816 342.908 23.056 343.932 17.872C344.828 13.36 345.724 9.968 346.62 7.696C347.484 5.552 349.004 3.952 351.18 2.896C353.068 1.968 355.276 1.504 357.804 1.504C358.38 1.504 359.02 1.536 359.724 1.6ZM362.028 12.688C362.092 12.464 362.124 12.224 362.124 11.968C362.124 9.856 360.78 8.704 358.092 8.512C356.364 8.384 354.972 8.864 353.916 9.952C353.212 10.656 352.86 11.344 352.86 12.016C352.86 12.336 352.972 12.688 353.196 13.072C353.708 13.936 354.46 14.464 355.452 14.656C355.772 14.72 356.732 14.752 358.332 14.752C360.316 14.752 361.548 14.064 362.028 12.688ZM417.232 27.232C417.232 30.72 416.704 34.16 415.648 37.552C415.264 38.8 414.176 40.528 412.384 42.736C410.016 45.616 406.592 47.696 402.112 48.976C400.768 49.36 399.296 49.568 397.696 49.6C393.376 49.696 389.952 49.184 387.424 48.064C383.904 46.528 381.472 39.264 380.128 26.272C379.584 21.184 379.376 17.488 379.504 15.184C379.696 11.088 380.144 8.336 380.848 6.928C381.968 4.656 384.208 3.104 387.568 2.272C390.192 1.632 392.608 1.312 394.816 1.312C395.936 1.312 397.04 1.408 398.128 1.6C401.008 2.112 403.568 2.928 405.808 4.048C408.08 5.168 409.872 6.544 411.184 8.176C412.176 9.392 413.296 11.408 414.544 14.224C414.608 14.416 414.704 14.592 414.832 14.752C416.432 18.656 417.232 22.816 417.232 27.232ZM397.024 13.936C395.968 13.712 394.976 13.6 394.048 13.6C393.024 13.6 392.16 13.76 391.456 14.08C390.08 14.72 389.2 17.008 388.816 20.944C388.592 23.6 388.592 26.256 388.816 28.912C389.072 31.856 389.36 33.968 389.68 35.248C390.032 36.496 390.864 37.472 392.176 38.176C393.328 38.784 394.624 39.088 396.064 39.088C397.12 39.088 398.24 38.912 399.424 38.56C401.952 37.792 403.808 36.464 404.992 34.576C405.984 32.976 406.592 30.736 406.816 27.856C407.04 24.976 406.16 22.096 404.176 19.216C402.192 16.304 399.808 14.544 397.024 13.936ZM459.466 27.232C459.466 30.72 458.938 34.16 457.882 37.552C457.498 38.8 456.41 40.528 454.618 42.736C452.25 45.616 448.826 47.696 444.346 48.976C443.002 49.36 441.53 49.568 439.93 49.6C435.61 49.696 432.186 49.184 429.658 48.064C426.138 46.528 423.706 39.264 422.362 26.272C421.818 21.184 421.61 17.488 421.738 15.184C421.93 11.088 422.378 8.336 423.082 6.928C424.202 4.656 426.442 3.104 429.802 2.272C432.426 1.632 434.842 1.312 437.05 1.312C438.17 1.312 439.274 1.408 440.362 1.6C443.242 2.112 445.802 2.928 448.042 4.048C450.314 5.168 452.106 6.544 453.418 8.176C454.41 9.392 455.53 11.408 456.778 14.224C456.842 14.416 456.938 14.592 457.066 14.752C458.666 18.656 459.466 22.816 459.466 27.232ZM439.258 13.936C438.202 13.712 437.21 13.6 436.282 13.6C435.258 13.6 434.394 13.76 433.69 14.08C432.314 14.72 431.434 17.008 431.05 20.944C430.826 23.6 430.826 26.256 431.05 28.912C431.306 31.856 431.594 33.968 431.914 35.248C432.266 36.496 433.098 37.472 434.41 38.176C435.562 38.784 436.858 39.088 438.298 39.088C439.354 39.088 440.474 38.912 441.658 38.56C444.186 37.792 446.042 36.464 447.226 34.576C448.218 32.976 448.826 30.736 449.05 27.856C449.274 24.976 448.394 22.096 446.41 19.216C444.426 16.304 442.042 14.544 439.258 13.936ZM468.437 4.624C470.229 3.056 474.181 2.048 480.293 1.6C483.685 1.344 487.605 1.568 492.053 2.272C496.693 3.008 499.461 5.328 500.357 9.232C500.773 11.056 500.981 12.592 500.981 13.84C500.981 15.472 500.661 16.848 500.021 17.968C497.365 22.544 492.837 24.864 486.437 24.928C485.477 24.928 484.069 24.864 482.213 24.736C480.357 24.576 478.981 24.496 478.085 24.496C477.733 24.496 477.557 24.608 477.557 24.832C477.557 25.184 477.909 25.744 478.613 26.512C480.981 29.04 482.933 31.232 484.469 33.088C486.677 35.712 488.341 37.664 489.461 38.944C491.765 41.76 492.917 43.888 492.917 45.328C492.917 46.864 492.085 48.032 490.421 48.832C489.813 49.12 489.205 49.264 488.597 49.264C486.613 49.264 484.597 48.176 482.549 46C481.045 44.368 479.717 42.416 478.565 40.144L472.757 28.48C473.429 35.072 473.749 39.056 473.717 40.432C473.685 42.896 473.685 44.256 473.717 44.512C473.717 45.312 473.525 46.176 473.141 47.104C472.757 48.032 472.213 48.672 471.509 49.024C470.997 49.28 470.149 49.472 468.965 49.6C466.725 49.856 465.605 48 465.605 44.032C465.477 43.296 465.381 42.416 465.317 41.392C464.837 33.84 464.613 27.456 464.645 22.24C464.677 18.656 464.725 16.176 464.789 14.8C465.077 9.488 466.293 6.096 468.437 4.624ZM483.989 10.048C482.741 9.472 481.509 9.184 480.293 9.184C479.045 9.184 477.909 9.52 476.885 10.192C475.381 11.152 474.613 12.512 474.581 14.272C474.549 16.576 475.765 17.792 478.229 17.92C483.061 18.176 485.733 17.12 486.245 14.752C486.725 12.512 485.973 10.944 483.989 10.048ZM532.912 9.952C532.24 11.296 531.28 12.144 530.032 12.496C529.392 12.688 528.064 12.8 526.048 12.832C524.224 12.864 522.544 12.864 521.008 12.832C519.504 12.8 517.968 13.072 516.4 13.648C514.992 14.16 514.064 15.008 513.616 16.192C513.424 16.64 513.2 17.904 512.944 19.984C512.944 20.72 513.024 22.096 513.184 24.112C513.568 26.192 514.608 27.328 516.304 27.52C517.36 27.648 518.832 27.664 520.72 27.568C522.64 27.472 524.192 27.456 525.376 27.52L528.784 27.712C529.84 27.776 530.784 28.096 531.616 28.672C532.576 29.344 533.056 30.176 533.056 31.168C533.056 31.616 532.992 32.32 532.864 33.28C532.736 33.664 532.432 34.096 531.952 34.576C530.736 35.344 529.024 35.616 526.816 35.392C524.384 35.136 522.576 34.976 521.392 34.912C519.664 34.816 518.608 34.736 518.224 34.672C517.744 34.608 517.312 34.576 516.928 34.576C516.544 34.576 516.208 34.608 515.92 34.672C514.992 34.672 514.368 35.392 514.048 36.832C513.728 38.208 513.888 39.168 514.528 39.712C515.36 40.416 516.16 40.832 516.928 40.96C519.84 41.44 522.432 41.584 524.704 41.392C528.928 41.04 531.376 41.856 532.048 43.84C532.176 44.256 532.24 44.704 532.24 45.184C532.24 48.128 530.384 49.6 526.672 49.6C526.224 49.6 525.008 49.504 523.024 49.312C517.52 48.864 514.192 48.544 513.04 48.352C507.952 47.456 505.36 44.368 505.264 39.088C505.168 33.776 504.976 29.168 504.688 25.264C504.56 23.6 504.496 22.144 504.496 20.896C504.496 17.504 504.832 14.064 505.504 10.576C506.4 5.872 510.096 3.024 516.592 2.032C518.672 1.712 520.224 1.568 521.248 1.6C524.544 1.728 527.504 2.224 530.128 3.088C531.056 3.504 531.824 4.32 532.432 5.536C533.04 6.72 533.264 7.824 533.104 8.848C533.008 9.488 532.944 9.856 532.912 9.952ZM574.968 35.056C575.064 36.656 574.776 38.384 574.104 40.24C573.464 42.128 572.872 43.296 572.328 43.744C571.368 44.544 570.632 45.12 570.12 45.472C569.224 46.08 568.392 46.528 567.624 46.816C565.448 47.648 562.024 48.368 557.352 48.976C555.24 49.264 553.672 49.344 552.648 49.216C550.44 48.992 548.776 48.816 547.656 48.688C546.024 48.432 544.504 47.696 543.096 46.48C541.976 45.52 541.416 44.24 541.416 42.64C541.416 42 541.512 41.296 541.704 40.528C542.28 38.288 543.88 37.168 546.504 37.168C546.984 37.168 547.48 37.2 547.992 37.264C550.84 37.616 552.984 37.936 554.424 38.224C555.256 38.16 556.024 38.128 556.728 38.128C559.096 38.16 560.92 37.984 562.2 37.6C564.408 36.96 565.432 35.696 565.272 33.808C565.08 31.76 563.32 30.384 559.992 29.68C558.68 29.392 556.2 29.184 552.552 29.056C548.488 28.896 545.416 28.128 543.336 26.752C540.808 25.088 539.336 22.368 538.92 18.592C538.856 17.984 538.824 17.328 538.824 16.624C538.824 14.16 539.384 11.856 540.504 9.712C541.624 7.536 542.936 5.936 544.44 4.912C545.816 3.952 547.784 3.232 550.344 2.752C554.056 2.08 557.128 1.744 559.56 1.744C560.168 1.744 560.728 1.76 561.24 1.792L566.136 2.272C568.888 2.56 570.264 3.936 570.264 6.4C570.264 7.168 570.12 7.936 569.832 8.704C569.352 9.984 567.768 10.624 565.08 10.624C564.44 10.624 563.64 10.576 562.68 10.48C561.112 10.32 559.592 10.24 558.12 10.24C555.912 10.24 553.992 10.432 552.36 10.816C549.672 11.456 548.216 13.008 547.992 15.472C547.8 17.68 548.376 19.28 549.72 20.272C550.712 21.04 552.408 21.552 554.808 21.808C556.888 21.904 558.744 21.984 560.376 22.048C564.952 22.208 568.344 23.12 570.552 24.784C571.672 25.648 572.68 27.216 573.576 29.488C574.376 31.504 574.84 33.36 574.968 35.056ZM615.421 35.056C615.517 36.656 615.229 38.384 614.557 40.24C613.917 42.128 613.325 43.296 612.781 43.744C611.821 44.544 611.085 45.12 610.573 45.472C609.677 46.08 608.845 46.528 608.077 46.816C605.901 47.648 602.477 48.368 597.805 48.976C595.693 49.264 594.125 49.344 593.101 49.216C590.893 48.992 589.229 48.816 588.109 48.688C586.477 48.432 584.957 47.696 583.549 46.48C582.429 45.52 581.869 44.24 581.869 42.64C581.869 42 581.965 41.296 582.157 40.528C582.733 38.288 584.333 37.168 586.957 37.168C587.437 37.168 587.933 37.2 588.445 37.264C591.293 37.616 593.437 37.936 594.877 38.224C595.709 38.16 596.477 38.128 597.181 38.128C599.549 38.16 601.373 37.984 602.653 37.6C604.861 36.96 605.885 35.696 605.725 33.808C605.533 31.76 603.773 30.384 600.445 29.68C599.133 29.392 596.653 29.184 593.005 29.056C588.941 28.896 585.869 28.128 583.789 26.752C581.261 25.088 579.789 22.368 579.373 18.592C579.309 17.984 579.277 17.328 579.277 16.624C579.277 14.16 579.837 11.856 580.957 9.712C582.077 7.536 583.389 5.936 584.893 4.912C586.269 3.952 588.237 3.232 590.797 2.752C594.509 2.08 597.581 1.744 600.013 1.744C600.621 1.744 601.181 1.76 601.693 1.792L606.589 2.272C609.341 2.56 610.717 3.936 610.717 6.4C610.717 7.168 610.573 7.936 610.285 8.704C609.805 9.984 608.221 10.624 605.533 10.624C604.893 10.624 604.093 10.576 603.133 10.48C601.565 10.32 600.045 10.24 598.573 10.24C596.365 10.24 594.445 10.432 592.813 10.816C590.125 11.456 588.669 13.008 588.445 15.472C588.253 17.68 588.829 19.28 590.173 20.272C591.165 21.04 592.861 21.552 595.261 21.808C597.341 21.904 599.197 21.984 600.829 22.048C605.405 22.208 608.797 23.12 611.005 24.784C612.125 25.648 613.133 27.216 614.029 29.488C614.829 31.504 615.293 33.36 615.421 35.056Z" fill="black"/>
</svg>
