<svg width="1163" height="293" viewBox="0 0 1163 293" fill="none" xmlns="http://www.w3.org/2000/svg">
<g style="mix-blend-mode:difference">
<path d="M118.827 244.55C119.127 249.55 118.227 254.95 116.127 260.75C114.127 266.65 112.277 270.3 110.577 271.7C107.577 274.2 105.277 276 103.677 277.1C100.877 279 98.2768 280.4 95.8768 281.3C89.0768 283.9 78.3768 286.15 63.7768 288.05C57.1768 288.95 52.2768 289.2 49.0768 288.8C42.1768 288.1 36.9768 287.55 33.4768 287.15C28.3768 286.35 23.6268 284.05 19.2268 280.25C15.7268 277.25 13.9768 273.25 13.9768 268.25C13.9768 266.25 14.2768 264.05 14.8768 261.65C16.6768 254.65 21.6768 251.15 29.8768 251.15C31.3768 251.15 32.9268 251.25 34.5268 251.45C43.4268 252.55 50.1268 253.55 54.6268 254.45C57.2268 254.25 59.6268 254.15 61.8268 254.15C69.2268 254.25 74.9268 253.7 78.9268 252.5C85.8268 250.5 89.0268 246.55 88.5268 240.65C87.9268 234.25 82.4268 229.95 72.0268 227.75C67.9268 226.85 60.1768 226.2 48.7768 225.8C36.0768 225.3 26.4768 222.9 19.9768 218.6C12.0768 213.4 7.47676 204.9 6.17676 193.1C5.97676 191.2 5.87676 189.15 5.87676 186.95C5.87676 179.25 7.62676 172.05 11.1268 165.35C14.6268 158.55 18.7268 153.55 23.4268 150.35C27.7268 147.35 33.8768 145.1 41.8768 143.6C53.4768 141.5 63.0768 140.45 70.6768 140.45C72.5768 140.45 74.3268 140.5 75.9268 140.6L91.2268 142.1C99.8268 143 104.127 147.3 104.127 155C104.127 157.4 103.677 159.8 102.777 162.2C101.277 166.2 96.3268 168.2 87.9268 168.2C85.9268 168.2 83.4268 168.05 80.4268 167.75C75.5268 167.25 70.7768 167 66.1768 167C59.2768 167 53.2768 167.6 48.1768 168.8C39.7768 170.8 35.2268 175.65 34.5268 183.35C33.9268 190.25 35.7268 195.25 39.9268 198.35C43.0268 200.75 48.3268 202.35 55.8268 203.15C62.3268 203.45 68.1268 203.7 73.2268 203.9C87.5268 204.4 98.1268 207.25 105.027 212.45C108.527 215.15 111.677 220.05 114.477 227.15C116.977 233.45 118.427 239.25 118.827 244.55ZM194.843 140C200.943 140.5 205.543 141.15 208.643 141.95C213.243 143.25 217.393 145.4 221.093 148.4C225.293 151.9 228.193 155.6 229.793 159.5C232.693 166.5 234.443 173.25 235.043 179.75L236.543 195.05C237.143 201.15 237.493 206.3 237.593 210.5C237.693 217.1 237.243 225.2 236.243 234.8C243.043 236.6 250.393 238.95 258.293 241.85C259.793 242.65 260.893 244.1 261.593 246.2C262.293 248.2 262.543 250.15 262.343 252.05C262.343 253.35 262.193 254.3 261.893 254.9C261.593 255.9 261.293 256.85 260.993 257.75C260.593 259.45 259.043 260.75 256.343 261.65C253.743 262.65 251.493 263 249.593 262.7C247.793 262.7 246.343 262.5 245.243 262.1C238.143 260.6 234.243 259.75 233.543 259.55H233.093V260.15C232.493 263.15 231.143 267.1 229.043 272C225.643 279.8 218.793 284.9 208.493 287.3C199.593 289.3 192.243 290.15 186.443 289.85C176.643 289.25 167.893 288.2 160.193 286.7C148.493 284.4 141.143 278.25 138.143 268.25C137.743 266.85 136.893 261.9 135.593 253.4C134.493 245.8 133.793 236.85 133.493 226.55C133.393 217.65 133.293 208.7 133.193 199.7C133.093 190.9 135.043 179.5 139.043 165.5C143.943 148.2 159.243 139.55 184.943 139.55C188.043 139.55 191.343 139.7 194.843 140ZM210.443 229.1C210.443 194.1 205.093 174.95 194.393 171.65C189.593 170.15 182.943 170.15 174.443 171.65C165.643 173.25 160.243 183.15 158.243 201.35C157.043 211.85 157.043 224.55 158.243 239.45C159.443 254.15 166.193 262.4 178.493 264.2C183.193 264.9 187.193 265.25 190.493 265.25C196.193 265.25 200.093 264.35 202.193 262.55C205.693 259.65 207.443 257.1 207.443 254.9C199.343 253.9 191.293 252.15 183.293 249.65C180.093 248.65 177.443 247.15 175.343 245.15C173.243 243.05 172.743 240.95 173.843 238.85C175.343 233.85 177.743 231.05 181.043 230.45C186.043 229.55 191.493 229.5 197.393 230.3C204.493 231.2 208.843 231.75 210.443 231.95V229.1ZM389.981 249.8C388.881 270.5 377.731 282.8 356.531 286.7C348.931 288.1 342.131 288.8 336.131 288.8C323.831 288.8 312.381 285.25 301.781 278.15C293.381 272.55 288.181 264.75 286.181 254.75C285.281 250.25 284.031 239.8 282.431 223.4L278.531 183.5C278.031 178.4 277.781 173.6 277.781 169.1C277.781 161.1 278.681 155.2 280.481 151.4C283.281 145.6 287.981 142.8 294.581 143C301.981 143.3 306.931 146 309.431 151.1C310.931 154.1 311.931 160.1 312.431 169.1C312.831 175.2 312.831 184.7 312.431 197.6C312.131 210.1 312.231 219.6 312.731 226.1C313.531 236.9 314.831 243.95 316.631 247.25C320.131 253.65 327.181 257.3 337.781 258.2C342.081 258.6 346.231 257.25 350.231 254.15C354.331 250.95 356.881 242.15 357.881 227.75C358.181 221.05 358.631 211 359.231 197.6C359.631 189.2 359.481 178.3 358.781 164.9C358.081 151.7 362.431 144.5 371.831 143.3C373.331 143.1 374.681 143 375.881 143C382.581 143 387.631 145.65 391.031 150.95C393.931 155.45 395.381 161.2 395.381 168.2C395.381 171 395.181 173.65 394.781 176.15C393.181 186.25 392.081 198.5 391.481 212.9L389.981 249.8ZM464.533 142.25C474.433 145.05 480.133 148.9 481.633 153.8C482.333 156.1 482.683 158.35 482.683 160.55C482.683 163.25 482.133 165.75 481.033 168.05C478.833 172.75 476.233 175.9 473.233 177.5C471.233 178.6 468.483 179.15 464.983 179.15C463.083 179.15 460.933 179 458.533 178.7C459.033 184.3 459.283 190.25 459.283 196.55C459.283 201.55 459.733 210.2 460.633 222.5C461.433 233.9 461.733 242.5 461.533 248.3C461.433 250.9 461.433 252.85 461.533 254.15C461.633 257.45 462.183 258.95 463.183 258.65C476.183 257.05 483.633 260.2 485.533 268.1C485.833 269.4 485.983 270.65 485.983 271.85C485.983 277.85 482.733 282.45 476.233 285.65C471.533 288.05 465.683 289.5 458.683 290C448.083 290.8 440.083 290.6 434.683 289.4C427.383 287.8 422.133 285.7 418.933 283.1C414.433 279.6 412.433 274.55 412.933 267.95C413.633 258.95 418.033 254.45 426.133 254.45C427.633 254.45 429.183 254.65 430.783 255.05C430.983 255.05 432.333 255.3 434.833 255.8C435.233 251.2 435.233 244.5 434.833 235.7C434.433 225.8 434.283 219.05 434.383 215.45C434.583 210.75 434.483 204.6 434.083 197C433.683 188.7 433.483 182.55 433.483 178.55C423.583 177.35 418.083 176.65 416.983 176.45C414.883 175.85 412.983 174.3 411.283 171.8C409.283 168.9 408.333 163.7 408.433 156.2C408.533 148.9 415.383 144.05 428.983 141.65C435.283 140.55 441.183 140 446.683 140C453.183 140 459.133 140.75 464.533 142.25ZM617.454 220.1C617.454 231 615.804 241.75 612.504 252.35C611.304 256.25 607.904 261.65 602.304 268.55C594.904 277.55 584.204 284.05 570.204 288.05C566.004 289.25 561.404 289.9 556.404 290C542.904 290.3 532.204 288.7 524.304 285.2C513.304 280.4 505.704 257.7 501.504 217.1C499.804 201.2 499.154 189.65 499.554 182.45C500.154 169.65 501.554 161.05 503.754 156.65C507.254 149.55 514.254 144.7 524.754 142.1C532.954 140.1 540.504 139.1 547.404 139.1C550.904 139.1 554.354 139.4 557.754 140C566.754 141.6 574.754 144.15 581.754 147.65C588.854 151.15 594.454 155.45 598.554 160.55C601.654 164.35 605.154 170.65 609.054 179.45C609.254 180.05 609.554 180.6 609.954 181.1C614.954 193.3 617.454 206.3 617.454 220.1ZM554.304 178.55C551.004 177.85 547.904 177.5 545.004 177.5C541.804 177.5 539.104 178 536.904 179C532.604 181 529.854 188.15 528.654 200.45C527.954 208.75 527.954 217.05 528.654 225.35C529.454 234.55 530.354 241.15 531.354 245.15C532.454 249.05 535.054 252.1 539.154 254.3C542.754 256.2 546.804 257.15 551.304 257.15C554.604 257.15 558.104 256.6 561.804 255.5C569.704 253.1 575.504 248.95 579.204 243.05C582.304 238.05 584.204 231.05 584.904 222.05C585.604 213.05 582.854 204.05 576.654 195.05C570.454 185.95 563.004 180.45 554.304 178.55ZM716.736 171.95C718.836 185.65 720.286 195.1 721.086 200.3C723.286 214 724.436 221.35 724.536 222.35C725.136 228.25 725.586 231.5 725.886 232.1C726.386 236.5 726.736 239.8 726.936 242C727.536 248 728.186 251 728.886 251C729.186 251 729.386 250.55 729.486 249.65C729.986 246.95 730.636 240.3 731.436 229.7L733.836 192.8C734.836 177.3 735.836 166.95 736.836 161.75C739.936 147.15 745.286 139.85 752.886 139.85C759.586 139.85 764.486 142.7 767.586 148.4C770.186 153.1 771.236 159 770.736 166.1C768.936 192.5 765.336 218.55 759.936 244.25C753.936 272.45 746.436 287.55 737.436 289.55C733.636 290.45 730.686 290.6 728.586 290C726.586 289.5 723.636 287.7 719.736 284.6C713.736 279.8 708.786 268.15 704.886 249.65C703.086 241.15 701.436 230.65 699.936 218.15C699.036 211.15 697.886 200.6 696.486 186.5C694.586 206.9 693.136 219.7 692.136 224.9C691.336 229.1 690.336 236.55 689.136 247.25C687.136 265.15 684.336 276.5 680.736 281.3C678.836 283.9 675.286 286.1 670.086 287.9C668.086 288.6 666.086 288.95 664.086 288.95C660.886 288.95 657.886 288 655.086 286.1C650.486 283 647.486 279.7 646.086 276.2C643.586 270.1 641.436 262.85 639.636 254.45C638.036 245.65 636.736 238.25 635.736 232.25C634.336 223.55 632.686 209.5 630.786 190.1C629.186 173.6 628.586 162.3 628.986 156.2C629.386 149.5 631.886 144.9 636.486 142.4C638.886 141.1 641.136 140.45 643.236 140.45C650.736 140.45 656.036 147.3 659.136 161C660.536 167.1 661.636 176.9 662.436 190.4C663.636 210.3 664.436 221.95 664.836 225.35C666.136 235.75 666.886 241.75 667.086 243.35C667.086 245.95 667.286 247.25 667.686 247.25C667.986 247.25 668.136 246.75 668.136 245.75C671.136 232.05 672.986 220.6 673.686 211.4C674.986 195.3 676.636 181.95 678.636 171.35C681.936 153.95 688.136 145.35 697.236 145.55C701.836 145.65 705.436 147.05 708.036 149.75C710.036 151.75 711.986 155.2 713.886 160.1C714.986 163 715.936 166.95 716.736 171.95ZM845.993 140C864.893 141.7 877.943 157.2 885.143 186.5C886.743 192.9 888.693 204.4 890.993 221C892.793 233.9 893.693 245.7 893.693 256.4C893.693 263.7 892.743 270.4 890.843 276.5C888.143 285.5 883.943 290 878.243 290C873.043 290 869.193 288.85 866.693 286.55C864.193 284.25 862.593 280.45 861.893 275.15C861.193 269.95 860.743 261.5 860.543 249.8C860.343 238.7 859.743 230.15 858.743 224.15C856.343 209.25 852.493 201.7 847.193 201.5C841.693 201.3 837.443 201.7 834.443 202.7C828.443 204.7 824.743 209.7 823.343 217.7C822.643 221.6 822.543 228.3 823.043 237.8C823.743 252.4 824.443 262.55 825.143 268.25C825.343 269.85 825.443 271.2 825.443 272.3C825.443 284.3 820.493 290.3 810.593 290.3C809.593 290.3 808.293 290.2 806.693 290C798.693 289 793.443 284.45 790.943 276.35C789.343 271.25 788.843 263.75 789.443 253.85C790.343 238.35 790.893 229.1 791.093 226.1C791.593 218.8 793.443 207.05 796.643 190.85C799.443 176.75 802.243 166.15 805.043 159.05C807.743 152.35 812.493 147.35 819.293 144.05C825.193 141.15 832.093 139.7 839.993 139.7C841.793 139.7 843.793 139.8 845.993 140ZM853.193 174.65C853.393 173.95 853.493 173.2 853.493 172.4C853.493 165.8 849.293 162.2 840.893 161.6C835.493 161.2 831.143 162.7 827.843 166.1C825.643 168.3 824.543 170.45 824.543 172.55C824.543 173.55 824.893 174.65 825.593 175.85C827.193 178.55 829.543 180.2 832.643 180.8C833.643 181 836.643 181.1 841.643 181.1C847.843 181.1 851.693 178.95 853.193 174.65ZM921.756 149.45C927.356 144.55 939.706 141.4 958.806 140C969.406 139.2 981.656 139.9 995.556 142.1C1010.06 144.4 1018.71 151.65 1021.51 163.85C1022.81 169.55 1023.46 174.35 1023.46 178.25C1023.46 183.35 1022.46 187.65 1020.46 191.15C1012.16 205.45 998.006 212.7 978.006 212.9C975.006 212.9 970.606 212.7 964.806 212.3C959.006 211.8 954.706 211.55 951.906 211.55C950.806 211.55 950.256 211.9 950.256 212.6C950.256 213.7 951.356 215.45 953.556 217.85C960.956 225.75 967.056 232.6 971.856 238.4C978.756 246.6 983.956 252.7 987.456 256.7C994.656 265.5 998.256 272.15 998.256 276.65C998.256 281.45 995.656 285.1 990.456 287.6C988.556 288.5 986.656 288.95 984.756 288.95C978.556 288.95 972.256 285.55 965.856 278.75C961.156 273.65 957.006 267.55 953.406 260.45L935.256 224C937.356 244.6 938.356 257.05 938.256 261.35C938.156 269.05 938.156 273.3 938.256 274.1C938.256 276.6 937.656 279.3 936.456 282.2C935.256 285.1 933.556 287.1 931.356 288.2C929.756 289 927.106 289.6 923.406 290C916.406 290.8 912.906 285 912.906 272.6C912.506 270.3 912.206 267.55 912.006 264.35C910.506 240.75 909.806 220.8 909.906 204.5C910.006 193.3 910.156 185.55 910.356 181.25C911.256 164.65 915.056 154.05 921.756 149.45ZM970.356 166.4C966.456 164.6 962.606 163.7 958.806 163.7C954.906 163.7 951.356 164.75 948.156 166.85C943.456 169.85 941.056 174.1 940.956 179.6C940.856 186.8 944.656 190.6 952.356 191C967.456 191.8 975.806 188.5 977.406 181.1C978.906 174.1 976.556 169.2 970.356 166.4ZM1155.49 220.1C1155.49 231 1153.84 241.75 1150.54 252.35C1149.34 256.25 1145.94 261.65 1140.34 268.55C1132.94 277.55 1122.24 284.05 1108.24 288.05C1104.04 289.25 1099.44 289.9 1094.44 290C1080.94 290.3 1070.24 288.7 1062.34 285.2C1051.34 280.4 1043.74 257.7 1039.54 217.1C1037.84 201.2 1037.19 189.65 1037.59 182.45C1038.19 169.65 1039.59 161.05 1041.79 156.65C1045.29 149.55 1052.29 144.7 1062.79 142.1C1070.99 140.1 1078.54 139.1 1085.44 139.1C1088.94 139.1 1092.39 139.4 1095.79 140C1104.79 141.6 1112.79 144.15 1119.79 147.65C1126.89 151.15 1132.49 155.45 1136.59 160.55C1139.69 164.35 1143.19 170.65 1147.09 179.45C1147.29 180.05 1147.59 180.6 1147.99 181.1C1152.99 193.3 1155.49 206.3 1155.49 220.1ZM1092.34 178.55C1089.04 177.85 1085.94 177.5 1083.04 177.5C1079.84 177.5 1077.14 178 1074.94 179C1070.64 181 1067.89 188.15 1066.69 200.45C1065.99 208.75 1065.99 217.05 1066.69 225.35C1067.49 234.55 1068.39 241.15 1069.39 245.15C1070.49 249.05 1073.09 252.1 1077.19 254.3C1080.79 256.2 1084.84 257.15 1089.34 257.15C1092.64 257.15 1096.14 256.6 1099.84 255.5C1107.74 253.1 1113.54 248.95 1117.24 243.05C1120.34 238.05 1122.24 231.05 1122.94 222.05C1123.64 213.05 1120.89 204.05 1114.69 195.05C1108.49 185.95 1101.04 180.45 1092.34 178.55Z" fill="#1D1D1E"/>
</g>
<g style="mix-blend-mode:difference">
<path d="M454.8 4.6C465.637 4.94133 471.995 7.92799 473.872 13.56C474.555 15.6933 474.512 18.04 473.744 20.6C471.525 27.512 466.619 31.224 459.024 31.736C459.024 40.3547 459.152 47.864 459.408 54.264C459.664 60.3227 459.536 71.544 459.024 87.928C458.597 102.947 456.763 113.443 453.52 119.416C450.96 124.109 448.059 127.395 444.816 129.272C441.659 131.235 437.349 132.301 431.888 132.472C428.987 132.557 425.787 132.557 422.288 132.472C418.533 132.387 413.584 131.107 407.44 128.632C394.043 123.256 386.107 115.747 383.632 106.104C382.949 103.459 382.907 100.557 383.504 97.4C384.187 93.9013 385.509 91.3413 387.472 89.72C389.349 88.5253 391.483 87.8427 393.872 87.672C396.091 87.5867 398.309 87.8 400.528 88.312C402.747 88.824 405.264 90.4027 408.08 93.048C410.213 95.1813 412.389 97.3147 414.608 99.448C419.472 103.459 422.757 105.677 424.464 106.104C426.171 106.531 428.219 106.616 430.608 106.36C433.168 106.019 434.576 104.312 434.832 101.24L436.112 82.808C436.709 74.1893 437.008 67.704 437.008 63.352C437.008 62.9253 437.008 62.2 437.008 61.176C436.923 59.8107 436.88 58.744 436.88 57.976C436.88 57.976 436.88 56.184 436.88 52.6C436.197 45.0907 435.643 38.7333 435.216 33.528C434.619 33.6133 433.979 33.656 433.296 33.656C428.688 33.656 424.507 32.5467 420.752 30.328C416.4 27.6827 414.224 24.2267 414.224 19.96C414.224 18.936 414.309 17.9547 414.48 17.016C415.589 10.872 418.832 7.416 424.208 6.64799C435.131 5.02666 445.328 4.344 454.8 4.6ZM490.698 26.36C494.879 11.5973 507.935 4.216 529.866 4.216C532.597 4.216 535.455 4.344 538.442 4.6C544.074 5.02666 548.255 5.624 550.986 6.392C554.314 7.33066 557.727 9.25066 561.226 12.152C564.725 15.0533 567.114 18.0827 568.394 21.24C570.869 27.2133 572.319 32.9733 572.746 38.52C572.917 41.1653 573.343 45.5173 574.026 51.576C574.623 56.8667 574.922 61.3467 574.922 65.016C575.007 74.1467 573.727 88.2267 571.082 107.256C570.826 109.048 569.674 112.376 567.626 117.24C565.237 122.957 560.074 127.181 552.138 129.912C546.677 131.789 541.045 132.728 535.242 132.728C533.962 132.728 532.682 132.685 531.402 132.6C525.258 132.173 521.333 131.789 519.626 131.448C516.554 130.851 512.671 129.656 507.978 127.864C504.735 126.669 501.365 124.237 497.866 120.568C494.026 116.472 492.106 112.931 492.106 109.944L488.01 93.944C486.901 89.6773 486.261 83.32 486.09 74.872C486.005 68.3867 485.962 61.9013 485.962 55.416C485.877 47.48 487.455 37.7947 490.698 26.36ZM537.546 31.352C532.767 29.9867 527.733 29.9867 522.442 31.352C516.81 32.7173 513.226 39.7147 511.69 52.344C510.922 58.488 510.538 64.376 510.538 70.008C510.538 76.2373 511.05 82.68 512.074 89.336C513.951 101.368 518.303 108.024 525.13 109.304C527.007 109.645 528.885 109.816 530.762 109.816C535.029 109.816 538.57 108.792 541.386 106.744C545.397 103.843 548.127 94.8827 549.578 79.864C550.09 74.5733 550.346 69.7093 550.346 65.272C550.346 58.2747 549.578 51.8747 548.042 46.072C545.823 37.624 542.325 32.7173 537.546 31.352ZM638.376 6.52C646.824 8.90933 651.688 12.1947 652.968 16.376C653.565 18.3387 653.864 20.2587 653.864 22.136C653.864 24.44 653.395 26.5733 652.456 28.536C650.579 32.5467 648.36 35.2347 645.8 36.6C644.093 37.5387 641.747 38.008 638.76 38.008C637.139 38.008 635.304 37.88 633.256 37.624C633.683 42.4027 633.896 47.48 633.896 52.856C633.896 57.1227 634.28 64.504 635.048 75C635.731 84.728 635.987 92.0667 635.816 97.016C635.731 99.2347 635.731 100.899 635.816 102.008C635.901 104.824 636.371 106.104 637.224 105.848C648.317 104.483 654.675 107.171 656.296 113.912C656.552 115.021 656.68 116.088 656.68 117.112C656.68 122.232 653.907 126.157 648.36 128.888C644.349 130.936 639.357 132.173 633.384 132.6C624.339 133.283 617.512 133.112 612.904 132.088C606.675 130.723 602.195 128.931 599.464 126.712C595.624 123.725 593.917 119.416 594.344 113.784C594.941 106.104 598.696 102.264 605.608 102.264C606.888 102.264 608.211 102.435 609.576 102.776C609.747 102.776 610.899 102.989 613.032 103.416C613.373 99.4907 613.373 93.7733 613.032 86.264C612.691 77.816 612.563 72.056 612.648 68.984C612.819 64.9733 612.733 59.7253 612.392 53.24C612.051 46.1573 611.88 40.9093 611.88 37.496C603.432 36.472 598.739 35.8747 597.8 35.704C596.008 35.192 594.387 33.8693 592.936 31.736C591.229 29.2613 590.419 24.824 590.504 18.424C590.589 12.1947 596.435 8.05599 608.04 6.008C613.416 5.06933 618.451 4.6 623.144 4.6C628.691 4.6 633.768 5.24 638.376 6.52ZM697.188 7.672C704.271 10.0613 711.183 17.8693 717.924 31.096C720.996 37.1547 725.135 47.3947 730.34 61.816C733.583 71.1173 736.015 78.072 737.636 82.68C741.049 92.152 743.908 98.8933 746.212 102.904C746.724 103.843 747.236 104.312 747.748 104.312C748.431 104.312 748.857 102.819 749.028 99.832C749.369 94.712 748.857 83.7467 747.492 66.936C746.127 50.1253 745.529 35.448 745.7 22.904C745.871 10.7013 750.607 4.6 759.908 4.6C771.343 4.6 777.06 13.9013 777.06 32.504C777.06 34.808 776.932 38.264 776.676 42.872C776.42 47.48 776.292 50.936 776.292 53.24C776.292 76.1093 774.799 95.0533 771.812 110.072C770.532 116.472 768.996 121.123 767.204 124.024C764.729 128.035 760.719 130.595 755.172 131.704C753.465 132.045 751.673 132.216 749.796 132.216C745.188 132.216 741.177 130.893 737.764 128.248C729.743 122.019 721.295 106.872 712.42 82.808C707.983 70.776 704.868 62.072 703.076 56.696C700.772 49.6987 698.511 46.2 696.292 46.2C695.865 46.2 695.481 46.328 695.14 46.584C691.812 48.2907 690.148 51.8747 690.148 57.336C690.148 58.5307 690.191 59.5973 690.276 60.536C692.324 82.6373 694.372 98.3387 696.42 107.64C697.188 111.139 697.572 114.168 697.572 116.728C697.572 120.824 696.676 124.365 694.884 127.352C692.751 130.851 689.764 132.6 685.924 132.6C679.865 132.6 675.769 130.595 673.636 126.584C670.308 120.44 668.644 105.08 668.644 80.504C668.644 62.7547 668.559 52.1733 668.388 48.76C668.217 45.2613 668.132 41.7627 668.132 38.264C668.132 26.744 669.156 19.2773 671.204 15.864C675.3 8.952 680.292 5.49599 686.18 5.49599C689.167 5.49599 692.836 6.22133 697.188 7.672Z" fill="#1D1D1E"/>
</g>
</svg>
