<svg width="749" height="293" viewBox="0 0 749 293" fill="none" xmlns="http://www.w3.org/2000/svg">
<g style="mix-blend-mode:difference">
<path d="M68.1789 201.8C70.9789 202 74.2289 202.45 77.9289 203.15C91.7289 205.85 101.329 209.05 106.729 212.75C114.929 218.35 119.029 227.15 119.029 239.15C119.029 249.55 114.879 257.7 106.579 263.6C101.779 267.1 95.3289 270.2 87.2289 272.9C78.6289 275.9 71.6789 277.2 66.3789 276.8C66.4789 277.6 66.5289 278.4 66.5289 279.2C66.5289 287.5 62.3289 291.65 53.9289 291.65C49.8289 291.65 46.9789 290.35 45.3789 287.75C44.0789 285.85 43.3289 282.7 43.1289 278.3C33.9289 277.9 27.3789 276.95 23.4789 275.45C16.4789 272.75 12.9789 267.8 12.9789 260.6C12.9789 257.1 15.6789 254.45 21.0789 252.65C30.3789 253.85 36.9789 254.45 40.8789 254.45C41.8789 254.45 42.7289 254.4 43.4289 254.3C43.5289 253.3 43.7789 249.1 44.1789 241.7C44.1789 241.6 44.4289 238.45 44.9289 232.25C45.2289 228.45 45.3789 225.35 45.3789 222.95C39.6789 222.65 33.8289 221.8 27.8289 220.4C20.0289 218.6 14.7789 216.45 12.0789 213.95C6.27891 208.55 3.37891 202.5 3.37891 195.8C3.37891 183.8 6.02891 175.4 11.3289 170.6C20.5289 162.3 31.7289 157.5 44.9289 156.2C45.9289 152.5 46.9289 148.75 47.9289 144.95C49.7289 140.65 52.4789 138.5 56.1789 138.5C60.0789 138.5 63.2789 140.5 65.7789 144.5C67.8789 147.8 69.1289 151.6 69.5289 155.9C75.2289 156.1 79.3789 156.4 81.9789 156.8C86.4789 157.3 90.5289 158.25 94.1289 159.65C100.529 162.15 103.729 165.1 103.729 168.5C103.729 173.6 102.329 176.55 99.5289 177.35C95.4289 178.55 90.6289 179.15 85.1289 179.15C80.3289 179.15 75.1789 178.9 69.6789 178.4C69.2789 183.1 68.7789 190.9 68.1789 201.8ZM46.7289 190.55C46.7289 187.35 46.4789 183.55 45.9789 179.15C39.1789 178.95 33.7789 180.35 29.7789 183.35C26.5789 185.65 24.9789 188.35 24.9789 191.45C24.9789 197.15 29.6789 200 39.0789 200C41.8789 200 43.2789 200 43.2789 200C43.8789 200 44.5789 199.95 45.3789 199.85C46.0789 199.85 46.4789 199.85 46.5789 199.85C46.5789 199.55 46.5789 198.95 46.5789 198.05C46.6789 196.85 46.7289 195.9 46.7289 195.2C46.7289 195.2 46.7289 193.65 46.7289 190.55ZM66.9789 222.2C66.1789 226.9 65.7789 237.35 65.7789 253.55C76.4789 252.65 83.0289 251.7 85.4289 250.7C91.3289 248.2 94.2789 242.75 94.2789 234.35C94.2789 231.95 92.4789 229.7 88.8789 227.6C83.2789 224.3 75.9789 222.5 66.9789 222.2ZM242.662 244.55C242.962 249.55 242.062 254.95 239.962 260.75C237.962 266.65 236.112 270.3 234.412 271.7C231.412 274.2 229.112 276 227.512 277.1C224.712 279 222.112 280.4 219.712 281.3C212.912 283.9 202.212 286.15 187.612 288.05C181.012 288.95 176.112 289.2 172.912 288.8C166.012 288.1 160.812 287.55 157.312 287.15C152.212 286.35 147.462 284.05 143.062 280.25C139.562 277.25 137.812 273.25 137.812 268.25C137.812 266.25 138.112 264.05 138.712 261.65C140.512 254.65 145.512 251.15 153.712 251.15C155.212 251.15 156.762 251.25 158.362 251.45C167.262 252.55 173.962 253.55 178.462 254.45C181.062 254.25 183.462 254.15 185.662 254.15C193.062 254.25 198.762 253.7 202.762 252.5C209.662 250.5 212.862 246.55 212.362 240.65C211.762 234.25 206.262 229.95 195.862 227.75C191.762 226.85 184.012 226.2 172.612 225.8C159.912 225.3 150.312 222.9 143.812 218.6C135.912 213.4 131.312 204.9 130.012 193.1C129.812 191.2 129.712 189.15 129.712 186.95C129.712 179.25 131.462 172.05 134.962 165.35C138.462 158.55 142.562 153.55 147.262 150.35C151.562 147.35 157.712 145.1 165.712 143.6C177.312 141.5 186.912 140.45 194.512 140.45C196.412 140.45 198.162 140.5 199.762 140.6L215.062 142.1C223.662 143 227.962 147.3 227.962 155C227.962 157.4 227.512 159.8 226.612 162.2C225.112 166.2 220.162 168.2 211.762 168.2C209.762 168.2 207.262 168.05 204.262 167.75C199.362 167.25 194.612 167 190.012 167C183.112 167 177.112 167.6 172.012 168.8C163.612 170.8 159.062 175.65 158.362 183.35C157.762 190.25 159.562 195.25 163.762 198.35C166.862 200.75 172.162 202.35 179.662 203.15C186.162 203.45 191.962 203.7 197.062 203.9C211.362 204.4 221.962 207.25 228.862 212.45C232.362 215.15 235.512 220.05 238.312 227.15C240.812 233.45 242.262 239.25 242.662 244.55ZM318.678 140C324.778 140.5 329.378 141.15 332.478 141.95C337.078 143.25 341.228 145.4 344.928 148.4C349.128 151.9 352.028 155.6 353.628 159.5C356.528 166.5 358.278 173.25 358.878 179.75L360.378 195.05C360.978 201.15 361.328 206.3 361.428 210.5C361.528 217.1 361.078 225.2 360.078 234.8C366.878 236.6 374.228 238.95 382.128 241.85C383.628 242.65 384.728 244.1 385.428 246.2C386.128 248.2 386.378 250.15 386.178 252.05C386.178 253.35 386.028 254.3 385.728 254.9C385.428 255.9 385.128 256.85 384.828 257.75C384.428 259.45 382.878 260.75 380.178 261.65C377.578 262.65 375.328 263 373.428 262.7C371.628 262.7 370.178 262.5 369.078 262.1C361.978 260.6 358.078 259.75 357.378 259.55H356.928V260.15C356.328 263.15 354.978 267.1 352.878 272C349.478 279.8 342.628 284.9 332.328 287.3C323.428 289.3 316.078 290.15 310.278 289.85C300.478 289.25 291.728 288.2 284.028 286.7C272.328 284.4 264.978 278.25 261.978 268.25C261.578 266.85 260.728 261.9 259.428 253.4C258.328 245.8 257.628 236.85 257.328 226.55C257.228 217.65 257.128 208.7 257.028 199.7C256.928 190.9 258.878 179.5 262.878 165.5C267.778 148.2 283.078 139.55 308.778 139.55C311.878 139.55 315.178 139.7 318.678 140ZM334.278 229.1C334.278 194.1 328.928 174.95 318.228 171.65C313.428 170.15 306.778 170.15 298.278 171.65C289.478 173.25 284.078 183.15 282.078 201.35C280.878 211.85 280.878 224.55 282.078 239.45C283.278 254.15 290.028 262.4 302.328 264.2C307.028 264.9 311.028 265.25 314.328 265.25C320.028 265.25 323.928 264.35 326.028 262.55C329.528 259.65 331.278 257.1 331.278 254.9C323.178 253.9 315.128 252.15 307.128 249.65C303.928 248.65 301.278 247.15 299.178 245.15C297.078 243.05 296.578 240.95 297.678 238.85C299.178 233.85 301.578 231.05 304.878 230.45C309.878 229.55 315.328 229.5 321.228 230.3C328.328 231.2 332.678 231.75 334.278 231.95V229.1ZM513.816 249.8C512.716 270.5 501.566 282.8 480.366 286.7C472.766 288.1 465.966 288.8 459.966 288.8C447.666 288.8 436.216 285.25 425.616 278.15C417.216 272.55 412.016 264.75 410.016 254.75C409.116 250.25 407.866 239.8 406.266 223.4L402.366 183.5C401.866 178.4 401.616 173.6 401.616 169.1C401.616 161.1 402.516 155.2 404.316 151.4C407.116 145.6 411.816 142.8 418.416 143C425.816 143.3 430.766 146 433.266 151.1C434.766 154.1 435.766 160.1 436.266 169.1C436.666 175.2 436.666 184.7 436.266 197.6C435.966 210.1 436.066 219.6 436.566 226.1C437.366 236.9 438.666 243.95 440.466 247.25C443.966 253.65 451.016 257.3 461.616 258.2C465.916 258.6 470.066 257.25 474.066 254.15C478.166 250.95 480.716 242.15 481.716 227.75C482.016 221.05 482.466 211 483.066 197.6C483.466 189.2 483.316 178.3 482.616 164.9C481.916 151.7 486.266 144.5 495.666 143.3C497.166 143.1 498.516 143 499.716 143C506.416 143 511.466 145.65 514.866 150.95C517.766 155.45 519.216 161.2 519.216 168.2C519.216 171 519.016 173.65 518.616 176.15C517.016 186.25 515.916 198.5 515.316 212.9L513.816 249.8ZM588.368 142.25C598.268 145.05 603.968 148.9 605.468 153.8C606.168 156.1 606.518 158.35 606.518 160.55C606.518 163.25 605.968 165.75 604.868 168.05C602.668 172.75 600.068 175.9 597.068 177.5C595.068 178.6 592.318 179.15 588.818 179.15C586.918 179.15 584.768 179 582.368 178.7C582.868 184.3 583.118 190.25 583.118 196.55C583.118 201.55 583.568 210.2 584.468 222.5C585.268 233.9 585.568 242.5 585.368 248.3C585.268 250.9 585.268 252.85 585.368 254.15C585.468 257.45 586.018 258.95 587.018 258.65C600.018 257.05 607.468 260.2 609.368 268.1C609.668 269.4 609.818 270.65 609.818 271.85C609.818 277.85 606.568 282.45 600.068 285.65C595.368 288.05 589.518 289.5 582.518 290C571.918 290.8 563.918 290.6 558.518 289.4C551.218 287.8 545.968 285.7 542.768 283.1C538.268 279.6 536.268 274.55 536.768 267.95C537.468 258.95 541.868 254.45 549.968 254.45C551.468 254.45 553.018 254.65 554.618 255.05C554.818 255.05 556.168 255.3 558.668 255.8C559.068 251.2 559.068 244.5 558.668 235.7C558.268 225.8 558.118 219.05 558.218 215.45C558.418 210.75 558.318 204.6 557.918 197C557.518 188.7 557.318 182.55 557.318 178.55C547.418 177.35 541.918 176.65 540.818 176.45C538.718 175.85 536.818 174.3 535.118 171.8C533.118 168.9 532.168 163.7 532.268 156.2C532.368 148.9 539.218 144.05 552.818 141.65C559.118 140.55 565.018 140 570.518 140C577.018 140 582.968 140.75 588.368 142.25ZM741.289 220.1C741.289 231 739.639 241.75 736.339 252.35C735.139 256.25 731.739 261.65 726.139 268.55C718.739 277.55 708.039 284.05 694.039 288.05C689.839 289.25 685.239 289.9 680.239 290C666.739 290.3 656.039 288.7 648.139 285.2C637.139 280.4 629.539 257.7 625.339 217.1C623.639 201.2 622.989 189.65 623.389 182.45C623.989 169.65 625.389 161.05 627.589 156.65C631.089 149.55 638.089 144.7 648.589 142.1C656.789 140.1 664.339 139.1 671.239 139.1C674.739 139.1 678.189 139.4 681.589 140C690.589 141.6 698.589 144.15 705.589 147.65C712.689 151.15 718.289 155.45 722.389 160.55C725.489 164.35 728.989 170.65 732.889 179.45C733.089 180.05 733.389 180.6 733.789 181.1C738.789 193.3 741.289 206.3 741.289 220.1ZM678.139 178.55C674.839 177.85 671.739 177.5 668.839 177.5C665.639 177.5 662.939 178 660.739 179C656.439 181 653.689 188.15 652.489 200.45C651.789 208.75 651.789 217.05 652.489 225.35C653.289 234.55 654.189 241.15 655.189 245.15C656.289 249.05 658.889 252.1 662.989 254.3C666.589 256.2 670.639 257.15 675.139 257.15C678.439 257.15 681.939 256.6 685.639 255.5C693.539 253.1 699.339 248.95 703.039 243.05C706.139 238.05 708.039 231.05 708.739 222.05C709.439 213.05 706.689 204.05 700.489 195.05C694.289 185.95 686.839 180.45 678.139 178.55Z" fill="#1D1D1E"/>
</g>
<g style="mix-blend-mode:difference">
<path d="M247.8 4.6C258.637 4.94133 264.995 7.92799 266.872 13.56C267.555 15.6933 267.512 18.04 266.744 20.6C264.525 27.512 259.619 31.224 252.024 31.736C252.024 40.3547 252.152 47.864 252.408 54.264C252.664 60.3227 252.536 71.544 252.024 87.928C251.597 102.947 249.763 113.443 246.52 119.416C243.96 124.109 241.059 127.395 237.816 129.272C234.659 131.235 230.349 132.301 224.888 132.472C221.987 132.557 218.787 132.557 215.288 132.472C211.533 132.387 206.584 131.107 200.44 128.632C187.043 123.256 179.107 115.747 176.632 106.104C175.949 103.459 175.907 100.557 176.504 97.4C177.187 93.9013 178.509 91.3413 180.472 89.72C182.349 88.5253 184.483 87.8427 186.872 87.672C189.091 87.5867 191.309 87.8 193.528 88.312C195.747 88.824 198.264 90.4027 201.08 93.048C203.213 95.1813 205.389 97.3147 207.608 99.448C212.472 103.459 215.757 105.677 217.464 106.104C219.171 106.531 221.219 106.616 223.608 106.36C226.168 106.019 227.576 104.312 227.832 101.24L229.112 82.808C229.709 74.1893 230.008 67.704 230.008 63.352C230.008 62.9253 230.008 62.2 230.008 61.176C229.923 59.8107 229.88 58.744 229.88 57.976C229.88 57.976 229.88 56.184 229.88 52.6C229.197 45.0907 228.643 38.7333 228.216 33.528C227.619 33.6133 226.979 33.656 226.296 33.656C221.688 33.656 217.507 32.5467 213.752 30.328C209.4 27.6827 207.224 24.2267 207.224 19.96C207.224 18.936 207.309 17.9547 207.48 17.016C208.589 10.872 211.832 7.416 217.208 6.64799C228.131 5.02666 238.328 4.344 247.8 4.6ZM283.698 26.36C287.879 11.5973 300.935 4.216 322.866 4.216C325.597 4.216 328.455 4.344 331.442 4.6C337.074 5.02666 341.255 5.624 343.986 6.392C347.314 7.33066 350.727 9.25066 354.226 12.152C357.725 15.0533 360.114 18.0827 361.394 21.24C363.869 27.2133 365.319 32.9733 365.746 38.52C365.917 41.1653 366.343 45.5173 367.026 51.576C367.623 56.8667 367.922 61.3467 367.922 65.016C368.007 74.1467 366.727 88.2267 364.082 107.256C363.826 109.048 362.674 112.376 360.626 117.24C358.237 122.957 353.074 127.181 345.138 129.912C339.677 131.789 334.045 132.728 328.242 132.728C326.962 132.728 325.682 132.685 324.402 132.6C318.258 132.173 314.333 131.789 312.626 131.448C309.554 130.851 305.671 129.656 300.978 127.864C297.735 126.669 294.365 124.237 290.866 120.568C287.026 116.472 285.106 112.931 285.106 109.944L281.01 93.944C279.901 89.6773 279.261 83.32 279.09 74.872C279.005 68.3867 278.962 61.9013 278.962 55.416C278.877 47.48 280.455 37.7947 283.698 26.36ZM330.546 31.352C325.767 29.9867 320.733 29.9867 315.442 31.352C309.81 32.7173 306.226 39.7147 304.69 52.344C303.922 58.488 303.538 64.376 303.538 70.008C303.538 76.2373 304.05 82.68 305.074 89.336C306.951 101.368 311.303 108.024 318.13 109.304C320.007 109.645 321.885 109.816 323.762 109.816C328.029 109.816 331.57 108.792 334.386 106.744C338.397 103.843 341.127 94.8827 342.578 79.864C343.09 74.5733 343.346 69.7093 343.346 65.272C343.346 58.2747 342.578 51.8747 341.042 46.072C338.823 37.624 335.325 32.7173 330.546 31.352ZM431.376 6.52C439.824 8.90933 444.688 12.1947 445.968 16.376C446.565 18.3387 446.864 20.2587 446.864 22.136C446.864 24.44 446.395 26.5733 445.456 28.536C443.579 32.5467 441.36 35.2347 438.8 36.6C437.093 37.5387 434.747 38.008 431.76 38.008C430.139 38.008 428.304 37.88 426.256 37.624C426.683 42.4027 426.896 47.48 426.896 52.856C426.896 57.1227 427.28 64.504 428.048 75C428.731 84.728 428.987 92.0667 428.816 97.016C428.731 99.2347 428.731 100.899 428.816 102.008C428.901 104.824 429.371 106.104 430.224 105.848C441.317 104.483 447.675 107.171 449.296 113.912C449.552 115.021 449.68 116.088 449.68 117.112C449.68 122.232 446.907 126.157 441.36 128.888C437.349 130.936 432.357 132.173 426.384 132.6C417.339 133.283 410.512 133.112 405.904 132.088C399.675 130.723 395.195 128.931 392.464 126.712C388.624 123.725 386.917 119.416 387.344 113.784C387.941 106.104 391.696 102.264 398.608 102.264C399.888 102.264 401.211 102.435 402.576 102.776C402.747 102.776 403.899 102.989 406.032 103.416C406.373 99.4907 406.373 93.7733 406.032 86.264C405.691 77.816 405.563 72.056 405.648 68.984C405.819 64.9733 405.733 59.7253 405.392 53.24C405.051 46.1573 404.88 40.9093 404.88 37.496C396.432 36.472 391.739 35.8747 390.8 35.704C389.008 35.192 387.387 33.8693 385.936 31.736C384.229 29.2613 383.419 24.824 383.504 18.424C383.589 12.1947 389.435 8.05599 401.04 6.008C406.416 5.06933 411.451 4.6 416.144 4.6C421.691 4.6 426.768 5.24 431.376 6.52ZM490.188 7.672C497.271 10.0613 504.183 17.8693 510.924 31.096C513.996 37.1547 518.135 47.3947 523.34 61.816C526.583 71.1173 529.015 78.072 530.636 82.68C534.049 92.152 536.908 98.8933 539.212 102.904C539.724 103.843 540.236 104.312 540.748 104.312C541.431 104.312 541.857 102.819 542.028 99.832C542.369 94.712 541.857 83.7467 540.492 66.936C539.127 50.1253 538.529 35.448 538.7 22.904C538.871 10.7013 543.607 4.6 552.908 4.6C564.343 4.6 570.06 13.9013 570.06 32.504C570.06 34.808 569.932 38.264 569.676 42.872C569.42 47.48 569.292 50.936 569.292 53.24C569.292 76.1093 567.799 95.0533 564.812 110.072C563.532 116.472 561.996 121.123 560.204 124.024C557.729 128.035 553.719 130.595 548.172 131.704C546.465 132.045 544.673 132.216 542.796 132.216C538.188 132.216 534.177 130.893 530.764 128.248C522.743 122.019 514.295 106.872 505.42 82.808C500.983 70.776 497.868 62.072 496.076 56.696C493.772 49.6987 491.511 46.2 489.292 46.2C488.865 46.2 488.481 46.328 488.14 46.584C484.812 48.2907 483.148 51.8747 483.148 57.336C483.148 58.5307 483.191 59.5973 483.276 60.536C485.324 82.6373 487.372 98.3387 489.42 107.64C490.188 111.139 490.572 114.168 490.572 116.728C490.572 120.824 489.676 124.365 487.884 127.352C485.751 130.851 482.764 132.6 478.924 132.6C472.865 132.6 468.769 130.595 466.636 126.584C463.308 120.44 461.644 105.08 461.644 80.504C461.644 62.7547 461.559 52.1733 461.388 48.76C461.217 45.2613 461.132 41.7627 461.132 38.264C461.132 26.744 462.156 19.2773 464.204 15.864C468.3 8.952 473.292 5.49599 479.18 5.49599C482.167 5.49599 485.836 6.22133 490.188 7.672Z" fill="#1D1D1E"/>
</g>
</svg>
