<svg width="415" height="83" viewBox="0 0 415 83" fill="none" xmlns="http://www.w3.org/2000/svg">
<rect x="0.325928" y="0.142334" width="414.674" height="82" rx="10" fill="#48817B"/>
<path d="M64.7637 23.0184C67.473 23.1037 69.0624 23.8504 69.5317 25.2584C69.7024 25.7917 69.6917 26.3784 69.4997 27.0184C68.945 28.7464 67.7184 29.6744 65.8197 29.8024C65.8197 31.9571 65.8517 33.8344 65.9157 35.4344C65.9797 36.9491 65.9477 39.7544 65.8197 43.8504C65.713 47.6051 65.2544 50.2291 64.4437 51.7224C63.8037 52.8957 63.0784 53.7171 62.2677 54.1864C61.4784 54.6771 60.401 54.9437 59.0357 54.9864C58.3104 55.0077 57.5104 55.0077 56.6357 54.9864C55.697 54.9651 54.4597 54.6451 52.9237 54.0264C49.5744 52.6824 47.5904 50.8051 46.9717 48.3944C46.801 47.7331 46.7904 47.0077 46.9397 46.2184C47.1104 45.3437 47.441 44.7037 47.9317 44.2984C48.401 43.9997 48.9344 43.8291 49.5317 43.7864C50.0864 43.7651 50.641 43.8184 51.1957 43.9464C51.7504 44.0744 52.3797 44.4691 53.0837 45.1304C53.617 45.6637 54.161 46.1971 54.7157 46.7304C55.9317 47.7331 56.753 48.2877 57.1797 48.3944C57.6064 48.5011 58.1184 48.5224 58.7157 48.4584C59.3557 48.3731 59.7077 47.9464 59.7717 47.1784L60.0917 42.5704C60.241 40.4157 60.3157 38.7944 60.3157 37.7064C60.3157 37.5997 60.3157 37.4184 60.3157 37.1624C60.2944 36.8211 60.2837 36.5544 60.2837 36.3624C60.2837 36.3624 60.2837 35.9144 60.2837 35.0184C60.113 33.1411 59.9744 31.5517 59.8677 30.2504C59.7184 30.2717 59.5584 30.2824 59.3877 30.2824C58.2357 30.2824 57.1904 30.0051 56.2517 29.4504C55.1637 28.7891 54.6197 27.9251 54.6197 26.8584C54.6197 26.6024 54.641 26.3571 54.6837 26.1224C54.961 24.5864 55.7717 23.7224 57.1157 23.5304C59.8464 23.1251 62.3957 22.9544 64.7637 23.0184ZM73.7382 28.4584C74.7835 24.7677 78.0475 22.9224 83.5302 22.9224C84.2129 22.9224 84.9275 22.9544 85.6742 23.0184C87.0822 23.1251 88.1275 23.2744 88.8102 23.4664C89.6422 23.7011 90.4955 24.1811 91.3702 24.9064C92.2449 25.6317 92.8422 26.3891 93.1622 27.1784C93.7809 28.6717 94.1435 30.1117 94.2502 31.4984C94.2929 32.1597 94.3995 33.2477 94.5702 34.7624C94.7195 36.0851 94.7942 37.2051 94.7942 38.1224C94.8155 40.4051 94.4955 43.9251 93.8342 48.6824C93.7702 49.1304 93.4822 49.9624 92.9702 51.1784C92.3729 52.6077 91.0822 53.6637 89.0982 54.3464C87.7329 54.8157 86.3249 55.0504 84.8742 55.0504C84.5542 55.0504 84.2342 55.0397 83.9142 55.0184C82.3782 54.9117 81.3969 54.8157 80.9702 54.7304C80.2022 54.5811 79.2315 54.2824 78.0582 53.8344C77.2475 53.5357 76.4049 52.9277 75.5302 52.0104C74.5702 50.9864 74.0902 50.1011 74.0902 49.3544L73.0662 45.3544C72.7889 44.2877 72.6289 42.6984 72.5862 40.5864C72.5649 38.9651 72.5542 37.3437 72.5542 35.7224C72.5329 33.7384 72.9275 31.3171 73.7382 28.4584ZM85.4502 29.7064C84.2555 29.3651 82.9969 29.3651 81.6742 29.7064C80.2662 30.0477 79.3702 31.7971 78.9862 34.9544C78.7942 36.4904 78.6982 37.9624 78.6982 39.3704C78.6982 40.9277 78.8262 42.5384 79.0822 44.2024C79.5515 47.2104 80.6395 48.8744 82.3462 49.1944C82.8155 49.2797 83.2849 49.3224 83.7542 49.3224C84.8209 49.3224 85.7062 49.0664 86.4102 48.5544C87.4129 47.8291 88.0955 45.5891 88.4582 41.8344C88.5862 40.5117 88.6502 39.2957 88.6502 38.1864C88.6502 36.4371 88.4582 34.8371 88.0742 33.3864C87.5195 31.2744 86.6449 30.0477 85.4502 29.7064ZM110.658 23.4984C112.77 24.0957 113.986 24.9171 114.306 25.9624C114.455 26.4531 114.53 26.9331 114.53 27.4024C114.53 27.9784 114.412 28.5117 114.178 29.0024C113.708 30.0051 113.154 30.6771 112.514 31.0184C112.087 31.2531 111.5 31.3704 110.754 31.3704C110.348 31.3704 109.89 31.3384 109.378 31.2744C109.484 32.4691 109.538 33.7384 109.538 35.0824C109.538 36.1491 109.634 37.9944 109.826 40.6184C109.996 43.0504 110.06 44.8851 110.018 46.1224C109.996 46.6771 109.996 47.0931 110.018 47.3704C110.039 48.0744 110.156 48.3944 110.37 48.3304C113.143 47.9891 114.732 48.6611 115.138 50.3464C115.202 50.6237 115.234 50.8904 115.234 51.1464C115.234 52.4264 114.54 53.4077 113.154 54.0904C112.151 54.6024 110.903 54.9117 109.41 55.0184C107.148 55.1891 105.442 55.1464 104.29 54.8904C102.732 54.5491 101.612 54.1011 100.93 53.5464C99.9697 52.7997 99.543 51.7224 99.6497 50.3144C99.799 48.3944 100.738 47.4344 102.466 47.4344C102.786 47.4344 103.116 47.4771 103.458 47.5624C103.5 47.5624 103.788 47.6157 104.322 47.7224C104.407 46.7411 104.407 45.3117 104.322 43.4344C104.236 41.3224 104.204 39.8824 104.226 39.1144C104.268 38.1117 104.247 36.7997 104.162 35.1784C104.076 33.4077 104.034 32.0957 104.034 31.2424C101.922 30.9864 100.748 30.8371 100.514 30.7944C100.066 30.6664 99.6604 30.3357 99.2977 29.8024C98.871 29.1837 98.6684 28.0744 98.6897 26.4744C98.711 24.9171 100.172 23.8824 103.074 23.3704C104.418 23.1357 105.676 23.0184 106.85 23.0184C108.236 23.0184 109.506 23.1784 110.658 23.4984ZM125.361 23.7864C127.131 24.3837 128.859 26.3357 130.545 29.6424C131.313 31.1571 132.347 33.7171 133.649 37.3224C134.459 39.6477 135.067 41.3864 135.473 42.5384C136.326 44.9064 137.041 46.5917 137.617 47.5944C137.745 47.8291 137.873 47.9464 138.001 47.9464C138.171 47.9464 138.278 47.5731 138.321 46.8264C138.406 45.5464 138.278 42.8051 137.937 38.6024C137.595 34.3997 137.446 30.7304 137.489 27.5944C137.531 24.5437 138.715 23.0184 141.041 23.0184C143.899 23.0184 145.329 25.3437 145.329 29.9944C145.329 30.5704 145.297 31.4344 145.233 32.5864C145.169 33.7384 145.137 34.6024 145.137 35.1784C145.137 40.8957 144.763 45.6317 144.017 49.3864C143.697 50.9864 143.313 52.1491 142.865 52.8744C142.246 53.8771 141.243 54.5171 139.857 54.7944C139.43 54.8797 138.982 54.9224 138.513 54.9224C137.361 54.9224 136.358 54.5917 135.505 53.9304C133.499 52.3731 131.387 48.5864 129.169 42.5704C128.059 39.5624 127.281 37.3864 126.833 36.0424C126.257 34.2931 125.691 33.4184 125.137 33.4184C125.03 33.4184 124.934 33.4504 124.849 33.5144C124.017 33.9411 123.601 34.8371 123.601 36.2024C123.601 36.5011 123.611 36.7677 123.633 37.0024C124.145 42.5277 124.657 46.4531 125.169 48.7784C125.361 49.6531 125.457 50.4104 125.457 51.0504C125.457 52.0744 125.233 52.9597 124.785 53.7064C124.251 54.5811 123.505 55.0184 122.545 55.0184C121.03 55.0184 120.006 54.5171 119.473 53.5144C118.641 51.9784 118.225 48.1384 118.225 41.9944C118.225 37.5571 118.203 34.9117 118.161 34.0584C118.118 33.1837 118.097 32.3091 118.097 31.4344C118.097 28.5544 118.353 26.6877 118.865 25.8344C119.889 24.1064 121.137 23.2424 122.609 23.2424C123.355 23.2424 124.273 23.4237 125.361 23.7864ZM182.318 30.0904C180.996 30.6877 179.342 30.9864 177.358 30.9864C176.697 30.9864 175.993 30.9544 175.246 30.8904C176.036 37.5464 176.558 42.5917 176.814 46.0264C177.006 48.6717 177.102 50.1971 177.102 50.6024C176.996 52.7571 176.398 54.0477 175.31 54.4744C174.564 54.6877 173.817 54.8051 173.07 54.8264C172.238 54.8477 171.47 54.6451 170.766 54.2184C169.998 53.7277 169.582 53.0877 169.518 52.2984C169.412 51.0824 169.358 49.5784 169.358 47.7864C169.337 44.9917 169.337 42.6344 169.358 40.7144C169.38 38.2184 169.348 36.3197 169.262 35.0184L169.006 31.0824C166.916 31.3171 165.348 31.4024 164.302 31.3384C163.577 31.2957 162.926 31.1997 162.35 31.0504C161.454 30.6024 160.857 30.1864 160.558 29.8024C160.004 29.2477 159.726 28.6397 159.726 27.9784C159.726 27.2317 160.004 26.4744 160.558 25.7064C161.113 24.9384 161.934 24.4797 163.022 24.3304C166.436 23.8397 169.657 23.5731 172.686 23.5304C173.668 23.5091 175.588 23.4877 178.446 23.4664C180.217 23.4451 181.518 23.6264 182.35 24.0104C184.036 24.7784 184.878 26.0051 184.878 27.6904C184.878 28.5224 184.025 29.3224 182.318 30.0904ZM205.432 28.5864C204.984 29.4824 204.344 30.0477 203.512 30.2824C203.085 30.4104 202.2 30.4851 200.856 30.5064C199.64 30.5277 198.52 30.5277 197.496 30.5064C196.493 30.4851 195.469 30.6664 194.424 31.0504C193.485 31.3917 192.867 31.9571 192.568 32.7464C192.44 33.0451 192.291 33.8877 192.12 35.2744C192.12 35.7651 192.173 36.6824 192.28 38.0264C192.536 39.4131 193.229 40.1704 194.36 40.2984C195.064 40.3837 196.045 40.3944 197.304 40.3304C198.584 40.2664 199.619 40.2557 200.408 40.2984L202.68 40.4264C203.384 40.4691 204.013 40.6824 204.568 41.0664C205.208 41.5144 205.528 42.0691 205.528 42.7304C205.528 43.0291 205.485 43.4984 205.4 44.1384C205.315 44.3944 205.112 44.6824 204.792 45.0024C203.981 45.5144 202.84 45.6957 201.368 45.5464C199.747 45.3757 198.541 45.2691 197.752 45.2264C196.6 45.1624 195.896 45.1091 195.64 45.0664C195.32 45.0237 195.032 45.0024 194.776 45.0024C194.52 45.0024 194.296 45.0237 194.104 45.0664C193.485 45.0664 193.069 45.5464 192.856 46.5064C192.643 47.4237 192.749 48.0637 193.176 48.4264C193.731 48.8957 194.264 49.1731 194.776 49.2584C196.717 49.5784 198.445 49.6744 199.96 49.5464C202.776 49.3117 204.408 49.8557 204.856 51.1784C204.941 51.4557 204.984 51.7544 204.984 52.0744C204.984 54.0371 203.747 55.0184 201.272 55.0184C200.973 55.0184 200.163 54.9544 198.84 54.8264C195.171 54.5277 192.952 54.3144 192.184 54.1864C188.792 53.5891 187.064 51.5304 187 48.0104C186.936 44.4691 186.808 41.3971 186.616 38.7944C186.531 37.6851 186.488 36.7144 186.488 35.8824C186.488 33.6211 186.712 31.3277 187.16 29.0024C187.757 25.8664 190.221 23.9677 194.552 23.3064C195.939 23.0931 196.973 22.9971 197.656 23.0184C199.853 23.1037 201.827 23.4344 203.576 24.0104C204.195 24.2877 204.707 24.8317 205.112 25.6424C205.517 26.4317 205.667 27.1677 205.56 27.8504C205.496 28.2771 205.453 28.5224 205.432 28.5864ZM213.021 23.0184C214.963 22.6557 216.307 23.0931 217.053 24.3304C217.416 24.9277 217.672 25.6851 217.821 26.6024C217.971 27.5197 217.992 28.3411 217.885 29.0664C217.608 31.0717 217.416 32.4691 217.309 33.2584C216.947 35.2211 216.733 36.9917 216.669 38.5704C216.627 39.7437 216.595 40.5864 216.573 41.0984C216.424 44.5117 216.669 46.4851 217.309 47.0184C218.205 47.7651 219.496 48.1384 221.181 48.1384C222.248 47.9891 223.048 47.8824 223.581 47.8184C224.733 47.8184 225.8 47.7757 226.781 47.6904C227.955 47.5837 228.957 47.6904 229.789 48.0104C230.92 48.4157 231.485 49.1411 231.485 50.1864C231.485 52.2984 230.931 53.5997 229.821 54.0904C229.437 54.2611 228.477 54.4317 226.941 54.6024C224.467 54.8797 222.269 55.0184 220.349 55.0184C219.539 55.0184 218.643 54.9224 217.661 54.7304C215.421 54.3037 213.864 53.7811 212.989 53.1624C212.456 52.7784 211.976 52.1597 211.549 51.3064C211.165 50.5171 210.941 49.7704 210.877 49.0664C210.771 48.0211 210.696 47.2851 210.653 46.8584C210.44 44.7251 210.301 43.2531 210.237 42.4424C209.981 39.9891 209.832 37.9944 209.789 36.4584C209.725 33.7064 209.683 32.0211 209.661 31.4024C209.619 29.9944 209.587 29.0024 209.565 28.4264C209.48 25.9944 209.917 24.4371 210.877 23.7544C211.304 23.3704 211.848 23.1571 212.509 23.1144C212.787 23.0504 212.957 23.0184 213.021 23.0184ZM253.307 28.5864C252.859 29.4824 252.219 30.0477 251.387 30.2824C250.96 30.4104 250.075 30.4851 248.731 30.5064C247.515 30.5277 246.395 30.5277 245.371 30.5064C244.368 30.4851 243.344 30.6664 242.299 31.0504C241.36 31.3917 240.742 31.9571 240.443 32.7464C240.315 33.0451 240.166 33.8877 239.995 35.2744C239.995 35.7651 240.048 36.6824 240.155 38.0264C240.411 39.4131 241.104 40.1704 242.235 40.2984C242.939 40.3837 243.92 40.3944 245.179 40.3304C246.459 40.2664 247.494 40.2557 248.283 40.2984L250.555 40.4264C251.259 40.4691 251.888 40.6824 252.443 41.0664C253.083 41.5144 253.403 42.0691 253.403 42.7304C253.403 43.0291 253.36 43.4984 253.275 44.1384C253.19 44.3944 252.987 44.6824 252.667 45.0024C251.856 45.5144 250.715 45.6957 249.243 45.5464C247.622 45.3757 246.416 45.2691 245.627 45.2264C244.475 45.1624 243.771 45.1091 243.515 45.0664C243.195 45.0237 242.907 45.0024 242.651 45.0024C242.395 45.0024 242.171 45.0237 241.979 45.0664C241.36 45.0664 240.944 45.5464 240.731 46.5064C240.518 47.4237 240.624 48.0637 241.051 48.4264C241.606 48.8957 242.139 49.1731 242.651 49.2584C244.592 49.5784 246.32 49.6744 247.835 49.5464C250.651 49.3117 252.283 49.8557 252.731 51.1784C252.816 51.4557 252.859 51.7544 252.859 52.0744C252.859 54.0371 251.622 55.0184 249.147 55.0184C248.848 55.0184 248.038 54.9544 246.715 54.8264C243.046 54.5277 240.827 54.3144 240.059 54.1864C236.667 53.5891 234.939 51.5304 234.875 48.0104C234.811 44.4691 234.683 41.3971 234.491 38.7944C234.406 37.6851 234.363 36.7144 234.363 35.8824C234.363 33.6211 234.587 31.3277 235.035 29.0024C235.632 25.8664 238.096 23.9677 242.427 23.3064C243.814 23.0931 244.848 22.9971 245.531 23.0184C247.728 23.1037 249.702 23.4344 251.451 24.0104C252.07 24.2877 252.582 24.8317 252.987 25.6424C253.392 26.4317 253.542 27.1677 253.435 27.8504C253.371 28.2771 253.328 28.5224 253.307 28.5864ZM283.616 32.7464C283.616 34.8157 283.094 36.0424 282.048 36.4264C281.174 36.7464 280.438 36.9171 279.84 36.9384C279.136 36.9597 278.432 36.8104 277.728 36.4904C277.046 36.1491 276.566 35.8184 276.288 35.4984C276.011 35.1571 275.808 34.6451 275.68 33.9624C275.488 33.0024 275.382 32.4797 275.36 32.3944C274.251 30.3464 272.534 29.3224 270.208 29.3224C269.952 29.3224 269.675 29.3331 269.376 29.3544C266.902 29.5891 265.216 30.7837 264.32 32.9384C263.424 35.0931 263.104 38.3357 263.36 42.6664C263.446 44.1597 263.83 45.5997 264.512 46.9864C265.408 48.8851 267.691 49.8344 271.36 49.8344C272.768 49.7064 273.472 49.6424 273.472 49.6424C274.326 49.5357 274.934 49.2371 275.296 48.7464C275.659 48.2557 275.862 47.7437 275.904 47.2104C275.99 46.7197 275.894 45.9837 275.616 45.0024C275.467 44.4904 275.04 44.2344 274.336 44.2344C273.696 44.2344 272.811 44.4477 271.68 44.8744C270.891 45.1731 270.219 45.3224 269.664 45.3224C268.491 45.3224 267.766 44.6504 267.488 43.3064C267.318 42.4744 267.232 41.7811 267.232 41.2264C267.232 40.5011 267.382 40.0317 267.68 39.8184C268.192 39.4557 268.886 39.1997 269.76 39.0504C270.763 38.9011 271.51 38.7944 272 38.7304C272.278 38.6877 272.566 38.6664 272.864 38.6664C273.931 38.6664 275.296 38.8797 276.96 39.3064C279.179 39.8824 280.512 40.8637 280.96 42.2504C281.238 43.1037 281.376 43.9784 281.376 44.8744C281.376 45.4077 281.323 45.9304 281.216 46.4424C280.704 48.8957 279.99 50.8264 279.072 52.2344C278.176 53.6424 276.651 54.5171 274.496 54.8584C273.451 55.0291 271.595 55.0824 268.928 55.0184C266.496 54.9544 264.779 54.6451 263.776 54.0904C262.39 53.3224 261.398 52.6717 260.8 52.1384C259.947 51.3917 259.222 50.4424 258.624 49.2904C257.814 47.7544 257.408 44.9491 257.408 40.8744C257.408 39.0611 257.515 36.8851 257.728 34.3464C257.963 31.5517 258.635 29.4717 259.744 28.1064C262.07 25.2477 264.95 23.5731 268.384 23.0824C269.43 22.9331 270.955 22.9117 272.96 23.0184C275.392 23.1464 277.27 23.5197 278.592 24.1384C280.107 24.8424 281.334 26.0371 282.272 27.7224C283.168 29.3224 283.616 30.9971 283.616 32.7464ZM289.511 25.0344C290.706 23.9891 293.34 23.3171 297.415 23.0184C299.676 22.8477 302.29 22.9971 305.255 23.4664C308.348 23.9571 310.194 25.5037 310.791 28.1064C311.068 29.3224 311.207 30.3464 311.207 31.1784C311.207 32.2664 310.994 33.1837 310.567 33.9304C308.796 36.9811 305.778 38.5277 301.511 38.5704C300.871 38.5704 299.932 38.5277 298.695 38.4424C297.458 38.3357 296.54 38.2824 295.943 38.2824C295.708 38.2824 295.591 38.3571 295.591 38.5064C295.591 38.7411 295.826 39.1144 296.295 39.6264C297.874 41.3117 299.175 42.7731 300.199 44.0104C301.671 45.7597 302.78 47.0611 303.527 47.9144C305.063 49.7917 305.831 51.2104 305.831 52.1704C305.831 53.1944 305.276 53.9731 304.167 54.5064C303.762 54.6984 303.356 54.7944 302.951 54.7944C301.628 54.7944 300.284 54.0691 298.919 52.6184C297.916 51.5304 297.031 50.2291 296.263 48.7144L292.391 40.9384C292.839 45.3331 293.052 47.9891 293.031 48.9064C293.01 50.5491 293.01 51.4557 293.031 51.6264C293.031 52.1597 292.903 52.7357 292.647 53.3544C292.391 53.9731 292.028 54.3997 291.559 54.6344C291.218 54.8051 290.652 54.9331 289.863 55.0184C288.37 55.1891 287.623 53.9517 287.623 51.3064C287.538 50.8157 287.474 50.2291 287.431 49.5464C287.111 44.5117 286.962 40.2557 286.983 36.7784C287.004 34.3891 287.036 32.7357 287.079 31.8184C287.271 28.2771 288.082 26.0157 289.511 25.0344ZM299.879 28.6504C299.047 28.2664 298.226 28.0744 297.415 28.0744C296.583 28.0744 295.826 28.2984 295.143 28.7464C294.14 29.3864 293.628 30.2931 293.607 31.4664C293.586 33.0024 294.396 33.8131 296.039 33.8984C299.26 34.0691 301.042 33.3651 301.383 31.7864C301.703 30.2931 301.202 29.2477 299.879 28.6504ZM326.254 23.0184C330.286 23.3811 333.07 26.6877 334.606 32.9384C334.948 34.3037 335.364 36.7571 335.854 40.2984C336.238 43.0504 336.43 45.5677 336.43 47.8504C336.43 49.4077 336.228 50.8371 335.822 52.1384C335.246 54.0584 334.35 55.0184 333.134 55.0184C332.025 55.0184 331.204 54.7731 330.67 54.2824C330.137 53.7917 329.796 52.9811 329.646 51.8504C329.497 50.7411 329.401 48.9384 329.358 46.4424C329.316 44.0744 329.188 42.2504 328.974 40.9704C328.462 37.7917 327.641 36.1811 326.51 36.1384C325.337 36.0957 324.43 36.1811 323.79 36.3944C322.51 36.8211 321.721 37.8877 321.422 39.5944C321.273 40.4264 321.252 41.8557 321.358 43.8824C321.508 46.9971 321.657 49.1624 321.806 50.3784C321.849 50.7197 321.87 51.0077 321.87 51.2424C321.87 53.8024 320.814 55.0824 318.702 55.0824C318.489 55.0824 318.212 55.0611 317.87 55.0184C316.164 54.8051 315.044 53.8344 314.51 52.1064C314.169 51.0184 314.062 49.4184 314.19 47.3064C314.382 43.9997 314.5 42.0264 314.542 41.3864C314.649 39.8291 315.044 37.3224 315.726 33.8664C316.324 30.8584 316.921 28.5971 317.518 27.0824C318.094 25.6531 319.108 24.5864 320.558 23.8824C321.817 23.2637 323.289 22.9544 324.974 22.9544C325.358 22.9544 325.785 22.9757 326.254 23.0184ZM327.79 30.4104C327.833 30.2611 327.854 30.1011 327.854 29.9304C327.854 28.5224 326.958 27.7544 325.166 27.6264C324.014 27.5411 323.086 27.8611 322.382 28.5864C321.913 29.0557 321.678 29.5144 321.678 29.9624C321.678 30.1757 321.753 30.4104 321.902 30.6664C322.244 31.2424 322.745 31.5944 323.406 31.7224C323.62 31.7651 324.26 31.7864 325.326 31.7864C326.649 31.7864 327.47 31.3277 327.79 30.4104ZM353.425 41.8664C354.279 37.1304 354.94 33.8557 355.409 32.0424C356.625 27.1784 357.905 24.4371 359.249 23.8184C360.231 23.3704 361.137 23.1464 361.969 23.1464C363.505 23.1464 364.785 24.1384 365.809 26.1224C366.641 27.7224 367.143 30.4637 367.313 34.3464C367.484 38.2291 367.601 41.1411 367.665 43.0824C367.815 46.3037 367.857 48.6611 367.793 50.1544C367.687 53.0344 366.833 54.4744 365.233 54.4744C364.849 54.4744 364.412 54.3464 363.921 54.0904C362.833 53.5357 362.076 52.3197 361.649 50.4424C361.479 49.6744 361.297 48.1704 361.105 45.9304C361.02 44.7997 360.924 43.0397 360.817 40.6504C360.753 39.1571 360.764 36.2557 360.849 31.9464C360.145 34.3784 359.601 37.1197 359.217 40.1704C358.193 48.4264 357.255 52.7677 356.401 53.1944C355.484 53.6637 354.78 53.8984 354.289 53.8984C353.756 53.8984 353.095 53.7064 352.305 53.3224C351.239 52.8317 350.62 51.9784 350.449 50.7624C350.215 48.9917 349.863 46.9224 349.393 44.5544C349.095 43.0611 348.668 41.0131 348.113 38.4104C347.559 35.7864 346.823 33.5144 345.905 31.5944C345.607 32.6611 345.596 35.0077 345.873 38.6344C346.129 42.6451 346.321 45.7491 346.449 47.9464C346.599 50.4211 346.652 51.7971 346.609 52.0744C346.396 53.5891 345.521 54.5384 343.985 54.9224C343.729 54.9864 343.516 55.0184 343.345 55.0184C342.556 55.0184 341.788 54.6024 341.041 53.7704C340.06 52.7037 339.644 49.9197 339.793 45.4184C339.921 41.0664 339.921 38.2717 339.793 37.0344C339.665 35.9037 339.559 34.1011 339.473 31.6264C339.388 29.4291 339.697 27.5517 340.401 25.9944C341.297 24.0104 342.759 23.0184 344.785 23.0184C345.169 23.0184 345.617 23.0611 346.129 23.1464C348.604 23.5517 350.289 25.1197 351.185 27.8504C352.359 31.4557 353.105 36.1277 353.425 41.8664Z" fill="white"/>
</svg>
