<svg width="1440" height="218" viewBox="0 0 1440 218" fill="none" xmlns="http://www.w3.org/2000/svg">
<rect x="-45.3689" y="81.7036" width="1550.95" height="136" transform="rotate(-3 -45.3689 81.7036)" fill="black"/>
<path d="M39.6677 150.162C40.5741 143 41.3077 138.043 41.8684 135.29C43.308 127.909 45.0102 123.702 46.9749 122.67C48.4097 121.921 49.7502 121.515 50.9965 121.449C53.2974 121.329 55.2926 122.714 56.9822 125.606C58.3541 127.937 59.3203 132.004 59.8808 137.807C60.4412 143.609 60.8456 147.962 61.0939 150.865C61.5704 155.679 61.8194 159.207 61.8408 161.449C61.9071 165.771 60.7419 167.995 58.3452 168.121C57.77 168.151 57.1048 167.993 56.3497 167.649C54.6764 166.903 53.4465 165.141 52.66 162.362C52.3441 161.225 51.9544 158.987 51.4909 155.646C51.2743 153.959 50.9924 151.331 50.645 147.76C50.4319 145.528 50.2201 141.181 50.0097 134.719C49.146 138.417 48.5463 142.567 48.2106 147.166C47.3249 159.614 46.2596 166.191 45.0148 166.897C43.6776 167.672 42.6414 168.079 41.9065 168.117C41.1076 168.159 40.1018 167.923 38.8893 167.41C37.253 166.759 36.2593 165.529 35.9082 163.721C35.4176 161.087 34.7279 158.015 33.839 154.505C33.2744 152.291 32.4745 149.257 31.4393 145.402C30.4024 141.515 29.1216 138.169 27.5967 135.365C27.2331 136.986 27.4013 140.502 28.1015 145.913C28.7998 151.901 29.3311 156.535 29.6953 159.817C30.1133 163.512 30.3012 165.569 30.2591 165.988C30.0584 168.273 28.8227 169.764 26.552 170.46C26.1736 170.576 25.8565 170.641 25.6009 170.654C24.4185 170.716 23.2354 170.153 22.0516 168.965C20.4979 167.445 19.6562 163.307 19.5265 156.552C19.3766 150.023 19.1572 145.837 18.8684 143.994C18.5879 142.31 18.2866 139.618 17.9645 135.918C17.6641 132.633 17.9801 129.797 18.9124 127.409C20.0988 124.366 22.21 122.766 25.2458 122.607C25.821 122.577 26.4954 122.605 27.2691 122.693C31.0078 123.106 33.6554 125.322 35.212 129.342C37.2526 134.651 38.7378 141.591 39.6677 150.162ZM66.3746 128.622C67.6507 123.012 72.3952 119.991 80.6079 119.561C81.6305 119.507 82.7035 119.499 83.827 119.537C85.9445 119.586 87.5221 119.727 88.5597 119.961C89.8245 120.248 91.1404 120.9 92.5075 121.917C93.8747 122.935 94.8289 124.023 95.3702 125.18C96.4142 127.369 97.0705 129.497 97.3391 131.566C97.4549 132.553 97.7001 134.175 98.0747 136.43C98.4022 138.4 98.602 140.071 98.674 141.446C98.8852 144.863 98.6821 150.161 98.065 157.339C98.0043 158.015 97.6382 159.284 96.9667 161.146C96.1841 163.334 94.3337 165.017 91.4154 166.195C89.407 167.006 87.3163 167.468 85.1433 167.581C84.664 167.607 84.1838 167.616 83.7028 167.609C81.3935 167.57 79.916 167.503 79.2702 167.409C78.1081 167.245 76.6306 166.874 74.8379 166.295C73.6001 165.911 72.2901 165.067 70.9079 163.761C69.3894 162.303 68.6009 161.014 68.5423 159.896L66.6944 153.984C66.1952 152.408 65.8308 150.04 65.6011 146.88C65.4418 144.453 65.2986 142.025 65.1713 139.596C64.9836 136.626 65.3847 132.968 66.3746 128.622ZM84.0165 129.572C82.2002 129.155 80.3148 129.254 78.3603 129.869C76.278 130.491 75.0731 133.181 74.7458 137.941C74.5788 140.257 74.5505 142.469 74.6611 144.579C74.7833 146.911 75.1015 149.314 75.6156 151.786C76.5548 156.255 78.3152 158.663 80.8968 159.008C81.6065 159.099 82.3129 159.126 83.0159 159.089C84.6137 159.005 85.9198 158.552 86.9342 157.73C88.3792 156.565 89.2259 153.156 89.4744 147.503C89.5623 145.512 89.5627 143.685 89.4757 142.024C89.3383 139.403 88.9251 137.022 88.236 134.879C87.2394 131.759 85.8329 129.99 84.0165 129.572ZM138.056 127.317C136.121 128.316 133.668 128.893 130.696 129.049C129.706 129.101 128.649 129.108 127.525 129.071C129.23 138.979 130.409 146.496 131.062 151.62C131.557 155.568 131.821 157.845 131.853 158.452C131.862 161.688 131.069 163.669 129.472 164.393C128.371 164.771 127.261 165.006 126.145 165.096C124.9 165.194 123.734 164.95 122.646 164.366C121.457 163.692 120.783 162.766 120.626 161.588C120.37 159.775 120.172 157.526 120.032 154.842C119.78 150.658 119.595 147.126 119.476 144.249C119.312 140.508 119.115 137.667 118.885 135.724L118.193 129.848C115.08 130.364 112.738 130.615 111.167 130.601C110.077 130.594 109.095 130.501 108.22 130.323C106.843 129.722 105.915 129.146 105.438 128.594C104.564 127.807 104.1 126.918 104.048 125.927C103.99 124.809 104.346 123.652 105.116 122.458C105.887 121.264 107.081 120.513 108.699 120.204C113.774 119.201 118.578 118.548 123.113 118.247C124.581 118.138 127.455 117.955 131.736 117.699C134.386 117.528 136.35 117.697 137.626 118.207C140.211 119.225 141.57 120.997 141.702 123.521C141.767 124.767 140.552 126.033 138.056 127.317ZM167.521 128.897C167.243 124.81 167.116 122.381 167.14 121.611C167.253 118.273 168.044 116.244 169.512 115.527C170.231 115.169 170.877 114.974 171.453 114.944C172.891 114.869 173.996 115.484 174.77 116.789C175.402 117.846 175.726 119.142 175.743 120.68C175.772 123.081 175.859 125.032 176.001 126.53L177.031 137.003C177.244 139.234 177.375 140.509 177.423 140.827C178.057 144.351 178.547 146.985 178.895 148.729C179.441 151.809 179.708 154.454 179.695 156.666C179.678 158.173 179.343 159.424 178.691 160.42C177.949 161.548 176.875 162.149 175.469 162.223C174.861 162.255 174.2 162.177 173.486 161.99C172.026 161.65 171.008 160.566 170.431 158.738C170.129 157.856 169.886 156.283 169.703 154.017L168.86 144.352C168.61 141.417 167.278 140.141 164.862 140.524C162.161 140.954 160.201 141.153 158.982 141.121C157.411 141.107 156.673 142.315 156.768 144.746C156.869 147.272 157.092 150 157.437 152.93C157.782 155.828 157.98 158.092 158.034 159.724C158.142 163.019 156.279 164.446 152.442 164.006C151.056 163.855 150.059 163.474 149.45 162.865C148.843 162.288 148.488 161.314 148.384 159.941C148.215 157.931 148.127 156.878 148.122 156.783C148.102 155.79 147.885 153.479 147.47 149.847C146.908 144.622 146.525 140.973 146.32 138.9C145.83 134.44 145.509 131.06 145.356 128.761C145.135 125.152 145.049 122.897 145.098 121.997C145.288 118.911 146.154 117.087 147.695 116.526C148.386 116.265 148.987 116.122 149.499 116.095C151.608 115.984 153.188 117.712 154.241 121.278C154.785 123.108 155.092 124.998 155.163 126.949C155.266 129.539 155.409 131.038 155.59 131.445C156.061 132.478 157.368 132.954 159.511 132.874C162.612 132.743 164.385 132.634 164.829 132.547C166.756 132.029 167.654 130.813 167.521 128.897ZM211.273 121.221C210.673 122.598 209.758 123.495 208.53 123.912C207.901 124.137 206.581 124.319 204.569 124.456C202.75 124.584 201.072 124.671 199.536 124.72C198.033 124.767 196.513 125.119 194.977 125.776C193.598 126.361 192.716 127.256 192.33 128.462C192.162 128.92 192.005 130.194 191.858 132.284C191.896 133.019 192.048 134.389 192.313 136.394C192.806 138.451 193.904 139.531 195.608 139.634C196.669 139.706 198.14 139.645 200.02 139.451C201.932 139.254 203.481 139.157 204.667 139.159L208.08 139.173C209.138 139.181 210.098 139.451 210.959 139.983C211.953 140.604 212.476 141.41 212.527 142.4C212.551 142.848 212.524 143.554 212.446 144.519C212.339 144.91 212.058 145.357 211.603 145.861C210.429 146.692 208.734 147.053 206.517 146.945C204.075 146.817 202.261 146.751 201.075 146.75C199.345 146.744 198.286 146.719 197.899 146.676C197.417 146.637 196.983 146.628 196.6 146.648C196.216 146.668 195.883 146.717 195.598 146.796C194.672 146.845 194.086 147.596 193.842 149.051C193.594 150.442 193.804 151.392 194.472 151.902C195.34 152.562 196.16 152.935 196.934 153.023C199.867 153.35 202.463 153.358 204.722 153.047C208.922 152.475 211.409 153.161 212.184 155.108C212.334 155.516 212.421 155.96 212.446 156.44C212.6 159.38 210.824 160.947 207.117 161.141C206.67 161.165 205.45 161.132 203.459 161.044C197.939 160.885 194.599 160.74 193.438 160.608C188.31 159.98 185.56 157.032 185.188 151.764C184.814 146.464 184.381 141.873 183.889 137.989C183.674 136.334 183.534 134.883 183.469 133.637C183.292 130.25 183.447 126.797 183.936 123.278C184.584 118.534 188.126 115.496 194.561 114.166C196.622 113.737 198.164 113.512 199.188 113.491C202.486 113.446 205.468 113.786 208.134 114.512C209.082 114.879 209.892 115.653 210.563 116.836C211.232 117.987 211.513 119.077 211.407 120.108C211.345 120.752 211.3 121.123 211.273 121.221ZM221.692 115.339C223.4 113.68 227.293 112.466 233.374 111.699C236.747 111.266 240.674 111.284 245.153 111.755C249.825 112.247 252.71 114.419 253.809 118.271C254.32 120.07 254.608 121.593 254.674 122.84C254.759 124.469 254.512 125.86 253.931 127.012C251.518 131.721 247.118 134.275 240.73 134.674C239.771 134.724 238.362 134.734 236.502 134.703C234.64 134.64 233.262 134.632 232.367 134.679C232.015 134.698 231.845 134.819 231.857 135.042C231.876 135.394 232.256 135.935 233 136.665C235.497 139.066 237.561 141.152 239.192 142.925C241.534 145.43 243.298 147.293 244.483 148.512C246.932 151.204 248.193 153.268 248.269 154.707C248.349 156.24 247.579 157.45 245.96 158.336C245.367 158.656 244.768 158.831 244.161 158.863C242.179 158.967 240.109 157.986 237.95 155.92C236.363 154.369 234.934 152.489 233.665 150.281L227.255 138.937C228.271 145.484 228.799 149.446 228.839 150.822C228.936 153.284 229.007 154.643 229.052 154.896C229.094 155.695 228.948 156.568 228.613 157.515C228.278 158.462 227.768 159.129 227.084 159.518C226.586 159.8 225.749 160.036 224.573 160.226C222.35 160.599 221.134 158.804 220.926 154.842C220.76 154.113 220.618 153.24 220.501 152.22C219.626 144.704 219.068 138.34 218.827 133.13C218.672 129.549 218.59 127.07 218.582 125.692C218.591 120.373 219.628 116.922 221.692 115.339ZM237.507 119.942C236.23 119.432 234.985 119.209 233.77 119.273C232.524 119.338 231.407 119.733 230.42 120.458C228.968 121.495 228.272 122.893 228.333 124.653C228.421 126.955 229.699 128.106 232.166 128.105C237.005 128.108 239.618 126.913 240.006 124.522C240.368 122.26 239.535 120.733 237.507 119.942ZM276.18 117.627C277.457 112.016 282.201 108.996 290.414 108.566C291.436 108.512 292.509 108.504 293.633 108.541C295.75 108.59 297.328 108.732 298.366 108.966C299.63 109.252 300.946 109.904 302.313 110.922C303.68 111.94 304.635 113.027 305.176 114.185C306.22 116.373 306.876 118.502 307.145 120.57C307.261 121.558 307.506 123.179 307.881 125.435C308.208 127.404 308.408 129.076 308.48 130.45C308.691 133.868 308.488 139.166 307.871 146.344C307.81 147.02 307.444 148.289 306.773 150.15C305.99 152.338 304.14 154.022 301.221 155.2C299.213 156.01 297.122 156.472 294.949 156.586C294.47 156.611 293.99 156.62 293.509 156.613C291.199 156.574 289.722 156.508 289.076 156.413C287.914 156.25 286.436 155.879 284.644 155.3C283.406 154.916 282.096 154.071 280.714 152.766C279.195 151.307 278.407 150.019 278.348 148.9L276.5 142.989C276.001 141.413 275.637 139.045 275.407 135.884C275.248 133.457 275.104 131.03 274.977 128.601C274.789 125.631 275.191 121.973 276.18 117.627ZM293.822 118.577C292.006 118.159 290.121 118.258 288.166 118.873C286.084 119.495 284.879 122.186 284.552 126.946C284.385 129.261 284.356 131.474 284.467 133.583C284.589 135.916 284.907 138.319 285.421 140.791C286.361 145.26 288.121 147.667 290.703 148.013C291.412 148.104 292.119 148.131 292.822 148.094C294.42 148.01 295.726 147.557 296.74 146.735C298.185 145.57 299.032 142.161 299.28 136.508C299.368 134.517 299.369 132.69 299.281 131.028C299.144 128.408 298.731 126.026 298.042 123.883C297.045 120.763 295.639 118.994 293.822 118.577ZM323.739 122.873C323.765 123.352 323.862 123.988 324.032 124.78C324.176 125.702 324.273 126.322 324.321 126.64C324.441 127.691 324.598 128.548 324.793 129.211C325.216 130.566 326.387 131.194 328.304 131.093C328.783 131.068 329.166 131.032 329.452 130.985C333.645 130.285 336.505 129.83 338.032 129.622C338.382 129.572 338.877 129.53 339.516 129.496C343.063 129.311 344.91 130.624 345.057 133.436C345.103 134.299 344.926 135.205 344.527 136.155C343.699 138.089 341.923 139.048 339.198 139.03C333.813 138.992 331.12 138.973 331.12 138.973C328.495 139.014 327.215 139.963 327.28 141.818C327.353 143.833 327.774 146.054 328.542 148.481C328.888 149.584 329.083 150.551 329.127 151.382C329.18 152.405 328.947 153.154 328.428 153.63C327.571 154.412 326.185 154.869 324.27 155.001C322.418 155.13 321.115 155.038 320.362 154.725C318.756 154.041 317.699 151.613 317.192 147.441C316.902 144.957 316.696 143.478 316.575 143.004C316.538 142.909 316.517 142.814 316.512 142.719L315.02 114.246C315.609 112.036 316.979 110.362 319.131 109.224C320.596 108.442 322.725 107.801 325.519 107.303C328.345 106.802 331.005 106.518 333.501 106.452C336.638 106.383 339.528 106.488 342.17 106.766C344.491 107.029 345.901 107.949 346.4 109.525C346.63 110.25 346.761 110.916 346.793 111.523C346.882 113.217 346.062 114.686 344.332 115.93C343.962 116.206 343.378 116.364 342.579 116.406C341.524 116.461 340.174 116.372 338.527 116.138C335.46 115.69 332.399 115.69 329.347 116.138C327.375 116.434 325.87 117.362 324.83 118.923C324.029 120.15 323.666 121.467 323.739 122.873ZM404.704 114.544C404.669 116.309 404.348 118.136 403.742 120.026C402.5 123.84 399.919 126.267 396 127.305C395.21 127.507 393.336 127.829 390.379 128.273C389.044 128.471 387.673 128.607 386.267 128.681C383.742 128.813 381.142 128.725 378.466 128.416C379.101 135.625 379.65 140.002 380.116 141.548C380.506 142.874 380.781 144.141 380.94 145.35C381.111 146.783 381.092 147.938 380.881 148.814C380.715 149.912 380.057 150.812 378.908 151.513C377.791 152.212 376.683 152.479 375.585 152.312C373.357 151.98 371.935 149.619 371.321 145.229C371.013 143.035 370.798 141.38 370.676 140.264C370.148 136.927 369.768 133.647 369.535 130.423L369.018 120.548C368.899 118.279 369.095 115.914 369.607 113.452C370.478 109.272 373.356 106.414 378.242 104.876C380.165 104.262 383.411 103.836 387.98 103.597C392.358 103.367 395.899 103.967 398.601 105.395C400.678 106.504 402.183 107.707 403.116 109.004C404.221 110.516 404.75 112.363 404.704 114.544ZM389.228 120.066C390.772 118.959 391.509 117.735 391.439 116.393C391.397 115.594 391.066 114.778 390.445 113.946C389.065 112.063 387.097 111.189 384.54 111.323C383.805 111.362 383.153 111.444 382.582 111.57C379.033 112.333 377.432 114.484 377.777 118.022C377.997 120.382 380.012 121.526 383.821 121.455C385.902 121.41 387.223 121.244 387.785 120.959L388.721 120.477C388.968 120.304 389.137 120.167 389.228 120.066ZM435.778 109.455C435.177 110.832 434.263 111.729 433.035 112.146C432.406 112.372 431.085 112.553 429.074 112.69C427.254 112.818 425.576 112.906 424.041 112.954C422.537 113.001 421.017 113.353 419.482 114.01C418.103 114.595 417.22 115.491 416.835 116.696C416.666 117.154 416.509 118.428 416.362 120.518C416.401 121.253 416.553 122.623 416.818 124.628C417.31 126.685 418.408 127.765 420.112 127.868C421.173 127.941 422.644 127.88 424.524 127.685C426.437 127.489 427.986 127.391 429.171 127.393L432.585 127.407C433.643 127.415 434.602 127.686 435.463 128.217C436.457 128.838 436.98 129.644 437.032 130.634C437.055 131.082 437.028 131.788 436.951 132.754C436.843 133.144 436.562 133.591 436.108 134.096C434.934 134.926 433.238 135.287 431.022 135.179C428.579 135.051 426.766 134.986 425.58 134.984C423.849 134.978 422.79 134.954 422.404 134.91C421.921 134.871 421.488 134.862 421.104 134.882C420.721 134.902 420.387 134.951 420.103 135.03C419.176 135.079 418.591 135.831 418.346 137.285C418.099 138.676 418.309 139.627 418.976 140.136C419.844 140.796 420.665 141.169 421.438 141.257C424.372 141.584 426.968 141.592 429.226 141.282C433.426 140.709 435.914 141.396 436.688 143.342C436.838 143.751 436.925 144.195 436.951 144.674C437.105 147.614 435.328 149.181 431.621 149.375C431.174 149.399 429.955 149.367 427.963 149.279C422.443 149.119 419.103 148.974 417.943 148.842C412.815 148.214 410.065 145.266 409.692 139.998C409.319 134.698 408.886 130.107 408.394 126.223C408.179 124.568 408.039 123.118 407.973 121.871C407.796 118.484 407.951 115.031 408.44 111.513C409.089 106.768 412.63 103.731 419.066 102.4C421.126 101.972 422.668 101.747 423.693 101.725C426.991 101.68 429.973 102.021 432.638 102.746C433.587 103.113 434.396 103.888 435.067 105.07C435.736 106.221 436.018 107.312 435.912 108.343C435.849 108.987 435.805 109.357 435.778 109.455ZM459.604 99.8429C465.672 100.07 470.102 104.804 472.893 114.047C473.512 116.065 474.327 119.708 475.34 124.974C476.132 129.066 476.617 132.822 476.796 136.241C476.918 138.574 476.727 140.731 476.222 142.712C475.51 145.633 474.243 147.142 472.422 147.237C470.76 147.324 469.51 147.021 468.673 146.328C467.835 145.635 467.26 144.447 466.948 142.765C466.637 141.115 466.352 138.423 466.092 134.687C465.842 131.143 465.507 128.421 465.087 126.52C464.071 121.799 462.714 119.451 461.017 119.476C459.256 119.504 457.905 119.703 456.963 120.073C455.079 120.812 453.98 122.472 453.667 125.052C453.508 126.31 453.589 128.453 453.908 131.48C454.376 136.134 454.769 139.366 455.089 141.176C455.179 141.684 455.234 142.114 455.252 142.465C455.453 146.3 453.972 148.3 450.808 148.466C450.489 148.483 450.072 148.472 449.557 148.435C446.984 148.25 445.23 146.884 444.295 144.337C443.699 142.734 443.413 140.346 443.439 137.172C443.467 132.204 443.488 129.239 443.502 128.277C443.539 125.935 443.934 122.15 444.685 116.919C445.343 112.366 446.061 108.932 446.837 106.616C447.587 104.43 449.021 102.753 451.139 101.584C452.976 100.559 455.157 99.9798 457.681 99.8475C458.256 99.8174 458.897 99.8159 459.604 99.8429ZM462.485 110.795C462.537 110.568 462.556 110.327 462.543 110.071C462.432 107.962 461.03 106.882 458.336 106.831C456.603 106.793 455.238 107.346 454.241 108.487C453.574 109.227 453.259 109.933 453.294 110.604C453.311 110.923 453.441 111.269 453.685 111.641C454.241 112.477 455.02 112.965 456.021 113.105C456.344 113.152 457.304 113.133 458.902 113.05C460.883 112.946 462.077 112.194 462.485 110.795ZM483.973 101.594C485.68 99.9343 489.574 98.7209 495.654 97.9536C499.028 97.5204 502.955 97.5389 507.433 98.0092C512.105 98.5013 514.991 100.673 516.09 104.525C516.601 106.325 516.889 107.848 516.954 109.094C517.04 110.724 516.792 112.115 516.212 113.267C513.799 117.975 509.399 120.529 503.011 120.928C502.052 120.978 500.643 120.988 498.782 120.957C496.921 120.895 495.542 120.887 494.648 120.934C494.296 120.952 494.126 121.073 494.138 121.297C494.156 121.648 494.537 122.189 495.28 122.919C497.777 125.32 499.841 127.407 501.472 129.18C503.815 131.685 505.579 133.547 506.764 134.767C509.212 137.458 510.474 139.523 510.549 140.961C510.63 142.495 509.86 143.705 508.24 144.591C507.648 144.91 507.049 145.086 506.441 145.118C504.46 145.222 502.39 144.241 500.231 142.175C498.643 140.624 497.215 138.744 495.946 136.535L489.535 125.191C490.551 131.739 491.079 135.701 491.12 137.077C491.217 139.539 491.288 140.897 491.333 141.151C491.375 141.95 491.228 142.823 490.894 143.77C490.559 144.716 490.049 145.384 489.364 145.772C488.866 146.055 488.03 146.291 486.854 146.481C484.63 146.854 483.415 145.059 483.207 141.096C483.041 140.368 482.899 139.494 482.781 138.475C481.907 130.958 481.349 124.595 481.108 119.384C480.952 115.803 480.87 113.324 480.862 111.947C480.872 106.627 481.909 103.176 483.973 101.594ZM499.787 106.197C498.511 105.687 497.265 105.464 496.051 105.527C494.805 105.593 493.688 105.988 492.701 106.712C491.249 107.75 490.553 109.148 490.613 110.907C490.702 113.21 491.98 114.36 494.447 114.359C499.286 114.362 501.899 113.168 502.286 110.776C502.648 108.514 501.815 106.988 499.787 106.197ZM525.96 96.3653C528.839 95.6697 530.887 96.2193 532.103 98.0141C532.693 98.8804 533.136 99.9948 533.431 101.357C533.727 102.72 533.824 103.948 533.721 105.043C533.463 108.069 533.285 110.177 533.187 111.368C532.798 114.336 532.617 117.005 532.645 119.375C532.673 121.136 532.692 122.401 532.7 123.169C532.744 128.294 533.267 131.231 534.267 131.979C535.668 133.027 537.631 133.485 540.155 133.353C541.741 133.046 542.931 132.823 543.725 132.685C545.451 132.595 547.045 132.447 548.508 132.242C550.258 131.991 551.768 132.072 553.039 132.486C554.765 133.004 555.669 134.046 555.751 135.612C555.917 138.776 555.188 140.769 553.565 141.591C553.003 141.876 551.578 142.207 549.291 142.584C545.606 143.193 542.325 143.574 539.449 143.724C538.235 143.788 536.885 143.714 535.4 143.504C532.011 143.041 529.637 142.38 528.278 141.522C527.449 140.989 526.682 140.099 525.976 138.855C525.338 137.703 524.944 136.602 524.793 135.552C524.551 133.995 524.382 132.898 524.284 132.262C523.797 129.083 523.474 126.889 523.314 125.68C522.738 122.025 522.358 119.049 522.174 116.751C521.862 112.634 521.665 110.113 521.585 109.188C521.411 107.082 521.285 105.599 521.208 104.738C520.889 101.101 521.422 98.7341 522.806 97.6361C523.415 97.0274 524.213 96.6652 525.2 96.5493C525.611 96.4317 525.864 96.3704 525.96 96.3653ZM570.69 100.654C570.873 101.702 571.122 104.925 571.437 110.324C571.668 114.125 571.665 117.426 571.427 120.226C570.999 125.504 569.842 128.192 567.957 128.291C566.455 128.37 565.2 127.667 564.193 126.181C563.357 124.911 562.897 123.461 562.811 121.832C562.562 117.07 561.939 110.998 560.944 103.616C560.839 102.853 560.771 102.167 560.74 101.56C560.5 96.9905 561.88 94.579 564.879 94.3257C566.793 94.1613 568.157 94.8108 568.97 96.2742C569.89 97.9243 570.463 99.3844 570.69 100.654ZM570.315 142.107C568.692 142.32 567.763 142.321 567.527 142.109C565.089 141.435 563.817 140.108 563.713 138.127C563.67 137.296 563.828 136.342 564.188 135.266C565.161 132.427 566.622 130.957 568.572 130.854C569.083 130.828 569.681 130.925 570.365 131.145C572.548 131.832 573.692 133.182 573.798 135.195C573.831 135.834 573.77 136.494 573.613 137.175C572.91 140.256 571.81 141.9 570.315 142.107ZM1207.03 88.9825C1207.94 81.8213 1208.67 76.8641 1209.24 74.111C1210.67 66.7295 1212.38 62.5227 1214.34 61.4904C1215.78 60.7423 1217.12 60.3356 1218.36 60.2703C1220.66 60.1497 1222.66 61.5352 1224.35 64.4267C1225.72 66.7581 1226.69 70.8251 1227.25 76.6277C1227.81 82.4303 1228.21 86.7832 1228.46 89.6861C1228.94 94.4998 1229.19 98.0276 1229.21 100.27C1229.27 104.592 1228.11 106.816 1225.71 106.942C1225.14 106.972 1224.47 106.814 1223.72 106.469C1222.04 105.724 1220.81 103.962 1220.03 101.183C1219.71 100.046 1219.32 97.8076 1218.86 94.4673C1218.64 92.7803 1218.36 90.1514 1218.01 86.5807C1217.8 84.3488 1217.59 80.002 1217.38 73.5401C1216.51 77.2384 1215.91 81.3874 1215.58 85.9873C1214.69 98.4347 1213.63 105.012 1212.38 105.718C1211.04 106.493 1210.01 106.899 1209.27 106.938C1208.47 106.98 1207.47 106.744 1206.26 106.231C1204.62 105.58 1203.63 104.35 1203.27 102.542C1202.78 99.9079 1202.09 96.8358 1201.21 93.3255C1200.64 91.1121 1199.84 88.0778 1198.81 84.2226C1197.77 80.3356 1196.49 76.99 1194.96 74.186C1194.6 75.8073 1194.77 79.3233 1195.47 84.734C1196.17 90.7217 1196.7 95.3562 1197.06 98.6377C1197.48 102.333 1197.67 104.39 1197.63 104.809C1197.43 107.094 1196.19 108.585 1193.92 109.281C1193.54 109.397 1193.22 109.461 1192.97 109.475C1191.79 109.537 1190.6 108.974 1189.42 107.786C1187.86 106.265 1187.02 102.128 1186.89 95.3734C1186.74 88.8443 1186.52 84.658 1186.24 82.8146C1185.95 81.131 1185.65 78.4391 1185.33 74.7389C1185.03 71.4541 1185.35 68.6177 1186.28 66.2296C1187.47 63.1873 1189.58 61.5867 1192.61 61.4276C1193.19 61.3974 1193.86 61.4261 1194.64 61.5138C1198.37 61.9267 1201.02 64.1431 1202.58 68.1632C1204.62 73.4717 1206.1 80.4114 1207.03 88.9825ZM1233.74 67.4433C1235.02 61.8328 1239.76 58.8124 1247.97 58.3819C1249 58.3284 1250.07 58.3202 1251.19 58.3574C1253.31 58.4067 1254.89 58.5483 1255.93 58.7823C1257.19 59.0685 1258.51 59.7206 1259.87 60.7384C1261.24 61.7562 1262.2 62.8438 1262.74 64.0011C1263.78 66.1894 1264.44 68.318 1264.71 70.3868C1264.82 71.374 1265.07 72.9954 1265.44 75.2509C1265.77 77.2205 1265.97 78.8923 1266.04 80.2664C1266.25 83.6841 1266.05 88.982 1265.43 96.1601C1265.37 96.8362 1265 98.1051 1264.33 99.9668C1263.55 102.155 1261.7 103.838 1258.78 105.016C1256.77 105.826 1254.68 106.289 1252.51 106.402C1252.03 106.428 1251.55 106.437 1251.07 106.43C1248.76 106.391 1247.28 106.324 1246.64 106.23C1245.47 106.066 1244 105.695 1242.2 105.116C1240.97 104.732 1239.66 103.888 1238.27 102.582C1236.76 101.124 1235.97 99.8352 1235.91 98.7167L1234.06 92.8053C1233.56 91.2293 1233.2 88.8611 1232.97 85.7008C1232.81 83.2738 1232.67 80.846 1232.54 78.4173C1232.35 75.447 1232.75 71.789 1233.74 67.4433ZM1251.38 68.3933C1249.57 67.9758 1247.68 68.0746 1245.73 68.6897C1243.64 69.3115 1242.44 72.0023 1242.11 76.7619C1241.95 79.0779 1241.92 81.2904 1242.03 83.3995C1242.15 85.7323 1242.47 88.1349 1242.98 90.6074C1243.92 95.0764 1245.68 97.4835 1248.26 97.8289C1248.97 97.9199 1249.68 97.9469 1250.38 97.9101C1251.98 97.8264 1253.29 97.3734 1254.3 96.5512C1255.75 95.3859 1256.59 91.977 1256.84 86.3242C1256.93 84.3329 1256.93 82.5064 1256.84 80.8446C1256.71 78.2242 1256.29 75.8426 1255.6 73.6997C1254.61 70.5796 1253.2 68.8108 1251.38 68.3933ZM1305.42 66.138C1303.49 67.1366 1301.03 67.7138 1298.06 67.8695C1297.07 67.9214 1296.02 67.9288 1294.89 67.8915C1296.6 77.7999 1297.78 85.3165 1298.43 90.4413C1298.92 94.3888 1299.19 96.6661 1299.22 97.2733C1299.23 100.509 1298.44 102.489 1296.84 103.214C1295.74 103.592 1294.63 103.827 1293.51 103.917C1292.27 104.014 1291.1 103.771 1290.01 103.187C1288.82 102.513 1288.15 101.587 1287.99 100.409C1287.74 98.5961 1287.54 96.3473 1287.4 93.663C1287.15 89.4784 1286.96 85.9473 1286.84 83.0696C1286.68 79.329 1286.48 76.4874 1286.25 74.5448L1285.56 68.669C1282.45 69.1846 1280.1 69.4356 1278.53 69.4217C1277.44 69.4148 1276.46 69.3221 1275.59 69.1436C1274.21 68.5428 1273.28 67.9666 1272.8 67.4148C1271.93 66.6275 1271.47 65.7385 1271.42 64.7479C1271.36 63.6294 1271.71 62.4732 1272.48 61.2792C1273.25 60.0853 1274.45 59.3337 1276.07 59.0246C1281.14 58.0217 1285.94 57.3693 1290.48 57.0676C1291.95 56.9586 1294.82 56.7759 1299.1 56.5196C1301.75 56.3486 1303.72 56.5181 1304.99 57.028C1307.58 58.0461 1308.94 59.8174 1309.07 62.342C1309.13 63.5882 1307.92 64.8536 1305.42 66.138ZM1334.89 67.718C1334.61 63.631 1334.48 61.2023 1334.51 60.432C1334.62 57.0935 1335.41 55.0654 1336.88 54.3475C1337.6 53.9894 1338.24 53.7953 1338.82 53.7652C1340.26 53.6898 1341.36 54.3048 1342.14 55.6101C1342.77 56.6665 1343.09 57.9633 1343.11 59.5005C1343.14 61.9022 1343.23 63.8524 1343.37 65.351L1344.4 75.8235C1344.61 78.0554 1344.74 79.3303 1344.79 79.6482C1345.42 83.1718 1345.91 85.8058 1346.26 87.55C1346.81 90.6296 1347.07 93.2753 1347.06 95.487C1347.05 96.9939 1346.71 98.2452 1346.06 99.2407C1345.32 100.369 1344.24 100.97 1342.84 101.044C1342.23 101.076 1341.57 100.998 1340.85 100.811C1339.39 100.471 1338.37 99.387 1337.8 97.5587C1337.5 96.6773 1337.25 95.1038 1337.07 92.8383L1336.23 83.1732C1335.98 80.2382 1334.64 78.9622 1332.23 79.3451C1329.53 79.7751 1327.57 79.974 1326.35 79.9417C1324.78 79.9279 1324.04 81.1362 1324.13 83.5665C1324.24 86.0928 1324.46 88.8208 1324.8 91.7507C1325.15 94.6487 1325.35 96.9134 1325.4 98.5448C1325.51 101.84 1323.65 103.267 1319.81 102.827C1318.42 102.676 1317.43 102.295 1316.82 101.686C1316.21 101.109 1315.85 100.135 1315.75 98.7622C1315.58 96.7523 1315.49 95.6994 1315.49 95.6035C1315.47 94.6112 1315.25 92.2994 1314.84 88.6681C1314.27 83.4424 1313.89 79.7935 1313.69 77.7213C1313.2 73.2609 1312.88 69.8811 1312.72 67.5819C1312.5 63.9725 1312.42 61.718 1312.46 60.8182C1312.66 57.7319 1313.52 55.9081 1315.06 55.3467C1315.75 55.0862 1316.35 54.9425 1316.87 54.9157C1318.97 54.8052 1320.56 56.5328 1321.61 60.0987C1322.15 61.9287 1322.46 63.8192 1322.53 65.7702C1322.63 68.3603 1322.78 69.8589 1322.96 70.2659C1323.43 71.2987 1324.73 71.775 1326.88 71.6947C1329.98 71.5642 1331.75 71.4553 1332.2 71.368C1334.12 70.8504 1335.02 69.6337 1334.89 67.718ZM1378.64 60.0417C1378.04 61.419 1377.12 62.3161 1375.9 62.733C1375.27 62.9582 1373.95 63.1395 1371.94 63.277C1370.12 63.4044 1368.44 63.4924 1366.9 63.5408C1365.4 63.5875 1363.88 63.9396 1362.34 64.5968C1360.96 65.1818 1360.08 66.0772 1359.7 67.283C1359.53 67.7405 1359.37 69.0145 1359.22 71.105C1359.26 71.84 1359.41 73.2099 1359.68 75.2148C1360.17 77.2719 1361.27 78.3519 1362.97 78.4548C1364.04 78.5274 1365.51 78.4663 1367.39 78.2717C1369.3 78.0753 1370.85 77.9781 1372.03 77.9801L1375.45 77.9934C1376.51 78.0021 1377.46 78.2722 1378.33 78.8039C1379.32 79.4247 1379.84 80.2305 1379.89 81.2211C1379.92 81.6685 1379.89 82.3749 1379.81 83.3403C1379.71 83.7304 1379.42 84.1778 1378.97 84.6822C1377.8 85.5128 1376.1 85.874 1373.88 85.7659C1371.44 85.6375 1369.63 85.5724 1368.44 85.5704C1366.71 85.565 1365.65 85.5404 1365.27 85.4966C1364.78 85.4578 1364.35 85.4484 1363.97 85.4685C1363.58 85.4886 1363.25 85.5382 1362.97 85.6171C1362.04 85.6657 1361.45 86.4174 1361.21 87.8722C1360.96 89.263 1361.17 90.2133 1361.84 90.7231C1362.71 91.3826 1363.53 91.7561 1364.3 91.8438C1367.23 92.1707 1369.83 92.1789 1372.09 91.8682C1376.29 91.2956 1378.78 91.9824 1379.55 93.9285C1379.7 94.3372 1379.79 94.7813 1379.81 95.2606C1379.97 98.2006 1378.19 99.7677 1374.48 99.962C1374.04 99.9854 1372.82 99.9532 1370.83 99.8653C1365.31 99.706 1361.97 99.5606 1360.8 99.4291C1355.68 98.8006 1352.93 95.8525 1352.55 90.5848C1352.18 85.2851 1351.75 80.6934 1351.26 76.8099C1351.04 75.1548 1350.9 73.7042 1350.84 72.4579C1350.66 69.0706 1350.81 65.6177 1351.3 62.0993C1351.95 57.3548 1355.49 54.3173 1361.93 52.9867C1363.99 52.5583 1365.53 52.3333 1366.55 52.3116C1369.85 52.2669 1372.83 52.6073 1375.5 53.3328C1376.45 53.6997 1377.26 54.4744 1377.93 55.6569C1378.6 56.8075 1378.88 57.8982 1378.77 58.9292C1378.71 59.5733 1378.67 59.9442 1378.64 60.0417ZM1389.06 54.1604C1390.77 52.5008 1394.66 51.2873 1400.74 50.52C1404.11 50.0869 1408.04 50.1054 1412.52 50.5756C1417.19 51.0678 1420.08 53.2398 1421.18 57.0915C1421.69 58.8912 1421.98 60.4142 1422.04 61.6605C1422.13 63.2903 1421.88 64.6812 1421.3 65.8331C1418.88 70.5419 1414.48 73.0957 1408.1 73.4945C1407.14 73.5448 1405.73 73.5545 1403.87 73.5238C1402.01 73.4612 1400.63 73.4533 1399.73 73.5002C1399.38 73.5186 1399.21 73.6397 1399.22 73.8634C1399.24 74.2149 1399.62 74.7557 1400.37 75.4858C1402.86 77.8864 1404.93 79.9733 1406.56 81.7463C1408.9 84.2512 1410.66 86.1134 1411.85 87.333C1414.3 90.0246 1415.56 92.0894 1415.64 93.5274C1415.72 95.0613 1414.95 96.2713 1413.33 97.1573C1412.73 97.4767 1412.13 97.6523 1411.53 97.6841C1409.55 97.788 1407.48 96.807 1405.32 94.7411C1403.73 93.1901 1402.3 91.3102 1401.03 89.1017L1394.62 77.7576C1395.64 84.3054 1396.17 88.2672 1396.21 89.643C1396.3 92.1053 1396.37 93.4634 1396.42 93.7174C1396.46 94.5163 1396.31 95.3892 1395.98 96.336C1395.64 97.2828 1395.13 97.9504 1394.45 98.3388C1393.95 98.6212 1393.12 98.8573 1391.94 99.0471C1389.72 99.42 1388.5 97.6252 1388.29 93.6626C1388.13 92.9343 1387.98 92.0605 1387.87 91.0413C1386.99 83.5248 1386.43 77.1612 1386.19 71.9507C1386.04 68.3699 1385.96 65.8908 1385.95 64.5134C1385.96 59.1936 1386.99 55.7426 1389.06 54.1604ZM1404.87 58.763C1403.6 58.2531 1402.35 58.03 1401.14 58.0936C1399.89 58.159 1398.77 58.554 1397.79 59.2786C1396.33 60.316 1395.64 61.7144 1395.7 63.4736C1395.79 65.7761 1397.07 66.9268 1399.53 66.9257C1404.37 66.9285 1406.99 65.7341 1407.37 63.3425C1407.73 61.0805 1406.9 59.554 1404.87 58.763ZM1443.55 56.4478C1444.82 50.8373 1449.57 47.8169 1457.78 47.3865C1458.8 47.3329 1459.88 47.3247 1461 47.362C1463.12 47.4112 1464.69 47.5529 1465.73 47.7869C1467 48.0731 1468.31 48.7251 1469.68 49.7429C1471.05 50.7608 1472 51.8483 1472.54 53.0056C1473.59 55.194 1474.24 57.3225 1474.51 59.3913C1474.63 60.3786 1474.87 62 1475.25 64.2555C1475.57 66.225 1475.77 67.8969 1475.85 69.271C1476.06 72.6886 1475.85 77.9865 1475.24 85.1646C1475.18 85.8407 1474.81 87.1096 1474.14 88.9713C1473.36 91.1593 1471.51 92.8424 1468.59 94.0208C1466.58 94.831 1464.49 95.2931 1462.32 95.4069C1461.84 95.4321 1461.36 95.4412 1460.88 95.4344C1458.57 95.3952 1457.09 95.3284 1456.44 95.2341C1455.28 95.0707 1453.8 94.6995 1452.01 94.1205C1450.77 93.7368 1449.46 92.8922 1448.08 91.5867C1446.56 90.1282 1445.77 88.8397 1445.71 87.7212L1443.87 81.8098C1443.37 80.2338 1443 77.8656 1442.77 74.7053C1442.61 72.2783 1442.47 69.8505 1442.34 67.4218C1442.16 64.4516 1442.56 60.7936 1443.55 56.4478ZM1461.19 57.3978C1459.37 56.9803 1457.49 57.0791 1455.53 57.6942C1453.45 58.3161 1452.25 61.0068 1451.92 65.7665C1451.75 68.0824 1451.72 70.2949 1451.83 72.404C1451.96 74.7368 1452.27 77.1395 1452.79 79.6119C1453.73 84.0809 1455.49 86.4881 1458.07 86.8334C1458.78 86.9244 1459.49 86.9515 1460.19 86.9146C1461.79 86.8309 1463.09 86.3779 1464.11 85.5557C1465.55 84.3905 1466.4 80.9815 1466.65 75.3287C1466.73 73.3374 1466.74 71.5109 1466.65 69.8492C1466.51 67.2288 1466.1 64.8471 1465.41 62.7043C1464.41 59.5841 1463.01 57.8153 1461.19 57.3978ZM1491.11 61.694C1491.13 62.1733 1491.23 62.8091 1491.4 63.6013C1491.54 64.523 1491.64 65.1428 1491.69 65.4607C1491.81 66.5119 1491.96 67.3688 1492.16 68.0315C1492.58 69.3872 1493.75 70.0148 1495.67 69.9143C1496.15 69.8892 1496.53 69.8532 1496.82 69.8061C1501.01 69.1057 1503.87 68.6514 1505.4 68.4432C1505.75 68.3928 1506.24 68.3509 1506.88 68.3174C1510.43 68.1315 1512.28 69.4446 1512.42 72.2567C1512.47 73.1196 1512.29 74.0261 1511.89 74.9762C1511.07 76.9102 1509.29 77.8685 1506.56 77.8511C1501.18 77.8129 1498.49 77.7938 1498.49 77.7938C1495.86 77.8352 1494.58 78.7835 1494.65 80.6386C1494.72 82.6536 1495.14 84.8746 1495.91 87.3017C1496.26 88.4051 1496.45 89.3722 1496.49 90.2031C1496.55 91.2257 1496.31 91.9749 1495.79 92.4508C1494.94 93.2326 1493.55 93.6898 1491.64 93.8222C1489.78 93.9513 1488.48 93.8594 1487.73 93.5464C1486.12 92.8615 1485.07 90.4335 1484.56 86.2623C1484.27 83.7781 1484.06 82.2988 1483.94 81.8245C1483.9 81.7303 1483.88 81.6353 1483.88 81.5394L1482.39 53.0665C1482.98 50.8566 1484.35 49.1826 1486.5 48.0445C1487.96 47.2627 1490.09 46.6224 1492.89 46.1235C1495.71 45.6229 1498.37 45.3393 1500.87 45.2726C1504 45.2043 1506.89 45.3092 1509.54 45.5873C1511.86 45.8502 1513.27 46.7697 1513.77 48.3457C1514 49.0707 1514.13 49.7367 1514.16 50.3439C1514.25 52.0376 1513.43 53.5065 1511.7 54.7507C1511.33 55.0265 1510.74 55.1853 1509.95 55.2271C1508.89 55.2824 1507.54 55.193 1505.89 54.9588C1502.83 54.5107 1499.77 54.5109 1496.71 54.9593C1494.74 55.2548 1493.24 56.1829 1492.2 57.7435C1491.4 58.9711 1491.03 60.2879 1491.11 61.694ZM1572.07 53.3652C1572.04 55.1295 1571.71 56.9568 1571.11 58.8471C1569.87 62.6613 1567.29 65.0877 1563.37 66.1262C1562.58 66.3278 1560.7 66.6504 1557.75 67.0937C1556.41 67.2919 1555.04 67.4278 1553.63 67.5015C1551.11 67.6338 1548.51 67.5458 1545.83 67.2374C1546.47 74.4461 1547.02 78.8233 1547.48 80.369C1547.87 81.6945 1548.15 82.9618 1548.31 84.1711C1548.48 85.6041 1548.46 86.7587 1548.25 87.6349C1548.08 88.7332 1547.42 89.6328 1546.27 90.3339C1545.16 91.0333 1544.05 91.2997 1542.95 91.1329C1540.72 90.8011 1539.3 88.4403 1538.69 84.0504C1538.38 81.8555 1538.17 80.2005 1538.04 79.0853C1537.52 75.7484 1537.13 72.4678 1536.9 69.2435L1536.38 59.3691C1536.27 57.1002 1536.46 54.7347 1536.97 52.2725C1537.84 48.0932 1540.72 45.2347 1545.61 43.6969C1547.53 43.0834 1550.78 42.6569 1555.35 42.4174C1559.73 42.188 1563.27 42.7875 1565.97 44.2161C1568.04 45.3249 1569.55 46.5278 1570.48 47.8247C1571.59 49.337 1572.12 51.1838 1572.07 53.3652ZM1556.59 58.8867C1558.14 57.7804 1558.88 56.5561 1558.81 55.214C1558.76 54.4151 1558.43 53.5993 1557.81 52.7666C1556.43 50.8843 1554.46 50.0101 1551.91 50.1441C1551.17 50.1826 1550.52 50.2649 1549.95 50.3909C1546.4 51.1537 1544.8 53.3044 1545.14 56.8432C1545.36 59.2029 1547.38 60.347 1551.19 60.2756C1553.27 60.2306 1554.59 60.0653 1555.15 59.7795L1556.09 59.2978C1556.33 59.1246 1556.5 58.9876 1556.59 58.8867ZM1603.14 48.2759C1602.54 49.6533 1601.63 50.5504 1600.4 50.9672C1599.77 51.1924 1598.45 51.3738 1596.44 51.5112C1594.62 51.6387 1592.94 51.7266 1591.41 51.775C1589.9 51.8218 1588.38 52.1738 1586.85 52.8311C1585.47 53.416 1584.59 54.3114 1584.2 55.5173C1584.03 55.9747 1583.88 57.2487 1583.73 59.3392C1583.77 60.0742 1583.92 61.4442 1584.18 63.449C1584.68 65.5061 1585.77 66.5861 1587.48 66.6891C1588.54 66.7616 1590.01 66.7006 1591.89 66.5059C1593.8 66.3095 1595.35 66.2123 1596.54 66.2143L1599.95 66.2276C1601.01 66.2363 1601.97 66.5065 1602.83 67.0381C1603.82 67.659 1604.35 68.4647 1604.4 69.4553C1604.42 69.9027 1604.39 70.6091 1604.32 71.5745C1604.21 71.9647 1603.93 72.412 1603.47 72.9164C1602.3 73.747 1600.6 74.1083 1598.39 74.0001C1595.95 73.8718 1594.13 73.8066 1592.95 73.8046C1591.22 73.7992 1590.16 73.7746 1589.77 73.7308C1589.29 73.692 1588.85 73.6826 1588.47 73.7027C1588.09 73.7228 1587.75 73.7724 1587.47 73.8514C1586.54 73.8999 1585.96 74.6516 1585.71 76.1064C1585.47 77.4972 1585.68 78.4475 1586.34 78.9573C1587.21 79.6168 1588.03 79.9904 1588.81 80.078C1591.74 80.4049 1594.33 80.4131 1596.59 80.1024C1600.79 79.5298 1603.28 80.2166 1604.06 82.1627C1604.2 82.5715 1604.29 83.0155 1604.32 83.4948C1604.47 86.4348 1602.69 88.0019 1598.99 88.1962C1598.54 88.2196 1597.32 88.1874 1595.33 88.0995C1589.81 87.9402 1586.47 87.7948 1585.31 87.6633C1580.18 87.0349 1577.43 84.0867 1577.06 78.819C1576.69 73.5193 1576.25 68.9277 1575.76 65.0441C1575.55 63.3891 1575.41 61.9384 1575.34 60.6921C1575.16 57.3048 1575.32 53.8519 1575.81 50.3335C1576.46 45.5891 1580 42.5515 1586.43 41.2209C1588.49 40.7925 1590.04 40.5675 1591.06 40.5458C1594.36 40.5012 1597.34 40.8416 1600 41.5671C1600.95 41.9339 1601.76 42.7086 1602.43 43.8911C1603.1 45.0417 1603.38 46.1324 1603.28 47.1634C1603.22 47.8076 1603.17 48.1784 1603.14 48.2759ZM1626.97 38.6638C1633.04 38.8906 1637.47 43.6252 1640.26 52.8678C1640.88 54.8862 1641.69 58.5285 1642.71 63.7947C1643.5 67.8869 1643.98 71.6426 1644.16 75.0619C1644.29 77.3947 1644.09 79.5517 1643.59 81.5328C1642.88 84.4541 1641.61 85.9625 1639.79 86.0579C1638.13 86.145 1636.88 85.842 1636.04 85.1489C1635.2 84.4558 1634.63 83.2682 1634.31 81.5863C1634 79.9363 1633.72 77.2435 1633.46 73.508C1633.21 69.9642 1632.87 67.242 1632.45 65.3414C1631.44 60.6201 1630.08 58.2719 1628.38 58.2968C1626.62 58.325 1625.27 58.524 1624.33 58.8938C1622.45 59.6334 1621.35 61.2931 1621.03 63.8731C1620.88 65.1311 1620.96 67.2738 1621.27 70.3013C1621.74 74.9552 1622.14 78.187 1622.46 79.9968C1622.55 80.5047 1622.6 80.9344 1622.62 81.286C1622.82 85.1207 1621.34 87.121 1618.17 87.2868C1617.86 87.3035 1617.44 87.2933 1616.92 87.2562C1614.35 87.0706 1612.6 85.7046 1611.66 83.158C1611.07 81.555 1610.78 79.1667 1610.81 75.993C1610.83 71.0247 1610.85 68.0595 1610.87 67.0975C1610.91 64.7563 1611.3 60.9705 1612.05 55.74C1612.71 51.1873 1613.43 47.7531 1614.2 45.4373C1614.95 43.251 1616.39 41.5736 1618.51 40.4052C1620.34 39.3797 1622.52 38.8007 1625.05 38.6684C1625.62 38.6383 1626.26 38.6368 1626.97 38.6638ZM1629.85 49.616C1629.9 49.389 1629.92 49.1477 1629.91 48.892C1629.8 46.7829 1628.4 45.7028 1625.7 45.6518C1623.97 45.6144 1622.6 46.1666 1621.61 47.3083C1620.94 48.0482 1620.63 48.7537 1620.66 49.4248C1620.68 49.7443 1620.81 50.09 1621.05 50.4618C1621.61 51.2978 1622.39 51.7857 1623.39 51.9255C1623.71 51.9727 1624.67 51.9544 1626.27 51.8707C1628.25 51.7668 1629.44 51.0153 1629.85 49.616ZM1651.34 40.4148C1653.05 38.7552 1656.94 37.5418 1663.02 36.7745C1666.39 36.3413 1670.32 36.3599 1674.8 36.8301C1679.47 37.3223 1682.36 39.4942 1683.46 43.346C1683.97 45.1457 1684.26 46.6687 1684.32 47.915C1684.41 49.5448 1684.16 50.9356 1683.58 52.0876C1681.17 56.7963 1676.77 59.3501 1670.38 59.749C1669.42 59.7992 1668.01 59.809 1666.15 59.7783C1664.29 59.7157 1662.91 59.7078 1662.01 59.7547C1661.66 59.7731 1661.49 59.8941 1661.5 60.1178C1661.52 60.4694 1661.9 61.0102 1662.65 61.7403C1665.14 64.1409 1667.21 66.2277 1668.84 68.0008C1671.18 70.5056 1672.95 72.3679 1674.13 73.5875C1676.58 76.2791 1677.84 78.3438 1677.92 79.7819C1678 81.3158 1677.23 82.5257 1675.61 83.4117C1675.01 83.7311 1674.42 83.9068 1673.81 83.9386C1671.83 84.0424 1669.76 83.0614 1667.6 80.9956C1666.01 79.4445 1664.58 77.5647 1663.31 75.3561L1656.9 64.0121C1657.92 70.5599 1658.45 74.5216 1658.49 75.8974C1658.58 78.3597 1658.65 79.7179 1658.7 79.9718C1658.74 80.7707 1658.6 81.6436 1658.26 82.5904C1657.93 83.5373 1657.42 84.2049 1656.73 84.5932C1656.23 84.8757 1655.4 85.1118 1654.22 85.3016C1652 85.6745 1650.78 83.8796 1650.57 79.917C1650.41 79.1888 1650.27 78.315 1650.15 77.2957C1649.27 69.7792 1648.72 63.4157 1648.47 58.2052C1648.32 54.6244 1648.24 52.1453 1648.23 50.7678C1648.24 45.448 1649.28 41.997 1651.34 40.4148ZM1667.15 45.0175C1665.88 44.5076 1664.63 44.2845 1663.42 44.3481C1662.17 44.4134 1661.05 44.8084 1660.07 45.5331C1658.62 46.5705 1657.92 47.9688 1657.98 49.7281C1658.07 52.0306 1659.35 53.1813 1661.81 53.1801C1666.65 53.1829 1669.27 51.9885 1669.65 49.597C1670.02 47.3349 1669.18 45.8084 1667.15 45.0175ZM1693.33 35.1862C1696.21 34.4906 1698.25 35.0402 1699.47 36.835C1700.06 37.7013 1700.5 38.8157 1700.8 40.1781C1701.09 41.5404 1701.19 42.7691 1701.09 43.864C1700.83 46.8896 1700.65 48.9978 1700.55 50.1886C1700.16 53.157 1699.98 55.8261 1700.01 58.1959C1700.04 59.9568 1700.06 61.2216 1700.07 61.9902C1700.11 67.1149 1700.63 70.0516 1701.63 70.8003C1703.03 71.8484 1705 72.3063 1707.52 72.174C1709.11 71.8666 1710.3 71.644 1711.09 71.5063C1712.82 71.4158 1714.41 71.2682 1715.88 71.0633C1717.62 70.8114 1719.13 70.8925 1720.41 71.3065C1722.13 71.8249 1723.04 72.867 1723.12 74.4329C1723.28 77.5966 1722.55 79.5894 1720.93 80.4115C1720.37 80.6973 1718.94 81.0283 1716.66 81.4045C1712.97 82.0142 1709.69 82.3945 1706.82 82.5452C1705.6 82.6088 1704.25 82.5354 1702.77 82.3248C1699.38 81.8615 1697 81.2008 1695.65 80.3428C1694.82 79.8094 1694.05 78.9204 1693.34 77.6756C1692.71 76.5234 1692.31 75.4225 1692.16 74.373C1691.92 72.8155 1691.75 71.7189 1691.65 71.0831C1691.16 67.9043 1690.84 65.7102 1690.68 64.5009C1690.11 60.846 1689.72 57.8698 1689.54 55.5723C1689.23 51.455 1689.03 48.9338 1688.95 48.0088C1688.78 45.903 1688.65 44.4196 1688.57 43.5584C1688.26 39.9221 1688.79 37.555 1690.17 36.457C1690.78 35.8483 1691.58 35.4861 1692.57 35.3702C1692.98 35.2526 1693.23 35.1913 1693.33 35.1862ZM1738.06 39.4751C1738.24 40.523 1738.49 43.7464 1738.8 49.1453C1739.03 52.9464 1739.03 56.2471 1738.79 59.0474C1738.37 64.325 1737.21 67.0132 1735.32 67.1121C1733.82 67.1908 1732.57 66.4875 1731.56 65.0021C1730.72 63.7321 1730.26 62.2822 1730.18 60.6525C1729.93 55.891 1729.31 49.8193 1728.31 42.4373C1728.21 41.6737 1728.14 40.9883 1728.11 40.3811C1727.87 35.8114 1729.25 33.3999 1732.25 33.1466C1734.16 32.9822 1735.52 33.6317 1736.34 35.0951C1737.26 36.7453 1737.83 38.2053 1738.06 39.4751ZM1737.68 80.9276C1736.06 81.1408 1735.13 81.1414 1734.89 80.9295C1732.46 80.2562 1731.18 78.9289 1731.08 76.9476C1731.04 76.1167 1731.19 75.1631 1731.56 74.0868C1732.53 71.248 1733.99 69.7775 1735.94 69.6754C1736.45 69.6486 1737.05 69.7454 1737.73 69.9659C1739.91 70.6526 1741.06 72.0026 1741.16 74.0158C1741.2 74.6549 1741.14 75.3151 1740.98 75.9962C1740.28 79.0772 1739.18 80.721 1737.68 80.9276Z" fill="white"/>
<path d="M615.253 119.996C616.159 112.835 616.893 107.878 617.453 105.125C618.893 97.7435 620.595 93.5366 622.56 92.5044C623.995 91.7563 625.335 91.3496 626.582 91.2842C628.882 91.1637 630.878 92.5491 632.567 95.4407C633.939 97.7721 634.905 101.839 635.466 107.642C636.026 113.444 636.431 117.797 636.679 120.7C637.156 125.514 637.404 129.042 637.426 131.284C637.492 135.606 636.327 137.83 633.93 137.956C633.355 137.986 632.69 137.828 631.935 137.483C630.262 136.738 629.032 134.976 628.245 132.197C627.929 131.06 627.539 128.822 627.076 125.481C626.859 123.794 626.577 121.165 626.23 117.595C626.017 115.363 625.805 111.016 625.595 104.554C624.731 108.252 624.131 112.401 623.796 117.001C622.91 129.449 621.845 136.025 620.6 136.732C619.263 137.507 618.227 137.913 617.492 137.952C616.693 137.994 615.687 137.758 614.474 137.245C612.838 136.594 611.844 135.364 611.493 133.556C611.003 130.922 610.313 127.85 609.424 124.339C608.859 122.126 608.06 119.092 607.024 115.237C605.988 111.35 604.707 108.004 603.182 105.2C602.818 106.821 602.986 110.337 603.687 115.748C604.385 121.736 604.916 126.37 605.28 129.652C605.698 133.347 605.886 135.404 605.844 135.823C605.643 138.108 604.408 139.599 602.137 140.295C601.759 140.411 601.442 140.475 601.186 140.489C600.004 140.551 598.821 139.988 597.637 138.8C596.083 137.279 595.241 133.142 595.112 126.387C594.962 119.858 594.742 115.672 594.453 113.829C594.173 112.145 593.872 109.453 593.55 105.753C593.249 102.468 593.565 99.6316 594.498 97.2436C595.684 94.2013 597.795 92.6006 600.831 92.4415C601.406 92.4114 602.081 92.4401 602.854 92.5277C606.593 92.9406 609.241 95.1571 610.797 99.1772C612.838 104.486 614.323 111.425 615.253 119.996ZM641.96 98.4572C643.236 92.8468 647.98 89.8263 656.193 89.3959C657.216 89.3423 658.289 89.3341 659.412 89.3714C661.53 89.4206 663.107 89.5623 664.145 89.7963C665.41 90.0825 666.725 90.7345 668.093 91.7524C669.46 92.7702 670.414 93.8578 670.955 95.015C671.999 97.2034 672.656 99.3319 672.924 101.401C673.04 102.388 673.285 104.009 673.66 106.265C673.987 108.234 674.187 109.906 674.259 111.28C674.47 114.698 674.267 119.996 673.65 127.174C673.589 127.85 673.223 129.119 672.552 130.981C671.769 133.169 669.919 134.852 667 136.03C664.992 136.84 662.901 137.302 660.728 137.416C660.249 137.441 659.769 137.451 659.288 137.444C656.979 137.405 655.501 137.338 654.855 137.243C653.693 137.08 652.216 136.709 650.423 136.13C649.185 135.746 647.875 134.902 646.493 133.596C644.975 132.138 644.186 130.849 644.127 129.731L642.279 123.819C641.78 122.243 641.416 119.875 641.186 116.715C641.027 114.288 640.884 111.86 640.756 109.431C640.569 106.461 640.97 102.803 641.96 98.4572ZM659.602 99.4072C657.785 98.9897 655.9 99.0885 653.945 99.7037C651.863 100.325 650.658 103.016 650.331 107.776C650.164 110.092 650.136 112.304 650.246 114.413C650.368 116.746 650.687 119.149 651.201 121.621C652.14 126.09 653.9 128.497 656.482 128.843C657.192 128.934 657.898 128.961 658.601 128.924C660.199 128.84 661.505 128.387 662.519 127.565C663.964 126.4 664.811 122.991 665.06 117.338C665.147 115.347 665.148 113.52 665.061 111.859C664.923 109.238 664.51 106.857 663.821 104.714C662.824 101.594 661.418 99.8247 659.602 99.4072ZM713.641 97.1519C711.706 98.1506 709.253 98.7277 706.281 98.8835C705.291 98.9354 704.234 98.9427 703.11 98.9055C704.815 108.814 705.994 116.33 706.647 121.455C707.143 125.403 707.406 127.68 707.438 128.287C707.447 131.523 706.654 133.503 705.058 134.228C703.956 134.606 702.847 134.841 701.73 134.931C700.485 135.028 699.319 134.785 698.231 134.201C697.042 133.527 696.368 132.6 696.211 131.423C695.955 129.61 695.757 127.361 695.617 124.677C695.365 120.492 695.18 116.961 695.062 114.084C694.898 110.343 694.701 107.501 694.471 105.559L693.778 99.683C690.665 100.199 688.323 100.45 686.752 100.436C685.662 100.429 684.68 100.336 683.805 100.158C682.428 99.5568 681.501 98.9805 681.023 98.4288C680.149 97.6415 679.685 96.7525 679.634 95.7618C679.575 94.6434 679.931 93.4872 680.701 92.2932C681.472 91.0992 682.666 90.3477 684.284 90.0386C689.359 89.0356 694.163 88.3833 698.698 88.0816C700.166 87.9726 703.04 87.7899 707.321 87.5335C709.972 87.3626 711.935 87.532 713.212 88.0419C715.796 89.06 717.155 90.8314 717.287 93.3559C717.353 94.6022 716.137 95.8675 713.641 97.1519ZM743.107 98.732C742.828 94.645 742.701 92.2163 742.725 91.446C742.838 88.1075 743.629 86.0793 745.098 85.3615C745.816 85.0034 746.463 84.8093 747.038 84.7791C748.476 84.7038 749.581 85.3187 750.355 86.6241C750.987 87.6804 751.311 88.9772 751.328 90.5145C751.358 92.9162 751.444 94.8664 751.586 96.365L752.616 106.837C752.829 109.069 752.96 110.344 753.009 110.662C753.642 114.186 754.132 116.82 754.48 118.564C755.026 121.644 755.293 124.289 755.281 126.501C755.263 128.008 754.928 129.259 754.276 130.255C753.534 131.383 752.46 131.984 751.054 132.058C750.446 132.09 749.785 132.012 749.071 131.825C747.611 131.485 746.593 130.401 746.016 128.573C745.714 127.691 745.471 126.118 745.288 123.852L744.445 114.187C744.195 111.252 742.863 109.976 740.447 110.359C737.746 110.789 735.786 110.988 734.567 110.956C732.996 110.942 732.258 112.15 732.353 114.581C732.454 117.107 732.677 119.835 733.023 122.765C733.367 125.663 733.565 127.927 733.619 129.559C733.728 132.854 731.864 134.281 728.027 133.841C726.642 133.69 725.644 133.309 725.036 132.7C724.429 132.123 724.073 131.149 723.969 129.776C723.8 127.766 723.712 126.713 723.707 126.617C723.687 125.625 723.47 123.313 723.056 119.682C722.493 114.456 722.11 110.807 721.905 108.735C721.415 104.275 721.094 100.895 720.941 98.5959C720.72 94.9865 720.634 92.7319 720.683 91.8321C720.873 88.7459 721.739 86.9221 723.28 86.3607C723.971 86.1002 724.573 85.9565 725.084 85.9297C727.193 85.8192 728.774 87.5468 729.826 91.1126C730.37 92.9426 730.677 94.8331 730.748 96.7841C730.851 99.3743 730.994 100.873 731.176 101.28C731.646 102.313 732.953 102.789 735.096 102.709C738.197 102.578 739.97 102.469 740.414 102.382C742.341 101.864 743.239 100.648 743.107 98.732ZM786.858 91.0557C786.258 92.433 785.343 93.3301 784.116 93.7469C783.486 93.9722 782.166 94.1535 780.155 94.291C778.335 94.4184 776.657 94.5063 775.121 94.5547C773.618 94.6015 772.098 94.9535 770.562 95.6108C769.183 96.1958 768.301 97.0912 767.915 98.297C767.747 98.7544 767.59 100.028 767.443 102.119C767.481 102.854 767.633 104.224 767.899 106.229C768.391 108.286 769.489 109.366 771.193 109.469C772.254 109.541 773.725 109.48 775.605 109.286C777.517 109.089 779.066 108.992 780.252 108.994L783.666 109.007C784.723 109.016 785.683 109.286 786.544 109.818C787.538 110.439 788.061 111.244 788.113 112.235C788.136 112.682 788.109 113.389 788.031 114.354C787.924 114.744 787.643 115.192 787.188 115.696C786.014 116.527 784.319 116.888 782.102 116.78C779.66 116.651 777.846 116.586 776.661 116.584C774.93 116.579 773.871 116.554 773.484 116.511C773.002 116.472 772.569 116.462 772.185 116.482C771.802 116.503 771.468 116.552 771.183 116.631C770.257 116.68 769.671 117.431 769.427 118.886C769.18 120.277 769.39 121.227 770.057 121.737C770.925 122.397 771.746 122.77 772.519 122.858C775.452 123.185 778.048 123.193 780.307 122.882C784.507 122.31 786.994 122.996 787.769 124.942C787.919 125.351 788.006 125.795 788.031 126.275C788.185 129.215 786.409 130.782 782.702 130.976C782.255 130.999 781.035 130.967 779.044 130.879C773.524 130.72 770.184 130.575 769.023 130.443C763.895 129.815 761.145 126.866 760.773 121.599C760.399 116.299 759.966 111.707 759.474 107.824C759.26 106.169 759.119 104.718 759.054 103.472C758.877 100.085 759.032 96.6316 759.521 93.1133C760.169 88.3688 763.711 85.3313 770.146 84.0007C772.207 83.5722 773.749 83.3472 774.773 83.3256C778.071 83.2809 781.053 83.6213 783.719 84.3468C784.667 84.7137 785.477 85.4883 786.148 86.6709C786.817 87.8214 787.099 88.9122 786.992 89.9431C786.93 90.5873 786.885 90.9581 786.858 91.0557ZM797.277 85.1743C798.985 83.5147 802.878 82.3013 808.959 81.534C812.333 81.1008 816.259 81.1194 820.738 81.5896C825.41 82.0818 828.295 84.2537 829.395 88.1055C829.905 89.9052 830.194 91.4282 830.259 92.6745C830.344 94.3043 830.097 95.6951 829.516 96.8471C827.103 101.556 822.703 104.11 816.315 104.508C815.356 104.559 813.947 104.568 812.087 104.538C810.225 104.475 808.847 104.467 807.952 104.514C807.6 104.533 807.431 104.654 807.442 104.877C807.461 105.229 807.841 105.77 808.585 106.5C811.082 108.9 813.146 110.987 814.777 112.76C817.119 115.265 818.883 117.127 820.068 118.347C822.517 121.039 823.779 123.103 823.854 124.541C823.934 126.075 823.165 127.285 821.545 128.171C820.953 128.491 820.353 128.666 819.746 128.698C817.765 128.802 815.694 127.821 813.535 125.755C811.948 124.204 810.52 122.324 809.25 120.116L802.84 108.772C803.856 115.319 804.384 119.281 804.424 120.657C804.521 123.119 804.592 124.477 804.637 124.731C804.679 125.53 804.533 126.403 804.198 127.35C803.863 128.297 803.353 128.964 802.669 129.353C802.171 129.635 801.334 129.871 800.158 130.061C797.935 130.434 796.719 128.639 796.511 124.677C796.345 123.948 796.203 123.074 796.086 122.055C795.211 114.539 794.653 108.175 794.412 102.965C794.257 99.3839 794.175 96.9048 794.167 95.5273C794.176 90.2075 795.213 86.7565 797.277 85.1743ZM813.092 89.777C811.815 89.2671 810.57 89.044 809.356 89.1076C808.109 89.1729 806.992 89.5679 806.005 90.2926C804.553 91.33 803.857 92.7283 803.918 94.4876C804.006 96.7901 805.284 97.9408 807.752 97.9397C812.59 97.9424 815.203 96.748 815.591 94.3565C815.953 92.0944 815.12 90.5679 813.092 89.777ZM851.766 87.4618C853.042 81.8513 857.786 78.8309 865.999 78.4005C867.021 78.3469 868.094 78.3387 869.218 78.3759C871.335 78.4252 872.913 78.5668 873.951 78.8008C875.215 79.087 876.531 79.7391 877.898 80.7569C879.266 81.7747 880.22 82.8623 880.761 84.0196C881.805 86.2079 882.461 88.3365 882.73 90.4053C882.846 91.3926 883.091 93.0139 883.466 95.2694C883.793 97.239 883.993 98.9108 884.065 100.285C884.276 103.703 884.073 109 883.456 116.179C883.395 116.855 883.029 118.124 882.358 119.985C881.575 122.173 879.725 123.856 876.806 125.035C874.798 125.845 872.707 126.307 870.534 126.421C870.055 126.446 869.575 126.455 869.094 126.448C866.784 126.409 865.307 126.342 864.661 126.248C863.499 126.085 862.022 125.713 860.229 125.134C858.991 124.751 857.681 123.906 856.299 122.601C854.78 121.142 853.992 119.854 853.933 118.735L852.085 112.824C851.586 111.248 851.222 108.88 850.992 105.719C850.833 103.292 850.689 100.864 850.562 98.4358C850.375 95.4656 850.776 91.8075 851.766 87.4618ZM869.407 88.4118C867.591 87.9943 865.706 88.0931 863.751 88.7082C861.669 89.33 860.464 92.0208 860.137 96.7804C859.97 99.0964 859.941 101.309 860.052 103.418C860.174 105.751 860.492 108.153 861.007 110.626C861.946 115.095 863.706 117.502 866.288 117.847C866.997 117.938 867.704 117.965 868.407 117.929C870.005 117.845 871.311 117.392 872.325 116.57C873.77 115.404 874.617 111.995 874.865 106.343C874.953 104.351 874.954 102.525 874.867 100.863C874.729 98.2427 874.316 95.8611 873.627 93.7182C872.63 90.5981 871.224 88.8293 869.407 88.4118ZM899.325 92.7079C899.35 93.1873 899.447 93.823 899.617 94.6152C899.761 95.537 899.858 96.1567 899.906 96.4746C900.026 97.5258 900.183 98.3828 900.378 99.0455C900.801 100.401 901.972 101.029 903.889 100.928C904.368 100.903 904.751 100.867 905.037 100.82C909.23 100.12 912.09 99.6654 913.617 99.4571C913.967 99.4068 914.462 99.3648 915.101 99.3313C918.648 99.1454 920.495 100.459 920.643 103.271C920.688 104.134 920.511 105.04 920.112 105.99C919.284 107.924 917.508 108.882 914.783 108.865C909.398 108.827 906.705 108.808 906.705 108.808C904.08 108.849 902.8 109.797 902.865 111.653C902.938 113.668 903.359 115.889 904.127 118.316C904.474 119.419 904.668 120.386 904.712 121.217C904.766 122.24 904.532 122.989 904.013 123.465C903.156 124.247 901.77 124.704 899.855 124.836C898.003 124.965 896.7 124.873 895.947 124.56C894.341 123.875 893.284 121.447 892.777 117.276C892.487 114.792 892.281 113.313 892.16 112.838C892.123 112.744 892.102 112.649 892.097 112.553L890.605 84.0804C891.194 81.8706 892.564 80.1966 894.716 79.0584C896.181 78.2767 898.31 77.6363 901.104 77.1375C903.93 76.6369 906.591 76.3532 909.086 76.2865C912.223 76.2183 915.113 76.3232 917.755 76.6013C920.076 76.8642 921.486 77.7836 921.985 79.3597C922.215 80.0846 922.346 80.7507 922.378 81.3578C922.467 83.0515 921.647 84.5205 919.917 85.7647C919.547 86.0404 918.963 86.1992 918.164 86.2411C917.109 86.2964 915.759 86.2069 914.112 85.9728C911.045 85.5247 907.984 85.5249 904.932 85.9732C902.96 86.2688 901.455 87.1969 900.415 88.7574C899.614 89.985 899.251 91.3019 899.325 92.7079ZM980.289 84.3791C980.254 86.1434 979.933 87.9707 979.327 89.861C978.085 93.6752 975.504 96.1016 971.585 97.1402C970.795 97.3418 968.921 97.6643 965.964 98.1077C964.629 98.3058 963.258 98.4418 961.852 98.5154C959.327 98.6478 956.727 98.5597 954.052 98.2513C954.686 105.46 955.235 109.837 955.701 111.383C956.091 112.708 956.366 113.976 956.525 115.185C956.696 116.618 956.677 117.773 956.466 118.649C956.3 119.747 955.642 120.647 954.493 121.348C953.376 122.047 952.268 122.314 951.17 122.147C948.942 121.815 947.52 119.454 946.906 115.064C946.598 112.869 946.383 111.214 946.261 110.099C945.734 106.762 945.353 103.482 945.12 100.258L944.603 90.3831C944.484 88.1142 944.68 85.7486 945.192 83.2865C946.063 79.1072 948.941 76.2486 953.827 74.7108C955.75 74.0974 958.996 73.6709 963.566 73.4314C967.944 73.202 971.484 73.8015 974.186 75.23C976.263 76.3388 977.768 77.5417 978.701 78.8387C979.806 80.3509 980.335 82.1977 980.289 84.3791ZM964.813 89.9007C966.357 88.7943 967.094 87.5701 967.024 86.2279C966.982 85.429 966.651 84.6132 966.031 83.7806C964.65 81.8982 962.682 81.0241 960.125 81.158C959.39 81.1966 958.738 81.2788 958.167 81.4048C954.619 82.1676 953.017 84.3184 953.363 87.8571C953.582 90.2169 955.597 91.361 959.406 91.2895C961.487 91.2446 962.808 91.0792 963.37 90.7934L964.306 90.3118C964.553 90.1386 964.722 90.0016 964.813 89.9007ZM1011.36 79.2899C1010.76 80.6672 1009.85 81.5643 1008.62 81.9811C1007.99 82.2064 1006.67 82.3877 1004.66 82.5252C1002.84 82.6526 1001.16 82.7405 999.626 82.789C998.122 82.8357 996.603 83.1877 995.067 83.845C993.688 84.43 992.805 85.3254 992.42 86.5312C992.252 86.9887 992.094 88.2627 991.947 90.3532C991.986 91.0882 992.138 92.4581 992.403 94.463C992.895 96.52 993.993 97.6001 995.697 97.703C996.758 97.7756 998.229 97.7145 1000.11 97.5198C1002.02 97.3235 1003.57 97.2263 1004.76 97.2282L1008.17 97.2416C1009.23 97.2503 1010.19 97.5204 1011.05 98.0521C1012.04 98.6729 1012.57 99.4787 1012.62 100.469C1012.64 100.917 1012.61 101.623 1012.54 102.588C1012.43 102.979 1012.15 103.426 1011.69 103.93C1010.52 104.761 1008.82 105.122 1006.61 105.014C1004.16 104.886 1002.35 104.821 1001.16 104.819C999.434 104.813 998.376 104.789 997.989 104.745C997.506 104.706 997.073 104.697 996.689 104.717C996.306 104.737 995.972 104.786 995.688 104.865C994.761 104.914 994.176 105.666 993.931 107.12C993.684 108.511 993.894 109.462 994.562 109.971C995.429 110.631 996.25 111.004 997.024 111.092C999.957 111.419 1002.55 111.427 1004.81 111.116C1009.01 110.544 1011.5 111.231 1012.27 113.177C1012.42 113.585 1012.51 114.029 1012.54 114.509C1012.69 117.449 1010.91 119.016 1007.21 119.21C1006.76 119.234 1005.54 119.201 1003.55 119.113C998.028 118.954 994.688 118.809 993.528 118.677C988.4 118.049 985.65 115.101 985.278 109.833C984.904 104.533 984.471 99.9416 983.979 96.0581C983.764 94.403 983.624 92.9524 983.559 91.7061C983.381 88.3187 983.536 84.8659 984.025 81.3475C984.674 76.603 988.215 73.5655 994.651 72.2349C996.711 71.8065 998.253 71.5814 999.278 71.5598C1002.58 71.5151 1005.56 71.8555 1008.22 72.581C1009.17 72.9479 1009.98 73.7226 1010.65 74.9051C1011.32 76.0556 1011.6 77.1464 1011.5 78.1774C1011.43 78.8215 1011.39 79.1924 1011.36 79.2899ZM1035.19 69.6778C1041.26 69.9045 1045.69 74.6392 1048.48 83.8817C1049.1 85.9001 1049.91 89.5424 1050.93 94.8086C1051.72 98.9008 1052.2 102.657 1052.38 106.076C1052.5 108.409 1052.31 110.566 1051.81 112.547C1051.09 115.468 1049.83 116.976 1048.01 117.072C1046.34 117.159 1045.1 116.856 1044.26 116.163C1043.42 115.47 1042.85 114.282 1042.53 112.6C1042.22 110.95 1041.94 108.257 1041.68 104.522C1041.43 100.978 1041.09 98.256 1040.67 96.3554C1039.66 91.6341 1038.3 89.2859 1036.6 89.3107C1034.84 89.3389 1033.49 89.5379 1032.55 89.9077C1030.66 90.6473 1029.57 92.3071 1029.25 94.887C1029.09 96.1451 1029.17 98.2878 1029.49 101.315C1029.96 105.969 1030.35 109.201 1030.67 111.011C1030.76 111.519 1030.82 111.948 1030.84 112.3C1031.04 116.135 1029.56 118.135 1026.39 118.301C1026.07 118.317 1025.66 118.307 1025.14 118.27C1022.57 118.085 1020.81 116.719 1019.88 114.172C1019.28 112.569 1019 110.181 1019.02 107.007C1019.05 102.039 1019.07 99.0735 1019.09 98.1115C1019.12 95.7703 1019.52 91.9845 1020.27 86.754C1020.93 82.2013 1021.65 78.767 1022.42 76.4512C1023.17 74.265 1024.61 72.5876 1026.72 71.4192C1028.56 70.3936 1030.74 69.8147 1033.27 69.6824C1033.84 69.6523 1034.48 69.6507 1035.19 69.6778ZM1038.07 80.63C1038.12 80.403 1038.14 80.1616 1038.13 79.906C1038.02 77.7969 1036.61 76.7168 1033.92 76.6657C1032.19 76.6283 1030.82 77.1805 1029.83 78.3223C1029.16 79.0622 1028.84 79.7677 1028.88 80.4387C1028.9 80.7583 1029.03 81.104 1029.27 81.4757C1029.83 82.3117 1030.61 82.7997 1031.61 82.9395C1031.93 82.9866 1032.89 82.9683 1034.49 82.8846C1036.47 82.7808 1037.66 82.0292 1038.07 80.63ZM1059.56 71.4288C1061.27 69.7692 1065.16 68.5557 1071.24 67.7885C1074.61 67.3553 1078.54 67.3738 1083.02 67.8441C1087.69 68.3362 1090.58 70.5082 1091.68 74.3599C1092.19 76.1596 1092.47 77.6827 1092.54 78.9289C1092.62 80.5587 1092.38 81.9496 1091.8 83.1015C1089.38 87.8103 1084.98 90.3641 1078.6 90.7629C1077.64 90.8132 1076.23 90.8229 1074.37 90.7923C1072.51 90.7296 1071.13 90.7217 1070.23 90.7686C1069.88 90.7871 1069.71 90.9081 1069.72 91.1318C1069.74 91.4833 1070.12 92.0241 1070.87 92.7542C1073.36 95.1548 1075.43 97.2417 1077.06 99.0147C1079.4 101.52 1081.16 103.382 1082.35 104.601C1084.8 107.293 1086.06 109.358 1086.13 110.796C1086.21 112.33 1085.45 113.54 1083.83 114.426C1083.23 114.745 1082.63 114.921 1082.03 114.953C1080.05 115.056 1077.98 114.075 1075.82 112.01C1074.23 110.458 1072.8 108.579 1071.53 106.37L1065.12 95.026C1066.14 101.574 1066.66 105.536 1066.7 106.911C1066.8 109.374 1066.87 110.732 1066.92 110.986C1066.96 111.785 1066.81 112.658 1066.48 113.604C1066.14 114.551 1065.63 115.219 1064.95 115.607C1064.45 115.89 1063.61 116.126 1062.44 116.316C1060.22 116.688 1059 114.894 1058.79 110.931C1058.63 110.203 1058.48 109.329 1058.37 108.31C1057.49 100.793 1056.93 94.4296 1056.69 89.2191C1056.54 85.6384 1056.46 83.1592 1056.45 81.7818C1056.46 76.462 1057.49 73.011 1059.56 71.4288ZM1075.37 76.0314C1074.1 75.5215 1072.85 75.2984 1071.64 75.3621C1070.39 75.4274 1069.27 75.8224 1068.29 76.547C1066.83 77.5844 1066.14 78.9828 1066.2 80.742C1066.29 83.0445 1067.56 84.1952 1070.03 84.1941C1074.87 84.1969 1077.48 83.0025 1077.87 80.6109C1078.23 78.3489 1077.4 76.8224 1075.37 76.0314ZM1101.54 66.2002C1104.42 65.5045 1106.47 66.0541 1107.69 67.849C1108.28 68.7153 1108.72 69.8296 1109.02 71.192C1109.31 72.5544 1109.41 73.783 1109.31 74.8779C1109.05 77.9036 1108.87 80.0118 1108.77 81.2025C1108.38 84.171 1108.2 86.8401 1108.23 89.2098C1108.26 90.9708 1108.28 92.2356 1108.29 93.0042C1108.33 98.1289 1108.85 101.066 1109.85 101.814C1111.25 102.862 1113.22 103.32 1115.74 103.188C1117.33 102.881 1118.52 102.658 1119.31 102.52C1121.04 102.43 1122.63 102.282 1124.09 102.077C1125.84 101.825 1127.35 101.906 1128.62 102.32C1130.35 102.839 1131.25 103.881 1131.34 105.447C1131.5 108.611 1130.77 110.603 1129.15 111.425C1128.59 111.711 1127.16 112.042 1124.88 112.418C1121.19 113.028 1117.91 113.408 1115.03 113.559C1113.82 113.623 1112.47 113.549 1110.98 113.339C1107.6 112.875 1105.22 112.215 1103.86 111.357C1103.03 110.823 1102.27 109.934 1101.56 108.69C1100.92 107.537 1100.53 106.436 1100.38 105.387C1100.14 103.829 1099.97 102.733 1099.87 102.097C1099.38 98.9182 1099.06 96.7241 1098.9 95.5148C1098.32 91.86 1097.94 88.8838 1097.76 86.5863C1097.45 82.469 1097.25 79.9478 1097.17 79.0227C1097 76.917 1096.87 75.4335 1096.79 74.5724C1096.47 70.9361 1097.01 68.569 1098.39 67.471C1099 66.8623 1099.8 66.5 1100.79 66.3842C1101.2 66.2666 1101.45 66.2052 1101.54 66.2002ZM1146.27 70.4891C1146.46 71.5369 1146.71 74.7603 1147.02 80.1592C1147.25 83.9603 1147.25 87.261 1147.01 90.0613C1146.58 95.339 1145.43 98.0272 1143.54 98.126C1142.04 98.2047 1140.79 97.5014 1139.78 96.0161C1138.94 94.7461 1138.48 93.2962 1138.4 91.6664C1138.15 86.905 1137.52 80.8332 1136.53 73.4512C1136.42 72.6876 1136.36 72.0022 1136.32 71.3951C1136.09 66.8254 1137.46 64.4138 1140.46 64.1605C1142.38 63.9962 1143.74 64.6457 1144.56 66.1091C1145.48 67.7592 1146.05 69.2192 1146.27 70.4891ZM1145.9 111.942C1144.28 112.155 1143.35 112.155 1143.11 111.943C1140.67 111.27 1139.4 109.943 1139.3 107.962C1139.26 107.131 1139.41 106.177 1139.77 105.101C1140.75 102.262 1142.21 100.792 1144.16 100.689C1144.67 100.663 1145.27 100.759 1145.95 100.98C1148.13 101.667 1149.28 103.017 1149.38 105.03C1149.42 105.669 1149.35 106.329 1149.2 107.01C1148.49 110.091 1147.4 111.735 1145.9 111.942Z" fill="#1AF8E0"/>
</svg>
