<svg width="772" height="138" viewBox="0 0 772 138" fill="none" xmlns="http://www.w3.org/2000/svg">
<path d="M22.1015 15.664C26.8802 11.4827 37.4188 8.79467 53.7175 7.6C62.7628 6.91733 73.2162 7.51466 85.0775 9.392C97.4508 11.3547 104.832 17.5413 107.222 27.952C108.331 32.816 108.886 36.912 108.886 40.24C108.886 44.592 108.032 48.2613 106.326 51.248C99.2428 63.4507 87.1682 69.6373 70.1015 69.808C67.5415 69.808 63.7868 69.6373 58.8375 69.296C53.8882 68.8693 50.2188 68.656 47.8295 68.656C46.8908 68.656 46.4215 68.9547 46.4215 69.552C46.4215 70.4907 47.3602 71.984 49.2375 74.032C55.5522 80.7733 60.7575 86.6187 64.8535 91.568C70.7415 98.5653 75.1788 103.771 78.1655 107.184C84.3095 114.693 87.3815 120.368 87.3815 124.208C87.3815 128.304 85.1628 131.419 80.7255 133.552C79.1042 134.32 77.4828 134.704 75.8615 134.704C70.5708 134.704 65.1948 131.803 59.7335 126C55.7228 121.648 52.1815 116.443 49.1095 110.384L33.6215 79.28C35.4135 96.8587 36.2668 107.483 36.1815 111.152C36.0962 117.723 36.0962 121.349 36.1815 122.032C36.1815 124.165 35.6695 126.469 34.6455 128.944C33.6215 131.419 32.1708 133.125 30.2935 134.064C28.9282 134.747 26.6668 135.259 23.5095 135.6C17.5362 136.283 14.5495 131.333 14.5495 120.752C14.2082 118.789 13.9522 116.443 13.7815 113.712C12.5015 93.5733 11.9042 76.5493 11.9895 62.64C12.0748 53.0827 12.2028 46.4693 12.3735 42.8C13.1415 28.6347 16.3842 19.5893 22.1015 15.664ZM63.5735 30.128C60.2455 28.592 56.9602 27.824 53.7175 27.824C50.3895 27.824 47.3602 28.72 44.6295 30.512C40.6188 33.072 38.5708 36.6987 38.4855 41.392C38.4002 47.536 41.6428 50.7787 48.2135 51.12C61.0988 51.8027 68.2242 48.9867 69.5895 42.672C70.8695 36.6987 68.8642 32.5173 63.5735 30.128ZM123.635 29.36C127.817 14.5973 140.873 7.216 162.804 7.216C165.534 7.216 168.393 7.344 171.38 7.6C177.012 8.02666 181.193 8.624 183.924 9.392C187.252 10.3307 190.665 12.2507 194.164 15.152C197.662 18.0533 200.052 21.0827 201.332 24.24C203.806 30.2133 205.257 35.9733 205.684 41.52C205.854 44.1653 206.281 48.5173 206.964 54.576C207.561 59.8667 207.86 64.3467 207.86 68.016C207.945 77.1467 206.665 91.2267 204.02 110.256C203.764 112.048 202.612 115.376 200.564 120.24C198.174 125.957 193.012 130.181 185.076 132.912C179.614 134.789 173.982 135.728 168.18 135.728C166.9 135.728 165.62 135.685 164.34 135.6C158.196 135.173 154.27 134.789 152.564 134.448C149.492 133.851 145.609 132.656 140.916 130.864C137.673 129.669 134.302 127.237 130.804 123.568C126.964 119.472 125.044 115.931 125.044 112.944L120.948 96.944C119.838 92.6773 119.198 86.32 119.028 77.872C118.942 71.3867 118.9 64.9013 118.9 58.416C118.814 50.48 120.393 40.7947 123.635 29.36ZM170.484 34.352C165.705 32.9867 160.67 32.9867 155.38 34.352C149.748 35.7173 146.164 42.7147 144.628 55.344C143.86 61.488 143.476 67.376 143.476 73.008C143.476 79.2373 143.988 85.68 145.012 92.336C146.889 104.368 151.241 111.024 158.068 112.304C159.945 112.645 161.822 112.816 163.7 112.816C167.966 112.816 171.508 111.792 174.324 109.744C178.334 106.843 181.065 97.8827 182.516 82.864C183.028 77.5733 183.284 72.7093 183.284 68.272C183.284 61.2747 182.516 54.8747 180.979 49.072C178.761 40.624 175.262 35.7173 170.484 34.352ZM271.826 7.6C287.954 9.05066 299.09 22.2773 305.234 47.28C306.599 52.7413 308.263 62.5547 310.226 76.72C311.762 87.728 312.53 97.7973 312.53 106.928C312.53 113.157 311.719 118.875 310.098 124.08C307.794 131.76 304.21 135.6 299.346 135.6C294.908 135.6 291.623 134.619 289.49 132.656C287.356 130.693 285.991 127.451 285.394 122.928C284.796 118.491 284.412 111.28 284.242 101.296C284.071 91.824 283.559 84.528 282.706 79.408C280.658 66.6933 277.372 60.2507 272.85 60.08C268.156 59.9093 264.53 60.2507 261.97 61.104C256.85 62.8107 253.692 67.0773 252.498 73.904C251.9 77.232 251.815 82.9493 252.242 91.056C252.839 103.515 253.436 112.176 254.034 117.04C254.204 118.405 254.29 119.557 254.29 120.496C254.29 130.736 250.066 135.856 241.618 135.856C240.764 135.856 239.655 135.771 238.29 135.6C231.463 134.747 226.983 130.864 224.85 123.952C223.484 119.6 223.058 113.2 223.57 104.752C224.338 91.5253 224.807 83.632 224.978 81.072C225.404 74.8427 226.983 64.816 229.714 50.992C232.103 38.96 234.492 29.9147 236.882 23.856C239.186 18.1387 243.239 13.872 249.042 11.056C254.076 8.58133 259.964 7.34399 266.706 7.34399C268.242 7.34399 269.948 7.42933 271.826 7.6ZM277.97 37.168C278.14 36.5707 278.226 35.9307 278.226 35.248C278.226 29.616 274.642 26.544 267.474 26.032C262.866 25.6907 259.154 26.9707 256.338 29.872C254.46 31.7493 253.522 33.584 253.522 35.376C253.522 36.2293 253.82 37.168 254.418 38.192C255.783 40.496 257.788 41.904 260.434 42.416C261.287 42.5867 263.847 42.672 268.114 42.672C273.404 42.672 276.69 40.8373 277.97 37.168ZM425.181 75.952C425.181 85.2533 423.773 94.4267 420.957 103.472C419.933 106.8 417.031 111.408 412.253 117.296C405.938 124.976 396.807 130.523 384.861 133.936C381.277 134.96 377.351 135.515 373.085 135.6C361.565 135.856 352.434 134.491 345.693 131.504C336.306 127.408 329.821 108.037 326.237 73.392C324.786 59.824 324.231 49.968 324.573 43.824C325.085 32.9013 326.279 25.5627 328.157 21.808C331.143 15.7493 337.117 11.6107 346.077 9.392C353.074 7.68533 359.517 6.83199 365.405 6.83199C368.391 6.83199 371.335 7.08799 374.237 7.6C381.917 8.96533 388.743 11.1413 394.717 14.128C400.775 17.1147 405.554 20.784 409.053 25.136C411.698 28.3787 414.685 33.7547 418.013 41.264C418.183 41.776 418.439 42.2453 418.781 42.672C423.047 53.0827 425.181 64.176 425.181 75.952ZM371.293 40.496C368.477 39.8987 365.831 39.6 363.357 39.6C360.626 39.6 358.322 40.0267 356.444 40.88C352.775 42.5867 350.429 48.688 349.405 59.184C348.807 66.2667 348.807 73.3493 349.405 80.432C350.087 88.2827 350.855 93.9147 351.708 97.328C352.647 100.656 354.866 103.259 358.365 105.136C361.437 106.757 364.893 107.568 368.733 107.568C371.549 107.568 374.535 107.099 377.693 106.16C384.434 104.112 389.383 100.571 392.541 95.536C395.186 91.2693 396.807 85.296 397.405 77.616C398.002 69.936 395.655 62.256 390.365 54.576C385.074 46.8107 378.717 42.1173 371.293 40.496ZM493.134 82.992C496.547 64.048 499.192 50.9493 501.07 43.696C505.934 24.24 511.054 13.2747 516.43 10.8C520.355 9.00799 523.982 8.11199 527.31 8.11199C533.454 8.11199 538.574 12.08 542.67 20.016C545.998 26.416 548.003 37.3813 548.686 52.912C549.368 68.4427 549.838 80.0907 550.094 87.856C550.691 100.741 550.862 110.171 550.606 116.144C550.179 127.664 546.766 133.424 540.366 133.424C538.83 133.424 537.08 132.912 535.118 131.888C530.766 129.669 527.736 124.805 526.03 117.296C525.347 114.224 524.622 108.208 523.854 99.248C523.512 94.7253 523.128 87.6853 522.702 78.128C522.446 72.1547 522.488 60.5493 522.83 43.312C520.014 53.04 517.838 64.0053 516.302 76.208C512.206 109.232 508.451 126.597 505.038 128.304C501.368 130.181 498.552 131.12 496.59 131.12C494.456 131.12 491.811 130.352 488.654 128.816C484.387 126.853 481.912 123.44 481.23 118.576C480.291 111.493 478.883 103.216 477.006 93.744C475.811 87.7707 474.104 79.5787 471.886 69.168C469.667 58.672 466.723 49.584 463.054 41.904C461.859 46.1707 461.816 55.5573 462.926 70.064C463.95 86.1067 464.718 98.5227 465.229 107.312C465.827 117.211 466.04 122.715 465.87 123.824C465.016 129.883 461.518 133.68 455.374 135.216C454.35 135.472 453.496 135.6 452.814 135.6C449.656 135.6 446.584 133.936 443.598 130.608C439.672 126.341 438.008 115.205 438.606 97.2C439.118 79.792 439.118 68.6133 438.606 63.664C438.094 59.1413 437.667 51.9307 437.326 42.032C436.984 33.2427 438.222 25.7333 441.038 19.504C444.622 11.568 450.467 7.6 458.574 7.6C460.11 7.6 461.902 7.77066 463.95 8.11199C473.848 9.73333 480.59 16.0053 484.174 26.928C488.867 41.3493 491.854 60.0373 493.134 82.992ZM612.701 7.6C628.829 9.05066 639.965 22.2773 646.109 47.28C647.474 52.7413 649.138 62.5547 651.101 76.72C652.637 87.728 653.405 97.7973 653.405 106.928C653.405 113.157 652.594 118.875 650.973 124.08C648.669 131.76 645.085 135.6 640.221 135.6C635.783 135.6 632.498 134.619 630.365 132.656C628.231 130.693 626.866 127.451 626.269 122.928C625.671 118.491 625.287 111.28 625.117 101.296C624.946 91.824 624.434 84.528 623.581 79.408C621.533 66.6933 618.247 60.2507 613.725 60.08C609.031 59.9093 605.405 60.2507 602.845 61.104C597.725 62.8107 594.567 67.0773 593.373 73.904C592.775 77.232 592.69 82.9493 593.117 91.056C593.714 103.515 594.311 112.176 594.909 117.04C595.079 118.405 595.165 119.557 595.165 120.496C595.165 130.736 590.941 135.856 582.493 135.856C581.639 135.856 580.53 135.771 579.165 135.6C572.338 134.747 567.858 130.864 565.725 123.952C564.359 119.6 563.933 113.2 564.445 104.752C565.213 91.5253 565.682 83.632 565.853 81.072C566.279 74.8427 567.858 64.816 570.589 50.992C572.978 38.96 575.367 29.9147 577.757 23.856C580.061 18.1387 584.114 13.872 589.917 11.056C594.951 8.58133 600.839 7.34399 607.581 7.34399C609.117 7.34399 610.823 7.42933 612.701 7.6ZM618.845 37.168C619.015 36.5707 619.101 35.9307 619.101 35.248C619.101 29.616 615.517 26.544 608.349 26.032C603.741 25.6907 600.029 26.9707 597.213 29.872C595.335 31.7493 594.397 33.584 594.397 35.376C594.397 36.2293 594.695 37.168 595.293 38.192C596.658 40.496 598.663 41.904 601.309 42.416C602.162 42.5867 604.722 42.672 608.989 42.672C614.279 42.672 617.565 40.8373 618.845 37.168ZM766.952 39.088C766.61 43.7813 765.501 48.6027 763.624 53.552C759.784 63.536 752.573 69.6373 741.992 71.856C739.858 72.2827 734.824 72.88 726.888 73.648C723.304 73.9893 719.634 74.16 715.88 74.16C709.138 74.16 702.226 73.5627 695.144 72.368C695.826 91.6533 696.68 103.387 697.704 107.568C698.557 111.152 699.112 114.565 699.368 117.808C699.624 121.648 699.41 124.72 698.728 127.024C698.13 129.925 696.253 132.229 693.096 133.936C690.024 135.643 687.037 136.197 684.136 135.6C678.248 134.405 674.792 127.92 673.768 116.144C673.256 110.256 672.914 105.819 672.744 102.832C671.805 93.872 671.25 85.0827 671.08 76.464V50.096C671.08 44.0373 671.933 37.7653 673.64 31.28C676.541 20.272 684.605 13.0613 697.832 9.64799C703.037 8.28266 711.741 7.6 723.944 7.6C735.634 7.6 744.978 9.69066 751.976 13.872C757.352 17.1147 761.192 20.528 763.496 24.112C766.226 28.2933 767.378 33.2853 766.952 39.088ZM724.968 51.632C729.234 48.9013 731.368 45.744 731.368 42.16C731.368 40.0267 730.6 37.808 729.064 35.504C725.65 30.2987 720.53 27.696 713.704 27.696C711.741 27.696 709.992 27.824 708.456 28.08C698.898 29.616 694.333 35.12 694.76 44.592C695.016 50.9067 700.221 54.2347 710.376 54.576C715.922 54.7467 719.464 54.4907 721 53.808L723.56 52.656C724.242 52.2293 724.712 51.888 724.968 51.632Z" fill="black"/>
<mask id="path-2-outside-1_95_265" maskUnits="userSpaceOnUse" x="3" y="-1" width="765" height="138" fill="black">
<rect fill="white" x="3" y="-1" width="765" height="138"/>
<path d="M18.1015 12.664C22.8802 8.48266 33.4188 5.79467 49.7175 4.6C58.7628 3.91733 69.2162 4.51466 81.0775 6.392C93.4508 8.35467 100.832 14.5413 103.222 24.952C104.331 29.816 104.886 33.912 104.886 37.24C104.886 41.592 104.032 45.2613 102.326 48.248C95.2428 60.4507 83.1682 66.6373 66.1015 66.808C63.5415 66.808 59.7868 66.6373 54.8375 66.296C49.8882 65.8693 46.2188 65.656 43.8295 65.656C42.8908 65.656 42.4215 65.9547 42.4215 66.552C42.4215 67.4907 43.3602 68.984 45.2375 71.032C51.5522 77.7733 56.7575 83.6187 60.8535 88.568C66.7415 95.5653 71.1788 100.771 74.1655 104.184C80.3095 111.693 83.3815 117.368 83.3815 121.208C83.3815 125.304 81.1628 128.419 76.7255 130.552C75.1042 131.32 73.4828 131.704 71.8615 131.704C66.5708 131.704 61.1948 128.803 55.7335 123C51.7228 118.648 48.1815 113.443 45.1095 107.384L29.6215 76.28C31.4135 93.8587 32.2668 104.483 32.1815 108.152C32.0962 114.723 32.0962 118.349 32.1815 119.032C32.1815 121.165 31.6695 123.469 30.6455 125.944C29.6215 128.419 28.1708 130.125 26.2935 131.064C24.9282 131.747 22.6668 132.259 19.5095 132.6C13.5362 133.283 10.5495 128.333 10.5495 117.752C10.2082 115.789 9.95217 113.443 9.7815 110.712C8.5015 90.5733 7.90417 73.5493 7.9895 59.64C8.07483 50.0827 8.20283 43.4693 8.3735 39.8C9.1415 25.6347 12.3842 16.5893 18.1015 12.664ZM59.5735 27.128C56.2455 25.592 52.9602 24.824 49.7175 24.824C46.3895 24.824 43.3602 25.72 40.6295 27.512C36.6188 30.072 34.5708 33.6987 34.4855 38.392C34.4002 44.536 37.6428 47.7787 44.2135 48.12C57.0988 48.8027 64.2242 45.9867 65.5895 39.672C66.8695 33.6987 64.8642 29.5173 59.5735 27.128ZM119.635 26.36C123.817 11.5973 136.873 4.216 158.804 4.216C161.534 4.216 164.393 4.344 167.38 4.6C173.012 5.02666 177.193 5.624 179.924 6.392C183.252 7.33066 186.665 9.25066 190.164 12.152C193.662 15.0533 196.052 18.0827 197.332 21.24C199.806 27.2133 201.257 32.9733 201.684 38.52C201.854 41.1653 202.281 45.5173 202.964 51.576C203.561 56.8667 203.86 61.3467 203.86 65.016C203.945 74.1467 202.665 88.2267 200.02 107.256C199.764 109.048 198.612 112.376 196.564 117.24C194.174 122.957 189.012 127.181 181.076 129.912C175.614 131.789 169.982 132.728 164.18 132.728C162.9 132.728 161.62 132.685 160.34 132.6C154.196 132.173 150.27 131.789 148.564 131.448C145.492 130.851 141.609 129.656 136.916 127.864C133.673 126.669 130.302 124.237 126.804 120.568C122.964 116.472 121.044 112.931 121.044 109.944L116.948 93.944C115.838 89.6773 115.198 83.32 115.028 74.872C114.942 68.3867 114.9 61.9013 114.9 55.416C114.814 47.48 116.393 37.7947 119.635 26.36ZM166.484 31.352C161.705 29.9867 156.67 29.9867 151.38 31.352C145.748 32.7173 142.164 39.7147 140.628 52.344C139.86 58.488 139.476 64.376 139.476 70.008C139.476 76.2373 139.988 82.68 141.012 89.336C142.889 101.368 147.241 108.024 154.068 109.304C155.945 109.645 157.822 109.816 159.7 109.816C163.966 109.816 167.508 108.792 170.324 106.744C174.334 103.843 177.065 94.8827 178.516 79.864C179.028 74.5733 179.284 69.7093 179.284 65.272C179.284 58.2747 178.516 51.8747 176.979 46.072C174.761 37.624 171.262 32.7173 166.484 31.352ZM267.826 4.6C283.954 6.05066 295.09 19.2773 301.234 44.28C302.599 49.7413 304.263 59.5547 306.226 73.72C307.762 84.728 308.53 94.7973 308.53 103.928C308.53 110.157 307.719 115.875 306.098 121.08C303.794 128.76 300.21 132.6 295.346 132.6C290.908 132.6 287.623 131.619 285.49 129.656C283.356 127.693 281.991 124.451 281.394 119.928C280.796 115.491 280.412 108.28 280.242 98.296C280.071 88.824 279.559 81.528 278.706 76.408C276.658 63.6933 273.372 57.2507 268.85 57.08C264.156 56.9093 260.53 57.2507 257.97 58.104C252.85 59.8107 249.692 64.0773 248.498 70.904C247.9 74.232 247.815 79.9493 248.242 88.056C248.839 100.515 249.436 109.176 250.034 114.04C250.204 115.405 250.29 116.557 250.29 117.496C250.29 127.736 246.066 132.856 237.618 132.856C236.764 132.856 235.655 132.771 234.29 132.6C227.463 131.747 222.983 127.864 220.85 120.952C219.484 116.6 219.058 110.2 219.57 101.752C220.338 88.5253 220.807 80.632 220.978 78.072C221.404 71.8427 222.983 61.816 225.714 47.992C228.103 35.96 230.492 26.9147 232.882 20.856C235.186 15.1387 239.239 10.872 245.042 8.05599C250.076 5.58133 255.964 4.34399 262.706 4.34399C264.242 4.34399 265.948 4.42933 267.826 4.6ZM273.97 34.168C274.14 33.5707 274.226 32.9307 274.226 32.248C274.226 26.616 270.642 23.544 263.474 23.032C258.866 22.6907 255.154 23.9707 252.338 26.872C250.46 28.7493 249.522 30.584 249.522 32.376C249.522 33.2293 249.82 34.168 250.418 35.192C251.783 37.496 253.788 38.904 256.434 39.416C257.287 39.5867 259.847 39.672 264.114 39.672C269.404 39.672 272.69 37.8373 273.97 34.168ZM421.181 72.952C421.181 82.2533 419.773 91.4267 416.957 100.472C415.933 103.8 413.031 108.408 408.253 114.296C401.938 121.976 392.807 127.523 380.861 130.936C377.277 131.96 373.351 132.515 369.085 132.6C357.565 132.856 348.434 131.491 341.693 128.504C332.306 124.408 325.821 105.037 322.237 70.392C320.786 56.824 320.231 46.968 320.573 40.824C321.085 29.9013 322.279 22.5627 324.157 18.808C327.143 12.7493 333.117 8.61066 342.077 6.392C349.074 4.68533 355.517 3.83199 361.405 3.83199C364.391 3.83199 367.335 4.08799 370.237 4.6C377.917 5.96533 384.743 8.14133 390.717 11.128C396.775 14.1147 401.554 17.784 405.053 22.136C407.698 25.3787 410.685 30.7547 414.013 38.264C414.183 38.776 414.439 39.2453 414.781 39.672C419.047 50.0827 421.181 61.176 421.181 72.952ZM367.293 37.496C364.477 36.8987 361.831 36.6 359.357 36.6C356.626 36.6 354.322 37.0267 352.444 37.88C348.775 39.5867 346.429 45.688 345.405 56.184C344.807 63.2667 344.807 70.3493 345.405 77.432C346.087 85.2827 346.855 90.9147 347.708 94.328C348.647 97.656 350.866 100.259 354.365 102.136C357.437 103.757 360.893 104.568 364.733 104.568C367.549 104.568 370.535 104.099 373.693 103.16C380.434 101.112 385.383 97.5707 388.541 92.536C391.186 88.2693 392.807 82.296 393.405 74.616C394.002 66.936 391.655 59.256 386.365 51.576C381.074 43.8107 374.717 39.1173 367.293 37.496ZM489.134 79.992C492.547 61.048 495.192 47.9493 497.07 40.696C501.934 21.24 507.054 10.2747 512.43 7.8C516.355 6.00799 519.982 5.11199 523.31 5.11199C529.454 5.11199 534.574 9.07999 538.67 17.016C541.998 23.416 544.003 34.3813 544.686 49.912C545.368 65.4427 545.838 77.0907 546.094 84.856C546.691 97.7413 546.862 107.171 546.606 113.144C546.179 124.664 542.766 130.424 536.366 130.424C534.83 130.424 533.08 129.912 531.118 128.888C526.766 126.669 523.736 121.805 522.03 114.296C521.347 111.224 520.622 105.208 519.854 96.248C519.512 91.7253 519.128 84.6853 518.702 75.128C518.446 69.1547 518.488 57.5493 518.83 40.312C516.014 50.04 513.838 61.0053 512.302 73.208C508.206 106.232 504.451 123.597 501.038 125.304C497.368 127.181 494.552 128.12 492.59 128.12C490.456 128.12 487.811 127.352 484.654 125.816C480.387 123.853 477.912 120.44 477.23 115.576C476.291 108.493 474.883 100.216 473.006 90.744C471.811 84.7707 470.104 76.5787 467.886 66.168C465.667 55.672 462.723 46.584 459.054 38.904C457.859 43.1707 457.816 52.5573 458.926 67.064C459.95 83.1067 460.718 95.5227 461.229 104.312C461.827 114.211 462.04 119.715 461.87 120.824C461.016 126.883 457.518 130.68 451.374 132.216C450.35 132.472 449.496 132.6 448.814 132.6C445.656 132.6 442.584 130.936 439.598 127.608C435.672 123.341 434.008 112.205 434.606 94.2C435.118 76.792 435.118 65.6133 434.606 60.664C434.094 56.1413 433.667 48.9307 433.326 39.032C432.984 30.2427 434.222 22.7333 437.038 16.504C440.622 8.568 446.467 4.6 454.574 4.6C456.11 4.6 457.902 4.77066 459.95 5.11199C469.848 6.73333 476.59 13.0053 480.174 23.928C484.867 38.3493 487.854 57.0373 489.134 79.992ZM608.701 4.6C624.829 6.05066 635.965 19.2773 642.109 44.28C643.474 49.7413 645.138 59.5547 647.101 73.72C648.637 84.728 649.405 94.7973 649.405 103.928C649.405 110.157 648.594 115.875 646.973 121.08C644.669 128.76 641.085 132.6 636.221 132.6C631.783 132.6 628.498 131.619 626.365 129.656C624.231 127.693 622.866 124.451 622.269 119.928C621.671 115.491 621.287 108.28 621.117 98.296C620.946 88.824 620.434 81.528 619.581 76.408C617.533 63.6933 614.247 57.2507 609.725 57.08C605.031 56.9093 601.405 57.2507 598.845 58.104C593.725 59.8107 590.567 64.0773 589.373 70.904C588.775 74.232 588.69 79.9493 589.117 88.056C589.714 100.515 590.311 109.176 590.909 114.04C591.079 115.405 591.165 116.557 591.165 117.496C591.165 127.736 586.941 132.856 578.493 132.856C577.639 132.856 576.53 132.771 575.165 132.6C568.338 131.747 563.858 127.864 561.725 120.952C560.359 116.6 559.933 110.2 560.445 101.752C561.213 88.5253 561.682 80.632 561.853 78.072C562.279 71.8427 563.858 61.816 566.589 47.992C568.978 35.96 571.367 26.9147 573.757 20.856C576.061 15.1387 580.114 10.872 585.917 8.05599C590.951 5.58133 596.839 4.34399 603.581 4.34399C605.117 4.34399 606.823 4.42933 608.701 4.6ZM614.845 34.168C615.015 33.5707 615.101 32.9307 615.101 32.248C615.101 26.616 611.517 23.544 604.349 23.032C599.741 22.6907 596.029 23.9707 593.213 26.872C591.335 28.7493 590.397 30.584 590.397 32.376C590.397 33.2293 590.695 34.168 591.293 35.192C592.658 37.496 594.663 38.904 597.309 39.416C598.162 39.5867 600.722 39.672 604.989 39.672C610.279 39.672 613.565 37.8373 614.845 34.168ZM762.952 36.088C762.61 40.7813 761.501 45.6027 759.624 50.552C755.784 60.536 748.573 66.6373 737.992 68.856C735.858 69.2827 730.824 69.88 722.888 70.648C719.304 70.9893 715.634 71.16 711.88 71.16C705.138 71.16 698.226 70.5627 691.144 69.368C691.826 88.6533 692.68 100.387 693.704 104.568C694.557 108.152 695.112 111.565 695.368 114.808C695.624 118.648 695.41 121.72 694.728 124.024C694.13 126.925 692.253 129.229 689.096 130.936C686.024 132.643 683.037 133.197 680.136 132.6C674.248 131.405 670.792 124.92 669.768 113.144C669.256 107.256 668.914 102.819 668.744 99.832C667.805 90.872 667.25 82.0827 667.08 73.464V47.096C667.08 41.0373 667.933 34.7653 669.64 28.28C672.541 17.272 680.605 10.0613 693.832 6.64799C699.037 5.28266 707.741 4.6 719.944 4.6C731.634 4.6 740.978 6.69066 747.976 10.872C753.352 14.1147 757.192 17.528 759.496 21.112C762.226 25.2933 763.378 30.2853 762.952 36.088ZM720.968 48.632C725.234 45.9013 727.368 42.744 727.368 39.16C727.368 37.0267 726.6 34.808 725.064 32.504C721.65 27.2987 716.53 24.696 709.704 24.696C707.741 24.696 705.992 24.824 704.456 25.08C694.898 26.616 690.333 32.12 690.76 41.592C691.016 47.9067 696.221 51.2347 706.376 51.576C711.922 51.7467 715.464 51.4907 717 50.808L719.56 49.656C720.242 49.2293 720.712 48.888 720.968 48.632Z"/>
</mask>
<path d="M18.1015 12.664L20.3655 15.9616L20.5589 15.8288L20.7355 15.6743L18.1015 12.664ZM49.7175 4.6L50.0099 8.58931L50.0185 8.58865L49.7175 4.6ZM81.0775 6.392L81.7042 2.44139L81.7028 2.44118L81.0775 6.392ZM103.222 24.952L107.121 24.0626L107.12 24.0572L103.222 24.952ZM102.326 48.248L105.785 50.256L105.792 50.2443L105.798 50.2326L102.326 48.248ZM66.1015 66.808V70.808H66.1215L66.1415 70.8078L66.1015 66.808ZM54.8375 66.296L54.4939 70.2812L54.5281 70.2842L54.5623 70.2865L54.8375 66.296ZM45.2375 71.032L42.2889 73.7349L42.3035 73.7508L42.3182 73.7665L45.2375 71.032ZM60.8535 88.568L57.7719 91.1183L57.7824 91.1309L57.7929 91.1434L60.8535 88.568ZM74.1655 104.184L77.2613 101.651L77.2194 101.6L77.1758 101.55L74.1655 104.184ZM76.7255 130.552L78.4378 134.167L78.4483 134.162L78.4587 134.157L76.7255 130.552ZM55.7335 123L52.7921 125.711L52.8063 125.726L52.8207 125.741L55.7335 123ZM45.1095 107.384L41.5288 109.167L41.5353 109.18L41.5419 109.193L45.1095 107.384ZM29.6215 76.28L33.2022 74.497L25.6421 76.6857L29.6215 76.28ZM32.1815 108.152L28.1826 108.059L28.1821 108.08L28.1818 108.1L32.1815 108.152ZM32.1815 119.032H36.1815V118.783L36.1506 118.536L32.1815 119.032ZM30.6455 125.944L34.3416 127.473L34.3416 127.473L30.6455 125.944ZM26.2935 131.064L28.0824 134.642L28.0824 134.642L26.2935 131.064ZM19.5095 132.6L19.0796 128.623L19.0674 128.624L19.0553 128.626L19.5095 132.6ZM10.5495 117.752H14.5495V117.407L14.4903 117.067L10.5495 117.752ZM9.7815 110.712L13.7737 110.462L13.7734 110.458L9.7815 110.712ZM7.9895 59.64L3.98964 59.6043L3.98958 59.6155L7.9895 59.64ZM8.3735 39.8L4.37937 39.5834L4.37853 39.5988L4.37782 39.6141L8.3735 39.8ZM59.5735 27.128L57.8973 30.7598L57.9122 30.7667L57.9272 30.7735L59.5735 27.128ZM40.6295 27.512L42.7816 30.8837L42.803 30.8701L42.8241 30.8562L40.6295 27.512ZM34.4855 38.392L30.4862 38.3193L30.486 38.3279L30.4859 38.3364L34.4855 38.392ZM44.2135 48.12L44.4251 44.1256L44.421 44.1254L44.2135 48.12ZM65.5895 39.672L69.4992 40.5173L69.5007 40.5101L65.5895 39.672ZM20.7355 15.6743C22.4273 14.194 25.541 12.6727 30.5781 11.3879C35.5362 10.1233 41.9911 9.17706 50.0099 8.5893L49.4251 0.610701C41.1453 1.2176 34.1815 2.21271 28.6009 3.63609C23.0994 5.03931 18.5543 6.95269 15.4675 9.65369L20.7355 15.6743ZM50.0185 8.58865C58.6737 7.93544 68.8049 8.49936 80.4522 10.3428L81.7028 2.44118C69.6274 0.529967 58.852 -0.100775 49.4165 0.611342L50.0185 8.58865ZM80.4509 10.3426C86.1324 11.2438 90.3323 13.062 93.3241 15.5696C96.2742 18.0423 98.3007 21.3929 99.3229 25.8468L107.12 24.0572C105.753 18.1004 102.894 13.1524 98.4629 9.43839C94.0734 5.7593 88.396 3.50285 81.7042 2.44139L80.4509 10.3426ZM99.3216 25.8414C100.394 30.543 100.886 34.3199 100.886 37.24H108.886C108.886 33.5041 108.268 29.089 107.121 24.0626L99.3216 25.8414ZM100.886 37.24C100.886 41.0774 100.134 44.0213 98.8525 46.2634L105.798 50.2326C107.931 46.5013 108.886 42.1066 108.886 37.24H100.886ZM98.866 46.24C92.6502 56.9493 82.0634 62.6482 66.0615 62.8082L66.1415 70.8078C84.273 70.6265 97.8355 63.9521 105.785 50.256L98.866 46.24ZM66.1015 62.808C63.6826 62.808 60.0383 62.6452 55.1127 62.3055L54.5623 70.2865C59.5353 70.6295 63.4004 70.808 66.1015 70.808V62.808ZM55.1811 62.3108C50.2117 61.8824 46.3999 61.656 43.8295 61.656V69.656C46.0378 69.656 49.5646 69.8563 54.4939 70.2812L55.1811 62.3108ZM43.8295 61.656C43.0647 61.656 41.8061 61.7544 40.626 62.5054C39.1391 63.4515 38.4215 65.0066 38.4215 66.552H46.4215C46.4215 66.9323 46.344 67.4601 46.0528 68.016C45.7552 68.5842 45.3331 68.9924 44.921 69.2546C44.2102 69.7069 43.6556 69.656 43.8295 69.656V61.656ZM38.4215 66.552C38.4215 68.1869 39.1672 69.595 39.739 70.5047C40.3879 71.5371 41.2686 72.6219 42.2889 73.7349L48.1861 68.3291C47.329 67.3941 46.8018 66.7082 46.512 66.2473C46.3698 66.021 46.328 65.9166 46.3292 65.9197C46.3315 65.9257 46.3525 65.9805 46.3739 66.0787C46.3952 66.1766 46.4215 66.3386 46.4215 66.552H38.4215ZM42.3182 73.7665C48.5988 80.4715 53.7452 86.2526 57.7719 91.1183L63.9351 86.0177C59.7698 80.9847 54.5055 75.0751 48.1568 68.2975L42.3182 73.7665ZM57.7929 91.1434C63.6844 98.1449 68.1421 103.374 71.1552 106.818L77.1758 101.55C74.2156 98.1669 69.7986 92.9858 63.9141 85.9926L57.7929 91.1434ZM71.0697 106.717C74.0529 110.363 76.1881 113.442 77.5599 115.976C78.9687 118.579 79.3815 120.261 79.3815 121.208H87.3815C87.3815 118.315 86.2583 115.24 84.5951 112.168C82.8949 109.027 80.4221 105.514 77.2613 101.651L71.0697 106.717ZM79.3815 121.208C79.3815 122.487 79.0512 123.465 78.4596 124.295C77.8387 125.167 76.773 126.091 74.9923 126.947L78.4587 134.157C81.1153 132.88 83.3776 131.18 84.9754 128.937C86.6025 126.653 87.3815 124.025 87.3815 121.208H79.3815ZM75.0132 126.937C73.8695 127.479 72.83 127.704 71.8615 127.704V135.704C74.1357 135.704 76.3389 135.161 78.4378 134.167L75.0132 126.937ZM71.8615 127.704C68.1279 127.704 63.7328 125.663 58.6463 120.259L52.8207 125.741C58.6569 131.942 65.0138 135.704 71.8615 135.704V127.704ZM58.6749 120.289C54.947 116.244 51.6068 111.353 48.6771 105.575L41.5419 109.193C44.7562 115.532 48.4986 121.052 52.7921 125.711L58.6749 120.289ZM48.6902 105.601L33.2022 74.497L26.0409 78.063L41.5288 109.167L48.6902 105.601ZM25.6421 76.6857C27.4467 94.3879 28.2606 104.703 28.1826 108.059L36.1804 108.245C36.273 104.262 35.3803 93.3295 33.6009 75.8743L25.6421 76.6857ZM28.1818 108.1C28.1391 111.391 28.1175 113.961 28.1175 115.8C28.1175 117.476 28.1306 118.874 28.2124 119.528L36.1506 118.536C36.1598 118.61 36.1442 118.469 36.1327 117.889C36.1228 117.388 36.1175 116.695 36.1175 115.8C36.1175 114.013 36.1386 111.483 36.1812 108.204L28.1818 108.1ZM28.1815 119.032C28.1815 120.525 27.8222 122.305 26.9494 124.415L34.3416 127.473C35.5168 124.633 36.1815 121.806 36.1815 119.032H28.1815ZM26.9494 124.415C26.1893 126.251 25.3039 127.087 24.5046 127.486L28.0824 134.642C31.0377 133.164 33.0537 130.586 34.3416 127.473L26.9494 124.415ZM24.5046 127.486C23.8167 127.83 22.1625 128.29 19.0796 128.623L19.9394 136.577C23.1712 136.227 26.0397 135.663 28.0824 134.642L24.5046 127.486ZM19.0553 128.626C18.1479 128.73 17.6221 128.594 17.3092 128.445C17.0072 128.301 16.6245 128.013 16.2143 127.333C15.296 125.812 14.5495 122.831 14.5495 117.752H6.5495C6.5495 123.254 7.29635 128.039 9.36475 131.467C10.4479 133.262 11.9318 134.745 13.8698 135.667C15.7969 136.585 17.8844 136.812 19.9637 136.574L19.0553 128.626ZM14.4903 117.067C14.1814 115.29 13.9384 113.097 13.7737 110.462L5.78929 110.962C5.96598 113.789 6.23495 116.289 6.60865 118.437L14.4903 117.067ZM13.7734 110.458C12.497 90.375 11.9049 73.45 11.9894 59.6645L3.98958 59.6155C3.90348 73.6486 4.50603 90.7717 5.78956 110.966L13.7734 110.458ZM11.9893 59.6757C12.0747 50.114 12.2024 43.5706 12.3692 39.9858L4.37782 39.6141C4.20322 43.3681 4.07495 50.0513 3.98966 59.6043L11.9893 59.6757ZM12.3676 40.0165C12.7396 33.1551 13.7024 27.771 15.1469 23.7418C16.5913 19.7127 18.4209 17.2967 20.3655 15.9616L15.8375 9.36639C12.0648 11.9566 9.41439 16.026 7.61614 21.0421C5.8179 26.0583 4.77536 32.2796 4.37937 39.5834L12.3676 40.0165ZM61.2497 23.4962C57.4649 21.7493 53.6101 20.824 49.7175 20.824V28.824C52.3102 28.824 55.0261 29.4347 57.8973 30.7598L61.2497 23.4962ZM49.7175 20.824C45.6253 20.824 41.8305 21.9394 38.4349 24.1678L42.8241 30.8562C44.8898 29.5006 47.1537 28.824 49.7175 28.824V20.824ZM38.4774 24.1403C33.3559 27.4093 30.5963 32.2644 30.4862 38.3193L38.4848 38.4647C38.5454 35.1329 39.8818 32.7347 42.7816 30.8837L38.4774 24.1403ZM30.4859 38.3364C30.4335 42.1082 31.4075 45.6428 34.0251 48.2604C36.5976 50.833 40.1581 51.9147 44.006 52.1146L44.421 44.1254C41.6982 43.9839 40.3521 43.2737 39.6819 42.6036C39.0569 41.9785 38.4522 40.8198 38.4851 38.4475L30.4859 38.3364ZM44.0019 52.1144C50.6774 52.4681 56.3488 51.9564 60.6917 50.24C65.2303 48.4463 68.4787 45.237 69.4992 40.5173L61.6798 38.8267C61.335 40.4217 60.338 41.7777 57.7513 42.8C54.9688 43.8996 50.6349 44.4546 44.4251 44.1256L44.0019 52.1144ZM69.5007 40.5101C70.2673 36.9325 70.1439 33.4367 68.6522 30.3263C67.1476 27.1891 64.5012 24.9644 61.2198 23.4825L57.9272 30.7735C59.9364 31.6809 60.938 32.7415 61.4388 33.7857C61.9524 34.8566 62.1917 36.4382 61.6783 38.8339L69.5007 40.5101ZM119.635 26.36L123.484 27.4513L123.484 27.4501L119.635 26.36ZM167.38 4.6L167.038 8.58538L167.058 8.58707L167.077 8.58857L167.38 4.6ZM179.924 6.392L181.009 2.5422L181.006 2.54139L179.924 6.392ZM190.164 12.152L192.717 9.07296L192.717 9.07296L190.164 12.152ZM197.332 21.24L193.625 22.7428L193.63 22.7569L193.636 22.771L197.332 21.24ZM201.684 38.52L205.675 38.2625L205.674 38.2378L205.672 38.2132L201.684 38.52ZM202.964 51.576L198.989 52.0239L198.989 52.0248L202.964 51.576ZM203.86 65.016H199.86V65.0347L199.86 65.0534L203.86 65.016ZM200.02 107.256L203.979 107.822L203.98 107.814L203.981 107.807L200.02 107.256ZM196.564 117.24L192.877 115.688L192.873 115.698L196.564 117.24ZM181.076 129.912L182.376 133.695L182.377 133.694L181.076 129.912ZM160.34 132.6L160.062 136.59L160.073 136.591L160.34 132.6ZM148.564 131.448L149.348 127.526L149.337 127.524L149.327 127.522L148.564 131.448ZM136.916 127.864L138.342 124.127L138.32 124.119L138.298 124.111L136.916 127.864ZM126.804 120.568L123.885 123.304L123.897 123.316L123.909 123.328L126.804 120.568ZM121.044 109.944H125.044V109.44L124.919 108.952L121.044 109.944ZM116.948 93.944L120.823 92.952L120.821 92.9447L120.819 92.9375L116.948 93.944ZM115.028 74.872L111.028 74.9246L111.028 74.9387L111.028 74.9528L115.028 74.872ZM114.9 55.416H118.9V55.3945L118.899 55.373L114.9 55.416ZM166.484 31.352L165.385 35.1981L165.385 35.1981L166.484 31.352ZM151.38 31.352L152.322 35.2394L152.351 35.2325L152.379 35.2251L151.38 31.352ZM140.628 52.344L144.597 52.8401L144.598 52.8269L140.628 52.344ZM141.012 89.336L137.058 89.9442L137.059 89.9527L141.012 89.336ZM154.068 109.304L153.33 113.235L153.341 113.238L153.352 113.239L154.068 109.304ZM170.324 106.744L167.979 103.503L167.971 103.509L170.324 106.744ZM178.516 79.864L174.534 79.4787L174.534 79.4794L178.516 79.864ZM176.979 46.072L173.111 47.088L173.113 47.0956L176.979 46.072ZM123.484 27.4501C125.295 21.0564 128.945 16.3929 134.532 13.234C140.245 10.0042 148.23 8.216 158.804 8.216V0.215996C147.446 0.215996 137.938 2.11842 130.595 6.26996C123.126 10.4924 118.157 16.9009 115.787 25.2699L123.484 27.4501ZM158.804 8.216C161.41 8.216 164.154 8.33819 167.038 8.58538L167.721 0.614612C164.632 0.349802 161.659 0.215996 158.804 0.215996V8.216ZM167.077 8.58857C172.651 9.01079 176.507 9.58628 178.841 10.2426L181.006 2.54139C177.879 1.66172 173.372 1.04254 167.682 0.611428L167.077 8.58857ZM178.838 10.2418C181.487 10.9892 184.413 12.5794 187.61 15.231L192.717 9.07296C188.917 5.92195 185.016 3.67218 181.009 2.5422L178.838 10.2418ZM187.61 15.231C190.763 17.8458 192.662 20.3686 193.625 22.7428L201.038 19.7372C199.441 15.7968 196.561 12.2608 192.717 9.07296L187.61 15.231ZM193.636 22.771C195.975 28.4161 197.306 33.763 197.695 38.8268L205.672 38.2132C205.208 32.1836 203.638 26.0105 201.027 19.709L193.636 22.771ZM197.692 38.7775C197.869 41.5267 198.306 45.9616 198.989 52.0239L206.938 51.1281C206.256 45.073 205.839 40.804 205.675 38.2625L197.692 38.7775ZM198.989 52.0248C199.576 57.2264 199.86 61.5468 199.86 65.016H207.86C207.86 61.1465 207.546 56.5069 206.938 51.1272L198.989 52.0248ZM199.86 65.0534C199.942 73.8719 198.699 87.7069 196.058 106.705L203.981 107.807C206.631 88.7464 207.948 74.4215 207.859 64.9786L199.86 65.0534ZM196.06 106.69C195.888 107.89 194.956 110.751 192.877 115.688L200.25 118.792C202.267 114.001 203.639 110.206 203.979 107.822L196.06 106.69ZM192.873 115.698C191.064 120.025 187.031 123.633 179.774 126.13L182.377 133.694C190.992 130.73 197.284 125.889 200.254 118.782L192.873 115.698ZM179.775 126.129C174.734 127.862 169.542 128.728 164.18 128.728V136.728C170.422 136.728 176.494 135.717 182.376 133.695L179.775 126.129ZM164.18 128.728C162.988 128.728 161.797 128.688 160.606 128.609L160.073 136.591C161.442 136.682 162.811 136.728 164.18 136.728V128.728ZM160.617 128.61C154.399 128.178 150.752 127.806 149.348 127.526L147.779 135.37C149.789 135.772 153.992 136.169 160.062 136.59L160.617 128.61ZM149.327 127.522C146.575 126.986 142.933 125.88 138.342 124.127L135.489 131.601C140.285 133.432 144.408 134.715 147.8 135.374L149.327 127.522ZM138.298 124.111C135.833 123.202 132.957 121.225 129.698 117.808L123.909 123.328C127.647 127.249 131.512 130.136 135.533 131.617L138.298 124.111ZM129.722 117.832C126.035 113.899 125.044 111.331 125.044 109.944H117.044C117.044 114.53 119.892 119.045 123.885 123.304L129.722 117.832ZM124.919 108.952L120.823 92.952L113.072 94.936L117.168 110.936L124.919 108.952ZM120.819 92.9375C119.83 89.1352 119.196 83.1562 119.027 74.7912L111.028 74.9528C111.201 83.4838 111.846 90.2195 113.076 94.9505L120.819 92.9375ZM119.027 74.8194C118.942 68.3516 118.9 61.8838 118.9 55.416H110.9C110.9 61.9189 110.942 68.4218 111.028 74.9246L119.027 74.8194ZM118.899 55.373C118.82 47.96 120.299 38.6812 123.484 27.4513L115.787 25.2687C112.486 36.9082 110.809 46.9999 110.9 55.459L118.899 55.373ZM167.582 27.5059C162.052 25.9259 156.29 25.9538 150.38 27.4789L152.379 35.2251C157.051 34.0195 161.357 34.0474 165.385 35.1981L167.582 27.5059ZM150.437 27.4646C146.125 28.5099 143.031 31.6544 140.907 35.8005C138.809 39.897 137.451 45.3313 136.657 51.8611L144.598 52.8269C145.34 46.7273 146.542 42.3484 148.028 39.4475C149.488 36.5963 151.002 35.5594 152.322 35.2394L150.437 27.4646ZM136.658 51.8479C135.872 58.1404 135.476 64.1948 135.476 70.008H143.476C143.476 64.5572 143.847 58.8356 144.597 52.8401L136.658 51.8479ZM135.476 70.008C135.476 76.4566 136.006 83.103 137.058 89.9442L144.965 88.7278C143.969 82.257 143.476 76.0181 143.476 70.008H135.476ZM137.059 89.9527C138.981 102.268 143.784 111.446 153.33 113.235L154.805 105.373C150.697 104.602 146.797 100.468 144.964 88.7193L137.059 89.9527ZM153.352 113.239C155.462 113.623 157.578 113.816 159.7 113.816V105.816C158.066 105.816 156.428 105.668 154.783 105.369L153.352 113.239ZM159.7 113.816C164.618 113.816 169.035 112.627 172.676 109.979L167.971 103.509C165.98 104.957 163.315 105.816 159.7 105.816V113.816ZM172.668 109.985C175.778 107.735 177.781 103.688 179.206 99.0141C180.681 94.1734 181.76 87.8834 182.497 80.2486L174.534 79.4794C173.821 86.8633 172.809 92.5626 171.553 96.6819C170.247 100.968 168.879 102.852 167.979 103.503L172.668 109.985ZM182.497 80.2493C183.019 74.8547 183.284 69.8601 183.284 65.272H175.284C175.284 69.5585 175.036 74.292 174.534 79.4787L182.497 80.2493ZM183.284 65.272C183.284 57.9848 182.484 51.2349 180.846 45.0484L173.113 47.0956C174.547 52.5144 175.284 58.5646 175.284 65.272H183.284ZM180.848 45.056C178.545 36.2849 174.507 29.4844 167.582 27.5059L165.385 35.1981C168.017 35.9502 170.977 38.9631 173.111 47.088L180.848 45.056ZM267.826 4.6L267.463 8.58357L267.467 8.58392L267.826 4.6ZM301.234 44.28L297.349 45.2345L297.351 45.2423L297.353 45.2501L301.234 44.28ZM306.226 73.72L302.263 74.269L302.264 74.2728L306.226 73.72ZM306.098 121.08L302.278 119.89L302.272 119.911L302.266 119.931L306.098 121.08ZM285.49 129.656L282.781 132.6L282.781 132.6L285.49 129.656ZM281.394 119.928L285.359 119.404L285.358 119.394L281.394 119.928ZM280.242 98.296L284.241 98.2276L284.241 98.2239L280.242 98.296ZM278.706 76.408L274.756 77.0441L274.758 77.0548L274.76 77.0656L278.706 76.408ZM268.85 57.08L269 53.0828L268.995 53.0826L268.85 57.08ZM257.97 58.104L256.705 54.3093L256.705 54.3093L257.97 58.104ZM248.498 70.904L252.435 71.6107L252.436 71.6021L252.438 71.5935L248.498 70.904ZM248.242 88.056L252.237 87.8644L252.236 87.8551L252.236 87.8458L248.242 88.056ZM250.034 114.04L246.063 114.528L246.064 114.536L250.034 114.04ZM234.29 132.6L234.786 128.631L234.786 128.631L234.29 132.6ZM220.85 120.952L224.672 119.772L224.669 119.763L224.666 119.755L220.85 120.952ZM219.57 101.752L223.562 101.994L223.563 101.984L219.57 101.752ZM220.978 78.072L216.987 77.7987L216.986 77.8059L220.978 78.072ZM225.714 47.992L221.79 47.2129L221.789 47.2169L225.714 47.992ZM232.882 20.856L229.171 19.3609L229.166 19.3747L229.16 19.3885L232.882 20.856ZM245.042 8.05599L246.788 11.6546L246.797 11.6502L246.806 11.6458L245.042 8.05599ZM273.97 34.168L277.746 35.4855L277.784 35.3772L277.816 35.2669L273.97 34.168ZM263.474 23.032L263.178 27.0211L263.189 27.0218L263.474 23.032ZM252.338 26.872L255.166 29.7004L255.187 29.6793L255.208 29.6579L252.338 26.872ZM250.418 35.192L246.962 37.2075L246.969 37.2194L246.976 37.2312L250.418 35.192ZM256.434 39.416L257.218 35.4937L257.206 35.4912L257.194 35.4889L256.434 39.416ZM267.467 8.58392C280.964 9.79793 291.333 20.7539 297.349 45.2345L305.118 43.3255C298.846 17.8008 286.943 2.30339 268.184 0.616082L267.467 8.58392ZM297.353 45.2501C298.66 50.4779 300.299 60.0949 302.263 74.269L310.188 73.171C308.226 59.0144 306.538 49.0047 305.114 43.3099L297.353 45.2501ZM302.264 74.2728C303.78 85.1354 304.53 95.0169 304.53 103.928H312.53C312.53 94.5778 311.743 84.3206 310.187 73.1672L302.264 74.2728ZM304.53 103.928C304.53 109.81 303.764 115.121 302.278 119.89L309.917 122.27C311.674 116.629 312.53 110.504 312.53 103.928H304.53ZM302.266 119.931C301.206 123.463 299.966 125.695 298.757 126.991C297.654 128.173 296.574 128.6 295.346 128.6V136.6C298.981 136.6 302.125 135.107 304.606 132.449C306.981 129.905 308.685 126.377 309.929 122.229L302.266 119.931ZM295.346 128.6C291.396 128.6 289.285 127.713 288.198 126.712L282.781 132.6C285.96 135.525 290.42 136.6 295.346 136.6V128.6ZM288.198 126.712C287.053 125.659 285.9 123.501 285.359 119.404L277.428 120.452C278.081 125.4 279.659 129.728 282.781 132.6L288.198 126.712ZM285.358 119.394C284.794 115.207 284.411 108.197 284.241 98.2276L276.242 98.3644C276.413 108.363 276.798 115.775 277.429 120.462L285.358 119.394ZM284.241 98.2239C284.069 88.6876 283.553 81.1609 282.651 75.7504L274.76 77.0656C275.565 81.8951 276.073 88.9604 276.242 98.3681L284.241 98.2239ZM282.655 75.7719C281.608 69.2712 280.194 63.9977 278.269 60.2229C276.387 56.5322 273.443 53.2505 269 53.0828L268.699 61.0772C268.779 61.0802 269.739 61.1051 271.142 63.8571C272.502 66.5249 273.755 70.8301 274.756 77.0441L282.655 75.7719ZM268.995 53.0826C264.123 52.9055 259.936 53.2321 256.705 54.3093L259.234 61.8987C261.123 61.2692 264.189 60.9132 268.704 61.0774L268.995 53.0826ZM256.705 54.3093C249.781 56.6171 245.921 62.4207 244.557 70.2145L252.438 71.5935C253.463 65.734 255.918 63.0042 259.234 61.8987L256.705 54.3093ZM244.56 70.1973C243.873 74.0274 243.82 80.1603 244.247 88.2662L252.236 87.8458C251.809 79.7384 251.927 74.4366 252.435 71.6107L244.56 70.1973ZM244.246 88.2476C244.843 100.7 245.446 109.498 246.063 114.528L254.004 113.552C253.427 108.854 252.835 100.329 252.237 87.8644L244.246 88.2476ZM246.064 114.536C246.223 115.805 246.29 116.78 246.29 117.496H254.29C254.29 116.335 254.185 115.006 254.003 113.544L246.064 114.536ZM246.29 117.496C246.29 122.167 245.31 124.926 244.036 126.47C242.883 127.868 241 128.856 237.618 128.856V136.856C242.683 136.856 247.136 135.284 250.207 131.562C253.157 127.986 254.29 123.065 254.29 117.496H246.29ZM237.618 128.856C236.999 128.856 236.073 128.792 234.786 128.631L233.793 136.569C235.237 136.75 236.529 136.856 237.618 136.856V128.856ZM234.786 128.631C232.029 128.286 229.979 127.369 228.429 126.025C226.867 124.672 225.566 122.671 224.672 119.772L217.027 122.132C218.266 126.145 220.272 129.542 223.19 132.071C226.12 134.61 229.723 136.06 233.793 136.569L234.786 128.631ZM224.666 119.755C223.523 116.11 223.059 110.299 223.562 101.994L215.577 101.51C215.056 110.101 215.446 117.09 217.033 122.149L224.666 119.755ZM223.563 101.984C224.331 88.748 224.799 80.8765 224.969 78.3381L216.986 77.8059C216.814 80.3875 216.344 88.3027 215.576 101.52L223.563 101.984ZM224.968 78.3453C225.376 72.3898 226.91 62.5784 229.638 48.7671L221.789 47.2169C219.056 61.0536 217.432 71.2956 216.987 77.7987L224.968 78.3453ZM229.637 48.7711C232.013 36.8071 234.347 28.0429 236.603 22.3235L229.16 19.3885C226.637 25.7865 224.193 35.1129 221.79 47.2129L229.637 48.7711ZM236.592 22.3511C238.506 17.6 241.833 14.0594 246.788 11.6546L243.295 4.45737C236.645 7.68462 231.865 12.6773 229.171 19.3609L236.592 22.3511ZM246.806 11.6458C251.192 9.49006 256.454 8.34399 262.706 8.34399V0.343994C255.474 0.343994 248.961 1.67259 243.277 4.4662L246.806 11.6458ZM262.706 8.34399C264.097 8.34399 265.681 8.4215 267.463 8.58357L268.188 0.616426C266.216 0.437162 264.386 0.343994 262.706 0.343994V8.34399ZM277.816 35.2669C278.098 34.2788 278.226 33.266 278.226 32.248H270.226C270.226 32.5954 270.182 32.8625 270.123 33.0691L277.816 35.2669ZM278.226 32.248C278.226 28.5123 276.992 25.1267 274.141 22.683C271.437 20.3659 267.776 19.3291 263.758 19.0422L263.189 27.0218C266.339 27.2469 268.054 28.0021 268.934 28.757C269.667 29.3853 270.226 30.3517 270.226 32.248H278.226ZM263.769 19.0429C258.168 18.6281 253.232 20.2076 249.467 24.0861L255.208 29.6579C257.075 27.7337 259.563 26.7533 263.178 27.0211L263.769 19.0429ZM249.509 24.0436C247.24 26.3123 245.522 29.1054 245.522 32.376H253.522C253.522 32.0626 253.68 31.1863 255.166 29.7004L249.509 24.0436ZM245.522 32.376C245.522 34.1609 246.141 35.7988 246.962 37.2075L253.873 33.1765C253.5 32.5372 253.522 32.2978 253.522 32.376H245.522ZM246.976 37.2312C248.929 40.5256 251.913 42.6154 255.673 43.3431L257.194 35.4889C255.663 35.1926 254.637 34.4664 253.859 33.1528L246.976 37.2312ZM255.649 43.3383C256.45 43.4986 257.631 43.5648 258.86 43.6058C260.204 43.6506 261.961 43.672 264.114 43.672V35.672C262 35.672 260.343 35.6508 259.127 35.6102C258.518 35.5899 258.044 35.5656 257.693 35.5392C257.305 35.5101 257.183 35.4868 257.218 35.4937L255.649 43.3383ZM264.114 43.672C267.179 43.672 270.064 43.1465 272.496 41.7883C275.023 40.377 276.796 38.2109 277.746 35.4855L270.193 32.8505C269.863 33.7944 269.353 34.3803 268.595 34.8037C267.742 35.2801 266.338 35.672 264.114 35.672V43.672ZM416.957 100.472L413.137 99.283L413.133 99.2957L416.957 100.472ZM408.253 114.296L411.342 116.836L411.35 116.827L411.358 116.817L408.253 114.296ZM380.861 130.936L379.762 127.09L379.762 127.09L380.861 130.936ZM369.085 132.6L369.005 128.601L368.996 128.601L369.085 132.6ZM341.693 128.504L343.313 124.847L343.303 124.842L343.292 124.838L341.693 128.504ZM322.237 70.392L326.215 69.9804L326.214 69.9667L322.237 70.392ZM320.573 40.824L324.566 41.0459L324.567 41.0286L324.568 41.0113L320.573 40.824ZM324.157 18.808L327.734 20.5969L327.739 20.5867L327.744 20.5766L324.157 18.808ZM342.077 6.392L341.129 2.50589L341.115 2.50926L342.077 6.392ZM370.237 4.6L370.937 0.661745L370.932 0.660865L370.237 4.6ZM390.717 11.128L388.928 14.7057L388.938 14.7108L388.948 14.7158L390.717 11.128ZM405.053 22.136L401.935 24.6422L401.944 24.6534L401.953 24.6645L405.053 22.136ZM414.013 38.264L417.807 36.9991L417.747 36.8179L417.669 36.6433L414.013 38.264ZM414.781 39.672L418.482 38.1551L418.263 37.6226L417.904 37.1732L414.781 39.672ZM367.293 37.496L368.146 33.5881L368.134 33.5855L368.123 33.5831L367.293 37.496ZM352.444 37.88L350.789 34.2385L350.773 34.2458L350.758 34.2531L352.444 37.88ZM345.405 56.184L341.423 55.7956L341.421 55.8217L341.419 55.8478L345.405 56.184ZM345.405 77.432L341.419 77.7682L341.42 77.7785L345.405 77.432ZM347.708 94.328L343.828 95.2981L343.842 95.3562L343.859 95.4138L347.708 94.328ZM354.365 102.136L352.473 105.661L352.485 105.667L352.497 105.674L354.365 102.136ZM373.693 103.16L374.832 106.994L374.844 106.991L374.855 106.987L373.693 103.16ZM388.541 92.536L391.929 94.6612L391.935 94.6525L391.94 94.6438L388.541 92.536ZM393.405 74.616L389.417 74.3058L389.417 74.3058L393.405 74.616ZM386.365 51.576L383.059 53.8282L383.065 53.8367L383.07 53.8452L386.365 51.576ZM417.181 72.952C417.181 81.8427 415.836 90.6154 413.137 99.283L420.776 101.661C423.709 92.2379 425.181 82.664 425.181 72.952H417.181ZM413.133 99.2957C412.354 101.83 409.893 105.927 405.147 111.775L411.358 116.817C416.169 110.889 419.511 105.77 420.78 101.648L413.133 99.2957ZM405.163 111.756C399.48 118.667 391.124 123.844 379.762 127.09L381.959 134.782C394.491 131.202 404.396 125.285 411.342 116.836L405.163 111.756ZM379.762 127.09C376.553 128.007 372.975 128.521 369.005 128.601L369.164 136.599C373.727 136.508 378 135.913 381.959 134.782L379.762 127.09ZM368.996 128.601C357.767 128.851 349.299 127.499 343.313 124.847L340.072 132.161C347.569 135.483 357.362 136.861 369.173 136.599L368.996 128.601ZM343.292 124.838C340.288 123.527 336.78 119.188 333.582 109.634C330.475 100.355 327.995 87.1846 326.215 69.9804L318.258 70.8036C320.062 88.2447 322.617 102.083 325.995 112.174C329.282 121.991 333.71 129.385 340.093 132.17L343.292 124.838ZM326.214 69.9667C324.765 56.4194 324.244 46.8411 324.566 41.0459L316.579 40.6021C316.218 47.0949 316.806 57.2286 318.259 70.8172L326.214 69.9667ZM324.568 41.0113C324.82 35.6387 325.236 31.2372 325.801 27.7707C326.375 24.2431 327.064 21.9371 327.734 20.5969L320.579 17.0191C319.372 19.4336 318.525 22.6742 317.904 26.4853C317.274 30.3575 316.837 35.0866 316.577 40.6367L324.568 41.0113ZM327.744 20.5766C330.038 15.9246 334.781 12.3194 343.038 10.2747L341.115 2.50926C331.452 4.90192 324.249 9.57406 320.569 17.0394L327.744 20.5766ZM343.024 10.2781C349.778 8.63095 355.897 7.83199 361.405 7.83199V-0.168007C355.136 -0.168007 348.37 0.739705 341.129 2.50592L343.024 10.2781ZM361.405 7.83199C364.161 7.83199 366.873 8.06818 369.541 8.53913L370.932 0.660865C367.798 0.107807 364.621 -0.168007 361.405 -0.168007V7.83199ZM369.536 8.53825C376.9 9.84732 383.35 11.9169 388.928 14.7057L392.505 7.55029C386.136 4.36576 378.933 2.08334 370.937 0.661748L369.536 8.53825ZM388.948 14.7158C394.591 17.4977 398.87 20.8299 401.935 24.6422L408.17 19.6298C404.237 14.7381 398.959 10.7316 392.485 7.54024L388.948 14.7158ZM401.953 24.6645C404.249 27.4784 407.062 32.452 410.356 39.8847L417.669 36.6433C414.307 29.0573 411.147 23.2789 408.152 19.6075L401.953 24.6645ZM410.218 39.5289C410.54 40.4942 411.025 41.3803 411.657 42.1708L417.904 37.1732C417.854 37.1104 417.827 37.0578 417.807 36.9991L410.218 39.5289ZM411.079 41.1889C415.14 51.0958 417.181 61.6716 417.181 72.952H425.181C425.181 60.6804 422.955 49.0695 418.482 38.1551L411.079 41.1889ZM368.123 33.5831C365.077 32.937 362.151 32.6 359.357 32.6V40.6C361.511 40.6 363.876 40.8603 366.462 41.4089L368.123 33.5831ZM359.357 32.6C356.231 32.6 353.326 33.0855 350.789 34.2385L354.1 41.5215C355.318 40.9679 357.021 40.6 359.357 40.6V32.6ZM350.758 34.2531C347.547 35.7466 345.526 38.8494 344.199 42.3001C342.842 45.8284 341.952 50.3795 341.423 55.7956L349.386 56.5724C349.881 51.4925 350.676 47.7449 351.666 45.1719C352.685 42.5212 353.673 41.7201 354.131 41.5069L350.758 34.2531ZM341.419 55.8478C340.802 63.1542 340.802 70.4618 341.419 77.7682L349.39 77.0958C348.812 70.2369 348.812 63.3791 349.39 56.5202L341.419 55.8478ZM341.42 77.7785C342.104 85.6469 342.892 91.5527 343.828 95.2981L351.589 93.3579C350.819 90.2766 350.071 84.9184 349.389 77.0855L341.42 77.7785ZM343.859 95.4138C345.137 99.9447 348.173 103.353 352.473 105.661L356.256 98.6114C353.559 97.1644 352.158 95.3673 351.558 93.2422L343.859 95.4138ZM352.497 105.674C356.204 107.63 360.312 108.568 364.733 108.568V100.568C361.473 100.568 358.669 99.8851 356.232 98.5985L352.497 105.674ZM364.733 108.568C367.993 108.568 371.366 108.025 374.832 106.994L372.553 99.3259C369.704 100.173 367.104 100.568 364.733 100.568V108.568ZM374.855 106.987C382.339 104.714 388.168 100.66 391.929 94.6612L385.152 90.4108C382.599 94.4817 378.528 97.5104 372.53 99.3327L374.855 106.987ZM391.94 94.6438C395.055 89.6197 396.77 82.9338 397.392 74.9262L389.417 74.3058C388.845 81.6582 387.317 86.919 385.141 90.4282L391.94 94.6438ZM397.392 74.9262C398.075 66.151 395.356 57.577 389.659 49.3068L383.07 53.8452C387.955 60.935 389.929 67.721 389.417 74.3058L397.392 74.9262ZM389.67 49.3238C383.947 40.9235 376.792 35.4764 368.146 33.5881L366.439 41.4039C372.641 42.7583 378.201 46.6978 383.059 53.8282L389.67 49.3238ZM489.134 79.992L485.14 80.2147L493.07 80.7013L489.134 79.992ZM497.07 40.696L500.942 41.6983L500.946 41.6822L500.95 41.6661L497.07 40.696ZM512.43 7.8L510.768 4.16123L510.757 4.16647L512.43 7.8ZM538.67 17.016L535.115 18.8506L535.121 18.8614L538.67 17.016ZM544.686 49.912L548.682 49.7363L548.682 49.7363L544.686 49.912ZM546.094 84.856L542.096 84.9878L542.097 85.0145L542.098 85.0412L546.094 84.856ZM546.606 113.144L542.609 112.973L542.609 112.984L542.608 112.996L546.606 113.144ZM531.118 128.888L532.968 125.342L532.951 125.333L532.934 125.324L531.118 128.888ZM522.03 114.296L518.125 115.164L518.127 115.173L518.129 115.182L522.03 114.296ZM519.854 96.248L515.865 96.549L515.866 96.5693L515.868 96.5896L519.854 96.248ZM518.702 75.128L514.705 75.2993L514.705 75.3064L518.702 75.128ZM518.83 40.312L522.829 40.3912L514.987 39.1998L518.83 40.312ZM512.302 73.208L508.333 72.7084L508.332 72.7156L512.302 73.208ZM501.038 125.304L499.249 121.726L499.232 121.735L499.216 121.743L501.038 125.304ZM484.654 125.816L486.403 122.219L486.364 122.2L486.325 122.182L484.654 125.816ZM477.23 115.576L473.264 116.102L473.266 116.117L473.268 116.132L477.23 115.576ZM473.006 90.744L476.929 89.9663L476.928 89.9595L473.006 90.744ZM467.886 66.168L463.972 66.9952L463.973 67.0017L467.886 66.168ZM459.054 38.904L462.663 37.1796L458.073 27.5723L455.202 37.8255L459.054 38.904ZM458.926 67.064L462.917 66.8092L462.916 66.7841L462.914 66.759L458.926 67.064ZM461.229 104.312L457.236 104.545L457.237 104.553L461.229 104.312ZM461.87 120.824L457.916 120.216L457.912 120.241L457.909 120.266L461.87 120.824ZM451.374 132.216L452.344 136.097L452.344 136.097L451.374 132.216ZM439.598 127.608L442.574 124.936L442.558 124.918L442.541 124.9L439.598 127.608ZM434.606 94.2L438.603 94.3326L438.604 94.3251L438.604 94.3176L434.606 94.2ZM434.606 60.664L438.584 60.2524L438.582 60.2332L438.58 60.214L434.606 60.664ZM433.326 39.032L437.323 38.8941L437.323 38.8855L437.322 38.8768L433.326 39.032ZM437.038 16.504L440.682 18.1517L440.683 18.1503L437.038 16.504ZM459.95 5.11199L459.292 9.05758L459.303 9.05939L459.95 5.11199ZM480.174 23.928L483.977 22.6901L483.974 22.6809L480.174 23.928ZM493.07 80.7013C496.485 61.7501 499.107 48.7883 500.942 41.6983L493.197 39.6937C491.278 47.1104 488.609 60.3459 485.197 79.2827L493.07 80.7013ZM500.95 41.6661C503.355 32.0475 505.777 24.7218 508.182 19.5723C510.693 14.1953 512.808 12.0294 514.102 11.4335L510.757 4.16647C506.675 6.04528 503.542 10.5993 500.933 16.1877C498.218 22.0035 495.648 29.8884 493.189 39.7259L500.95 41.6661ZM514.091 11.4387C517.643 9.81705 520.698 9.11199 523.31 9.11199V1.11199C519.265 1.11199 515.067 2.19893 510.768 4.16124L514.091 11.4387ZM523.31 9.11199C527.322 9.11199 531.355 11.5662 535.115 18.8506L542.224 15.1814C537.792 6.59376 531.585 1.11199 523.31 1.11199V9.11199ZM535.121 18.8614C538.013 24.4242 540.009 34.6183 540.689 50.0877L548.682 49.7363C547.996 34.1444 545.982 22.4078 542.218 15.1706L535.121 18.8614ZM540.689 50.0877C541.372 65.6151 541.84 77.2452 542.096 84.9878L550.091 84.7242C549.835 76.9361 549.364 65.2703 548.682 49.7363L540.689 50.0877ZM542.098 85.0412C542.694 97.911 542.857 107.189 542.609 112.973L550.602 113.315C550.866 107.152 550.687 97.5717 550.089 84.6708L542.098 85.0412ZM542.608 112.996C542.404 118.508 541.487 122.035 540.284 124.065C539.257 125.798 538.075 126.424 536.366 126.424V134.424C541.056 134.424 544.78 132.17 547.167 128.143C549.377 124.413 550.38 119.3 550.603 113.292L542.608 112.996ZM536.366 126.424C535.695 126.424 534.594 126.19 532.968 125.342L529.267 132.434C531.566 133.634 533.964 134.424 536.366 134.424V126.424ZM532.934 125.324C530.125 123.892 527.525 120.427 525.93 113.41L518.129 115.182C519.948 123.184 523.406 129.446 529.301 132.452L532.934 125.324ZM525.934 113.428C525.318 110.657 524.61 104.901 523.839 95.9064L515.868 96.5896C516.633 105.515 517.375 111.791 518.125 115.164L525.934 113.428ZM523.842 95.947C523.506 91.4891 523.124 84.5004 522.698 74.9496L514.705 75.3064C515.132 84.8702 515.519 91.9616 515.865 96.549L523.842 95.947ZM522.698 74.9567C522.448 69.1282 522.487 57.6457 522.829 40.3912L514.83 40.2328C514.489 57.4529 514.443 69.1812 514.705 75.2993L522.698 74.9567ZM514.987 39.1998C512.102 49.1655 509.89 60.3408 508.333 72.7084L516.27 73.7076C517.785 61.6698 519.925 50.9145 522.672 41.4242L514.987 39.1998ZM508.332 72.7156C506.288 89.1922 504.343 101.649 502.504 110.155C501.581 114.423 500.712 117.566 499.917 119.681C499.518 120.743 499.183 121.422 498.938 121.816C498.639 122.296 498.69 122.006 499.249 121.726L502.826 128.882C504.238 128.176 505.153 126.97 505.729 126.044C506.359 125.032 506.909 123.817 507.406 122.495C508.403 119.842 509.369 116.26 510.323 111.845C512.239 102.986 514.219 90.2478 516.271 73.7004L508.332 72.7156ZM499.216 121.743C495.62 123.582 493.534 124.12 492.59 124.12V132.12C495.57 132.12 499.116 130.78 502.859 128.865L499.216 121.743ZM492.59 124.12C491.332 124.12 489.325 123.641 486.403 122.219L482.904 129.413C486.296 131.063 489.58 132.12 492.59 132.12V124.12ZM486.325 122.182C483.363 120.819 481.694 118.61 481.191 115.02L473.268 116.132C474.13 122.27 477.411 126.887 482.982 129.45L486.325 122.182ZM481.195 115.05C480.242 107.86 478.818 99.495 476.929 89.9663L469.082 91.5217C470.948 100.937 472.34 109.127 473.264 116.102L481.195 115.05ZM476.928 89.9595C475.728 83.962 474.018 75.7512 471.798 65.3343L463.973 67.0017C466.191 77.4061 467.893 85.5793 469.083 91.5285L476.928 89.9595ZM471.799 65.3408C469.531 54.611 466.499 45.2083 462.663 37.1796L455.444 40.6284C458.947 47.9597 461.803 56.7329 463.972 66.9952L471.799 65.3408ZM455.202 37.8255C454.45 40.5098 454.147 44.381 454.126 49.1258C454.104 53.9685 454.378 60.0596 454.937 67.369L462.914 66.759C462.363 59.5618 462.105 53.7061 462.125 49.1622C462.147 44.5203 462.462 41.5649 462.905 39.9825L455.202 37.8255ZM454.934 67.3188C455.957 83.359 456.725 95.7664 457.236 104.545L465.223 104.079C464.71 95.279 463.942 82.8543 462.917 66.8092L454.934 67.3188ZM457.237 104.553C457.535 109.492 457.735 113.31 457.841 116.019C457.893 117.376 457.921 118.429 457.926 119.194C457.931 120.07 457.902 120.305 457.916 120.216L465.823 121.432C465.922 120.789 465.93 119.919 465.925 119.142C465.92 118.254 465.889 117.104 465.835 115.709C465.726 112.914 465.522 109.03 465.222 104.071L457.237 104.553ZM457.909 120.266C457.574 122.643 456.767 124.308 455.664 125.506C454.552 126.712 452.891 127.714 450.403 128.335L452.344 136.097C456 135.182 459.16 133.517 461.547 130.926C463.943 128.326 465.312 125.063 465.83 121.382L457.909 120.266ZM450.403 128.335C449.544 128.55 449.042 128.6 448.814 128.6V136.6C449.95 136.6 451.155 136.394 452.344 136.097L450.403 128.335ZM448.814 128.6C447.201 128.6 445.127 127.781 442.574 124.936L436.621 130.28C440.041 134.091 444.111 136.6 448.814 136.6V128.6ZM442.541 124.9C441.43 123.692 440.169 120.868 439.362 115.465C438.58 110.235 438.309 103.219 438.603 94.3326L430.608 94.0674C430.305 103.187 430.567 110.741 431.449 116.647C432.306 122.38 433.839 127.257 436.654 130.316L442.541 124.9ZM438.604 94.3176C439.114 76.9844 439.129 65.5189 438.584 60.2524L430.627 61.0756C431.106 65.7077 431.121 76.5996 430.607 94.0824L438.604 94.3176ZM438.58 60.214C438.087 55.8577 437.664 48.7802 437.323 38.8941L429.328 39.1698C429.67 49.0812 430.1 56.4249 430.631 61.114L438.58 60.214ZM437.322 38.8768C436.999 30.5356 438.185 23.6771 440.682 18.1517L433.393 14.8563C430.258 21.7895 428.97 29.9498 429.329 39.1872L437.322 38.8768ZM440.683 18.1503C442.242 14.6991 444.172 12.3681 446.356 10.8855C448.522 9.4153 451.2 8.6 454.574 8.6V0.599998C449.841 0.599998 445.542 1.7687 441.863 4.2665C438.202 6.75187 435.417 10.3729 433.392 14.8577L440.683 18.1503ZM454.574 8.6C455.828 8.6 457.391 8.74076 459.292 9.05757L460.607 1.16641C458.412 0.800569 456.391 0.599998 454.574 0.599998V8.6ZM459.303 9.05939C463.547 9.75452 466.963 11.4095 469.705 13.9605C472.472 16.5351 474.74 20.199 476.373 25.1751L483.974 22.6809C482.023 16.7343 479.128 11.8009 475.154 8.10346C471.155 4.38248 466.251 2.0908 460.596 1.16459L459.303 9.05939ZM476.37 25.1659C480.916 39.1359 483.87 57.4472 485.14 80.2147L493.127 79.7693C491.837 56.6275 488.817 37.5627 483.977 22.6901L476.37 25.1659ZM608.701 4.6L608.338 8.58357L608.342 8.58392L608.701 4.6ZM642.109 44.28L638.224 45.2345L638.226 45.2423L638.228 45.2501L642.109 44.28ZM647.101 73.72L643.138 74.269L643.139 74.2728L647.101 73.72ZM646.973 121.08L643.153 119.89L643.147 119.911L643.141 119.931L646.973 121.08ZM626.365 129.656L623.656 132.6L623.656 132.6L626.365 129.656ZM622.269 119.928L626.234 119.404L626.233 119.394L622.269 119.928ZM621.117 98.296L625.116 98.2276L625.116 98.2239L621.117 98.296ZM619.581 76.408L615.631 77.0441L615.633 77.0548L615.635 77.0656L619.581 76.408ZM609.725 57.08L609.875 53.0828L609.87 53.0826L609.725 57.08ZM598.845 58.104L597.58 54.3093L597.58 54.3093L598.845 58.104ZM589.373 70.904L593.31 71.6107L593.311 71.6021L593.313 71.5935L589.373 70.904ZM589.117 88.056L593.112 87.8644L593.111 87.8551L593.111 87.8458L589.117 88.056ZM590.909 114.04L586.938 114.528L586.939 114.536L590.909 114.04ZM575.165 132.6L575.661 128.631L575.661 128.631L575.165 132.6ZM561.725 120.952L565.547 119.772L565.544 119.763L565.541 119.755L561.725 120.952ZM560.445 101.752L564.437 101.994L564.438 101.984L560.445 101.752ZM561.853 78.072L557.862 77.7987L557.861 77.8059L561.853 78.072ZM566.589 47.992L562.665 47.2129L562.664 47.2169L566.589 47.992ZM573.757 20.856L570.046 19.3609L570.041 19.3747L570.035 19.3885L573.757 20.856ZM585.917 8.05599L587.663 11.6546L587.672 11.6502L587.681 11.6458L585.917 8.05599ZM614.845 34.168L618.621 35.4855L618.659 35.3772L618.691 35.2669L614.845 34.168ZM604.349 23.032L604.053 27.0211L604.064 27.0218L604.349 23.032ZM593.213 26.872L596.041 29.7004L596.062 29.6793L596.083 29.6579L593.213 26.872ZM591.293 35.192L587.837 37.2075L587.844 37.2194L587.851 37.2312L591.293 35.192ZM597.309 39.416L598.093 35.4937L598.081 35.4912L598.069 35.4889L597.309 39.416ZM608.342 8.58392C621.839 9.79793 632.208 20.7539 638.224 45.2345L645.993 43.3255C639.721 17.8008 627.818 2.30339 609.059 0.616082L608.342 8.58392ZM638.228 45.2501C639.535 50.4779 641.174 60.0949 643.138 74.269L651.063 73.171C649.101 59.0144 647.413 49.0047 645.989 43.3099L638.228 45.2501ZM643.139 74.2728C644.655 85.1354 645.405 95.0169 645.405 103.928H653.405C653.405 94.5778 652.618 84.3206 651.062 73.1672L643.139 74.2728ZM645.405 103.928C645.405 109.81 644.639 115.121 643.153 119.89L650.792 122.27C652.549 116.629 653.405 110.504 653.405 103.928H645.405ZM643.141 119.931C642.081 123.463 640.841 125.695 639.632 126.991C638.529 128.173 637.449 128.6 636.221 128.6V136.6C639.856 136.6 643 135.107 645.481 132.449C647.856 129.905 649.56 126.377 650.804 122.229L643.141 119.931ZM636.221 128.6C632.271 128.6 630.16 127.713 629.073 126.712L623.656 132.6C626.835 135.525 631.295 136.6 636.221 136.6V128.6ZM629.073 126.712C627.928 125.659 626.775 123.501 626.234 119.404L618.303 120.452C618.956 125.4 620.534 129.728 623.656 132.6L629.073 126.712ZM626.233 119.394C625.669 115.207 625.286 108.197 625.116 98.2276L617.117 98.3644C617.288 108.363 617.673 115.775 618.304 120.462L626.233 119.394ZM625.116 98.2239C624.944 88.6876 624.428 81.1609 623.526 75.7504L615.635 77.0656C616.44 81.8951 616.948 88.9604 617.117 98.3681L625.116 98.2239ZM623.53 75.7719C622.483 69.2712 621.069 63.9977 619.144 60.2229C617.262 56.5322 614.318 53.2505 609.875 53.0828L609.574 61.0772C609.654 61.0802 610.614 61.1051 612.017 63.8571C613.377 66.5249 614.63 70.8301 615.631 77.0441L623.53 75.7719ZM609.87 53.0826C604.998 52.9055 600.811 53.2321 597.58 54.3093L600.109 61.8987C601.998 61.2692 605.064 60.9132 609.579 61.0774L609.87 53.0826ZM597.58 54.3093C590.656 56.6171 586.796 62.4207 585.432 70.2145L593.313 71.5935C594.338 65.734 596.793 63.0042 600.109 61.8987L597.58 54.3093ZM585.435 70.1973C584.748 74.0274 584.695 80.1603 585.122 88.2662L593.111 87.8458C592.684 79.7384 592.802 74.4366 593.31 71.6107L585.435 70.1973ZM585.121 88.2476C585.718 100.7 586.321 109.498 586.938 114.528L594.879 113.552C594.302 108.854 593.71 100.329 593.112 87.8644L585.121 88.2476ZM586.939 114.536C587.098 115.805 587.165 116.78 587.165 117.496H595.165C595.165 116.335 595.06 115.006 594.878 113.544L586.939 114.536ZM587.165 117.496C587.165 122.167 586.185 124.926 584.911 126.47C583.758 127.868 581.875 128.856 578.493 128.856V136.856C583.558 136.856 588.011 135.284 591.082 131.562C594.032 127.986 595.165 123.065 595.165 117.496H587.165ZM578.493 128.856C577.874 128.856 576.948 128.792 575.661 128.631L574.668 136.569C576.112 136.75 577.404 136.856 578.493 136.856V128.856ZM575.661 128.631C572.904 128.286 570.854 127.369 569.304 126.025C567.742 124.672 566.441 122.671 565.547 119.772L557.902 122.132C559.141 126.145 561.147 129.542 564.065 132.071C566.995 134.61 570.598 136.06 574.668 136.569L575.661 128.631ZM565.541 119.755C564.398 116.11 563.934 110.299 564.437 101.994L556.452 101.51C555.931 110.101 556.321 117.09 557.908 122.149L565.541 119.755ZM564.438 101.984C565.206 88.748 565.674 80.8765 565.844 78.3381L557.861 77.8059C557.689 80.3875 557.219 88.3027 556.451 101.52L564.438 101.984ZM565.843 78.3453C566.251 72.3898 567.785 62.5784 570.513 48.7671L562.664 47.2169C559.931 61.0536 558.307 71.2956 557.862 77.7987L565.843 78.3453ZM570.512 48.7711C572.888 36.8071 575.222 28.0429 577.478 22.3235L570.035 19.3885C567.512 25.7865 565.068 35.1129 562.665 47.2129L570.512 48.7711ZM577.467 22.3511C579.381 17.6 582.708 14.0594 587.663 11.6546L584.17 4.45737C577.52 7.68462 572.74 12.6773 570.046 19.3609L577.467 22.3511ZM587.681 11.6458C592.067 9.49006 597.329 8.34399 603.581 8.34399V0.343994C596.349 0.343994 589.836 1.67259 584.152 4.4662L587.681 11.6458ZM603.581 8.34399C604.972 8.34399 606.556 8.4215 608.338 8.58357L609.063 0.616426C607.091 0.437162 605.261 0.343994 603.581 0.343994V8.34399ZM618.691 35.2669C618.973 34.2788 619.101 33.266 619.101 32.248H611.101C611.101 32.5954 611.057 32.8625 610.998 33.0691L618.691 35.2669ZM619.101 32.248C619.101 28.5123 617.867 25.1267 615.016 22.683C612.312 20.3659 608.651 19.3291 604.633 19.0422L604.064 27.0218C607.214 27.2469 608.929 28.0021 609.809 28.757C610.542 29.3853 611.101 30.3517 611.101 32.248H619.101ZM604.644 19.0429C599.043 18.6281 594.107 20.2076 590.342 24.0861L596.083 29.6579C597.95 27.7337 600.438 26.7533 604.053 27.0211L604.644 19.0429ZM590.384 24.0436C588.115 26.3123 586.397 29.1054 586.397 32.376H594.397C594.397 32.0626 594.555 31.1863 596.041 29.7004L590.384 24.0436ZM586.397 32.376C586.397 34.1609 587.016 35.7988 587.837 37.2075L594.748 33.1765C594.375 32.5372 594.397 32.2978 594.397 32.376H586.397ZM587.851 37.2312C589.804 40.5256 592.788 42.6154 596.548 43.3431L598.069 35.4889C596.538 35.1926 595.512 34.4664 594.734 33.1528L587.851 37.2312ZM596.524 43.3383C597.325 43.4986 598.506 43.5648 599.735 43.6058C601.079 43.6506 602.836 43.672 604.989 43.672V35.672C602.875 35.672 601.218 35.6508 600.002 35.6102C599.393 35.5899 598.919 35.5656 598.568 35.5392C598.18 35.5101 598.058 35.4868 598.093 35.4937L596.524 43.3383ZM604.989 43.672C608.054 43.672 610.939 43.1465 613.371 41.7883C615.898 40.377 617.671 38.2109 618.621 35.4855L611.068 32.8505C610.738 33.7944 610.228 34.3803 609.47 34.8037C608.617 35.2801 607.213 35.672 604.989 35.672V43.672ZM762.952 36.088L758.962 35.7947L758.962 35.7979L762.952 36.088ZM759.624 50.552L763.357 51.9879L763.36 51.9793L763.363 51.9706L759.624 50.552ZM737.992 68.856L738.776 72.7783L738.794 72.7747L738.812 72.7709L737.992 68.856ZM722.888 70.648L723.267 74.63L723.273 74.6294L722.888 70.648ZM691.144 69.368L691.809 65.4237L686.972 64.608L687.146 69.5095L691.144 69.368ZM693.704 104.568L697.595 103.642L697.592 103.629L697.589 103.617L693.704 104.568ZM695.368 114.808L699.359 114.542L699.357 114.518L699.355 114.493L695.368 114.808ZM694.728 124.024L690.892 122.888L690.844 123.051L690.81 123.217L694.728 124.024ZM689.096 130.936L687.193 127.417L687.173 127.428L687.153 127.439L689.096 130.936ZM680.136 132.6L680.942 128.682L680.931 128.68L680.136 132.6ZM669.768 113.144L673.752 112.797L673.752 112.797L669.768 113.144ZM668.744 99.832L672.737 99.6038L672.732 99.5093L672.722 99.4152L668.744 99.832ZM667.08 73.464H663.08V73.5036L663.08 73.5432L667.08 73.464ZM669.64 28.28L665.772 27.2605L665.771 27.262L669.64 28.28ZM693.832 6.64799L694.831 10.5211L694.839 10.5191L694.846 10.5171L693.832 6.64799ZM747.976 10.872L750.041 7.44683L750.034 7.44257L750.027 7.43833L747.976 10.872ZM759.496 21.112L756.131 23.275L756.139 23.2871L756.146 23.2992L759.496 21.112ZM720.968 48.632L718.811 45.2629L718.446 45.4968L718.139 45.8036L720.968 48.632ZM725.064 32.504L721.719 34.6974L721.727 34.7101L721.735 34.7228L725.064 32.504ZM704.456 25.08L705.09 29.0293L705.102 29.0275L705.113 29.0256L704.456 25.08ZM690.76 41.592L694.756 41.43L694.756 41.421L694.755 41.412L690.76 41.592ZM706.376 51.576L706.241 55.5738L706.252 55.5741L706.376 51.576ZM717 50.808L718.624 54.4632L718.633 54.4595L718.641 54.4557L717 50.808ZM719.56 49.656L721.201 53.3037L721.449 53.1921L721.679 53.048L719.56 49.656ZM758.962 35.7979C758.652 40.0602 757.64 44.5016 755.884 49.1334L763.363 51.9706C765.361 46.7037 766.568 41.5025 766.941 36.3781L758.962 35.7979ZM755.89 49.1161C752.544 57.8167 746.441 62.9974 737.171 64.9411L738.812 72.7709C750.705 70.2772 759.023 63.2553 763.357 51.9879L755.89 49.1161ZM737.207 64.9337C735.314 65.3124 730.501 65.8925 722.502 66.6666L723.273 74.6294C731.146 73.8675 736.403 73.253 738.776 72.7783L737.207 64.9337ZM722.508 66.666C719.056 66.9948 715.513 67.16 711.88 67.16V75.16C715.755 75.16 719.551 74.9838 723.267 74.63L722.508 66.666ZM711.88 67.16C705.375 67.16 698.686 66.5837 691.809 65.4237L690.478 73.3123C697.766 74.5416 704.901 75.16 711.88 75.16V67.16ZM687.146 69.5095C687.488 79.1748 687.874 86.9849 688.306 92.9221C688.73 98.7556 689.215 103.056 689.818 105.519L697.589 103.617C697.168 101.899 696.714 98.2417 696.285 92.3419C695.863 86.5458 695.482 78.8465 695.141 69.2265L687.146 69.5095ZM689.812 105.494C690.624 108.903 691.142 112.111 691.38 115.123L699.355 114.493C699.081 111.02 698.49 107.401 697.595 103.642L689.812 105.494ZM691.376 115.074C691.617 118.691 691.384 121.228 690.892 122.888L698.563 125.16C699.436 122.212 699.63 118.605 699.359 114.542L691.376 115.074ZM690.81 123.217C690.501 124.717 689.553 126.142 687.193 127.417L690.998 134.455C694.953 132.317 697.759 129.134 698.645 124.831L690.81 123.217ZM687.153 127.439C684.754 128.772 682.738 129.052 680.942 128.682L679.329 136.518C683.336 137.343 687.293 136.513 691.038 134.433L687.153 127.439ZM680.931 128.68C679.416 128.373 677.962 127.406 676.658 124.959C675.291 122.394 674.243 118.437 673.752 112.797L665.783 113.491C666.316 119.627 667.508 124.801 669.597 128.721C671.749 132.759 674.967 135.633 679.34 136.52L680.931 128.68ZM673.752 112.797C673.241 106.919 672.904 102.529 672.737 99.6038L664.75 100.06C664.924 103.108 665.27 107.593 665.783 113.491L673.752 112.797ZM672.722 99.4152C671.794 90.5624 671.247 81.8858 671.079 73.3848L663.08 73.5432C663.253 82.2796 663.815 91.1816 664.765 100.249L672.722 99.4152ZM671.08 73.464V47.096H663.08V73.464H671.08ZM671.08 47.096C671.08 41.4153 671.879 35.486 673.508 29.298L665.771 27.262C663.986 34.0446 663.08 40.6594 663.08 47.096H671.08ZM673.507 29.2994C675.96 19.9954 682.674 13.6585 694.831 10.5211L692.832 2.77489C678.536 6.46415 669.122 14.5486 665.772 27.2605L673.507 29.2994ZM694.846 10.5171C699.511 9.29363 707.763 8.6 719.944 8.6V0.599998C707.719 0.599998 698.563 1.27169 692.817 2.77888L694.846 10.5171ZM719.944 8.6C731.208 8.6 739.759 10.6221 745.924 14.3057L750.027 7.43833C742.197 2.75925 732.06 0.599998 719.944 0.599998V8.6ZM745.91 14.2972C750.99 17.3617 754.277 20.3906 756.131 23.275L762.86 18.949C760.106 14.6654 755.713 10.8677 750.041 7.44683L745.91 14.2972ZM756.146 23.2992C758.321 26.6294 759.336 30.7165 758.962 35.7947L766.941 36.3813C767.421 29.8542 766.131 23.9573 762.845 18.9248L756.146 23.2992ZM723.124 52.0011C728.02 48.8672 731.368 44.6269 731.368 39.16H723.368C723.368 40.8611 722.448 42.9354 718.811 45.2629L723.124 52.0011ZM731.368 39.16C731.368 36.0325 730.237 33.0526 728.392 30.2852L721.735 34.7228C722.962 36.5634 723.368 38.0208 723.368 39.16H731.368ZM728.408 30.3106C724.175 23.8545 717.724 20.696 709.704 20.696V28.696C715.336 28.696 719.125 30.7428 721.719 34.6974L728.408 30.3106ZM709.704 20.696C707.574 20.696 705.599 20.8343 703.798 21.1344L705.113 29.0256C706.384 28.8137 707.907 28.696 709.704 28.696V20.696ZM703.821 21.1307C698.426 21.9977 693.876 24.0797 690.785 27.8063C687.684 31.5451 686.52 36.3729 686.764 41.772L694.755 41.412C694.572 37.3391 695.478 34.6789 696.942 32.9137C698.417 31.1363 700.927 29.6983 705.09 29.0293L703.821 21.1307ZM686.763 41.754C686.942 46.1818 688.967 49.8069 692.701 52.1941C696.181 54.4193 700.86 55.3928 706.241 55.5737L706.51 47.5783C701.737 47.4178 698.735 46.5567 697.01 45.4539C695.539 44.5131 694.833 43.3169 694.756 41.43L686.763 41.754ZM706.252 55.5741C709.096 55.6616 711.519 55.6434 713.48 55.5016C715.315 55.3689 717.18 55.1051 718.624 54.4632L715.375 47.1528C715.388 47.1471 715.216 47.2195 714.744 47.3067C714.297 47.3893 713.692 47.4654 712.903 47.5224C711.323 47.6366 709.202 47.6611 706.499 47.5779L706.252 55.5741ZM718.641 54.4557L721.201 53.3037L717.918 46.0083L715.358 47.1603L718.641 54.4557ZM721.679 53.048C722.385 52.6071 723.193 52.0633 723.796 51.4604L718.139 45.8036C718.188 45.7545 718.211 45.7368 718.193 45.7523C718.176 45.7658 718.138 45.7964 718.071 45.8451C717.934 45.9442 717.729 46.0829 717.44 46.264L721.679 53.048Z" fill="black" mask="url(#path-2-outside-1_95_265)"/>
</svg>
