<svg width="771" height="138" viewBox="0 0 771 138" fill="none" xmlns="http://www.w3.org/2000/svg">
<path d="M21.9765 15.664C26.7552 11.4827 37.2938 8.79467 53.5925 7.6C62.6378 6.91733 73.0912 7.51466 84.9525 9.392C97.3258 11.3547 104.707 17.5413 107.097 27.952C108.206 32.816 108.761 36.912 108.761 40.24C108.761 44.592 107.907 48.2613 106.201 51.248C99.1178 63.4507 87.0432 69.6373 69.9765 69.808C67.4165 69.808 63.6618 69.6373 58.7125 69.296C53.7632 68.8693 50.0938 68.656 47.7045 68.656C46.7658 68.656 46.2965 68.9547 46.2965 69.552C46.2965 70.4907 47.2352 71.984 49.1125 74.032C55.4272 80.7733 60.6325 86.6187 64.7285 91.568C70.6165 98.5653 75.0538 103.771 78.0405 107.184C84.1845 114.693 87.2565 120.368 87.2565 124.208C87.2565 128.304 85.0378 131.419 80.6005 133.552C78.9792 134.32 77.3578 134.704 75.7365 134.704C70.4458 134.704 65.0698 131.803 59.6085 126C55.5978 121.648 52.0565 116.443 48.9845 110.384L33.4965 79.28C35.2885 96.8587 36.1418 107.483 36.0565 111.152C35.9712 117.723 35.9712 121.349 36.0565 122.032C36.0565 124.165 35.5445 126.469 34.5205 128.944C33.4965 131.419 32.0458 133.125 30.1685 134.064C28.8032 134.747 26.5418 135.259 23.3845 135.6C17.4112 136.283 14.4245 131.333 14.4245 120.752C14.0832 118.789 13.8272 116.443 13.6565 113.712C12.3765 93.5733 11.7792 76.5493 11.8645 62.64C11.9498 53.0827 12.0778 46.4693 12.2485 42.8C13.0165 28.6347 16.2592 19.5893 21.9765 15.664ZM63.4485 30.128C60.1205 28.592 56.8352 27.824 53.5925 27.824C50.2645 27.824 47.2352 28.72 44.5045 30.512C40.4938 33.072 38.4458 36.6987 38.3605 41.392C38.2752 47.536 41.5178 50.7787 48.0885 51.12C60.9738 51.8027 68.0992 48.9867 69.4645 42.672C70.7445 36.6987 68.7392 32.5173 63.4485 30.128ZM123.51 29.36C127.692 14.5973 140.748 7.216 162.679 7.216C165.409 7.216 168.268 7.344 171.255 7.6C176.887 8.02666 181.068 8.624 183.799 9.392C187.127 10.3307 190.54 12.2507 194.039 15.152C197.537 18.0533 199.927 21.0827 201.207 24.24C203.681 30.2133 205.132 35.9733 205.559 41.52C205.729 44.1653 206.156 48.5173 206.839 54.576C207.436 59.8667 207.735 64.3467 207.735 68.016C207.82 77.1467 206.54 91.2267 203.895 110.256C203.639 112.048 202.487 115.376 200.439 120.24C198.049 125.957 192.887 130.181 184.951 132.912C179.489 134.789 173.857 135.728 168.055 135.728C166.775 135.728 165.495 135.685 164.215 135.6C158.071 135.173 154.145 134.789 152.439 134.448C149.367 133.851 145.484 132.656 140.791 130.864C137.548 129.669 134.177 127.237 130.679 123.568C126.839 119.472 124.919 115.931 124.919 112.944L120.823 96.944C119.713 92.6773 119.073 86.32 118.903 77.872C118.817 71.3867 118.775 64.9013 118.775 58.416C118.689 50.48 120.268 40.7947 123.51 29.36ZM170.359 34.352C165.58 32.9867 160.545 32.9867 155.255 34.352C149.623 35.7173 146.039 42.7147 144.503 55.344C143.735 61.488 143.351 67.376 143.351 73.008C143.351 79.2373 143.863 85.68 144.887 92.336C146.764 104.368 151.116 111.024 157.943 112.304C159.82 112.645 161.697 112.816 163.575 112.816C167.841 112.816 171.383 111.792 174.199 109.744C178.209 106.843 180.94 97.8827 182.391 82.864C182.903 77.5733 183.159 72.7093 183.159 68.272C183.159 61.2747 182.391 54.8747 180.854 49.072C178.636 40.624 175.137 35.7173 170.359 34.352ZM271.701 7.6C287.829 9.05066 298.965 22.2773 305.109 47.28C306.474 52.7413 308.138 62.5547 310.101 76.72C311.637 87.728 312.405 97.7973 312.405 106.928C312.405 113.157 311.594 118.875 309.973 124.08C307.669 131.76 304.085 135.6 299.221 135.6C294.783 135.6 291.498 134.619 289.365 132.656C287.231 130.693 285.866 127.451 285.269 122.928C284.671 118.491 284.287 111.28 284.117 101.296C283.946 91.824 283.434 84.528 282.581 79.408C280.533 66.6933 277.247 60.2507 272.725 60.08C268.031 59.9093 264.405 60.2507 261.845 61.104C256.725 62.8107 253.567 67.0773 252.373 73.904C251.775 77.232 251.69 82.9493 252.117 91.056C252.714 103.515 253.311 112.176 253.909 117.04C254.079 118.405 254.165 119.557 254.165 120.496C254.165 130.736 249.941 135.856 241.493 135.856C240.639 135.856 239.53 135.771 238.165 135.6C231.338 134.747 226.858 130.864 224.725 123.952C223.359 119.6 222.933 113.2 223.445 104.752C224.213 91.5253 224.682 83.632 224.853 81.072C225.279 74.8427 226.858 64.816 229.589 50.992C231.978 38.96 234.367 29.9147 236.757 23.856C239.061 18.1387 243.114 13.872 248.917 11.056C253.951 8.58133 259.839 7.34399 266.581 7.34399C268.117 7.34399 269.823 7.42933 271.701 7.6ZM277.845 37.168C278.015 36.5707 278.101 35.9307 278.101 35.248C278.101 29.616 274.517 26.544 267.349 26.032C262.741 25.6907 259.029 26.9707 256.213 29.872C254.335 31.7493 253.397 33.584 253.397 35.376C253.397 36.2293 253.695 37.168 254.293 38.192C255.658 40.496 257.663 41.904 260.309 42.416C261.162 42.5867 263.722 42.672 267.989 42.672C273.279 42.672 276.565 40.8373 277.845 37.168ZM425.952 39.088C425.61 43.7813 424.501 48.6027 422.624 53.552C418.784 63.536 411.573 69.6373 400.992 71.856C398.858 72.2827 393.824 72.88 385.888 73.648C382.304 73.9893 378.634 74.16 374.88 74.16C368.138 74.16 361.226 73.5627 354.144 72.368C354.826 91.6533 355.68 103.387 356.704 107.568C357.557 111.152 358.112 114.565 358.368 117.808C358.624 121.648 358.41 124.72 357.728 127.024C357.13 129.925 355.253 132.229 352.096 133.936C349.024 135.643 346.037 136.197 343.136 135.6C337.248 134.405 333.792 127.92 332.768 116.144C332.256 110.256 331.914 105.819 331.744 102.832C330.805 93.872 330.25 85.0827 330.08 76.464V50.096C330.08 44.0373 330.933 37.7653 332.64 31.28C335.541 20.272 343.605 13.0613 356.832 9.64799C362.037 8.28266 370.741 7.6 382.944 7.6C394.634 7.6 403.978 9.69066 410.976 13.872C416.352 17.1147 420.192 20.528 422.496 24.112C425.226 28.2933 426.378 33.2853 425.952 39.088ZM383.968 51.632C388.234 48.9013 390.368 45.744 390.368 42.16C390.368 40.0267 389.6 37.808 388.064 35.504C384.65 30.2987 379.53 27.696 372.704 27.696C370.741 27.696 368.992 27.824 367.456 28.08C357.898 29.616 353.333 35.12 353.76 44.592C354.016 50.9067 359.221 54.2347 369.376 54.576C374.922 54.7467 378.464 54.4907 380 53.808L382.56 52.656C383.242 52.2293 383.712 51.888 383.968 51.632ZM492.259 82.992C495.672 64.048 498.317 50.9493 500.195 43.696C505.059 24.24 510.179 13.2747 515.555 10.8C519.48 9.00799 523.107 8.11199 526.435 8.11199C532.579 8.11199 537.699 12.08 541.795 20.016C545.123 26.416 547.128 37.3813 547.811 52.912C548.493 68.4427 548.963 80.0907 549.219 87.856C549.816 100.741 549.987 110.171 549.731 116.144C549.304 127.664 545.891 133.424 539.491 133.424C537.955 133.424 536.205 132.912 534.243 131.888C529.891 129.669 526.861 124.805 525.155 117.296C524.472 114.224 523.747 108.208 522.979 99.248C522.637 94.7253 522.253 87.6853 521.827 78.128C521.571 72.1547 521.613 60.5493 521.955 43.312C519.139 53.04 516.963 64.0053 515.427 76.208C511.331 109.232 507.576 126.597 504.163 128.304C500.493 130.181 497.677 131.12 495.715 131.12C493.581 131.12 490.936 130.352 487.779 128.816C483.512 126.853 481.037 123.44 480.355 118.576C479.416 111.493 478.008 103.216 476.131 93.744C474.936 87.7707 473.229 79.5787 471.011 69.168C468.792 58.672 465.848 49.584 462.179 41.904C460.984 46.1707 460.941 55.5573 462.051 70.064C463.075 86.1067 463.843 98.5227 464.354 107.312C464.952 117.211 465.165 122.715 464.995 123.824C464.141 129.883 460.643 133.68 454.499 135.216C453.475 135.472 452.621 135.6 451.939 135.6C448.781 135.6 445.709 133.936 442.723 130.608C438.797 126.341 437.133 115.205 437.731 97.2C438.243 79.792 438.243 68.6133 437.731 63.664C437.219 59.1413 436.792 51.9307 436.451 42.032C436.109 33.2427 437.347 25.7333 440.163 19.504C443.747 11.568 449.592 7.6 457.699 7.6C459.235 7.6 461.027 7.77066 463.075 8.11199C472.973 9.73333 479.715 16.0053 483.299 26.928C487.992 41.3493 490.979 60.0373 492.259 82.992ZM611.826 7.6C627.954 9.05066 639.09 22.2773 645.234 47.28C646.599 52.7413 648.263 62.5547 650.226 76.72C651.762 87.728 652.53 97.7973 652.53 106.928C652.53 113.157 651.719 118.875 650.098 124.08C647.794 131.76 644.21 135.6 639.346 135.6C634.908 135.6 631.623 134.619 629.49 132.656C627.356 130.693 625.991 127.451 625.394 122.928C624.796 118.491 624.412 111.28 624.242 101.296C624.071 91.824 623.559 84.528 622.706 79.408C620.658 66.6933 617.372 60.2507 612.85 60.08C608.156 59.9093 604.53 60.2507 601.97 61.104C596.85 62.8107 593.692 67.0773 592.498 73.904C591.9 77.232 591.815 82.9493 592.242 91.056C592.839 103.515 593.436 112.176 594.034 117.04C594.204 118.405 594.29 119.557 594.29 120.496C594.29 130.736 590.066 135.856 581.618 135.856C580.764 135.856 579.655 135.771 578.29 135.6C571.463 134.747 566.983 130.864 564.85 123.952C563.484 119.6 563.058 113.2 563.57 104.752C564.338 91.5253 564.807 83.632 564.978 81.072C565.404 74.8427 566.983 64.816 569.714 50.992C572.103 38.96 574.492 29.9147 576.882 23.856C579.186 18.1387 583.239 13.872 589.042 11.056C594.076 8.58133 599.964 7.34399 606.706 7.34399C608.242 7.34399 609.948 7.42933 611.826 7.6ZM617.97 37.168C618.14 36.5707 618.226 35.9307 618.226 35.248C618.226 29.616 614.642 26.544 607.474 26.032C602.866 25.6907 599.154 26.9707 596.338 29.872C594.46 31.7493 593.522 33.584 593.522 35.376C593.522 36.2293 593.82 37.168 594.418 38.192C595.783 40.496 597.788 41.904 600.434 42.416C601.287 42.5867 603.847 42.672 608.114 42.672C613.404 42.672 616.69 40.8373 617.97 37.168ZM766.077 39.088C765.735 43.7813 764.626 48.6027 762.749 53.552C758.909 63.536 751.698 69.6373 741.117 71.856C738.983 72.2827 733.949 72.88 726.013 73.648C722.429 73.9893 718.759 74.16 715.005 74.16C708.263 74.16 701.351 73.5627 694.269 72.368C694.951 91.6533 695.805 103.387 696.829 107.568C697.682 111.152 698.237 114.565 698.493 117.808C698.749 121.648 698.535 124.72 697.853 127.024C697.255 129.925 695.378 132.229 692.221 133.936C689.149 135.643 686.162 136.197 683.261 135.6C677.373 134.405 673.917 127.92 672.893 116.144C672.381 110.256 672.039 105.819 671.869 102.832C670.93 93.872 670.375 85.0827 670.205 76.464V50.096C670.205 44.0373 671.058 37.7653 672.765 31.28C675.666 20.272 683.73 13.0613 696.957 9.64799C702.162 8.28266 710.866 7.6 723.069 7.6C734.759 7.6 744.103 9.69066 751.101 13.872C756.477 17.1147 760.317 20.528 762.621 24.112C765.351 28.2933 766.503 33.2853 766.077 39.088ZM724.093 51.632C728.359 48.9013 730.493 45.744 730.493 42.16C730.493 40.0267 729.725 37.808 728.189 35.504C724.775 30.2987 719.655 27.696 712.829 27.696C710.866 27.696 709.117 27.824 707.581 28.08C698.023 29.616 693.458 35.12 693.885 44.592C694.141 50.9067 699.346 54.2347 709.501 54.576C715.047 54.7467 718.589 54.4907 720.125 53.808L722.685 52.656C723.367 52.2293 723.837 51.888 724.093 51.632Z" fill="black"/>
<mask id="path-2-outside-1_95_265" maskUnits="userSpaceOnUse" x="3" y="0" width="764" height="137" fill="black">
<rect fill="white" x="3" width="764" height="137"/>
<path d="M17.9765 12.664C22.7552 8.48266 33.2938 5.79467 49.5925 4.6C58.6378 3.91733 69.0912 4.51466 80.9525 6.392C93.3258 8.35467 100.707 14.5413 103.097 24.952C104.206 29.816 104.761 33.912 104.761 37.24C104.761 41.592 103.907 45.2613 102.201 48.248C95.1178 60.4507 83.0432 66.6373 65.9765 66.808C63.4165 66.808 59.6618 66.6373 54.7125 66.296C49.7632 65.8693 46.0938 65.656 43.7045 65.656C42.7658 65.656 42.2965 65.9547 42.2965 66.552C42.2965 67.4907 43.2352 68.984 45.1125 71.032C51.4272 77.7733 56.6325 83.6187 60.7285 88.568C66.6165 95.5653 71.0538 100.771 74.0405 104.184C80.1845 111.693 83.2565 117.368 83.2565 121.208C83.2565 125.304 81.0378 128.419 76.6005 130.552C74.9792 131.32 73.3578 131.704 71.7365 131.704C66.4458 131.704 61.0698 128.803 55.6085 123C51.5978 118.648 48.0565 113.443 44.9845 107.384L29.4965 76.28C31.2885 93.8587 32.1418 104.483 32.0565 108.152C31.9712 114.723 31.9712 118.349 32.0565 119.032C32.0565 121.165 31.5445 123.469 30.5205 125.944C29.4965 128.419 28.0458 130.125 26.1685 131.064C24.8032 131.747 22.5418 132.259 19.3845 132.6C13.4112 133.283 10.4245 128.333 10.4245 117.752C10.0832 115.789 9.82717 113.443 9.6565 110.712C8.3765 90.5733 7.77917 73.5493 7.8645 59.64C7.94983 50.0827 8.07783 43.4693 8.2485 39.8C9.0165 25.6347 12.2592 16.5893 17.9765 12.664ZM59.4485 27.128C56.1205 25.592 52.8352 24.824 49.5925 24.824C46.2645 24.824 43.2352 25.72 40.5045 27.512C36.4938 30.072 34.4458 33.6987 34.3605 38.392C34.2752 44.536 37.5178 47.7787 44.0885 48.12C56.9738 48.8027 64.0992 45.9867 65.4645 39.672C66.7445 33.6987 64.7392 29.5173 59.4485 27.128ZM119.51 26.36C123.692 11.5973 136.748 4.216 158.679 4.216C161.409 4.216 164.268 4.344 167.255 4.6C172.887 5.02666 177.068 5.624 179.799 6.392C183.127 7.33066 186.54 9.25066 190.039 12.152C193.537 15.0533 195.927 18.0827 197.207 21.24C199.681 27.2133 201.132 32.9733 201.559 38.52C201.729 41.1653 202.156 45.5173 202.839 51.576C203.436 56.8667 203.735 61.3467 203.735 65.016C203.82 74.1467 202.54 88.2267 199.895 107.256C199.639 109.048 198.487 112.376 196.439 117.24C194.049 122.957 188.887 127.181 180.951 129.912C175.489 131.789 169.857 132.728 164.055 132.728C162.775 132.728 161.495 132.685 160.215 132.6C154.071 132.173 150.145 131.789 148.439 131.448C145.367 130.851 141.484 129.656 136.791 127.864C133.548 126.669 130.177 124.237 126.679 120.568C122.839 116.472 120.919 112.931 120.919 109.944L116.823 93.944C115.713 89.6773 115.073 83.32 114.903 74.872C114.817 68.3867 114.775 61.9013 114.775 55.416C114.689 47.48 116.268 37.7947 119.51 26.36ZM166.359 31.352C161.58 29.9867 156.545 29.9867 151.255 31.352C145.623 32.7173 142.039 39.7147 140.503 52.344C139.735 58.488 139.351 64.376 139.351 70.008C139.351 76.2373 139.863 82.68 140.887 89.336C142.764 101.368 147.116 108.024 153.943 109.304C155.82 109.645 157.697 109.816 159.575 109.816C163.841 109.816 167.383 108.792 170.199 106.744C174.209 103.843 176.94 94.8827 178.391 79.864C178.903 74.5733 179.159 69.7093 179.159 65.272C179.159 58.2747 178.391 51.8747 176.854 46.072C174.636 37.624 171.137 32.7173 166.359 31.352ZM267.701 4.6C283.829 6.05066 294.965 19.2773 301.109 44.28C302.474 49.7413 304.138 59.5547 306.101 73.72C307.637 84.728 308.405 94.7973 308.405 103.928C308.405 110.157 307.594 115.875 305.973 121.08C303.669 128.76 300.085 132.6 295.221 132.6C290.783 132.6 287.498 131.619 285.365 129.656C283.231 127.693 281.866 124.451 281.269 119.928C280.671 115.491 280.287 108.28 280.117 98.296C279.946 88.824 279.434 81.528 278.581 76.408C276.533 63.6933 273.247 57.2507 268.725 57.08C264.031 56.9093 260.405 57.2507 257.845 58.104C252.725 59.8107 249.567 64.0773 248.373 70.904C247.775 74.232 247.69 79.9493 248.117 88.056C248.714 100.515 249.311 109.176 249.909 114.04C250.079 115.405 250.165 116.557 250.165 117.496C250.165 127.736 245.941 132.856 237.493 132.856C236.639 132.856 235.53 132.771 234.165 132.6C227.338 131.747 222.858 127.864 220.725 120.952C219.359 116.6 218.933 110.2 219.445 101.752C220.213 88.5253 220.682 80.632 220.853 78.072C221.279 71.8427 222.858 61.816 225.589 47.992C227.978 35.96 230.367 26.9147 232.757 20.856C235.061 15.1387 239.114 10.872 244.917 8.05599C249.951 5.58133 255.839 4.34399 262.581 4.34399C264.117 4.34399 265.823 4.42933 267.701 4.6ZM273.845 34.168C274.015 33.5707 274.101 32.9307 274.101 32.248C274.101 26.616 270.517 23.544 263.349 23.032C258.741 22.6907 255.029 23.9707 252.213 26.872C250.335 28.7493 249.397 30.584 249.397 32.376C249.397 33.2293 249.695 34.168 250.293 35.192C251.658 37.496 253.663 38.904 256.309 39.416C257.162 39.5867 259.722 39.672 263.989 39.672C269.279 39.672 272.565 37.8373 273.845 34.168ZM421.952 36.088C421.61 40.7813 420.501 45.6027 418.624 50.552C414.784 60.536 407.573 66.6373 396.992 68.856C394.858 69.2827 389.824 69.88 381.888 70.648C378.304 70.9893 374.634 71.16 370.88 71.16C364.138 71.16 357.226 70.5627 350.144 69.368C350.826 88.6533 351.68 100.387 352.704 104.568C353.557 108.152 354.112 111.565 354.368 114.808C354.624 118.648 354.41 121.72 353.728 124.024C353.13 126.925 351.253 129.229 348.096 130.936C345.024 132.643 342.037 133.197 339.136 132.6C333.248 131.405 329.792 124.92 328.768 113.144C328.256 107.256 327.914 102.819 327.744 99.832C326.805 90.872 326.25 82.0827 326.08 73.464V47.096C326.08 41.0373 326.933 34.7653 328.64 28.28C331.541 17.272 339.605 10.0613 352.832 6.64799C358.037 5.28266 366.741 4.6 378.944 4.6C390.634 4.6 399.978 6.69066 406.976 10.872C412.352 14.1147 416.192 17.528 418.496 21.112C421.226 25.2933 422.378 30.2853 421.952 36.088ZM379.968 48.632C384.234 45.9013 386.368 42.744 386.368 39.16C386.368 37.0267 385.6 34.808 384.064 32.504C380.65 27.2987 375.53 24.696 368.704 24.696C366.741 24.696 364.992 24.824 363.456 25.08C353.898 26.616 349.333 32.12 349.76 41.592C350.016 47.9067 355.221 51.2347 365.376 51.576C370.922 51.7467 374.464 51.4907 376 50.808L378.56 49.656C379.242 49.2293 379.712 48.888 379.968 48.632ZM488.259 79.992C491.672 61.048 494.317 47.9493 496.195 40.696C501.059 21.24 506.179 10.2747 511.555 7.8C515.48 6.00799 519.107 5.11199 522.435 5.11199C528.579 5.11199 533.699 9.07999 537.795 17.016C541.123 23.416 543.128 34.3813 543.811 49.912C544.493 65.4427 544.963 77.0907 545.219 84.856C545.816 97.7413 545.987 107.171 545.731 113.144C545.304 124.664 541.891 130.424 535.491 130.424C533.955 130.424 532.205 129.912 530.243 128.888C525.891 126.669 522.861 121.805 521.155 114.296C520.472 111.224 519.747 105.208 518.979 96.248C518.637 91.7253 518.253 84.6853 517.827 75.128C517.571 69.1547 517.613 57.5493 517.955 40.312C515.139 50.04 512.963 61.0053 511.427 73.208C507.331 106.232 503.576 123.597 500.163 125.304C496.493 127.181 493.677 128.12 491.715 128.12C489.581 128.12 486.936 127.352 483.779 125.816C479.512 123.853 477.037 120.44 476.355 115.576C475.416 108.493 474.008 100.216 472.131 90.744C470.936 84.7707 469.229 76.5787 467.011 66.168C464.792 55.672 461.848 46.584 458.179 38.904C456.984 43.1707 456.941 52.5573 458.051 67.064C459.075 83.1067 459.843 95.5227 460.354 104.312C460.952 114.211 461.165 119.715 460.995 120.824C460.141 126.883 456.643 130.68 450.499 132.216C449.475 132.472 448.621 132.6 447.939 132.6C444.781 132.6 441.709 130.936 438.723 127.608C434.797 123.341 433.133 112.205 433.731 94.2C434.243 76.792 434.243 65.6133 433.731 60.664C433.219 56.1413 432.792 48.9307 432.451 39.032C432.109 30.2427 433.347 22.7333 436.163 16.504C439.747 8.568 445.592 4.6 453.699 4.6C455.235 4.6 457.027 4.77066 459.075 5.11199C468.973 6.73333 475.715 13.0053 479.299 23.928C483.992 38.3493 486.979 57.0373 488.259 79.992ZM607.826 4.6C623.954 6.05066 635.09 19.2773 641.234 44.28C642.599 49.7413 644.263 59.5547 646.226 73.72C647.762 84.728 648.53 94.7973 648.53 103.928C648.53 110.157 647.719 115.875 646.098 121.08C643.794 128.76 640.21 132.6 635.346 132.6C630.908 132.6 627.623 131.619 625.49 129.656C623.356 127.693 621.991 124.451 621.394 119.928C620.796 115.491 620.412 108.28 620.242 98.296C620.071 88.824 619.559 81.528 618.706 76.408C616.658 63.6933 613.372 57.2507 608.85 57.08C604.156 56.9093 600.53 57.2507 597.97 58.104C592.85 59.8107 589.692 64.0773 588.498 70.904C587.9 74.232 587.815 79.9493 588.242 88.056C588.839 100.515 589.436 109.176 590.034 114.04C590.204 115.405 590.29 116.557 590.29 117.496C590.29 127.736 586.066 132.856 577.618 132.856C576.764 132.856 575.655 132.771 574.29 132.6C567.463 131.747 562.983 127.864 560.85 120.952C559.484 116.6 559.058 110.2 559.57 101.752C560.338 88.5253 560.807 80.632 560.978 78.072C561.404 71.8427 562.983 61.816 565.714 47.992C568.103 35.96 570.492 26.9147 572.882 20.856C575.186 15.1387 579.239 10.872 585.042 8.05599C590.076 5.58133 595.964 4.34399 602.706 4.34399C604.242 4.34399 605.948 4.42933 607.826 4.6ZM613.97 34.168C614.14 33.5707 614.226 32.9307 614.226 32.248C614.226 26.616 610.642 23.544 603.474 23.032C598.866 22.6907 595.154 23.9707 592.338 26.872C590.46 28.7493 589.522 30.584 589.522 32.376C589.522 33.2293 589.82 34.168 590.418 35.192C591.783 37.496 593.788 38.904 596.434 39.416C597.287 39.5867 599.847 39.672 604.114 39.672C609.404 39.672 612.69 37.8373 613.97 34.168ZM762.077 36.088C761.735 40.7813 760.626 45.6027 758.749 50.552C754.909 60.536 747.698 66.6373 737.117 68.856C734.983 69.2827 729.949 69.88 722.013 70.648C718.429 70.9893 714.759 71.16 711.005 71.16C704.263 71.16 697.351 70.5627 690.269 69.368C690.951 88.6533 691.805 100.387 692.829 104.568C693.682 108.152 694.237 111.565 694.493 114.808C694.749 118.648 694.535 121.72 693.853 124.024C693.255 126.925 691.378 129.229 688.221 130.936C685.149 132.643 682.162 133.197 679.261 132.6C673.373 131.405 669.917 124.92 668.893 113.144C668.381 107.256 668.039 102.819 667.869 99.832C666.93 90.872 666.375 82.0827 666.205 73.464V47.096C666.205 41.0373 667.058 34.7653 668.765 28.28C671.666 17.272 679.73 10.0613 692.957 6.64799C698.162 5.28266 706.866 4.6 719.069 4.6C730.759 4.6 740.103 6.69066 747.101 10.872C752.477 14.1147 756.317 17.528 758.621 21.112C761.351 25.2933 762.503 30.2853 762.077 36.088ZM720.093 48.632C724.359 45.9013 726.493 42.744 726.493 39.16C726.493 37.0267 725.725 34.808 724.189 32.504C720.775 27.2987 715.655 24.696 708.829 24.696C706.866 24.696 705.117 24.824 703.581 25.08C694.023 26.616 689.458 32.12 689.885 41.592C690.141 47.9067 695.346 51.2347 705.501 51.576C711.047 51.7467 714.589 51.4907 716.125 50.808L718.685 49.656C719.367 49.2293 719.837 48.888 720.093 48.632Z"/>
</mask>
<path d="M17.9765 12.664L20.2405 15.9616L20.4339 15.8288L20.6105 15.6743L17.9765 12.664ZM49.5925 4.6L49.8849 8.58931L49.8935 8.58865L49.5925 4.6ZM80.9525 6.392L81.5792 2.44139L81.5778 2.44118L80.9525 6.392ZM103.097 24.952L106.996 24.0626L106.995 24.0572L103.097 24.952ZM102.201 48.248L105.66 50.256L105.667 50.2443L105.673 50.2326L102.201 48.248ZM65.9765 66.808V70.808H65.9965L66.0165 70.8078L65.9765 66.808ZM54.7125 66.296L54.3689 70.2812L54.4031 70.2842L54.4373 70.2865L54.7125 66.296ZM45.1125 71.032L42.1639 73.7349L42.1785 73.7508L42.1932 73.7665L45.1125 71.032ZM60.7285 88.568L57.6469 91.1183L57.6574 91.1309L57.6679 91.1434L60.7285 88.568ZM74.0405 104.184L77.1363 101.651L77.0944 101.6L77.0508 101.55L74.0405 104.184ZM76.6005 130.552L78.3128 134.167L78.3233 134.162L78.3337 134.157L76.6005 130.552ZM55.6085 123L52.6671 125.711L52.6813 125.726L52.6957 125.741L55.6085 123ZM44.9845 107.384L41.4039 109.167L41.4103 109.18L41.4169 109.193L44.9845 107.384ZM29.4965 76.28L33.0772 74.497L25.5171 76.6857L29.4965 76.28ZM32.0565 108.152L28.0576 108.059L28.0571 108.08L28.0568 108.1L32.0565 108.152ZM32.0565 119.032H36.0565V118.783L36.0256 118.536L32.0565 119.032ZM30.5205 125.944L34.2166 127.473V127.473L30.5205 125.944ZM26.1685 131.064L27.9574 134.642L26.1685 131.064ZM19.3845 132.6L18.9546 128.623L18.9424 128.624L18.9303 128.626L19.3845 132.6ZM10.4245 117.752H14.4245V117.407L14.3653 117.067L10.4245 117.752ZM9.6565 110.712L13.6487 110.462L13.6484 110.458L9.6565 110.712ZM7.8645 59.64L3.86464 59.6043L3.86458 59.6155L7.8645 59.64ZM8.2485 39.8L4.25437 39.5834L4.25353 39.5988L4.25282 39.6142L8.2485 39.8ZM59.4485 27.128L57.7723 30.7598L57.7872 30.7667L57.8022 30.7735L59.4485 27.128ZM40.5045 27.512L42.6566 30.8837L42.678 30.8701L42.6991 30.8562L40.5045 27.512ZM34.3605 38.392L30.3612 38.3193L30.361 38.3279L30.3609 38.3364L34.3605 38.392ZM44.0885 48.12L44.3001 44.1256L44.296 44.1254L44.0885 48.12ZM65.4645 39.672L69.3742 40.5173L69.3757 40.5101L65.4645 39.672ZM20.6105 15.6743C22.3023 14.194 25.416 12.6727 30.4531 11.3879C35.4112 10.1233 41.8661 9.17706 49.8849 8.5893L49.3001 0.610701C41.0203 1.2176 34.0565 2.21271 28.4759 3.63609C22.9744 5.03931 18.4293 6.95269 15.3425 9.65369L20.6105 15.6743ZM49.8935 8.58865C58.5487 7.93544 68.6799 8.49936 80.3272 10.3428L81.5778 2.44118C69.5024 0.529967 58.727 -0.100775 49.2915 0.611342L49.8935 8.58865ZM80.3259 10.3426C86.0074 11.2438 90.2073 13.062 93.1991 15.5696C96.1492 18.0423 98.1757 21.3929 99.1979 25.8468L106.995 24.0572C105.628 18.1004 102.769 13.1524 98.3379 9.43839C93.9484 5.7593 88.271 3.50285 81.5792 2.44139L80.3259 10.3426ZM99.1966 25.8414C100.269 30.543 100.761 34.3199 100.761 37.24H108.761C108.761 33.5041 108.143 29.089 106.996 24.0626L99.1966 25.8414ZM100.761 37.24C100.761 41.0774 100.009 44.0213 98.7275 46.2634L105.673 50.2326C107.806 46.5013 108.761 42.1066 108.761 37.24H100.761ZM98.741 46.24C92.5252 56.9493 81.9384 62.6482 65.9365 62.8082L66.0165 70.8078C84.148 70.6265 97.7105 63.9521 105.66 50.256L98.741 46.24ZM65.9765 62.808C63.5576 62.808 59.9133 62.6452 54.9877 62.3055L54.4373 70.2865C59.4103 70.6295 63.2754 70.808 65.9765 70.808V62.808ZM55.0561 62.3108C50.0867 61.8824 46.2749 61.656 43.7045 61.656V69.656C45.9128 69.656 49.4396 69.8563 54.3689 70.2812L55.0561 62.3108ZM43.7045 61.656C42.9397 61.656 41.6811 61.7544 40.501 62.5054C39.0141 63.4515 38.2965 65.0066 38.2965 66.552H46.2965C46.2965 66.9323 46.219 67.4601 45.9278 68.016C45.6302 68.5842 45.2081 68.9924 44.796 69.2546C44.0852 69.7069 43.5306 69.656 43.7045 69.656V61.656ZM38.2965 66.552C38.2965 68.1869 39.0422 69.595 39.614 70.5047C40.2629 71.5371 41.1436 72.6219 42.1639 73.7349L48.0611 68.3291C47.204 67.3941 46.6768 66.7082 46.387 66.2473C46.2448 66.021 46.203 65.9166 46.2042 65.9197C46.2065 65.9257 46.2275 65.9805 46.2489 66.0787C46.2702 66.1766 46.2965 66.3386 46.2965 66.552H38.2965ZM42.1932 73.7665C48.4738 80.4715 53.6202 86.2526 57.6469 91.1183L63.8101 86.0177C59.6448 80.9847 54.3805 75.0751 48.0318 68.2975L42.1932 73.7665ZM57.6679 91.1434C63.5594 98.1449 68.0171 103.374 71.0302 106.818L77.0508 101.55C74.0906 98.1669 69.6736 92.9857 63.7891 85.9926L57.6679 91.1434ZM70.9447 106.717C73.9279 110.363 76.0631 113.442 77.4349 115.976C78.8437 118.579 79.2565 120.261 79.2565 121.208H87.2565C87.2565 118.315 86.1333 115.24 84.4701 112.168C82.7699 109.027 80.2971 105.514 77.1363 101.651L70.9447 106.717ZM79.2565 121.208C79.2565 122.487 78.9262 123.465 78.3346 124.295C77.7137 125.167 76.648 126.091 74.8673 126.947L78.3337 134.157C80.9903 132.88 83.2526 131.18 84.8504 128.937C86.4775 126.653 87.2565 124.025 87.2565 121.208H79.2565ZM74.8882 126.937C73.7445 127.479 72.705 127.704 71.7365 127.704V135.704C74.0107 135.704 76.2139 135.161 78.3128 134.167L74.8882 126.937ZM71.7365 127.704C68.0029 127.704 63.6078 125.663 58.5213 120.259L52.6957 125.741C58.5319 131.942 64.8888 135.704 71.7365 135.704V127.704ZM58.5499 120.289C54.822 116.244 51.4818 111.353 48.5521 105.575L41.4169 109.193C44.6312 115.532 48.3736 121.052 52.6671 125.711L58.5499 120.289ZM48.5652 105.601L33.0772 74.497L25.9159 78.063L41.4039 109.167L48.5652 105.601ZM25.5171 76.6857C27.3217 94.3879 28.1356 104.703 28.0576 108.059L36.0554 108.245C36.148 104.262 35.2553 93.3295 33.4759 75.8743L25.5171 76.6857ZM28.0568 108.1C28.0141 111.391 27.9925 113.961 27.9925 115.8C27.9925 117.476 28.0056 118.874 28.0874 119.528L36.0256 118.536C36.0348 118.61 36.0192 118.469 36.0077 117.889C35.9978 117.388 35.9925 116.695 35.9925 115.8C35.9925 114.013 36.0136 111.483 36.0562 108.204L28.0568 108.1ZM28.0565 119.032C28.0565 120.525 27.6972 122.305 26.8244 124.415L34.2166 127.473C35.3918 124.633 36.0565 121.806 36.0565 119.032H28.0565ZM26.8244 124.415C26.0643 126.251 25.1789 127.087 24.3796 127.486L27.9574 134.642C30.9127 133.164 32.9287 130.586 34.2166 127.473L26.8244 124.415ZM24.3796 127.486C23.6917 127.83 22.0375 128.29 18.9546 128.623L19.8144 136.577C23.0462 136.227 25.9147 135.663 27.9574 134.642L24.3796 127.486ZM18.9303 128.626C18.0229 128.73 17.4971 128.594 17.1842 128.445C16.8822 128.301 16.4995 128.013 16.0893 127.333C15.171 125.812 14.4245 122.831 14.4245 117.752H6.4245C6.4245 123.254 7.17135 128.039 9.23975 131.467C10.3229 133.262 11.8068 134.745 13.7448 135.667C15.6719 136.585 17.7594 136.812 19.8387 136.574L18.9303 128.626ZM14.3653 117.067C14.0564 115.29 13.8134 113.097 13.6487 110.462L5.66429 110.962C5.84098 113.789 6.10995 116.289 6.48365 118.437L14.3653 117.067ZM13.6484 110.458C12.372 90.375 11.7799 73.45 11.8644 59.6645L3.86458 59.6155C3.77848 73.6486 4.38103 90.7717 5.66456 110.966L13.6484 110.458ZM11.8643 59.6757C11.9497 50.114 12.0774 43.5706 12.2442 39.9858L4.25282 39.6142C4.07822 43.3681 3.94995 50.0513 3.86466 59.6043L11.8643 59.6757ZM12.2426 40.0165C12.6146 33.1551 13.5774 27.771 15.0219 23.7418C16.4663 19.7127 18.2959 17.2967 20.2405 15.9616L15.7125 9.36639C11.9398 11.9566 9.28939 16.026 7.49114 21.0421C5.6929 26.0583 4.65036 32.2796 4.25437 39.5834L12.2426 40.0165ZM61.1247 23.4962C57.3399 21.7493 53.4851 20.824 49.5925 20.824V28.824C52.1852 28.824 54.9011 29.4347 57.7723 30.7598L61.1247 23.4962ZM49.5925 20.824C45.5003 20.824 41.7055 21.9394 38.3099 24.1678L42.6991 30.8562C44.7648 29.5006 47.0287 28.824 49.5925 28.824V20.824ZM38.3524 24.1403C33.2309 27.4093 30.4713 32.2644 30.3612 38.3193L38.3598 38.4647C38.4204 35.1329 39.7568 32.7346 42.6566 30.8837L38.3524 24.1403ZM30.3609 38.3364C30.3085 42.1082 31.2825 45.6428 33.9001 48.2604C36.4726 50.833 40.0331 51.9147 43.881 52.1146L44.296 44.1254C41.5732 43.9839 40.2271 43.2737 39.5569 42.6036C38.9319 41.9785 38.3272 40.8198 38.3601 38.4475L30.3609 38.3364ZM43.8769 52.1144C50.5524 52.4681 56.2238 51.9564 60.5667 50.24C65.1053 48.4463 68.3537 45.237 69.3742 40.5173L61.5548 38.8267C61.21 40.4217 60.213 41.7777 57.6263 42.8C54.8438 43.8996 50.5099 44.4546 44.3001 44.1256L43.8769 52.1144ZM69.3757 40.5101C70.1423 36.9325 70.0189 33.4367 68.5272 30.3263C67.0226 27.1891 64.3762 24.9644 61.0948 23.4825L57.8022 30.7735C59.8114 31.6809 60.813 32.7415 61.3138 33.7857C61.8274 34.8566 62.0667 36.4382 61.5533 38.8339L69.3757 40.5101ZM119.51 26.36L123.359 27.4513L123.359 27.4501L119.51 26.36ZM167.255 4.6L166.913 8.58539L166.933 8.58707L166.952 8.58857L167.255 4.6ZM179.798 6.392L180.884 2.5422L180.881 2.54139L179.798 6.392ZM190.039 12.152L192.592 9.07296L192.592 9.07296L190.039 12.152ZM197.207 21.24L193.5 22.7428L193.505 22.7569L193.511 22.771L197.207 21.24ZM201.559 38.52L205.55 38.2625L205.549 38.2378L205.547 38.2132L201.559 38.52ZM202.839 51.576L198.864 52.0239L198.864 52.0248L202.839 51.576ZM203.734 65.016H199.734V65.0347L199.735 65.0534L203.734 65.016ZM199.895 107.256L203.854 107.822L203.855 107.814L203.856 107.807L199.895 107.256ZM196.439 117.24L192.752 115.688L192.748 115.698L196.439 117.24ZM180.951 129.912L182.251 133.695L182.252 133.694L180.951 129.912ZM160.215 132.6L159.937 136.59L159.948 136.591L160.215 132.6ZM148.439 131.448L149.223 127.526L149.212 127.524L149.202 127.522L148.439 131.448ZM136.79 127.864L138.217 124.127L138.195 124.119L138.173 124.111L136.79 127.864ZM126.678 120.568L123.76 123.304L123.772 123.316L123.784 123.328L126.678 120.568ZM120.919 109.944H124.919V109.44L124.794 108.952L120.919 109.944ZM116.823 93.944L120.698 92.952L120.696 92.9447L120.694 92.9375L116.823 93.944ZM114.902 74.872L110.903 74.9246L110.903 74.9387L110.903 74.9528L114.902 74.872ZM114.774 55.416H118.774V55.3945L118.774 55.373L114.774 55.416ZM166.359 31.352L165.26 35.1981L166.359 31.352ZM151.255 31.352L152.197 35.2394L152.226 35.2325L152.254 35.2251L151.255 31.352ZM140.503 52.344L144.472 52.8401L144.473 52.8269L140.503 52.344ZM140.887 89.336L136.933 89.9442L136.934 89.9527L140.887 89.336ZM153.943 109.304L153.205 113.235L153.216 113.238L153.227 113.239L153.943 109.304ZM170.199 106.744L167.854 103.503L167.846 103.509L170.199 106.744ZM178.391 79.864L174.409 79.4787L174.409 79.4794L178.391 79.864ZM176.854 46.072L172.986 47.088L172.988 47.0956L176.854 46.072ZM123.359 27.4501C125.17 21.0564 128.82 16.3929 134.407 13.234C140.12 10.0042 148.105 8.216 158.678 8.216V0.215996C147.321 0.215996 137.813 2.11842 130.47 6.26996C123.001 10.4924 118.032 16.9009 115.662 25.2699L123.359 27.4501ZM158.678 8.216C161.285 8.216 164.029 8.33819 166.913 8.58539L167.596 0.614612C164.507 0.349802 161.534 0.215996 158.678 0.215996V8.216ZM166.952 8.58857C172.526 9.01079 176.382 9.58628 178.716 10.2426L180.881 2.54139C177.754 1.66172 173.247 1.04254 167.557 0.611428L166.952 8.58857ZM178.713 10.2418C181.362 10.9892 184.288 12.5794 187.485 15.231L192.592 9.07296C188.792 5.92195 184.891 3.67218 180.884 2.5422L178.713 10.2418ZM187.485 15.231C190.638 17.8458 192.537 20.3686 193.5 22.7428L200.913 19.7372C199.316 15.7968 196.436 12.2608 192.592 9.07296L187.485 15.231ZM193.511 22.771C195.85 28.4161 197.181 33.763 197.57 38.8268L205.547 38.2132C205.083 32.1836 203.513 26.0105 200.902 19.709L193.511 22.771ZM197.567 38.7775C197.744 41.5267 198.181 45.9616 198.864 52.0239L206.813 51.1281C206.131 45.073 205.714 40.804 205.55 38.2625L197.567 38.7775ZM198.864 52.0248C199.451 57.2264 199.734 61.5468 199.734 65.016H207.734C207.734 61.1465 207.421 56.5069 206.813 51.1272L198.864 52.0248ZM199.735 65.0534C199.817 73.8718 198.574 87.7069 195.933 106.705L203.856 107.807C206.506 88.7464 207.823 74.4215 207.734 64.9786L199.735 65.0534ZM195.935 106.69C195.763 107.89 194.831 110.751 192.752 115.688L200.125 118.792C202.142 114.001 203.514 110.206 203.854 107.822L195.935 106.69ZM192.748 115.698C190.939 120.025 186.906 123.633 179.649 126.13L182.252 133.694C190.867 130.73 197.159 125.889 200.129 118.782L192.748 115.698ZM179.65 126.129C174.609 127.862 169.417 128.728 164.055 128.728V136.728C170.297 136.728 176.369 135.717 182.251 133.695L179.65 126.129ZM164.055 128.728C162.863 128.728 161.672 128.688 160.481 128.609L159.948 136.591C161.317 136.682 162.686 136.728 164.055 136.728V128.728ZM160.492 128.61C154.273 128.178 150.627 127.806 149.223 127.526L147.654 135.37C149.664 135.772 153.867 136.169 159.937 136.59L160.492 128.61ZM149.202 127.522C146.45 126.986 142.808 125.88 138.217 124.127L135.364 131.601C140.16 133.432 144.283 134.715 147.675 135.374L149.202 127.522ZM138.173 124.111C135.708 123.202 132.832 121.225 129.573 117.808L123.784 123.328C127.522 127.249 131.387 130.136 135.408 131.617L138.173 124.111ZM129.597 117.832C125.91 113.899 124.919 111.331 124.919 109.944H116.919C116.919 114.53 119.767 119.045 123.76 123.304L129.597 117.832ZM124.794 108.952L120.698 92.952L112.947 94.936L117.043 110.936L124.794 108.952ZM120.694 92.9375C119.705 89.1352 119.071 83.1562 118.902 74.7912L110.903 74.9528C111.076 83.4838 111.721 90.2195 112.951 94.9505L120.694 92.9375ZM118.902 74.8194C118.817 68.3516 118.774 61.8838 118.774 55.416H110.774C110.774 61.9189 110.817 68.4218 110.903 74.9246L118.902 74.8194ZM118.774 55.373C118.695 47.96 120.174 38.6812 123.359 27.4513L115.662 25.2687C112.361 36.9082 110.684 46.9999 110.775 55.459L118.774 55.373ZM167.457 27.5059C161.927 25.9259 156.165 25.9538 150.255 27.4789L152.254 35.2251C156.926 34.0195 161.232 34.0474 165.26 35.1981L167.457 27.5059ZM150.312 27.4646C146 28.5099 142.906 31.6544 140.782 35.8005C138.684 39.897 137.326 45.3313 136.532 51.8611L144.473 52.8269C145.215 46.7273 146.417 42.3484 147.903 39.4475C149.363 36.5963 150.877 35.5594 152.197 35.2394L150.312 27.4646ZM136.533 51.8479C135.747 58.1404 135.35 64.1948 135.35 70.008H143.35C143.35 64.5572 143.722 58.8356 144.472 52.8401L136.533 51.8479ZM135.35 70.008C135.35 76.4566 135.881 83.103 136.933 89.9442L144.84 88.7278C143.844 82.257 143.35 76.0181 143.35 70.008H135.35ZM136.934 89.9527C138.856 102.268 143.659 111.446 153.205 113.235L154.68 105.373C150.572 104.602 146.672 100.468 144.839 88.7193L136.934 89.9527ZM153.227 113.239C155.337 113.623 157.453 113.816 159.574 113.816V105.816C157.941 105.816 156.303 105.668 154.658 105.369L153.227 113.239ZM159.574 113.816C164.493 113.816 168.91 112.627 172.551 109.979L167.846 103.509C165.855 104.957 163.19 105.816 159.574 105.816V113.816ZM172.543 109.985C175.653 107.735 177.656 103.688 179.081 99.0141C180.556 94.1734 181.635 87.8834 182.372 80.2486L174.409 79.4794C173.696 86.8633 172.684 92.5626 171.428 96.6819C170.122 100.968 168.754 102.852 167.854 103.503L172.543 109.985ZM182.372 80.2493C182.894 74.8547 183.159 69.8602 183.159 65.272H175.159C175.159 69.5585 174.911 74.292 174.409 79.4787L182.372 80.2493ZM183.159 65.272C183.159 57.9848 182.359 51.2349 180.721 45.0484L172.988 47.0956C174.422 52.5144 175.159 58.5646 175.159 65.272H183.159ZM180.723 45.056C178.42 36.2849 174.382 29.4844 167.457 27.5059L165.26 35.1981C167.892 35.9502 170.852 38.9631 172.986 47.088L180.723 45.056ZM267.701 4.6L267.338 8.58357L267.342 8.58391L267.701 4.6ZM301.109 44.28L297.224 45.2345L297.226 45.2423L297.228 45.2501L301.109 44.28ZM306.1 73.72L302.138 74.269L302.139 74.2728L306.1 73.72ZM305.973 121.08L302.153 119.89L302.147 119.911L302.141 119.931L305.973 121.08ZM285.365 129.656L282.656 132.6V132.6L285.365 129.656ZM281.268 119.928L285.234 119.404L285.233 119.394L281.268 119.928ZM280.117 98.296L284.116 98.2276L284.116 98.2239L280.117 98.296ZM278.581 76.408L274.631 77.0441L274.633 77.0548L274.635 77.0656L278.581 76.408ZM268.724 57.08L268.875 53.0828L268.87 53.0826L268.724 57.08ZM257.845 58.104L256.58 54.3093V54.3093L257.845 58.104ZM248.372 70.904L252.31 71.6107L252.311 71.6021L252.313 71.5935L248.372 70.904ZM248.117 88.056L252.112 87.8644L252.111 87.8551L252.111 87.8458L248.117 88.056ZM249.909 114.04L245.938 114.528L245.939 114.536L249.909 114.04ZM234.165 132.6L234.661 128.631L234.165 132.6ZM220.725 120.952L224.547 119.772L224.544 119.763L224.541 119.755L220.725 120.952ZM219.445 101.752L223.437 101.994L223.438 101.984L219.445 101.752ZM220.852 78.072L216.862 77.7987L216.861 77.8059L220.852 78.072ZM225.589 47.992L221.665 47.2129L221.664 47.2169L225.589 47.992ZM232.757 20.856L229.046 19.3609L229.041 19.3747L229.035 19.3885L232.757 20.856ZM244.917 8.05599L246.663 11.6546L246.672 11.6502L246.681 11.6458L244.917 8.05599ZM273.845 34.168L277.621 35.4855L277.659 35.3772L277.691 35.2669L273.845 34.168ZM263.349 23.032L263.053 27.0211L263.064 27.0218L263.349 23.032ZM252.212 26.872L255.041 29.7004L255.062 29.6793L255.083 29.6579L252.212 26.872ZM250.293 35.192L246.837 37.2075L246.844 37.2194L246.851 37.2312L250.293 35.192ZM256.309 39.416L257.093 35.4937L257.081 35.4912L257.069 35.4889L256.309 39.416ZM267.342 8.58391C280.839 9.79793 291.208 20.7539 297.224 45.2345L304.993 43.3255C298.721 17.8008 286.818 2.30339 268.059 0.616082L267.342 8.58391ZM297.228 45.2501C298.535 50.4779 300.174 60.0949 302.138 74.269L310.063 73.171C308.101 59.0144 306.413 49.0047 304.989 43.3099L297.228 45.2501ZM302.139 74.2728C303.655 85.1354 304.405 95.0169 304.405 103.928H312.405C312.405 94.5778 311.618 84.3206 310.062 73.1672L302.139 74.2728ZM304.405 103.928C304.405 109.81 303.639 115.121 302.153 119.89L309.792 122.27C311.549 116.629 312.405 110.504 312.405 103.928H304.405ZM302.141 119.931C301.081 123.463 299.841 125.695 298.632 126.991C297.529 128.173 296.449 128.6 295.221 128.6V136.6C298.856 136.6 302 135.107 304.481 132.449C306.856 129.905 308.56 126.377 309.804 122.229L302.141 119.931ZM295.221 128.6C291.271 128.6 289.16 127.713 288.073 126.712L282.656 132.6C285.835 135.525 290.295 136.6 295.221 136.6V128.6ZM288.073 126.712C286.928 125.659 285.775 123.501 285.234 119.404L277.303 120.452C277.956 125.4 279.534 129.728 282.656 132.6L288.073 126.712ZM285.233 119.394C284.669 115.207 284.286 108.197 284.116 98.2276L276.117 98.3644C276.288 108.363 276.673 115.775 277.304 120.462L285.233 119.394ZM284.116 98.2239C283.944 88.6876 283.428 81.1609 282.526 75.7504L274.635 77.0656C275.44 81.8951 275.948 88.9604 276.117 98.3681L284.116 98.2239ZM282.53 75.7719C281.483 69.2712 280.069 63.9977 278.144 60.2229C276.262 56.5322 273.318 53.2505 268.875 53.0828L268.574 61.0772C268.654 61.0802 269.614 61.1051 271.017 63.8571C272.377 66.5249 273.63 70.8301 274.631 77.0441L282.53 75.7719ZM268.87 53.0826C263.998 52.9055 259.811 53.2321 256.58 54.3093L259.109 61.8987C260.998 61.2692 264.064 60.9132 268.579 61.0774L268.87 53.0826ZM256.58 54.3093C249.656 56.6171 245.796 62.4207 244.432 70.2145L252.313 71.5935C253.338 65.734 255.793 63.0042 259.109 61.8987L256.58 54.3093ZM244.435 70.1973C243.748 74.0274 243.695 80.1603 244.122 88.2662L252.111 87.8458C251.684 79.7384 251.802 74.4366 252.31 71.6107L244.435 70.1973ZM244.121 88.2476C244.718 100.7 245.321 109.498 245.938 114.528L253.879 113.552C253.302 108.854 252.71 100.329 252.112 87.8644L244.121 88.2476ZM245.939 114.536C246.098 115.805 246.165 116.78 246.165 117.496H254.165C254.165 116.335 254.06 115.006 253.878 113.544L245.939 114.536ZM246.165 117.496C246.165 122.167 245.185 124.926 243.911 126.47C242.758 127.868 240.875 128.856 237.492 128.856V136.856C242.558 136.856 247.011 135.284 250.082 131.562C253.032 127.986 254.165 123.065 254.165 117.496H246.165ZM237.492 128.856C236.874 128.856 235.948 128.792 234.661 128.631L233.668 136.569C235.112 136.75 236.404 136.856 237.492 136.856V128.856ZM234.661 128.631C231.904 128.286 229.854 127.369 228.304 126.025C226.742 124.672 225.441 122.671 224.547 119.772L216.902 122.132C218.141 126.145 220.147 129.542 223.065 132.071C225.995 134.61 229.598 136.06 233.668 136.569L234.661 128.631ZM224.541 119.755C223.398 116.11 222.934 110.299 223.437 101.994L215.452 101.51C214.931 110.101 215.321 117.09 216.908 122.149L224.541 119.755ZM223.438 101.984C224.206 88.748 224.674 80.8765 224.844 78.3381L216.861 77.8059C216.689 80.3875 216.219 88.3027 215.451 101.52L223.438 101.984ZM224.843 78.3453C225.251 72.3897 226.785 62.5784 229.513 48.7671L221.664 47.2169C218.931 61.0536 217.307 71.2956 216.862 77.7987L224.843 78.3453ZM229.512 48.7711C231.888 36.8071 234.222 28.0429 236.478 22.3235L229.035 19.3885C226.512 25.7865 224.068 35.1129 221.665 47.2129L229.512 48.7711ZM236.467 22.3511C238.381 17.6 241.708 14.0594 246.663 11.6546L243.17 4.45737C236.52 7.68462 231.74 12.6773 229.046 19.3609L236.467 22.3511ZM246.681 11.6458C251.067 9.49006 256.329 8.34399 262.581 8.34399V0.343994C255.349 0.343994 248.836 1.67259 243.152 4.4662L246.681 11.6458ZM262.581 8.34399C263.972 8.34399 265.556 8.4215 267.338 8.58357L268.063 0.616426C266.091 0.437162 264.261 0.343994 262.581 0.343994V8.34399ZM277.691 35.2669C277.973 34.2788 278.1 33.266 278.1 32.248H270.1C270.1 32.5954 270.057 32.8625 269.998 33.0691L277.691 35.2669ZM278.1 32.248C278.1 28.5123 276.867 25.1267 274.016 22.683C271.312 20.3659 267.651 19.3291 263.633 19.0422L263.064 27.0218C266.214 27.2469 267.929 28.0021 268.809 28.757C269.542 29.3853 270.1 30.3517 270.1 32.248H278.1ZM263.644 19.0429C258.043 18.6281 253.107 20.2076 249.342 24.0861L255.083 29.6579C256.95 27.7337 259.438 26.7533 263.053 27.0211L263.644 19.0429ZM249.384 24.0436C247.115 26.3123 245.396 29.1054 245.396 32.376H253.396C253.396 32.0626 253.555 31.1863 255.041 29.7004L249.384 24.0436ZM245.396 32.376C245.396 34.1609 246.016 35.7988 246.837 37.2075L253.748 33.1765C253.375 32.5372 253.396 32.2978 253.396 32.376H245.396ZM246.851 37.2312C248.804 40.5256 251.788 42.6154 255.548 43.3431L257.069 35.4889C255.538 35.1926 254.512 34.4664 253.734 33.1528L246.851 37.2312ZM255.524 43.3383C256.325 43.4986 257.506 43.5648 258.735 43.6058C260.079 43.6506 261.836 43.672 263.988 43.672V35.672C261.875 35.672 260.218 35.6508 259.002 35.6102C258.393 35.5899 257.919 35.5656 257.568 35.5392C257.18 35.5101 257.058 35.4868 257.093 35.4937L255.524 43.3383ZM263.988 43.672C267.054 43.672 269.939 43.1465 272.371 41.7883C274.898 40.377 276.671 38.2109 277.621 35.4855L270.068 32.8505C269.738 33.7944 269.228 34.3803 268.47 34.8037C267.617 35.2801 266.213 35.672 263.988 35.672V43.672ZM421.952 36.088L417.962 35.7947L417.962 35.7979L421.952 36.088ZM418.624 50.552L422.357 51.9879L422.36 51.9793L422.363 51.9706L418.624 50.552ZM396.992 68.856L397.776 72.7783L397.794 72.7747L397.812 72.7709L396.992 68.856ZM381.888 70.648L382.267 74.63L382.273 74.6294L381.888 70.648ZM350.143 69.368L350.809 65.4237L345.973 64.608L346.146 69.5095L350.143 69.368ZM352.703 104.568L356.595 103.642L356.592 103.629L356.589 103.617L352.703 104.568ZM354.367 114.808L358.359 114.542L358.357 114.518L358.355 114.493L354.367 114.808ZM353.728 124.024L349.892 122.888L349.844 123.051L349.81 123.217L353.728 124.024ZM348.095 130.936L346.193 127.417L346.173 127.428L346.153 127.439L348.095 130.936ZM339.135 132.6L339.942 128.682L339.931 128.68L339.135 132.6ZM328.767 113.144L332.752 112.797L328.767 113.144ZM327.743 99.832L331.737 99.6038L331.732 99.5093L331.722 99.4152L327.743 99.832ZM326.079 73.464H322.079V73.5036L322.08 73.5432L326.079 73.464ZM328.639 28.28L324.772 27.2605L324.771 27.262L328.639 28.28ZM352.832 6.64799L353.831 10.5211L353.839 10.5191L353.846 10.5171L352.832 6.64799ZM406.975 10.872L409.041 7.44683L409.034 7.44257L409.027 7.43833L406.975 10.872ZM418.496 21.112L415.131 23.275L415.139 23.2871L415.146 23.2992L418.496 21.112ZM379.967 48.632L377.811 45.2629L377.446 45.4968L377.139 45.8036L379.967 48.632ZM384.064 32.504L380.719 34.6974L380.727 34.7101L380.735 34.7228L384.064 32.504ZM363.456 25.08L364.09 29.0293L364.102 29.0275L364.113 29.0256L363.456 25.08ZM349.759 41.592L353.756 41.43L353.756 41.421L353.755 41.412L349.759 41.592ZM365.375 51.576L365.241 55.5738L365.252 55.5741L365.375 51.576ZM376 50.808L377.624 54.4632L377.633 54.4595L377.641 54.4557L376 50.808ZM378.56 49.656L380.201 53.3037L380.449 53.1921L380.68 53.048L378.56 49.656ZM417.962 35.7979C417.652 40.0602 416.64 44.5016 414.884 49.1334L422.363 51.9706C424.361 46.7037 425.568 41.5025 425.941 36.3781L417.962 35.7979ZM414.89 49.1161C411.544 57.8167 405.441 62.9974 396.171 64.9411L397.812 72.7709C409.705 70.2772 418.023 63.2553 422.357 51.9879L414.89 49.1161ZM396.207 64.9337C394.314 65.3124 389.501 65.8925 381.502 66.6666L382.273 74.6294C390.146 73.8675 395.403 73.253 397.776 72.7783L396.207 64.9337ZM381.508 66.666C378.056 66.9948 374.513 67.16 370.88 67.16V75.16C374.755 75.16 378.551 74.9838 382.267 74.63L381.508 66.666ZM370.88 67.16C364.375 67.16 357.686 66.5837 350.809 65.4237L349.478 73.3123C356.766 74.5416 363.901 75.16 370.88 75.16V67.16ZM346.146 69.5095C346.488 79.1748 346.874 86.9849 347.306 92.9221C347.73 98.7556 348.215 103.056 348.818 105.519L356.589 103.617C356.168 101.899 355.714 98.2417 355.285 92.3419C354.863 86.5458 354.482 78.8465 354.141 69.2265L346.146 69.5095ZM348.812 105.494C349.624 108.903 350.142 112.111 350.38 115.123L358.355 114.493C358.081 111.02 357.49 107.401 356.595 103.642L348.812 105.494ZM350.376 115.074C350.617 118.691 350.384 121.228 349.892 122.888L357.563 125.16C358.436 122.212 358.63 118.605 358.359 114.542L350.376 115.074ZM349.81 123.217C349.501 124.717 348.553 126.142 346.193 127.417L349.998 134.455C353.953 132.317 356.759 129.134 357.645 124.831L349.81 123.217ZM346.153 127.439C343.754 128.772 341.738 129.052 339.942 128.682L338.329 136.518C342.336 137.343 346.293 136.513 350.038 134.433L346.153 127.439ZM339.931 128.68C338.417 128.373 336.962 127.406 335.658 124.959C334.291 122.394 333.243 118.437 332.752 112.797L324.783 113.491C325.316 119.627 326.508 124.801 328.597 128.721C330.749 132.759 333.966 135.633 338.34 136.52L339.931 128.68ZM332.752 112.797C332.241 106.919 331.904 102.529 331.737 99.6038L323.75 100.06C323.924 103.108 324.27 107.593 324.783 113.491L332.752 112.797ZM331.722 99.4152C330.794 90.5624 330.247 81.8858 330.079 73.3848L322.08 73.5432C322.253 82.2795 322.815 91.1816 323.765 100.249L331.722 99.4152ZM330.079 73.464V47.096H322.079V73.464H330.079ZM330.079 47.096C330.079 41.4153 330.879 35.486 332.508 29.298L324.771 27.262C322.986 34.0446 322.079 40.6594 322.079 47.096H330.079ZM332.507 29.2994C334.96 19.9954 341.674 13.6585 353.831 10.5211L351.832 2.77489C337.536 6.46415 328.122 14.5486 324.772 27.2605L332.507 29.2994ZM353.846 10.5171C358.511 9.29363 366.763 8.6 378.944 8.6V0.599998C366.719 0.599998 357.563 1.27169 351.817 2.77888L353.846 10.5171ZM378.944 8.6C390.208 8.6 398.759 10.6221 404.924 14.3057L409.027 7.43833C401.197 2.75925 391.06 0.599998 378.944 0.599998V8.6ZM404.91 14.2972C409.99 17.3617 413.277 20.3906 415.131 23.275L421.86 18.949C419.106 14.6654 414.713 10.8677 409.041 7.44683L404.91 14.2972ZM415.146 23.2992C417.321 26.6294 418.336 30.7165 417.962 35.7947L425.941 36.3813C426.421 29.8542 425.131 23.9573 421.845 18.9248L415.146 23.2992ZM382.124 52.0011C387.02 48.8672 390.367 44.6269 390.367 39.16H382.367C382.367 40.8611 381.448 42.9354 377.811 45.2629L382.124 52.0011ZM390.367 39.16C390.367 36.0325 389.237 33.0526 387.392 30.2852L380.735 34.7228C381.962 36.5634 382.367 38.0208 382.367 39.16H390.367ZM387.408 30.3106C383.175 23.8545 376.724 20.696 368.703 20.696V28.696C374.336 28.696 378.125 30.7428 380.719 34.6974L387.408 30.3106ZM368.703 20.696C366.574 20.696 364.599 20.8343 362.798 21.1344L364.113 29.0256C365.384 28.8137 366.907 28.696 368.703 28.696V20.696ZM362.821 21.1307C357.426 21.9977 352.876 24.0797 349.785 27.8063C346.684 31.5451 345.52 36.3729 345.764 41.772L353.755 41.412C353.572 37.3391 354.478 34.6789 355.942 32.9137C357.417 31.1363 359.927 29.6983 364.09 29.0293L362.821 21.1307ZM345.763 41.754C345.942 46.1818 347.967 49.8069 351.701 52.1941C355.181 54.4193 359.86 55.3928 365.241 55.5737L365.51 47.5783C360.737 47.4178 357.735 46.5567 356.01 45.4539C354.539 44.5131 353.833 43.3169 353.756 41.43L345.763 41.754ZM365.252 55.5741C368.096 55.6616 370.519 55.6434 372.48 55.5016C374.315 55.3689 376.18 55.1051 377.624 54.4632L374.375 47.1528C374.388 47.1471 374.216 47.2195 373.744 47.3067C373.297 47.3893 372.692 47.4654 371.903 47.5224C370.323 47.6366 368.202 47.6611 365.499 47.5779L365.252 55.5741ZM377.641 54.4557L380.201 53.3037L376.918 46.0083L374.358 47.1603L377.641 54.4557ZM380.68 53.048C381.385 52.6071 382.193 52.0633 382.796 51.4604L377.139 45.8036C377.188 45.7545 377.211 45.7368 377.193 45.7523C377.176 45.7658 377.138 45.7964 377.071 45.8451C376.934 45.9442 376.729 46.0829 376.44 46.264L380.68 53.048ZM488.259 79.992L484.265 80.2147L492.195 80.7013L488.259 79.992ZM496.195 40.696L500.067 41.6983L500.071 41.6822L500.075 41.6661L496.195 40.696ZM511.555 7.8L509.893 4.16123L509.882 4.16647L511.555 7.8ZM537.794 17.016L534.24 18.8506L534.246 18.8614L537.794 17.016ZM543.81 49.912L547.807 49.7363L543.81 49.912ZM545.219 84.856L541.221 84.9878L541.222 85.0145L541.223 85.0412L545.219 84.856ZM545.731 113.144L541.734 112.973L541.734 112.984L541.733 112.996L545.731 113.144ZM530.242 128.888L532.093 125.342L532.076 125.333L532.059 125.324L530.242 128.888ZM521.154 114.296L517.25 115.164L517.252 115.173L517.254 115.182L521.154 114.296ZM518.979 96.248L514.99 96.549L514.991 96.5693L514.993 96.5896L518.979 96.248ZM517.827 75.128L513.83 75.2993L513.831 75.3064L517.827 75.128ZM517.955 40.312L521.954 40.3912L514.112 39.1998L517.955 40.312ZM511.427 73.208L507.458 72.7084L507.457 72.7156L511.427 73.208ZM500.163 125.304L498.374 121.726L498.357 121.735L498.341 121.743L500.163 125.304ZM483.779 125.816L485.528 122.219L485.489 122.2L485.45 122.182L483.779 125.816ZM476.354 115.576L472.389 116.102L472.391 116.117L472.393 116.132L476.354 115.576ZM472.13 90.744L476.054 89.9663L476.053 89.9595L472.13 90.744ZM467.01 66.168L463.097 66.9952L463.098 67.0017L467.01 66.168ZM458.178 38.904L461.788 37.1796L457.198 27.5723L454.327 37.8255L458.178 38.904ZM458.051 67.064L462.042 66.8092L462.041 66.7841L462.039 66.759L458.051 67.064ZM460.354 104.312L456.361 104.545L456.362 104.553L460.354 104.312ZM460.995 120.824L457.041 120.216L457.037 120.241L457.034 120.266L460.995 120.824ZM450.499 132.216L451.469 136.097H451.469L450.499 132.216ZM438.723 127.608L441.699 124.936L441.683 124.918L441.666 124.9L438.723 127.608ZM433.73 94.2L437.728 94.3326L437.729 94.3251L437.729 94.3176L433.73 94.2ZM433.73 60.664L437.709 60.2524L437.707 60.2332L437.705 60.214L433.73 60.664ZM432.451 39.032L436.448 38.8941L436.448 38.8855L436.447 38.8768L432.451 39.032ZM436.163 16.504L439.807 18.1517L439.808 18.1503L436.163 16.504ZM459.074 5.11199L458.417 9.05758L458.428 9.05939L459.074 5.11199ZM479.298 23.928L483.102 22.6901L483.099 22.6809L479.298 23.928ZM492.195 80.7013C495.61 61.7501 498.232 48.7883 500.067 41.6983L492.322 39.6937C490.402 47.1104 487.734 60.3459 484.322 79.2827L492.195 80.7013ZM500.075 41.6661C502.48 32.0475 504.902 24.7218 507.307 19.5723C509.818 14.1953 511.933 12.0294 513.227 11.4335L509.882 4.16647C505.8 6.04528 502.667 10.5993 500.058 16.1877C497.343 22.0035 494.773 29.8884 492.314 39.7259L500.075 41.6661ZM513.216 11.4387C516.768 9.81705 519.823 9.11199 522.435 9.11199V1.11199C518.39 1.11199 514.192 2.19893 509.893 4.16124L513.216 11.4387ZM522.435 9.11199C526.447 9.11199 530.48 11.5662 534.24 18.8506L541.349 15.1814C536.917 6.59376 530.71 1.11199 522.435 1.11199V9.11199ZM534.246 18.8614C537.138 24.4242 539.134 34.6183 539.814 50.0877L547.807 49.7363C547.121 34.1444 545.107 22.4078 541.343 15.1706L534.246 18.8614ZM539.814 50.0877C540.497 65.6151 540.965 77.2452 541.221 84.9878L549.216 84.7242C548.96 76.9361 548.489 65.2703 547.807 49.7363L539.814 50.0877ZM541.223 85.0412C541.819 97.911 541.982 107.189 541.734 112.973L549.727 113.315C549.991 107.152 549.812 97.5717 549.214 84.6708L541.223 85.0412ZM541.733 112.996C541.529 118.508 540.612 122.035 539.409 124.065C538.382 125.798 537.2 126.424 535.49 126.424V134.424C540.181 134.424 543.905 132.17 546.292 128.143C548.502 124.413 549.505 119.3 549.728 113.292L541.733 112.996ZM535.49 126.424C534.82 126.424 533.719 126.19 532.093 125.342L528.392 132.434C530.691 133.634 533.089 134.424 535.49 134.424V126.424ZM532.059 125.324C529.25 123.892 526.65 120.427 525.055 113.41L517.254 115.182C519.073 123.184 522.531 129.446 528.426 132.452L532.059 125.324ZM525.059 113.428C524.443 110.657 523.735 104.901 522.964 95.9064L514.993 96.5896C515.758 105.515 516.5 111.791 517.25 115.164L525.059 113.428ZM522.967 95.947C522.631 91.4891 522.249 84.5004 521.823 74.9496L513.831 75.3064C514.257 84.8702 514.644 91.9616 514.99 96.549L522.967 95.947ZM521.823 74.9567C521.573 69.1282 521.612 57.6457 521.954 40.3912L513.955 40.2328C513.614 57.4529 513.568 69.1812 513.83 75.2993L521.823 74.9567ZM514.112 39.1998C511.227 49.1655 509.015 60.3408 507.458 72.7084L515.395 73.7076C516.91 61.6698 519.05 50.9145 521.797 41.4242L514.112 39.1998ZM507.457 72.7156C505.413 89.1922 503.468 101.649 501.629 110.155C500.706 114.423 499.837 117.566 499.042 119.681C498.643 120.743 498.308 121.422 498.063 121.816C497.764 122.296 497.815 122.006 498.374 121.726L501.951 128.882C503.363 128.176 504.278 126.97 504.854 126.044C505.484 125.032 506.034 123.817 506.531 122.495C507.528 119.842 508.494 116.26 509.448 111.845C511.364 102.986 513.344 90.2478 515.396 73.7004L507.457 72.7156ZM498.341 121.743C494.745 123.582 492.659 124.12 491.715 124.12V132.12C494.695 132.12 498.241 130.78 501.984 128.865L498.341 121.743ZM491.715 124.12C490.457 124.12 488.45 123.641 485.528 122.219L482.029 129.413C485.421 131.063 488.705 132.12 491.715 132.12V124.12ZM485.45 122.182C482.488 120.819 480.819 118.61 480.316 115.02L472.393 116.132C473.255 122.27 476.536 126.887 482.107 129.45L485.45 122.182ZM480.32 115.05C479.367 107.86 477.943 99.495 476.054 89.9663L468.207 91.5217C470.073 100.937 471.465 109.127 472.389 116.102L480.32 115.05ZM476.053 89.9595C474.853 83.962 473.143 75.7512 470.923 65.3343L463.098 67.0017C465.316 77.4061 467.018 85.5793 468.208 91.5285L476.053 89.9595ZM470.924 65.3408C468.656 54.611 465.624 45.2083 461.788 37.1796L454.569 40.6284C458.072 47.9597 460.928 56.7329 463.097 66.9952L470.924 65.3408ZM454.327 37.8255C453.575 40.5098 453.272 44.381 453.251 49.1258C453.229 53.9685 453.503 60.0596 454.062 67.369L462.039 66.759C461.488 59.5618 461.23 53.7061 461.25 49.1622C461.272 44.5203 461.587 41.5648 462.03 39.9825L454.327 37.8255ZM454.059 67.3188C455.082 83.359 455.85 95.7664 456.361 104.545L464.348 104.079C463.835 95.279 463.067 82.8543 462.042 66.8092L454.059 67.3188ZM456.362 104.553C456.66 109.492 456.861 113.31 456.966 116.019C457.018 117.376 457.046 118.429 457.051 119.194C457.056 120.07 457.027 120.305 457.041 120.216L464.948 121.432C465.047 120.789 465.055 119.919 465.05 119.142C465.045 118.254 465.014 117.104 464.96 115.709C464.851 112.914 464.647 109.03 464.347 104.071L456.362 104.553ZM457.034 120.266C456.699 122.643 455.892 124.308 454.789 125.506C453.677 126.712 452.016 127.714 449.528 128.335L451.469 136.097C455.125 135.182 458.285 133.517 460.672 130.926C463.068 128.326 464.437 125.063 464.955 121.382L457.034 120.266ZM449.528 128.335C448.669 128.55 448.167 128.6 447.939 128.6V136.6C449.075 136.6 450.28 136.394 451.469 136.097L449.528 128.335ZM447.939 128.6C446.326 128.6 444.252 127.781 441.699 124.936L435.746 130.28C439.166 134.091 443.236 136.6 447.939 136.6V128.6ZM441.666 124.9C440.555 123.692 439.294 120.868 438.487 115.465C437.705 110.235 437.434 103.219 437.728 94.3326L429.733 94.0674C429.43 103.187 429.692 110.741 430.574 116.647C431.431 122.38 432.964 127.257 435.779 130.316L441.666 124.9ZM437.729 94.3176C438.239 76.9844 438.254 65.519 437.709 60.2524L429.752 61.0756C430.231 65.7077 430.246 76.5996 429.732 94.0824L437.729 94.3176ZM437.705 60.214C437.212 55.8577 436.789 48.7802 436.448 38.8941L428.453 39.1698C428.795 49.0812 429.225 56.4249 429.756 61.114L437.705 60.214ZM436.447 38.8768C436.124 30.5356 437.31 23.6771 439.807 18.1517L432.518 14.8563C429.383 21.7895 428.095 29.9498 428.454 39.1872L436.447 38.8768ZM439.808 18.1503C441.367 14.6991 443.297 12.3681 445.481 10.8855C447.647 9.4153 450.325 8.6 453.698 8.6V0.599998C448.966 0.599998 444.667 1.7687 440.988 4.2665C437.327 6.75187 434.542 10.3729 432.517 14.8577L439.808 18.1503ZM453.698 8.6C454.953 8.6 456.516 8.74076 458.417 9.05757L459.732 1.16641C457.537 0.800569 455.516 0.599998 453.698 0.599998V8.6ZM458.428 9.05939C462.672 9.75452 466.088 11.4095 468.83 13.9605C471.597 16.5351 473.865 20.199 475.498 25.1751L483.099 22.6809C481.148 16.7343 478.253 11.8009 474.279 8.10346C470.28 4.38248 465.376 2.0908 459.721 1.16459L458.428 9.05939ZM475.495 25.1659C480.041 39.1359 482.995 57.4472 484.265 80.2147L492.252 79.7693C490.962 56.6275 487.942 37.5627 483.102 22.6901L475.495 25.1659ZM607.826 4.6L607.463 8.58357L607.467 8.58391L607.826 4.6ZM641.234 44.28L637.349 45.2345L637.351 45.2423L637.353 45.2501L641.234 44.28ZM646.226 73.72L642.263 74.269L642.264 74.2728L646.226 73.72ZM646.098 121.08L642.278 119.89L642.272 119.911L642.266 119.931L646.098 121.08ZM625.49 129.656L622.781 132.6V132.6L625.49 129.656ZM621.393 119.928L625.359 119.404L625.358 119.394L621.393 119.928ZM620.242 98.296L624.241 98.2276L624.241 98.2239L620.242 98.296ZM618.706 76.408L614.756 77.0441L614.758 77.0548L614.76 77.0656L618.706 76.408ZM608.849 57.08L609 53.0828L608.995 53.0826L608.849 57.08ZM597.969 58.104L596.705 54.3093V54.3093L597.969 58.104ZM588.497 70.904L592.435 71.6107L592.436 71.6021L592.438 71.5935L588.497 70.904ZM588.242 88.056L592.237 87.8644L592.236 87.8551L592.236 87.8458L588.242 88.056ZM590.034 114.04L586.063 114.528L586.064 114.536L590.034 114.04ZM574.289 132.6L574.786 128.631L574.289 132.6ZM560.849 120.952L564.672 119.772L564.669 119.763L564.666 119.755L560.849 120.952ZM559.57 101.752L563.562 101.994L563.563 101.984L559.57 101.752ZM560.977 78.072L556.987 77.7987L556.986 77.8059L560.977 78.072ZM565.714 47.992L561.79 47.2129L561.789 47.2169L565.714 47.992ZM572.881 20.856L569.171 19.3609L569.166 19.3747L569.16 19.3885L572.881 20.856ZM585.042 8.05599L586.788 11.6546L586.797 11.6502L586.806 11.6458L585.042 8.05599ZM613.969 34.168L617.746 35.4855L617.784 35.3772L617.816 35.2669L613.969 34.168ZM603.474 23.032L603.178 27.0211L603.189 27.0218L603.474 23.032ZM592.338 26.872L595.166 29.7004L595.187 29.6793L595.208 29.6579L592.338 26.872ZM590.417 35.192L586.962 37.2075L586.969 37.2194L586.976 37.2312L590.417 35.192ZM596.433 39.416L597.218 35.4937L597.206 35.4912L597.194 35.4889L596.433 39.416ZM607.467 8.58391C620.964 9.79793 631.333 20.7539 637.349 45.2345L645.118 43.3255C638.846 17.8008 626.943 2.30339 608.184 0.616082L607.467 8.58391ZM637.353 45.2501C638.66 50.4779 640.299 60.0949 642.263 74.269L650.188 73.171C648.226 59.0144 646.538 49.0047 645.114 43.3099L637.353 45.2501ZM642.264 74.2728C643.78 85.1354 644.529 95.0169 644.529 103.928H652.529C652.529 94.5778 651.743 84.3206 650.187 73.1672L642.264 74.2728ZM644.529 103.928C644.529 109.81 643.764 115.121 642.278 119.89L649.917 122.27C651.674 116.629 652.529 110.504 652.529 103.928H644.529ZM642.266 119.931C641.206 123.463 639.966 125.695 638.757 126.991C637.654 128.173 636.574 128.6 635.346 128.6V136.6C638.981 136.6 642.125 135.107 644.606 132.449C646.981 129.905 648.685 126.377 649.929 122.229L642.266 119.931ZM635.346 128.6C631.396 128.6 629.285 127.713 628.198 126.712L622.781 132.6C625.96 135.525 630.42 136.6 635.346 136.6V128.6ZM628.198 126.712C627.053 125.659 625.9 123.501 625.359 119.404L617.428 120.452C618.081 125.4 619.659 129.728 622.781 132.6L628.198 126.712ZM625.358 119.394C624.794 115.207 624.411 108.197 624.241 98.2276L616.242 98.3644C616.413 108.363 616.798 115.775 617.429 120.462L625.358 119.394ZM624.241 98.2239C624.069 88.6876 623.553 81.1609 622.651 75.7504L614.76 77.0656C615.565 81.8951 616.073 88.9604 616.242 98.3681L624.241 98.2239ZM622.655 75.7719C621.608 69.2712 620.194 63.9977 618.269 60.2229C616.387 56.5322 613.443 53.2505 609 53.0828L608.699 61.0772C608.779 61.0802 609.739 61.1051 611.142 63.8571C612.503 66.5249 613.755 70.8301 614.756 77.0441L622.655 75.7719ZM608.995 53.0826C604.123 52.9055 599.936 53.2321 596.705 54.3093L599.234 61.8987C601.123 61.2692 604.189 60.9132 608.704 61.0774L608.995 53.0826ZM596.705 54.3093C589.781 56.6171 585.921 62.4207 584.557 70.2145L592.438 71.5935C593.463 65.734 595.918 63.0042 599.234 61.8987L596.705 54.3093ZM584.56 70.1973C583.873 74.0274 583.82 80.1603 584.247 88.2662L592.236 87.8458C591.809 79.7384 591.927 74.4366 592.435 71.6107L584.56 70.1973ZM584.246 88.2476C584.843 100.7 585.446 109.498 586.063 114.528L594.004 113.552C593.427 108.854 592.835 100.329 592.237 87.8644L584.246 88.2476ZM586.064 114.536C586.223 115.805 586.289 116.78 586.289 117.496H594.289C594.289 116.335 594.185 115.006 594.003 113.544L586.064 114.536ZM586.289 117.496C586.289 122.167 585.31 124.926 584.036 126.47C582.883 127.868 581 128.856 577.617 128.856V136.856C582.683 136.856 587.136 135.284 590.207 131.562C593.157 127.986 594.289 123.065 594.289 117.496H586.289ZM577.617 128.856C576.999 128.856 576.073 128.792 574.786 128.631L573.793 136.569C575.237 136.75 576.529 136.856 577.617 136.856V128.856ZM574.786 128.631C572.029 128.286 569.979 127.369 568.429 126.025C566.867 124.672 565.566 122.671 564.672 119.772L557.027 122.132C558.266 126.145 560.272 129.542 563.19 132.071C566.12 134.61 569.723 136.06 573.793 136.569L574.786 128.631ZM564.666 119.755C563.523 116.11 563.059 110.299 563.562 101.994L555.577 101.51C555.056 110.101 555.446 117.09 557.033 122.149L564.666 119.755ZM563.563 101.984C564.331 88.748 564.799 80.8765 564.969 78.3381L556.986 77.8059C556.814 80.3875 556.344 88.3027 555.576 101.52L563.563 101.984ZM564.968 78.3453C565.376 72.3897 566.91 62.5784 569.638 48.7671L561.789 47.2169C559.056 61.0536 557.432 71.2956 556.987 77.7987L564.968 78.3453ZM569.637 48.7711C572.013 36.8071 574.347 28.0429 576.603 22.3235L569.16 19.3885C566.637 25.7865 564.193 35.1129 561.79 47.2129L569.637 48.7711ZM576.592 22.3511C578.506 17.6 581.833 14.0594 586.788 11.6546L583.295 4.45737C576.645 7.68462 571.865 12.6773 569.171 19.3609L576.592 22.3511ZM586.806 11.6458C591.192 9.49006 596.454 8.34399 602.706 8.34399V0.343994C595.474 0.343994 588.961 1.67259 583.277 4.4662L586.806 11.6458ZM602.706 8.34399C604.097 8.34399 605.681 8.4215 607.463 8.58357L608.188 0.616426C606.216 0.437162 604.386 0.343994 602.706 0.343994V8.34399ZM617.816 35.2669C618.098 34.2788 618.226 33.266 618.226 32.248H610.226C610.226 32.5954 610.182 32.8625 610.123 33.0691L617.816 35.2669ZM618.226 32.248C618.226 28.5123 616.992 25.1267 614.141 22.683C611.437 20.3659 607.776 19.3291 603.758 19.0422L603.189 27.0218C606.339 27.2469 608.054 28.0021 608.934 28.757C609.667 29.3853 610.226 30.3517 610.226 32.248H618.226ZM603.769 19.0429C598.168 18.6281 593.232 20.2076 589.467 24.0861L595.208 29.6579C597.075 27.7337 599.563 26.7533 603.178 27.0211L603.769 19.0429ZM589.509 24.0436C587.24 26.3123 585.521 29.1054 585.521 32.376H593.521C593.521 32.0626 593.68 31.1863 595.166 29.7004L589.509 24.0436ZM585.521 32.376C585.521 34.1609 586.141 35.7988 586.962 37.2075L593.873 33.1765C593.5 32.5372 593.521 32.2978 593.521 32.376H585.521ZM586.976 37.2312C588.929 40.5256 591.913 42.6154 595.673 43.3431L597.194 35.4889C595.663 35.1926 594.637 34.4664 593.859 33.1528L586.976 37.2312ZM595.649 43.3383C596.451 43.4986 597.631 43.5648 598.86 43.6058C600.204 43.6506 601.961 43.672 604.114 43.672V35.672C602 35.672 600.343 35.6508 599.127 35.6102C598.518 35.5899 598.044 35.5656 597.693 35.5392C597.305 35.5101 597.183 35.4868 597.218 35.4937L595.649 43.3383ZM604.114 43.672C607.179 43.672 610.064 43.1465 612.496 41.7883C615.023 40.377 616.796 38.2109 617.746 35.4855L610.193 32.8505C609.863 33.7944 609.353 34.3803 608.595 34.8037C607.742 35.2801 606.338 35.672 604.114 35.672V43.672ZM762.077 36.088L758.087 35.7947L758.087 35.7979L762.077 36.088ZM758.749 50.552L762.482 51.9879L762.485 51.9793L762.488 51.9706L758.749 50.552ZM737.117 68.856L737.901 72.7783L737.919 72.7747L737.937 72.7709L737.117 68.856ZM722.013 70.648L722.392 74.63L722.398 74.6294L722.013 70.648ZM690.268 69.368L690.934 65.4237L686.097 64.608L686.271 69.5095L690.268 69.368ZM692.828 104.568L696.72 103.642L696.717 103.629L696.714 103.617L692.828 104.568ZM694.492 114.808L698.484 114.542L698.482 114.518L698.48 114.493L694.492 114.808ZM693.852 124.024L690.017 122.888L689.969 123.051L689.935 123.217L693.852 124.024ZM688.221 130.936L686.318 127.417L686.298 127.428L686.278 127.439L688.221 130.936ZM679.26 132.6L680.067 128.682L680.056 128.68L679.26 132.6ZM668.893 113.144L672.877 112.797L668.893 113.144ZM667.869 99.832L671.862 99.6038L671.857 99.5093L671.847 99.4152L667.869 99.832ZM666.205 73.464H662.205V73.5036L662.205 73.5432L666.205 73.464ZM668.765 28.28L664.897 27.2605L664.896 27.262L668.765 28.28ZM692.956 6.64799L693.956 10.5211L693.964 10.5191L693.971 10.5171L692.956 6.64799ZM747.101 10.872L749.167 7.44683L749.159 7.44257L749.152 7.43833L747.101 10.872ZM758.62 21.112L755.256 23.275L755.264 23.2871L755.271 23.2992L758.62 21.112ZM720.093 48.632L717.936 45.2629L717.571 45.4968L717.264 45.8036L720.093 48.632ZM724.188 32.504L720.844 34.6974L720.852 34.7101L720.86 34.7228L724.188 32.504ZM703.581 25.08L704.215 29.0293L704.227 29.0275L704.238 29.0256L703.581 25.08ZM689.885 41.592L693.881 41.43L693.881 41.421L693.88 41.412L689.885 41.592ZM705.5 51.576L705.366 55.5738L705.378 55.5741L705.5 51.576ZM716.125 50.808L717.749 54.4632L717.758 54.4595L717.766 54.4557L716.125 50.808ZM718.685 49.656L720.326 53.3037L720.574 53.1921L720.805 53.048L718.685 49.656ZM758.087 35.7979C757.777 40.0602 756.765 44.5016 755.009 49.1334L762.488 51.9706C764.486 46.7037 765.693 41.5025 766.066 36.3781L758.087 35.7979ZM755.015 49.1161C751.669 57.8167 745.566 62.9974 736.296 64.9411L737.937 72.7709C749.83 70.2772 758.148 63.2553 762.482 51.9879L755.015 49.1161ZM736.332 64.9337C734.439 65.3124 729.626 65.8925 721.627 66.6666L722.398 74.6294C730.271 73.8675 735.528 73.253 737.901 72.7783L736.332 64.9337ZM721.633 66.666C718.181 66.9948 714.638 67.16 711.005 67.16V75.16C714.88 75.16 718.676 74.9838 722.392 74.63L721.633 66.666ZM711.005 67.16C704.5 67.16 697.811 66.5837 690.934 65.4237L689.603 73.3123C696.891 74.5416 704.026 75.16 711.005 75.16V67.16ZM686.271 69.5095C686.613 79.1748 686.999 86.9849 687.431 92.9221C687.855 98.7556 688.34 103.056 688.943 105.519L696.714 103.617C696.293 101.899 695.839 98.2417 695.41 92.3419C694.988 86.5458 694.607 78.8465 694.266 69.2265L686.271 69.5095ZM688.937 105.494C689.749 108.903 690.267 112.111 690.505 115.123L698.48 114.493C698.206 111.02 697.615 107.401 696.72 103.642L688.937 105.494ZM690.501 115.074C690.742 118.691 690.509 121.228 690.017 122.888L697.688 125.16C698.561 122.212 698.755 118.605 698.484 114.542L690.501 115.074ZM689.935 123.217C689.626 124.717 688.678 126.142 686.318 127.417L690.123 134.455C694.078 132.317 696.884 129.134 697.77 124.831L689.935 123.217ZM686.278 127.439C683.879 128.772 681.863 129.052 680.067 128.682L678.454 136.518C682.461 137.343 686.418 136.513 690.163 134.433L686.278 127.439ZM680.056 128.68C678.542 128.373 677.087 127.406 675.783 124.959C674.416 122.394 673.368 118.437 672.877 112.797L664.908 113.491C665.441 119.627 666.633 124.801 668.722 128.721C670.874 132.759 674.091 135.633 678.465 136.52L680.056 128.68ZM672.877 112.797C672.366 106.919 672.029 102.529 671.862 99.6038L663.875 100.06C664.049 103.108 664.395 107.593 664.908 113.491L672.877 112.797ZM671.847 99.4152C670.919 90.5624 670.372 81.8858 670.204 73.3848L662.205 73.5432C662.378 82.2795 662.94 91.1816 663.89 100.249L671.847 99.4152ZM670.205 73.464V47.096H662.205V73.464H670.205ZM670.205 47.096C670.205 41.4153 671.004 35.486 672.633 29.298L664.896 27.262C663.111 34.0446 662.205 40.6594 662.205 47.096H670.205ZM672.632 29.2994C675.085 19.9954 681.799 13.6585 693.956 10.5211L691.957 2.77489C677.661 6.46415 668.247 14.5486 664.897 27.2605L672.632 29.2994ZM693.971 10.5171C698.636 9.29363 706.888 8.6 719.068 8.6V0.599998C706.844 0.599998 697.688 1.27169 691.942 2.77888L693.971 10.5171ZM719.068 8.6C730.333 8.6 738.884 10.6221 745.049 14.3057L749.152 7.43833C741.322 2.75925 731.185 0.599998 719.068 0.599998V8.6ZM745.035 14.2972C750.115 17.3617 753.402 20.3906 755.256 23.275L761.985 18.949C759.231 14.6654 754.838 10.8677 749.167 7.44683L745.035 14.2972ZM755.271 23.2992C757.446 26.6294 758.461 30.7165 758.087 35.7947L766.066 36.3813C766.546 29.8542 765.256 23.9573 761.97 18.9248L755.271 23.2992ZM722.249 52.0011C727.145 48.8672 730.492 44.6269 730.492 39.16H722.492C722.492 40.8611 721.573 42.9354 717.936 45.2629L722.249 52.0011ZM730.492 39.16C730.492 36.0325 729.362 33.0526 727.517 30.2852L720.86 34.7228C722.087 36.5634 722.492 38.0208 722.492 39.16H730.492ZM727.534 30.3106C723.3 23.8545 716.849 20.696 708.828 20.696V28.696C714.461 28.696 718.25 30.7428 720.844 34.6974L727.534 30.3106ZM708.828 20.696C706.699 20.696 704.724 20.8343 702.923 21.1344L704.238 29.0256C705.509 28.8137 707.032 28.696 708.828 28.696V20.696ZM702.946 21.1307C697.551 21.9977 693.001 24.0797 689.91 27.8063C686.809 31.5451 685.645 36.3729 685.889 41.772L693.88 41.412C693.697 37.3391 694.603 34.6789 696.067 32.9137C697.542 31.1363 700.052 29.6983 704.215 29.0293L702.946 21.1307ZM685.888 41.754C686.067 46.1818 688.092 49.8069 691.826 52.1941C695.306 54.4193 699.985 55.3928 705.366 55.5737L705.635 47.5783C700.862 47.4178 697.86 46.5567 696.135 45.4539C694.664 44.5131 693.958 43.3169 693.881 41.43L685.888 41.754ZM705.378 55.5741C708.221 55.6616 710.644 55.6434 712.605 55.5016C714.44 55.3689 716.305 55.1051 717.749 54.4632L714.5 47.1528C714.513 47.1471 714.341 47.2195 713.869 47.3067C713.422 47.3893 712.817 47.4654 712.028 47.5224C710.448 47.6366 708.327 47.6611 705.624 47.5779L705.378 55.5741ZM717.766 54.4557L720.326 53.3037L717.043 46.0083L714.483 47.1603L717.766 54.4557ZM720.805 53.048C721.51 52.6071 722.318 52.0633 722.921 51.4604L717.264 45.8036C717.313 45.7545 717.336 45.7368 717.318 45.7523C717.301 45.7658 717.263 45.7964 717.196 45.8451C717.059 45.9442 716.854 46.0829 716.565 46.264L720.805 53.048Z" fill="black" mask="url(#path-2-outside-1_95_265)"/>
</svg>
