<svg width="1101" height="26" viewBox="0 0 1101 26" fill="none" xmlns="http://www.w3.org/2000/svg">
<path d="M238.224 8.432C238.48 5.344 239.88 3.136 242.424 1.808C243.72 1.136 245.048 0.8 246.408 0.8C246.824 0.8 247.224 0.823999 247.608 0.871999C249.4 1.096 250.712 1.536 251.544 2.192C253.608 3.824 254.584 6.336 254.472 9.728C254.424 11.328 253.984 12.984 253.152 14.696C252.272 16.504 251.2 17.84 249.936 18.704C249.264 19.168 248.072 19.856 246.36 20.768C246.84 20.608 247.504 20.552 248.352 20.6C249.856 20.664 250.744 20.752 251.016 20.864C251.672 21.136 252.064 21.84 252.192 22.976C252.32 24.128 251.456 24.736 249.6 24.8C248.144 24.848 246.512 24.84 244.704 24.776C242.032 24.664 240.56 24.416 240.288 24.032C239.936 23.52 239.76 22.896 239.76 22.16C239.76 21.952 239.776 21.728 239.808 21.488C239.952 20.416 240.384 19.568 241.104 18.944C241.552 18.56 242.416 18.088 243.696 17.528C246.848 16.136 248.632 14.384 249.048 12.272C249.272 11.184 249.352 9.864 249.288 8.312C249.208 5.992 248.152 4.832 246.12 4.832C245.8 4.832 245.504 4.856 245.232 4.904C243.696 5.176 242.88 6.656 242.784 9.344C242.768 10.048 242.768 10.456 242.784 10.568C242.784 11.08 242.632 11.536 242.328 11.936C241.992 12.384 241.576 12.616 241.08 12.632C240.472 12.648 239.984 12.536 239.616 12.296C238.528 11.592 238.064 10.304 238.224 8.432ZM258.56 3.152C259.68 1.664 261.008 0.88 262.544 0.8C264.512 0.687999 266.024 1.072 267.08 1.952C267.944 2.672 268.776 4.048 269.576 6.08C270.248 7.792 270.584 9.896 270.584 12.392C270.584 13.592 270.512 14.848 270.368 16.16C269.904 20.384 268.816 22.944 267.104 23.84C265.872 24.48 264.712 24.8 263.624 24.8C263.192 24.8 262.784 24.752 262.4 24.656C260.592 24.192 259.224 23.136 258.296 21.488C257.576 20.208 257.08 18.488 256.808 16.328C256.584 14.584 256.472 12.904 256.472 11.288C256.472 7.704 257.168 4.992 258.56 3.152ZM260.36 11.96C260.488 17.528 261.52 20.376 263.456 20.504C264.576 20.584 265.392 19.872 265.904 18.368C266.272 17.328 266.456 16.144 266.456 14.816C266.456 13.52 266.312 11.976 266.024 10.184C265.64 7.896 265.128 6.512 264.488 6.032C264.088 5.728 263.36 5.632 262.304 5.744C260.928 6.4 260.28 8.472 260.36 11.96ZM272.372 8.432C272.628 5.344 274.028 3.136 276.572 1.808C277.868 1.136 279.196 0.8 280.556 0.8C280.972 0.8 281.372 0.823999 281.756 0.871999C283.548 1.096 284.86 1.536 285.692 2.192C287.756 3.824 288.732 6.336 288.62 9.728C288.572 11.328 288.132 12.984 287.3 14.696C286.42 16.504 285.348 17.84 284.084 18.704C283.412 19.168 282.22 19.856 280.508 20.768C280.988 20.608 281.652 20.552 282.5 20.6C284.004 20.664 284.892 20.752 285.164 20.864C285.82 21.136 286.212 21.84 286.34 22.976C286.468 24.128 285.604 24.736 283.748 24.8C282.292 24.848 280.66 24.84 278.852 24.776C276.18 24.664 274.708 24.416 274.436 24.032C274.084 23.52 273.908 22.896 273.908 22.16C273.908 21.952 273.924 21.728 273.956 21.488C274.1 20.416 274.532 19.568 275.252 18.944C275.7 18.56 276.564 18.088 277.844 17.528C280.996 16.136 282.78 14.384 283.196 12.272C283.42 11.184 283.5 9.864 283.436 8.312C283.356 5.992 282.3 4.832 280.268 4.832C279.948 4.832 279.652 4.856 279.38 4.904C277.844 5.176 277.028 6.656 276.932 9.344C276.916 10.048 276.916 10.456 276.932 10.568C276.932 11.08 276.78 11.536 276.476 11.936C276.14 12.384 275.724 12.616 275.228 12.632C274.62 12.648 274.132 12.536 273.764 12.296C272.676 11.592 272.212 10.304 272.372 8.432ZM295.42 10.76C295.42 10.76 295.42 11.76 295.42 13.76V14.168C295.996 14.248 296.46 14.304 296.812 14.336C297.788 14.416 298.396 14.416 298.636 14.336C298.732 12.416 298.7 9.776 298.54 6.416C298.38 3.184 299.06 1.48 300.58 1.304C302.116 1.112 302.908 2.136 302.956 4.376C302.972 5.24 302.9 6.888 302.74 9.32C302.596 11.432 302.588 13.072 302.716 14.24C303.468 14.272 304.436 14.256 305.62 14.192C306.596 14.144 307.596 14.176 308.62 14.288C309.292 14.368 309.628 14.816 309.628 15.632C309.628 15.936 309.588 16.272 309.508 16.64C309.284 17.664 308.708 18.296 307.78 18.536C307.3 18.664 306.412 18.688 305.116 18.608C303.98 18.528 303.236 18.608 302.884 18.848C302.548 19.072 302.38 19.776 302.38 20.96C302.38 21.424 302.388 21.792 302.404 22.064C302.452 22.864 302.388 23.48 302.212 23.912C301.956 24.536 301.468 24.832 300.748 24.8C299.596 24.752 298.996 24.232 298.948 23.24L298.732 18.944C297.58 19.072 296.148 19.048 294.436 18.872C293.284 18.76 292.452 18.52 291.94 18.152C291.3 17.704 290.932 16.968 290.836 15.944L290.86 12.824C290.876 10.6 290.796 8.184 290.62 5.576C290.588 5.096 290.572 4.656 290.572 4.256C290.572 2.736 290.796 1.792 291.244 1.424C291.804 0.959999 292.436 0.751999 293.14 0.8C294.26 0.88 294.98 1.568 295.3 2.864C295.46 3.472 295.54 4.568 295.54 6.152C295.54 7.912 295.5 9.448 295.42 10.76ZM328.538 0.8C331.562 1.072 333.65 3.552 334.802 8.24C335.058 9.264 335.37 11.104 335.738 13.76C336.026 15.824 336.17 17.712 336.17 19.424C336.17 20.592 336.018 21.664 335.714 22.64C335.282 24.08 334.61 24.8 333.698 24.8C332.866 24.8 332.25 24.616 331.85 24.248C331.45 23.88 331.194 23.272 331.082 22.424C330.97 21.592 330.898 20.24 330.866 18.368C330.834 16.592 330.738 15.224 330.578 14.264C330.194 11.88 329.578 10.672 328.73 10.64C327.85 10.608 327.17 10.672 326.69 10.832C325.73 11.152 325.138 11.952 324.914 13.232C324.802 13.856 324.786 14.928 324.866 16.448C324.978 18.784 325.09 20.408 325.202 21.32C325.234 21.576 325.25 21.792 325.25 21.968C325.25 23.888 324.458 24.848 322.874 24.848C322.714 24.848 322.506 24.832 322.25 24.8C320.97 24.64 320.13 23.912 319.73 22.616C319.474 21.8 319.394 20.6 319.49 19.016C319.634 16.536 319.722 15.056 319.754 14.576C319.834 13.408 320.13 11.528 320.642 8.936C321.09 6.68 321.538 4.984 321.986 3.848C322.418 2.776 323.178 1.976 324.266 1.448C325.21 0.983999 326.314 0.751999 327.578 0.751999C327.866 0.751999 328.186 0.767999 328.538 0.8ZM329.69 6.344C329.722 6.232 329.738 6.112 329.738 5.984C329.738 4.928 329.066 4.352 327.722 4.256C326.858 4.192 326.162 4.432 325.634 4.976C325.282 5.328 325.106 5.672 325.106 6.008C325.106 6.168 325.162 6.344 325.274 6.536C325.53 6.968 325.906 7.232 326.402 7.328C326.562 7.36 327.042 7.376 327.842 7.376C328.834 7.376 329.45 7.032 329.69 6.344ZM340.996 0.8C342.452 0.527999 343.46 0.855999 344.02 1.784C344.292 2.232 344.484 2.8 344.596 3.488C344.708 4.176 344.724 4.792 344.644 5.336C344.436 6.84 344.292 7.888 344.212 8.48C343.94 9.952 343.78 11.28 343.732 12.464C343.7 13.344 343.676 13.976 343.66 14.36C343.548 16.92 343.732 18.4 344.212 18.8C344.884 19.36 345.852 19.64 347.116 19.64C347.916 19.528 348.516 19.448 348.916 19.4C349.78 19.4 350.58 19.368 351.316 19.304C352.196 19.224 352.948 19.304 353.572 19.544C354.42 19.848 354.844 20.392 354.844 21.176C354.844 22.76 354.428 23.736 353.596 24.104C353.308 24.232 352.588 24.36 351.436 24.488C349.58 24.696 347.932 24.8 346.492 24.8C345.884 24.8 345.212 24.728 344.476 24.584C342.796 24.264 341.628 23.872 340.972 23.408C340.572 23.12 340.212 22.656 339.892 22.016C339.604 21.424 339.436 20.864 339.388 20.336C339.308 19.552 339.252 19 339.22 18.68C339.06 17.08 338.956 15.976 338.908 15.368C338.716 13.528 338.604 12.032 338.572 10.88C338.524 8.816 338.492 7.552 338.476 7.088C338.444 6.032 338.42 5.288 338.404 4.856C338.34 3.032 338.668 1.864 339.388 1.352C339.708 1.064 340.116 0.903999 340.612 0.871999C340.82 0.823999 340.948 0.8 340.996 0.8ZM360.074 0.8C361.53 0.527999 362.538 0.855999 363.098 1.784C363.37 2.232 363.562 2.8 363.674 3.488C363.786 4.176 363.802 4.792 363.722 5.336C363.514 6.84 363.37 7.888 363.29 8.48C363.018 9.952 362.858 11.28 362.81 12.464C362.778 13.344 362.754 13.976 362.738 14.36C362.626 16.92 362.81 18.4 363.29 18.8C363.962 19.36 364.93 19.64 366.194 19.64C366.994 19.528 367.594 19.448 367.994 19.4C368.858 19.4 369.658 19.368 370.394 19.304C371.274 19.224 372.026 19.304 372.65 19.544C373.498 19.848 373.922 20.392 373.922 21.176C373.922 22.76 373.506 23.736 372.674 24.104C372.386 24.232 371.666 24.36 370.514 24.488C368.658 24.696 367.01 24.8 365.57 24.8C364.962 24.8 364.29 24.728 363.554 24.584C361.874 24.264 360.706 23.872 360.05 23.408C359.65 23.12 359.29 22.656 358.97 22.016C358.682 21.424 358.514 20.864 358.466 20.336C358.386 19.552 358.33 19 358.298 18.68C358.138 17.08 358.034 15.976 357.986 15.368C357.794 13.528 357.682 12.032 357.65 10.88C357.602 8.816 357.57 7.552 357.554 7.088C357.522 6.032 357.498 5.288 357.482 4.856C357.418 3.032 357.746 1.864 358.466 1.352C358.786 1.064 359.194 0.903999 359.69 0.871999C359.898 0.823999 360.026 0.8 360.074 0.8ZM386.925 2.312C387.821 1.528 389.797 1.024 392.853 0.8C394.549 0.671999 396.509 0.783999 398.733 1.136C401.053 1.504 402.437 2.664 402.885 4.616C403.093 5.528 403.197 6.296 403.197 6.92C403.197 7.736 403.037 8.424 402.717 8.984C401.389 11.272 399.125 12.432 395.925 12.464C395.445 12.464 394.741 12.432 393.813 12.368C392.885 12.288 392.197 12.248 391.749 12.248C391.573 12.248 391.485 12.304 391.485 12.416C391.485 12.592 391.661 12.872 392.013 13.256C393.197 14.52 394.173 15.616 394.941 16.544C396.045 17.856 396.877 18.832 397.437 19.472C398.589 20.88 399.165 21.944 399.165 22.664C399.165 23.432 398.749 24.016 397.917 24.416C397.613 24.56 397.309 24.632 397.005 24.632C396.013 24.632 395.005 24.088 393.981 23C393.229 22.184 392.565 21.208 391.989 20.072L389.085 14.24C389.421 17.536 389.581 19.528 389.565 20.216C389.549 21.448 389.549 22.128 389.565 22.256C389.565 22.656 389.469 23.088 389.277 23.552C389.085 24.016 388.813 24.336 388.461 24.512C388.205 24.64 387.781 24.736 387.189 24.8C386.069 24.928 385.509 24 385.509 22.016C385.445 21.648 385.397 21.208 385.365 20.696C385.125 16.92 385.013 13.728 385.029 11.12C385.045 9.328 385.069 8.088 385.101 7.4C385.245 4.744 385.853 3.048 386.925 2.312ZM394.701 5.024C394.077 4.736 393.461 4.592 392.853 4.592C392.229 4.592 391.661 4.76 391.149 5.096C390.397 5.576 390.013 6.256 389.997 7.136C389.981 8.288 390.589 8.896 391.821 8.96C394.237 9.088 395.573 8.56 395.829 7.376C396.069 6.256 395.693 5.472 394.701 5.024ZM414.387 1.16C415.971 1.608 416.883 2.224 417.123 3.008C417.235 3.376 417.291 3.736 417.291 4.088C417.291 4.52 417.203 4.92 417.027 5.288C416.675 6.04 416.259 6.544 415.779 6.8C415.459 6.976 415.019 7.064 414.459 7.064C414.155 7.064 413.811 7.04 413.427 6.992C413.507 7.888 413.547 8.84 413.547 9.848C413.547 10.648 413.619 12.032 413.763 14C413.891 15.824 413.939 17.2 413.907 18.128C413.891 18.544 413.891 18.856 413.907 19.064C413.923 19.592 414.011 19.832 414.171 19.784C416.251 19.528 417.443 20.032 417.747 21.296C417.795 21.504 417.819 21.704 417.819 21.896C417.819 22.856 417.299 23.592 416.259 24.104C415.507 24.488 414.571 24.72 413.451 24.8C411.755 24.928 410.475 24.896 409.611 24.704C408.443 24.448 407.603 24.112 407.091 23.696C406.371 23.136 406.051 22.328 406.131 21.272C406.243 19.832 406.947 19.112 408.243 19.112C408.483 19.112 408.731 19.144 408.987 19.208C409.019 19.208 409.235 19.248 409.635 19.328C409.699 18.592 409.699 17.52 409.635 16.112C409.571 14.528 409.547 13.448 409.563 12.872C409.595 12.12 409.579 11.136 409.515 9.92C409.451 8.592 409.419 7.608 409.419 6.968C407.835 6.776 406.955 6.664 406.779 6.632C406.443 6.536 406.139 6.288 405.867 5.888C405.547 5.424 405.395 4.592 405.411 3.392C405.427 2.224 406.523 1.448 408.699 1.064C409.707 0.888 410.651 0.8 411.531 0.8C412.571 0.8 413.523 0.92 414.387 1.16ZM439.598 8.096C439.598 9.648 439.206 10.568 438.422 10.856C437.766 11.096 437.214 11.224 436.766 11.24C436.238 11.256 435.71 11.144 435.182 10.904C434.67 10.648 434.31 10.4 434.102 10.16C433.894 9.904 433.742 9.52 433.646 9.008C433.502 8.288 433.422 7.896 433.406 7.832C432.574 6.296 431.286 5.528 429.542 5.528C429.35 5.528 429.142 5.536 428.918 5.552C427.062 5.728 425.798 6.624 425.126 8.24C424.454 9.856 424.214 12.288 424.406 15.536C424.47 16.656 424.758 17.736 425.27 18.776C425.942 20.2 427.654 20.912 430.406 20.912C431.462 20.816 431.99 20.768 431.99 20.768C432.63 20.688 433.086 20.464 433.358 20.096C433.63 19.728 433.782 19.344 433.814 18.944C433.878 18.576 433.806 18.024 433.598 17.288C433.486 16.904 433.166 16.712 432.638 16.712C432.158 16.712 431.494 16.872 430.646 17.192C430.054 17.416 429.55 17.528 429.134 17.528C428.254 17.528 427.71 17.024 427.502 16.016C427.374 15.392 427.31 14.872 427.31 14.456C427.31 13.912 427.422 13.56 427.646 13.4C428.03 13.128 428.55 12.936 429.206 12.824C429.958 12.712 430.518 12.632 430.886 12.584C431.094 12.552 431.31 12.536 431.534 12.536C432.334 12.536 433.358 12.696 434.606 13.016C436.27 13.448 437.27 14.184 437.606 15.224C437.814 15.864 437.918 16.52 437.918 17.192C437.918 17.592 437.878 17.984 437.798 18.368C437.414 20.208 436.878 21.656 436.19 22.712C435.518 23.768 434.374 24.424 432.758 24.68C431.974 24.808 430.582 24.848 428.582 24.8C426.758 24.752 425.47 24.52 424.718 24.104C423.678 23.528 422.934 23.04 422.486 22.64C421.846 22.08 421.302 21.368 420.854 20.504C420.246 19.352 419.942 17.248 419.942 14.192C419.942 12.832 420.022 11.2 420.182 9.296C420.358 7.2 420.862 5.64 421.694 4.616C423.438 2.472 425.598 1.216 428.174 0.847999C428.958 0.735999 430.102 0.719999 431.606 0.8C433.43 0.895999 434.838 1.176 435.83 1.64C436.966 2.168 437.886 3.064 438.59 4.328C439.262 5.528 439.598 6.784 439.598 8.096ZM452.827 7.664C452.795 5.616 452.795 4.4 452.827 4.016C452.971 2.352 453.419 1.36 454.171 1.04C454.539 0.88 454.867 0.8 455.155 0.8C455.875 0.8 456.411 1.136 456.763 1.808C457.051 2.352 457.179 3.008 457.147 3.776C457.099 4.976 457.091 5.952 457.123 6.704L457.363 11.96C457.411 13.08 457.443 13.72 457.459 13.88C457.683 15.656 457.859 16.984 457.987 17.864C458.179 19.416 458.243 20.744 458.179 21.848C458.131 22.6 457.931 23.216 457.579 23.696C457.179 24.24 456.627 24.512 455.923 24.512C455.619 24.512 455.291 24.456 454.939 24.344C454.219 24.136 453.739 23.568 453.499 22.64C453.371 22.192 453.291 21.4 453.259 20.264L453.091 15.416C453.043 13.944 452.411 13.272 451.195 13.4C449.835 13.544 448.851 13.592 448.243 13.544C447.459 13.496 447.059 14.08 447.043 15.296C447.027 16.56 447.067 17.928 447.163 19.4C447.259 20.856 447.299 21.992 447.283 22.808C447.251 24.456 446.283 25.12 444.379 24.8C443.691 24.688 443.203 24.472 442.915 24.152C442.627 23.848 442.475 23.352 442.459 22.664C442.427 21.656 442.411 21.128 442.411 21.08C442.427 20.584 442.379 19.424 442.267 17.6C442.123 14.976 442.027 13.144 441.979 12.104C441.851 9.864 441.779 8.168 441.763 7.016C441.747 5.208 441.763 4.08 441.811 3.632C441.987 2.096 442.467 1.208 443.251 0.967999C443.603 0.855999 443.907 0.8 444.163 0.8C445.219 0.8 445.963 1.704 446.395 3.512C446.619 4.44 446.723 5.392 446.707 6.368C446.691 7.664 446.723 8.416 446.803 8.624C447.011 9.152 447.651 9.424 448.723 9.44C450.275 9.456 451.163 9.448 451.387 9.416C452.363 9.208 452.843 8.624 452.827 7.664ZM478.234 6.104C477.242 6.552 476.002 6.776 474.514 6.776C474.018 6.776 473.49 6.752 472.93 6.704C473.522 11.696 473.914 15.48 474.106 18.056C474.25 20.04 474.322 21.184 474.322 21.488C474.242 23.104 473.794 24.072 472.978 24.392C472.418 24.552 471.858 24.64 471.298 24.656C470.674 24.672 470.098 24.52 469.57 24.2C468.994 23.832 468.682 23.352 468.634 22.76C468.554 21.848 468.514 20.72 468.514 19.376C468.498 17.28 468.498 15.512 468.514 14.072C468.53 12.2 468.506 10.776 468.442 9.8L468.25 6.848C466.682 7.024 465.506 7.088 464.722 7.04C464.178 7.008 463.69 6.936 463.258 6.824C462.586 6.488 462.138 6.176 461.914 5.888C461.498 5.472 461.29 5.016 461.29 4.52C461.29 3.96 461.498 3.392 461.914 2.816C462.33 2.24 462.946 1.896 463.762 1.784C466.322 1.416 468.738 1.216 471.01 1.184C471.746 1.168 473.186 1.152 475.33 1.136C476.658 1.12 477.634 1.256 478.258 1.544C479.522 2.12 480.154 3.04 480.154 4.304C480.154 4.928 479.514 5.528 478.234 6.104ZM499.769 17.528C499.817 18.328 499.673 19.192 499.337 20.12C499.017 21.064 498.721 21.648 498.449 21.872C497.969 22.272 497.601 22.56 497.345 22.736C496.897 23.04 496.481 23.264 496.097 23.408C495.009 23.824 493.297 24.184 490.961 24.488C489.905 24.632 489.121 24.672 488.609 24.608C487.505 24.496 486.673 24.408 486.113 24.344C485.297 24.216 484.537 23.848 483.833 23.24C483.273 22.76 482.993 22.12 482.993 21.32C482.993 21 483.041 20.648 483.137 20.264C483.425 19.144 484.225 18.584 485.537 18.584C485.777 18.584 486.025 18.6 486.281 18.632C487.705 18.808 488.777 18.968 489.497 19.112C489.913 19.08 490.297 19.064 490.649 19.064C491.833 19.08 492.745 18.992 493.385 18.8C494.489 18.48 495.001 17.848 494.921 16.904C494.825 15.88 493.945 15.192 492.281 14.84C491.625 14.696 490.385 14.592 488.561 14.528C486.529 14.448 484.993 14.064 483.953 13.376C482.689 12.544 481.953 11.184 481.745 9.296C481.713 8.992 481.697 8.664 481.697 8.312C481.697 7.08 481.977 5.928 482.537 4.856C483.097 3.768 483.753 2.968 484.505 2.456C485.193 1.976 486.177 1.616 487.457 1.376C489.313 1.04 490.849 0.871999 492.065 0.871999C492.369 0.871999 492.649 0.879999 492.905 0.895998L495.353 1.136C496.729 1.28 497.417 1.968 497.417 3.2C497.417 3.584 497.345 3.968 497.201 4.352C496.961 4.992 496.169 5.312 494.825 5.312C494.505 5.312 494.105 5.288 493.625 5.24C492.841 5.16 492.081 5.12 491.345 5.12C490.241 5.12 489.281 5.216 488.465 5.408C487.121 5.728 486.393 6.504 486.281 7.736C486.185 8.84 486.473 9.64 487.145 10.136C487.641 10.52 488.489 10.776 489.689 10.904C490.729 10.952 491.657 10.992 492.473 11.024C494.761 11.104 496.457 11.56 497.561 12.392C498.121 12.824 498.625 13.608 499.073 14.744C499.473 15.752 499.705 16.68 499.769 17.528ZM512.433 2.312C513.329 1.528 515.305 1.024 518.361 0.8C520.057 0.671999 522.017 0.783999 524.241 1.136C526.561 1.504 527.945 2.664 528.393 4.616C528.601 5.528 528.705 6.296 528.705 6.92C528.705 7.736 528.545 8.424 528.225 8.984C526.897 11.272 524.633 12.432 521.433 12.464C520.953 12.464 520.249 12.432 519.321 12.368C518.393 12.288 517.705 12.248 517.257 12.248C517.081 12.248 516.993 12.304 516.993 12.416C516.993 12.592 517.169 12.872 517.521 13.256C518.705 14.52 519.681 15.616 520.449 16.544C521.553 17.856 522.385 18.832 522.945 19.472C524.097 20.88 524.673 21.944 524.673 22.664C524.673 23.432 524.257 24.016 523.425 24.416C523.121 24.56 522.817 24.632 522.513 24.632C521.521 24.632 520.513 24.088 519.489 23C518.737 22.184 518.073 21.208 517.497 20.072L514.593 14.24C514.929 17.536 515.089 19.528 515.073 20.216C515.057 21.448 515.057 22.128 515.073 22.256C515.073 22.656 514.977 23.088 514.785 23.552C514.593 24.016 514.321 24.336 513.969 24.512C513.713 24.64 513.289 24.736 512.697 24.8C511.577 24.928 511.017 24 511.017 22.016C510.953 21.648 510.905 21.208 510.873 20.696C510.633 16.92 510.521 13.728 510.537 11.12C510.553 9.328 510.577 8.088 510.609 7.4C510.753 4.744 511.361 3.048 512.433 2.312ZM520.209 5.024C519.585 4.736 518.969 4.592 518.361 4.592C517.737 4.592 517.169 4.76 516.657 5.096C515.905 5.576 515.521 6.256 515.505 7.136C515.489 8.288 516.097 8.896 517.329 8.96C519.745 9.088 521.081 8.56 521.337 7.376C521.577 6.256 521.201 5.472 520.209 5.024ZM544.671 4.976C544.335 5.648 543.855 6.072 543.231 6.248C542.911 6.344 542.247 6.4 541.239 6.416C540.327 6.432 539.487 6.432 538.719 6.416C537.967 6.4 537.199 6.536 536.415 6.824C535.711 7.08 535.247 7.504 535.023 8.096C534.927 8.32 534.815 8.952 534.687 9.992C534.687 10.36 534.727 11.048 534.807 12.056C534.999 13.096 535.519 13.664 536.367 13.76C536.895 13.824 537.631 13.832 538.575 13.784C539.535 13.736 540.311 13.728 540.903 13.76L542.607 13.856C543.135 13.888 543.607 14.048 544.023 14.336C544.503 14.672 544.743 15.088 544.743 15.584C544.743 15.808 544.711 16.16 544.647 16.64C544.583 16.832 544.431 17.048 544.191 17.288C543.583 17.672 542.727 17.808 541.623 17.696C540.407 17.568 539.503 17.488 538.911 17.456C538.047 17.408 537.519 17.368 537.327 17.336C537.087 17.304 536.871 17.288 536.679 17.288C536.487 17.288 536.319 17.304 536.175 17.336C535.711 17.336 535.399 17.696 535.239 18.416C535.079 19.104 535.159 19.584 535.479 19.856C535.895 20.208 536.295 20.416 536.679 20.48C538.135 20.72 539.431 20.792 540.567 20.696C542.679 20.52 543.903 20.928 544.239 21.92C544.303 22.128 544.335 22.352 544.335 22.592C544.335 24.064 543.407 24.8 541.551 24.8C541.327 24.8 540.719 24.752 539.727 24.656C536.975 24.432 535.311 24.272 534.735 24.176C532.191 23.728 530.895 22.184 530.847 19.544C530.799 16.888 530.703 14.584 530.559 12.632C530.495 11.8 530.463 11.072 530.463 10.448C530.463 8.752 530.631 7.032 530.967 5.288C531.415 2.936 533.263 1.512 536.511 1.016C537.551 0.855999 538.327 0.783999 538.839 0.8C540.487 0.863999 541.967 1.112 543.279 1.544C543.743 1.752 544.127 2.16 544.431 2.768C544.735 3.36 544.847 3.912 544.767 4.424C544.719 4.744 544.687 4.928 544.671 4.976ZM565.699 17.528C565.747 18.328 565.603 19.192 565.267 20.12C564.947 21.064 564.651 21.648 564.379 21.872C563.899 22.272 563.531 22.56 563.275 22.736C562.827 23.04 562.411 23.264 562.027 23.408C560.939 23.824 559.227 24.184 556.891 24.488C555.835 24.632 555.051 24.672 554.539 24.608C553.435 24.496 552.603 24.408 552.043 24.344C551.227 24.216 550.467 23.848 549.763 23.24C549.203 22.76 548.923 22.12 548.923 21.32C548.923 21 548.971 20.648 549.067 20.264C549.355 19.144 550.155 18.584 551.467 18.584C551.707 18.584 551.955 18.6 552.211 18.632C553.635 18.808 554.707 18.968 555.427 19.112C555.843 19.08 556.227 19.064 556.579 19.064C557.763 19.08 558.675 18.992 559.315 18.8C560.419 18.48 560.931 17.848 560.851 16.904C560.755 15.88 559.875 15.192 558.211 14.84C557.555 14.696 556.315 14.592 554.491 14.528C552.459 14.448 550.923 14.064 549.883 13.376C548.619 12.544 547.883 11.184 547.675 9.296C547.643 8.992 547.627 8.664 547.627 8.312C547.627 7.08 547.907 5.928 548.467 4.856C549.027 3.768 549.683 2.968 550.435 2.456C551.123 1.976 552.107 1.616 553.387 1.376C555.243 1.04 556.779 0.871999 557.995 0.871999C558.299 0.871999 558.579 0.879999 558.835 0.895998L561.283 1.136C562.659 1.28 563.347 1.968 563.347 3.2C563.347 3.584 563.275 3.968 563.131 4.352C562.891 4.992 562.099 5.312 560.755 5.312C560.435 5.312 560.035 5.288 559.555 5.24C558.771 5.16 558.011 5.12 557.275 5.12C556.171 5.12 555.211 5.216 554.395 5.408C553.051 5.728 552.323 6.504 552.211 7.736C552.115 8.84 552.403 9.64 553.075 10.136C553.571 10.52 554.419 10.776 555.619 10.904C556.659 10.952 557.587 10.992 558.403 11.024C560.691 11.104 562.387 11.56 563.491 12.392C564.051 12.824 564.555 13.608 565.003 14.744C565.403 15.752 565.635 16.68 565.699 17.528ZM581.725 4.976C581.389 5.648 580.909 6.072 580.285 6.248C579.965 6.344 579.301 6.4 578.293 6.416C577.381 6.432 576.541 6.432 575.773 6.416C575.021 6.4 574.253 6.536 573.469 6.824C572.765 7.08 572.301 7.504 572.077 8.096C571.981 8.32 571.869 8.952 571.741 9.992C571.741 10.36 571.781 11.048 571.861 12.056C572.053 13.096 572.573 13.664 573.421 13.76C573.949 13.824 574.685 13.832 575.629 13.784C576.589 13.736 577.365 13.728 577.957 13.76L579.661 13.856C580.189 13.888 580.661 14.048 581.077 14.336C581.557 14.672 581.797 15.088 581.797 15.584C581.797 15.808 581.765 16.16 581.701 16.64C581.637 16.832 581.485 17.048 581.245 17.288C580.637 17.672 579.781 17.808 578.677 17.696C577.461 17.568 576.557 17.488 575.965 17.456C575.101 17.408 574.573 17.368 574.381 17.336C574.141 17.304 573.925 17.288 573.733 17.288C573.541 17.288 573.373 17.304 573.229 17.336C572.765 17.336 572.453 17.696 572.293 18.416C572.133 19.104 572.213 19.584 572.533 19.856C572.949 20.208 573.349 20.416 573.733 20.48C575.189 20.72 576.485 20.792 577.621 20.696C579.733 20.52 580.957 20.928 581.293 21.92C581.357 22.128 581.389 22.352 581.389 22.592C581.389 24.064 580.461 24.8 578.605 24.8C578.381 24.8 577.773 24.752 576.781 24.656C574.029 24.432 572.365 24.272 571.789 24.176C569.245 23.728 567.949 22.184 567.901 19.544C567.853 16.888 567.757 14.584 567.613 12.632C567.549 11.8 567.517 11.072 567.517 10.448C567.517 8.752 567.685 7.032 568.021 5.288C568.469 2.936 570.317 1.512 573.565 1.016C574.605 0.855999 575.381 0.783999 575.893 0.8C577.541 0.863999 579.021 1.112 580.333 1.544C580.797 1.752 581.181 2.16 581.485 2.768C581.789 3.36 581.901 3.912 581.821 4.424C581.773 4.744 581.741 4.928 581.725 4.976ZM587.082 2.312C587.978 1.528 589.954 1.024 593.01 0.8C594.706 0.671999 596.666 0.783999 598.89 1.136C601.21 1.504 602.594 2.664 603.042 4.616C603.25 5.528 603.354 6.296 603.354 6.92C603.354 7.736 603.194 8.424 602.874 8.984C601.546 11.272 599.282 12.432 596.082 12.464C595.602 12.464 594.898 12.432 593.97 12.368C593.042 12.288 592.354 12.248 591.906 12.248C591.73 12.248 591.642 12.304 591.642 12.416C591.642 12.592 591.818 12.872 592.17 13.256C593.354 14.52 594.33 15.616 595.098 16.544C596.202 17.856 597.034 18.832 597.594 19.472C598.746 20.88 599.322 21.944 599.322 22.664C599.322 23.432 598.906 24.016 598.074 24.416C597.77 24.56 597.466 24.632 597.162 24.632C596.17 24.632 595.162 24.088 594.138 23C593.386 22.184 592.722 21.208 592.146 20.072L589.242 14.24C589.578 17.536 589.738 19.528 589.722 20.216C589.706 21.448 589.706 22.128 589.722 22.256C589.722 22.656 589.626 23.088 589.434 23.552C589.242 24.016 588.97 24.336 588.618 24.512C588.362 24.64 587.938 24.736 587.346 24.8C586.226 24.928 585.666 24 585.666 22.016C585.602 21.648 585.554 21.208 585.522 20.696C585.282 16.92 585.17 13.728 585.186 11.12C585.202 9.328 585.226 8.088 585.258 7.4C585.402 4.744 586.01 3.048 587.082 2.312ZM594.858 5.024C594.234 4.736 593.618 4.592 593.01 4.592C592.386 4.592 591.818 4.76 591.306 5.096C590.554 5.576 590.17 6.256 590.154 7.136C590.138 8.288 590.746 8.896 591.978 8.96C594.394 9.088 595.73 8.56 595.986 7.376C596.226 6.256 595.85 5.472 594.858 5.024ZM625.199 3.92C625.231 4.992 624.999 6.464 624.503 8.336C624.119 9.776 623.663 11.2 623.135 12.608L621.503 17C620.591 19.432 619.479 21.6 618.167 23.504C617.607 24.064 617.239 24.4 617.063 24.512C616.679 24.752 616.199 24.84 615.623 24.776C614.663 24.664 613.871 24.336 613.247 23.792C612.735 23.344 612.215 22.632 611.687 21.656C611.031 20.376 610.551 19.416 610.247 18.776C608.919 16.184 607.615 12.896 606.335 8.912C605.791 7.216 605.543 5.816 605.591 4.712C605.623 3.88 605.671 3.336 605.735 3.08C606.039 1.736 606.815 0.983999 608.063 0.823999C608.767 0.743999 609.415 0.863999 610.007 1.184C611.159 1.808 611.879 3.936 612.167 7.568C612.295 9.056 612.607 10.72 613.103 12.56C613.327 13.376 613.831 14.992 614.615 17.408C614.839 18.096 614.991 18.44 615.071 18.44C615.103 18.44 615.119 18.368 615.119 18.224C615.919 18.496 616.863 16.272 617.951 11.552C618.047 11.168 618.303 9.728 618.719 7.232C619.023 5.376 619.351 3.992 619.703 3.08C620.151 1.896 620.815 1.144 621.695 0.823999C622.095 0.679999 622.479 0.607999 622.847 0.607999C623.183 0.607999 623.463 0.671999 623.687 0.8C624.663 1.328 625.167 2.368 625.199 3.92ZM640.741 4.976C640.405 5.648 639.925 6.072 639.301 6.248C638.981 6.344 638.317 6.4 637.309 6.416C636.397 6.432 635.557 6.432 634.789 6.416C634.037 6.4 633.269 6.536 632.485 6.824C631.781 7.08 631.317 7.504 631.093 8.096C630.997 8.32 630.885 8.952 630.757 9.992C630.757 10.36 630.797 11.048 630.877 12.056C631.069 13.096 631.589 13.664 632.437 13.76C632.965 13.824 633.701 13.832 634.645 13.784C635.605 13.736 636.381 13.728 636.973 13.76L638.677 13.856C639.205 13.888 639.677 14.048 640.093 14.336C640.573 14.672 640.813 15.088 640.813 15.584C640.813 15.808 640.781 16.16 640.717 16.64C640.653 16.832 640.501 17.048 640.261 17.288C639.653 17.672 638.797 17.808 637.693 17.696C636.477 17.568 635.573 17.488 634.981 17.456C634.117 17.408 633.589 17.368 633.397 17.336C633.157 17.304 632.941 17.288 632.749 17.288C632.557 17.288 632.389 17.304 632.245 17.336C631.781 17.336 631.469 17.696 631.309 18.416C631.149 19.104 631.229 19.584 631.549 19.856C631.965 20.208 632.365 20.416 632.749 20.48C634.205 20.72 635.501 20.792 636.637 20.696C638.749 20.52 639.973 20.928 640.309 21.92C640.373 22.128 640.405 22.352 640.405 22.592C640.405 24.064 639.477 24.8 637.621 24.8C637.397 24.8 636.789 24.752 635.797 24.656C633.045 24.432 631.381 24.272 630.805 24.176C628.261 23.728 626.965 22.184 626.917 19.544C626.869 16.888 626.773 14.584 626.629 12.632C626.565 11.8 626.533 11.072 626.533 10.448C626.533 8.752 626.701 7.032 627.037 5.288C627.485 2.936 629.333 1.512 632.581 1.016C633.621 0.855999 634.397 0.783999 634.909 0.8C636.557 0.863999 638.037 1.112 639.349 1.544C639.813 1.752 640.197 2.16 640.501 2.768C640.805 3.36 640.917 3.912 640.837 4.424C640.789 4.744 640.757 4.928 640.741 4.976ZM662.729 13.616C662.729 15.36 662.465 17.08 661.937 18.776C661.745 19.4 661.201 20.264 660.305 21.368C659.121 22.808 657.409 23.848 655.169 24.488C654.497 24.68 653.761 24.784 652.961 24.8C650.801 24.848 649.089 24.592 647.825 24.032C646.065 23.264 644.849 19.632 644.177 13.136C643.905 10.592 643.801 8.744 643.865 7.592C643.961 5.544 644.185 4.168 644.537 3.464C645.097 2.328 646.217 1.552 647.897 1.136C649.209 0.815999 650.417 0.655999 651.521 0.655999C652.081 0.655999 652.633 0.703999 653.177 0.8C654.617 1.056 655.897 1.464 657.017 2.024C658.153 2.584 659.049 3.272 659.705 4.088C660.201 4.696 660.761 5.704 661.385 7.112C661.417 7.208 661.465 7.296 661.529 7.376C662.329 9.328 662.729 11.408 662.729 13.616ZM652.625 6.968C652.097 6.856 651.601 6.8 651.137 6.8C650.625 6.8 650.193 6.88 649.841 7.04C649.153 7.36 648.713 8.504 648.521 10.472C648.409 11.8 648.409 13.128 648.521 14.456C648.649 15.928 648.793 16.984 648.953 17.624C649.129 18.248 649.545 18.736 650.201 19.088C650.777 19.392 651.425 19.544 652.145 19.544C652.673 19.544 653.233 19.456 653.825 19.28C655.089 18.896 656.017 18.232 656.609 17.288C657.105 16.488 657.409 15.368 657.521 13.928C657.633 12.488 657.193 11.048 656.201 9.608C655.209 8.152 654.017 7.272 652.625 6.968ZM668.894 22.016C668.99 23.056 668.678 23.792 667.958 24.224C667.558 24.464 667.078 24.52 666.518 24.392C666.31 24.344 666.158 24.272 666.062 24.176V24.128C666.046 24.096 666.038 24.072 666.038 24.056C665.926 23.96 665.758 23.864 665.534 23.768C665.198 23.4 665.03 22.976 665.03 22.496C665.03 22.272 665.078 22.016 665.174 21.728C665.334 21.264 665.638 20.872 666.086 20.552C666.55 20.232 667.03 20.072 667.526 20.072C668.326 20.072 668.782 20.72 668.894 22.016ZM696.457 17.528C696.505 18.328 696.361 19.192 696.025 20.12C695.705 21.064 695.409 21.648 695.137 21.872C694.657 22.272 694.289 22.56 694.033 22.736C693.585 23.04 693.169 23.264 692.785 23.408C691.697 23.824 689.985 24.184 687.649 24.488C686.593 24.632 685.809 24.672 685.297 24.608C684.193 24.496 683.361 24.408 682.801 24.344C681.985 24.216 681.225 23.848 680.521 23.24C679.961 22.76 679.681 22.12 679.681 21.32C679.681 21 679.729 20.648 679.825 20.264C680.113 19.144 680.913 18.584 682.225 18.584C682.465 18.584 682.713 18.6 682.969 18.632C684.393 18.808 685.465 18.968 686.185 19.112C686.601 19.08 686.985 19.064 687.337 19.064C688.521 19.08 689.433 18.992 690.073 18.8C691.177 18.48 691.689 17.848 691.609 16.904C691.513 15.88 690.633 15.192 688.969 14.84C688.313 14.696 687.073 14.592 685.249 14.528C683.217 14.448 681.681 14.064 680.641 13.376C679.377 12.544 678.641 11.184 678.433 9.296C678.401 8.992 678.385 8.664 678.385 8.312C678.385 7.08 678.665 5.928 679.225 4.856C679.785 3.768 680.441 2.968 681.193 2.456C681.881 1.976 682.865 1.616 684.145 1.376C686.001 1.04 687.537 0.871999 688.753 0.871999C689.057 0.871999 689.337 0.879999 689.593 0.895998L692.041 1.136C693.417 1.28 694.105 1.968 694.105 3.2C694.105 3.584 694.033 3.968 693.889 4.352C693.649 4.992 692.857 5.312 691.513 5.312C691.193 5.312 690.793 5.288 690.313 5.24C689.529 5.16 688.769 5.12 688.033 5.12C686.929 5.12 685.969 5.216 685.153 5.408C683.809 5.728 683.081 6.504 682.969 7.736C682.873 8.84 683.161 9.64 683.833 10.136C684.329 10.52 685.177 10.776 686.377 10.904C687.417 10.952 688.345 10.992 689.161 11.024C691.449 11.104 693.145 11.56 694.249 12.392C694.809 12.824 695.313 13.608 695.761 14.744C696.161 15.752 696.393 16.68 696.457 17.528ZM708.619 0.8C709.595 0.88 710.331 0.983999 710.827 1.112C711.563 1.32 712.227 1.664 712.819 2.144C713.491 2.704 713.955 3.296 714.211 3.92C714.675 5.04 714.955 6.12 715.051 7.16L715.291 9.608C715.387 10.584 715.443 11.408 715.459 12.08C715.475 13.136 715.403 14.432 715.243 15.968C716.331 16.256 717.507 16.632 718.771 17.096C719.011 17.224 719.187 17.456 719.299 17.792C719.411 18.112 719.451 18.424 719.419 18.728C719.419 18.936 719.395 19.088 719.347 19.184C719.299 19.344 719.251 19.496 719.203 19.64C719.139 19.912 718.891 20.12 718.459 20.264C718.043 20.424 717.683 20.48 717.379 20.432C717.091 20.432 716.859 20.4 716.683 20.336C715.547 20.096 714.923 19.96 714.811 19.928H714.739V20.024C714.643 20.504 714.427 21.136 714.091 21.92C713.547 23.168 712.451 23.984 710.803 24.368C709.379 24.688 708.203 24.824 707.275 24.776C705.707 24.68 704.307 24.512 703.075 24.272C701.203 23.904 700.027 22.92 699.547 21.32C699.483 21.096 699.347 20.304 699.139 18.944C698.963 17.728 698.851 16.296 698.803 14.648C698.787 13.224 698.771 11.792 698.755 10.352C698.739 8.944 699.051 7.12 699.691 4.88C700.475 2.112 702.923 0.727999 707.035 0.727999C707.531 0.727999 708.059 0.751999 708.619 0.8ZM711.115 15.056C711.115 9.456 710.259 6.392 708.547 5.864C707.779 5.624 706.715 5.624 705.355 5.864C703.947 6.12 703.083 7.704 702.763 10.616C702.571 12.296 702.571 14.328 702.763 16.712C702.955 19.064 704.035 20.384 706.003 20.672C706.755 20.784 707.395 20.84 707.923 20.84C708.835 20.84 709.459 20.696 709.795 20.408C710.355 19.944 710.635 19.536 710.635 19.184C709.339 19.024 708.051 18.744 706.771 18.344C706.259 18.184 705.835 17.944 705.499 17.624C705.163 17.288 705.083 16.952 705.259 16.616C705.499 15.816 705.883 15.368 706.411 15.272C707.211 15.128 708.083 15.12 709.027 15.248C710.163 15.392 710.859 15.48 711.115 15.512V15.056ZM739.841 18.368C739.665 21.68 737.881 23.648 734.489 24.272C733.273 24.496 732.185 24.608 731.225 24.608C729.257 24.608 727.425 24.04 725.729 22.904C724.385 22.008 723.553 20.76 723.233 19.16C723.089 18.44 722.889 16.768 722.633 14.144L722.009 7.76C721.929 6.944 721.889 6.176 721.889 5.456C721.889 4.176 722.033 3.232 722.321 2.624C722.769 1.696 723.521 1.248 724.577 1.28C725.761 1.328 726.553 1.76 726.953 2.576C727.193 3.056 727.353 4.016 727.433 5.456C727.497 6.432 727.497 7.952 727.433 10.016C727.385 12.016 727.401 13.536 727.481 14.576C727.609 16.304 727.817 17.432 728.105 17.96C728.665 18.984 729.793 19.568 731.489 19.712C732.177 19.776 732.841 19.56 733.481 19.064C734.137 18.552 734.545 17.144 734.705 14.84C734.753 13.768 734.825 12.16 734.921 10.016C734.985 8.672 734.961 6.928 734.849 4.784C734.737 2.672 735.433 1.52 736.937 1.328C737.177 1.296 737.393 1.28 737.585 1.28C738.657 1.28 739.465 1.704 740.009 2.552C740.473 3.272 740.705 4.192 740.705 5.312C740.705 5.76 740.673 6.184 740.609 6.584C740.353 8.2 740.177 10.16 740.081 12.464L739.841 18.368ZM751.77 1.16C753.354 1.608 754.266 2.224 754.506 3.008C754.618 3.376 754.674 3.736 754.674 4.088C754.674 4.52 754.586 4.92 754.41 5.288C754.058 6.04 753.642 6.544 753.162 6.8C752.842 6.976 752.402 7.064 751.842 7.064C751.538 7.064 751.194 7.04 750.81 6.992C750.89 7.888 750.93 8.84 750.93 9.848C750.93 10.648 751.002 12.032 751.146 14C751.274 15.824 751.322 17.2 751.29 18.128C751.274 18.544 751.274 18.856 751.29 19.064C751.306 19.592 751.394 19.832 751.554 19.784C753.634 19.528 754.826 20.032 755.13 21.296C755.178 21.504 755.202 21.704 755.202 21.896C755.202 22.856 754.682 23.592 753.642 24.104C752.89 24.488 751.954 24.72 750.834 24.8C749.138 24.928 747.858 24.896 746.994 24.704C745.826 24.448 744.986 24.112 744.474 23.696C743.754 23.136 743.434 22.328 743.514 21.272C743.626 19.832 744.33 19.112 745.626 19.112C745.866 19.112 746.114 19.144 746.37 19.208C746.402 19.208 746.618 19.248 747.018 19.328C747.082 18.592 747.082 17.52 747.018 16.112C746.954 14.528 746.93 13.448 746.946 12.872C746.978 12.12 746.962 11.136 746.898 9.92C746.834 8.592 746.802 7.608 746.802 6.968C745.218 6.776 744.338 6.664 744.162 6.632C743.826 6.536 743.522 6.288 743.25 5.888C742.93 5.424 742.778 4.592 742.794 3.392C742.81 2.224 743.906 1.448 746.082 1.064C747.09 0.888 748.034 0.8 748.914 0.8C749.954 0.8 750.906 0.92 751.77 1.16ZM776.237 13.616C776.237 15.36 775.973 17.08 775.445 18.776C775.253 19.4 774.709 20.264 773.813 21.368C772.629 22.808 770.917 23.848 768.677 24.488C768.005 24.68 767.269 24.784 766.469 24.8C764.309 24.848 762.597 24.592 761.333 24.032C759.573 23.264 758.357 19.632 757.685 13.136C757.413 10.592 757.309 8.744 757.373 7.592C757.469 5.544 757.693 4.168 758.045 3.464C758.605 2.328 759.725 1.552 761.405 1.136C762.717 0.815999 763.925 0.655999 765.029 0.655999C765.589 0.655999 766.141 0.703999 766.685 0.8C768.125 1.056 769.405 1.464 770.525 2.024C771.661 2.584 772.557 3.272 773.213 4.088C773.709 4.696 774.269 5.704 774.893 7.112C774.925 7.208 774.973 7.296 775.037 7.376C775.837 9.328 776.237 11.408 776.237 13.616ZM766.133 6.968C765.605 6.856 765.109 6.8 764.645 6.8C764.133 6.8 763.701 6.88 763.349 7.04C762.661 7.36 762.221 8.504 762.029 10.472C761.917 11.8 761.917 13.128 762.029 14.456C762.157 15.928 762.301 16.984 762.461 17.624C762.637 18.248 763.053 18.736 763.709 19.088C764.285 19.392 764.933 19.544 765.653 19.544C766.181 19.544 766.741 19.456 767.333 19.28C768.597 18.896 769.525 18.232 770.117 17.288C770.613 16.488 770.917 15.368 771.029 13.928C771.141 12.488 770.701 11.048 769.709 9.608C768.717 8.152 767.525 7.272 766.133 6.968ZM792.122 5.912C792.458 8.104 792.69 9.616 792.818 10.448C793.17 12.64 793.354 13.816 793.37 13.976C793.466 14.92 793.538 15.44 793.586 15.536C793.666 16.24 793.722 16.768 793.754 17.12C793.85 18.08 793.954 18.56 794.066 18.56C794.114 18.56 794.146 18.488 794.162 18.344C794.242 17.912 794.346 16.848 794.474 15.152L794.858 9.248C795.018 6.768 795.178 5.112 795.338 4.28C795.834 1.944 796.69 0.775999 797.906 0.775999C798.978 0.775999 799.762 1.232 800.258 2.144C800.674 2.896 800.842 3.84 800.762 4.976C800.474 9.2 799.898 13.368 799.034 17.48C798.074 21.992 796.874 24.408 795.434 24.728C794.826 24.872 794.354 24.896 794.018 24.8C793.698 24.72 793.226 24.432 792.602 23.936C791.642 23.168 790.85 21.304 790.226 18.344C789.938 16.984 789.674 15.304 789.434 13.304C789.29 12.184 789.106 10.496 788.882 8.24C788.578 11.504 788.346 13.552 788.186 14.384C788.058 15.056 787.898 16.248 787.706 17.96C787.386 20.824 786.938 22.64 786.362 23.408C786.058 23.824 785.49 24.176 784.658 24.464C784.338 24.576 784.018 24.632 783.698 24.632C783.186 24.632 782.706 24.48 782.258 24.176C781.522 23.68 781.042 23.152 780.818 22.592C780.418 21.616 780.074 20.456 779.786 19.112C779.53 17.704 779.322 16.52 779.162 15.56C778.938 14.168 778.674 11.92 778.37 8.816C778.114 6.176 778.018 4.368 778.082 3.392C778.146 2.32 778.546 1.584 779.282 1.184C779.666 0.975999 780.026 0.871999 780.362 0.871999C781.562 0.871999 782.41 1.968 782.906 4.16C783.13 5.136 783.306 6.704 783.434 8.864C783.626 12.048 783.754 13.912 783.818 14.456C784.026 16.12 784.146 17.08 784.178 17.336C784.178 17.752 784.21 17.96 784.274 17.96C784.322 17.96 784.346 17.88 784.346 17.72C784.826 15.528 785.122 13.696 785.234 12.224C785.442 9.648 785.706 7.512 786.026 5.816C786.554 3.032 787.546 1.656 789.002 1.688C789.738 1.704 790.314 1.928 790.73 2.36C791.05 2.68 791.362 3.232 791.666 4.016C791.842 4.48 791.994 5.112 792.122 5.912ZM812.803 0.8C815.827 1.072 817.915 3.552 819.067 8.24C819.323 9.264 819.635 11.104 820.003 13.76C820.291 15.824 820.435 17.712 820.435 19.424C820.435 20.592 820.283 21.664 819.979 22.64C819.547 24.08 818.875 24.8 817.963 24.8C817.131 24.8 816.515 24.616 816.115 24.248C815.715 23.88 815.459 23.272 815.347 22.424C815.235 21.592 815.163 20.24 815.131 18.368C815.099 16.592 815.003 15.224 814.843 14.264C814.459 11.88 813.843 10.672 812.995 10.64C812.115 10.608 811.435 10.672 810.955 10.832C809.995 11.152 809.403 11.952 809.179 13.232C809.067 13.856 809.051 14.928 809.131 16.448C809.243 18.784 809.355 20.408 809.467 21.32C809.499 21.576 809.515 21.792 809.515 21.968C809.515 23.888 808.723 24.848 807.139 24.848C806.979 24.848 806.771 24.832 806.515 24.8C805.235 24.64 804.395 23.912 803.995 22.616C803.739 21.8 803.659 20.6 803.755 19.016C803.899 16.536 803.987 15.056 804.019 14.576C804.099 13.408 804.395 11.528 804.907 8.936C805.355 6.68 805.803 4.984 806.251 3.848C806.683 2.776 807.443 1.976 808.531 1.448C809.475 0.983999 810.579 0.751999 811.843 0.751999C812.131 0.751999 812.451 0.767999 812.803 0.8ZM813.955 6.344C813.987 6.232 814.003 6.112 814.003 5.984C814.003 4.928 813.331 4.352 811.987 4.256C811.123 4.192 810.427 4.432 809.899 4.976C809.547 5.328 809.371 5.672 809.371 6.008C809.371 6.168 809.427 6.344 809.539 6.536C809.795 6.968 810.171 7.232 810.667 7.328C810.827 7.36 811.307 7.376 812.107 7.376C813.099 7.376 813.715 7.032 813.955 6.344ZM824.925 2.312C825.821 1.528 827.797 1.024 830.853 0.8C832.549 0.671999 834.509 0.783999 836.733 1.136C839.053 1.504 840.437 2.664 840.885 4.616C841.093 5.528 841.197 6.296 841.197 6.92C841.197 7.736 841.037 8.424 840.717 8.984C839.389 11.272 837.125 12.432 833.925 12.464C833.445 12.464 832.741 12.432 831.813 12.368C830.885 12.288 830.197 12.248 829.749 12.248C829.573 12.248 829.485 12.304 829.485 12.416C829.485 12.592 829.661 12.872 830.013 13.256C831.197 14.52 832.173 15.616 832.941 16.544C834.045 17.856 834.877 18.832 835.437 19.472C836.589 20.88 837.165 21.944 837.165 22.664C837.165 23.432 836.749 24.016 835.917 24.416C835.613 24.56 835.309 24.632 835.005 24.632C834.013 24.632 833.005 24.088 831.981 23C831.229 22.184 830.565 21.208 829.989 20.072L827.085 14.24C827.421 17.536 827.581 19.528 827.565 20.216C827.549 21.448 827.549 22.128 827.565 22.256C827.565 22.656 827.469 23.088 827.277 23.552C827.085 24.016 826.813 24.336 826.461 24.512C826.205 24.64 825.781 24.736 825.189 24.8C824.069 24.928 823.509 24 823.509 22.016C823.445 21.648 823.397 21.208 823.365 20.696C823.125 16.92 823.013 13.728 823.029 11.12C823.045 9.328 823.069 8.088 823.101 7.4C823.245 4.744 823.853 3.048 824.925 2.312ZM832.701 5.024C832.077 4.736 831.461 4.592 830.853 4.592C830.229 4.592 829.661 4.76 829.149 5.096C828.397 5.576 828.013 6.256 827.997 7.136C827.981 8.288 828.589 8.896 829.821 8.96C832.237 9.088 833.573 8.56 833.829 7.376C834.069 6.256 833.693 5.472 832.701 5.024ZM862.323 13.616C862.323 15.36 862.059 17.08 861.531 18.776C861.339 19.4 860.795 20.264 859.899 21.368C858.715 22.808 857.003 23.848 854.763 24.488C854.091 24.68 853.355 24.784 852.555 24.8C850.395 24.848 848.683 24.592 847.419 24.032C845.659 23.264 844.443 19.632 843.771 13.136C843.499 10.592 843.395 8.744 843.459 7.592C843.555 5.544 843.779 4.168 844.131 3.464C844.691 2.328 845.811 1.552 847.491 1.136C848.803 0.815999 850.011 0.655999 851.115 0.655999C851.675 0.655999 852.227 0.703999 852.771 0.8C854.211 1.056 855.491 1.464 856.611 2.024C857.747 2.584 858.643 3.272 859.299 4.088C859.795 4.696 860.355 5.704 860.979 7.112C861.011 7.208 861.059 7.296 861.123 7.376C861.923 9.328 862.323 11.408 862.323 13.616ZM852.219 6.968C851.691 6.856 851.195 6.8 850.731 6.8C850.219 6.8 849.787 6.88 849.435 7.04C848.747 7.36 848.307 8.504 848.115 10.472C848.003 11.8 848.003 13.128 848.115 14.456C848.243 15.928 848.387 16.984 848.547 17.624C848.723 18.248 849.139 18.736 849.795 19.088C850.371 19.392 851.019 19.544 851.739 19.544C852.267 19.544 852.827 19.456 853.419 19.28C854.683 18.896 855.611 18.232 856.203 17.288C856.699 16.488 857.003 15.368 857.115 13.928C857.227 12.488 856.787 11.048 855.795 9.608C854.803 8.152 853.611 7.272 852.219 6.968Z" fill="white"/>
</svg>
