<svg width="1301" height="121" viewBox="0 0 1301 121" fill="none" xmlns="http://www.w3.org/2000/svg">
<rect x="1.5" y="-101.5" width="1298" height="221" rx="28.5" fill="white" fill-opacity="0.7" stroke="#284063" stroke-width="3"/>
<path d="M413.12 48.664C413.088 46.616 413.088 45.4 413.12 45.016C413.264 43.352 413.712 42.36 414.464 42.04C414.832 41.88 415.16 41.8 415.448 41.8C416.168 41.8 416.704 42.136 417.056 42.808C417.344 43.352 417.472 44.008 417.44 44.776C417.392 45.976 417.384 46.952 417.416 47.704L417.656 52.96C417.704 54.08 417.736 54.72 417.752 54.88C417.976 56.656 418.152 57.984 418.28 58.864C418.472 60.416 418.536 61.744 418.472 62.848C418.424 63.6 418.224 64.216 417.872 64.696C417.472 65.24 416.92 65.512 416.216 65.512C415.912 65.512 415.584 65.456 415.232 65.344C414.512 65.136 414.032 64.568 413.792 63.64C413.664 63.192 413.584 62.4 413.552 61.264L413.384 56.416C413.336 54.944 412.704 54.272 411.488 54.4C410.128 54.544 409.144 54.592 408.536 54.544C407.752 54.496 407.352 55.08 407.336 56.296C407.32 57.56 407.36 58.928 407.456 60.4C407.552 61.856 407.592 62.992 407.576 63.808C407.544 65.456 406.576 66.12 404.672 65.8C403.984 65.688 403.496 65.472 403.208 65.152C402.92 64.848 402.768 64.352 402.752 63.664C402.72 62.656 402.704 62.128 402.704 62.08C402.72 61.584 402.672 60.424 402.56 58.6C402.416 55.976 402.32 54.144 402.272 53.104C402.144 50.864 402.072 49.168 402.056 48.016C402.04 46.208 402.056 45.08 402.104 44.632C402.28 43.096 402.76 42.208 403.544 41.968C403.896 41.856 404.2 41.8 404.456 41.8C405.512 41.8 406.256 42.704 406.688 44.512C406.912 45.44 407.016 46.392 407 47.368C406.984 48.664 407.016 49.416 407.096 49.624C407.304 50.152 407.944 50.424 409.016 50.44C410.568 50.456 411.456 50.448 411.68 50.416C412.656 50.208 413.136 49.624 413.12 48.664ZM421.967 45.88C422.751 43.112 425.199 41.728 429.311 41.728C429.823 41.728 430.359 41.752 430.919 41.8C431.975 41.88 432.759 41.992 433.271 42.136C433.895 42.312 434.535 42.672 435.191 43.216C435.847 43.76 436.295 44.328 436.535 44.92C436.999 46.04 437.271 47.12 437.351 48.16C437.383 48.656 437.463 49.472 437.591 50.608C437.703 51.6 437.759 52.44 437.759 53.128C437.775 54.84 437.535 57.48 437.039 61.048C436.991 61.384 436.775 62.008 436.391 62.92C435.943 63.992 434.975 64.784 433.487 65.296C432.463 65.648 431.407 65.824 430.319 65.824C430.079 65.824 429.839 65.816 429.599 65.8C428.447 65.72 427.711 65.648 427.391 65.584C426.815 65.472 426.087 65.248 425.207 64.912C424.599 64.688 423.967 64.232 423.311 63.544C422.591 62.776 422.231 62.112 422.231 61.552L421.463 58.552C421.255 57.752 421.135 56.56 421.103 54.976C421.087 53.76 421.079 52.544 421.079 51.328C421.063 49.84 421.359 48.024 421.967 45.88ZM430.751 46.816C429.855 46.56 428.911 46.56 427.919 46.816C426.863 47.072 426.191 48.384 425.903 50.752C425.759 51.904 425.687 53.008 425.687 54.064C425.687 55.232 425.783 56.44 425.975 57.688C426.327 59.944 427.143 61.192 428.423 61.432C428.775 61.496 429.127 61.528 429.479 61.528C430.279 61.528 430.943 61.336 431.471 60.952C432.223 60.408 432.735 58.728 433.007 55.912C433.103 54.92 433.151 54.008 433.151 53.176C433.151 51.864 433.007 50.664 432.719 49.576C432.303 47.992 431.647 47.072 430.751 46.816ZM451.216 55.936C451.856 52.384 452.352 49.928 452.704 48.568C453.616 44.92 454.576 42.864 455.584 42.4C456.32 42.064 457 41.896 457.624 41.896C458.776 41.896 459.736 42.64 460.504 44.128C461.128 45.328 461.504 47.384 461.632 50.296C461.76 53.208 461.848 55.392 461.896 56.848C462.008 59.264 462.04 61.032 461.992 62.152C461.912 64.312 461.272 65.392 460.072 65.392C459.784 65.392 459.456 65.296 459.088 65.104C458.272 64.688 457.704 63.776 457.384 62.368C457.256 61.792 457.12 60.664 456.976 58.984C456.912 58.136 456.84 56.816 456.76 55.024C456.712 53.904 456.72 51.728 456.784 48.496C456.256 50.32 455.848 52.376 455.56 54.664C454.792 60.856 454.088 64.112 453.448 64.432C452.76 64.784 452.232 64.96 451.864 64.96C451.464 64.96 450.968 64.816 450.376 64.528C449.576 64.16 449.112 63.52 448.984 62.608C448.808 61.28 448.544 59.728 448.192 57.952C447.968 56.832 447.648 55.296 447.232 53.344C446.816 51.376 446.264 49.672 445.576 48.232C445.352 49.032 445.344 50.792 445.552 53.512C445.744 56.52 445.888 58.848 445.984 60.496C446.096 62.352 446.136 63.384 446.104 63.592C445.944 64.728 445.288 65.44 444.136 65.728C443.944 65.776 443.784 65.8 443.656 65.8C443.064 65.8 442.488 65.488 441.928 64.864C441.192 64.064 440.88 61.976 440.992 58.6C441.088 55.336 441.088 53.24 440.992 52.312C440.896 51.464 440.816 50.112 440.752 48.256C440.688 46.608 440.92 45.2 441.448 44.032C442.12 42.544 443.216 41.8 444.736 41.8C445.024 41.8 445.36 41.832 445.744 41.896C447.6 42.2 448.864 43.376 449.536 45.424C450.416 48.128 450.976 51.632 451.216 55.936ZM478.315 45.976C477.979 46.648 477.499 47.072 476.875 47.248C476.555 47.344 475.891 47.4 474.883 47.416C473.971 47.432 473.131 47.432 472.363 47.416C471.611 47.4 470.843 47.536 470.059 47.824C469.355 48.08 468.891 48.504 468.667 49.096C468.571 49.32 468.459 49.952 468.331 50.992C468.331 51.36 468.371 52.048 468.451 53.056C468.643 54.096 469.163 54.664 470.011 54.76C470.539 54.824 471.275 54.832 472.219 54.784C473.179 54.736 473.955 54.728 474.547 54.76L476.251 54.856C476.779 54.888 477.251 55.048 477.667 55.336C478.147 55.672 478.387 56.088 478.387 56.584C478.387 56.808 478.355 57.16 478.291 57.64C478.227 57.832 478.075 58.048 477.835 58.288C477.227 58.672 476.371 58.808 475.267 58.696C474.051 58.568 473.147 58.488 472.555 58.456C471.691 58.408 471.163 58.368 470.971 58.336C470.731 58.304 470.515 58.288 470.323 58.288C470.131 58.288 469.963 58.304 469.819 58.336C469.355 58.336 469.043 58.696 468.883 59.416C468.723 60.104 468.803 60.584 469.123 60.856C469.539 61.208 469.939 61.416 470.323 61.48C471.779 61.72 473.075 61.792 474.211 61.696C476.323 61.52 477.547 61.928 477.883 62.92C477.947 63.128 477.979 63.352 477.979 63.592C477.979 65.064 477.051 65.8 475.195 65.8C474.971 65.8 474.363 65.752 473.371 65.656C470.619 65.432 468.955 65.272 468.379 65.176C465.835 64.728 464.539 63.184 464.491 60.544C464.443 57.888 464.347 55.584 464.203 53.632C464.139 52.8 464.107 52.072 464.107 51.448C464.107 49.752 464.275 48.032 464.611 46.288C465.059 43.936 466.907 42.512 470.155 42.016C471.195 41.856 471.971 41.784 472.483 41.8C474.131 41.864 475.611 42.112 476.923 42.544C477.387 42.752 477.771 43.16 478.075 43.768C478.379 44.36 478.491 44.912 478.411 45.424C478.363 45.744 478.331 45.928 478.315 45.976Z" fill="black"/>
<path d="M515.104 41.8C518.128 42.072 520.216 44.552 521.368 49.24C521.624 50.264 521.936 52.104 522.304 54.76C522.592 56.824 522.736 58.712 522.736 60.424C522.736 61.592 522.584 62.664 522.28 63.64C521.848 65.08 521.176 65.8 520.264 65.8C519.432 65.8 518.816 65.616 518.416 65.248C518.016 64.88 517.76 64.272 517.648 63.424C517.536 62.592 517.464 61.24 517.432 59.368C517.4 57.592 517.304 56.224 517.144 55.264C516.76 52.88 516.144 51.672 515.296 51.64C514.416 51.608 513.736 51.672 513.256 51.832C512.296 52.152 511.704 52.952 511.48 54.232C511.368 54.856 511.352 55.928 511.432 57.448C511.544 59.784 511.656 61.408 511.768 62.32C511.8 62.576 511.816 62.792 511.816 62.968C511.816 64.888 511.024 65.848 509.44 65.848C509.28 65.848 509.072 65.832 508.816 65.8C507.536 65.64 506.696 64.912 506.296 63.616C506.04 62.8 505.96 61.6 506.056 60.016C506.2 57.536 506.288 56.056 506.32 55.576C506.4 54.408 506.696 52.528 507.208 49.936C507.656 47.68 508.104 45.984 508.552 44.848C508.984 43.776 509.744 42.976 510.832 42.448C511.776 41.984 512.88 41.752 514.144 41.752C514.432 41.752 514.752 41.768 515.104 41.8ZM516.256 47.344C516.288 47.232 516.304 47.112 516.304 46.984C516.304 45.928 515.632 45.352 514.288 45.256C513.424 45.192 512.728 45.432 512.2 45.976C511.848 46.328 511.672 46.672 511.672 47.008C511.672 47.168 511.728 47.344 511.84 47.536C512.096 47.968 512.472 48.232 512.968 48.328C513.128 48.36 513.608 48.376 514.408 48.376C515.4 48.376 516.016 48.032 516.256 47.344ZM532.098 41.8C533.186 41.784 534.266 41.864 535.338 42.04C538.01 42.472 539.53 43.92 539.898 46.384C539.946 46.704 539.97 46.976 539.97 47.2C539.97 48.368 539.602 49.512 538.866 50.632C537.97 51.992 536.066 52.832 533.154 53.152C535.794 53.568 537.522 54.016 538.338 54.496C540.098 55.552 541.002 57.232 541.05 59.536C541.066 60.688 540.994 61.544 540.834 62.104C540.418 63.544 539.442 64.52 537.906 65.032C536.146 65.624 534.482 65.92 532.914 65.92C532.322 65.92 531.746 65.88 531.186 65.8C530.018 65.624 529.138 65.384 528.546 65.08C526.898 64.232 525.898 62.552 525.546 60.04C525.098 56.808 524.874 53.656 524.874 50.584C524.874 49.448 524.906 48.328 524.97 47.224C525.114 44.552 526.402 42.896 528.834 42.256C529.922 41.968 531.01 41.816 532.098 41.8ZM529.002 47.56C529.05 48.776 529.698 49.384 530.946 49.384C531.138 49.384 531.386 49.36 531.69 49.312C533.482 49.04 534.314 48.296 534.186 47.08C534.074 45.88 533.162 45.304 531.45 45.352C529.77 45.4 528.954 46.136 529.002 47.56ZM530.706 57.424C529.794 57.808 529.362 58.448 529.41 59.344C529.458 60.24 530.01 60.864 531.066 61.216C531.69 61.424 532.29 61.528 532.866 61.528C534.258 61.528 535.098 61.064 535.386 60.136C535.466 59.88 535.506 59.64 535.506 59.416C535.506 58.424 534.778 57.712 533.322 57.28C532.938 57.168 532.554 57.112 532.17 57.112C531.69 57.112 531.202 57.216 530.706 57.424ZM543.428 45.88C544.212 43.112 546.66 41.728 550.772 41.728C551.284 41.728 551.82 41.752 552.38 41.8C553.436 41.88 554.22 41.992 554.732 42.136C555.356 42.312 555.996 42.672 556.652 43.216C557.308 43.76 557.756 44.328 557.996 44.92C558.46 46.04 558.732 47.12 558.812 48.16C558.844 48.656 558.924 49.472 559.052 50.608C559.164 51.6 559.22 52.44 559.22 53.128C559.236 54.84 558.996 57.48 558.5 61.048C558.452 61.384 558.236 62.008 557.852 62.92C557.404 63.992 556.436 64.784 554.948 65.296C553.924 65.648 552.868 65.824 551.78 65.824C551.54 65.824 551.3 65.816 551.06 65.8C549.908 65.72 549.172 65.648 548.852 65.584C548.276 65.472 547.548 65.248 546.668 64.912C546.06 64.688 545.428 64.232 544.772 63.544C544.052 62.776 543.692 62.112 543.692 61.552L542.924 58.552C542.716 57.752 542.596 56.56 542.564 54.976C542.548 53.76 542.54 52.544 542.54 51.328C542.524 49.84 542.82 48.024 543.428 45.88ZM552.212 46.816C551.316 46.56 550.372 46.56 549.38 46.816C548.324 47.072 547.652 48.384 547.364 50.752C547.22 51.904 547.148 53.008 547.148 54.064C547.148 55.232 547.244 56.44 547.436 57.688C547.788 59.944 548.604 61.192 549.884 61.432C550.236 61.496 550.588 61.528 550.94 61.528C551.74 61.528 552.404 61.336 552.932 60.952C553.684 60.408 554.196 58.728 554.468 55.912C554.564 54.92 554.612 54.008 554.612 53.176C554.612 51.864 554.468 50.664 554.18 49.576C553.764 47.992 553.108 47.072 552.212 46.816ZM581.173 59.368C580.997 62.68 579.213 64.648 575.821 65.272C574.605 65.496 573.517 65.608 572.557 65.608C570.589 65.608 568.757 65.04 567.061 63.904C565.717 63.008 564.885 61.76 564.565 60.16C564.421 59.44 564.221 57.768 563.965 55.144L563.341 48.76C563.261 47.944 563.221 47.176 563.221 46.456C563.221 45.176 563.365 44.232 563.653 43.624C564.101 42.696 564.853 42.248 565.909 42.28C567.093 42.328 567.885 42.76 568.285 43.576C568.525 44.056 568.685 45.016 568.765 46.456C568.829 47.432 568.829 48.952 568.765 51.016C568.717 53.016 568.733 54.536 568.813 55.576C568.941 57.304 569.149 58.432 569.437 58.96C569.997 59.984 571.125 60.568 572.821 60.712C573.509 60.776 574.173 60.56 574.813 60.064C575.469 59.552 575.877 58.144 576.037 55.84C576.085 54.768 576.157 53.16 576.253 51.016C576.317 49.672 576.293 47.928 576.181 45.784C576.069 43.672 576.765 42.52 578.269 42.328C578.509 42.296 578.725 42.28 578.917 42.28C579.989 42.28 580.797 42.704 581.341 43.552C581.805 44.272 582.037 45.192 582.037 46.312C582.037 46.76 582.005 47.184 581.941 47.584C581.685 49.2 581.509 51.16 581.413 53.464L581.173 59.368ZM601.238 47.104C600.246 47.552 599.006 47.776 597.518 47.776C597.022 47.776 596.494 47.752 595.934 47.704C596.526 52.696 596.918 56.48 597.11 59.056C597.254 61.04 597.326 62.184 597.326 62.488C597.246 64.104 596.798 65.072 595.982 65.392C595.422 65.552 594.862 65.64 594.302 65.656C593.678 65.672 593.102 65.52 592.574 65.2C591.998 64.832 591.686 64.352 591.638 63.76C591.558 62.848 591.518 61.72 591.518 60.376C591.502 58.28 591.502 56.512 591.518 55.072C591.534 53.2 591.51 51.776 591.446 50.8L591.254 47.848C589.686 48.024 588.51 48.088 587.726 48.04C587.182 48.008 586.694 47.936 586.262 47.824C585.59 47.488 585.142 47.176 584.918 46.888C584.502 46.472 584.294 46.016 584.294 45.52C584.294 44.96 584.502 44.392 584.918 43.816C585.334 43.24 585.95 42.896 586.766 42.784C589.326 42.416 591.742 42.216 594.014 42.184C594.75 42.168 596.19 42.152 598.334 42.136C599.662 42.12 600.638 42.256 601.262 42.544C602.526 43.12 603.158 44.04 603.158 45.304C603.158 45.928 602.518 46.528 601.238 47.104Z" fill="black"/>
<path d="M639.144 47.104C638.152 47.552 636.912 47.776 635.424 47.776C634.928 47.776 634.4 47.752 633.84 47.704C634.432 52.696 634.824 56.48 635.016 59.056C635.16 61.04 635.232 62.184 635.232 62.488C635.152 64.104 634.704 65.072 633.888 65.392C633.328 65.552 632.768 65.64 632.208 65.656C631.584 65.672 631.008 65.52 630.48 65.2C629.904 64.832 629.592 64.352 629.544 63.76C629.464 62.848 629.424 61.72 629.424 60.376C629.408 58.28 629.408 56.512 629.424 55.072C629.44 53.2 629.416 51.776 629.352 50.8L629.16 47.848C627.592 48.024 626.416 48.088 625.632 48.04C625.088 48.008 624.6 47.936 624.168 47.824C623.496 47.488 623.048 47.176 622.824 46.888C622.408 46.472 622.2 46.016 622.2 45.52C622.2 44.96 622.408 44.392 622.824 43.816C623.24 43.24 623.856 42.896 624.672 42.784C627.232 42.416 629.648 42.216 631.92 42.184C632.656 42.168 634.096 42.152 636.24 42.136C637.568 42.12 638.544 42.256 639.168 42.544C640.432 43.12 641.064 44.04 641.064 45.304C641.064 45.928 640.424 46.528 639.144 47.104ZM643.279 45.88C644.063 43.112 646.511 41.728 650.623 41.728C651.135 41.728 651.671 41.752 652.231 41.8C653.287 41.88 654.071 41.992 654.583 42.136C655.207 42.312 655.847 42.672 656.503 43.216C657.159 43.76 657.607 44.328 657.847 44.92C658.311 46.04 658.583 47.12 658.663 48.16C658.695 48.656 658.775 49.472 658.903 50.608C659.015 51.6 659.071 52.44 659.071 53.128C659.087 54.84 658.847 57.48 658.351 61.048C658.303 61.384 658.087 62.008 657.703 62.92C657.255 63.992 656.287 64.784 654.799 65.296C653.775 65.648 652.719 65.824 651.631 65.824C651.391 65.824 651.151 65.816 650.911 65.8C649.759 65.72 649.023 65.648 648.703 65.584C648.127 65.472 647.399 65.248 646.519 64.912C645.911 64.688 645.279 64.232 644.623 63.544C643.903 62.776 643.543 62.112 643.543 61.552L642.775 58.552C642.567 57.752 642.447 56.56 642.415 54.976C642.399 53.76 642.391 52.544 642.391 51.328C642.375 49.84 642.671 48.024 643.279 45.88ZM652.063 46.816C651.167 46.56 650.223 46.56 649.231 46.816C648.175 47.072 647.503 48.384 647.215 50.752C647.071 51.904 646.999 53.008 646.999 54.064C646.999 55.232 647.095 56.44 647.287 57.688C647.639 59.944 648.455 61.192 649.735 61.432C650.087 61.496 650.439 61.528 650.791 61.528C651.591 61.528 652.255 61.336 652.783 60.952C653.535 60.408 654.047 58.728 654.319 55.912C654.415 54.92 654.463 54.008 654.463 53.176C654.463 51.864 654.319 50.664 654.031 49.576C653.615 47.992 652.959 47.072 652.063 46.816ZM680.401 45.256C680.481 46.616 679.601 48.008 677.761 49.432C676.961 50.056 675.705 50.888 673.993 51.928C672.297 52.952 671.057 53.768 670.273 54.376C670.849 54.728 671.801 55.416 673.129 56.44C674.345 57.384 675.313 58.048 676.033 58.432C677.185 59.056 678.177 59.784 679.009 60.616L679.393 61C680.001 61.608 680.305 62.144 680.305 62.608C680.305 63.792 679.729 64.568 678.577 64.936C678.481 64.968 678.361 64.984 678.217 64.984C677.673 64.984 676.889 64.768 675.865 64.336C674.617 63.808 673.257 62.912 671.785 61.648C669.977 60.096 668.457 58.552 667.225 57.016C667.209 57.336 667.217 57.712 667.249 58.144C667.313 58.944 667.369 59.464 667.417 59.704C667.657 61.048 667.801 62.072 667.849 62.776C667.961 64.696 667.305 65.704 665.881 65.8C664.857 65.864 664.185 65.624 663.865 65.08C663.481 64.44 663.281 64.048 663.265 63.904C663.185 63.232 663.129 62.744 663.097 62.44C662.857 60.408 662.721 59.208 662.689 58.84L662.209 53.488C662.033 51.504 661.977 49.616 662.041 47.824C662.105 46.112 662.145 45.16 662.161 44.968C662.225 44.152 662.449 43.456 662.833 42.88C663.297 42.16 663.897 41.8 664.633 41.8C664.793 41.8 665.001 41.832 665.257 41.896C666.073 42.088 666.553 42.504 666.697 43.144C666.873 43.896 666.945 45.44 666.913 47.776C666.881 49.776 667.121 50.776 667.633 50.776C667.761 50.776 667.897 50.72 668.041 50.608L668.137 50.536C669.049 49.816 669.569 49.4 669.697 49.288C670.577 48.456 671.073 47.984 671.185 47.872L671.545 47.512C672.953 46.104 673.961 45.152 674.569 44.656C676.009 43.488 677.201 42.904 678.145 42.904C679.553 42.904 680.305 43.688 680.401 45.256ZM696.37 45.976C696.034 46.648 695.554 47.072 694.93 47.248C694.61 47.344 693.946 47.4 692.938 47.416C692.026 47.432 691.186 47.432 690.418 47.416C689.666 47.4 688.898 47.536 688.114 47.824C687.41 48.08 686.946 48.504 686.722 49.096C686.626 49.32 686.514 49.952 686.386 50.992C686.386 51.36 686.426 52.048 686.506 53.056C686.698 54.096 687.218 54.664 688.066 54.76C688.594 54.824 689.33 54.832 690.274 54.784C691.234 54.736 692.01 54.728 692.602 54.76L694.306 54.856C694.834 54.888 695.306 55.048 695.722 55.336C696.202 55.672 696.442 56.088 696.442 56.584C696.442 56.808 696.41 57.16 696.346 57.64C696.282 57.832 696.13 58.048 695.89 58.288C695.282 58.672 694.426 58.808 693.322 58.696C692.106 58.568 691.202 58.488 690.61 58.456C689.746 58.408 689.218 58.368 689.026 58.336C688.786 58.304 688.57 58.288 688.378 58.288C688.186 58.288 688.018 58.304 687.874 58.336C687.41 58.336 687.098 58.696 686.938 59.416C686.778 60.104 686.858 60.584 687.178 60.856C687.594 61.208 687.994 61.416 688.378 61.48C689.834 61.72 691.13 61.792 692.266 61.696C694.378 61.52 695.602 61.928 695.938 62.92C696.002 63.128 696.034 63.352 696.034 63.592C696.034 65.064 695.106 65.8 693.25 65.8C693.026 65.8 692.418 65.752 691.426 65.656C688.674 65.432 687.01 65.272 686.434 65.176C683.89 64.728 682.594 63.184 682.546 60.544C682.498 57.888 682.402 55.584 682.258 53.632C682.194 52.8 682.162 52.072 682.162 51.448C682.162 49.752 682.33 48.032 682.666 46.288C683.114 43.936 684.962 42.512 688.21 42.016C689.25 41.856 690.026 41.784 690.538 41.8C692.186 41.864 693.666 42.112 694.978 42.544C695.442 42.752 695.826 43.16 696.13 43.768C696.434 44.36 696.546 44.912 696.466 45.424C696.418 45.744 696.386 45.928 696.37 45.976ZM704.918 42.376C706.246 42.824 707.542 44.288 708.806 46.768C709.382 47.904 710.158 49.824 711.134 52.528C711.742 54.272 712.198 55.576 712.502 56.44C713.142 58.216 713.678 59.48 714.11 60.232C714.206 60.408 714.302 60.496 714.398 60.496C714.526 60.496 714.606 60.216 714.638 59.656C714.702 58.696 714.606 56.64 714.35 53.488C714.094 50.336 713.982 47.584 714.014 45.232C714.046 42.944 714.934 41.8 716.678 41.8C718.822 41.8 719.894 43.544 719.894 47.032C719.894 47.464 719.87 48.112 719.822 48.976C719.774 49.84 719.75 50.488 719.75 50.92C719.75 55.208 719.47 58.76 718.91 61.576C718.67 62.776 718.382 63.648 718.046 64.192C717.582 64.944 716.83 65.424 715.79 65.632C715.47 65.696 715.134 65.728 714.782 65.728C713.918 65.728 713.166 65.48 712.526 64.984C711.022 63.816 709.438 60.976 707.774 56.464C706.942 54.208 706.358 52.576 706.022 51.568C705.59 50.256 705.166 49.6 704.75 49.6C704.67 49.6 704.598 49.624 704.534 49.672C703.91 49.992 703.598 50.664 703.598 51.688C703.598 51.912 703.606 52.112 703.622 52.288C704.006 56.432 704.39 59.376 704.774 61.12C704.918 61.776 704.99 62.344 704.99 62.824C704.99 63.592 704.822 64.256 704.486 64.816C704.086 65.472 703.526 65.8 702.806 65.8C701.67 65.8 700.902 65.424 700.502 64.672C699.878 63.52 699.566 60.64 699.566 56.032C699.566 52.704 699.55 50.72 699.518 50.08C699.486 49.424 699.47 48.768 699.47 48.112C699.47 45.952 699.662 44.552 700.046 43.912C700.814 42.616 701.75 41.968 702.854 41.968C703.414 41.968 704.102 42.104 704.918 42.376ZM722.967 45.88C723.751 43.112 726.199 41.728 730.311 41.728C730.823 41.728 731.359 41.752 731.919 41.8C732.975 41.88 733.759 41.992 734.271 42.136C734.895 42.312 735.535 42.672 736.191 43.216C736.847 43.76 737.295 44.328 737.535 44.92C737.999 46.04 738.271 47.12 738.351 48.16C738.383 48.656 738.463 49.472 738.591 50.608C738.703 51.6 738.759 52.44 738.759 53.128C738.775 54.84 738.535 57.48 738.039 61.048C737.991 61.384 737.775 62.008 737.391 62.92C736.943 63.992 735.975 64.784 734.487 65.296C733.463 65.648 732.407 65.824 731.319 65.824C731.079 65.824 730.839 65.816 730.599 65.8C729.447 65.72 728.711 65.648 728.391 65.584C727.815 65.472 727.087 65.248 726.207 64.912C725.599 64.688 724.967 64.232 724.311 63.544C723.591 62.776 723.231 62.112 723.231 61.552L722.463 58.552C722.255 57.752 722.135 56.56 722.103 54.976C722.087 53.76 722.079 52.544 722.079 51.328C722.063 49.84 722.359 48.024 722.967 45.88ZM731.751 46.816C730.855 46.56 729.911 46.56 728.919 46.816C727.863 47.072 727.191 48.384 726.903 50.752C726.759 51.904 726.687 53.008 726.687 54.064C726.687 55.232 726.783 56.44 726.975 57.688C727.327 59.944 728.143 61.192 729.423 61.432C729.775 61.496 730.127 61.528 730.479 61.528C731.279 61.528 731.943 61.336 732.471 60.952C733.223 60.408 733.735 58.728 734.007 55.912C734.103 54.92 734.151 54.008 734.151 53.176C734.151 51.864 734.007 50.664 733.719 49.576C733.303 47.992 732.647 47.072 731.751 46.816ZM752.216 55.936C752.856 52.384 753.352 49.928 753.704 48.568C754.616 44.92 755.576 42.864 756.584 42.4C757.32 42.064 758 41.896 758.624 41.896C759.776 41.896 760.736 42.64 761.504 44.128C762.128 45.328 762.504 47.384 762.632 50.296C762.76 53.208 762.848 55.392 762.896 56.848C763.008 59.264 763.04 61.032 762.992 62.152C762.912 64.312 762.272 65.392 761.072 65.392C760.784 65.392 760.456 65.296 760.088 65.104C759.272 64.688 758.704 63.776 758.384 62.368C758.256 61.792 758.12 60.664 757.976 58.984C757.912 58.136 757.84 56.816 757.76 55.024C757.712 53.904 757.72 51.728 757.784 48.496C757.256 50.32 756.848 52.376 756.56 54.664C755.792 60.856 755.088 64.112 754.448 64.432C753.76 64.784 753.232 64.96 752.864 64.96C752.464 64.96 751.968 64.816 751.376 64.528C750.576 64.16 750.112 63.52 749.984 62.608C749.808 61.28 749.544 59.728 749.192 57.952C748.968 56.832 748.648 55.296 748.232 53.344C747.816 51.376 747.264 49.672 746.576 48.232C746.352 49.032 746.344 50.792 746.552 53.512C746.744 56.52 746.888 58.848 746.984 60.496C747.096 62.352 747.136 63.384 747.104 63.592C746.944 64.728 746.288 65.44 745.136 65.728C744.944 65.776 744.784 65.8 744.656 65.8C744.064 65.8 743.488 65.488 742.928 64.864C742.192 64.064 741.88 61.976 741.992 58.6C742.088 55.336 742.088 53.24 741.992 52.312C741.896 51.464 741.816 50.112 741.752 48.256C741.688 46.608 741.92 45.2 742.448 44.032C743.12 42.544 744.216 41.8 745.736 41.8C746.024 41.8 746.36 41.832 746.744 41.896C748.6 42.2 749.864 43.376 750.536 45.424C751.416 48.128 751.976 51.632 752.216 55.936ZM774.539 42.16C776.123 42.608 777.035 43.224 777.275 44.008C777.387 44.376 777.443 44.736 777.443 45.088C777.443 45.52 777.355 45.92 777.179 46.288C776.827 47.04 776.411 47.544 775.931 47.8C775.611 47.976 775.171 48.064 774.611 48.064C774.307 48.064 773.963 48.04 773.579 47.992C773.659 48.888 773.699 49.84 773.699 50.848C773.699 51.648 773.771 53.032 773.915 55C774.043 56.824 774.091 58.2 774.059 59.128C774.043 59.544 774.043 59.856 774.059 60.064C774.075 60.592 774.163 60.832 774.323 60.784C776.403 60.528 777.595 61.032 777.899 62.296C777.947 62.504 777.971 62.704 777.971 62.896C777.971 63.856 777.451 64.592 776.411 65.104C775.659 65.488 774.723 65.72 773.603 65.8C771.907 65.928 770.627 65.896 769.763 65.704C768.595 65.448 767.755 65.112 767.243 64.696C766.523 64.136 766.203 63.328 766.283 62.272C766.395 60.832 767.099 60.112 768.395 60.112C768.635 60.112 768.883 60.144 769.139 60.208C769.171 60.208 769.387 60.248 769.787 60.328C769.851 59.592 769.851 58.52 769.787 57.112C769.723 55.528 769.699 54.448 769.715 53.872C769.747 53.12 769.731 52.136 769.667 50.92C769.603 49.592 769.571 48.608 769.571 47.968C767.987 47.776 767.107 47.664 766.931 47.632C766.595 47.536 766.291 47.288 766.019 46.888C765.699 46.424 765.547 45.592 765.563 44.392C765.579 43.224 766.675 42.448 768.851 42.064C769.859 41.888 770.803 41.8 771.683 41.8C772.723 41.8 773.675 41.92 774.539 42.16ZM793.487 47.44C792.511 47.232 791.639 47.128 790.871 47.128C787.943 47.128 785.983 48.496 784.991 51.232C784.751 51.888 784.631 52.64 784.631 53.488C784.631 54.56 784.847 55.776 785.279 57.136C785.935 59.184 787.415 60.208 789.719 60.208C790.023 60.208 790.471 60.184 791.062 60.136C791.671 60.072 792.127 60.04 792.431 60.04C794.415 60.04 795.671 60.584 796.199 61.672C796.343 61.96 796.415 62.272 796.415 62.608C796.415 63.552 795.607 64.384 793.991 65.104C792.247 65.552 791.007 65.784 790.271 65.8C788.543 65.848 786.719 65.472 784.799 64.672C782.175 63.584 780.615 60.736 780.119 56.128C780.023 55.2 779.975 54.28 779.975 53.368C779.975 52.184 780.055 50.992 780.215 49.792C780.502 47.696 781.055 46.168 781.871 45.208C782.863 44.056 783.911 43.232 785.015 42.736C785.927 42.336 787.247 42.024 788.975 41.8C789.823 41.688 790.583 41.632 791.255 41.632C792.247 41.632 793.079 41.744 793.751 41.968C795.559 42.352 796.543 43.488 796.703 45.376C796.831 46.848 796.167 47.584 794.711 47.584C794.343 47.584 793.935 47.536 793.487 47.44ZM817.195 58.528C817.243 59.328 817.099 60.192 816.763 61.12C816.443 62.064 816.147 62.648 815.875 62.872C815.395 63.272 815.027 63.56 814.771 63.736C814.323 64.04 813.907 64.264 813.523 64.408C812.435 64.824 810.723 65.184 808.387 65.488C807.331 65.632 806.547 65.672 806.035 65.608C804.931 65.496 804.099 65.408 803.539 65.344C802.723 65.216 801.963 64.848 801.259 64.24C800.699 63.76 800.419 63.12 800.419 62.32C800.419 62 800.467 61.648 800.563 61.264C800.851 60.144 801.651 59.584 802.963 59.584C803.203 59.584 803.451 59.6 803.707 59.632C805.131 59.808 806.203 59.968 806.923 60.112C807.339 60.08 807.723 60.064 808.075 60.064C809.259 60.08 810.171 59.992 810.811 59.8C811.915 59.48 812.427 58.848 812.347 57.904C812.251 56.88 811.371 56.192 809.707 55.84C809.051 55.696 807.811 55.592 805.987 55.528C803.955 55.448 802.419 55.064 801.379 54.376C800.115 53.544 799.379 52.184 799.171 50.296C799.139 49.992 799.123 49.664 799.123 49.312C799.123 48.08 799.403 46.928 799.963 45.856C800.523 44.768 801.179 43.968 801.931 43.456C802.619 42.976 803.603 42.616 804.883 42.376C806.739 42.04 808.275 41.872 809.491 41.872C809.795 41.872 810.075 41.88 810.331 41.896L812.779 42.136C814.155 42.28 814.843 42.968 814.843 44.2C814.843 44.584 814.771 44.968 814.627 45.352C814.387 45.992 813.595 46.312 812.251 46.312C811.931 46.312 811.531 46.288 811.051 46.24C810.267 46.16 809.507 46.12 808.771 46.12C807.667 46.12 806.707 46.216 805.891 46.408C804.547 46.728 803.819 47.504 803.707 48.736C803.611 49.84 803.899 50.64 804.571 51.136C805.067 51.52 805.915 51.776 807.115 51.904C808.155 51.952 809.083 51.992 809.899 52.024C812.187 52.104 813.883 52.56 814.987 53.392C815.547 53.824 816.051 54.608 816.499 55.744C816.899 56.752 817.131 57.68 817.195 58.528Z" fill="black"/>
<path d="M835.184 41.8C836.272 41.784 837.352 41.864 838.424 42.04C841.096 42.472 842.616 43.92 842.984 46.384C843.032 46.704 843.056 46.976 843.056 47.2C843.056 48.368 842.688 49.512 841.952 50.632C841.056 51.992 839.152 52.832 836.24 53.152C838.88 53.568 840.608 54.016 841.424 54.496C843.184 55.552 844.088 57.232 844.136 59.536C844.152 60.688 844.08 61.544 843.92 62.104C843.504 63.544 842.528 64.52 840.992 65.032C839.232 65.624 837.568 65.92 836 65.92C835.408 65.92 834.832 65.88 834.272 65.8C833.104 65.624 832.224 65.384 831.632 65.08C829.984 64.232 828.984 62.552 828.632 60.04C828.184 56.808 827.96 53.656 827.96 50.584C827.96 49.448 827.992 48.328 828.056 47.224C828.2 44.552 829.488 42.896 831.92 42.256C833.008 41.968 834.096 41.816 835.184 41.8ZM832.088 47.56C832.136 48.776 832.784 49.384 834.032 49.384C834.224 49.384 834.472 49.36 834.776 49.312C836.568 49.04 837.4 48.296 837.272 47.08C837.16 45.88 836.248 45.304 834.536 45.352C832.856 45.4 832.04 46.136 832.088 47.56ZM833.792 57.424C832.88 57.808 832.448 58.448 832.496 59.344C832.544 60.24 833.096 60.864 834.152 61.216C834.776 61.424 835.376 61.528 835.952 61.528C837.344 61.528 838.184 61.064 838.472 60.136C838.552 59.88 838.592 59.64 838.592 59.416C838.592 58.424 837.864 57.712 836.408 57.28C836.024 57.168 835.64 57.112 835.256 57.112C834.776 57.112 834.288 57.216 833.792 57.424ZM864.994 59.368C864.818 62.68 863.034 64.648 859.642 65.272C858.426 65.496 857.338 65.608 856.378 65.608C854.41 65.608 852.578 65.04 850.882 63.904C849.538 63.008 848.706 61.76 848.386 60.16C848.242 59.44 848.042 57.768 847.786 55.144L847.162 48.76C847.082 47.944 847.042 47.176 847.042 46.456C847.042 45.176 847.186 44.232 847.474 43.624C847.922 42.696 848.674 42.248 849.73 42.28C850.914 42.328 851.706 42.76 852.106 43.576C852.346 44.056 852.506 45.016 852.586 46.456C852.65 47.432 852.65 48.952 852.586 51.016C852.538 53.016 852.554 54.536 852.634 55.576C852.762 57.304 852.97 58.432 853.258 58.96C853.818 59.984 854.946 60.568 856.642 60.712C857.33 60.776 857.994 60.56 858.634 60.064C859.29 59.552 859.698 58.144 859.858 55.84C859.906 54.768 859.978 53.16 860.074 51.016C860.138 49.672 860.114 47.928 860.002 45.784C859.89 43.672 860.586 42.52 862.09 42.328C862.33 42.296 862.546 42.28 862.738 42.28C863.81 42.28 864.618 42.704 865.162 43.552C865.626 44.272 865.858 45.192 865.858 46.312C865.858 46.76 865.826 47.184 865.762 47.584C865.506 49.2 865.33 51.16 865.234 53.464L864.994 59.368ZM882.802 56.512C881.954 57.552 880.77 58.072 879.25 58.072C879.01 58.072 878.762 58.056 878.506 58.024C878.538 59.048 878.626 60.08 878.77 61.12C878.882 61.824 879.018 62.696 879.178 63.736C879.226 64.168 879.138 64.584 878.914 64.984C878.69 65.384 878.386 65.64 878.002 65.752C877.618 65.864 877.122 65.896 876.514 65.848C875.426 65.752 874.866 64.8 874.834 62.992C874.818 61.952 874.674 60.328 874.402 58.12C872.994 58.168 871.81 57.848 870.85 57.16C869.906 56.456 869.274 55.432 868.954 54.088C868.794 53.384 868.506 51.312 868.09 47.872C867.962 46.8 867.898 45.896 867.898 45.16C867.898 43.704 868.146 42.8 868.642 42.448C869.346 41.952 870.026 41.72 870.682 41.752C872.266 41.848 873.122 42.776 873.25 44.536C873.298 45.416 873.402 47.024 873.562 49.36C873.594 49.792 873.634 50.448 873.682 51.328C873.778 52.848 874.25 53.768 875.098 54.088C875.386 54.2 875.826 54.264 876.418 54.28C877.97 54.328 878.866 53.656 879.106 52.264C879.186 51.784 879.218 51.008 879.202 49.936C879.186 49.152 879.154 47.688 879.106 45.544C879.042 43.672 879.45 42.544 880.33 42.16C881.034 41.856 881.666 41.704 882.226 41.704C883.314 41.704 884.09 42.24 884.554 43.312C884.906 44.112 885.058 45.12 885.01 46.336C884.946 48.16 884.77 49.928 884.482 51.64C884.082 54.008 883.522 55.632 882.802 56.512Z" fill="black"/>
<path d="M908.312 43.312C909.208 42.528 911.184 42.024 914.24 41.8C915.936 41.672 917.896 41.784 920.12 42.136C922.44 42.504 923.824 43.664 924.272 45.616C924.48 46.528 924.584 47.296 924.584 47.92C924.584 48.736 924.424 49.424 924.104 49.984C922.776 52.272 920.512 53.432 917.312 53.464C916.832 53.464 916.128 53.432 915.2 53.368C914.272 53.288 913.584 53.248 913.136 53.248C912.96 53.248 912.872 53.304 912.872 53.416C912.872 53.592 913.048 53.872 913.4 54.256C914.584 55.52 915.56 56.616 916.328 57.544C917.432 58.856 918.264 59.832 918.824 60.472C919.976 61.88 920.552 62.944 920.552 63.664C920.552 64.432 920.136 65.016 919.304 65.416C919 65.56 918.696 65.632 918.392 65.632C917.4 65.632 916.392 65.088 915.368 64C914.616 63.184 913.952 62.208 913.376 61.072L910.472 55.24C910.808 58.536 910.968 60.528 910.952 61.216C910.936 62.448 910.936 63.128 910.952 63.256C910.952 63.656 910.856 64.088 910.664 64.552C910.472 65.016 910.2 65.336 909.848 65.512C909.592 65.64 909.168 65.736 908.576 65.8C907.456 65.928 906.896 65 906.896 63.016C906.832 62.648 906.784 62.208 906.752 61.696C906.512 57.92 906.4 54.728 906.416 52.12C906.432 50.328 906.456 49.088 906.488 48.4C906.632 45.744 907.24 44.048 908.312 43.312ZM916.088 46.024C915.464 45.736 914.848 45.592 914.24 45.592C913.616 45.592 913.048 45.76 912.536 46.096C911.784 46.576 911.4 47.256 911.384 48.136C911.368 49.288 911.976 49.896 913.208 49.96C915.624 50.088 916.96 49.56 917.216 48.376C917.456 47.256 917.08 46.472 916.088 46.024ZM927.35 45.88C928.134 43.112 930.582 41.728 934.694 41.728C935.206 41.728 935.742 41.752 936.302 41.8C937.358 41.88 938.142 41.992 938.654 42.136C939.278 42.312 939.918 42.672 940.574 43.216C941.23 43.76 941.678 44.328 941.918 44.92C942.382 46.04 942.654 47.12 942.734 48.16C942.766 48.656 942.846 49.472 942.974 50.608C943.086 51.6 943.142 52.44 943.142 53.128C943.158 54.84 942.918 57.48 942.422 61.048C942.374 61.384 942.158 62.008 941.774 62.92C941.326 63.992 940.358 64.784 938.87 65.296C937.846 65.648 936.79 65.824 935.702 65.824C935.462 65.824 935.222 65.816 934.982 65.8C933.83 65.72 933.094 65.648 932.774 65.584C932.198 65.472 931.47 65.248 930.59 64.912C929.982 64.688 929.35 64.232 928.694 63.544C927.974 62.776 927.614 62.112 927.614 61.552L926.846 58.552C926.638 57.752 926.518 56.56 926.486 54.976C926.47 53.76 926.462 52.544 926.462 51.328C926.446 49.84 926.742 48.024 927.35 45.88ZM936.134 46.816C935.238 46.56 934.294 46.56 933.302 46.816C932.246 47.072 931.574 48.384 931.286 50.752C931.142 51.904 931.07 53.008 931.07 54.064C931.07 55.232 931.166 56.44 931.358 57.688C931.71 59.944 932.526 61.192 933.806 61.432C934.158 61.496 934.51 61.528 934.862 61.528C935.662 61.528 936.326 61.336 936.854 60.952C937.606 60.408 938.118 58.728 938.39 55.912C938.486 54.92 938.534 54.008 938.534 53.176C938.534 51.864 938.39 50.664 938.102 49.576C937.686 47.992 937.03 47.072 936.134 46.816ZM955.135 41.8C958.159 42.072 960.247 44.552 961.399 49.24C961.655 50.264 961.967 52.104 962.335 54.76C962.623 56.824 962.767 58.712 962.767 60.424C962.767 61.592 962.615 62.664 962.311 63.64C961.879 65.08 961.207 65.8 960.295 65.8C959.463 65.8 958.847 65.616 958.447 65.248C958.047 64.88 957.791 64.272 957.679 63.424C957.567 62.592 957.495 61.24 957.463 59.368C957.431 57.592 957.335 56.224 957.175 55.264C956.791 52.88 956.175 51.672 955.327 51.64C954.447 51.608 953.767 51.672 953.287 51.832C952.327 52.152 951.735 52.952 951.511 54.232C951.399 54.856 951.383 55.928 951.463 57.448C951.575 59.784 951.687 61.408 951.799 62.32C951.831 62.576 951.847 62.792 951.847 62.968C951.847 64.888 951.055 65.848 949.471 65.848C949.311 65.848 949.103 65.832 948.847 65.8C947.567 65.64 946.727 64.912 946.327 63.616C946.071 62.8 945.991 61.6 946.087 60.016C946.231 57.536 946.319 56.056 946.351 55.576C946.431 54.408 946.727 52.528 947.239 49.936C947.687 47.68 948.135 45.984 948.583 44.848C949.015 43.776 949.775 42.976 950.863 42.448C951.807 41.984 952.911 41.752 954.175 41.752C954.463 41.752 954.783 41.768 955.135 41.8ZM956.287 47.344C956.319 47.232 956.335 47.112 956.335 46.984C956.335 45.928 955.663 45.352 954.319 45.256C953.455 45.192 952.759 45.432 952.231 45.976C951.879 46.328 951.703 46.672 951.703 47.008C951.703 47.168 951.759 47.344 951.871 47.536C952.127 47.968 952.503 48.232 952.999 48.328C953.159 48.36 953.639 48.376 954.439 48.376C955.431 48.376 956.047 48.032 956.287 47.344ZM983.889 54.616C983.889 56.36 983.625 58.08 983.097 59.776C982.905 60.4 982.361 61.264 981.465 62.368C980.281 63.808 978.569 64.848 976.329 65.488C975.657 65.68 974.921 65.784 974.121 65.8C971.961 65.848 970.249 65.592 968.985 65.032C967.225 64.264 966.009 60.632 965.337 54.136C965.065 51.592 964.961 49.744 965.025 48.592C965.121 46.544 965.345 45.168 965.697 44.464C966.257 43.328 967.377 42.552 969.057 42.136C970.369 41.816 971.577 41.656 972.681 41.656C973.241 41.656 973.793 41.704 974.337 41.8C975.777 42.056 977.057 42.464 978.177 43.024C979.313 43.584 980.209 44.272 980.865 45.088C981.361 45.696 981.921 46.704 982.545 48.112C982.577 48.208 982.625 48.296 982.689 48.376C983.489 50.328 983.889 52.408 983.889 54.616ZM973.785 47.968C973.257 47.856 972.761 47.8 972.297 47.8C971.785 47.8 971.353 47.88 971.001 48.04C970.313 48.36 969.873 49.504 969.681 51.472C969.569 52.8 969.569 54.128 969.681 55.456C969.809 56.928 969.953 57.984 970.113 58.624C970.289 59.248 970.705 59.736 971.361 60.088C971.937 60.392 972.585 60.544 973.305 60.544C973.833 60.544 974.393 60.456 974.985 60.28C976.249 59.896 977.177 59.232 977.769 58.288C978.265 57.488 978.569 56.368 978.681 54.928C978.793 53.488 978.353 52.048 977.361 50.608C976.369 49.152 975.177 48.272 973.785 47.968ZM996.631 55.936C997.271 52.384 997.767 49.928 998.119 48.568C999.031 44.92 999.991 42.864 1001 42.4C1001.73 42.064 1002.41 41.896 1003.04 41.896C1004.19 41.896 1005.15 42.64 1005.92 44.128C1006.54 45.328 1006.92 47.384 1007.05 50.296C1007.17 53.208 1007.26 55.392 1007.31 56.848C1007.42 59.264 1007.45 61.032 1007.41 62.152C1007.33 64.312 1006.69 65.392 1005.49 65.392C1005.2 65.392 1004.87 65.296 1004.5 65.104C1003.69 64.688 1003.12 63.776 1002.8 62.368C1002.67 61.792 1002.53 60.664 1002.39 58.984C1002.33 58.136 1002.25 56.816 1002.17 55.024C1002.13 53.904 1002.13 51.728 1002.2 48.496C1001.67 50.32 1001.26 52.376 1000.97 54.664C1000.21 60.856 999.503 64.112 998.863 64.432C998.175 64.784 997.647 64.96 997.279 64.96C996.879 64.96 996.383 64.816 995.791 64.528C994.991 64.16 994.527 63.52 994.399 62.608C994.223 61.28 993.959 59.728 993.607 57.952C993.383 56.832 993.063 55.296 992.647 53.344C992.231 51.376 991.679 49.672 990.991 48.232C990.767 49.032 990.759 50.792 990.967 53.512C991.159 56.52 991.303 58.848 991.398 60.496C991.511 62.352 991.551 63.384 991.519 63.592C991.359 64.728 990.703 65.44 989.551 65.728C989.359 65.776 989.199 65.8 989.071 65.8C988.479 65.8 987.903 65.488 987.343 64.864C986.607 64.064 986.295 61.976 986.407 58.6C986.503 55.336 986.503 53.24 986.407 52.312C986.311 51.464 986.231 50.112 986.167 48.256C986.103 46.608 986.335 45.2 986.863 44.032C987.535 42.544 988.631 41.8 990.151 41.8C990.439 41.8 990.775 41.832 991.159 41.896C993.015 42.2 994.279 43.376 994.951 45.424C995.831 48.128 996.391 51.632 996.631 55.936ZM1019.05 41.8C1022.07 42.072 1024.16 44.552 1025.31 49.24C1025.57 50.264 1025.88 52.104 1026.25 54.76C1026.54 56.824 1026.68 58.712 1026.68 60.424C1026.68 61.592 1026.53 62.664 1026.23 63.64C1025.79 65.08 1025.12 65.8 1024.21 65.8C1023.38 65.8 1022.76 65.616 1022.36 65.248C1021.96 64.88 1021.71 64.272 1021.59 63.424C1021.48 62.592 1021.41 61.24 1021.38 59.368C1021.35 57.592 1021.25 56.224 1021.09 55.264C1020.71 52.88 1020.09 51.672 1019.24 51.64C1018.36 51.608 1017.68 51.672 1017.2 51.832C1016.24 52.152 1015.65 52.952 1015.43 54.232C1015.31 54.856 1015.3 55.928 1015.38 57.448C1015.49 59.784 1015.6 61.408 1015.71 62.32C1015.75 62.576 1015.76 62.792 1015.76 62.968C1015.76 64.888 1014.97 65.848 1013.39 65.848C1013.23 65.848 1013.02 65.832 1012.76 65.8C1011.48 65.64 1010.64 64.912 1010.24 63.616C1009.99 62.8 1009.91 61.6 1010 60.016C1010.15 57.536 1010.23 56.056 1010.27 55.576C1010.35 54.408 1010.64 52.528 1011.15 49.936C1011.6 47.68 1012.05 45.984 1012.5 44.848C1012.93 43.776 1013.69 42.976 1014.78 42.448C1015.72 41.984 1016.83 41.752 1018.09 41.752C1018.38 41.752 1018.7 41.768 1019.05 41.8ZM1020.2 47.344C1020.23 47.232 1020.25 47.112 1020.25 46.984C1020.25 45.928 1019.58 45.352 1018.23 45.256C1017.37 45.192 1016.67 45.432 1016.15 45.976C1015.79 46.328 1015.62 46.672 1015.62 47.008C1015.62 47.168 1015.67 47.344 1015.79 47.536C1016.04 47.968 1016.42 48.232 1016.91 48.328C1017.07 48.36 1017.55 48.376 1018.35 48.376C1019.35 48.376 1019.96 48.032 1020.2 47.344ZM1047.97 47.704C1047.91 48.584 1047.7 49.488 1047.35 50.416C1046.63 52.288 1045.28 53.432 1043.29 53.848C1042.89 53.928 1041.95 54.04 1040.46 54.184C1039.79 54.248 1039.1 54.28 1038.4 54.28C1037.13 54.28 1035.84 54.168 1034.51 53.944C1034.64 57.56 1034.8 59.76 1034.99 60.544C1035.15 61.216 1035.25 61.856 1035.3 62.464C1035.35 63.184 1035.31 63.76 1035.18 64.192C1035.07 64.736 1034.72 65.168 1034.12 65.488C1033.55 65.808 1032.99 65.912 1032.44 65.8C1031.34 65.576 1030.69 64.36 1030.5 62.152C1030.4 61.048 1030.34 60.216 1030.31 59.656C1030.13 57.976 1030.03 56.328 1030 54.712V49.768C1030 48.632 1030.16 47.456 1030.48 46.24C1031.02 44.176 1032.53 42.824 1035.01 42.184C1035.99 41.928 1037.62 41.8 1039.91 41.8C1042.1 41.8 1043.85 42.192 1045.16 42.976C1046.17 43.584 1046.89 44.224 1047.32 44.896C1047.84 45.68 1048.05 46.616 1047.97 47.704ZM1040.1 50.056C1040.9 49.544 1041.3 48.952 1041.3 48.28C1041.3 47.88 1041.16 47.464 1040.87 47.032C1040.23 46.056 1039.27 45.568 1037.99 45.568C1037.62 45.568 1037.29 45.592 1037 45.64C1035.21 45.928 1034.36 46.96 1034.44 48.736C1034.48 49.92 1035.46 50.544 1037.36 50.608C1038.4 50.64 1039.07 50.592 1039.36 50.464L1039.84 50.248C1039.96 50.168 1040.05 50.104 1040.1 50.056Z" fill="black"/>
<path d="M1089.11 47.704C1089.05 48.584 1088.84 49.488 1088.49 50.416C1087.77 52.288 1086.42 53.432 1084.43 53.848C1084.03 53.928 1083.09 54.04 1081.6 54.184C1080.93 54.248 1080.24 54.28 1079.54 54.28C1078.27 54.28 1076.98 54.168 1075.65 53.944C1075.78 57.56 1075.94 59.76 1076.13 60.544C1076.29 61.216 1076.39 61.856 1076.44 62.464C1076.49 63.184 1076.45 63.76 1076.32 64.192C1076.21 64.736 1075.86 65.168 1075.26 65.488C1074.69 65.808 1074.13 65.912 1073.58 65.8C1072.48 65.576 1071.83 64.36 1071.64 62.152C1071.54 61.048 1071.48 60.216 1071.45 59.656C1071.27 57.976 1071.17 56.328 1071.14 54.712V49.768C1071.14 48.632 1071.3 47.456 1071.62 46.24C1072.16 44.176 1073.67 42.824 1076.15 42.184C1077.13 41.928 1078.76 41.8 1081.05 41.8C1083.24 41.8 1084.99 42.192 1086.3 42.976C1087.31 43.584 1088.03 44.224 1088.46 44.896C1088.98 45.68 1089.19 46.616 1089.11 47.704ZM1081.24 50.056C1082.04 49.544 1082.44 48.952 1082.44 48.28C1082.44 47.88 1082.3 47.464 1082.01 47.032C1081.37 46.056 1080.41 45.568 1079.13 45.568C1078.76 45.568 1078.43 45.592 1078.14 45.64C1076.35 45.928 1075.5 46.96 1075.58 48.736C1075.62 49.92 1076.6 50.544 1078.5 50.608C1079.54 50.64 1080.21 50.592 1080.5 50.464L1080.98 50.248C1081.1 50.168 1081.19 50.104 1081.24 50.056ZM1100.08 41.8C1103.1 42.072 1105.19 44.552 1106.34 49.24C1106.6 50.264 1106.91 52.104 1107.28 54.76C1107.57 56.824 1107.71 58.712 1107.71 60.424C1107.71 61.592 1107.56 62.664 1107.26 63.64C1106.82 65.08 1106.15 65.8 1105.24 65.8C1104.41 65.8 1103.79 65.616 1103.39 65.248C1102.99 64.88 1102.74 64.272 1102.62 63.424C1102.51 62.592 1102.44 61.24 1102.41 59.368C1102.38 57.592 1102.28 56.224 1102.12 55.264C1101.74 52.88 1101.12 51.672 1100.27 51.64C1099.39 51.608 1098.71 51.672 1098.23 51.832C1097.27 52.152 1096.68 52.952 1096.46 54.232C1096.34 54.856 1096.33 55.928 1096.41 57.448C1096.52 59.784 1096.63 61.408 1096.74 62.32C1096.78 62.576 1096.79 62.792 1096.79 62.968C1096.79 64.888 1096 65.848 1094.42 65.848C1094.26 65.848 1094.05 65.832 1093.79 65.8C1092.51 65.64 1091.67 64.912 1091.27 63.616C1091.02 62.8 1090.94 61.6 1091.03 60.016C1091.18 57.536 1091.26 56.056 1091.3 55.576C1091.38 54.408 1091.67 52.528 1092.18 49.936C1092.63 47.68 1093.08 45.984 1093.53 44.848C1093.96 43.776 1094.72 42.976 1095.81 42.448C1096.75 41.984 1097.86 41.752 1099.12 41.752C1099.41 41.752 1099.73 41.768 1100.08 41.8ZM1101.23 47.344C1101.26 47.232 1101.28 47.112 1101.28 46.984C1101.28 45.928 1100.61 45.352 1099.26 45.256C1098.4 45.192 1097.7 45.432 1097.18 45.976C1096.82 46.328 1096.65 46.672 1096.65 47.008C1096.65 47.168 1096.7 47.344 1096.82 47.536C1097.07 47.968 1097.45 48.232 1097.94 48.328C1098.1 48.36 1098.58 48.376 1099.38 48.376C1100.38 48.376 1100.99 48.032 1101.23 47.344ZM1112.2 43.312C1113.1 42.528 1115.07 42.024 1118.13 41.8C1119.83 41.672 1121.79 41.784 1124.01 42.136C1126.33 42.504 1127.71 43.664 1128.16 45.616C1128.37 46.528 1128.47 47.296 1128.47 47.92C1128.47 48.736 1128.31 49.424 1127.99 49.984C1126.67 52.272 1124.4 53.432 1121.2 53.464C1120.72 53.464 1120.02 53.432 1119.09 53.368C1118.16 53.288 1117.47 53.248 1117.03 53.248C1116.85 53.248 1116.76 53.304 1116.76 53.416C1116.76 53.592 1116.94 53.872 1117.29 54.256C1118.47 55.52 1119.45 56.616 1120.22 57.544C1121.32 58.856 1122.15 59.832 1122.71 60.472C1123.87 61.88 1124.44 62.944 1124.44 63.664C1124.44 64.432 1124.03 65.016 1123.19 65.416C1122.89 65.56 1122.59 65.632 1122.28 65.632C1121.29 65.632 1120.28 65.088 1119.26 64C1118.51 63.184 1117.84 62.208 1117.27 61.072L1114.36 55.24C1114.7 58.536 1114.86 60.528 1114.84 61.216C1114.83 62.448 1114.83 63.128 1114.84 63.256C1114.84 63.656 1114.75 64.088 1114.55 64.552C1114.36 65.016 1114.09 65.336 1113.74 65.512C1113.48 65.64 1113.06 65.736 1112.47 65.8C1111.35 65.928 1110.79 65 1110.79 63.016C1110.72 62.648 1110.67 62.208 1110.64 61.696C1110.4 57.92 1110.29 54.728 1110.31 52.12C1110.32 50.328 1110.35 49.088 1110.38 48.4C1110.52 45.744 1111.13 44.048 1112.2 43.312ZM1119.98 46.024C1119.35 45.736 1118.74 45.592 1118.13 45.592C1117.51 45.592 1116.94 45.76 1116.43 46.096C1115.67 46.576 1115.29 47.256 1115.27 48.136C1115.26 49.288 1115.87 49.896 1117.1 49.96C1119.51 50.088 1120.85 49.56 1121.11 48.376C1121.35 47.256 1120.97 46.472 1119.98 46.024ZM1147.8 47.104C1146.81 47.552 1145.57 47.776 1144.08 47.776C1143.58 47.776 1143.06 47.752 1142.5 47.704C1143.09 52.696 1143.48 56.48 1143.67 59.056C1143.82 61.04 1143.89 62.184 1143.89 62.488C1143.81 64.104 1143.36 65.072 1142.54 65.392C1141.98 65.552 1141.42 65.64 1140.86 65.656C1140.24 65.672 1139.66 65.52 1139.14 65.2C1138.56 64.832 1138.25 64.352 1138.2 63.76C1138.12 62.848 1138.08 61.72 1138.08 60.376C1138.06 58.28 1138.06 56.512 1138.08 55.072C1138.1 53.2 1138.07 51.776 1138.01 50.8L1137.82 47.848C1136.25 48.024 1135.07 48.088 1134.29 48.04C1133.74 48.008 1133.26 47.936 1132.82 47.824C1132.15 47.488 1131.7 47.176 1131.48 46.888C1131.06 46.472 1130.86 46.016 1130.86 45.52C1130.86 44.96 1131.06 44.392 1131.48 43.816C1131.9 43.24 1132.51 42.896 1133.33 42.784C1135.89 42.416 1138.3 42.216 1140.58 42.184C1141.31 42.168 1142.75 42.152 1144.9 42.136C1146.22 42.12 1147.2 42.256 1147.82 42.544C1149.09 43.12 1149.72 44.04 1149.72 45.304C1149.72 45.928 1149.08 46.528 1147.8 47.104ZM1156.86 42.376C1158.18 42.824 1159.48 44.288 1160.74 46.768C1161.32 47.904 1162.1 49.824 1163.07 52.528C1163.68 54.272 1164.14 55.576 1164.44 56.44C1165.08 58.216 1165.62 59.48 1166.05 60.232C1166.14 60.408 1166.24 60.496 1166.34 60.496C1166.46 60.496 1166.54 60.216 1166.58 59.656C1166.64 58.696 1166.54 56.64 1166.29 53.488C1166.03 50.336 1165.92 47.584 1165.95 45.232C1165.98 42.944 1166.87 41.8 1168.62 41.8C1170.76 41.8 1171.83 43.544 1171.83 47.032C1171.83 47.464 1171.81 48.112 1171.76 48.976C1171.71 49.84 1171.69 50.488 1171.69 50.92C1171.69 55.208 1171.41 58.76 1170.85 61.576C1170.61 62.776 1170.32 63.648 1169.98 64.192C1169.52 64.944 1168.77 65.424 1167.73 65.632C1167.41 65.696 1167.07 65.728 1166.72 65.728C1165.86 65.728 1165.1 65.48 1164.46 64.984C1162.96 63.816 1161.38 60.976 1159.71 56.464C1158.88 54.208 1158.3 52.576 1157.96 51.568C1157.53 50.256 1157.1 49.6 1156.69 49.6C1156.61 49.6 1156.54 49.624 1156.47 49.672C1155.85 49.992 1155.54 50.664 1155.54 51.688C1155.54 51.912 1155.54 52.112 1155.56 52.288C1155.94 56.432 1156.33 59.376 1156.71 61.12C1156.86 61.776 1156.93 62.344 1156.93 62.824C1156.93 63.592 1156.76 64.256 1156.42 64.816C1156.02 65.472 1155.46 65.8 1154.74 65.8C1153.61 65.8 1152.84 65.424 1152.44 64.672C1151.82 63.52 1151.5 60.64 1151.5 56.032C1151.5 52.704 1151.49 50.72 1151.46 50.08C1151.42 49.424 1151.41 48.768 1151.41 48.112C1151.41 45.952 1151.6 44.552 1151.98 43.912C1152.75 42.616 1153.69 41.968 1154.79 41.968C1155.35 41.968 1156.04 42.104 1156.86 42.376ZM1188.1 45.976C1187.77 46.648 1187.29 47.072 1186.66 47.248C1186.34 47.344 1185.68 47.4 1184.67 47.416C1183.76 47.432 1182.92 47.432 1182.15 47.416C1181.4 47.4 1180.63 47.536 1179.85 47.824C1179.14 48.08 1178.68 48.504 1178.46 49.096C1178.36 49.32 1178.25 49.952 1178.12 50.992C1178.12 51.36 1178.16 52.048 1178.24 53.056C1178.43 54.096 1178.95 54.664 1179.8 54.76C1180.33 54.824 1181.06 54.832 1182.01 54.784C1182.97 54.736 1183.74 54.728 1184.34 54.76L1186.04 54.856C1186.57 54.888 1187.04 55.048 1187.46 55.336C1187.94 55.672 1188.18 56.088 1188.18 56.584C1188.18 56.808 1188.14 57.16 1188.08 57.64C1188.02 57.832 1187.86 58.048 1187.62 58.288C1187.02 58.672 1186.16 58.808 1185.06 58.696C1183.84 58.568 1182.94 58.488 1182.34 58.456C1181.48 58.408 1180.95 58.368 1180.76 58.336C1180.52 58.304 1180.3 58.288 1180.11 58.288C1179.92 58.288 1179.75 58.304 1179.61 58.336C1179.14 58.336 1178.83 58.696 1178.67 59.416C1178.51 60.104 1178.59 60.584 1178.91 60.856C1179.33 61.208 1179.73 61.416 1180.11 61.48C1181.57 61.72 1182.86 61.792 1184 61.696C1186.11 61.52 1187.34 61.928 1187.67 62.92C1187.74 63.128 1187.77 63.352 1187.77 63.592C1187.77 65.064 1186.84 65.8 1184.98 65.8C1184.76 65.8 1184.15 65.752 1183.16 65.656C1180.41 65.432 1178.74 65.272 1178.17 65.176C1175.62 64.728 1174.33 63.184 1174.28 60.544C1174.23 57.888 1174.14 55.584 1173.99 53.632C1173.93 52.8 1173.9 52.072 1173.9 51.448C1173.9 49.752 1174.06 48.032 1174.4 46.288C1174.85 43.936 1176.7 42.512 1179.94 42.016C1180.98 41.856 1181.76 41.784 1182.27 41.8C1183.92 41.864 1185.4 42.112 1186.71 42.544C1187.18 42.752 1187.56 43.16 1187.86 43.768C1188.17 44.36 1188.28 44.912 1188.2 45.424C1188.15 45.744 1188.12 45.928 1188.1 45.976ZM1193.46 43.312C1194.36 42.528 1196.33 42.024 1199.39 41.8C1201.08 41.672 1203.04 41.784 1205.27 42.136C1207.59 42.504 1208.97 43.664 1209.42 45.616C1209.63 46.528 1209.73 47.296 1209.73 47.92C1209.73 48.736 1209.57 49.424 1209.25 49.984C1207.92 52.272 1205.66 53.432 1202.46 53.464C1201.98 53.464 1201.28 53.432 1200.35 53.368C1199.42 53.288 1198.73 53.248 1198.28 53.248C1198.11 53.248 1198.02 53.304 1198.02 53.416C1198.02 53.592 1198.2 53.872 1198.55 54.256C1199.73 55.52 1200.71 56.616 1201.48 57.544C1202.58 58.856 1203.41 59.832 1203.97 60.472C1205.12 61.88 1205.7 62.944 1205.7 63.664C1205.7 64.432 1205.28 65.016 1204.45 65.416C1204.15 65.56 1203.84 65.632 1203.54 65.632C1202.55 65.632 1201.54 65.088 1200.52 64C1199.76 63.184 1199.1 62.208 1198.52 61.072L1195.62 55.24C1195.96 58.536 1196.12 60.528 1196.1 61.216C1196.08 62.448 1196.08 63.128 1196.1 63.256C1196.1 63.656 1196 64.088 1195.81 64.552C1195.62 65.016 1195.35 65.336 1195 65.512C1194.74 65.64 1194.32 65.736 1193.72 65.8C1192.6 65.928 1192.04 65 1192.04 63.016C1191.98 62.648 1191.93 62.208 1191.9 61.696C1191.66 57.92 1191.55 54.728 1191.56 52.12C1191.58 50.328 1191.6 49.088 1191.64 48.4C1191.78 45.744 1192.39 44.048 1193.46 43.312ZM1201.24 46.024C1200.61 45.736 1200 45.592 1199.39 45.592C1198.76 45.592 1198.2 45.76 1197.68 46.096C1196.93 46.576 1196.55 47.256 1196.53 48.136C1196.52 49.288 1197.12 49.896 1198.36 49.96C1200.77 50.088 1202.11 49.56 1202.36 48.376C1202.6 47.256 1202.23 46.472 1201.24 46.024ZM1229.9 58.528C1229.95 59.328 1229.8 60.192 1229.47 61.12C1229.15 62.064 1228.85 62.648 1228.58 62.872C1228.1 63.272 1227.73 63.56 1227.47 63.736C1227.03 64.04 1226.61 64.264 1226.23 64.408C1225.14 64.824 1223.43 65.184 1221.09 65.488C1220.03 65.632 1219.25 65.672 1218.74 65.608C1217.63 65.496 1216.8 65.408 1216.24 65.344C1215.43 65.216 1214.67 64.848 1213.96 64.24C1213.4 63.76 1213.12 63.12 1213.12 62.32C1213.12 62 1213.17 61.648 1213.27 61.264C1213.55 60.144 1214.35 59.584 1215.67 59.584C1215.91 59.584 1216.15 59.6 1216.41 59.632C1217.83 59.808 1218.91 59.968 1219.63 60.112C1220.04 60.08 1220.43 60.064 1220.78 60.064C1221.96 60.08 1222.87 59.992 1223.51 59.8C1224.62 59.48 1225.13 58.848 1225.05 57.904C1224.95 56.88 1224.07 56.192 1222.41 55.84C1221.75 55.696 1220.51 55.592 1218.69 55.528C1216.66 55.448 1215.12 55.064 1214.08 54.376C1212.82 53.544 1212.08 52.184 1211.87 50.296C1211.84 49.992 1211.83 49.664 1211.83 49.312C1211.83 48.08 1212.11 46.928 1212.67 45.856C1213.23 44.768 1213.88 43.968 1214.63 43.456C1215.32 42.976 1216.31 42.616 1217.59 42.376C1219.44 42.04 1220.98 41.872 1222.19 41.872C1222.5 41.872 1222.78 41.88 1223.03 41.896L1225.48 42.136C1226.86 42.28 1227.55 42.968 1227.55 44.2C1227.55 44.584 1227.47 44.968 1227.33 45.352C1227.09 45.992 1226.3 46.312 1224.95 46.312C1224.63 46.312 1224.23 46.288 1223.75 46.24C1222.97 46.16 1222.21 46.12 1221.47 46.12C1220.37 46.12 1219.41 46.216 1218.59 46.408C1217.25 46.728 1216.52 47.504 1216.41 48.736C1216.31 49.84 1216.6 50.64 1217.27 51.136C1217.77 51.52 1218.62 51.776 1219.82 51.904C1220.86 51.952 1221.79 51.992 1222.6 52.024C1224.89 52.104 1226.59 52.56 1227.69 53.392C1228.25 53.824 1228.75 54.608 1229.2 55.744C1229.6 56.752 1229.83 57.68 1229.9 58.528Z" fill="black"/>
<g clip-path="url(#clip0_67_175)">
<path d="M40.3716 45.907L58.9936 70.8005H63.2105L44.5884 45.907H40.3716Z" fill="black"/>
<path d="M51.7543 32.8828C37.687 32.8828 26.2834 44.2864 26.2834 58.3537C26.2834 72.421 37.687 83.8246 51.7543 83.8246C65.8216 83.8246 77.2252 72.421 77.2252 58.3537C77.2252 44.2864 65.8216 32.8828 51.7543 32.8828ZM57.9987 72.7895L49.5208 61.4538L39.028 72.7895H36.3309L48.3158 59.8423L36.4061 43.9179H45.5853L53.393 54.3576L63.0561 43.9179H65.7531L54.598 55.9696L67.1778 72.7895H57.9987Z" fill="black"/>
</g>
<path d="M108.104 79.1899C106.544 79.1899 106.809 78.6012 106.271 77.1144L101.682 62.0133L137.005 41.0571" fill="black"/>
<path d="M108.104 79.1902C109.308 79.1902 109.84 78.64 110.513 77.986L116.935 71.7413L108.924 66.9106" fill="black"/>
<path d="M108.923 66.9115L128.335 81.2526C130.551 82.475 132.149 81.8424 132.701 79.1964L140.603 41.9617C141.412 38.7184 139.366 37.2466 137.247 38.2089L90.8485 56.0994C87.6812 57.37 87.7005 59.1372 90.2716 59.924L102.179 63.6404L129.743 46.2497C131.045 45.4608 132.24 45.8847 131.259 46.7549L108.923 66.9115Z" fill="black"/>
<g clip-path="url(#clip1_67_175)">
<path fill-rule="evenodd" clip-rule="evenodd" d="M187.605 33.5951C190.809 35.1016 193.431 36.3765 193.43 36.4284C193.429 36.5622 185.74 40.0769 185.467 40.0683C185.343 40.0645 184.442 39.6904 183.466 39.2369L181.69 38.4126L179.751 39.3123L177.812 40.2122L174.637 38.9242C169.852 36.9834 169.355 36.7707 169.433 36.6993C169.536 36.6045 171.252 35.7723 175.909 33.5596C178.159 32.4901 180.343 31.4416 180.762 31.2294C181.182 31.0173 181.582 30.8466 181.652 30.8499C181.722 30.8532 184.401 32.0885 187.605 33.5951ZM201.658 40.1638L204.994 41.7189V48.5441C204.994 52.298 204.95 55.3692 204.896 55.3692C204.843 55.3692 203.202 54.7271 201.25 53.9423L197.7 52.5154V45.3212L195.966 46.1741C194.629 46.8308 193.292 47.4861 191.954 48.1401L189.676 49.2532L188.663 48.8395C188.027 48.5797 187.393 48.3173 186.76 48.0524C186.271 47.8468 185.07 47.3586 184.092 46.9674C183.113 46.576 182.208 46.1824 182.079 46.0927C181.909 45.9735 183.989 44.9359 189.773 42.2547C194.134 40.2336 197.841 38.5864 198.012 38.5943C198.183 38.6022 199.824 39.3084 201.658 40.1638ZM168.832 40.6005C171.103 41.5262 172.963 42.3205 172.966 42.3658C172.968 42.4111 171.729 43.0756 170.214 43.8423C168.699 44.6092 167.459 45.2776 167.459 45.3279C167.459 45.3782 168.8 45.9646 170.438 46.6314C172.077 47.298 176.22 48.9867 179.644 50.3839L191.118 55.0654C194.005 56.2431 196.606 57.3046 196.9 57.4246C202.795 59.8335 204.416 60.5019 204.638 60.6167C204.862 60.7322 204.913 61.4033 204.952 64.7716L205 68.7891L202.017 70.1608L199.035 71.5326L194.899 69.8478C192.624 68.9212 190.763 68.1145 190.763 68.0551C190.763 67.9959 191.183 67.7486 191.697 67.5055C192.21 67.2624 193.271 66.7241 194.054 66.3092C194.836 65.8942 195.617 65.5135 195.788 65.463C195.959 65.4126 196.097 65.3246 196.094 65.2671C196.091 65.2098 194.27 64.4289 192.047 63.5317C187.73 61.7893 184.425 60.4463 177.332 57.5508C174.16 56.2563 170.987 54.9626 167.815 53.6697C165.026 52.5336 161.784 51.2068 160.61 50.7212L158.475 49.8383L158.428 45.7752L158.38 41.7122L161.405 40.3106C163.069 39.5398 164.492 38.911 164.566 38.9133C164.641 38.9154 166.56 39.6746 168.832 40.6005ZM159.286 55.2588C159.732 55.4553 160.612 55.8233 161.242 56.0765C161.873 56.3296 163.069 56.8169 163.901 57.1594L165.413 57.7819L165.448 61.349C165.467 63.3108 165.547 64.9073 165.625 64.8969C165.804 64.8729 168.638 63.561 171.487 62.1832C173.543 61.1888 173.672 61.1493 174.156 61.3653C174.435 61.4902 176.104 62.166 177.865 62.8674C179.627 63.5686 181.125 64.1882 181.195 64.2443C181.266 64.3003 177.721 66.0343 173.319 68.0979L165.314 71.8498L161.894 70.2532C160.014 69.3752 158.415 68.5742 158.341 68.4735C158.175 68.247 158.19 54.8703 158.356 54.8884C158.421 54.8955 158.84 55.0622 159.286 55.2588ZM178.221 70.9596C178.814 71.1898 179.407 71.4203 180 71.6511C181.79 72.3502 181.439 72.3734 183.569 71.4164C184.988 70.779 185.599 70.5824 185.865 70.6779C186.064 70.7494 187.777 71.4452 189.672 72.2239C191.567 73.0027 193.184 73.6398 193.264 73.6398C194.059 73.6398 192.737 74.3527 187.636 76.6752L181.654 79.3987L179.137 78.2771C177.753 77.6602 174.961 76.4248 172.932 75.5319C170.904 74.6388 169.269 73.8849 169.3 73.8564C169.331 73.8281 171.03 73.0403 173.077 72.1059L176.798 70.4071L178.221 70.9596Z" fill="black"/>
</g>
<defs>
<clipPath id="clip0_67_175">
<rect width="51.5662" height="51.5662" fill="white" transform="translate(26 32.5994)"/>
</clipPath>
<clipPath id="clip1_67_175">
<rect width="46.8245" height="48.6026" fill="white" transform="matrix(-1 0 0 1 205 30.8213)"/>
</clipPath>
</defs>
</svg>
