<svg width="47" height="50" viewBox="0 0 47 50" fill="none" xmlns="http://www.w3.org/2000/svg">
<g clip-path="url(#clip0_67_195)">
<path fill-rule="evenodd" clip-rule="evenodd" d="M29.605 3.59507C32.8092 5.10165 35.4307 6.37652 35.4301 6.42837C35.4287 6.5622 27.74 10.0769 27.4671 10.0683C27.343 10.0645 26.4424 9.69038 25.466 9.23692L23.6904 8.4126L21.7513 9.31229L19.8122 10.2122L16.6367 8.92418C11.8517 6.9834 11.3548 6.77073 11.4327 6.69928C11.536 6.60448 13.2523 5.77226 17.9086 3.55956C20.159 2.49015 22.3431 1.44161 22.7624 1.22944C23.1817 1.01727 23.5819 0.846597 23.6519 0.849901C23.7218 0.853204 26.4008 2.08854 29.605 3.59507ZM43.6585 10.1638L46.994 11.7189V18.5441C46.994 22.298 46.9502 25.3692 46.8965 25.3692C46.8429 25.3692 45.2018 24.7271 43.2497 23.9423L39.7004 22.5154V15.3212L37.9659 16.1741C36.6294 16.8308 35.2921 17.4861 33.9539 18.1401L31.6764 19.2532L30.663 18.8395C30.0274 18.5797 29.393 18.3173 28.76 18.0524C28.2709 17.8468 27.0701 17.3586 26.0917 16.9674C25.1133 16.576 24.2076 16.1824 24.0792 16.0927C23.9086 15.9735 25.9888 14.9359 31.7734 12.2547C36.1337 10.2336 39.8411 8.58641 40.012 8.59431C40.183 8.6022 41.8239 9.30837 43.6585 10.1638ZM10.8315 10.6005C13.1032 11.5262 14.9635 12.3205 14.9656 12.3658C14.9676 12.4111 13.7294 13.0756 12.214 13.8423C10.6986 14.6092 9.45877 15.2776 9.45877 15.3279C9.45877 15.3782 10.7997 15.9646 12.4384 16.6314C14.0774 17.298 18.2199 18.9867 21.6443 20.3839L33.1184 25.0654C36.0047 26.2431 38.6063 27.3046 38.8998 27.4246C44.7953 29.8335 46.4157 30.5019 46.6382 30.6167C46.862 30.7322 46.9127 31.4033 46.9525 34.7716L47 38.7891L44.0172 40.1608L41.0345 41.5326L36.8986 39.8478C34.6237 38.9212 32.7626 38.1145 32.7626 38.0551C32.7626 37.9959 33.183 37.7486 33.6965 37.5055C34.2103 37.2624 35.2709 36.7241 36.0536 36.3092C36.8363 35.8942 37.6167 35.5135 37.7881 35.463C37.9594 35.4126 38.097 35.3246 38.0942 35.2671C38.0914 35.2098 36.2701 34.4289 34.0472 33.5317C29.7295 31.7893 26.4254 30.4463 19.3318 27.5508C16.1598 26.2563 12.9874 24.9626 9.81455 23.6697C7.02609 22.5336 3.78402 21.2068 2.6099 20.7212L0.475197 19.8383L0.427734 15.7752L0.380032 11.7122L3.40528 10.3106C5.06925 9.53981 6.49152 8.91102 6.56609 8.91332C6.64059 8.91545 8.56003 9.67459 10.8315 10.6005ZM1.28571 25.2588C1.73151 25.4553 2.61207 25.8233 3.2425 26.0765C3.87292 26.3296 5.06925 26.8169 5.90092 27.1594L7.41302 27.7819L7.44751 31.349C7.46656 33.3108 7.54659 34.9073 7.62537 34.8969C7.80435 34.8729 10.6383 33.561 13.4871 32.1832C15.5432 31.1888 15.6724 31.1493 16.1555 31.3653C16.4348 31.4902 18.1043 32.166 19.8654 32.8674C21.6266 33.5686 23.1249 34.1882 23.1954 34.2443C23.2657 34.3003 19.7212 36.0343 15.3185 38.0979L7.31388 41.8498L3.89445 40.2532C2.01397 39.3752 0.414894 38.5742 0.341255 38.4735C0.175491 38.247 0.189697 24.8703 0.355648 24.8884C0.421284 24.8955 0.839912 25.0622 1.28571 25.2588ZM20.2212 40.9596C20.8143 41.1898 21.4073 41.4203 22.0001 41.6511C23.7903 42.3502 23.4394 42.3734 25.5692 41.4164C26.9877 40.779 27.5991 40.5824 27.8645 40.6779C28.0636 40.7494 29.7769 41.4452 31.6721 42.2239C33.5672 43.0027 35.1836 43.6398 35.264 43.6398C36.0591 43.6398 34.7372 44.3527 29.6363 46.6752L23.6542 49.3987L21.1372 48.2771C19.7528 47.6602 16.9606 46.4248 14.9321 45.5319C12.9038 44.6388 11.2693 43.8849 11.2999 43.8564C11.3307 43.8281 13.0303 43.0403 15.0769 42.1059L18.7981 40.4071L20.2212 40.9596Z" fill="black"/>
</g>
<defs>
<clipPath id="clip0_67_195">
<rect width="46.8245" height="48.6026" fill="white" transform="matrix(-1 0 0 1 47 0.821289)"/>
</clipPath>
</defs>
</svg>
