<svg width="237" height="50" viewBox="0 0 237 50" fill="none" xmlns="http://www.w3.org/2000/svg">
<path d="M20.9773 20.376C21.8733 20.44 22.9133 20.584 24.0973 20.808C28.5133 21.672 31.5853 22.696 33.3133 23.88C35.9373 25.672 37.2493 28.488 37.2493 32.328C37.2493 35.656 35.9213 38.264 33.2653 40.152C31.7293 41.272 29.6653 42.264 27.0733 43.128C24.3213 44.088 22.0973 44.504 20.4013 44.376C20.4333 44.632 20.4493 44.888 20.4493 45.144C20.4493 47.8 19.1053 49.128 16.4173 49.128C15.1053 49.128 14.1933 48.712 13.6813 47.88C13.2653 47.272 13.0253 46.264 12.9613 44.856C10.0173 44.728 7.92125 44.424 6.67325 43.944C4.43325 43.08 3.31325 41.496 3.31325 39.192C3.31325 38.072 4.17725 37.224 5.90525 36.648C8.88125 37.032 10.9933 37.224 12.2413 37.224C12.5613 37.224 12.8333 37.208 13.0573 37.176C13.0893 36.856 13.1693 35.512 13.2973 33.144C13.2973 33.112 13.3773 32.104 13.5373 30.12C13.6333 28.904 13.6813 27.912 13.6813 27.144C11.8573 27.048 9.98525 26.776 8.06525 26.328C5.56925 25.752 3.88925 25.064 3.02525 24.264C1.16925 22.536 0.24125 20.6 0.24125 18.456C0.24125 14.616 1.08925 11.928 2.78525 10.392C5.72925 7.736 9.31325 6.2 13.5373 5.784C13.8573 4.6 14.1773 3.4 14.4973 2.184C15.0733 0.807998 15.9533 0.119997 17.1373 0.119997C18.3853 0.119997 19.4093 0.759997 20.2093 2.04C20.8813 3.096 21.2813 4.312 21.4093 5.688C23.2333 5.752 24.5613 5.848 25.3933 5.976C26.8333 6.136 28.1293 6.44 29.2812 6.888C31.3293 7.688 32.3533 8.632 32.3533 9.72C32.3533 11.352 31.9053 12.296 31.0093 12.552C29.6973 12.936 28.1613 13.128 26.4012 13.128C24.8653 13.128 23.2173 13.048 21.4573 12.888C21.3293 14.392 21.1693 16.888 20.9773 20.376ZM14.1133 16.776C14.1133 15.752 14.0333 14.536 13.8733 13.128C11.6973 13.064 9.96925 13.512 8.68925 14.472C7.66525 15.208 7.15325 16.072 7.15325 17.064C7.15325 18.888 8.65725 19.8 11.6653 19.8C12.5613 19.8 13.0093 19.8 13.0093 19.8C13.2013 19.8 13.4253 19.784 13.6813 19.752C13.9053 19.752 14.0333 19.752 14.0653 19.752C14.0653 19.656 14.0653 19.464 14.0653 19.176C14.0973 18.792 14.1133 18.488 14.1133 18.264C14.1133 18.264 14.1133 17.768 14.1133 16.776ZM20.5933 26.904C20.3373 28.408 20.2093 31.752 20.2093 36.936C23.6333 36.648 25.7293 36.344 26.4973 36.024C28.3853 35.224 29.3293 33.48 29.3293 30.792C29.3293 30.024 28.7533 29.304 27.6013 28.632C25.8093 27.576 23.4733 27 20.5933 26.904ZM76.8118 34.056C76.9078 35.656 76.6198 37.384 75.9478 39.24C75.3078 41.128 74.7158 42.296 74.1718 42.744C73.2118 43.544 72.4758 44.12 71.9638 44.472C71.0678 45.08 70.2358 45.528 69.4678 45.816C67.2918 46.648 63.8678 47.368 59.1958 47.976C57.0838 48.264 55.5158 48.344 54.4918 48.216C52.2838 47.992 50.6198 47.816 49.4998 47.688C47.8678 47.432 46.3478 46.696 44.9398 45.48C43.8198 44.52 43.2598 43.24 43.2598 41.64C43.2598 41 43.3558 40.296 43.5478 39.528C44.1238 37.288 45.7238 36.168 48.3478 36.168C48.8278 36.168 49.3238 36.2 49.8358 36.264C52.6838 36.616 54.8278 36.936 56.2678 37.224C57.0998 37.16 57.8678 37.128 58.5718 37.128C60.9398 37.16 62.7638 36.984 64.0438 36.6C66.2518 35.96 67.2758 34.696 67.1158 32.808C66.9238 30.76 65.1638 29.384 61.8358 28.68C60.5238 28.392 58.0438 28.184 54.3958 28.056C50.3318 27.896 47.2598 27.128 45.1797 25.752C42.6518 24.088 41.1798 21.368 40.7638 17.592C40.6998 16.984 40.6678 16.328 40.6678 15.624C40.6678 13.16 41.2278 10.856 42.3478 8.712C43.4678 6.536 44.7798 4.936 46.2838 3.912C47.6598 2.952 49.6278 2.232 52.1878 1.752C55.8998 1.08 58.9718 0.743998 61.4038 0.743998C62.0118 0.743998 62.5718 0.759997 63.0837 0.791997L67.9798 1.272C70.7318 1.56 72.1078 2.936 72.1078 5.4C72.1078 6.168 71.9638 6.936 71.6758 7.704C71.1958 8.984 69.6118 9.624 66.9238 9.624C66.2838 9.624 65.4838 9.576 64.5238 9.48C62.9558 9.32 61.4358 9.24 59.9638 9.24C57.7558 9.24 55.8358 9.432 54.2038 9.816C51.5158 10.456 50.0598 12.008 49.8358 14.472C49.6438 16.68 50.2198 18.28 51.5638 19.272C52.5558 20.04 54.2518 20.552 56.6518 20.808C58.7318 20.904 60.5878 20.984 62.2198 21.048C66.7958 21.208 70.1878 22.12 72.3958 23.784C73.5158 24.648 74.5238 26.216 75.4198 28.488C76.2198 30.504 76.6838 32.36 76.8118 34.056ZM101.137 0.599999C103.089 0.759999 104.561 0.967999 105.553 1.224C107.025 1.64 108.353 2.328 109.537 3.288C110.881 4.408 111.809 5.592 112.321 6.84C113.249 9.08 113.809 11.24 114.001 13.32L114.481 18.216C114.673 20.168 114.785 21.816 114.817 23.16C114.849 25.272 114.705 27.864 114.385 30.936C116.561 31.512 118.913 32.264 121.441 33.192C121.921 33.448 122.273 33.912 122.497 34.584C122.721 35.224 122.801 35.848 122.737 36.456C122.737 36.872 122.689 37.176 122.593 37.368C122.497 37.688 122.401 37.992 122.305 38.28C122.177 38.824 121.681 39.24 120.817 39.528C119.985 39.848 119.265 39.96 118.657 39.864C118.081 39.864 117.617 39.8 117.265 39.672C114.993 39.192 113.745 38.92 113.521 38.856H113.377V39.048C113.185 40.008 112.753 41.272 112.081 42.84C110.993 45.336 108.801 46.968 105.505 47.736C102.657 48.376 100.305 48.648 98.4489 48.552C95.3129 48.36 92.5129 48.024 90.0489 47.544C86.3049 46.808 83.9529 44.84 82.9929 41.64C82.8649 41.192 82.5929 39.608 82.1769 36.888C81.8249 34.456 81.6009 31.592 81.5049 28.296C81.4729 25.448 81.4409 22.584 81.4089 19.704C81.3769 16.888 82.0009 13.24 83.2809 8.76C84.8489 3.224 89.7449 0.455998 97.9689 0.455998C98.9609 0.455998 100.017 0.503999 101.137 0.599999ZM106.129 29.112C106.129 17.912 104.417 11.784 100.993 10.728C99.4569 10.248 97.3289 10.248 94.6089 10.728C91.7929 11.24 90.0649 14.408 89.4249 20.232C89.0409 23.592 89.0409 27.656 89.4249 32.424C89.8089 37.128 91.9689 39.768 95.9049 40.344C97.4089 40.568 98.6889 40.68 99.7449 40.68C101.569 40.68 102.817 40.392 103.489 39.816C104.609 38.888 105.169 38.072 105.169 37.368C102.577 37.048 100.001 36.488 97.4409 35.688C96.4169 35.368 95.5689 34.888 94.8969 34.248C94.2249 33.576 94.0649 32.904 94.4169 32.232C94.8969 30.632 95.6649 29.736 96.7209 29.544C98.3209 29.256 100.065 29.24 101.953 29.496C104.225 29.784 105.617 29.96 106.129 30.024V29.112ZM163.581 35.736C163.229 42.36 159.661 46.296 152.877 47.544C150.445 47.992 148.269 48.216 146.349 48.216C142.413 48.216 138.749 47.08 135.357 44.808C132.669 43.016 131.005 40.52 130.365 37.32C130.077 35.88 129.677 32.536 129.165 27.288L127.917 14.52C127.757 12.888 127.677 11.352 127.677 9.912C127.677 7.352 127.965 5.464 128.541 4.248C129.437 2.392 130.941 1.496 133.053 1.56C135.421 1.656 137.005 2.52 137.805 4.152C138.285 5.112 138.605 7.032 138.765 9.912C138.893 11.864 138.893 14.904 138.765 19.032C138.669 23.032 138.701 26.072 138.861 28.152C139.117 31.608 139.533 33.864 140.109 34.92C141.229 36.968 143.485 38.136 146.877 38.424C148.253 38.552 149.581 38.12 150.861 37.128C152.173 36.104 152.989 33.288 153.309 28.68C153.405 26.536 153.549 23.32 153.741 19.032C153.869 16.344 153.821 12.856 153.597 8.568C153.373 4.344 154.765 2.04 157.773 1.656C158.253 1.592 158.685 1.56 159.069 1.56C161.213 1.56 162.829 2.408 163.917 4.104C164.845 5.544 165.309 7.384 165.309 9.624C165.309 10.52 165.245 11.368 165.117 12.168C164.605 15.4 164.253 19.32 164.061 23.928L163.581 35.736ZM187.438 1.32C190.606 2.216 192.43 3.448 192.91 5.016C193.134 5.752 193.246 6.472 193.246 7.176C193.246 8.04 193.07 8.84 192.718 9.576C192.014 11.08 191.182 12.088 190.222 12.6C189.582 12.952 188.702 13.128 187.582 13.128C186.974 13.128 186.286 13.08 185.518 12.984C185.678 14.776 185.758 16.68 185.758 18.696C185.758 20.296 185.902 23.064 186.19 27C186.446 30.648 186.542 33.4 186.478 35.256C186.446 36.088 186.446 36.712 186.478 37.128C186.51 38.184 186.686 38.664 187.006 38.568C191.166 38.056 193.55 39.064 194.158 41.592C194.254 42.008 194.302 42.408 194.302 42.792C194.302 44.712 193.262 46.184 191.182 47.208C189.678 47.976 187.806 48.44 185.566 48.6C182.174 48.856 179.614 48.792 177.886 48.408C175.55 47.896 173.87 47.224 172.846 46.392C171.406 45.272 170.766 43.656 170.926 41.544C171.15 38.664 172.558 37.224 175.15 37.224C175.63 37.224 176.126 37.288 176.638 37.416C176.702 37.416 177.134 37.496 177.934 37.656C178.062 36.184 178.062 34.04 177.934 31.224C177.806 28.056 177.758 25.896 177.79 24.744C177.854 23.24 177.822 21.272 177.694 18.84C177.566 16.184 177.502 14.216 177.502 12.936C174.334 12.552 172.574 12.328 172.222 12.264C171.55 12.072 170.942 11.576 170.398 10.776C169.758 9.848 169.454 8.184 169.486 5.784C169.518 3.448 171.71 1.896 176.062 1.128C178.078 0.775999 179.966 0.599999 181.726 0.599999C183.806 0.599999 185.71 0.839999 187.438 1.32ZM236.372 26.232C236.372 29.72 235.844 33.16 234.788 36.552C234.404 37.8 233.316 39.528 231.524 41.736C229.156 44.616 225.732 46.696 221.252 47.976C219.908 48.36 218.436 48.568 216.836 48.6C212.516 48.696 209.092 48.184 206.564 47.064C203.044 45.528 200.612 38.264 199.268 25.272C198.724 20.184 198.516 16.488 198.644 14.184C198.836 10.088 199.284 7.336 199.988 5.928C201.108 3.656 203.348 2.104 206.708 1.272C209.332 0.631998 211.748 0.311997 213.956 0.311997C215.076 0.311997 216.18 0.407998 217.268 0.599999C220.148 1.112 222.708 1.928 224.948 3.048C227.22 4.168 229.012 5.544 230.324 7.176C231.316 8.392 232.436 10.408 233.684 13.224C233.748 13.416 233.844 13.592 233.972 13.752C235.572 17.656 236.372 21.816 236.372 26.232ZM216.164 12.936C215.108 12.712 214.116 12.6 213.188 12.6C212.164 12.6 211.3 12.76 210.596 13.08C209.22 13.72 208.34 16.008 207.956 19.944C207.732 22.6 207.732 25.256 207.956 27.912C208.212 30.856 208.5 32.968 208.82 34.248C209.172 35.496 210.004 36.472 211.316 37.176C212.468 37.784 213.764 38.088 215.204 38.088C216.26 38.088 217.38 37.912 218.564 37.56C221.092 36.792 222.948 35.464 224.132 33.576C225.124 31.976 225.732 29.736 225.956 26.856C226.18 23.976 225.3 21.096 223.316 18.216C221.332 15.304 218.948 13.544 216.164 12.936Z" fill="white"/>
</svg>
