<svg width="108" height="77" viewBox="0 0 108 77" fill="none" xmlns="http://www.w3.org/2000/svg">
<g clip-path="url(#clip0_67_162)">
<path d="M40.522 69.6056C37.889 69.6056 38.3369 68.6123 37.4285 66.1039L29.6865 40.626L89.2818 5.26978" fill="black"/>
<path d="M40.5225 69.6057C42.5541 69.6057 43.4517 68.6774 44.5858 67.574L55.4213 57.0383L41.9058 48.8882" fill="white"/>
<path d="M41.9038 48.8899L74.6541 73.0856C78.3923 75.1479 81.0886 74.0806 82.0204 69.6164L95.3517 6.7958C96.717 1.32387 93.2659 -1.15926 89.6901 0.464259L11.4091 30.6484C6.06535 32.792 6.09785 35.7735 10.4357 37.1009L30.5247 43.371L77.0307 14.0303C79.2267 12.6993 81.2421 13.4145 79.5878 14.8827L41.9038 48.8899Z" fill="#FCFDFF"/>
</g>
<defs>
<clipPath id="clip0_67_162">
<rect width="108" height="77" fill="white"/>
</clipPath>
</defs>
</svg>
