<svg width="79" height="82" viewBox="0 0 79 82" fill="none" xmlns="http://www.w3.org/2000/svg">
<g clip-path="url(#clip0_67_168)">
<path fill-rule="evenodd" clip-rule="evenodd" d="M49.6521 4.67968C55.058 7.22151 59.4808 9.37241 59.4798 9.45989C59.4774 9.68569 46.5055 15.6155 46.0451 15.601C45.8356 15.5947 44.3163 14.9634 42.6689 14.1983L39.6733 12.8076L36.4016 14.3255L33.1302 15.8437L27.7725 13.6707C19.6996 10.3963 18.8611 10.0375 18.9926 9.91696C19.1669 9.75701 22.0625 8.35294 29.9185 4.61979C33.7151 2.81552 37.4001 1.04649 38.1076 0.688522C38.8149 0.330559 39.4902 0.0426013 39.6082 0.0481753C39.7261 0.0537493 44.246 2.13795 49.6521 4.67968ZM73.3624 15.7621L78.9898 18.3858V29.9009C78.9898 36.2343 78.916 41.4159 78.8253 41.4159C78.735 41.4159 75.9662 40.3326 72.6727 39.0085L66.6844 36.6011V24.4634L63.7582 25.9025C61.5032 27.0104 59.2469 28.116 56.9893 29.2194L53.1468 31.0972L51.4369 30.3994C50.3646 29.961 49.2944 29.5183 48.2264 29.0714C47.4011 28.7245 45.3752 27.9009 43.7245 27.2408C42.0738 26.5804 40.5458 25.9164 40.3291 25.765C40.0413 25.564 43.551 23.8134 53.3104 19.2898C60.6668 15.8799 66.9218 13.1008 67.2103 13.1142C67.4987 13.1275 70.2672 14.3189 73.3624 15.7621ZM17.9783 16.4989C21.811 18.0606 24.9495 19.4009 24.9531 19.4773C24.9564 19.5536 22.8675 20.6747 20.3107 21.9683C17.7541 23.2621 15.6623 24.3899 15.6623 24.4748C15.6623 24.5595 17.9246 25.549 20.6894 26.674C23.4546 27.7987 30.4437 30.6476 36.2212 33.0051L55.5796 40.9033C60.4492 42.8903 64.8386 44.6812 65.3338 44.8837C75.2803 48.9479 78.0141 50.0756 78.3896 50.2692C78.7671 50.4641 78.8526 51.5964 78.9198 57.2793L79 64.0572L73.9676 66.3717L68.9354 68.686L61.9574 65.8435C58.1194 64.2802 54.9794 62.9192 54.9794 62.819C54.9794 62.719 55.6886 62.3019 56.555 61.8917C57.4219 61.4815 59.2112 60.5734 60.5318 59.8734C61.8523 59.1732 63.169 58.5309 63.4581 58.4457C63.7471 58.3607 63.9793 58.2121 63.9746 58.1152C63.9698 58.0185 60.897 56.7011 57.1466 55.1873C49.8621 52.2476 44.2875 49.9818 32.3195 45.0966C26.9679 42.9126 21.6155 40.73 16.2625 38.5486C11.558 36.6319 6.08813 34.3934 4.10721 33.5741L0.505638 32.0845L0.425568 25.2294L0.345085 18.3745L5.44914 16.0098C8.2565 14.7094 10.6561 13.6485 10.7819 13.6524C10.9076 13.656 14.146 14.9368 17.9783 16.4989ZM1.87311 41.2296C2.62524 41.5612 4.11087 42.1821 5.17449 42.6092C6.23811 43.0363 8.2565 43.8584 9.65966 44.4363L12.2108 45.4865L12.269 51.5047C12.3011 54.8146 12.4361 57.5081 12.5691 57.4906C12.871 57.4501 17.6524 55.2367 22.4587 52.9121C25.9276 51.2345 26.1456 51.1678 26.9607 51.5322C27.4319 51.743 30.2486 52.8832 33.2199 54.0665C36.1912 55.2496 38.7191 56.2949 38.838 56.3895C38.9566 56.484 32.9765 59.4096 25.5485 62.8911L12.0435 69.2212L6.27444 66.5275C3.10179 65.0461 0.403908 63.6948 0.279663 63.5249C0 63.1427 0.0239639 40.5742 0.303947 40.6048C0.41468 40.6168 1.12097 40.898 1.87311 41.2296ZM33.8201 67.7194C34.8208 68.1077 35.8213 68.4966 36.8214 68.886C39.8417 70.0654 39.2498 70.1045 42.843 68.49C45.2362 67.4147 46.2678 67.0829 46.7155 67.2439C47.0514 67.3647 49.942 68.5385 53.1395 69.8524C56.3369 71.1662 59.0639 72.2412 59.1995 72.2412C60.541 72.2412 58.3108 73.4439 49.7048 77.3623L39.612 81.9573L35.3655 80.065C33.0299 79.0241 28.3191 76.9399 24.8967 75.4335C21.4746 73.9266 18.717 72.6547 18.7686 72.6067C18.8206 72.5589 21.688 71.2298 25.141 69.6532L31.4191 66.7871L33.8201 67.7194Z" fill="white"/>
</g>
<defs>
<clipPath id="clip0_67_168">
<rect width="79" height="82" fill="white" transform="matrix(-1 0 0 1 79 0)"/>
</clipPath>
</defs>
</svg>
