<svg width="1041" height="131" viewBox="0 0 1041 131" fill="none" xmlns="http://www.w3.org/2000/svg">
<mask id="path-1-outside-1_67_62" maskUnits="userSpaceOnUse" x="-1" y="-1" width="1043" height="133" fill="black">
<rect fill="white" x="-1" y="-1" width="1043" height="133"/>
<path d="M90.768 29.888C85.4773 32.2773 78.864 33.472 70.928 33.472C68.2827 33.472 65.4667 33.344 62.48 33.088C65.6373 59.712 67.728 79.8933 68.752 93.632C69.52 104.213 69.904 110.315 69.904 111.936C69.4773 120.555 67.088 125.717 62.736 127.424C59.7493 128.277 56.7627 128.747 53.776 128.832C50.448 128.917 47.376 128.107 44.56 126.4C41.488 124.437 39.824 121.877 39.568 118.72C39.1413 113.856 38.928 107.84 38.928 100.672C38.8427 89.4933 38.8427 80.064 38.928 72.384C39.0133 62.4 38.8853 54.8053 38.544 49.6L37.52 33.856C29.1573 34.7947 22.8853 35.136 18.704 34.88C15.8027 34.7093 13.2 34.3253 10.896 33.728C7.312 31.936 4.92267 30.272 3.728 28.736C1.50933 26.5173 0.4 24.0853 0.4 21.44C0.4 18.4533 1.50933 15.424 3.728 12.352C5.94667 9.28 9.232 7.44533 13.584 6.84799C27.2373 4.88533 40.1227 3.81866 52.24 3.64799C56.1653 3.56266 63.8453 3.47733 75.28 3.392C82.3627 3.30666 87.568 4.03199 90.896 5.56799C97.6373 8.63999 101.008 13.5467 101.008 20.288C101.008 23.616 97.5947 26.816 90.768 29.888ZM112.823 23.36C117.004 8.59733 130.06 1.216 151.991 1.216C154.722 1.216 157.58 1.344 160.567 1.6C166.199 2.02666 170.38 2.624 173.111 3.392C176.439 4.33066 179.852 6.25066 183.351 9.15199C186.85 12.0533 189.239 15.0827 190.519 18.24C192.994 24.2133 194.444 29.9733 194.871 35.52C195.042 38.1653 195.468 42.5173 196.151 48.576C196.748 53.8667 197.047 58.3467 197.047 62.016C197.132 71.1467 195.852 85.2267 193.207 104.256C192.951 106.048 191.799 109.376 189.751 114.24C187.362 119.957 182.199 124.181 174.263 126.912C168.802 128.789 163.17 129.728 157.367 129.728C156.087 129.728 154.807 129.685 153.527 129.6C147.383 129.173 143.458 128.789 141.751 128.448C138.679 127.851 134.796 126.656 130.103 124.864C126.86 123.669 123.49 121.237 119.991 117.568C116.151 113.472 114.231 109.931 114.231 106.944L110.135 90.944C109.026 86.6773 108.386 80.32 108.215 71.872C108.13 65.3867 108.087 58.9013 108.087 52.416C108.002 44.48 109.58 34.7947 112.823 23.36ZM159.671 28.352C154.892 26.9867 149.858 26.9867 144.567 28.352C138.935 29.7173 135.351 36.7147 133.815 49.344C133.047 55.488 132.663 61.376 132.663 67.008C132.663 73.2373 133.175 79.68 134.199 86.336C136.076 98.368 140.428 105.024 147.255 106.304C149.132 106.645 151.01 106.816 152.887 106.816C157.154 106.816 160.695 105.792 163.511 103.744C167.522 100.843 170.252 91.8827 171.703 76.864C172.215 71.5733 172.471 66.7093 172.471 62.272C172.471 55.2747 171.703 48.8747 170.167 43.072C167.948 34.624 164.45 29.7173 159.671 28.352ZM310.805 20.032C311.232 27.2853 306.538 34.7093 296.725 42.304C292.458 45.632 285.76 50.0693 276.629 55.616C267.584 61.0773 260.97 65.4293 256.789 68.672C259.861 70.5493 264.938 74.2187 272.021 79.68C278.506 84.7147 283.669 88.256 287.509 90.304C293.653 93.632 298.944 97.5147 303.381 101.952L305.429 104C308.672 107.243 310.293 110.101 310.293 112.576C310.293 118.891 307.221 123.029 301.077 124.992C300.565 125.163 299.925 125.248 299.157 125.248C296.256 125.248 292.074 124.096 286.613 121.792C279.957 118.976 272.704 114.197 264.853 107.456C255.21 99.1787 247.104 90.944 240.533 82.752C240.448 84.4587 240.49 86.464 240.661 88.768C241.002 93.0347 241.301 95.808 241.557 97.088C242.837 104.256 243.605 109.717 243.861 113.472C244.458 123.712 240.96 129.088 233.365 129.6C227.904 129.941 224.32 128.661 222.613 125.76C220.565 122.347 219.498 120.256 219.413 119.488C218.986 115.904 218.688 113.301 218.517 111.68C217.237 100.843 216.512 94.4427 216.341 92.48L213.781 63.936C212.842 53.3547 212.544 43.2853 212.885 33.728C213.226 24.5973 213.44 19.52 213.525 18.496C213.866 14.144 215.061 10.432 217.109 7.35999C219.584 3.52 222.784 1.6 226.709 1.6C227.562 1.6 228.672 1.77066 230.037 2.11199C234.389 3.13599 236.949 5.35466 237.717 8.768C238.656 12.7787 239.04 21.0133 238.869 33.472C238.698 44.1387 239.978 49.472 242.709 49.472C243.392 49.472 244.117 49.1733 244.885 48.576L245.397 48.192C250.261 44.352 253.034 42.1333 253.717 41.536C258.41 37.0987 261.056 34.5813 261.653 33.984L263.573 32.064C271.082 24.5547 276.458 19.4773 279.701 16.832C287.381 10.6027 293.738 7.488 298.773 7.488C306.282 7.488 310.293 11.6693 310.805 20.032ZM395.973 23.872C394.181 27.456 391.621 29.7173 388.293 30.656C386.586 31.168 383.045 31.4667 377.669 31.552C372.805 31.6373 368.325 31.6373 364.229 31.552C360.218 31.4667 356.122 32.192 351.941 33.728C348.186 35.0933 345.712 37.3547 344.517 40.512C344.005 41.7067 343.408 45.0773 342.725 50.624C342.725 52.5867 342.938 56.256 343.365 61.632C344.389 67.1787 347.162 70.208 351.685 70.72C354.501 71.0613 358.426 71.104 363.461 70.848C368.581 70.592 372.72 70.5493 375.877 70.72L384.965 71.232C387.781 71.4027 390.298 72.256 392.517 73.792C395.077 75.584 396.357 77.8027 396.357 80.448C396.357 81.6427 396.186 83.52 395.845 86.08C395.504 87.104 394.693 88.256 393.413 89.536C390.17 91.584 385.605 92.3093 379.717 91.712C373.232 91.0293 368.41 90.6027 365.253 90.432C360.645 90.176 357.829 89.9627 356.805 89.792C355.525 89.6213 354.373 89.536 353.349 89.536C352.325 89.536 351.429 89.6213 350.661 89.792C348.186 89.792 346.522 91.712 345.669 95.552C344.816 99.2213 345.242 101.781 346.949 103.232C349.168 105.109 351.301 106.219 353.349 106.56C361.114 107.84 368.026 108.224 374.085 107.712C385.349 106.773 391.877 108.949 393.669 114.24C394.01 115.349 394.181 116.544 394.181 117.824C394.181 125.675 389.232 129.6 379.333 129.6C378.138 129.6 374.896 129.344 369.605 128.832C354.928 127.637 346.053 126.784 342.981 126.272C329.413 123.883 322.501 115.648 322.245 101.568C321.989 87.4027 321.477 75.1147 320.709 64.704C320.368 60.2667 320.197 56.384 320.197 53.056C320.197 44.0107 321.093 34.8373 322.885 25.536C325.274 12.992 335.13 5.39733 352.453 2.752C358 1.89866 362.138 1.51466 364.869 1.6C373.658 1.94133 381.552 3.26399 388.549 5.56799C391.024 6.67733 393.072 8.85333 394.693 12.096C396.314 15.2533 396.912 18.1973 396.485 20.928C396.229 22.6347 396.058 23.616 395.973 23.872ZM441.563 4.672C448.646 7.06133 455.558 14.8693 462.299 28.096C465.371 34.1547 469.51 44.3947 474.715 58.816C477.958 68.1173 480.39 75.072 482.011 79.68C485.424 89.152 488.283 95.8933 490.587 99.904C491.099 100.843 491.611 101.312 492.123 101.312C492.806 101.312 493.232 99.8187 493.403 96.832C493.744 91.712 493.232 80.7467 491.867 63.936C490.502 47.1253 489.904 32.448 490.075 19.904C490.246 7.70133 494.982 1.6 504.283 1.6C515.718 1.6 521.435 10.9013 521.435 29.504C521.435 31.808 521.307 35.264 521.051 39.872C520.795 44.48 520.667 47.936 520.667 50.24C520.667 73.1093 519.174 92.0533 516.187 107.072C514.907 113.472 513.371 118.123 511.579 121.024C509.104 125.035 505.094 127.595 499.547 128.704C497.84 129.045 496.048 129.216 494.171 129.216C489.563 129.216 485.552 127.893 482.139 125.248C474.118 119.019 465.67 103.872 456.795 79.808C452.358 67.776 449.243 59.072 447.451 53.696C445.147 46.6987 442.886 43.2 440.667 43.2C440.24 43.2 439.856 43.328 439.515 43.584C436.187 45.2907 434.523 48.8747 434.523 54.336C434.523 55.5307 434.566 56.5973 434.651 57.536C436.699 79.6373 438.747 95.3387 440.795 104.64C441.563 108.139 441.947 111.168 441.947 113.728C441.947 117.824 441.051 121.365 439.259 124.352C437.126 127.851 434.139 129.6 430.299 129.6C424.24 129.6 420.144 127.595 418.011 123.584C414.683 117.44 413.019 102.08 413.019 77.504C413.019 59.7547 412.934 49.1733 412.763 45.76C412.592 42.2613 412.507 38.7627 412.507 35.264C412.507 23.744 413.531 16.2773 415.579 12.864C419.675 5.952 424.667 2.49599 430.555 2.49599C433.542 2.49599 437.211 3.22133 441.563 4.672ZM537.823 23.36C542.004 8.59733 555.06 1.216 576.991 1.216C579.722 1.216 582.58 1.344 585.567 1.6C591.199 2.02666 595.38 2.624 598.111 3.392C601.439 4.33066 604.852 6.25066 608.351 9.15199C611.85 12.0533 614.239 15.0827 615.519 18.24C617.994 24.2133 619.444 29.9733 619.871 35.52C620.042 38.1653 620.468 42.5173 621.151 48.576C621.748 53.8667 622.047 58.3467 622.047 62.016C622.132 71.1467 620.852 85.2267 618.207 104.256C617.951 106.048 616.799 109.376 614.751 114.24C612.362 119.957 607.199 124.181 599.263 126.912C593.802 128.789 588.17 129.728 582.367 129.728C581.087 129.728 579.807 129.685 578.527 129.6C572.383 129.173 568.458 128.789 566.751 128.448C563.679 127.851 559.796 126.656 555.103 124.864C551.86 123.669 548.49 121.237 544.991 117.568C541.151 113.472 539.231 109.931 539.231 106.944L535.135 90.944C534.026 86.6773 533.386 80.32 533.215 71.872C533.13 65.3867 533.087 58.9013 533.087 52.416C533.002 44.48 534.58 34.7947 537.823 23.36ZM584.671 28.352C579.892 26.9867 574.858 26.9867 569.567 28.352C563.935 29.7173 560.351 36.7147 558.815 49.344C558.047 55.488 557.663 61.376 557.663 67.008C557.663 73.2373 558.175 79.68 559.199 86.336C561.076 98.368 565.428 105.024 572.255 106.304C574.132 106.645 576.01 106.816 577.887 106.816C582.154 106.816 585.695 105.792 588.511 103.744C592.522 100.843 595.252 91.8827 596.703 76.864C597.215 71.5733 597.471 66.7093 597.471 62.272C597.471 55.2747 596.703 48.8747 595.167 43.072C592.948 34.624 589.45 29.7173 584.671 28.352ZM693.821 76.992C697.234 58.048 699.88 44.9493 701.757 37.696C706.621 18.24 711.741 7.27466 717.117 4.8C721.042 3.00799 724.669 2.11199 727.997 2.11199C734.141 2.11199 739.261 6.07999 743.357 14.016C746.685 20.416 748.69 31.3813 749.373 46.912C750.056 62.4427 750.525 74.0907 750.781 81.856C751.378 94.7413 751.549 104.171 751.293 110.144C750.866 121.664 747.453 127.424 741.053 127.424C739.517 127.424 737.768 126.912 735.805 125.888C731.453 123.669 728.424 118.805 726.717 111.296C726.034 108.224 725.309 102.208 724.541 93.248C724.2 88.7253 723.816 81.6853 723.389 72.128C723.133 66.1547 723.176 54.5493 723.517 37.312C720.701 47.04 718.525 58.0053 716.989 70.208C712.893 103.232 709.138 120.597 705.725 122.304C702.056 124.181 699.24 125.12 697.277 125.12C695.144 125.12 692.498 124.352 689.341 122.816C685.074 120.853 682.6 117.44 681.917 112.576C680.978 105.493 679.57 97.216 677.693 87.744C676.498 81.7707 674.792 73.5787 672.573 63.168C670.354 52.672 667.41 43.584 663.741 35.904C662.546 40.1707 662.504 49.5573 663.613 64.064C664.637 80.1067 665.405 92.5227 665.917 101.312C666.514 111.211 666.728 116.715 666.557 117.824C665.704 123.883 662.205 127.68 656.061 129.216C655.037 129.472 654.184 129.6 653.501 129.6C650.344 129.6 647.272 127.936 644.285 124.608C640.36 120.341 638.696 109.205 639.293 91.2C639.805 73.792 639.805 62.6133 639.293 57.664C638.781 53.1413 638.354 45.9307 638.013 36.032C637.672 27.2427 638.909 19.7333 641.725 13.504C645.309 5.568 651.154 1.6 659.261 1.6C660.797 1.6 662.589 1.77066 664.637 2.11199C674.536 3.73333 681.277 10.0053 684.861 20.928C689.554 35.3493 692.541 54.0373 693.821 76.992ZM812.876 3.52C821.324 5.90933 826.188 9.19466 827.468 13.376C828.065 15.3387 828.364 17.2587 828.364 19.136C828.364 21.44 827.895 23.5733 826.956 25.536C825.079 29.5467 822.86 32.2347 820.3 33.6C818.593 34.5387 816.247 35.008 813.26 35.008C811.639 35.008 809.804 34.88 807.756 34.624C808.183 39.4027 808.396 44.48 808.396 49.856C808.396 54.1227 808.78 61.504 809.548 72C810.231 81.728 810.487 89.0667 810.316 94.016C810.231 96.2347 810.231 97.8987 810.316 99.008C810.401 101.824 810.871 103.104 811.724 102.848C822.817 101.483 829.175 104.171 830.796 110.912C831.052 112.021 831.18 113.088 831.18 114.112C831.18 119.232 828.407 123.157 822.86 125.888C818.849 127.936 813.857 129.173 807.884 129.6C798.839 130.283 792.012 130.112 787.404 129.088C781.175 127.723 776.695 125.931 773.964 123.712C770.124 120.725 768.417 116.416 768.844 110.784C769.441 103.104 773.196 99.264 780.108 99.264C781.388 99.264 782.711 99.4347 784.076 99.776C784.247 99.776 785.399 99.9893 787.532 100.416C787.873 96.4907 787.873 90.7733 787.532 83.264C787.191 74.816 787.063 69.056 787.148 65.984C787.319 61.9733 787.233 56.7253 786.892 50.24C786.551 43.1573 786.38 37.9093 786.38 34.496C777.932 33.472 773.239 32.8747 772.3 32.704C770.508 32.192 768.887 30.8693 767.436 28.736C765.729 26.2613 764.919 21.824 765.004 15.424C765.089 9.19466 770.935 5.05599 782.54 3.008C787.916 2.06933 792.951 1.6 797.644 1.6C803.191 1.6 808.268 2.24 812.876 3.52ZM913.928 31.68C908.723 30.5707 904.072 30.016 899.976 30.016C884.36 30.016 873.907 37.312 868.616 51.904C867.336 55.4027 866.696 59.4133 866.696 63.936C866.696 69.6533 867.848 76.1387 870.152 83.392C873.651 94.3147 881.544 99.776 893.832 99.776C895.453 99.776 897.843 99.648 901 99.392C904.243 99.0507 906.675 98.88 908.296 98.88C918.877 98.88 925.576 101.781 928.392 107.584C929.16 109.12 929.544 110.784 929.544 112.576C929.544 117.611 925.235 122.048 916.616 125.888C907.315 128.277 900.701 129.515 896.776 129.6C887.56 129.856 877.832 127.851 867.592 123.584C853.597 117.781 845.277 102.592 842.632 78.016C842.12 73.0667 841.864 68.16 841.864 63.296C841.864 56.9813 842.291 50.624 843.144 44.224C844.68 33.0453 847.624 24.896 851.976 19.776C857.267 13.632 862.856 9.23733 868.744 6.592C873.608 4.45866 880.648 2.79467 889.864 1.6C894.387 1.00266 898.44 0.703995 902.024 0.703995C907.315 0.703995 911.752 1.30133 915.336 2.49599C924.979 4.54399 930.227 10.6027 931.08 20.672C931.763 28.5227 928.221 32.448 920.456 32.448C918.493 32.448 916.317 32.192 913.928 31.68ZM1040.37 90.816C1040.63 95.0827 1039.86 99.6907 1038.07 104.64C1036.36 109.675 1034.78 112.789 1033.33 113.984C1030.77 116.117 1028.81 117.653 1027.45 118.592C1025.06 120.213 1022.84 121.408 1020.79 122.176C1014.99 124.395 1005.86 126.315 993.397 127.936C987.765 128.704 983.584 128.917 980.853 128.576C974.965 127.979 970.528 127.509 967.541 127.168C963.189 126.485 959.136 124.523 955.381 121.28C952.394 118.72 950.901 115.307 950.901 111.04C950.901 109.333 951.157 107.456 951.669 105.408C953.205 99.4347 957.472 96.448 964.469 96.448C965.749 96.448 967.072 96.5333 968.437 96.704C976.032 97.6427 981.749 98.496 985.589 99.264C987.808 99.0933 989.856 99.008 991.733 99.008C998.048 99.0933 1002.91 98.624 1006.33 97.6C1012.21 95.8933 1014.94 92.5227 1014.52 87.488C1014.01 82.0267 1009.31 78.3573 1000.44 76.48C996.938 75.712 990.325 75.1573 980.597 74.816C969.76 74.3893 961.568 72.3413 956.021 68.672C949.28 64.2347 945.354 56.9813 944.245 46.912C944.074 45.2907 943.989 43.5413 943.989 41.664C943.989 35.0933 945.482 28.9493 948.469 23.232C951.456 17.4293 954.954 13.1627 958.965 10.432C962.634 7.872 967.882 5.952 974.709 4.672C984.608 2.87999 992.8 1.98399 999.285 1.98399C1000.91 1.98399 1002.4 2.02666 1003.76 2.11199L1016.82 3.392C1024.16 4.16 1027.83 7.82933 1027.83 14.4C1027.83 16.448 1027.45 18.496 1026.68 20.544C1025.4 23.9573 1021.17 25.664 1014.01 25.664C1012.3 25.664 1010.17 25.536 1007.61 25.28C1003.42 24.8533 999.37 24.64 995.445 24.64C989.557 24.64 984.437 25.152 980.085 26.176C972.917 27.8827 969.034 32.0213 968.437 38.592C967.925 44.48 969.461 48.7467 973.045 51.392C975.69 53.44 980.213 54.8053 986.613 55.488C992.16 55.744 997.109 55.9573 1001.46 56.128C1013.66 56.5547 1022.71 58.9867 1028.6 63.424C1031.58 65.728 1034.27 69.9093 1036.66 75.968C1038.79 81.344 1040.03 86.2933 1040.37 90.816Z"/>
</mask>
<path d="M90.768 29.888L90.3576 28.9761L90.3564 28.9766L90.768 29.888ZM62.48 33.088L62.5654 32.0917L61.3424 31.9868L61.487 33.2058L62.48 33.088ZM68.752 93.632L69.7494 93.5596L69.7492 93.5577L68.752 93.632ZM69.904 111.936L70.9028 111.985L70.904 111.961V111.936H69.904ZM62.736 127.424L63.0107 128.386L63.0566 128.372L63.1011 128.355L62.736 127.424ZM53.776 128.832L53.8016 129.832L53.8046 129.832L53.776 128.832ZM44.56 126.4L44.0216 127.243L44.0316 127.249L44.0417 127.255L44.56 126.4ZM39.568 118.72L40.5648 118.639L40.5642 118.633L39.568 118.72ZM38.928 100.672H39.928L39.928 100.664L38.928 100.672ZM38.928 72.384L39.9279 72.3951L39.928 72.3925L38.928 72.384ZM38.544 49.6L37.5461 49.6649L37.5461 49.6654L38.544 49.6ZM37.52 33.856L38.5179 33.7911L38.4499 32.7453L37.4085 32.8622L37.52 33.856ZM18.704 34.88L18.7651 33.8819L18.7627 33.8817L18.704 34.88ZM10.896 33.728L10.4488 34.6224L10.543 34.6695L10.645 34.696L10.896 33.728ZM3.728 28.736L4.51735 28.1221L4.47913 28.0729L4.43511 28.0289L3.728 28.736ZM3.728 12.352L4.53868 12.9375L3.728 12.352ZM13.584 6.84799L13.72 7.83872L13.7263 7.83782L13.584 6.84799ZM52.24 3.64799L52.2541 4.64792L52.2617 4.64776L52.24 3.64799ZM75.28 3.392L75.2875 4.39198L75.2921 4.39193L75.28 3.392ZM90.896 5.56799L90.4769 6.47596L90.4813 6.47796L90.896 5.56799ZM90.3564 28.9766C85.2334 31.2903 78.7711 32.472 70.928 32.472V34.472C78.9569 34.472 85.7213 33.2644 91.1796 30.7994L90.3564 28.9766ZM70.928 32.472C68.3146 32.472 65.5273 32.3455 62.5654 32.0917L62.3946 34.0843C65.406 34.3425 68.2507 34.472 70.928 34.472V32.472ZM61.487 33.2058C64.6439 59.8261 66.7324 79.99 67.7548 93.7063L69.7492 93.5577C68.7236 79.7967 66.6308 59.5979 63.473 32.9702L61.487 33.2058ZM67.7546 93.7044C68.5244 104.31 68.904 110.361 68.904 111.936H70.904C70.904 110.268 70.5156 104.117 69.7494 93.5596L67.7546 93.7044ZM68.9052 111.887C68.481 120.456 66.1189 125.023 62.3709 126.493L63.1011 128.355C68.0571 126.411 70.4737 120.654 70.9028 111.985L68.9052 111.887ZM62.4613 126.462C59.5516 127.294 56.6475 127.75 53.7474 127.832L53.8046 129.832C56.8778 129.744 59.9471 129.261 63.0107 128.386L62.4613 126.462ZM53.7504 127.832C50.6115 127.913 47.7287 127.151 45.0783 125.545L44.0417 127.255C47.0233 129.062 50.2845 129.922 53.8016 129.832L53.7504 127.832ZM45.0984 125.557C42.2447 123.734 40.7914 121.435 40.5647 118.639L38.5713 118.801C38.8566 122.32 40.7313 125.141 44.0216 127.243L45.0984 125.557ZM40.5642 118.633C40.1409 113.808 39.928 107.823 39.928 100.672H37.928C37.928 107.857 38.1417 113.904 38.5718 118.807L40.5642 118.633ZM39.928 100.664C39.8427 89.4894 39.8427 80.0668 39.9279 72.3951L37.9281 72.3729C37.8426 80.0612 37.8427 89.4973 37.928 100.68L39.928 100.664ZM39.928 72.3925C40.0134 62.4018 39.8857 54.7776 39.5419 49.5346L37.5461 49.6654C37.885 54.8331 38.0133 62.3982 37.928 72.3755L39.928 72.3925ZM39.5419 49.5351L38.5179 33.7911L36.5221 33.9209L37.5461 49.6649L39.5419 49.5351ZM37.4085 32.8622C29.058 33.7995 22.8566 34.1324 18.7651 33.8819L18.6429 35.8781C22.9141 36.1396 29.2567 35.7898 37.6315 34.8498L37.4085 32.8622ZM18.7627 33.8817C15.9126 33.7141 13.376 33.3379 11.147 32.76L10.645 34.696C13.024 35.3128 15.6927 35.7046 18.6453 35.8783L18.7627 33.8817ZM11.3432 32.8336C7.78048 31.0522 5.56598 29.4703 4.51735 28.1221L2.93865 29.3499C4.27935 31.0737 6.84352 32.8198 10.4488 34.6224L11.3432 32.8336ZM4.43511 28.0289C2.36648 25.9603 1.4 23.7714 1.4 21.44H-0.6C-0.6 24.3992 0.652185 27.0744 3.02089 29.4431L4.43511 28.0289ZM1.4 21.44C1.4 18.714 2.40982 15.8851 4.53868 12.9375L2.91732 11.7665C0.608844 14.9629 -0.6 18.1927 -0.6 21.44H1.4ZM4.53868 12.9375C6.57149 10.1228 9.59181 8.40532 13.72 7.8387L13.448 5.85728C8.87219 6.48534 5.32185 8.43716 2.91732 11.7665L4.53868 12.9375ZM13.7263 7.83782C27.3428 5.88044 40.185 4.81788 52.2541 4.6479L52.2259 2.64809C40.0603 2.81944 27.1318 3.89021 13.4417 5.85817L13.7263 7.83782ZM52.2617 4.64776C56.1788 4.56261 63.8518 4.47731 75.2875 4.39197L75.2725 2.39203C63.8389 2.47735 56.1519 2.56272 52.2183 2.64823L52.2617 4.64776ZM75.2921 4.39193C82.3395 4.30701 87.3588 5.03683 90.4769 6.47595L91.3151 4.66003C87.7772 3.02716 82.3859 2.30631 75.268 2.39207L75.2921 4.39193ZM90.4813 6.47796C93.7269 7.95696 96.0956 9.8471 97.6558 12.1182C99.2119 14.3834 100.008 17.0918 100.008 20.288H102.008C102.008 16.7429 101.119 13.6272 99.3043 10.9858C97.4938 8.35022 94.8064 6.25103 91.3107 4.65802L90.4813 6.47796ZM100.008 20.288C100.008 21.5786 99.3529 22.965 97.7641 24.4545C96.1714 25.9476 93.7232 27.4616 90.3576 28.9761L91.1784 30.7999C94.6395 29.2424 97.3112 27.6204 99.1319 25.9135C100.956 24.203 102.008 22.3254 102.008 20.288H100.008ZM112.823 23.36L113.785 23.6328L113.785 23.6325L112.823 23.36ZM160.567 1.6L160.482 2.59639L160.491 2.59714L160.567 1.6ZM173.111 3.392L173.382 2.42955L173.382 2.42935L173.111 3.392ZM183.351 9.15199L183.989 8.38224L183.989 8.38223L183.351 9.15199ZM190.519 18.24L189.592 18.6157L189.595 18.6227L190.519 18.24ZM194.871 35.52L195.869 35.4556L195.868 35.4433L194.871 35.52ZM196.151 48.576L195.157 48.688L195.157 48.6882L196.151 48.576ZM197.047 62.016H196.047L196.047 62.0253L197.047 62.016ZM193.207 104.256L194.197 104.397L194.197 104.394L193.207 104.256ZM189.751 114.24L188.829 113.852L188.828 113.854L189.751 114.24ZM174.263 126.912L174.588 127.858L174.588 127.858L174.263 126.912ZM153.527 129.6L153.458 130.598L153.46 130.598L153.527 129.6ZM141.751 128.448L141.947 127.467L141.942 127.466L141.751 128.448ZM130.103 124.864L130.46 123.93L130.449 123.926L130.103 124.864ZM119.991 117.568L119.261 118.252L119.267 118.258L119.991 117.568ZM114.231 106.944H115.231V106.818L115.2 106.696L114.231 106.944ZM110.135 90.944L111.104 90.696L111.103 90.6924L110.135 90.944ZM108.215 71.872L107.215 71.8852L107.215 71.8922L108.215 71.872ZM108.087 52.416H109.087L109.087 52.4052L108.087 52.416ZM159.671 28.352L159.396 29.3135L159.671 28.352ZM144.567 28.352L144.803 29.3238L144.81 29.3221L144.817 29.3203L144.567 28.352ZM133.815 49.344L134.807 49.468L134.808 49.4647L133.815 49.344ZM134.199 86.336L133.211 86.4881L133.211 86.4902L134.199 86.336ZM147.255 106.304L147.071 107.287L147.076 107.288L147.255 106.304ZM163.511 103.744L162.925 102.934L162.923 102.935L163.511 103.744ZM171.703 76.864L170.708 76.7677L170.708 76.7679L171.703 76.864ZM170.167 43.072L169.2 43.326L169.2 43.3279L170.167 43.072ZM113.785 23.6325C115.806 16.4981 119.95 11.1802 126.243 7.62251C132.567 4.04706 141.124 2.216 151.991 2.216V0.215996C140.928 0.215996 131.991 2.0756 125.259 5.88148C118.496 9.7051 114.021 15.4592 111.861 23.0875L113.785 23.6325ZM151.991 2.216C154.691 2.216 157.521 2.34255 160.482 2.59634L160.652 0.603652C157.64 0.345448 154.753 0.215996 151.991 0.215996V2.216ZM160.491 2.59714C166.109 3.0227 170.209 3.61457 172.84 4.35465L173.382 2.42935C170.552 1.63343 166.289 1.03063 160.643 0.602856L160.491 2.59714ZM172.84 4.35445C175.998 5.24529 179.289 7.08284 182.713 9.92175L183.989 8.38223C180.415 5.41848 176.88 3.41604 173.382 2.42955L172.84 4.35445ZM182.713 9.92175C186.125 12.7515 188.392 15.6541 189.592 18.6157L191.446 17.8643C190.086 14.5112 187.574 11.3552 183.989 8.38224L182.713 9.92175ZM189.595 18.6227C192.036 24.514 193.457 30.1708 193.874 35.5967L195.868 35.4433C195.432 29.7759 193.952 23.9126 191.443 17.8573L189.595 18.6227ZM193.873 35.5844C194.045 38.2557 194.475 42.6284 195.157 48.688L197.145 48.464C196.462 42.4063 196.038 38.075 195.869 35.4556L193.873 35.5844ZM195.157 48.6882C195.752 53.9566 196.047 58.3967 196.047 62.016H198.047C198.047 58.2966 197.745 53.7767 197.145 48.4638L195.157 48.6882ZM196.047 62.0253C196.132 71.078 194.861 85.0967 192.217 104.118L194.197 104.394C196.844 85.3566 198.133 71.2154 198.047 62.0067L196.047 62.0253ZM192.217 104.115C191.982 105.758 190.885 108.97 188.829 113.852L190.673 114.628C192.713 109.782 193.92 106.338 194.197 104.397L192.217 104.115ZM188.828 113.854C186.584 119.224 181.704 123.294 173.938 125.966L174.588 127.858C182.694 125.069 188.139 120.69 190.674 114.626L188.828 113.854ZM173.938 125.966C168.582 127.808 163.06 128.728 157.367 128.728V130.728C163.28 130.728 169.022 129.771 174.588 127.858L173.938 125.966ZM157.367 128.728C156.109 128.728 154.851 128.686 153.594 128.602L153.46 130.598C154.763 130.685 156.065 130.728 157.367 130.728V128.728ZM153.596 128.602C147.434 128.174 143.578 127.794 141.947 127.467L141.555 129.429C143.337 129.785 147.332 130.172 153.458 130.598L153.596 128.602ZM141.942 127.466C138.95 126.885 135.127 125.712 130.46 123.93L129.746 125.798C134.465 127.6 138.408 128.817 141.56 129.43L141.942 127.466ZM130.449 123.926C127.4 122.803 124.153 120.484 120.715 116.878L119.267 118.258C122.826 121.99 126.32 124.536 129.757 125.802L130.449 123.926ZM120.721 116.884C116.919 112.829 115.231 109.531 115.231 106.944H113.231C113.231 110.331 115.383 114.115 119.261 118.252L120.721 116.884ZM115.2 106.696L111.104 90.696L109.166 91.192L113.262 107.192L115.2 106.696ZM111.103 90.6924C110.024 86.5418 109.385 80.279 109.215 71.8518L107.215 71.8922C107.386 80.361 108.028 86.8129 109.167 91.1956L111.103 90.6924ZM109.215 71.8588C109.13 65.3779 109.087 58.8969 109.087 52.416H107.087C107.087 58.9057 107.13 65.3954 107.215 71.8852L109.215 71.8588ZM109.087 52.4052C109.003 44.6 110.557 35.0163 113.785 23.6328L111.861 23.0872C108.604 34.573 107 44.36 107.087 52.4268L109.087 52.4052ZM159.946 27.3905C154.979 25.9715 149.763 25.9785 144.317 27.3837L144.817 29.3203C149.953 27.9949 154.805 28.0019 159.396 29.3135L159.946 27.3905ZM144.331 27.3801C141.141 28.1535 138.64 30.5076 136.765 34.1681C134.896 37.8162 133.597 42.8548 132.822 49.2233L134.808 49.4647C135.569 43.2038 136.83 38.4291 138.545 35.0799C140.254 31.7431 142.361 29.9158 144.803 29.3238L144.331 27.3801ZM132.823 49.22C132.05 55.4011 131.663 61.3307 131.663 67.008H133.663C133.663 61.4213 134.044 55.5749 134.807 49.468L132.823 49.22ZM131.663 67.008C131.663 73.2921 132.18 79.7858 133.211 86.4881L135.187 86.1839C134.171 79.5742 133.663 73.1825 133.663 67.008H131.663ZM133.211 86.4902C135.099 98.5929 139.564 105.879 147.071 107.287L147.439 105.321C141.292 104.169 137.053 98.1431 135.187 86.1818L133.211 86.4902ZM147.076 107.288C149.012 107.64 150.949 107.816 152.887 107.816V105.816C151.071 105.816 149.253 105.651 147.434 105.32L147.076 107.288ZM152.887 107.816C157.317 107.816 161.077 106.751 164.099 104.553L162.923 102.935C160.313 104.833 156.991 105.816 152.887 105.816V107.816ZM164.097 104.554C166.379 102.904 168.143 99.668 169.524 95.1395C170.916 90.5694 171.97 84.5009 172.698 76.9601L170.708 76.7679C169.985 84.2458 168.948 90.1666 167.61 94.5565C166.26 98.988 164.654 101.683 162.925 102.934L164.097 104.554ZM172.698 76.9603C173.213 71.6437 173.471 66.747 173.471 62.272H171.471C171.471 66.6716 171.217 71.503 170.708 76.7677L172.698 76.9603ZM173.471 62.272C173.471 55.2022 172.695 48.7147 171.134 42.8161L169.2 43.3279C170.711 49.0346 171.471 55.3471 171.471 62.272H173.471ZM171.134 42.818C168.894 34.2892 165.261 28.9091 159.946 27.3905L159.396 29.3135C163.638 30.5256 167.002 34.9588 169.2 43.326L171.134 42.818ZM310.805 20.032L311.803 19.9733L311.803 19.9709L310.805 20.032ZM296.725 42.304L296.113 41.5132L296.11 41.5155L296.725 42.304ZM276.629 55.616L277.146 56.4721L277.148 56.4707L276.629 55.616ZM256.789 68.672L256.176 67.8818L255.031 68.7697L256.268 69.5253L256.789 68.672ZM272.021 79.68L272.634 78.8901L272.632 78.8881L272.021 79.68ZM287.509 90.304L287.985 89.4247L287.98 89.4216L287.509 90.304ZM303.381 101.952L304.088 101.245L303.381 101.952ZM305.429 104L304.722 104.707L305.429 104ZM301.077 124.992L300.773 124.039L300.761 124.043L301.077 124.992ZM286.613 121.792L286.223 122.713L286.224 122.713L286.613 121.792ZM264.853 107.456L265.504 106.697L265.504 106.697L264.853 107.456ZM240.533 82.752L241.313 82.1263L239.666 80.0725L239.534 82.7021L240.533 82.752ZM240.661 88.768L239.664 88.8419L239.664 88.8477L240.661 88.768ZM241.557 97.088L242.541 96.9122L242.54 96.902L242.538 96.8919L241.557 97.088ZM243.861 113.472L244.859 113.414L244.859 113.404L243.861 113.472ZM233.365 129.6L233.427 130.598L233.432 130.598L233.365 129.6ZM222.613 125.76L223.475 125.253L223.47 125.245L222.613 125.76ZM219.413 119.488L220.407 119.378L220.406 119.37L219.413 119.488ZM218.517 111.68L219.512 111.575L219.51 111.563L218.517 111.68ZM216.341 92.48L217.337 92.3934L217.337 92.3907L216.341 92.48ZM213.781 63.936L212.785 64.0244L212.785 64.0253L213.781 63.936ZM212.885 33.728L211.886 33.6906L211.886 33.6923L212.885 33.728ZM213.525 18.496L214.522 18.579L214.522 18.5742L213.525 18.496ZM217.109 7.35999L217.941 7.91469L217.945 7.90823L217.95 7.90169L217.109 7.35999ZM230.037 2.11199L229.794 3.08223L229.808 3.08541L230.037 2.11199ZM237.717 8.768L236.741 8.98752L236.743 8.99588L237.717 8.768ZM238.869 33.472L239.869 33.488L239.869 33.4857L238.869 33.472ZM244.885 48.576L244.285 47.776L244.278 47.7813L244.271 47.7866L244.885 48.576ZM245.397 48.192L245.997 48.992L246.007 48.9846L246.017 48.9769L245.397 48.192ZM253.717 41.536L254.376 42.2886L254.39 42.2759L254.404 42.2626L253.717 41.536ZM261.653 33.984L260.946 33.2769V33.2769L261.653 33.984ZM263.573 32.064L262.866 31.3569L263.573 32.064ZM279.701 16.832L279.071 16.0553L279.069 16.0571L279.701 16.832ZM309.807 20.0907C310.203 26.8356 305.849 33.9781 296.113 41.5132L297.337 43.0948C307.227 35.4405 312.26 27.735 311.803 19.9733L309.807 20.0907ZM296.11 41.5155C291.891 44.8065 285.233 49.2194 276.11 54.7613L277.148 56.4707C286.287 50.9192 293.026 46.4575 297.34 43.0925L296.11 41.5155ZM276.112 54.7599C267.059 60.2257 260.405 64.6021 256.176 67.8818L257.402 69.4622C261.535 66.2566 268.108 61.9289 277.146 56.4721L276.112 54.7599ZM256.268 69.5253C259.288 71.3711 264.327 75.0098 271.41 80.4719L272.632 78.8881C265.55 73.4275 260.434 69.7275 257.31 67.8187L256.268 69.5253ZM271.408 80.4699C277.906 85.5146 283.122 89.0977 287.038 91.1864L287.98 89.4216C284.216 87.4143 279.107 83.9147 272.634 78.8901L271.408 80.4699ZM287.033 91.1833C293.101 94.4705 298.312 98.2972 302.674 102.659L304.088 101.245C299.575 96.7321 294.205 92.7935 287.985 89.4247L287.033 91.1833ZM302.674 102.659L304.722 104.707L306.136 103.293L304.088 101.245L302.674 102.659ZM304.722 104.707C307.921 107.906 309.293 110.518 309.293 112.576H311.293C311.293 109.685 309.422 106.579 306.136 103.293L304.722 104.707ZM309.293 112.576C309.293 115.568 308.568 117.959 307.186 119.82C305.803 121.683 303.696 123.106 300.773 124.039L301.381 125.945C304.602 124.916 307.103 123.288 308.792 121.012C310.482 118.735 311.293 115.899 311.293 112.576H309.293ZM300.761 124.043C300.384 124.169 299.859 124.248 299.157 124.248V126.248C299.991 126.248 300.746 126.156 301.393 125.941L300.761 124.043ZM299.157 124.248C296.467 124.248 292.442 123.166 287.002 120.871L286.224 122.713C291.707 125.026 296.044 126.248 299.157 126.248V124.248ZM287.003 120.871C280.473 118.109 273.308 113.398 265.504 106.697L264.202 108.215C272.1 114.997 279.441 119.843 286.223 122.713L287.003 120.871ZM265.504 106.697C255.899 98.4521 247.838 90.2613 241.313 82.1263L239.753 83.3777C246.369 91.6267 254.521 99.9052 264.202 108.215L265.504 106.697ZM239.534 82.7021C239.446 84.4614 239.491 86.51 239.664 88.8419L241.658 88.6941C241.49 86.418 241.449 84.4559 241.532 82.8019L239.534 82.7021ZM239.664 88.8477C240.004 93.1007 240.307 95.9356 240.576 97.2841L242.538 96.8919C242.295 95.6804 242 92.9687 241.658 88.6883L239.664 88.8477ZM240.573 97.2638C241.851 104.423 242.611 109.841 242.863 113.54L244.859 113.404C244.599 109.594 243.823 104.089 242.541 96.9122L240.573 97.2638ZM242.863 113.53C243.156 118.555 242.429 122.208 240.847 124.639C239.302 127.012 236.847 128.363 233.298 128.602L233.432 130.598C237.477 130.325 240.569 128.732 242.523 125.729C244.44 122.784 245.164 118.629 244.859 113.414L242.863 113.53ZM233.303 128.602C227.964 128.936 224.889 127.657 223.475 125.253L221.751 126.267C223.75 129.665 227.843 130.947 233.427 130.598L233.303 128.602ZM223.47 125.245C222.451 123.547 221.686 122.193 221.168 121.178C220.908 120.669 220.717 120.258 220.589 119.938C220.452 119.599 220.413 119.428 220.407 119.378L218.419 119.598C218.456 119.932 218.582 120.31 218.733 120.686C218.893 121.081 219.112 121.55 219.386 122.086C219.935 123.161 220.727 124.56 221.756 126.274L223.47 125.245ZM220.406 119.37C219.979 115.786 219.681 113.189 219.512 111.575L217.522 111.785C217.694 113.413 217.993 116.022 218.42 119.606L220.406 119.37ZM219.51 111.563C218.229 100.716 217.506 94.3365 217.337 92.3934L215.345 92.5666C215.517 94.5488 216.245 100.969 217.524 111.797L219.51 111.563ZM217.337 92.3907L214.777 63.8467L212.785 64.0253L215.345 92.5693L217.337 92.3907ZM214.777 63.8476C213.842 53.3031 213.545 43.2754 213.884 33.7637L211.886 33.6923C211.543 43.2953 211.843 53.4062 212.785 64.0244L214.777 63.8476ZM213.884 33.7654C214.226 24.6159 214.439 19.5732 214.522 18.579L212.528 18.4129C212.441 19.4667 212.226 24.5788 211.886 33.6906L213.884 33.7654ZM214.522 18.5742C214.852 14.3614 216.004 10.8206 217.941 7.91469L216.277 6.80529C214.118 10.0433 212.88 13.9266 212.528 18.4178L214.522 18.5742ZM217.95 7.90169C220.275 4.29274 223.184 2.6 226.709 2.6V0.599998C222.384 0.599998 218.892 2.74725 216.268 6.81829L217.95 7.90169ZM226.709 2.6C227.445 2.6 228.464 2.74961 229.794 3.08214L230.28 1.14185C228.879 0.791719 227.68 0.599998 226.709 0.599998V2.6ZM229.808 3.08541C233.911 4.05082 236.082 6.05736 236.741 8.98751L238.693 8.54849C237.816 4.65196 234.867 2.22117 230.266 1.13857L229.808 3.08541ZM236.743 8.99588C237.649 12.8672 238.04 20.9776 237.869 33.4583L239.869 33.4857C240.039 21.049 239.662 12.6901 238.691 8.54011L236.743 8.99588ZM237.869 33.456C237.783 38.8101 238.058 42.9126 238.729 45.7054C239.063 47.0968 239.514 48.2487 240.134 49.073C240.777 49.9286 241.642 50.472 242.709 50.472V48.472C242.411 48.472 242.091 48.3487 241.732 47.871C241.349 47.362 240.979 46.5138 240.673 45.2386C240.064 42.6981 239.784 38.8006 239.869 33.488L237.869 33.456ZM242.709 50.472C243.691 50.472 244.628 50.0427 245.499 49.3653L244.271 47.7866C243.606 48.304 243.092 48.472 242.709 48.472V50.472ZM245.485 49.376L245.997 48.992L244.797 47.392L244.285 47.776L245.485 49.376ZM246.017 48.9769C250.867 45.1478 253.668 42.9074 254.376 42.2886L253.059 40.7834C252.4 41.3593 249.655 43.5562 244.777 47.4071L246.017 48.9769ZM254.404 42.2626C259.09 37.8326 261.75 35.3013 262.36 34.6911L260.946 33.2769C260.361 33.8614 257.731 36.3648 253.03 40.8093L254.404 42.2626ZM262.36 34.6911L264.28 32.7711L262.866 31.3569L260.946 33.2769L262.36 34.6911ZM264.28 32.7711C271.791 25.2603 277.134 20.2164 280.333 17.6069L279.069 16.0571C275.782 18.7383 270.374 23.849 262.866 31.3569L264.28 32.7711ZM280.331 17.6086C287.979 11.4052 294.104 8.488 298.773 8.488V6.488C293.373 6.488 286.783 9.80017 279.071 16.0554L280.331 17.6086ZM298.773 8.488C302.34 8.488 304.926 9.47591 306.691 11.3162C308.473 13.1737 309.559 16.045 309.807 20.0931L311.803 19.9709C311.539 15.6564 310.364 12.2556 308.135 9.93177C305.889 7.59075 302.715 6.488 298.773 6.488V8.488ZM395.973 23.872L396.867 24.3192L396.899 24.2556L396.922 24.1882L395.973 23.872ZM388.293 30.656L388.022 29.6936L388.014 29.6958L388.006 29.6982L388.293 30.656ZM377.669 31.552L377.653 30.5521L377.651 30.5521L377.669 31.552ZM364.229 31.552L364.208 32.5518L364.208 32.5518L364.229 31.552ZM351.941 33.728L352.283 34.6678L352.286 34.6667L351.941 33.728ZM344.517 40.512L345.436 40.9059L345.445 40.8861L345.452 40.8659L344.517 40.512ZM342.725 50.624L341.732 50.5018L341.725 50.5627V50.624H342.725ZM343.365 61.632L342.368 61.7111L342.372 61.7627L342.382 61.8135L343.365 61.632ZM351.685 70.72L351.805 69.7272L351.797 69.7263L351.685 70.72ZM363.461 70.848L363.411 69.8492L363.41 69.8493L363.461 70.848ZM375.877 70.72L375.933 69.7216L375.931 69.7215L375.877 70.72ZM384.965 71.232L385.026 70.2338L385.021 70.2336L384.965 71.232ZM392.517 73.792L393.09 72.9728L393.086 72.9698L392.517 73.792ZM395.845 86.08L396.794 86.3962L396.824 86.3062L396.836 86.2122L395.845 86.08ZM393.413 89.536L393.947 90.3815L394.041 90.3219L394.12 90.2431L393.413 89.536ZM379.717 91.712L379.612 92.7065L379.616 92.7069L379.717 91.712ZM365.253 90.432L365.198 91.4305L365.199 91.4305L365.253 90.432ZM356.805 89.792L356.969 88.8056L356.953 88.8029L356.937 88.8008L356.805 89.792ZM350.661 89.792V90.792H350.771L350.878 90.7682L350.661 89.792ZM345.669 95.552L346.643 95.7785L346.645 95.7689L345.669 95.552ZM346.949 103.232L346.301 103.994L346.303 103.995L346.949 103.232ZM353.349 106.56L353.185 107.546L353.186 107.547L353.349 106.56ZM374.085 107.712L374.002 106.715L374.001 106.716L374.085 107.712ZM393.669 114.24L394.625 113.946L394.621 113.932L394.616 113.919L393.669 114.24ZM369.605 128.832L369.701 127.837L369.694 127.836L369.686 127.835L369.605 128.832ZM342.981 126.272L342.808 127.257L342.817 127.258L342.981 126.272ZM322.245 101.568L321.245 101.586V101.586L322.245 101.568ZM320.709 64.704L321.706 64.6304L321.706 64.6273L320.709 64.704ZM322.885 25.536L323.867 25.7252L323.867 25.7231L322.885 25.536ZM352.453 2.752L352.604 3.74054L352.605 3.74037L352.453 2.752ZM364.869 1.6L364.908 0.600723L364.9 0.600487L364.869 1.6ZM388.549 5.56799L388.958 4.65548L388.911 4.63433L388.862 4.61816L388.549 5.56799ZM394.693 12.096L393.799 12.5432L393.803 12.5528L394.693 12.096ZM396.485 20.928L395.497 20.7736L395.496 20.7797L396.485 20.928ZM395.079 23.4248C393.391 26.8009 391.035 28.8437 388.022 29.6936L388.564 31.6184C392.207 30.591 394.971 28.111 396.867 24.3192L395.079 23.4248ZM388.006 29.6982C386.454 30.1636 383.054 30.4664 377.653 30.5521L377.685 32.5519C383.036 32.4669 386.718 32.1724 388.58 31.6138L388.006 29.6982ZM377.651 30.5521C372.798 30.6373 368.331 30.6372 364.25 30.5522L364.208 32.5518C368.319 32.6374 372.812 32.6374 377.687 32.5518L377.651 30.5521ZM364.25 30.5522C360.102 30.464 355.882 31.215 351.596 32.7893L352.286 34.6667C356.363 33.169 360.335 32.4694 364.208 32.5518L364.25 30.5522ZM351.599 32.7882C347.626 34.2329 344.899 36.6777 343.582 40.1581L345.452 40.8659C346.525 38.0316 348.746 35.9537 352.283 34.6678L351.599 32.7882ZM343.598 40.1181C343.29 40.8353 342.998 42.0845 342.7 43.7615C342.397 45.4716 342.075 47.7204 341.732 50.5018L343.717 50.7462C344.058 47.9809 344.375 45.7711 344.67 44.1105C344.97 42.4168 345.232 41.3834 345.436 40.9059L343.598 40.1181ZM341.725 50.624C341.725 52.632 341.942 56.3391 342.368 61.7111L344.362 61.5529C343.935 56.1729 343.725 52.5414 343.725 50.624H341.725ZM342.382 61.8135C342.915 64.7049 343.923 67.0438 345.475 68.7393C347.043 70.4517 349.099 71.4336 351.573 71.7137L351.797 69.7263C349.748 69.4944 348.156 68.7056 346.951 67.3887C345.729 66.0548 344.839 64.1058 344.348 61.4504L342.382 61.8135ZM351.565 71.7127C354.465 72.0643 358.457 72.1038 363.512 71.8467L363.41 69.8493C358.396 70.1042 354.537 70.0584 351.805 69.7273L351.565 71.7127ZM363.511 71.8467C368.615 71.5916 372.715 71.5505 375.823 71.7185L375.931 69.7215C372.725 69.5481 368.547 69.5924 363.411 69.8493L363.511 71.8467ZM375.821 71.7184L384.909 72.2304L385.021 70.2336L375.933 69.7216L375.821 71.7184ZM384.905 72.2302C387.547 72.3903 389.886 73.1871 391.948 74.6142L393.086 72.9698C390.71 71.3249 388.015 70.415 385.026 70.2338L384.905 72.2302ZM391.944 74.6112C394.292 76.2549 395.357 78.1913 395.357 80.448H397.357C397.357 77.4141 395.862 74.9131 393.09 72.9728L391.944 74.6112ZM395.357 80.448C395.357 81.5719 395.194 83.3934 394.854 85.9478L396.836 86.2122C397.178 83.6466 397.357 81.7135 397.357 80.448H395.357ZM394.896 85.7638C394.627 86.5728 393.941 87.5936 392.706 88.8289L394.12 90.2431C395.445 88.9184 396.381 87.6352 396.794 86.3962L394.896 85.7638ZM392.879 88.6905C389.904 90.5697 385.598 91.3035 379.818 90.7171L379.616 92.7069C385.612 93.3152 390.437 92.5983 393.947 90.3815L392.879 88.6905ZM379.822 90.7175C373.333 90.0345 368.491 89.6056 365.307 89.4335L365.199 91.4305C368.33 91.5998 373.13 92.0242 379.612 92.7065L379.822 90.7175ZM365.308 89.4335C360.676 89.1762 357.926 88.965 356.969 88.8056L356.641 90.7784C357.732 90.9603 360.614 91.1758 365.198 91.4305L365.308 89.4335ZM356.937 88.8008C355.624 88.6257 354.427 88.536 353.349 88.536V90.536C354.319 90.536 355.426 90.617 356.673 90.7832L356.937 88.8008ZM353.349 88.536C352.273 88.536 351.301 88.6254 350.444 88.8158L350.878 90.7682C351.557 90.6173 352.377 90.536 353.349 90.536V88.536ZM350.661 88.792C349.125 88.792 347.817 89.4046 346.801 90.5771C345.817 91.7129 345.138 93.3338 344.693 95.3351L346.645 95.7689C347.054 93.9302 347.633 92.6711 348.313 91.8869C348.961 91.1394 349.722 90.792 350.661 90.792V88.792ZM344.695 95.3255C343.818 99.0971 344.15 102.166 346.301 103.994L347.597 102.47C346.334 101.397 345.813 99.3456 346.643 95.7785L344.695 95.3255ZM346.303 103.995C348.607 105.945 350.902 107.166 353.185 107.546L353.513 105.574C351.7 105.271 349.728 104.274 347.595 102.469L346.303 103.995ZM353.186 107.547C361.011 108.836 368.008 109.229 374.169 108.708L374.001 106.716C368.044 107.219 361.218 106.844 353.512 105.573L353.186 107.547ZM374.168 108.709C379.741 108.244 384.034 108.562 387.113 109.589C390.156 110.603 391.95 112.281 392.722 114.561L394.616 113.919C393.596 110.908 391.23 108.853 387.745 107.691C384.296 106.542 379.693 106.241 374.002 106.715L374.168 108.709ZM392.713 114.534C393.022 115.539 393.181 116.634 393.181 117.824H395.181C395.181 116.454 394.998 115.16 394.625 113.946L392.713 114.534ZM393.181 117.824C393.181 121.526 392.026 124.145 389.848 125.872C387.625 127.635 384.177 128.6 379.333 128.6V130.6C384.388 130.6 388.363 129.602 391.09 127.439C393.862 125.242 395.181 121.973 395.181 117.824H393.181ZM379.333 128.6C378.198 128.6 375.013 128.351 369.701 127.837L369.509 129.827C374.778 130.337 378.078 130.6 379.333 130.6V128.6ZM369.686 127.835C354.989 126.639 346.166 125.789 343.145 125.286L342.817 127.258C345.94 127.779 354.867 128.636 369.524 129.829L369.686 127.835ZM343.154 125.287C336.535 124.122 331.653 121.553 328.387 117.661C325.118 113.767 323.37 108.432 323.245 101.55L321.245 101.586C321.376 108.784 323.212 114.606 326.855 118.947C330.501 123.29 335.859 126.033 342.808 127.257L343.154 125.287ZM323.245 101.55C322.989 87.3721 322.476 75.0647 321.706 64.6304L319.712 64.7776C320.478 75.1646 320.989 87.4332 321.245 101.586L323.245 101.55ZM321.706 64.6273C321.366 60.2076 321.197 56.3515 321.197 53.056H319.197C319.197 56.4165 319.369 60.3257 319.712 64.7807L321.706 64.6273ZM321.197 53.056C321.197 44.0771 322.086 34.9671 323.867 25.7252L321.903 25.3468C320.1 34.7076 319.197 43.9443 319.197 53.056H321.197ZM323.867 25.7231C325.018 19.6845 327.951 14.8678 332.679 11.2241C337.43 7.56369 344.045 5.04751 352.604 3.74054L352.302 1.76346C343.538 3.10182 336.564 5.70564 331.459 9.63988C326.331 13.5908 323.142 18.8434 321.903 25.3489L323.867 25.7231ZM352.605 3.74037C358.14 2.88877 362.204 2.51719 364.838 2.59951L364.9 0.600487C362.073 0.512132 357.859 0.908556 352.301 1.76363L352.605 3.74037ZM364.83 2.59925C373.544 2.93763 381.343 4.24799 388.236 6.51783L388.862 4.61816C381.761 2.27999 373.773 0.945021 364.908 0.600752L364.83 2.59925ZM388.14 6.4805C390.342 7.46779 392.246 9.43726 393.799 12.5432L395.587 11.6488C393.898 8.2694 391.705 5.88686 388.958 4.65548L388.14 6.4805ZM393.803 12.5528C395.356 15.5756 395.883 18.3045 395.497 20.7736L397.473 21.0824C397.941 18.0901 397.273 14.9311 395.583 11.6392L393.803 12.5528ZM395.496 20.7797C395.369 21.63 395.263 22.2932 395.18 22.7727C395.138 23.0127 395.103 23.2012 395.074 23.3414C395.059 23.4114 395.047 23.4653 395.037 23.505C395.027 23.5481 395.022 23.5613 395.024 23.5558L396.922 24.1882C396.993 23.9741 397.069 23.5824 397.15 23.1153C397.237 22.6135 397.345 21.9327 397.474 21.0763L395.496 20.7797ZM441.563 4.672L441.883 3.72446L441.879 3.72331L441.563 4.672ZM462.299 28.096L463.191 27.6438L463.19 27.6419L462.299 28.096ZM474.715 58.816L475.659 58.4868L475.656 58.4765L474.715 58.816ZM482.011 79.68L481.068 80.0119L481.07 80.019L482.011 79.68ZM490.587 99.904L491.465 99.4251L491.46 99.4155L491.454 99.4059L490.587 99.904ZM493.403 96.832L492.405 96.7655L492.405 96.7749L493.403 96.832ZM491.867 63.936L492.864 63.855V63.855L491.867 63.936ZM490.075 19.904L489.075 19.89V19.8904L490.075 19.904ZM521.051 39.872L520.053 39.8165L521.051 39.872ZM516.187 107.072L517.168 107.268L517.168 107.267L516.187 107.072ZM511.579 121.024L510.728 120.499L510.728 120.499L511.579 121.024ZM499.547 128.704L499.351 127.723L499.547 128.704ZM482.139 125.248L481.526 126.038L481.526 126.038L482.139 125.248ZM456.795 79.808L455.857 80.154L456.795 79.808ZM447.451 53.696L446.501 54.0088L446.502 54.0122L447.451 53.696ZM439.515 43.584L439.971 44.4738L440.047 44.435L440.115 44.384L439.515 43.584ZM434.651 57.536L433.655 57.6265L433.655 57.6283L434.651 57.536ZM440.795 104.64L441.772 104.426L441.772 104.425L440.795 104.64ZM439.259 124.352L440.113 124.873L440.116 124.866L439.259 124.352ZM418.011 123.584L418.894 123.114L418.89 123.108L418.011 123.584ZM412.763 45.76L411.764 45.8087L411.764 45.8099L412.763 45.76ZM415.579 12.864L416.436 13.3785L416.439 13.3738L415.579 12.864ZM441.243 5.61953C447.926 7.87404 454.684 15.357 461.408 28.5501L463.19 27.6419C456.432 14.3817 449.365 6.24862 441.883 3.72446L441.243 5.61953ZM461.407 28.5482C464.449 34.5475 468.57 44.7371 473.774 59.1555L475.656 58.4765C470.449 44.0522 466.293 33.7618 463.191 27.6438L461.407 28.5482ZM473.771 59.1452C477.013 68.4467 479.446 75.4025 481.068 80.0119L482.954 79.3481C481.333 74.7415 478.902 67.7879 475.659 58.4868L473.771 59.1452ZM481.07 80.019C484.486 89.4975 487.369 96.3099 489.72 100.402L491.454 99.4059C489.197 95.4768 486.363 88.8065 482.952 79.341L481.07 80.019ZM489.709 100.383C489.993 100.902 490.311 101.359 490.679 101.697C491.053 102.04 491.539 102.312 492.123 102.312V100.312C492.195 100.312 492.169 100.35 492.031 100.223C491.887 100.091 491.693 99.8442 491.465 99.4251L489.709 100.383ZM492.123 102.312C492.716 102.312 493.136 101.97 493.39 101.628C493.633 101.301 493.796 100.889 493.917 100.467C494.161 99.6109 494.315 98.4016 494.401 96.8891L492.405 96.7749C492.32 98.2491 492.176 99.2797 491.993 99.9173C491.901 100.242 491.819 100.389 491.784 100.436C491.761 100.468 491.871 100.312 492.123 100.312V102.312ZM494.401 96.8985C494.748 91.6908 494.228 80.6483 492.864 63.855L490.87 64.0169C492.237 80.8451 492.741 91.7332 492.405 96.7655L494.401 96.8985ZM492.864 63.855C491.5 47.0659 490.905 32.4214 491.075 19.9176L489.075 19.8904C488.904 32.4745 489.503 47.1848 490.87 64.017L492.864 63.855ZM491.075 19.918C491.159 13.9165 492.368 9.59422 494.545 6.78917C496.684 4.03325 499.871 2.6 504.283 2.6V0.599998C499.394 0.599998 495.562 2.21742 492.965 5.56282C490.406 8.85911 489.162 13.6888 489.075 19.89L491.075 19.918ZM504.283 2.6C509.673 2.6 513.629 4.76161 516.295 9.09966C519.011 13.5174 520.435 20.2726 520.435 29.504H522.435C522.435 20.1327 521.001 12.9359 517.999 8.05234C514.948 3.08905 510.328 0.599998 504.283 0.599998V2.6ZM520.435 29.504C520.435 31.7792 520.308 35.2126 520.053 39.8165L522.049 39.9275C522.306 35.3154 522.435 31.8368 522.435 29.504H520.435ZM520.053 39.8165C519.796 44.4286 519.667 47.9072 519.667 50.24H521.667C521.667 47.9648 521.794 44.5314 522.049 39.9275L520.053 39.8165ZM519.667 50.24C519.667 73.0725 518.176 91.9456 515.206 106.877L517.168 107.267C520.172 92.1611 521.667 73.1461 521.667 50.24H519.667ZM515.206 106.876C513.932 113.246 512.424 117.753 510.728 120.499L512.43 121.549C514.318 118.492 515.882 113.698 517.168 107.268L515.206 106.876ZM510.728 120.499C508.428 124.227 504.684 126.657 499.351 127.723L499.743 129.685C505.503 128.533 509.781 125.843 512.43 121.549L510.728 120.499ZM499.351 127.723C497.714 128.051 495.988 128.216 494.171 128.216V130.216C496.109 130.216 497.967 130.04 499.743 129.685L499.351 127.723ZM494.171 128.216C489.769 128.216 485.977 126.958 482.752 124.458L481.526 126.038C485.127 128.829 489.357 130.216 494.171 130.216V128.216ZM482.752 124.458C478.897 121.465 474.859 116.256 470.66 108.729C466.47 101.217 462.16 91.466 457.733 79.462L455.857 80.154C460.304 92.214 464.656 102.069 468.914 109.703C473.163 117.322 477.359 122.802 481.526 126.038L482.752 124.458ZM457.733 79.462C453.296 67.4307 450.186 58.7396 448.4 53.3798L446.502 54.0122C448.3 59.4044 451.419 68.1213 455.857 80.154L457.733 79.462ZM448.401 53.3832C447.239 49.8554 446.066 47.1369 444.867 45.2812C443.707 43.4872 442.327 42.2 440.667 42.2V44.2C441.226 44.2 442.085 44.6621 443.187 46.3668C444.249 48.0098 445.359 50.5393 446.501 54.0088L448.401 53.3832ZM440.667 42.2C440.024 42.2 439.429 42.3982 438.915 42.784L440.115 44.384C440.283 44.2578 440.457 44.2 440.667 44.2V42.2ZM439.059 42.6942C435.254 44.6454 433.523 48.6935 433.523 54.336H435.523C435.523 49.0558 437.12 45.9359 439.971 44.4738L439.059 42.6942ZM433.523 54.336C433.523 55.5533 433.566 56.6511 433.655 57.6265L435.647 57.4455C435.565 56.5436 435.523 55.508 435.523 54.336H433.523ZM433.655 57.6283C435.703 79.7312 437.756 95.4873 439.818 104.855L441.772 104.425C439.738 95.1901 437.695 79.5435 435.647 57.4437L433.655 57.6283ZM439.818 104.854C440.576 108.308 440.947 111.262 440.947 113.728H442.947C442.947 111.074 442.55 107.969 441.772 104.426L439.818 104.854ZM440.947 113.728C440.947 117.675 440.085 121.032 438.402 123.838L440.116 124.866C442.017 121.699 442.947 117.973 442.947 113.728H440.947ZM438.405 123.831C436.439 127.057 433.763 128.6 430.299 128.6V130.6C434.515 130.6 437.813 128.645 440.113 124.873L438.405 123.831ZM430.299 128.6C424.467 128.6 420.796 126.689 418.894 123.114L417.128 124.054C419.493 128.5 424.013 130.6 430.299 130.6V128.6ZM418.89 123.108C417.327 120.222 416.092 115.018 415.261 107.348C414.435 99.7186 414.019 89.7743 414.019 77.504H412.019C412.019 89.8097 412.435 99.8335 413.273 107.564C414.106 115.254 415.367 120.802 417.132 124.06L418.89 123.108ZM414.019 77.504C414.019 59.7682 413.934 49.1549 413.762 45.7101L411.764 45.8099C411.933 49.1917 412.019 59.7411 412.019 77.504H414.019ZM413.762 45.7113C413.592 42.2288 413.507 38.7464 413.507 35.264H411.507C411.507 38.7789 411.593 42.2938 411.764 45.8087L413.762 45.7113ZM413.507 35.264C413.507 29.5284 413.762 24.8313 414.266 21.1599C414.773 17.4622 415.519 14.9069 416.436 13.3785L414.721 12.3495C413.591 14.2344 412.801 17.1191 412.284 20.8881C411.764 24.6834 411.507 29.4796 411.507 35.264H413.507ZM416.439 13.3738C420.429 6.64124 425.144 3.49599 430.555 3.49599V1.49599C424.19 1.49599 418.921 5.26275 414.719 12.3542L416.439 13.3738ZM430.555 3.49599C433.393 3.49599 436.948 4.18781 441.247 5.62068L441.879 3.72331C437.474 2.25484 433.691 1.49599 430.555 1.49599V3.49599ZM537.823 23.36L538.785 23.6328L538.785 23.6325L537.823 23.36ZM585.567 1.6L585.482 2.59639L585.491 2.59714L585.567 1.6ZM598.111 3.392L598.382 2.42955L598.382 2.42935L598.111 3.392ZM608.351 9.15199L608.989 8.38224V8.38223L608.351 9.15199ZM615.519 18.24L614.592 18.6157L614.595 18.6227L615.519 18.24ZM619.871 35.52L620.869 35.4556L620.868 35.4433L619.871 35.52ZM621.151 48.576L620.157 48.688V48.6882L621.151 48.576ZM622.047 62.016H621.047L621.047 62.0253L622.047 62.016ZM618.207 104.256L619.197 104.397L619.197 104.394L618.207 104.256ZM614.751 114.24L613.829 113.852L613.828 113.854L614.751 114.24ZM599.263 126.912L599.588 127.858L599.588 127.858L599.263 126.912ZM578.527 129.6L578.458 130.598L578.461 130.598L578.527 129.6ZM566.751 128.448L566.947 127.467L566.942 127.466L566.751 128.448ZM555.103 124.864L555.46 123.93L555.449 123.926L555.103 124.864ZM544.991 117.568L544.261 118.252L544.267 118.258L544.991 117.568ZM539.231 106.944H540.231V106.818L540.2 106.696L539.231 106.944ZM535.135 90.944L536.104 90.696L536.103 90.6924L535.135 90.944ZM533.215 71.872L532.215 71.8852L532.215 71.8922L533.215 71.872ZM533.087 52.416H534.087L534.087 52.4052L533.087 52.416ZM584.671 28.352L584.396 29.3135L584.671 28.352ZM569.567 28.352L569.803 29.3238L569.81 29.3221L569.817 29.3203L569.567 28.352ZM558.815 49.344L559.807 49.468L559.808 49.4647L558.815 49.344ZM559.199 86.336L558.211 86.4881L558.211 86.4902L559.199 86.336ZM572.255 106.304L572.071 107.287L572.076 107.288L572.255 106.304ZM588.511 103.744L587.925 102.934L587.923 102.935L588.511 103.744ZM596.703 76.864L595.708 76.7677V76.7679L596.703 76.864ZM595.167 43.072L594.2 43.326L594.2 43.3279L595.167 43.072ZM538.785 23.6325C540.806 16.4981 544.95 11.1802 551.243 7.62251C557.567 4.04706 566.124 2.216 576.991 2.216V0.215996C565.928 0.215996 556.991 2.0756 550.259 5.88148C543.496 9.7051 539.021 15.4592 536.861 23.0875L538.785 23.6325ZM576.991 2.216C579.691 2.216 582.521 2.34255 585.482 2.59634L585.652 0.603652C582.64 0.345448 579.753 0.215996 576.991 0.215996V2.216ZM585.491 2.59714C591.109 3.0227 595.209 3.61457 597.84 4.35465L598.382 2.42935C595.552 1.63343 591.289 1.03063 585.643 0.602856L585.491 2.59714ZM597.84 4.35445C600.998 5.24529 604.289 7.08284 607.713 9.92175L608.989 8.38223C605.415 5.41848 601.88 3.41604 598.382 2.42955L597.84 4.35445ZM607.713 9.92175C611.125 12.7515 613.392 15.6541 614.592 18.6157L616.446 17.8643C615.086 14.5112 612.574 11.3552 608.989 8.38224L607.713 9.92175ZM614.595 18.6227C617.036 24.514 618.457 30.1708 618.874 35.5967L620.868 35.4433C620.432 29.7759 618.952 23.9126 616.443 17.8573L614.595 18.6227ZM618.873 35.5844C619.045 38.2557 619.475 42.6284 620.157 48.688L622.145 48.464C621.462 42.4063 621.038 38.075 620.869 35.4556L618.873 35.5844ZM620.157 48.6882C620.752 53.9566 621.047 58.3967 621.047 62.016H623.047C623.047 58.2966 622.745 53.7767 622.145 48.4638L620.157 48.6882ZM621.047 62.0253C621.132 71.078 619.861 85.0967 617.217 104.118L619.197 104.394C621.844 85.3566 623.133 71.2154 623.047 62.0067L621.047 62.0253ZM617.217 104.115C616.982 105.758 615.885 108.97 613.829 113.852L615.673 114.628C617.713 109.782 618.92 106.338 619.197 104.397L617.217 104.115ZM613.828 113.854C611.584 119.224 606.704 123.294 598.938 125.966L599.588 127.858C607.694 125.069 613.139 120.69 615.674 114.626L613.828 113.854ZM598.938 125.966C593.582 127.808 588.06 128.728 582.367 128.728V130.728C588.28 130.728 594.022 129.771 599.588 127.858L598.938 125.966ZM582.367 128.728C581.109 128.728 579.851 128.686 578.594 128.602L578.461 130.598C579.763 130.685 581.065 130.728 582.367 130.728V128.728ZM578.596 128.602C572.434 128.174 568.578 127.794 566.947 127.467L566.555 129.429C568.337 129.785 572.332 130.172 578.458 130.598L578.596 128.602ZM566.942 127.466C563.95 126.885 560.127 125.712 555.46 123.93L554.746 125.798C559.465 127.6 563.408 128.817 566.56 129.43L566.942 127.466ZM555.449 123.926C552.4 122.803 549.153 120.484 545.715 116.878L544.267 118.258C547.826 121.99 551.32 124.536 554.757 125.802L555.449 123.926ZM545.721 116.884C541.919 112.829 540.231 109.531 540.231 106.944H538.231C538.231 110.331 540.383 114.115 544.261 118.252L545.721 116.884ZM540.2 106.696L536.104 90.696L534.166 91.192L538.262 107.192L540.2 106.696ZM536.103 90.6924C535.024 86.5418 534.385 80.279 534.215 71.8518L532.215 71.8922C532.386 80.361 533.028 86.8129 534.167 91.1956L536.103 90.6924ZM534.215 71.8588C534.13 65.3779 534.087 58.8969 534.087 52.416H532.087C532.087 58.9057 532.13 65.3954 532.215 71.8852L534.215 71.8588ZM534.087 52.4052C534.003 44.6 535.557 35.0163 538.785 23.6328L536.861 23.0872C533.604 34.573 532 44.36 532.087 52.4268L534.087 52.4052ZM584.946 27.3905C579.979 25.9715 574.763 25.9785 569.317 27.3837L569.817 29.3203C574.953 27.9949 579.805 28.0019 584.396 29.3135L584.946 27.3905ZM569.331 27.3801C566.141 28.1535 563.64 30.5076 561.765 34.1681C559.896 37.8162 558.597 42.8548 557.822 49.2233L559.808 49.4647C560.569 43.2038 561.83 38.4291 563.545 35.0799C565.254 31.7431 567.361 29.9158 569.803 29.3238L569.331 27.3801ZM557.823 49.22C557.05 55.4011 556.663 61.3307 556.663 67.008H558.663C558.663 61.4213 559.044 55.5749 559.807 49.468L557.823 49.22ZM556.663 67.008C556.663 73.2921 557.18 79.7858 558.211 86.4881L560.187 86.1839C559.17 79.5742 558.663 73.1825 558.663 67.008H556.663ZM558.211 86.4902C560.099 98.5929 564.564 105.879 572.071 107.287L572.439 105.321C566.292 104.169 562.053 98.1431 560.187 86.1818L558.211 86.4902ZM572.076 107.288C574.011 107.64 575.949 107.816 577.887 107.816V105.816C576.071 105.816 574.253 105.651 572.434 105.32L572.076 107.288ZM577.887 107.816C582.317 107.816 586.077 106.751 589.099 104.553L587.923 102.935C585.313 104.833 581.991 105.816 577.887 105.816V107.816ZM589.097 104.554C591.379 102.904 593.143 99.668 594.524 95.1395C595.916 90.5694 596.97 84.5009 597.698 76.9601L595.708 76.7679C594.985 84.2458 593.948 90.1666 592.61 94.5565C591.26 98.988 589.654 101.683 587.925 102.934L589.097 104.554ZM597.698 76.9603C598.213 71.6437 598.471 66.747 598.471 62.272H596.471C596.471 66.6716 596.217 71.503 595.708 76.7677L597.698 76.9603ZM598.471 62.272C598.471 55.2022 597.695 48.7147 596.134 42.8161L594.2 43.3279C595.711 49.0346 596.471 55.3471 596.471 62.272H598.471ZM596.134 42.818C593.894 34.2892 590.261 28.9091 584.946 27.3905L584.396 29.3135C588.638 30.5256 592.002 34.9588 594.2 43.326L596.134 42.818ZM693.821 76.992L692.823 77.0477L694.805 77.1693L693.821 76.992ZM701.757 37.696L702.725 37.9466L702.727 37.9385L701.757 37.696ZM717.117 4.8L716.702 3.8903L716.699 3.89161L717.117 4.8ZM743.357 14.016L742.468 14.4746L742.47 14.4774L743.357 14.016ZM749.373 46.912L750.372 46.8681L749.373 46.912ZM750.781 81.856L749.781 81.889L749.782 81.9023L750.781 81.856ZM751.293 110.144L750.294 110.101L750.294 110.107L751.293 110.144ZM735.805 125.888L736.268 125.001L736.259 124.997L735.805 125.888ZM726.717 111.296L725.741 111.513L725.742 111.518L726.717 111.296ZM724.541 93.248L723.544 93.3233L723.545 93.3334L724.541 93.248ZM723.389 72.128L722.39 72.1708L722.39 72.1726L723.389 72.128ZM723.517 37.312L724.517 37.3318L722.556 37.0339L723.517 37.312ZM716.989 70.208L715.997 70.0831L715.997 70.0849L716.989 70.208ZM705.725 122.304L705.278 121.41L705.27 121.414L705.725 122.304ZM689.341 122.816L689.778 121.917L689.769 121.912L689.759 121.908L689.341 122.816ZM681.917 112.576L680.926 112.707L680.927 112.715L681.917 112.576ZM677.693 87.744L678.674 87.5496L678.674 87.5479L677.693 87.744ZM672.573 63.168L671.595 63.3748L671.595 63.3764L672.573 63.168ZM663.741 35.904L664.643 35.4729L663.496 33.0711L662.778 35.6344L663.741 35.904ZM663.613 64.064L664.611 64.0003L664.61 63.9878L663.613 64.064ZM665.917 101.312L664.919 101.37L664.919 101.372L665.917 101.312ZM666.557 117.824L665.569 117.672L665.567 117.685L666.557 117.824ZM656.061 129.216L656.304 130.186L656.061 129.216ZM644.285 124.608L645.029 123.94L645.021 123.931L644.285 124.608ZM639.293 91.2L640.292 91.2332L640.293 91.2294L639.293 91.2ZM639.293 57.664L640.288 57.5611L640.287 57.5515L639.293 57.664ZM638.013 36.032L639.012 35.9975L639.012 35.9932L638.013 36.032ZM641.725 13.504L642.636 13.9159L642.636 13.9156L641.725 13.504ZM664.637 2.11199L664.473 3.09839L664.475 3.09884L664.637 2.11199ZM684.861 20.928L685.812 20.6185L685.811 20.6162L684.861 20.928ZM694.805 77.1693C698.219 58.2235 700.858 45.1591 702.725 37.9466L700.789 37.4454C698.901 44.7396 696.25 57.8725 692.837 76.8147L694.805 77.1693ZM702.727 37.9385C705.152 28.2379 707.63 20.7024 710.151 15.3031C712.699 9.84683 715.196 6.78534 717.535 5.70838L716.699 3.89161C713.662 5.28932 710.911 8.94783 708.339 14.4569C705.74 20.0229 703.226 27.6981 700.787 37.4535L702.727 37.9385ZM717.532 5.70968C721.364 3.96026 724.848 3.11199 727.997 3.11199V1.11199C724.49 1.11199 720.72 2.05573 716.702 3.89031L717.532 5.70968ZM727.997 3.11199C733.608 3.11199 738.456 6.70155 742.468 14.4746L744.246 13.5574C740.066 5.45844 734.674 1.11199 727.997 1.11199V3.11199ZM742.47 14.4774C745.689 20.6681 747.692 31.4406 748.374 46.9559L750.372 46.8681C749.689 31.3221 747.681 20.1639 744.244 13.5546L742.47 14.4774ZM748.374 46.9559C749.057 62.4858 749.526 74.1293 749.782 81.8889L751.78 81.8231C751.524 74.052 751.055 62.3996 750.372 46.8681L748.374 46.9559ZM749.782 81.9023C750.379 94.7837 750.548 104.175 750.294 110.101L752.292 110.187C752.55 104.166 752.377 94.6989 751.78 81.8097L749.782 81.9023ZM750.294 110.107C750.083 115.805 749.133 119.927 747.553 122.594C746.016 125.188 743.88 126.424 741.053 126.424V128.424C744.626 128.424 747.397 126.781 749.273 123.614C751.106 120.521 752.077 116.003 752.292 110.181L750.294 110.107ZM741.053 126.424C739.733 126.424 738.146 125.982 736.268 125.001L735.342 126.775C737.389 127.842 739.301 128.424 741.053 128.424V126.424ZM736.259 124.997C732.293 122.975 729.371 118.461 727.692 111.074L725.742 111.518C727.477 119.15 730.613 124.364 735.351 126.779L736.259 124.997ZM727.693 111.079C727.027 108.082 726.306 102.131 725.537 93.1626L723.545 93.3334C724.312 102.285 725.041 108.366 725.741 111.513L727.693 111.079ZM725.538 93.1727C725.198 88.6663 724.815 81.6391 724.388 72.0834L722.39 72.1726C722.817 81.7316 723.201 88.7844 723.544 93.3233L725.538 93.1727ZM724.388 72.0852C724.134 66.148 724.175 54.5734 724.517 37.3318L722.517 37.2922C722.176 54.5252 722.132 66.1613 722.39 72.1708L724.388 72.0852ZM722.556 37.0339C719.723 46.8214 717.538 57.8392 715.997 70.0831L717.981 70.3329C719.512 58.1715 721.679 47.2586 724.478 37.5901L722.556 37.0339ZM715.997 70.0849C713.95 86.5881 711.991 99.1502 710.124 107.789C709.189 112.112 708.284 115.419 707.413 117.736C706.977 118.896 706.561 119.776 706.172 120.402C705.769 121.048 705.458 121.319 705.278 121.41L706.172 123.198C706.845 122.862 707.398 122.217 707.87 121.458C708.355 120.679 708.825 119.664 709.285 118.44C710.206 115.989 711.136 112.571 712.078 108.211C713.965 99.4844 715.932 86.8519 717.981 70.3311L715.997 70.0849ZM705.27 121.414C701.619 123.282 698.985 124.12 697.277 124.12V126.12C699.494 126.12 702.493 125.081 706.18 123.194L705.27 121.414ZM697.277 124.12C695.363 124.12 692.877 123.424 689.778 121.917L688.904 123.715C692.12 125.28 694.925 126.12 697.277 126.12V124.12ZM689.759 121.908C685.818 120.095 683.545 116.982 682.907 112.437L680.927 112.715C681.654 117.898 684.33 121.612 688.923 123.724L689.759 121.908ZM682.908 112.445C681.966 105.335 680.554 97.0358 678.674 87.5496L676.712 87.9384C678.587 97.3962 679.991 105.652 680.926 112.707L682.908 112.445ZM678.674 87.5479C677.478 81.5685 675.77 73.3718 673.551 62.9596L671.595 63.3764C673.813 73.7855 675.519 81.9728 676.712 87.9401L678.674 87.5479ZM673.551 62.9612C671.32 52.4068 668.354 43.2401 664.643 35.4729L662.839 36.3351C666.466 43.9279 669.388 52.9372 671.595 63.3748L673.551 62.9612ZM662.778 35.6344C662.142 37.9055 661.834 41.4333 661.813 46.1395C661.792 50.8701 662.06 56.8729 662.616 64.1402L664.61 63.9878C664.057 56.7484 663.792 50.8045 663.813 46.1485C663.834 41.4681 664.145 38.1692 664.704 36.1736L662.778 35.6344ZM662.615 64.1277C663.639 80.1698 664.407 92.5836 664.919 101.37L666.915 101.254C666.403 92.4617 665.635 80.0436 664.611 64.0003L662.615 64.1277ZM664.919 101.372C665.217 106.319 665.419 110.161 665.526 112.903C665.579 114.274 665.608 115.363 665.613 116.174C665.618 117.014 665.597 117.486 665.569 117.672L667.545 117.976C667.602 117.607 667.618 116.976 667.613 116.162C667.608 115.319 667.578 114.206 667.524 112.825C667.417 110.063 667.214 106.204 666.915 101.252L664.919 101.372ZM665.567 117.685C665.163 120.551 664.145 122.815 662.558 124.538C660.968 126.264 658.744 127.514 655.818 128.246L656.304 130.186C659.522 129.382 662.12 127.965 664.028 125.894C665.939 123.82 667.098 121.156 667.547 117.963L665.567 117.685ZM655.818 128.246C654.836 128.492 654.07 128.6 653.501 128.6V130.6C654.297 130.6 655.238 130.452 656.304 130.186L655.818 128.246ZM653.501 128.6C650.73 128.6 647.907 127.147 645.029 123.94L643.541 125.276C646.636 128.725 649.957 130.6 653.501 130.6V128.6ZM645.021 123.931C643.271 122.029 641.908 118.435 641.082 112.908C640.263 107.425 639.995 100.207 640.292 91.2332L638.294 91.1668C637.994 100.199 638.259 107.551 639.104 113.204C639.942 118.813 641.373 122.92 643.549 125.285L645.021 123.931ZM640.293 91.2294C640.804 73.8401 640.808 62.5897 640.288 57.5611L638.298 57.7669C638.802 62.6369 638.806 73.7439 638.293 91.1706L640.293 91.2294ZM640.287 57.5515C639.779 53.0704 639.354 45.893 639.012 35.9975L637.014 36.0665C637.355 45.9683 637.783 53.2122 638.299 57.7765L640.287 57.5515ZM639.012 35.9932C638.675 27.3159 639.9 19.9693 642.636 13.9159L640.814 13.0921C637.918 19.4974 636.668 27.1694 637.014 36.0708L639.012 35.9932ZM642.636 13.9156C644.37 10.0768 646.621 7.26203 649.359 5.40337C652.092 3.54782 655.378 2.6 659.261 2.6V0.599998C655.038 0.599998 651.347 1.63617 648.235 3.74862C645.128 5.85797 642.664 8.99523 640.814 13.0924L642.636 13.9156ZM659.261 2.6C660.727 2.6 662.461 2.76319 664.473 3.09839L664.801 1.1256C662.717 0.778139 660.867 0.599998 659.261 0.599998V2.6ZM664.475 3.09884C669.248 3.88063 673.222 5.77437 676.436 8.76413C679.656 11.7598 682.159 15.8997 683.911 21.2398L685.811 20.6162C683.979 15.0336 681.32 10.5762 677.798 7.29986C674.27 4.01762 669.924 1.96469 664.799 1.12514L664.475 3.09884ZM683.91 21.2375C688.567 35.546 691.545 54.1398 692.823 77.0477L694.819 76.9363C693.537 53.9349 690.542 35.1527 685.812 20.6185L683.91 21.2375ZM812.876 3.52L813.148 2.55773L813.144 2.55648L812.876 3.52ZM827.468 13.376L828.425 13.0848L828.424 13.0833L827.468 13.376ZM826.956 25.536L826.054 25.1045L826.05 25.1121L826.956 25.536ZM820.3 33.6L819.829 32.7176L819.818 32.7238L820.3 33.6ZM807.756 34.624L807.88 33.6317L806.65 33.4779L806.76 34.7129L807.756 34.624ZM809.548 72L810.546 71.93L810.545 71.927L809.548 72ZM810.316 94.016L811.315 94.0544L811.315 94.0505L810.316 94.016ZM810.316 99.008L811.316 98.9777L811.315 98.9545L811.313 98.9313L810.316 99.008ZM811.724 102.848L811.602 101.855L811.518 101.866L811.437 101.89L811.724 102.848ZM830.796 110.912L831.77 110.687L831.768 110.678L830.796 110.912ZM822.86 125.888L822.418 124.991L822.412 124.994L822.405 124.997L822.86 125.888ZM807.884 129.6L807.813 128.603L807.809 128.603L807.884 129.6ZM787.404 129.088L787.621 128.112L787.618 128.111L787.404 129.088ZM773.964 123.712L774.595 122.936L774.586 122.929L774.578 122.923L773.964 123.712ZM768.844 110.784L767.847 110.706L767.847 110.708L768.844 110.784ZM784.076 99.776L783.833 100.746L783.953 100.776H784.076V99.776ZM787.532 100.416L787.336 101.397L788.431 101.616L788.528 100.503L787.532 100.416ZM787.532 83.264L786.533 83.3044L786.533 83.3094L787.532 83.264ZM787.148 65.984L786.149 65.9415L786.149 65.9489L786.148 65.9562L787.148 65.984ZM786.892 50.24L785.893 50.2881L785.893 50.2926L786.892 50.24ZM786.38 34.496H787.38V33.6099L786.5 33.5033L786.38 34.496ZM772.3 32.704L772.025 33.6655L772.073 33.6791L772.121 33.6879L772.3 32.704ZM767.436 28.736L768.263 28.1737L768.259 28.1683L767.436 28.736ZM765.004 15.424L764.004 15.4103V15.4107L765.004 15.424ZM782.54 3.008L782.368 2.0229L782.366 2.02321L782.54 3.008ZM812.604 4.48225C816.771 5.66085 819.989 7.04325 822.3 8.60468C824.608 10.1631 825.959 11.8615 826.512 13.6687L828.424 13.0833C827.697 10.7092 825.976 8.67421 823.42 6.94732C820.867 5.22341 817.429 3.76848 813.148 2.55774L812.604 4.48225ZM826.511 13.6672C827.083 15.5441 827.364 17.366 827.364 19.136H829.364C829.364 17.1513 829.048 15.1332 828.425 13.0848L826.511 13.6672ZM827.364 19.136C827.364 21.2997 826.924 23.2845 826.054 25.1045L827.858 25.9675C828.865 23.8622 829.364 21.5803 829.364 19.136H827.364ZM826.05 25.1121C824.219 29.0242 822.122 31.4951 819.829 32.7176L820.771 34.4823C823.598 32.9743 825.938 30.0691 827.862 25.9599L826.05 25.1121ZM819.818 32.7238C818.317 33.5492 816.16 34.008 813.26 34.008V36.008C816.333 36.008 818.869 35.5281 820.782 34.4762L819.818 32.7238ZM813.26 34.008C811.69 34.008 809.897 33.8839 807.88 33.6317L807.632 35.6163C809.711 35.8761 811.588 36.008 813.26 36.008V34.008ZM806.76 34.7129C807.184 39.4588 807.396 44.5062 807.396 49.856H809.396C809.396 44.4538 809.182 39.3466 808.752 34.5351L806.76 34.7129ZM807.396 49.856C807.396 54.1633 807.783 61.5776 808.551 72.073L810.545 71.927C809.777 61.4304 809.396 54.0821 809.396 49.856H807.396ZM808.55 72.07C809.233 81.7897 809.485 89.0861 809.317 93.9815L811.315 94.0505C811.488 89.0472 811.229 81.6663 810.546 71.93L808.55 72.07ZM809.317 93.9776C809.231 96.2048 809.229 97.9158 809.319 99.0847L811.313 98.9313C811.232 97.8816 811.23 96.2645 811.315 94.0544L809.317 93.9776ZM809.316 99.0383C809.36 100.464 809.5 101.625 809.793 102.424C809.938 102.821 810.163 103.248 810.544 103.543C810.983 103.883 811.512 103.955 812.011 103.806L811.437 101.89C811.509 101.869 811.659 101.877 811.768 101.961C811.818 102 811.76 101.979 811.671 101.736C811.495 101.255 811.358 100.368 811.316 98.9777L809.316 99.0383ZM811.846 103.841C817.316 103.167 821.476 103.515 824.423 104.761C827.307 105.981 829.087 108.082 829.824 111.146L831.768 110.678C830.884 107.001 828.674 104.387 825.201 102.919C821.791 101.477 817.226 101.163 811.602 101.855L811.846 103.841ZM829.822 111.137C830.062 112.181 830.18 113.172 830.18 114.112H832.18C832.18 113.004 832.042 111.862 831.77 110.687L829.822 111.137ZM830.18 114.112C830.18 116.48 829.543 118.536 828.283 120.319C827.017 122.112 825.084 123.679 822.418 124.991L823.302 126.785C826.183 125.367 828.41 123.606 829.917 121.473C831.431 119.33 832.18 116.864 832.18 114.112H830.18ZM822.405 124.997C818.546 126.968 813.694 128.182 807.813 128.603L807.955 130.597C814.021 130.164 819.152 128.904 823.315 126.779L822.405 124.997ZM807.809 128.603C798.789 129.284 792.081 129.103 787.621 128.112L787.187 130.064C791.943 131.121 798.889 131.282 807.959 130.597L807.809 128.603ZM787.618 128.111C781.436 126.756 777.142 125.005 774.595 122.936L773.333 124.488C776.248 126.856 780.913 128.689 787.19 130.065L787.618 128.111ZM774.578 122.923C771.049 120.178 769.435 116.22 769.841 110.86L767.847 110.708C767.4 116.612 769.199 121.273 773.35 124.501L774.578 122.923ZM769.841 110.862C770.129 107.156 771.168 104.536 772.823 102.843C774.462 101.167 776.84 100.264 780.108 100.264V98.264C776.464 98.264 773.508 99.2813 771.393 101.445C769.293 103.592 768.156 106.732 767.847 110.706L769.841 110.862ZM780.108 100.264C781.299 100.264 782.54 100.423 783.833 100.746L784.319 98.8059C782.882 98.4466 781.477 98.264 780.108 98.264V100.264ZM784.076 100.776C784.021 100.776 784.035 100.772 784.229 100.803C784.383 100.828 784.601 100.866 784.886 100.919C785.455 101.025 786.271 101.184 787.336 101.397L787.728 99.4354C786.66 99.2218 785.833 99.0607 785.25 98.9527C784.959 98.8988 784.724 98.8572 784.547 98.8288C784.411 98.8067 784.217 98.776 784.076 98.776V100.776ZM788.528 100.503C788.875 96.5102 788.873 90.7401 788.531 83.2186L786.533 83.3094C786.874 90.8066 786.871 96.4711 786.536 100.329L788.528 100.503ZM788.531 83.2236C788.19 74.7722 788.063 69.0448 788.148 66.0118L786.148 65.9562C786.062 69.0672 786.192 74.8598 786.533 83.3044L788.531 83.2236ZM788.147 66.0265C788.32 61.971 788.233 56.6877 787.891 50.1874L785.893 50.2926C786.234 56.763 786.318 61.9757 786.149 65.9415L788.147 66.0265ZM787.891 50.1919C787.55 43.112 787.38 37.884 787.38 34.496H785.38C785.38 37.9347 785.552 43.2026 785.893 50.2881L787.891 50.1919ZM786.5 33.5033C778.028 32.4763 773.379 31.8839 772.479 31.7201L772.121 33.6879C773.098 33.8655 777.836 34.4677 786.26 35.4887L786.5 33.5033ZM772.575 31.7425C771.081 31.3157 769.632 30.1873 768.263 28.1737L766.609 29.2983C768.141 31.5514 769.935 33.0683 772.025 33.6655L772.575 31.7425ZM768.259 28.1683C766.745 25.9722 765.919 21.8186 766.004 15.4373L764.004 15.4107C763.919 21.8294 764.714 26.5504 766.613 29.3037L768.259 28.1683ZM766.004 15.4377C766.042 12.6937 767.323 10.3804 770.03 8.46414C772.778 6.51807 776.974 5.00567 782.714 3.99278L782.366 2.02321C776.501 3.05832 771.971 4.63925 768.874 6.83185C765.735 9.05421 764.052 11.925 764.004 15.4103L766.004 15.4377ZM782.712 3.99309C788.04 3.06279 793.017 2.6 797.644 2.6V0.599998C792.885 0.599998 787.792 1.07587 782.368 2.0229L782.712 3.99309ZM797.644 2.6C803.114 2.6 808.1 3.23122 812.608 4.48351L813.144 2.55648C808.436 1.24877 803.267 0.599998 797.644 0.599998V2.6ZM913.928 31.68L914.138 30.7022L914.136 30.702L913.928 31.68ZM868.616 51.904L869.555 52.2476L869.556 52.2449L868.616 51.904ZM870.152 83.392L869.199 83.6947L869.2 83.697L870.152 83.392ZM901 99.392L901.081 100.389L901.093 100.388L901.105 100.387L901 99.392ZM928.392 107.584L927.492 108.021L927.498 108.031L928.392 107.584ZM916.616 125.888L916.865 126.857L916.946 126.836L917.023 126.801L916.616 125.888ZM896.776 129.6L896.754 128.6L896.748 128.6L896.776 129.6ZM867.592 123.584L867.977 122.661L867.975 122.66L867.592 123.584ZM842.632 78.016L841.637 78.1189L841.638 78.123L842.632 78.016ZM843.144 44.224L842.153 44.0879L842.153 44.0918L843.144 44.224ZM851.976 19.776L851.218 19.1235L851.214 19.1283L851.976 19.776ZM868.744 6.592L868.342 5.67617L868.334 5.67983L868.744 6.592ZM889.864 1.6L889.993 2.5917L889.995 2.59139L889.864 1.6ZM915.336 2.49599L915.02 3.44468L915.073 3.46248L915.128 3.47418L915.336 2.49599ZM931.08 20.672L930.084 20.7564L930.084 20.7586L931.08 20.672ZM914.136 30.702C908.882 29.5821 904.159 29.016 899.976 29.016V31.016C903.985 31.016 908.564 31.5592 913.72 32.658L914.136 30.702ZM899.976 29.016C892.01 29.016 885.281 30.8787 879.852 34.668C874.422 38.4576 870.376 44.1162 867.676 51.5631L869.556 52.2449C872.147 45.0998 875.973 39.8144 880.996 36.308C886.021 32.8013 892.326 31.016 899.976 31.016V29.016ZM867.677 51.5604C866.349 55.1899 865.696 59.3204 865.696 63.936H867.696C867.696 59.5062 868.323 55.6154 869.555 52.2476L867.677 51.5604ZM865.696 63.936C865.696 69.7836 866.873 76.3738 869.199 83.6947L871.105 83.0893C868.823 75.9035 867.696 69.523 867.696 63.936H865.696ZM869.2 83.697C871.003 89.3261 873.966 93.6231 878.127 96.5023C882.282 99.3773 887.542 100.776 893.832 100.776V98.776C887.834 98.776 883.003 97.444 879.265 94.8577C875.533 92.2756 872.8 88.3806 871.104 83.087L869.2 83.697ZM893.832 100.776C895.495 100.776 897.917 100.645 901.081 100.389L900.919 98.3953C897.769 98.6507 895.412 98.776 893.832 98.776V100.776ZM901.105 100.387C904.34 100.046 906.729 99.88 908.296 99.88V97.88C906.62 97.88 904.145 98.0554 900.895 98.3975L901.105 100.387ZM908.296 99.88C918.759 99.88 924.934 102.749 927.492 108.021L929.292 107.147C926.218 100.813 918.996 97.88 908.296 97.88V99.88ZM927.498 108.031C928.193 109.422 928.544 110.932 928.544 112.576H930.544C930.544 110.636 930.127 108.818 929.286 107.137L927.498 108.031ZM928.544 112.576C928.544 116.954 924.791 121.151 916.209 124.975L917.023 126.801C925.679 122.945 930.544 118.267 930.544 112.576H928.544ZM916.367 124.919C907.064 127.309 900.552 128.518 896.754 128.6L896.798 130.6C900.851 130.512 907.565 129.245 916.865 126.857L916.367 124.919ZM896.748 128.6C887.699 128.852 878.112 126.884 867.977 122.661L867.207 124.507C877.552 128.817 887.421 130.86 896.804 130.6L896.748 128.6ZM867.975 122.66C854.496 117.071 846.259 102.365 843.626 77.909L841.638 78.123C844.296 102.819 852.699 118.491 867.209 124.508L867.975 122.66ZM843.627 77.9131C843.118 72.9972 842.864 68.1249 842.864 63.296H840.864C840.864 68.1951 841.122 73.1362 841.637 78.1189L843.627 77.9131ZM842.864 63.296C842.864 57.0265 843.288 50.7133 844.135 44.3562L842.153 44.0918C841.294 50.5347 840.864 56.9361 840.864 63.296H842.864ZM844.135 44.3601C845.66 33.2559 848.567 25.3302 852.738 20.4236L851.214 19.1283C846.681 24.4618 843.7 32.8348 842.153 44.0879L844.135 44.3601ZM852.734 20.4285C857.953 14.3679 863.429 10.0762 869.154 7.50416L868.334 5.67983C862.283 8.39851 856.581 12.8961 851.218 19.1235L852.734 20.4285ZM869.146 7.50778C873.881 5.43082 880.812 3.78183 889.993 2.5917L889.735 0.608296C880.484 1.8075 873.335 3.4865 868.342 5.67621L869.146 7.50778ZM889.995 2.59139C894.485 1.99832 898.494 1.70399 902.024 1.70399V-0.296005C898.386 -0.296005 894.288 0.00700259 889.733 0.608608L889.995 2.59139ZM902.024 1.70399C907.247 1.70399 911.57 2.2946 915.02 3.44468L915.652 1.54731C911.935 0.308061 907.383 -0.296005 902.024 -0.296005V1.70399ZM915.128 3.47418C919.787 4.46355 923.297 6.40088 925.748 9.23072C928.201 12.0627 929.67 15.8771 930.084 20.7564L932.076 20.5876C931.637 15.3976 930.055 11.1479 927.26 7.92127C924.463 4.69244 920.528 2.57644 915.544 1.51781L915.128 3.47418ZM930.084 20.7586C930.413 24.5434 929.703 27.1606 928.193 28.8341C926.687 30.5041 924.19 31.448 920.456 31.448V33.448C924.487 33.448 927.644 32.4292 929.678 30.1739C931.71 27.922 932.43 24.6513 932.076 20.5854L930.084 20.7586ZM920.456 31.448C918.578 31.448 916.474 31.2029 914.138 30.7022L913.718 32.6578C916.161 33.1811 918.408 33.448 920.456 33.448V31.448ZM1040.37 90.816L1041.37 90.7561L1041.37 90.7484L1041.37 90.7407L1040.37 90.816ZM1038.07 104.64L1037.13 104.3L1037.13 104.309L1037.12 104.319L1038.07 104.64ZM1033.33 113.984L1032.7 113.212L1032.69 113.216L1033.33 113.984ZM1027.45 118.592L1028.01 119.419L1028.01 119.416L1027.45 118.592ZM1020.79 122.176L1020.44 121.24L1020.43 121.242L1020.79 122.176ZM993.397 127.936L993.268 126.944L993.262 126.945L993.397 127.936ZM980.853 128.576L980.977 127.584L980.966 127.582L980.954 127.581L980.853 128.576ZM967.541 127.168L967.386 128.156L967.407 128.159L967.427 128.162L967.541 127.168ZM955.381 121.28L956.035 120.523L956.032 120.521L955.381 121.28ZM951.669 105.408L950.701 105.159L950.699 105.165L951.669 105.408ZM968.437 96.704L968.313 97.6963L968.314 97.6964L968.437 96.704ZM985.589 99.264L985.393 100.245L985.528 100.272L985.666 100.261L985.589 99.264ZM991.733 99.008L991.747 98.008H991.733V99.008ZM1006.33 97.6L1006.05 96.6395L1006.04 96.6422L1006.33 97.6ZM1014.52 87.488L1015.51 87.4035L1015.51 87.3947L1014.52 87.488ZM1000.44 76.48L1000.22 77.4568L1000.23 77.4584L1000.44 76.48ZM980.597 74.816L980.558 75.8152L980.562 75.8154L980.597 74.816ZM956.021 68.672L956.573 67.838L956.571 67.8367L956.021 68.672ZM944.245 46.912L943.25 47.0167L943.251 47.0215L944.245 46.912ZM948.469 23.232L949.355 23.695L949.358 23.6896L948.469 23.232ZM958.965 10.432L959.528 11.2587L959.537 11.2521L958.965 10.432ZM974.709 4.672L974.531 3.68797L974.525 3.68913L974.709 4.672ZM1003.77 2.11199L1003.86 1.11676L1003.84 1.11504L1003.83 1.11394L1003.77 2.11199ZM1016.82 3.392L1016.93 2.39741L1016.92 2.39677L1016.82 3.392ZM1026.68 20.544L1027.61 20.8951L1026.68 20.544ZM1007.6 25.28L1007.5 26.2748L1007.51 26.275L1007.6 25.28ZM980.085 26.176L979.856 25.2026L979.853 25.2032L980.085 26.176ZM968.437 38.592L967.441 38.5015L967.441 38.5054L968.437 38.592ZM973.045 51.392L973.657 50.6013L973.648 50.5942L973.639 50.5874L973.045 51.392ZM986.613 55.488L986.507 56.4824L986.537 56.4855L986.567 56.4869L986.613 55.488ZM1001.46 56.128L1001.42 57.1272L1001.43 57.1274L1001.46 56.128ZM1028.6 63.424L1029.21 62.6322L1029.2 62.6254L1028.6 63.424ZM1036.66 75.968L1035.73 76.3349L1035.73 76.3368L1036.66 75.968ZM1039.37 90.8759C1039.62 94.979 1038.88 99.4495 1037.13 104.3L1039.01 104.98C1040.84 99.9318 1041.64 95.1864 1041.37 90.7561L1039.37 90.8759ZM1037.12 104.319C1036.28 106.812 1035.47 108.801 1034.71 110.3C1033.94 111.822 1033.26 112.749 1032.7 113.212L1033.97 114.756C1034.86 114.025 1035.69 112.797 1036.5 111.204C1037.32 109.589 1038.15 107.503 1039.02 104.961L1037.12 104.319ZM1032.69 113.216C1030.14 115.345 1028.2 116.857 1026.88 117.768L1028.01 119.416C1029.42 118.45 1031.41 116.89 1033.97 114.752L1032.69 113.216ZM1026.88 117.765C1024.54 119.355 1022.39 120.507 1020.44 121.24L1021.14 123.112C1023.28 122.309 1025.57 121.072 1028.01 119.419L1026.88 117.765ZM1020.43 121.242C1014.74 123.417 1005.71 125.325 993.268 126.944L993.526 128.928C1006 127.304 1015.23 125.373 1021.15 123.11L1020.43 121.242ZM993.262 126.945C987.645 127.711 983.572 127.908 980.977 127.584L980.729 129.568C983.596 129.927 987.885 129.697 993.532 128.927L993.262 126.945ZM980.954 127.581C975.067 126.984 970.635 126.515 967.655 126.174L967.427 128.162C970.421 128.504 974.863 128.973 980.752 129.571L980.954 127.581ZM967.696 126.18C963.551 125.53 959.666 123.66 956.035 120.523L954.727 122.037C958.605 125.386 962.827 127.441 967.386 128.156L967.696 126.18ZM956.032 120.521C953.287 118.168 951.901 115.043 951.901 111.04H949.901C949.901 115.571 951.502 119.272 954.73 122.039L956.032 120.521ZM951.901 111.04C951.901 109.432 952.143 107.637 952.639 105.651L950.699 105.165C950.172 107.275 949.901 109.235 949.901 111.04H951.901ZM952.638 105.657C953.358 102.857 954.691 100.839 956.594 99.5072C958.511 98.1659 961.106 97.448 964.469 97.448V95.448C960.834 95.448 957.798 96.2235 955.448 97.8688C953.084 99.5233 951.516 101.986 950.701 105.159L952.638 105.657ZM964.469 97.448C965.705 97.448 966.986 97.5304 968.313 97.6963L968.561 95.7117C967.158 95.5363 965.793 95.448 964.469 95.448V97.448ZM968.314 97.6964C975.903 98.6344 981.59 99.4841 985.393 100.245L985.785 98.2834C981.908 97.5079 976.16 96.651 968.56 95.7115L968.314 97.6964ZM985.666 100.261C987.863 100.092 989.885 100.008 991.733 100.008V98.008C989.826 98.008 987.752 98.0947 985.512 98.2669L985.666 100.261ZM991.719 100.008C998.07 100.094 1003.05 99.6254 1006.61 98.5578L1006.04 96.6422C1002.77 97.6226 998.025 98.0929 991.747 98.0081L991.719 100.008ZM1006.6 98.5605C1009.67 97.6729 1012.03 96.3187 1013.57 94.4215C1015.12 92.5025 1015.74 90.1327 1015.51 87.4036L1013.52 87.5724C1013.72 89.8779 1013.19 91.7108 1012.01 93.1625C1010.82 94.636 1008.87 95.8204 1006.05 96.6395L1006.6 98.5605ZM1015.51 87.3947C1014.94 81.2394 1009.62 77.401 1000.64 75.5016L1000.23 77.4584C1009 79.3137 1013.07 82.8139 1013.52 87.5813L1015.51 87.3947ZM1000.65 75.5033C997.052 74.7131 990.351 74.1576 980.632 73.8166L980.562 75.8154C990.299 76.157 996.825 76.7109 1000.22 77.4567L1000.65 75.5033ZM980.636 73.8168C969.878 73.3932 961.899 71.3615 956.573 67.838L955.469 69.506C961.236 73.3212 969.641 75.3854 980.558 75.8152L980.636 73.8168ZM956.571 67.8367C950.14 63.6037 946.325 56.658 945.239 46.8025L943.251 47.0215C944.384 57.3046 948.419 64.8656 955.471 69.5073L956.571 67.8367ZM945.24 46.8073C945.073 45.2255 944.989 43.5115 944.989 41.664H942.989C942.989 43.5712 943.076 45.3558 943.25 47.0167L945.24 46.8073ZM944.989 41.664C944.989 35.2514 946.445 29.2667 949.355 23.695L947.583 22.769C944.52 28.632 942.989 34.9352 942.989 41.664H944.989ZM949.358 23.6896C952.294 17.9862 955.694 13.8686 959.528 11.2586L958.402 9.6054C954.214 12.4567 950.618 16.8725 947.58 22.7744L949.358 23.6896ZM959.537 11.2521C963.044 8.80563 968.137 6.92169 974.893 5.65487L974.525 3.68913C967.628 4.9823 962.225 6.93836 958.393 9.61187L959.537 11.2521ZM974.887 5.656C984.755 3.86952 992.883 2.98399 999.285 2.98399V0.983994C992.717 0.983994 984.46 1.89047 974.531 3.68799L974.887 5.656ZM999.285 2.98399C1000.89 2.98399 1002.36 3.02622 1003.7 3.11004L1003.83 1.11394C1002.44 1.0271 1000.92 0.983994 999.285 0.983994V2.98399ZM1003.67 3.10722L1016.72 4.38723L1016.92 2.39677L1003.86 1.11676L1003.67 3.10722ZM1016.72 4.38657C1020.25 4.75657 1022.75 5.81082 1024.37 7.4271C1025.97 9.02755 1026.83 11.3056 1026.83 14.4H1028.83C1028.83 10.9237 1027.85 8.08178 1025.78 6.01289C1023.73 3.95984 1020.73 2.79543 1016.93 2.39743L1016.72 4.38657ZM1026.83 14.4C1026.83 16.3201 1026.47 18.2495 1025.74 20.1929L1027.61 20.8951C1028.42 18.7425 1028.83 16.5759 1028.83 14.4H1026.83ZM1025.74 20.1929C1025.22 21.5746 1024.1 22.6803 1022.17 23.4568C1020.23 24.2425 1017.53 24.664 1014.01 24.664V26.664C1017.65 26.664 1020.64 26.2322 1022.92 25.3112C1025.23 24.381 1026.85 22.9267 1027.61 20.8951L1025.74 20.1929ZM1014.01 24.664C1012.34 24.664 1010.25 24.5391 1007.7 24.285L1007.51 26.275C1010.08 26.5329 1012.25 26.664 1014.01 26.664V24.664ZM1007.71 24.2852C1003.49 23.8553 999.406 23.64 995.445 23.64V25.64C999.334 25.64 1003.35 25.8514 1007.5 26.2748L1007.71 24.2852ZM995.445 23.64C989.503 23.64 984.302 24.1564 979.856 25.2026L980.314 27.1494C984.572 26.1476 989.611 25.64 995.445 25.64V23.64ZM979.853 25.2032C976.135 26.0885 973.178 27.6266 971.068 29.8758C968.95 32.1334 967.757 35.0317 967.441 38.5015L969.433 38.6825C969.715 35.5816 970.762 33.1253 972.526 31.2442C974.299 29.3547 976.867 27.9701 980.317 27.1488L979.853 25.2032ZM967.441 38.5054C966.91 44.6124 968.497 49.2782 972.451 52.1966L973.639 50.5874C970.425 48.2151 968.94 44.3476 969.433 38.6786L967.441 38.5054ZM972.433 52.1827C975.307 54.408 980.065 55.7952 986.507 56.4824L986.719 54.4936C980.361 53.8154 976.074 52.472 973.657 50.6013L972.433 52.1827ZM986.567 56.4869C992.115 56.743 997.067 56.9565 1001.42 57.1272L1001.5 55.1288C997.151 54.9582 992.204 54.745 986.659 54.4891L986.567 56.4869ZM1001.43 57.1274C1013.55 57.5511 1022.35 59.9661 1028 64.2226L1029.2 62.6254C1023.07 58.0073 1013.78 55.5582 1001.5 55.1286L1001.43 57.1274ZM1027.99 64.2158C1030.76 66.3559 1033.37 70.3372 1035.73 76.3349L1037.59 75.6011C1035.18 69.4814 1032.41 65.1001 1029.21 62.6322L1027.99 64.2158ZM1035.73 76.3368C1037.84 81.6435 1039.04 86.4926 1039.38 90.8913L1041.37 90.7407C1041.02 86.0941 1039.75 81.0445 1037.59 75.5992L1035.73 76.3368Z" fill="black" mask="url(#path-1-outside-1_67_62)"/>
</svg>
