<svg width="1060" height="135" viewBox="0 0 1060 135" fill="none" xmlns="http://www.w3.org/2000/svg">
<path d="M103.768 32.888C98.4773 35.2773 91.864 36.472 83.928 36.472C81.2827 36.472 78.4667 36.344 75.48 36.088C78.6373 62.712 80.728 82.8933 81.752 96.632C82.52 107.213 82.904 113.315 82.904 114.936C82.4773 123.555 80.088 128.717 75.736 130.424C72.7493 131.277 69.7627 131.747 66.776 131.832C63.448 131.917 60.376 131.107 57.56 129.4C54.488 127.437 52.824 124.877 52.568 121.72C52.1413 116.856 51.928 110.84 51.928 103.672C51.8427 92.4933 51.8427 83.064 51.928 75.384C52.0133 65.4 51.8853 57.8053 51.544 52.6L50.52 36.856C42.1573 37.7947 35.8853 38.136 31.704 37.88C28.8027 37.7093 26.2 37.3253 23.896 36.728C20.312 34.936 17.9227 33.272 16.728 31.736C14.5093 29.5173 13.4 27.0853 13.4 24.44C13.4 21.4533 14.5093 18.424 16.728 15.352C18.9467 12.28 22.232 10.4453 26.584 9.84799C40.2373 7.88533 53.1227 6.81866 65.24 6.64799C69.1653 6.56266 76.8453 6.47733 88.28 6.392C95.3627 6.30666 100.568 7.03199 103.896 8.56799C110.637 11.64 114.008 16.5467 114.008 23.288C114.008 26.616 110.595 29.816 103.768 32.888ZM125.823 26.36C130.004 11.5973 143.06 4.216 164.991 4.216C167.722 4.216 170.58 4.344 173.567 4.6C179.199 5.02666 183.38 5.624 186.111 6.392C189.439 7.33066 192.852 9.25066 196.351 12.152C199.85 15.0533 202.239 18.0827 203.519 21.24C205.994 27.2133 207.444 32.9733 207.871 38.52C208.042 41.1653 208.468 45.5173 209.151 51.576C209.748 56.8667 210.047 61.3467 210.047 65.016C210.132 74.1467 208.852 88.2267 206.207 107.256C205.951 109.048 204.799 112.376 202.751 117.24C200.362 122.957 195.199 127.181 187.263 129.912C181.802 131.789 176.17 132.728 170.367 132.728C169.087 132.728 167.807 132.685 166.527 132.6C160.383 132.173 156.458 131.789 154.751 131.448C151.679 130.851 147.796 129.656 143.103 127.864C139.86 126.669 136.49 124.237 132.991 120.568C129.151 116.472 127.231 112.931 127.231 109.944L123.135 93.944C122.026 89.6773 121.386 83.32 121.215 74.872C121.13 68.3867 121.087 61.9013 121.087 55.416C121.002 47.48 122.58 37.7947 125.823 26.36ZM172.671 31.352C167.892 29.9867 162.858 29.9867 157.567 31.352C151.935 32.7173 148.351 39.7147 146.815 52.344C146.047 58.488 145.663 64.376 145.663 70.008C145.663 76.2373 146.175 82.68 147.199 89.336C149.076 101.368 153.428 108.024 160.255 109.304C162.132 109.645 164.01 109.816 165.887 109.816C170.154 109.816 173.695 108.792 176.511 106.744C180.522 103.843 183.252 94.8827 184.703 79.864C185.215 74.5733 185.471 69.7093 185.471 65.272C185.471 58.2747 184.703 51.8747 183.167 46.072C180.948 37.624 177.45 32.7173 172.671 31.352ZM323.805 23.032C324.232 30.2853 319.538 37.7093 309.725 45.304C305.458 48.632 298.76 53.0693 289.629 58.616C280.584 64.0773 273.97 68.4293 269.789 71.672C272.861 73.5493 277.938 77.2187 285.021 82.68C291.506 87.7147 296.669 91.256 300.509 93.304C306.653 96.632 311.944 100.515 316.381 104.952L318.429 107C321.672 110.243 323.293 113.101 323.293 115.576C323.293 121.891 320.221 126.029 314.077 127.992C313.565 128.163 312.925 128.248 312.157 128.248C309.256 128.248 305.074 127.096 299.613 124.792C292.957 121.976 285.704 117.197 277.853 110.456C268.21 102.179 260.104 93.944 253.533 85.752C253.448 87.4587 253.49 89.464 253.661 91.768C254.002 96.0347 254.301 98.808 254.557 100.088C255.837 107.256 256.605 112.717 256.861 116.472C257.458 126.712 253.96 132.088 246.365 132.6C240.904 132.941 237.32 131.661 235.613 128.76C233.565 125.347 232.498 123.256 232.413 122.488C231.986 118.904 231.688 116.301 231.517 114.68C230.237 103.843 229.512 97.4427 229.341 95.48L226.781 66.936C225.842 56.3547 225.544 46.2853 225.885 36.728C226.226 27.5973 226.44 22.52 226.525 21.496C226.866 17.144 228.061 13.432 230.109 10.36C232.584 6.52 235.784 4.6 239.709 4.6C240.562 4.6 241.672 4.77066 243.037 5.11199C247.389 6.13599 249.949 8.35466 250.717 11.768C251.656 15.7787 252.04 24.0133 251.869 36.472C251.698 47.1387 252.978 52.472 255.709 52.472C256.392 52.472 257.117 52.1733 257.885 51.576L258.397 51.192C263.261 47.352 266.034 45.1333 266.717 44.536C271.41 40.0987 274.056 37.5813 274.653 36.984L276.573 35.064C284.082 27.5547 289.458 22.4773 292.701 19.832C300.381 13.6027 306.738 10.488 311.773 10.488C319.282 10.488 323.293 14.6693 323.805 23.032ZM408.973 26.872C407.181 30.456 404.621 32.7173 401.293 33.656C399.586 34.168 396.045 34.4667 390.669 34.552C385.805 34.6373 381.325 34.6373 377.229 34.552C373.218 34.4667 369.122 35.192 364.941 36.728C361.186 38.0933 358.712 40.3547 357.517 43.512C357.005 44.7067 356.408 48.0773 355.725 53.624C355.725 55.5867 355.938 59.256 356.365 64.632C357.389 70.1787 360.162 73.208 364.685 73.72C367.501 74.0613 371.426 74.104 376.461 73.848C381.581 73.592 385.72 73.5493 388.877 73.72L397.965 74.232C400.781 74.4027 403.298 75.256 405.517 76.792C408.077 78.584 409.357 80.8027 409.357 83.448C409.357 84.6427 409.186 86.52 408.845 89.08C408.504 90.104 407.693 91.256 406.413 92.536C403.17 94.584 398.605 95.3093 392.717 94.712C386.232 94.0293 381.41 93.6027 378.253 93.432C373.645 93.176 370.829 92.9627 369.805 92.792C368.525 92.6213 367.373 92.536 366.349 92.536C365.325 92.536 364.429 92.6213 363.661 92.792C361.186 92.792 359.522 94.712 358.669 98.552C357.816 102.221 358.242 104.781 359.949 106.232C362.168 108.109 364.301 109.219 366.349 109.56C374.114 110.84 381.026 111.224 387.085 110.712C398.349 109.773 404.877 111.949 406.669 117.24C407.01 118.349 407.181 119.544 407.181 120.824C407.181 128.675 402.232 132.6 392.333 132.6C391.138 132.6 387.896 132.344 382.605 131.832C367.928 130.637 359.053 129.784 355.981 129.272C342.413 126.883 335.501 118.648 335.245 104.568C334.989 90.4027 334.477 78.1147 333.709 67.704C333.368 63.2667 333.197 59.384 333.197 56.056C333.197 47.0107 334.093 37.8373 335.885 28.536C338.274 15.992 348.13 8.39733 365.453 5.752C371 4.89866 375.138 4.51466 377.869 4.6C386.658 4.94133 394.552 6.26399 401.549 8.56799C404.024 9.67733 406.072 11.8533 407.693 15.096C409.314 18.2533 409.912 21.1973 409.485 23.928C409.229 25.6347 409.058 26.616 408.973 26.872ZM454.563 7.672C461.646 10.0613 468.558 17.8693 475.299 31.096C478.371 37.1547 482.51 47.3947 487.715 61.816C490.958 71.1173 493.39 78.072 495.011 82.68C498.424 92.152 501.283 98.8933 503.587 102.904C504.099 103.843 504.611 104.312 505.123 104.312C505.806 104.312 506.232 102.819 506.403 99.832C506.744 94.712 506.232 83.7467 504.867 66.936C503.502 50.1253 502.904 35.448 503.075 22.904C503.246 10.7013 507.982 4.6 517.283 4.6C528.718 4.6 534.435 13.9013 534.435 32.504C534.435 34.808 534.307 38.264 534.051 42.872C533.795 47.48 533.667 50.936 533.667 53.24C533.667 76.1093 532.174 95.0533 529.187 110.072C527.907 116.472 526.371 121.123 524.579 124.024C522.104 128.035 518.094 130.595 512.547 131.704C510.84 132.045 509.048 132.216 507.171 132.216C502.563 132.216 498.552 130.893 495.139 128.248C487.118 122.019 478.67 106.872 469.795 82.808C465.358 70.776 462.243 62.072 460.451 56.696C458.147 49.6987 455.886 46.2 453.667 46.2C453.24 46.2 452.856 46.328 452.515 46.584C449.187 48.2907 447.523 51.8747 447.523 57.336C447.523 58.5307 447.566 59.5973 447.651 60.536C449.699 82.6373 451.747 98.3387 453.795 107.64C454.563 111.139 454.947 114.168 454.947 116.728C454.947 120.824 454.051 124.365 452.259 127.352C450.126 130.851 447.139 132.6 443.299 132.6C437.24 132.6 433.144 130.595 431.011 126.584C427.683 120.44 426.019 105.08 426.019 80.504C426.019 62.7547 425.934 52.1733 425.763 48.76C425.592 45.2613 425.507 41.7627 425.507 38.264C425.507 26.744 426.531 19.2773 428.579 15.864C432.675 8.952 437.667 5.49599 443.555 5.49599C446.542 5.49599 450.211 6.22133 454.563 7.672ZM550.823 26.36C555.004 11.5973 568.06 4.216 589.991 4.216C592.722 4.216 595.58 4.344 598.567 4.6C604.199 5.02666 608.38 5.624 611.111 6.392C614.439 7.33066 617.852 9.25066 621.351 12.152C624.85 15.0533 627.239 18.0827 628.519 21.24C630.994 27.2133 632.444 32.9733 632.871 38.52C633.042 41.1653 633.468 45.5173 634.151 51.576C634.748 56.8667 635.047 61.3467 635.047 65.016C635.132 74.1467 633.852 88.2267 631.207 107.256C630.951 109.048 629.799 112.376 627.751 117.24C625.362 122.957 620.199 127.181 612.263 129.912C606.802 131.789 601.17 132.728 595.367 132.728C594.087 132.728 592.807 132.685 591.527 132.6C585.383 132.173 581.458 131.789 579.751 131.448C576.679 130.851 572.796 129.656 568.103 127.864C564.86 126.669 561.49 124.237 557.991 120.568C554.151 116.472 552.231 112.931 552.231 109.944L548.135 93.944C547.026 89.6773 546.386 83.32 546.215 74.872C546.13 68.3867 546.087 61.9013 546.087 55.416C546.002 47.48 547.58 37.7947 550.823 26.36ZM597.671 31.352C592.892 29.9867 587.858 29.9867 582.567 31.352C576.935 32.7173 573.351 39.7147 571.815 52.344C571.047 58.488 570.663 64.376 570.663 70.008C570.663 76.2373 571.175 82.68 572.199 89.336C574.076 101.368 578.428 108.024 585.255 109.304C587.132 109.645 589.01 109.816 590.887 109.816C595.154 109.816 598.695 108.792 601.511 106.744C605.522 103.843 608.252 94.8827 609.703 79.864C610.215 74.5733 610.471 69.7093 610.471 65.272C610.471 58.2747 609.703 51.8747 608.167 46.072C605.948 37.624 602.45 32.7173 597.671 31.352ZM706.821 79.992C710.234 61.048 712.88 47.9493 714.757 40.696C719.621 21.24 724.741 10.2747 730.117 7.8C734.042 6.00799 737.669 5.11199 740.997 5.11199C747.141 5.11199 752.261 9.07999 756.357 17.016C759.685 23.416 761.69 34.3813 762.373 49.912C763.056 65.4427 763.525 77.0907 763.781 84.856C764.378 97.7413 764.549 107.171 764.293 113.144C763.866 124.664 760.453 130.424 754.053 130.424C752.517 130.424 750.768 129.912 748.805 128.888C744.453 126.669 741.424 121.805 739.717 114.296C739.034 111.224 738.309 105.208 737.541 96.248C737.2 91.7253 736.816 84.6853 736.389 75.128C736.133 69.1547 736.176 57.5493 736.517 40.312C733.701 50.04 731.525 61.0053 729.989 73.208C725.893 106.232 722.138 123.597 718.725 125.304C715.056 127.181 712.24 128.12 710.277 128.12C708.144 128.12 705.498 127.352 702.341 125.816C698.074 123.853 695.6 120.44 694.917 115.576C693.978 108.493 692.57 100.216 690.693 90.744C689.498 84.7707 687.792 76.5787 685.573 66.168C683.354 55.672 680.41 46.584 676.741 38.904C675.546 43.1707 675.504 52.5573 676.613 67.064C677.637 83.1067 678.405 95.5227 678.917 104.312C679.514 114.211 679.728 119.715 679.557 120.824C678.704 126.883 675.205 130.68 669.061 132.216C668.037 132.472 667.184 132.6 666.501 132.6C663.344 132.6 660.272 130.936 657.285 127.608C653.36 123.341 651.696 112.205 652.293 94.2C652.805 76.792 652.805 65.6133 652.293 60.664C651.781 56.1413 651.354 48.9307 651.013 39.032C650.672 30.2427 651.909 22.7333 654.725 16.504C658.309 8.568 664.154 4.6 672.261 4.6C673.797 4.6 675.589 4.77066 677.637 5.11199C687.536 6.73333 694.277 13.0053 697.861 23.928C702.554 38.3493 705.541 57.0373 706.821 79.992ZM825.876 6.52C834.324 8.90933 839.188 12.1947 840.468 16.376C841.065 18.3387 841.364 20.2587 841.364 22.136C841.364 24.44 840.895 26.5733 839.956 28.536C838.079 32.5467 835.86 35.2347 833.3 36.6C831.593 37.5387 829.247 38.008 826.26 38.008C824.639 38.008 822.804 37.88 820.756 37.624C821.183 42.4027 821.396 47.48 821.396 52.856C821.396 57.1227 821.78 64.504 822.548 75C823.231 84.728 823.487 92.0667 823.316 97.016C823.231 99.2347 823.231 100.899 823.316 102.008C823.401 104.824 823.871 106.104 824.724 105.848C835.817 104.483 842.175 107.171 843.796 113.912C844.052 115.021 844.18 116.088 844.18 117.112C844.18 122.232 841.407 126.157 835.86 128.888C831.849 130.936 826.857 132.173 820.884 132.6C811.839 133.283 805.012 133.112 800.404 132.088C794.175 130.723 789.695 128.931 786.964 126.712C783.124 123.725 781.417 119.416 781.844 113.784C782.441 106.104 786.196 102.264 793.108 102.264C794.388 102.264 795.711 102.435 797.076 102.776C797.247 102.776 798.399 102.989 800.532 103.416C800.873 99.4907 800.873 93.7733 800.532 86.264C800.191 77.816 800.063 72.056 800.148 68.984C800.319 64.9733 800.233 59.7253 799.892 53.24C799.551 46.1573 799.38 40.9093 799.38 37.496C790.932 36.472 786.239 35.8747 785.3 35.704C783.508 35.192 781.887 33.8693 780.436 31.736C778.729 29.2613 777.919 24.824 778.004 18.424C778.089 12.1947 783.935 8.05599 795.54 6.008C800.916 5.06933 805.951 4.6 810.644 4.6C816.191 4.6 821.268 5.24 825.876 6.52ZM926.928 34.68C921.723 33.5707 917.072 33.016 912.976 33.016C897.36 33.016 886.907 40.312 881.616 54.904C880.336 58.4027 879.696 62.4133 879.696 66.936C879.696 72.6533 880.848 79.1387 883.152 86.392C886.651 97.3147 894.544 102.776 906.832 102.776C908.453 102.776 910.843 102.648 914 102.392C917.243 102.051 919.675 101.88 921.296 101.88C931.877 101.88 938.576 104.781 941.392 110.584C942.16 112.12 942.544 113.784 942.544 115.576C942.544 120.611 938.235 125.048 929.616 128.888C920.315 131.277 913.701 132.515 909.776 132.6C900.56 132.856 890.832 130.851 880.592 126.584C866.597 120.781 858.277 105.592 855.632 81.016C855.12 76.0667 854.864 71.16 854.864 66.296C854.864 59.9813 855.291 53.624 856.144 47.224C857.68 36.0453 860.624 27.896 864.976 22.776C870.267 16.632 875.856 12.2373 881.744 9.592C886.608 7.45866 893.648 5.79467 902.864 4.6C907.387 4.00266 911.44 3.70399 915.024 3.70399C920.315 3.70399 924.752 4.30133 928.336 5.49599C937.979 7.54399 943.227 13.6027 944.08 23.672C944.763 31.5227 941.221 35.448 933.456 35.448C931.493 35.448 929.317 35.192 926.928 34.68ZM1053.37 93.816C1053.63 98.0827 1052.86 102.691 1051.07 107.64C1049.36 112.675 1047.78 115.789 1046.33 116.984C1043.77 119.117 1041.81 120.653 1040.45 121.592C1038.06 123.213 1035.84 124.408 1033.79 125.176C1027.99 127.395 1018.86 129.315 1006.4 130.936C1000.77 131.704 996.584 131.917 993.853 131.576C987.965 130.979 983.528 130.509 980.541 130.168C976.189 129.485 972.136 127.523 968.381 124.28C965.394 121.72 963.901 118.307 963.901 114.04C963.901 112.333 964.157 110.456 964.669 108.408C966.205 102.435 970.472 99.448 977.469 99.448C978.749 99.448 980.072 99.5333 981.437 99.704C989.032 100.643 994.749 101.496 998.589 102.264C1000.81 102.093 1002.86 102.008 1004.73 102.008C1011.05 102.093 1015.91 101.624 1019.33 100.6C1025.21 98.8933 1027.94 95.5227 1027.52 90.488C1027.01 85.0267 1022.31 81.3573 1013.44 79.48C1009.94 78.712 1003.33 78.1573 993.597 77.816C982.76 77.3893 974.568 75.3413 969.021 71.672C962.28 67.2347 958.354 59.9813 957.245 49.912C957.074 48.2907 956.989 46.5413 956.989 44.664C956.989 38.0933 958.482 31.9493 961.469 26.232C964.456 20.4293 967.954 16.1627 971.965 13.432C975.634 10.872 980.882 8.952 987.709 7.672C997.608 5.87999 1005.8 4.98399 1012.29 4.98399C1013.91 4.98399 1015.4 5.02666 1016.76 5.11199L1029.82 6.392C1037.16 7.16 1040.83 10.8293 1040.83 17.4C1040.83 19.448 1040.45 21.496 1039.68 23.544C1038.4 26.9573 1034.17 28.664 1027.01 28.664C1025.3 28.664 1023.17 28.536 1020.61 28.28C1016.42 27.8533 1012.37 27.64 1008.45 27.64C1002.56 27.64 997.437 28.152 993.085 29.176C985.917 30.8827 982.034 35.0213 981.437 41.592C980.925 47.48 982.461 51.7467 986.045 54.392C988.69 56.44 993.213 57.8053 999.613 58.488C1005.16 58.744 1010.11 58.9573 1014.46 59.128C1026.66 59.5547 1035.71 61.9867 1041.6 66.424C1044.58 68.728 1047.27 72.9093 1049.66 78.968C1051.79 84.344 1053.03 89.2933 1053.37 93.816Z" fill="white"/>
<mask id="path-2-outside-1_113_281" maskUnits="userSpaceOnUse" x="5" y="2" width="1043" height="133" fill="black">
<rect fill="white" x="5" y="2" width="1043" height="133"/>
<path d="M96.768 32.888C91.4773 35.2773 84.864 36.472 76.928 36.472C74.2827 36.472 71.4667 36.344 68.48 36.088C71.6373 62.712 73.728 82.8933 74.752 96.632C75.52 107.213 75.904 113.315 75.904 114.936C75.4773 123.555 73.088 128.717 68.736 130.424C65.7493 131.277 62.7627 131.747 59.776 131.832C56.448 131.917 53.376 131.107 50.56 129.4C47.488 127.437 45.824 124.877 45.568 121.72C45.1413 116.856 44.928 110.84 44.928 103.672C44.8427 92.4933 44.8427 83.064 44.928 75.384C45.0133 65.4 44.8853 57.8053 44.544 52.6L43.52 36.856C35.1573 37.7947 28.8853 38.136 24.704 37.88C21.8027 37.7093 19.2 37.3253 16.896 36.728C13.312 34.936 10.9227 33.272 9.728 31.736C7.50933 29.5173 6.4 27.0853 6.4 24.44C6.4 21.4533 7.50933 18.424 9.728 15.352C11.9467 12.28 15.232 10.4453 19.584 9.84799C33.2373 7.88533 46.1227 6.81866 58.24 6.64799C62.1653 6.56266 69.8453 6.47733 81.28 6.392C88.3627 6.30666 93.568 7.03199 96.896 8.56799C103.637 11.64 107.008 16.5467 107.008 23.288C107.008 26.616 103.595 29.816 96.768 32.888ZM118.823 26.36C123.004 11.5973 136.06 4.216 157.991 4.216C160.722 4.216 163.58 4.344 166.567 4.6C172.199 5.02666 176.38 5.624 179.111 6.392C182.439 7.33066 185.852 9.25066 189.351 12.152C192.85 15.0533 195.239 18.0827 196.519 21.24C198.994 27.2133 200.444 32.9733 200.871 38.52C201.042 41.1653 201.468 45.5173 202.151 51.576C202.748 56.8667 203.047 61.3467 203.047 65.016C203.132 74.1467 201.852 88.2267 199.207 107.256C198.951 109.048 197.799 112.376 195.751 117.24C193.362 122.957 188.199 127.181 180.263 129.912C174.802 131.789 169.17 132.728 163.367 132.728C162.087 132.728 160.807 132.685 159.527 132.6C153.383 132.173 149.458 131.789 147.751 131.448C144.679 130.851 140.796 129.656 136.103 127.864C132.86 126.669 129.49 124.237 125.991 120.568C122.151 116.472 120.231 112.931 120.231 109.944L116.135 93.944C115.026 89.6773 114.386 83.32 114.215 74.872C114.13 68.3867 114.087 61.9013 114.087 55.416C114.002 47.48 115.58 37.7947 118.823 26.36ZM165.671 31.352C160.892 29.9867 155.858 29.9867 150.567 31.352C144.935 32.7173 141.351 39.7147 139.815 52.344C139.047 58.488 138.663 64.376 138.663 70.008C138.663 76.2373 139.175 82.68 140.199 89.336C142.076 101.368 146.428 108.024 153.255 109.304C155.132 109.645 157.01 109.816 158.887 109.816C163.154 109.816 166.695 108.792 169.511 106.744C173.522 103.843 176.252 94.8827 177.703 79.864C178.215 74.5733 178.471 69.7093 178.471 65.272C178.471 58.2747 177.703 51.8747 176.167 46.072C173.948 37.624 170.45 32.7173 165.671 31.352ZM316.805 23.032C317.232 30.2853 312.538 37.7093 302.725 45.304C298.458 48.632 291.76 53.0693 282.629 58.616C273.584 64.0773 266.97 68.4293 262.789 71.672C265.861 73.5493 270.938 77.2187 278.021 82.68C284.506 87.7147 289.669 91.256 293.509 93.304C299.653 96.632 304.944 100.515 309.381 104.952L311.429 107C314.672 110.243 316.293 113.101 316.293 115.576C316.293 121.891 313.221 126.029 307.077 127.992C306.565 128.163 305.925 128.248 305.157 128.248C302.256 128.248 298.074 127.096 292.613 124.792C285.957 121.976 278.704 117.197 270.853 110.456C261.21 102.179 253.104 93.944 246.533 85.752C246.448 87.4587 246.49 89.464 246.661 91.768C247.002 96.0347 247.301 98.808 247.557 100.088C248.837 107.256 249.605 112.717 249.861 116.472C250.458 126.712 246.96 132.088 239.365 132.6C233.904 132.941 230.32 131.661 228.613 128.76C226.565 125.347 225.498 123.256 225.413 122.488C224.986 118.904 224.688 116.301 224.517 114.68C223.237 103.843 222.512 97.4427 222.341 95.48L219.781 66.936C218.842 56.3547 218.544 46.2853 218.885 36.728C219.226 27.5973 219.44 22.52 219.525 21.496C219.866 17.144 221.061 13.432 223.109 10.36C225.584 6.52 228.784 4.6 232.709 4.6C233.562 4.6 234.672 4.77066 236.037 5.11199C240.389 6.13599 242.949 8.35466 243.717 11.768C244.656 15.7787 245.04 24.0133 244.869 36.472C244.698 47.1387 245.978 52.472 248.709 52.472C249.392 52.472 250.117 52.1733 250.885 51.576L251.397 51.192C256.261 47.352 259.034 45.1333 259.717 44.536C264.41 40.0987 267.056 37.5813 267.653 36.984L269.573 35.064C277.082 27.5547 282.458 22.4773 285.701 19.832C293.381 13.6027 299.738 10.488 304.773 10.488C312.282 10.488 316.293 14.6693 316.805 23.032ZM401.973 26.872C400.181 30.456 397.621 32.7173 394.293 33.656C392.586 34.168 389.045 34.4667 383.669 34.552C378.805 34.6373 374.325 34.6373 370.229 34.552C366.218 34.4667 362.122 35.192 357.941 36.728C354.186 38.0933 351.712 40.3547 350.517 43.512C350.005 44.7067 349.408 48.0773 348.725 53.624C348.725 55.5867 348.938 59.256 349.365 64.632C350.389 70.1787 353.162 73.208 357.685 73.72C360.501 74.0613 364.426 74.104 369.461 73.848C374.581 73.592 378.72 73.5493 381.877 73.72L390.965 74.232C393.781 74.4027 396.298 75.256 398.517 76.792C401.077 78.584 402.357 80.8027 402.357 83.448C402.357 84.6427 402.186 86.52 401.845 89.08C401.504 90.104 400.693 91.256 399.413 92.536C396.17 94.584 391.605 95.3093 385.717 94.712C379.232 94.0293 374.41 93.6027 371.253 93.432C366.645 93.176 363.829 92.9627 362.805 92.792C361.525 92.6213 360.373 92.536 359.349 92.536C358.325 92.536 357.429 92.6213 356.661 92.792C354.186 92.792 352.522 94.712 351.669 98.552C350.816 102.221 351.242 104.781 352.949 106.232C355.168 108.109 357.301 109.219 359.349 109.56C367.114 110.84 374.026 111.224 380.085 110.712C391.349 109.773 397.877 111.949 399.669 117.24C400.01 118.349 400.181 119.544 400.181 120.824C400.181 128.675 395.232 132.6 385.333 132.6C384.138 132.6 380.896 132.344 375.605 131.832C360.928 130.637 352.053 129.784 348.981 129.272C335.413 126.883 328.501 118.648 328.245 104.568C327.989 90.4027 327.477 78.1147 326.709 67.704C326.368 63.2667 326.197 59.384 326.197 56.056C326.197 47.0107 327.093 37.8373 328.885 28.536C331.274 15.992 341.13 8.39733 358.453 5.752C364 4.89866 368.138 4.51466 370.869 4.6C379.658 4.94133 387.552 6.26399 394.549 8.56799C397.024 9.67733 399.072 11.8533 400.693 15.096C402.314 18.2533 402.912 21.1973 402.485 23.928C402.229 25.6347 402.058 26.616 401.973 26.872ZM447.563 7.672C454.646 10.0613 461.558 17.8693 468.299 31.096C471.371 37.1547 475.51 47.3947 480.715 61.816C483.958 71.1173 486.39 78.072 488.011 82.68C491.424 92.152 494.283 98.8933 496.587 102.904C497.099 103.843 497.611 104.312 498.123 104.312C498.806 104.312 499.232 102.819 499.403 99.832C499.744 94.712 499.232 83.7467 497.867 66.936C496.502 50.1253 495.904 35.448 496.075 22.904C496.246 10.7013 500.982 4.6 510.283 4.6C521.718 4.6 527.435 13.9013 527.435 32.504C527.435 34.808 527.307 38.264 527.051 42.872C526.795 47.48 526.667 50.936 526.667 53.24C526.667 76.1093 525.174 95.0533 522.187 110.072C520.907 116.472 519.371 121.123 517.579 124.024C515.104 128.035 511.094 130.595 505.547 131.704C503.84 132.045 502.048 132.216 500.171 132.216C495.563 132.216 491.552 130.893 488.139 128.248C480.118 122.019 471.67 106.872 462.795 82.808C458.358 70.776 455.243 62.072 453.451 56.696C451.147 49.6987 448.886 46.2 446.667 46.2C446.24 46.2 445.856 46.328 445.515 46.584C442.187 48.2907 440.523 51.8747 440.523 57.336C440.523 58.5307 440.566 59.5973 440.651 60.536C442.699 82.6373 444.747 98.3387 446.795 107.64C447.563 111.139 447.947 114.168 447.947 116.728C447.947 120.824 447.051 124.365 445.259 127.352C443.126 130.851 440.139 132.6 436.299 132.6C430.24 132.6 426.144 130.595 424.011 126.584C420.683 120.44 419.019 105.08 419.019 80.504C419.019 62.7547 418.934 52.1733 418.763 48.76C418.592 45.2613 418.507 41.7627 418.507 38.264C418.507 26.744 419.531 19.2773 421.579 15.864C425.675 8.952 430.667 5.49599 436.555 5.49599C439.542 5.49599 443.211 6.22133 447.563 7.672ZM543.823 26.36C548.004 11.5973 561.06 4.216 582.991 4.216C585.722 4.216 588.58 4.344 591.567 4.6C597.199 5.02666 601.38 5.624 604.111 6.392C607.439 7.33066 610.852 9.25066 614.351 12.152C617.85 15.0533 620.239 18.0827 621.519 21.24C623.994 27.2133 625.444 32.9733 625.871 38.52C626.042 41.1653 626.468 45.5173 627.151 51.576C627.748 56.8667 628.047 61.3467 628.047 65.016C628.132 74.1467 626.852 88.2267 624.207 107.256C623.951 109.048 622.799 112.376 620.751 117.24C618.362 122.957 613.199 127.181 605.263 129.912C599.802 131.789 594.17 132.728 588.367 132.728C587.087 132.728 585.807 132.685 584.527 132.6C578.383 132.173 574.458 131.789 572.751 131.448C569.679 130.851 565.796 129.656 561.103 127.864C557.86 126.669 554.49 124.237 550.991 120.568C547.151 116.472 545.231 112.931 545.231 109.944L541.135 93.944C540.026 89.6773 539.386 83.32 539.215 74.872C539.13 68.3867 539.087 61.9013 539.087 55.416C539.002 47.48 540.58 37.7947 543.823 26.36ZM590.671 31.352C585.892 29.9867 580.858 29.9867 575.567 31.352C569.935 32.7173 566.351 39.7147 564.815 52.344C564.047 58.488 563.663 64.376 563.663 70.008C563.663 76.2373 564.175 82.68 565.199 89.336C567.076 101.368 571.428 108.024 578.255 109.304C580.132 109.645 582.01 109.816 583.887 109.816C588.154 109.816 591.695 108.792 594.511 106.744C598.522 103.843 601.252 94.8827 602.703 79.864C603.215 74.5733 603.471 69.7093 603.471 65.272C603.471 58.2747 602.703 51.8747 601.167 46.072C598.948 37.624 595.45 32.7173 590.671 31.352ZM699.821 79.992C703.234 61.048 705.88 47.9493 707.757 40.696C712.621 21.24 717.741 10.2747 723.117 7.8C727.042 6.00799 730.669 5.11199 733.997 5.11199C740.141 5.11199 745.261 9.07999 749.357 17.016C752.685 23.416 754.69 34.3813 755.373 49.912C756.056 65.4427 756.525 77.0907 756.781 84.856C757.378 97.7413 757.549 107.171 757.293 113.144C756.866 124.664 753.453 130.424 747.053 130.424C745.517 130.424 743.768 129.912 741.805 128.888C737.453 126.669 734.424 121.805 732.717 114.296C732.034 111.224 731.309 105.208 730.541 96.248C730.2 91.7253 729.816 84.6853 729.389 75.128C729.133 69.1547 729.176 57.5493 729.517 40.312C726.701 50.04 724.525 61.0053 722.989 73.208C718.893 106.232 715.138 123.597 711.725 125.304C708.056 127.181 705.24 128.12 703.277 128.12C701.144 128.12 698.498 127.352 695.341 125.816C691.074 123.853 688.6 120.44 687.917 115.576C686.978 108.493 685.57 100.216 683.693 90.744C682.498 84.7707 680.792 76.5787 678.573 66.168C676.354 55.672 673.41 46.584 669.741 38.904C668.546 43.1707 668.504 52.5573 669.613 67.064C670.637 83.1067 671.405 95.5227 671.917 104.312C672.514 114.211 672.728 119.715 672.557 120.824C671.704 126.883 668.205 130.68 662.061 132.216C661.037 132.472 660.184 132.6 659.501 132.6C656.344 132.6 653.272 130.936 650.285 127.608C646.36 123.341 644.696 112.205 645.293 94.2C645.805 76.792 645.805 65.6133 645.293 60.664C644.781 56.1413 644.354 48.9307 644.013 39.032C643.672 30.2427 644.909 22.7333 647.725 16.504C651.309 8.568 657.154 4.6 665.261 4.6C666.797 4.6 668.589 4.77066 670.637 5.11199C680.536 6.73333 687.277 13.0053 690.861 23.928C695.554 38.3493 698.541 57.0373 699.821 79.992ZM818.876 6.52C827.324 8.90933 832.188 12.1947 833.468 16.376C834.065 18.3387 834.364 20.2587 834.364 22.136C834.364 24.44 833.895 26.5733 832.956 28.536C831.079 32.5467 828.86 35.2347 826.3 36.6C824.593 37.5387 822.247 38.008 819.26 38.008C817.639 38.008 815.804 37.88 813.756 37.624C814.183 42.4027 814.396 47.48 814.396 52.856C814.396 57.1227 814.78 64.504 815.548 75C816.231 84.728 816.487 92.0667 816.316 97.016C816.231 99.2347 816.231 100.899 816.316 102.008C816.401 104.824 816.871 106.104 817.724 105.848C828.817 104.483 835.175 107.171 836.796 113.912C837.052 115.021 837.18 116.088 837.18 117.112C837.18 122.232 834.407 126.157 828.86 128.888C824.849 130.936 819.857 132.173 813.884 132.6C804.839 133.283 798.012 133.112 793.404 132.088C787.175 130.723 782.695 128.931 779.964 126.712C776.124 123.725 774.417 119.416 774.844 113.784C775.441 106.104 779.196 102.264 786.108 102.264C787.388 102.264 788.711 102.435 790.076 102.776C790.247 102.776 791.399 102.989 793.532 103.416C793.873 99.4907 793.873 93.7733 793.532 86.264C793.191 77.816 793.063 72.056 793.148 68.984C793.319 64.9733 793.233 59.7253 792.892 53.24C792.551 46.1573 792.38 40.9093 792.38 37.496C783.932 36.472 779.239 35.8747 778.3 35.704C776.508 35.192 774.887 33.8693 773.436 31.736C771.729 29.2613 770.919 24.824 771.004 18.424C771.089 12.1947 776.935 8.05599 788.54 6.008C793.916 5.06933 798.951 4.6 803.644 4.6C809.191 4.6 814.268 5.24 818.876 6.52ZM919.928 34.68C914.723 33.5707 910.072 33.016 905.976 33.016C890.36 33.016 879.907 40.312 874.616 54.904C873.336 58.4027 872.696 62.4133 872.696 66.936C872.696 72.6533 873.848 79.1387 876.152 86.392C879.651 97.3147 887.544 102.776 899.832 102.776C901.453 102.776 903.843 102.648 907 102.392C910.243 102.051 912.675 101.88 914.296 101.88C924.877 101.88 931.576 104.781 934.392 110.584C935.16 112.12 935.544 113.784 935.544 115.576C935.544 120.611 931.235 125.048 922.616 128.888C913.315 131.277 906.701 132.515 902.776 132.6C893.56 132.856 883.832 130.851 873.592 126.584C859.597 120.781 851.277 105.592 848.632 81.016C848.12 76.0667 847.864 71.16 847.864 66.296C847.864 59.9813 848.291 53.624 849.144 47.224C850.68 36.0453 853.624 27.896 857.976 22.776C863.267 16.632 868.856 12.2373 874.744 9.592C879.608 7.45866 886.648 5.79467 895.864 4.6C900.387 4.00266 904.44 3.70399 908.024 3.70399C913.315 3.70399 917.752 4.30133 921.336 5.49599C930.979 7.54399 936.227 13.6027 937.08 23.672C937.763 31.5227 934.221 35.448 926.456 35.448C924.493 35.448 922.317 35.192 919.928 34.68ZM1046.37 93.816C1046.63 98.0827 1045.86 102.691 1044.07 107.64C1042.36 112.675 1040.78 115.789 1039.33 116.984C1036.77 119.117 1034.81 120.653 1033.45 121.592C1031.06 123.213 1028.84 124.408 1026.79 125.176C1020.99 127.395 1011.86 129.315 999.397 130.936C993.765 131.704 989.584 131.917 986.853 131.576C980.965 130.979 976.528 130.509 973.541 130.168C969.189 129.485 965.136 127.523 961.381 124.28C958.394 121.72 956.901 118.307 956.901 114.04C956.901 112.333 957.157 110.456 957.669 108.408C959.205 102.435 963.472 99.448 970.469 99.448C971.749 99.448 973.072 99.5333 974.437 99.704C982.032 100.643 987.749 101.496 991.589 102.264C993.808 102.093 995.856 102.008 997.733 102.008C1004.05 102.093 1008.91 101.624 1012.33 100.6C1018.21 98.8933 1020.94 95.5227 1020.52 90.488C1020.01 85.0267 1015.31 81.3573 1006.44 79.48C1002.94 78.712 996.325 78.1573 986.597 77.816C975.76 77.3893 967.568 75.3413 962.021 71.672C955.28 67.2347 951.354 59.9813 950.245 49.912C950.074 48.2907 949.989 46.5413 949.989 44.664C949.989 38.0933 951.482 31.9493 954.469 26.232C957.456 20.4293 960.954 16.1627 964.965 13.432C968.634 10.872 973.882 8.952 980.709 7.672C990.608 5.87999 998.8 4.98399 1005.29 4.98399C1006.91 4.98399 1008.4 5.02666 1009.76 5.11199L1022.82 6.392C1030.16 7.16 1033.83 10.8293 1033.83 17.4C1033.83 19.448 1033.45 21.496 1032.68 23.544C1031.4 26.9573 1027.17 28.664 1020.01 28.664C1018.3 28.664 1016.17 28.536 1013.61 28.28C1009.42 27.8533 1005.37 27.64 1001.45 27.64C995.557 27.64 990.437 28.152 986.085 29.176C978.917 30.8827 975.034 35.0213 974.437 41.592C973.925 47.48 975.461 51.7467 979.045 54.392C981.69 56.44 986.213 57.8053 992.613 58.488C998.16 58.744 1003.11 58.9573 1007.46 59.128C1019.66 59.5547 1028.71 61.9867 1034.6 66.424C1037.58 68.728 1040.27 72.9093 1042.66 78.968C1044.79 84.344 1046.03 89.2933 1046.37 93.816Z"/>
</mask>
<path d="M96.768 32.888L96.3576 31.9761L96.3564 31.9766L96.768 32.888ZM68.48 36.088L68.5654 35.0917L67.3424 34.9868L67.487 36.2058L68.48 36.088ZM74.752 96.632L75.7494 96.5596L75.7492 96.5577L74.752 96.632ZM75.904 114.936L76.9028 114.985L76.904 114.961V114.936H75.904ZM68.736 130.424L69.0107 131.386L69.0566 131.372L69.1011 131.355L68.736 130.424ZM59.776 131.832L59.8016 132.832L59.8046 132.832L59.776 131.832ZM50.56 129.4L50.0216 130.243L50.0316 130.249L50.0417 130.255L50.56 129.4ZM45.568 121.72L46.5648 121.639L46.5642 121.633L45.568 121.72ZM44.928 103.672H45.928L45.928 103.664L44.928 103.672ZM44.928 75.384L45.9279 75.3951L45.928 75.3925L44.928 75.384ZM44.544 52.6L43.5461 52.6649L43.5461 52.6654L44.544 52.6ZM43.52 36.856L44.5179 36.7911L44.4499 35.7453L43.4085 35.8622L43.52 36.856ZM24.704 37.88L24.7651 36.8819L24.7627 36.8817L24.704 37.88ZM16.896 36.728L16.4488 37.6224L16.543 37.6695L16.645 37.696L16.896 36.728ZM9.728 31.736L10.5174 31.1221L10.4791 31.0729L10.4351 31.0289L9.728 31.736ZM9.728 15.352L10.5387 15.9375L9.728 15.352ZM19.584 9.84799L19.72 10.8387L19.7263 10.8378L19.584 9.84799ZM58.24 6.64799L58.2541 7.64792L58.2617 7.64776L58.24 6.64799ZM81.28 6.392L81.2875 7.39198L81.2921 7.39193L81.28 6.392ZM96.896 8.56799L96.4769 9.47596L96.4813 9.47796L96.896 8.56799ZM96.3564 31.9766C91.2334 34.2903 84.7711 35.472 76.928 35.472V37.472C84.9569 37.472 91.7213 36.2644 97.1796 33.7994L96.3564 31.9766ZM76.928 35.472C74.3146 35.472 71.5273 35.3455 68.5654 35.0917L68.3946 37.0843C71.406 37.3425 74.2507 37.472 76.928 37.472V35.472ZM67.487 36.2058C70.6439 62.8261 72.7324 82.99 73.7548 96.7063L75.7492 96.5577C74.7236 82.7967 72.6308 62.5979 69.473 35.9702L67.487 36.2058ZM73.7546 96.7044C74.5244 107.31 74.904 113.361 74.904 114.936H76.904C76.904 113.268 76.5156 107.117 75.7494 96.5596L73.7546 96.7044ZM74.9052 114.887C74.481 123.456 72.1189 128.023 68.3709 129.493L69.1011 131.355C74.0571 129.411 76.4737 123.654 76.9028 114.985L74.9052 114.887ZM68.4613 129.462C65.5516 130.294 62.6475 130.75 59.7474 130.832L59.8046 132.832C62.8778 132.744 65.9471 132.261 69.0107 131.386L68.4613 129.462ZM59.7504 130.832C56.6115 130.913 53.7287 130.151 51.0783 128.545L50.0417 130.255C53.0233 132.062 56.2845 132.922 59.8016 132.832L59.7504 130.832ZM51.0984 128.557C48.2447 126.734 46.7914 124.435 46.5647 121.639L44.5713 121.801C44.8566 125.32 46.7313 128.141 50.0216 130.243L51.0984 128.557ZM46.5642 121.633C46.1409 116.808 45.928 110.823 45.928 103.672H43.928C43.928 110.857 44.1417 116.904 44.5718 121.807L46.5642 121.633ZM45.928 103.664C45.8427 92.4894 45.8427 83.0668 45.9279 75.3951L43.9281 75.3729C43.8426 83.0612 43.8427 92.4973 43.928 103.68L45.928 103.664ZM45.928 75.3925C46.0134 65.4018 45.8857 57.7776 45.5419 52.5346L43.5461 52.6654C43.885 57.8331 44.0133 65.3982 43.928 75.3755L45.928 75.3925ZM45.5419 52.5351L44.5179 36.7911L42.5221 36.9209L43.5461 52.6649L45.5419 52.5351ZM43.4085 35.8622C35.058 36.7995 28.8566 37.1324 24.7651 36.8819L24.6429 38.8781C28.9141 39.1396 35.2567 38.7898 43.6315 37.8498L43.4085 35.8622ZM24.7627 36.8817C21.9126 36.7141 19.376 36.3379 17.147 35.76L16.645 37.696C19.024 38.3128 21.6927 38.7046 24.6453 38.8783L24.7627 36.8817ZM17.3432 35.8336C13.7805 34.0522 11.566 32.4703 10.5174 31.1221L8.93865 32.3499C10.2793 34.0737 12.8435 35.8198 16.4488 37.6224L17.3432 35.8336ZM10.4351 31.0289C8.36648 28.9603 7.4 26.7714 7.4 24.44H5.4C5.4 27.3992 6.65218 30.0744 9.02089 32.4431L10.4351 31.0289ZM7.4 24.44C7.4 21.714 8.40982 18.8851 10.5387 15.9375L8.91732 14.7665C6.60884 17.9629 5.4 21.1927 5.4 24.44H7.4ZM10.5387 15.9375C12.5715 13.1228 15.5918 11.4053 19.72 10.8387L19.448 8.85728C14.8722 9.48534 11.3218 11.4372 8.91732 14.7665L10.5387 15.9375ZM19.7263 10.8378C33.3428 8.88044 46.185 7.81788 58.2541 7.6479L58.2259 5.64809C46.0603 5.81944 33.1318 6.89021 19.4417 8.85817L19.7263 10.8378ZM58.2617 7.64776C62.1788 7.56261 69.8518 7.47731 81.2875 7.39197L81.2725 5.39203C69.8389 5.47735 62.1519 5.56272 58.2183 5.64823L58.2617 7.64776ZM81.2921 7.39193C88.3395 7.30701 93.3588 8.03683 96.4769 9.47595L97.3151 7.66003C93.7772 6.02716 88.3859 5.30631 81.268 5.39207L81.2921 7.39193ZM96.4813 9.47796C99.7269 10.957 102.096 12.8471 103.656 15.1182C105.212 17.3834 106.008 20.0918 106.008 23.288H108.008C108.008 19.7429 107.119 16.6272 105.304 13.9858C103.494 11.3502 100.806 9.25103 97.3107 7.65802L96.4813 9.47796ZM106.008 23.288C106.008 24.5786 105.353 25.965 103.764 27.4545C102.171 28.9476 99.7232 30.4616 96.3576 31.9761L97.1784 33.7999C100.639 32.2424 103.311 30.6204 105.132 28.9135C106.956 27.203 108.008 25.3254 108.008 23.288H106.008ZM118.823 26.36L119.785 26.6328L119.785 26.6325L118.823 26.36ZM166.567 4.6L166.482 5.59639L166.491 5.59714L166.567 4.6ZM179.111 6.392L179.382 5.42955L179.382 5.42935L179.111 6.392ZM189.351 12.152L189.989 11.3822L189.989 11.3822L189.351 12.152ZM196.519 21.24L195.592 21.6157L195.595 21.6227L196.519 21.24ZM200.871 38.52L201.869 38.4556L201.868 38.4433L200.871 38.52ZM202.151 51.576L201.157 51.688L201.157 51.6882L202.151 51.576ZM203.047 65.016H202.047L202.047 65.0253L203.047 65.016ZM199.207 107.256L200.197 107.397L200.197 107.394L199.207 107.256ZM195.751 117.24L194.829 116.852L194.828 116.854L195.751 117.24ZM180.263 129.912L180.588 130.858L180.588 130.858L180.263 129.912ZM159.527 132.6L159.458 133.598L159.46 133.598L159.527 132.6ZM147.751 131.448L147.947 130.467L147.942 130.466L147.751 131.448ZM136.103 127.864L136.46 126.93L136.449 126.926L136.103 127.864ZM125.991 120.568L125.261 121.252L125.267 121.258L125.991 120.568ZM120.231 109.944H121.231V109.818L121.2 109.696L120.231 109.944ZM116.135 93.944L117.104 93.696L117.103 93.6924L116.135 93.944ZM114.215 74.872L113.215 74.8852L113.215 74.8922L114.215 74.872ZM114.087 55.416H115.087L115.087 55.4052L114.087 55.416ZM165.671 31.352L165.396 32.3135L165.671 31.352ZM150.567 31.352L150.803 32.3238L150.81 32.3221L150.817 32.3203L150.567 31.352ZM139.815 52.344L140.807 52.468L140.808 52.4647L139.815 52.344ZM140.199 89.336L139.211 89.4881L139.211 89.4902L140.199 89.336ZM153.255 109.304L153.071 110.287L153.076 110.288L153.255 109.304ZM169.511 106.744L168.925 105.934L168.923 105.935L169.511 106.744ZM177.703 79.864L176.708 79.7677L176.708 79.7679L177.703 79.864ZM176.167 46.072L175.2 46.326L175.2 46.3279L176.167 46.072ZM119.785 26.6325C121.806 19.4981 125.95 14.1802 132.243 10.6225C138.567 7.04706 147.124 5.216 157.991 5.216V3.216C146.928 3.216 137.991 5.0756 131.259 8.88148C124.496 12.7051 120.021 18.4592 117.861 26.0875L119.785 26.6325ZM157.991 5.216C160.691 5.216 163.521 5.34255 166.482 5.59634L166.652 3.60365C163.64 3.34545 160.753 3.216 157.991 3.216V5.216ZM166.491 5.59714C172.109 6.0227 176.209 6.61457 178.84 7.35465L179.382 5.42935C176.552 4.63343 172.289 4.03063 166.643 3.60286L166.491 5.59714ZM178.84 7.35445C181.998 8.24529 185.289 10.0828 188.713 12.9218L189.989 11.3822C186.415 8.41848 182.88 6.41604 179.382 5.42955L178.84 7.35445ZM188.713 12.9218C192.125 15.7515 194.392 18.6541 195.592 21.6157L197.446 20.8643C196.086 17.5112 193.574 14.3552 189.989 11.3822L188.713 12.9218ZM195.595 21.6227C198.036 27.514 199.457 33.1708 199.874 38.5967L201.868 38.4433C201.432 32.7759 199.952 26.9126 197.443 20.8573L195.595 21.6227ZM199.873 38.5844C200.045 41.2557 200.475 45.6284 201.157 51.688L203.145 51.464C202.462 45.4063 202.038 41.075 201.869 38.4556L199.873 38.5844ZM201.157 51.6882C201.752 56.9566 202.047 61.3967 202.047 65.016H204.047C204.047 61.2966 203.745 56.7767 203.145 51.4638L201.157 51.6882ZM202.047 65.0253C202.132 74.078 200.861 88.0967 198.217 107.118L200.197 107.394C202.844 88.3566 204.133 74.2154 204.047 65.0067L202.047 65.0253ZM198.217 107.115C197.982 108.758 196.885 111.97 194.829 116.852L196.673 117.628C198.713 112.782 199.92 109.338 200.197 107.397L198.217 107.115ZM194.828 116.854C192.584 122.224 187.704 126.294 179.938 128.966L180.588 130.858C188.694 128.069 194.139 123.69 196.674 117.626L194.828 116.854ZM179.938 128.966C174.582 130.808 169.06 131.728 163.367 131.728V133.728C169.28 133.728 175.022 132.771 180.588 130.858L179.938 128.966ZM163.367 131.728C162.109 131.728 160.851 131.686 159.594 131.602L159.46 133.598C160.763 133.685 162.065 133.728 163.367 133.728V131.728ZM159.596 131.602C153.434 131.174 149.578 130.794 147.947 130.467L147.555 132.429C149.337 132.785 153.332 133.172 159.458 133.598L159.596 131.602ZM147.942 130.466C144.95 129.885 141.127 128.712 136.46 126.93L135.746 128.798C140.465 130.6 144.408 131.817 147.56 132.43L147.942 130.466ZM136.449 126.926C133.4 125.803 130.153 123.484 126.715 119.878L125.267 121.258C128.826 124.99 132.32 127.536 135.757 128.802L136.449 126.926ZM126.721 119.884C122.919 115.829 121.231 112.531 121.231 109.944H119.231C119.231 113.331 121.383 117.115 125.261 121.252L126.721 119.884ZM121.2 109.696L117.104 93.696L115.166 94.192L119.262 110.192L121.2 109.696ZM117.103 93.6924C116.024 89.5418 115.385 83.279 115.215 74.8518L113.215 74.8922C113.386 83.361 114.028 89.8129 115.167 94.1956L117.103 93.6924ZM115.215 74.8588C115.13 68.3779 115.087 61.8969 115.087 55.416H113.087C113.087 61.9057 113.13 68.3954 113.215 74.8852L115.215 74.8588ZM115.087 55.4052C115.003 47.6 116.557 38.0163 119.785 26.6328L117.861 26.0872C114.604 37.573 113 47.36 113.087 55.4268L115.087 55.4052ZM165.946 30.3905C160.979 28.9715 155.763 28.9785 150.317 30.3837L150.817 32.3203C155.953 30.9949 160.805 31.0019 165.396 32.3135L165.946 30.3905ZM150.331 30.3801C147.141 31.1535 144.64 33.5076 142.765 37.1681C140.896 40.8162 139.597 45.8548 138.822 52.2233L140.808 52.4647C141.569 46.2038 142.83 41.4291 144.545 38.0799C146.254 34.7431 148.361 32.9158 150.803 32.3238L150.331 30.3801ZM138.823 52.22C138.05 58.4011 137.663 64.3307 137.663 70.008H139.663C139.663 64.4213 140.044 58.5749 140.807 52.468L138.823 52.22ZM137.663 70.008C137.663 76.2921 138.18 82.7858 139.211 89.4881L141.187 89.1839C140.171 82.5742 139.663 76.1825 139.663 70.008H137.663ZM139.211 89.4902C141.099 101.593 145.564 108.879 153.071 110.287L153.439 108.321C147.292 107.169 143.053 101.143 141.187 89.1818L139.211 89.4902ZM153.076 110.288C155.012 110.64 156.949 110.816 158.887 110.816V108.816C157.071 108.816 155.253 108.651 153.434 108.32L153.076 110.288ZM158.887 110.816C163.317 110.816 167.077 109.751 170.099 107.553L168.923 105.935C166.313 107.833 162.991 108.816 158.887 108.816V110.816ZM170.097 107.554C172.379 105.904 174.143 102.668 175.524 98.1395C176.916 93.5694 177.97 87.5009 178.698 79.9601L176.708 79.7679C175.985 87.2458 174.948 93.1666 173.61 97.5565C172.26 101.988 170.654 104.683 168.925 105.934L170.097 107.554ZM178.698 79.9603C179.213 74.6437 179.471 69.747 179.471 65.272H177.471C177.471 69.6716 177.217 74.503 176.708 79.7677L178.698 79.9603ZM179.471 65.272C179.471 58.2022 178.695 51.7147 177.134 45.8161L175.2 46.3279C176.711 52.0346 177.471 58.3471 177.471 65.272H179.471ZM177.134 45.818C174.894 37.2892 171.261 31.9091 165.946 30.3905L165.396 32.3135C169.638 33.5256 173.002 37.9588 175.2 46.326L177.134 45.818ZM316.805 23.032L317.803 22.9733L317.803 22.9709L316.805 23.032ZM302.725 45.304L302.113 44.5132L302.11 44.5155L302.725 45.304ZM282.629 58.616L283.146 59.4721L283.148 59.4707L282.629 58.616ZM262.789 71.672L262.176 70.8818L261.031 71.7697L262.268 72.5253L262.789 71.672ZM278.021 82.68L278.634 81.8901L278.632 81.8881L278.021 82.68ZM293.509 93.304L293.985 92.4247L293.98 92.4216L293.509 93.304ZM309.381 104.952L310.088 104.245L309.381 104.952ZM311.429 107L310.722 107.707L311.429 107ZM307.077 127.992L306.773 127.039L306.761 127.043L307.077 127.992ZM292.613 124.792L292.223 125.713L292.224 125.713L292.613 124.792ZM270.853 110.456L271.504 109.697L271.504 109.697L270.853 110.456ZM246.533 85.752L247.313 85.1263L245.666 83.0725L245.534 85.7021L246.533 85.752ZM246.661 91.768L245.664 91.8419L245.664 91.8477L246.661 91.768ZM247.557 100.088L248.541 99.9122L248.54 99.902L248.538 99.8919L247.557 100.088ZM249.861 116.472L250.859 116.414L250.859 116.404L249.861 116.472ZM239.365 132.6L239.427 133.598L239.432 133.598L239.365 132.6ZM228.613 128.76L229.475 128.253L229.47 128.245L228.613 128.76ZM225.413 122.488L226.407 122.378L226.406 122.37L225.413 122.488ZM224.517 114.68L225.512 114.575L225.51 114.563L224.517 114.68ZM222.341 95.48L223.337 95.3934L223.337 95.3907L222.341 95.48ZM219.781 66.936L218.785 67.0244L218.785 67.0253L219.781 66.936ZM218.885 36.728L217.886 36.6906L217.886 36.6923L218.885 36.728ZM219.525 21.496L220.522 21.579L220.522 21.5742L219.525 21.496ZM223.109 10.36L223.941 10.9147L223.945 10.9082L223.95 10.9017L223.109 10.36ZM236.037 5.11199L235.794 6.08223L235.808 6.08541L236.037 5.11199ZM243.717 11.768L242.741 11.9875L242.743 11.9959L243.717 11.768ZM244.869 36.472L245.869 36.488L245.869 36.4857L244.869 36.472ZM250.885 51.576L250.285 50.776L250.278 50.7813L250.271 50.7866L250.885 51.576ZM251.397 51.192L251.997 51.992L252.007 51.9846L252.017 51.9769L251.397 51.192ZM259.717 44.536L260.376 45.2886L260.39 45.2759L260.404 45.2626L259.717 44.536ZM267.653 36.984L266.946 36.2769V36.2769L267.653 36.984ZM269.573 35.064L268.866 34.3569L269.573 35.064ZM285.701 19.832L285.071 19.0553L285.069 19.0571L285.701 19.832ZM315.807 23.0907C316.203 29.8356 311.849 36.9781 302.113 44.5132L303.337 46.0948C313.227 38.4405 318.26 30.735 317.803 22.9733L315.807 23.0907ZM302.11 44.5155C297.891 47.8065 291.233 52.2194 282.11 57.7613L283.148 59.4707C292.287 53.9192 299.026 49.4575 303.34 46.0925L302.11 44.5155ZM282.112 57.7599C273.059 63.2257 266.405 67.6021 262.176 70.8818L263.402 72.4622C267.535 69.2566 274.108 64.9289 283.146 59.4721L282.112 57.7599ZM262.268 72.5253C265.288 74.3711 270.327 78.0098 277.41 83.4719L278.632 81.8881C271.55 76.4275 266.434 72.7275 263.31 70.8187L262.268 72.5253ZM277.408 83.4699C283.906 88.5146 289.122 92.0977 293.038 94.1864L293.98 92.4216C290.216 90.4143 285.107 86.9147 278.634 81.8901L277.408 83.4699ZM293.033 94.1833C299.101 97.4705 304.312 101.297 308.674 105.659L310.088 104.245C305.575 99.7321 300.205 95.7935 293.985 92.4247L293.033 94.1833ZM308.674 105.659L310.722 107.707L312.136 106.293L310.088 104.245L308.674 105.659ZM310.722 107.707C313.921 110.906 315.293 113.518 315.293 115.576H317.293C317.293 112.685 315.422 109.579 312.136 106.293L310.722 107.707ZM315.293 115.576C315.293 118.568 314.568 120.959 313.186 122.82C311.803 124.683 309.696 126.106 306.773 127.039L307.381 128.945C310.602 127.916 313.103 126.288 314.792 124.012C316.482 121.735 317.293 118.899 317.293 115.576H315.293ZM306.761 127.043C306.384 127.169 305.859 127.248 305.157 127.248V129.248C305.991 129.248 306.746 129.156 307.393 128.941L306.761 127.043ZM305.157 127.248C302.467 127.248 298.442 126.166 293.002 123.871L292.224 125.713C297.707 128.026 302.044 129.248 305.157 129.248V127.248ZM293.003 123.871C286.473 121.109 279.308 116.398 271.504 109.697L270.202 111.215C278.1 117.997 285.441 122.843 292.223 125.713L293.003 123.871ZM271.504 109.697C261.899 101.452 253.838 93.2613 247.313 85.1263L245.753 86.3777C252.369 94.6267 260.521 102.905 270.202 111.215L271.504 109.697ZM245.534 85.7021C245.446 87.4614 245.491 89.51 245.664 91.8419L247.658 91.6941C247.49 89.418 247.449 87.4559 247.532 85.8019L245.534 85.7021ZM245.664 91.8477C246.004 96.1007 246.307 98.9356 246.576 100.284L248.538 99.8919C248.295 98.6804 248 95.9687 247.658 91.6883L245.664 91.8477ZM246.573 100.264C247.851 107.423 248.611 112.841 248.863 116.54L250.859 116.404C250.599 112.594 249.823 107.089 248.541 99.9122L246.573 100.264ZM248.863 116.53C249.156 121.555 248.429 125.208 246.847 127.639C245.302 130.012 242.847 131.363 239.298 131.602L239.432 133.598C243.477 133.325 246.569 131.732 248.523 128.729C250.44 125.784 251.164 121.629 250.859 116.414L248.863 116.53ZM239.303 131.602C233.964 131.936 230.889 130.657 229.475 128.253L227.751 129.267C229.75 132.665 233.843 133.947 239.427 133.598L239.303 131.602ZM229.47 128.245C228.451 126.547 227.686 125.193 227.168 124.178C226.908 123.669 226.717 123.258 226.589 122.938C226.452 122.599 226.413 122.428 226.407 122.378L224.419 122.598C224.456 122.932 224.582 123.31 224.733 123.686C224.893 124.081 225.112 124.55 225.386 125.086C225.935 126.161 226.727 127.56 227.756 129.274L229.47 128.245ZM226.406 122.37C225.979 118.786 225.681 116.189 225.512 114.575L223.522 114.785C223.694 116.413 223.993 119.022 224.42 122.606L226.406 122.37ZM225.51 114.563C224.229 103.716 223.506 97.3365 223.337 95.3934L221.345 95.5666C221.517 97.5488 222.245 103.969 223.524 114.797L225.51 114.563ZM223.337 95.3907L220.777 66.8467L218.785 67.0253L221.345 95.5693L223.337 95.3907ZM220.777 66.8476C219.842 56.3031 219.545 46.2754 219.884 36.7637L217.886 36.6923C217.543 46.2953 217.843 56.4062 218.785 67.0244L220.777 66.8476ZM219.884 36.7654C220.226 27.6159 220.439 22.5732 220.522 21.579L218.528 21.4129C218.441 22.4667 218.226 27.5788 217.886 36.6906L219.884 36.7654ZM220.522 21.5742C220.852 17.3614 222.004 13.8206 223.941 10.9147L222.277 9.80529C220.118 13.0433 218.88 16.9266 218.528 21.4178L220.522 21.5742ZM223.95 10.9017C226.275 7.29274 229.184 5.6 232.709 5.6V3.6C228.384 3.6 224.892 5.74725 222.268 9.81829L223.95 10.9017ZM232.709 5.6C233.445 5.6 234.464 5.74961 235.794 6.08214L236.28 4.14185C234.879 3.79172 233.68 3.6 232.709 3.6V5.6ZM235.808 6.08541C239.911 7.05082 242.082 9.05736 242.741 11.9875L244.693 11.5485C243.816 7.65196 240.867 5.22117 236.266 4.13857L235.808 6.08541ZM242.743 11.9959C243.649 15.8672 244.04 23.9776 243.869 36.4583L245.869 36.4857C246.039 24.049 245.662 15.6901 244.691 11.5401L242.743 11.9959ZM243.869 36.456C243.783 41.8101 244.058 45.9126 244.729 48.7054C245.063 50.0968 245.514 51.2487 246.134 52.073C246.777 52.9286 247.642 53.472 248.709 53.472V51.472C248.411 51.472 248.091 51.3487 247.732 50.871C247.349 50.362 246.979 49.5138 246.673 48.2386C246.064 45.6981 245.784 41.8006 245.869 36.488L243.869 36.456ZM248.709 53.472C249.691 53.472 250.628 53.0427 251.499 52.3653L250.271 50.7866C249.606 51.304 249.092 51.472 248.709 51.472V53.472ZM251.485 52.376L251.997 51.992L250.797 50.392L250.285 50.776L251.485 52.376ZM252.017 51.9769C256.867 48.1478 259.668 45.9074 260.376 45.2886L259.059 43.7834C258.4 44.3593 255.655 46.5562 250.777 50.4071L252.017 51.9769ZM260.404 45.2626C265.09 40.8326 267.75 38.3013 268.36 37.6911L266.946 36.2769C266.361 36.8614 263.731 39.3648 259.03 43.8093L260.404 45.2626ZM268.36 37.6911L270.28 35.7711L268.866 34.3569L266.946 36.2769L268.36 37.6911ZM270.28 35.7711C277.791 28.2603 283.134 23.2164 286.333 20.6069L285.069 19.0571C281.782 21.7383 276.374 26.849 268.866 34.3569L270.28 35.7711ZM286.331 20.6086C293.979 14.4052 300.104 11.488 304.773 11.488V9.488C299.373 9.488 292.783 12.8002 285.071 19.0554L286.331 20.6086ZM304.773 11.488C308.34 11.488 310.926 12.4759 312.691 14.3162C314.473 16.1737 315.559 19.045 315.807 23.0931L317.803 22.9709C317.539 18.6564 316.364 15.2556 314.135 12.9318C311.889 10.5907 308.715 9.488 304.773 9.488V11.488ZM401.973 26.872L402.867 27.3192L402.899 27.2556L402.922 27.1882L401.973 26.872ZM394.293 33.656L394.022 32.6936L394.014 32.6958L394.006 32.6982L394.293 33.656ZM383.669 34.552L383.653 33.5521L383.651 33.5521L383.669 34.552ZM370.229 34.552L370.208 35.5518L370.208 35.5518L370.229 34.552ZM357.941 36.728L358.283 37.6678L358.286 37.6667L357.941 36.728ZM350.517 43.512L351.436 43.9059L351.445 43.8861L351.452 43.8659L350.517 43.512ZM348.725 53.624L347.732 53.5018L347.725 53.5627V53.624H348.725ZM349.365 64.632L348.368 64.7111L348.372 64.7627L348.382 64.8135L349.365 64.632ZM357.685 73.72L357.805 72.7272L357.797 72.7263L357.685 73.72ZM369.461 73.848L369.411 72.8492L369.41 72.8493L369.461 73.848ZM381.877 73.72L381.933 72.7216L381.931 72.7215L381.877 73.72ZM390.965 74.232L391.026 73.2338L391.021 73.2336L390.965 74.232ZM398.517 76.792L399.09 75.9728L399.086 75.9698L398.517 76.792ZM401.845 89.08L402.794 89.3962L402.824 89.3062L402.836 89.2122L401.845 89.08ZM399.413 92.536L399.947 93.3815L400.041 93.3219L400.12 93.2431L399.413 92.536ZM385.717 94.712L385.612 95.7065L385.616 95.7069L385.717 94.712ZM371.253 93.432L371.198 94.4305L371.199 94.4305L371.253 93.432ZM362.805 92.792L362.969 91.8056L362.953 91.8029L362.937 91.8008L362.805 92.792ZM356.661 92.792V93.792H356.771L356.878 93.7682L356.661 92.792ZM351.669 98.552L352.643 98.7785L352.645 98.7689L351.669 98.552ZM352.949 106.232L352.301 106.994L352.303 106.995L352.949 106.232ZM359.349 109.56L359.185 110.546L359.186 110.547L359.349 109.56ZM380.085 110.712L380.002 109.715L380.001 109.716L380.085 110.712ZM399.669 117.24L400.625 116.946L400.621 116.932L400.616 116.919L399.669 117.24ZM375.605 131.832L375.701 130.837L375.694 130.836L375.686 130.835L375.605 131.832ZM348.981 129.272L348.808 130.257L348.817 130.258L348.981 129.272ZM328.245 104.568L327.245 104.586V104.586L328.245 104.568ZM326.709 67.704L327.706 67.6304L327.706 67.6273L326.709 67.704ZM328.885 28.536L329.867 28.7252L329.867 28.7231L328.885 28.536ZM358.453 5.752L358.604 6.74054L358.605 6.74037L358.453 5.752ZM370.869 4.6L370.908 3.60072L370.9 3.60049L370.869 4.6ZM394.549 8.56799L394.958 7.65548L394.911 7.63433L394.862 7.61816L394.549 8.56799ZM400.693 15.096L399.799 15.5432L399.803 15.5528L400.693 15.096ZM402.485 23.928L401.497 23.7736L401.496 23.7797L402.485 23.928ZM401.079 26.4248C399.391 29.8009 397.035 31.8437 394.022 32.6936L394.564 34.6184C398.207 33.591 400.971 31.111 402.867 27.3192L401.079 26.4248ZM394.006 32.6982C392.454 33.1636 389.054 33.4664 383.653 33.5521L383.685 35.5519C389.036 35.4669 392.718 35.1724 394.58 34.6138L394.006 32.6982ZM383.651 33.5521C378.798 33.6373 374.331 33.6372 370.25 33.5522L370.208 35.5518C374.319 35.6374 378.812 35.6374 383.687 35.5518L383.651 33.5521ZM370.25 33.5522C366.102 33.464 361.882 34.215 357.596 35.7893L358.286 37.6667C362.363 36.169 366.335 35.4694 370.208 35.5518L370.25 33.5522ZM357.599 35.7882C353.626 37.2329 350.899 39.6777 349.582 43.1581L351.452 43.8659C352.525 41.0316 354.746 38.9537 358.283 37.6678L357.599 35.7882ZM349.598 43.1181C349.29 43.8353 348.998 45.0845 348.7 46.7615C348.397 48.4716 348.075 50.7204 347.732 53.5018L349.717 53.7462C350.058 50.9809 350.375 48.7711 350.67 47.1105C350.97 45.4168 351.232 44.3834 351.436 43.9059L349.598 43.1181ZM347.725 53.624C347.725 55.632 347.942 59.3391 348.368 64.7111L350.362 64.5529C349.935 59.1729 349.725 55.5414 349.725 53.624H347.725ZM348.382 64.8135C348.915 67.7049 349.923 70.0438 351.475 71.7393C353.043 73.4517 355.099 74.4336 357.573 74.7137L357.797 72.7263C355.748 72.4944 354.156 71.7056 352.951 70.3887C351.729 69.0548 350.839 67.1058 350.348 64.4504L348.382 64.8135ZM357.565 74.7127C360.465 75.0643 364.457 75.1038 369.512 74.8467L369.41 72.8493C364.396 73.1042 360.537 73.0584 357.805 72.7273L357.565 74.7127ZM369.511 74.8467C374.615 74.5916 378.715 74.5505 381.823 74.7185L381.931 72.7215C378.725 72.5481 374.547 72.5924 369.411 72.8493L369.511 74.8467ZM381.821 74.7184L390.909 75.2304L391.021 73.2336L381.933 72.7216L381.821 74.7184ZM390.905 75.2302C393.547 75.3903 395.886 76.1871 397.948 77.6142L399.086 75.9698C396.71 74.3249 394.015 73.415 391.026 73.2338L390.905 75.2302ZM397.944 77.6112C400.292 79.2549 401.357 81.1913 401.357 83.448H403.357C403.357 80.4141 401.862 77.9131 399.09 75.9728L397.944 77.6112ZM401.357 83.448C401.357 84.5719 401.194 86.3934 400.854 88.9478L402.836 89.2122C403.178 86.6466 403.357 84.7135 403.357 83.448H401.357ZM400.896 88.7638C400.627 89.5728 399.941 90.5936 398.706 91.8289L400.12 93.2431C401.445 91.9184 402.381 90.6352 402.794 89.3962L400.896 88.7638ZM398.879 91.6905C395.904 93.5697 391.598 94.3035 385.818 93.7171L385.616 95.7069C391.612 96.3152 396.437 95.5983 399.947 93.3815L398.879 91.6905ZM385.822 93.7175C379.333 93.0345 374.491 92.6056 371.307 92.4335L371.199 94.4305C374.33 94.5998 379.13 95.0242 385.612 95.7065L385.822 93.7175ZM371.308 92.4335C366.676 92.1762 363.926 91.965 362.969 91.8056L362.641 93.7784C363.732 93.9603 366.614 94.1758 371.198 94.4305L371.308 92.4335ZM362.937 91.8008C361.624 91.6257 360.427 91.536 359.349 91.536V93.536C360.319 93.536 361.426 93.617 362.673 93.7832L362.937 91.8008ZM359.349 91.536C358.273 91.536 357.301 91.6254 356.444 91.8158L356.878 93.7682C357.557 93.6173 358.377 93.536 359.349 93.536V91.536ZM356.661 91.792C355.125 91.792 353.817 92.4046 352.801 93.5771C351.817 94.7129 351.138 96.3338 350.693 98.3351L352.645 98.7689C353.054 96.9302 353.633 95.6711 354.313 94.8869C354.961 94.1394 355.722 93.792 356.661 93.792V91.792ZM350.695 98.3255C349.818 102.097 350.15 105.166 352.301 106.994L353.597 105.47C352.334 104.397 351.813 102.346 352.643 98.7785L350.695 98.3255ZM352.303 106.995C354.607 108.945 356.902 110.166 359.185 110.546L359.513 108.574C357.7 108.271 355.728 107.274 353.595 105.469L352.303 106.995ZM359.186 110.547C367.011 111.836 374.008 112.229 380.169 111.708L380.001 109.716C374.044 110.219 367.218 109.844 359.512 108.573L359.186 110.547ZM380.168 111.709C385.741 111.244 390.034 111.562 393.113 112.589C396.156 113.603 397.95 115.281 398.722 117.561L400.616 116.919C399.596 113.908 397.23 111.853 393.745 110.691C390.296 109.542 385.693 109.241 380.002 109.715L380.168 111.709ZM398.713 117.534C399.022 118.539 399.181 119.634 399.181 120.824H401.181C401.181 119.454 400.998 118.16 400.625 116.946L398.713 117.534ZM399.181 120.824C399.181 124.526 398.026 127.145 395.848 128.872C393.625 130.635 390.177 131.6 385.333 131.6V133.6C390.388 133.6 394.363 132.602 397.09 130.439C399.862 128.242 401.181 124.973 401.181 120.824H399.181ZM385.333 131.6C384.198 131.6 381.013 131.351 375.701 130.837L375.509 132.827C380.778 133.337 384.078 133.6 385.333 133.6V131.6ZM375.686 130.835C360.989 129.639 352.166 128.789 349.145 128.286L348.817 130.258C351.94 130.779 360.867 131.636 375.524 132.829L375.686 130.835ZM349.154 128.287C342.535 127.122 337.653 124.553 334.387 120.661C331.118 116.767 329.37 111.432 329.245 104.55L327.245 104.586C327.376 111.784 329.212 117.606 332.855 121.947C336.501 126.29 341.859 129.033 348.808 130.257L349.154 128.287ZM329.245 104.55C328.989 90.3721 328.476 78.0647 327.706 67.6304L325.712 67.7776C326.478 78.1646 326.989 90.4332 327.245 104.586L329.245 104.55ZM327.706 67.6273C327.366 63.2076 327.197 59.3515 327.197 56.056H325.197C325.197 59.4165 325.369 63.3257 325.712 67.7807L327.706 67.6273ZM327.197 56.056C327.197 47.0771 328.086 37.9671 329.867 28.7252L327.903 28.3468C326.1 37.7076 325.197 46.9443 325.197 56.056H327.197ZM329.867 28.7231C331.018 22.6845 333.951 17.8678 338.679 14.2241C343.43 10.5637 350.045 8.04751 358.604 6.74054L358.302 4.76346C349.538 6.10182 342.564 8.70564 337.459 12.6399C332.331 16.5908 329.142 21.8434 327.903 28.3489L329.867 28.7231ZM358.605 6.74037C364.14 5.88877 368.204 5.51719 370.838 5.59951L370.9 3.60049C368.073 3.51213 363.859 3.90856 358.301 4.76363L358.605 6.74037ZM370.83 5.59925C379.544 5.93763 387.343 7.24799 394.236 9.51783L394.862 7.61816C387.761 5.27999 379.773 3.94502 370.908 3.60075L370.83 5.59925ZM394.14 9.4805C396.342 10.4678 398.246 12.4373 399.799 15.5432L401.587 14.6488C399.898 11.2694 397.705 8.88686 394.958 7.65548L394.14 9.4805ZM399.803 15.5528C401.356 18.5756 401.883 21.3045 401.497 23.7736L403.473 24.0824C403.941 21.0901 403.273 17.9311 401.583 14.6392L399.803 15.5528ZM401.496 23.7797C401.369 24.63 401.263 25.2932 401.18 25.7727C401.138 26.0127 401.103 26.2012 401.074 26.3414C401.059 26.4114 401.047 26.4653 401.037 26.505C401.027 26.5481 401.022 26.5613 401.024 26.5558L402.922 27.1882C402.993 26.9741 403.069 26.5824 403.15 26.1153C403.237 25.6135 403.345 24.9327 403.474 24.0763L401.496 23.7797ZM447.563 7.672L447.883 6.72446L447.879 6.72331L447.563 7.672ZM468.299 31.096L469.191 30.6438L469.19 30.6419L468.299 31.096ZM480.715 61.816L481.659 61.4868L481.656 61.4765L480.715 61.816ZM488.011 82.68L487.068 83.0119L487.07 83.019L488.011 82.68ZM496.587 102.904L497.465 102.425L497.46 102.415L497.454 102.406L496.587 102.904ZM499.403 99.832L498.405 99.7655L498.405 99.7749L499.403 99.832ZM497.867 66.936L498.864 66.855V66.855L497.867 66.936ZM496.075 22.904L495.075 22.89V22.8904L496.075 22.904ZM527.051 42.872L526.053 42.8165L527.051 42.872ZM522.187 110.072L523.168 110.268L523.168 110.267L522.187 110.072ZM517.579 124.024L516.728 123.499L516.728 123.499L517.579 124.024ZM505.547 131.704L505.351 130.723L505.547 131.704ZM488.139 128.248L487.526 129.038L487.526 129.038L488.139 128.248ZM462.795 82.808L461.857 83.154L462.795 82.808ZM453.451 56.696L452.501 57.0088L452.502 57.0122L453.451 56.696ZM445.515 46.584L445.971 47.4738L446.047 47.435L446.115 47.384L445.515 46.584ZM440.651 60.536L439.655 60.6265L439.655 60.6283L440.651 60.536ZM446.795 107.64L447.772 107.426L447.772 107.425L446.795 107.64ZM445.259 127.352L446.113 127.873L446.116 127.866L445.259 127.352ZM424.011 126.584L424.894 126.114L424.89 126.108L424.011 126.584ZM418.763 48.76L417.764 48.8087L417.764 48.8099L418.763 48.76ZM421.579 15.864L422.436 16.3785L422.439 16.3738L421.579 15.864ZM447.243 8.61953C453.926 10.874 460.684 18.357 467.408 31.5501L469.19 30.6419C462.432 17.3817 455.365 9.24862 447.883 6.72446L447.243 8.61953ZM467.407 31.5482C470.449 37.5475 474.57 47.7371 479.774 62.1555L481.656 61.4765C476.449 47.0522 472.293 36.7618 469.191 30.6438L467.407 31.5482ZM479.771 62.1452C483.013 71.4467 485.446 78.4025 487.068 83.0119L488.954 82.3481C487.333 77.7415 484.902 70.7879 481.659 61.4868L479.771 62.1452ZM487.07 83.019C490.486 92.4975 493.369 99.3099 495.72 103.402L497.454 102.406C495.197 98.4768 492.363 91.8065 488.952 82.341L487.07 83.019ZM495.709 103.383C495.993 103.902 496.311 104.359 496.679 104.697C497.053 105.04 497.539 105.312 498.123 105.312V103.312C498.195 103.312 498.169 103.35 498.031 103.223C497.887 103.091 497.693 102.844 497.465 102.425L495.709 103.383ZM498.123 105.312C498.716 105.312 499.136 104.97 499.39 104.628C499.633 104.301 499.796 103.889 499.917 103.467C500.161 102.611 500.315 101.402 500.401 99.8891L498.405 99.7749C498.32 101.249 498.176 102.28 497.993 102.917C497.901 103.242 497.819 103.389 497.784 103.436C497.761 103.468 497.871 103.312 498.123 103.312V105.312ZM500.401 99.8985C500.748 94.6908 500.228 83.6483 498.864 66.855L496.87 67.0169C498.237 83.8451 498.741 94.7332 498.405 99.7655L500.401 99.8985ZM498.864 66.855C497.5 50.0659 496.905 35.4214 497.075 22.9176L495.075 22.8904C494.904 35.4745 495.503 50.1848 496.87 67.017L498.864 66.855ZM497.075 22.918C497.159 16.9165 498.368 12.5942 500.545 9.78917C502.684 7.03325 505.871 5.6 510.283 5.6V3.6C505.394 3.6 501.562 5.21742 498.965 8.56282C496.406 11.8591 495.162 16.6888 495.075 22.89L497.075 22.918ZM510.283 5.6C515.673 5.6 519.629 7.76161 522.295 12.0997C525.011 16.5174 526.435 23.2726 526.435 32.504H528.435C528.435 23.1327 527.001 15.9359 523.999 11.0523C520.948 6.08905 516.328 3.6 510.283 3.6V5.6ZM526.435 32.504C526.435 34.7792 526.308 38.2126 526.053 42.8165L528.049 42.9275C528.306 38.3154 528.435 34.8368 528.435 32.504H526.435ZM526.053 42.8165C525.796 47.4286 525.667 50.9072 525.667 53.24H527.667C527.667 50.9648 527.794 47.5314 528.049 42.9275L526.053 42.8165ZM525.667 53.24C525.667 76.0725 524.176 94.9456 521.206 109.877L523.168 110.267C526.172 95.1611 527.667 76.1461 527.667 53.24H525.667ZM521.206 109.876C519.932 116.246 518.424 120.753 516.728 123.499L518.43 124.549C520.318 121.492 521.882 116.698 523.168 110.268L521.206 109.876ZM516.728 123.499C514.428 127.227 510.684 129.657 505.351 130.723L505.743 132.685C511.503 131.533 515.781 128.843 518.43 124.549L516.728 123.499ZM505.351 130.723C503.714 131.051 501.988 131.216 500.171 131.216V133.216C502.109 133.216 503.967 133.04 505.743 132.685L505.351 130.723ZM500.171 131.216C495.769 131.216 491.977 129.958 488.752 127.458L487.526 129.038C491.127 131.829 495.357 133.216 500.171 133.216V131.216ZM488.752 127.458C484.897 124.465 480.859 119.256 476.66 111.729C472.47 104.217 468.16 94.466 463.733 82.462L461.857 83.154C466.304 95.214 470.656 105.069 474.914 112.703C479.163 120.322 483.359 125.802 487.526 129.038L488.752 127.458ZM463.733 82.462C459.296 70.4307 456.186 61.7396 454.4 56.3798L452.502 57.0122C454.3 62.4044 457.419 71.1213 461.857 83.154L463.733 82.462ZM454.401 56.3832C453.239 52.8554 452.066 50.1369 450.867 48.2812C449.707 46.4872 448.327 45.2 446.667 45.2V47.2C447.226 47.2 448.085 47.6621 449.187 49.3668C450.249 51.0098 451.359 53.5393 452.501 57.0088L454.401 56.3832ZM446.667 45.2C446.024 45.2 445.429 45.3982 444.915 45.784L446.115 47.384C446.283 47.2578 446.457 47.2 446.667 47.2V45.2ZM445.059 45.6942C441.254 47.6454 439.523 51.6935 439.523 57.336H441.523C441.523 52.0558 443.12 48.9359 445.971 47.4738L445.059 45.6942ZM439.523 57.336C439.523 58.5533 439.566 59.6511 439.655 60.6265L441.647 60.4455C441.565 59.5436 441.523 58.508 441.523 57.336H439.523ZM439.655 60.6283C441.703 82.7312 443.756 98.4873 445.818 107.855L447.772 107.425C445.738 98.1901 443.695 82.5435 441.647 60.4437L439.655 60.6283ZM445.818 107.854C446.576 111.308 446.947 114.262 446.947 116.728H448.947C448.947 114.074 448.55 110.969 447.772 107.426L445.818 107.854ZM446.947 116.728C446.947 120.675 446.085 124.032 444.402 126.838L446.116 127.866C448.017 124.699 448.947 120.973 448.947 116.728H446.947ZM444.405 126.831C442.439 130.057 439.763 131.6 436.299 131.6V133.6C440.515 133.6 443.813 131.645 446.113 127.873L444.405 126.831ZM436.299 131.6C430.467 131.6 426.796 129.689 424.894 126.114L423.128 127.054C425.493 131.5 430.013 133.6 436.299 133.6V131.6ZM424.89 126.108C423.327 123.222 422.092 118.018 421.261 110.348C420.435 102.719 420.019 92.7743 420.019 80.504H418.019C418.019 92.8097 418.435 102.833 419.273 110.564C420.106 118.254 421.367 123.802 423.132 127.06L424.89 126.108ZM420.019 80.504C420.019 62.7682 419.934 52.1549 419.762 48.7101L417.764 48.8099C417.933 52.1917 418.019 62.7411 418.019 80.504H420.019ZM419.762 48.7113C419.592 45.2288 419.507 41.7464 419.507 38.264H417.507C417.507 41.7789 417.593 45.2938 417.764 48.8087L419.762 48.7113ZM419.507 38.264C419.507 32.5284 419.762 27.8313 420.266 24.1599C420.773 20.4622 421.519 17.9069 422.436 16.3785L420.721 15.3495C419.591 17.2344 418.801 20.1191 418.284 23.8881C417.764 27.6834 417.507 32.4796 417.507 38.264H419.507ZM422.439 16.3738C426.429 9.64124 431.144 6.49599 436.555 6.49599V4.49599C430.19 4.49599 424.921 8.26275 420.719 15.3542L422.439 16.3738ZM436.555 6.49599C439.393 6.49599 442.948 7.18781 447.247 8.62068L447.879 6.72331C443.474 5.25484 439.691 4.49599 436.555 4.49599V6.49599ZM543.823 26.36L544.785 26.6328L544.785 26.6325L543.823 26.36ZM591.567 4.6L591.482 5.59639L591.491 5.59714L591.567 4.6ZM604.111 6.392L604.382 5.42955L604.382 5.42935L604.111 6.392ZM614.351 12.152L614.989 11.3822V11.3822L614.351 12.152ZM621.519 21.24L620.592 21.6157L620.595 21.6227L621.519 21.24ZM625.871 38.52L626.869 38.4556L626.868 38.4433L625.871 38.52ZM627.151 51.576L626.157 51.688V51.6882L627.151 51.576ZM628.047 65.016H627.047L627.047 65.0253L628.047 65.016ZM624.207 107.256L625.197 107.397L625.197 107.394L624.207 107.256ZM620.751 117.24L619.829 116.852L619.828 116.854L620.751 117.24ZM605.263 129.912L605.588 130.858L605.588 130.858L605.263 129.912ZM584.527 132.6L584.458 133.598L584.461 133.598L584.527 132.6ZM572.751 131.448L572.947 130.467L572.942 130.466L572.751 131.448ZM561.103 127.864L561.46 126.93L561.449 126.926L561.103 127.864ZM550.991 120.568L550.261 121.252L550.267 121.258L550.991 120.568ZM545.231 109.944H546.231V109.818L546.2 109.696L545.231 109.944ZM541.135 93.944L542.104 93.696L542.103 93.6924L541.135 93.944ZM539.215 74.872L538.215 74.8852L538.215 74.8922L539.215 74.872ZM539.087 55.416H540.087L540.087 55.4052L539.087 55.416ZM590.671 31.352L590.396 32.3135L590.671 31.352ZM575.567 31.352L575.803 32.3238L575.81 32.3221L575.817 32.3203L575.567 31.352ZM564.815 52.344L565.807 52.468L565.808 52.4647L564.815 52.344ZM565.199 89.336L564.211 89.4881L564.211 89.4902L565.199 89.336ZM578.255 109.304L578.071 110.287L578.076 110.288L578.255 109.304ZM594.511 106.744L593.925 105.934L593.923 105.935L594.511 106.744ZM602.703 79.864L601.708 79.7677V79.7679L602.703 79.864ZM601.167 46.072L600.2 46.326L600.2 46.3279L601.167 46.072ZM544.785 26.6325C546.806 19.4981 550.95 14.1802 557.243 10.6225C563.567 7.04706 572.124 5.216 582.991 5.216V3.216C571.928 3.216 562.991 5.0756 556.259 8.88148C549.496 12.7051 545.021 18.4592 542.861 26.0875L544.785 26.6325ZM582.991 5.216C585.691 5.216 588.521 5.34255 591.482 5.59634L591.652 3.60365C588.64 3.34545 585.753 3.216 582.991 3.216V5.216ZM591.491 5.59714C597.109 6.0227 601.209 6.61457 603.84 7.35465L604.382 5.42935C601.552 4.63343 597.289 4.03063 591.643 3.60286L591.491 5.59714ZM603.84 7.35445C606.998 8.24529 610.289 10.0828 613.713 12.9218L614.989 11.3822C611.415 8.41848 607.88 6.41604 604.382 5.42955L603.84 7.35445ZM613.713 12.9218C617.125 15.7515 619.392 18.6541 620.592 21.6157L622.446 20.8643C621.086 17.5112 618.574 14.3552 614.989 11.3822L613.713 12.9218ZM620.595 21.6227C623.036 27.514 624.457 33.1708 624.874 38.5967L626.868 38.4433C626.432 32.7759 624.952 26.9126 622.443 20.8573L620.595 21.6227ZM624.873 38.5844C625.045 41.2557 625.475 45.6284 626.157 51.688L628.145 51.464C627.462 45.4063 627.038 41.075 626.869 38.4556L624.873 38.5844ZM626.157 51.6882C626.752 56.9566 627.047 61.3967 627.047 65.016H629.047C629.047 61.2966 628.745 56.7767 628.145 51.4638L626.157 51.6882ZM627.047 65.0253C627.132 74.078 625.861 88.0967 623.217 107.118L625.197 107.394C627.844 88.3566 629.133 74.2154 629.047 65.0067L627.047 65.0253ZM623.217 107.115C622.982 108.758 621.885 111.97 619.829 116.852L621.673 117.628C623.713 112.782 624.92 109.338 625.197 107.397L623.217 107.115ZM619.828 116.854C617.584 122.224 612.704 126.294 604.938 128.966L605.588 130.858C613.694 128.069 619.139 123.69 621.674 117.626L619.828 116.854ZM604.938 128.966C599.582 130.808 594.06 131.728 588.367 131.728V133.728C594.28 133.728 600.022 132.771 605.588 130.858L604.938 128.966ZM588.367 131.728C587.109 131.728 585.851 131.686 584.594 131.602L584.461 133.598C585.763 133.685 587.065 133.728 588.367 133.728V131.728ZM584.596 131.602C578.434 131.174 574.578 130.794 572.947 130.467L572.555 132.429C574.337 132.785 578.332 133.172 584.458 133.598L584.596 131.602ZM572.942 130.466C569.95 129.885 566.127 128.712 561.46 126.93L560.746 128.798C565.465 130.6 569.408 131.817 572.56 132.43L572.942 130.466ZM561.449 126.926C558.4 125.803 555.153 123.484 551.715 119.878L550.267 121.258C553.826 124.99 557.32 127.536 560.757 128.802L561.449 126.926ZM551.721 119.884C547.919 115.829 546.231 112.531 546.231 109.944H544.231C544.231 113.331 546.383 117.115 550.261 121.252L551.721 119.884ZM546.2 109.696L542.104 93.696L540.166 94.192L544.262 110.192L546.2 109.696ZM542.103 93.6924C541.024 89.5418 540.385 83.279 540.215 74.8518L538.215 74.8922C538.386 83.361 539.028 89.8129 540.167 94.1956L542.103 93.6924ZM540.215 74.8588C540.13 68.3779 540.087 61.8969 540.087 55.416H538.087C538.087 61.9057 538.13 68.3954 538.215 74.8852L540.215 74.8588ZM540.087 55.4052C540.003 47.6 541.557 38.0163 544.785 26.6328L542.861 26.0872C539.604 37.573 538 47.36 538.087 55.4268L540.087 55.4052ZM590.946 30.3905C585.979 28.9715 580.763 28.9785 575.317 30.3837L575.817 32.3203C580.953 30.9949 585.805 31.0019 590.396 32.3135L590.946 30.3905ZM575.331 30.3801C572.141 31.1535 569.64 33.5076 567.765 37.1681C565.896 40.8162 564.597 45.8548 563.822 52.2233L565.808 52.4647C566.569 46.2038 567.83 41.4291 569.545 38.0799C571.254 34.7431 573.361 32.9158 575.803 32.3238L575.331 30.3801ZM563.823 52.22C563.05 58.4011 562.663 64.3307 562.663 70.008H564.663C564.663 64.4213 565.044 58.5749 565.807 52.468L563.823 52.22ZM562.663 70.008C562.663 76.2921 563.18 82.7858 564.211 89.4881L566.187 89.1839C565.17 82.5742 564.663 76.1825 564.663 70.008H562.663ZM564.211 89.4902C566.099 101.593 570.564 108.879 578.071 110.287L578.439 108.321C572.292 107.169 568.053 101.143 566.187 89.1818L564.211 89.4902ZM578.076 110.288C580.011 110.64 581.949 110.816 583.887 110.816V108.816C582.071 108.816 580.253 108.651 578.434 108.32L578.076 110.288ZM583.887 110.816C588.317 110.816 592.077 109.751 595.099 107.553L593.923 105.935C591.313 107.833 587.991 108.816 583.887 108.816V110.816ZM595.097 107.554C597.379 105.904 599.143 102.668 600.524 98.1395C601.916 93.5694 602.97 87.5009 603.698 79.9601L601.708 79.7679C600.985 87.2458 599.948 93.1666 598.61 97.5565C597.26 101.988 595.654 104.683 593.925 105.934L595.097 107.554ZM603.698 79.9603C604.213 74.6437 604.471 69.747 604.471 65.272H602.471C602.471 69.6716 602.217 74.503 601.708 79.7677L603.698 79.9603ZM604.471 65.272C604.471 58.2022 603.695 51.7147 602.134 45.8161L600.2 46.3279C601.711 52.0346 602.471 58.3471 602.471 65.272H604.471ZM602.134 45.818C599.894 37.2892 596.261 31.9091 590.946 30.3905L590.396 32.3135C594.638 33.5256 598.002 37.9588 600.2 46.326L602.134 45.818ZM699.821 79.992L698.823 80.0477L700.805 80.1693L699.821 79.992ZM707.757 40.696L708.725 40.9466L708.727 40.9385L707.757 40.696ZM723.117 7.8L722.702 6.8903L722.699 6.89161L723.117 7.8ZM749.357 17.016L748.468 17.4746L748.47 17.4774L749.357 17.016ZM755.373 49.912L756.372 49.8681L755.373 49.912ZM756.781 84.856L755.781 84.889L755.782 84.9023L756.781 84.856ZM757.293 113.144L756.294 113.101L756.294 113.107L757.293 113.144ZM741.805 128.888L742.268 128.001L742.259 127.997L741.805 128.888ZM732.717 114.296L731.741 114.513L731.742 114.518L732.717 114.296ZM730.541 96.248L729.544 96.3233L729.545 96.3334L730.541 96.248ZM729.389 75.128L728.39 75.1708L728.39 75.1726L729.389 75.128ZM729.517 40.312L730.517 40.3318L728.556 40.0339L729.517 40.312ZM722.989 73.208L721.997 73.0831L721.997 73.0849L722.989 73.208ZM711.725 125.304L711.278 124.41L711.27 124.414L711.725 125.304ZM695.341 125.816L695.778 124.917L695.769 124.912L695.759 124.908L695.341 125.816ZM687.917 115.576L686.926 115.707L686.927 115.715L687.917 115.576ZM683.693 90.744L684.674 90.5496L684.674 90.5479L683.693 90.744ZM678.573 66.168L677.595 66.3748L677.595 66.3764L678.573 66.168ZM669.741 38.904L670.643 38.4729L669.496 36.0711L668.778 38.6344L669.741 38.904ZM669.613 67.064L670.611 67.0003L670.61 66.9878L669.613 67.064ZM671.917 104.312L670.919 104.37L670.919 104.372L671.917 104.312ZM672.557 120.824L671.569 120.672L671.567 120.685L672.557 120.824ZM662.061 132.216L662.304 133.186L662.061 132.216ZM650.285 127.608L651.029 126.94L651.021 126.931L650.285 127.608ZM645.293 94.2L646.292 94.2332L646.293 94.2294L645.293 94.2ZM645.293 60.664L646.288 60.5611L646.287 60.5515L645.293 60.664ZM644.013 39.032L645.012 38.9975L645.012 38.9932L644.013 39.032ZM647.725 16.504L648.636 16.9159L648.636 16.9156L647.725 16.504ZM670.637 5.11199L670.473 6.09839L670.475 6.09884L670.637 5.11199ZM690.861 23.928L691.812 23.6185L691.811 23.6162L690.861 23.928ZM700.805 80.1693C704.219 61.2235 706.858 48.1591 708.725 40.9466L706.789 40.4454C704.901 47.7396 702.25 60.8725 698.837 79.8147L700.805 80.1693ZM708.727 40.9385C711.152 31.2379 713.63 23.7024 716.151 18.3031C718.699 12.8468 721.196 9.78534 723.535 8.70838L722.699 6.89161C719.662 8.28932 716.911 11.9478 714.339 17.4569C711.74 23.0229 709.226 30.6981 706.787 40.4535L708.727 40.9385ZM723.532 8.70968C727.364 6.96026 730.848 6.11199 733.997 6.11199V4.11199C730.49 4.11199 726.72 5.05573 722.702 6.89031L723.532 8.70968ZM733.997 6.11199C739.608 6.11199 744.456 9.70155 748.468 17.4746L750.246 16.5574C746.066 8.45844 740.674 4.11199 733.997 4.11199V6.11199ZM748.47 17.4774C751.689 23.6681 753.692 34.4406 754.374 49.9559L756.372 49.8681C755.689 34.3221 753.681 23.1639 750.244 16.5546L748.47 17.4774ZM754.374 49.9559C755.057 65.4858 755.526 77.1293 755.782 84.8889L757.78 84.8231C757.524 77.052 757.055 65.3996 756.372 49.8681L754.374 49.9559ZM755.782 84.9023C756.379 97.7837 756.548 107.175 756.294 113.101L758.292 113.187C758.55 107.166 758.377 97.6989 757.78 84.8097L755.782 84.9023ZM756.294 113.107C756.083 118.805 755.133 122.927 753.553 125.594C752.016 128.188 749.88 129.424 747.053 129.424V131.424C750.626 131.424 753.397 129.781 755.273 126.614C757.106 123.521 758.077 119.003 758.292 113.181L756.294 113.107ZM747.053 129.424C745.733 129.424 744.146 128.982 742.268 128.001L741.342 129.775C743.389 130.842 745.301 131.424 747.053 131.424V129.424ZM742.259 127.997C738.293 125.975 735.371 121.461 733.692 114.074L731.742 114.518C733.477 122.15 736.613 127.364 741.351 129.779L742.259 127.997ZM733.693 114.079C733.027 111.082 732.306 105.131 731.537 96.1626L729.545 96.3334C730.312 105.285 731.041 111.366 731.741 114.513L733.693 114.079ZM731.538 96.1727C731.198 91.6663 730.815 84.6391 730.388 75.0834L728.39 75.1726C728.817 84.7316 729.201 91.7844 729.544 96.3233L731.538 96.1727ZM730.388 75.0852C730.134 69.148 730.175 57.5734 730.517 40.3318L728.517 40.2922C728.176 57.5252 728.132 69.1613 728.39 75.1708L730.388 75.0852ZM728.556 40.0339C725.723 49.8214 723.538 60.8392 721.997 73.0831L723.981 73.3329C725.512 61.1715 727.679 50.2586 730.478 40.5901L728.556 40.0339ZM721.997 73.0849C719.95 89.5881 717.991 102.15 716.124 110.789C715.189 115.112 714.284 118.419 713.413 120.736C712.977 121.896 712.561 122.776 712.172 123.402C711.769 124.048 711.458 124.319 711.278 124.41L712.172 126.198C712.845 125.862 713.398 125.217 713.87 124.458C714.355 123.679 714.825 122.664 715.285 121.44C716.206 118.989 717.136 115.571 718.078 111.211C719.965 102.484 721.932 89.8519 723.981 73.3311L721.997 73.0849ZM711.27 124.414C707.619 126.282 704.985 127.12 703.277 127.12V129.12C705.494 129.12 708.493 128.081 712.18 126.194L711.27 124.414ZM703.277 127.12C701.363 127.12 698.877 126.424 695.778 124.917L694.904 126.715C698.12 128.28 700.925 129.12 703.277 129.12V127.12ZM695.759 124.908C691.818 123.095 689.545 119.982 688.907 115.437L686.927 115.715C687.654 120.898 690.33 124.612 694.923 126.724L695.759 124.908ZM688.908 115.445C687.966 108.335 686.554 100.036 684.674 90.5496L682.712 90.9384C684.587 100.396 685.991 108.652 686.926 115.707L688.908 115.445ZM684.674 90.5479C683.478 84.5685 681.77 76.3718 679.551 65.9596L677.595 66.3764C679.813 76.7855 681.519 84.9728 682.712 90.9401L684.674 90.5479ZM679.551 65.9612C677.32 55.4068 674.354 46.2401 670.643 38.4729L668.839 39.3351C672.466 46.9279 675.388 55.9372 677.595 66.3748L679.551 65.9612ZM668.778 38.6344C668.142 40.9055 667.834 44.4333 667.813 49.1395C667.792 53.8701 668.06 59.8729 668.616 67.1402L670.61 66.9878C670.057 59.7484 669.792 53.8045 669.813 49.1485C669.834 44.4681 670.145 41.1692 670.704 39.1736L668.778 38.6344ZM668.615 67.1277C669.639 83.1698 670.407 95.5836 670.919 104.37L672.915 104.254C672.403 95.4617 671.635 83.0436 670.611 67.0003L668.615 67.1277ZM670.919 104.372C671.217 109.319 671.419 113.161 671.526 115.903C671.579 117.274 671.608 118.363 671.613 119.174C671.618 120.014 671.597 120.486 671.569 120.672L673.545 120.976C673.602 120.607 673.618 119.976 673.613 119.162C673.608 118.319 673.578 117.206 673.524 115.825C673.417 113.063 673.214 109.204 672.915 104.252L670.919 104.372ZM671.567 120.685C671.163 123.551 670.145 125.815 668.558 127.538C666.968 129.264 664.744 130.514 661.818 131.246L662.304 133.186C665.522 132.382 668.12 130.965 670.028 128.894C671.939 126.82 673.098 124.156 673.547 120.963L671.567 120.685ZM661.818 131.246C660.836 131.492 660.07 131.6 659.501 131.6V133.6C660.297 133.6 661.238 133.452 662.304 133.186L661.818 131.246ZM659.501 131.6C656.73 131.6 653.907 130.147 651.029 126.94L649.541 128.276C652.636 131.725 655.957 133.6 659.501 133.6V131.6ZM651.021 126.931C649.271 125.029 647.908 121.435 647.082 115.908C646.263 110.425 645.995 103.207 646.292 94.2332L644.294 94.1668C643.994 103.199 644.259 110.551 645.104 116.204C645.942 121.813 647.373 125.92 649.549 128.285L651.021 126.931ZM646.293 94.2294C646.804 76.8401 646.808 65.5897 646.288 60.5611L644.298 60.7669C644.802 65.6369 644.806 76.7439 644.293 94.1706L646.293 94.2294ZM646.287 60.5515C645.779 56.0704 645.354 48.893 645.012 38.9975L643.014 39.0665C643.355 48.9683 643.783 56.2122 644.299 60.7765L646.287 60.5515ZM645.012 38.9932C644.675 30.3159 645.9 22.9693 648.636 16.9159L646.814 16.0921C643.918 22.4974 642.668 30.1694 643.014 39.0708L645.012 38.9932ZM648.636 16.9156C650.37 13.0768 652.621 10.262 655.359 8.40337C658.092 6.54782 661.378 5.6 665.261 5.6V3.6C661.038 3.6 657.347 4.63617 654.235 6.74862C651.128 8.85797 648.664 11.9952 646.814 16.0924L648.636 16.9156ZM665.261 5.6C666.727 5.6 668.461 5.76319 670.473 6.09839L670.801 4.1256C668.717 3.77814 666.867 3.6 665.261 3.6V5.6ZM670.475 6.09884C675.248 6.88063 679.222 8.77437 682.436 11.7641C685.656 14.7598 688.159 18.8997 689.911 24.2398L691.811 23.6162C689.979 18.0336 687.32 13.5762 683.798 10.2999C680.27 7.01762 675.924 4.96469 670.799 4.12514L670.475 6.09884ZM689.91 24.2375C694.567 38.546 697.545 57.1398 698.823 80.0477L700.819 79.9363C699.537 56.9349 696.542 38.1527 691.812 23.6185L689.91 24.2375ZM818.876 6.52L819.148 5.55773L819.144 5.55648L818.876 6.52ZM833.468 16.376L834.425 16.0848L834.424 16.0833L833.468 16.376ZM832.956 28.536L832.054 28.1045L832.05 28.1121L832.956 28.536ZM826.3 36.6L825.829 35.7176L825.818 35.7238L826.3 36.6ZM813.756 37.624L813.88 36.6317L812.65 36.4779L812.76 37.7129L813.756 37.624ZM815.548 75L816.546 74.93L816.545 74.927L815.548 75ZM816.316 97.016L817.315 97.0544L817.315 97.0505L816.316 97.016ZM816.316 102.008L817.316 101.978L817.315 101.954L817.313 101.931L816.316 102.008ZM817.724 105.848L817.602 104.855L817.518 104.866L817.437 104.89L817.724 105.848ZM836.796 113.912L837.77 113.687L837.768 113.678L836.796 113.912ZM828.86 128.888L828.418 127.991L828.412 127.994L828.405 127.997L828.86 128.888ZM813.884 132.6L813.813 131.603L813.809 131.603L813.884 132.6ZM793.404 132.088L793.621 131.112L793.618 131.111L793.404 132.088ZM779.964 126.712L780.595 125.936L780.586 125.929L780.578 125.923L779.964 126.712ZM774.844 113.784L773.847 113.706L773.847 113.708L774.844 113.784ZM790.076 102.776L789.833 103.746L789.953 103.776H790.076V102.776ZM793.532 103.416L793.336 104.397L794.431 104.616L794.528 103.503L793.532 103.416ZM793.532 86.264L792.533 86.3044L792.533 86.3094L793.532 86.264ZM793.148 68.984L792.149 68.9415L792.149 68.9489L792.148 68.9562L793.148 68.984ZM792.892 53.24L791.893 53.2881L791.893 53.2926L792.892 53.24ZM792.38 37.496H793.38V36.6099L792.5 36.5033L792.38 37.496ZM778.3 35.704L778.025 36.6655L778.073 36.6791L778.121 36.6879L778.3 35.704ZM773.436 31.736L774.263 31.1737L774.259 31.1683L773.436 31.736ZM771.004 18.424L770.004 18.4103V18.4107L771.004 18.424ZM788.54 6.008L788.368 5.0229L788.366 5.02321L788.54 6.008ZM818.604 7.48225C822.771 8.66085 825.989 10.0432 828.3 11.6047C830.608 13.1631 831.959 14.8615 832.512 16.6687L834.424 16.0833C833.697 13.7092 831.976 11.6742 829.42 9.94732C826.867 8.22341 823.429 6.76848 819.148 5.55774L818.604 7.48225ZM832.511 16.6672C833.083 18.5441 833.364 20.366 833.364 22.136H835.364C835.364 20.1513 835.048 18.1332 834.425 16.0848L832.511 16.6672ZM833.364 22.136C833.364 24.2997 832.924 26.2845 832.054 28.1045L833.858 28.9675C834.865 26.8622 835.364 24.5803 835.364 22.136H833.364ZM832.05 28.1121C830.219 32.0242 828.122 34.4951 825.829 35.7176L826.771 37.4823C829.598 35.9743 831.938 33.0691 833.862 28.9599L832.05 28.1121ZM825.818 35.7238C824.317 36.5492 822.16 37.008 819.26 37.008V39.008C822.333 39.008 824.869 38.5281 826.782 37.4762L825.818 35.7238ZM819.26 37.008C817.69 37.008 815.897 36.8839 813.88 36.6317L813.632 38.6163C815.711 38.8761 817.588 39.008 819.26 39.008V37.008ZM812.76 37.7129C813.184 42.4588 813.396 47.5062 813.396 52.856H815.396C815.396 47.4538 815.182 42.3466 814.752 37.5351L812.76 37.7129ZM813.396 52.856C813.396 57.1633 813.783 64.5776 814.551 75.073L816.545 74.927C815.777 64.4304 815.396 57.0821 815.396 52.856H813.396ZM814.55 75.07C815.233 84.7897 815.485 92.0861 815.317 96.9815L817.315 97.0505C817.488 92.0472 817.229 84.6663 816.546 74.93L814.55 75.07ZM815.317 96.9776C815.231 99.2048 815.229 100.916 815.319 102.085L817.313 101.931C817.232 100.882 817.23 99.2645 817.315 97.0544L815.317 96.9776ZM815.316 102.038C815.36 103.464 815.5 104.625 815.793 105.424C815.938 105.821 816.163 106.248 816.544 106.543C816.983 106.883 817.512 106.955 818.011 106.806L817.437 104.89C817.509 104.869 817.659 104.877 817.768 104.961C817.818 105 817.76 104.979 817.671 104.736C817.495 104.255 817.358 103.368 817.316 101.978L815.316 102.038ZM817.846 106.841C823.316 106.167 827.476 106.515 830.423 107.761C833.307 108.981 835.087 111.082 835.824 114.146L837.768 113.678C836.884 110.001 834.674 107.387 831.201 105.919C827.791 104.477 823.226 104.163 817.602 104.855L817.846 106.841ZM835.822 114.137C836.062 115.181 836.18 116.172 836.18 117.112H838.18C838.18 116.004 838.042 114.862 837.77 113.687L835.822 114.137ZM836.18 117.112C836.18 119.48 835.543 121.536 834.283 123.319C833.017 125.112 831.084 126.679 828.418 127.991L829.302 129.785C832.183 128.367 834.41 126.606 835.917 124.473C837.431 122.33 838.18 119.864 838.18 117.112H836.18ZM828.405 127.997C824.546 129.968 819.694 131.182 813.813 131.603L813.955 133.597C820.021 133.164 825.152 131.904 829.315 129.779L828.405 127.997ZM813.809 131.603C804.789 132.284 798.081 132.103 793.621 131.112L793.187 133.064C797.943 134.121 804.889 134.282 813.959 133.597L813.809 131.603ZM793.618 131.111C787.436 129.756 783.142 128.005 780.595 125.936L779.333 127.488C782.248 129.856 786.913 131.689 793.19 133.065L793.618 131.111ZM780.578 125.923C777.049 123.178 775.435 119.22 775.841 113.86L773.847 113.708C773.4 119.612 775.199 124.273 779.35 127.501L780.578 125.923ZM775.841 113.862C776.129 110.156 777.168 107.536 778.823 105.843C780.462 104.167 782.84 103.264 786.108 103.264V101.264C782.464 101.264 779.508 102.281 777.393 104.445C775.293 106.592 774.156 109.732 773.847 113.706L775.841 113.862ZM786.108 103.264C787.299 103.264 788.54 103.423 789.833 103.746L790.319 101.806C788.882 101.447 787.477 101.264 786.108 101.264V103.264ZM790.076 103.776C790.021 103.776 790.035 103.772 790.229 103.803C790.383 103.828 790.601 103.866 790.886 103.919C791.455 104.025 792.271 104.184 793.336 104.397L793.728 102.435C792.66 102.222 791.833 102.061 791.25 101.953C790.959 101.899 790.724 101.857 790.547 101.829C790.411 101.807 790.217 101.776 790.076 101.776V103.776ZM794.528 103.503C794.875 99.5102 794.873 93.7401 794.531 86.2186L792.533 86.3094C792.874 93.8066 792.871 99.4711 792.536 103.329L794.528 103.503ZM794.531 86.2236C794.19 77.7722 794.063 72.0448 794.148 69.0118L792.148 68.9562C792.062 72.0672 792.192 77.8598 792.533 86.3044L794.531 86.2236ZM794.147 69.0265C794.32 64.971 794.233 59.6877 793.891 53.1874L791.893 53.2926C792.234 59.763 792.318 64.9757 792.149 68.9415L794.147 69.0265ZM793.891 53.1919C793.55 46.112 793.38 40.884 793.38 37.496H791.38C791.38 40.9347 791.552 46.2026 791.893 53.2881L793.891 53.1919ZM792.5 36.5033C784.028 35.4763 779.379 34.8839 778.479 34.7201L778.121 36.6879C779.098 36.8655 783.836 37.4677 792.26 38.4887L792.5 36.5033ZM778.575 34.7425C777.081 34.3157 775.632 33.1873 774.263 31.1737L772.609 32.2983C774.141 34.5514 775.935 36.0683 778.025 36.6655L778.575 34.7425ZM774.259 31.1683C772.745 28.9722 771.919 24.8186 772.004 18.4373L770.004 18.4107C769.919 24.8294 770.714 29.5504 772.613 32.3037L774.259 31.1683ZM772.004 18.4377C772.042 15.6937 773.323 13.3804 776.03 11.4641C778.778 9.51807 782.974 8.00567 788.714 6.99278L788.366 5.02321C782.501 6.05832 777.971 7.63925 774.874 9.83185C771.735 12.0542 770.052 14.925 770.004 18.4103L772.004 18.4377ZM788.712 6.99309C794.04 6.06279 799.017 5.6 803.644 5.6V3.6C798.885 3.6 793.792 4.07587 788.368 5.0229L788.712 6.99309ZM803.644 5.6C809.114 5.6 814.1 6.23122 818.608 7.48351L819.144 5.55648C814.436 4.24877 809.267 3.6 803.644 3.6V5.6ZM919.928 34.68L920.138 33.7022L920.136 33.702L919.928 34.68ZM874.616 54.904L875.555 55.2476L875.556 55.2449L874.616 54.904ZM876.152 86.392L875.199 86.6947L875.2 86.697L876.152 86.392ZM907 102.392L907.081 103.389L907.093 103.388L907.105 103.387L907 102.392ZM934.392 110.584L933.492 111.021L933.498 111.031L934.392 110.584ZM922.616 128.888L922.865 129.857L922.946 129.836L923.023 129.801L922.616 128.888ZM902.776 132.6L902.754 131.6L902.748 131.6L902.776 132.6ZM873.592 126.584L873.977 125.661L873.975 125.66L873.592 126.584ZM848.632 81.016L847.637 81.1189L847.638 81.123L848.632 81.016ZM849.144 47.224L848.153 47.0879L848.153 47.0918L849.144 47.224ZM857.976 22.776L857.218 22.1235L857.214 22.1283L857.976 22.776ZM874.744 9.592L874.342 8.67617L874.334 8.67983L874.744 9.592ZM895.864 4.6L895.993 5.5917L895.995 5.59139L895.864 4.6ZM921.336 5.49599L921.02 6.44468L921.073 6.46248L921.128 6.47418L921.336 5.49599ZM937.08 23.672L936.084 23.7564L936.084 23.7586L937.08 23.672ZM920.136 33.702C914.882 32.5821 910.159 32.016 905.976 32.016V34.016C909.985 34.016 914.564 34.5592 919.72 35.658L920.136 33.702ZM905.976 32.016C898.01 32.016 891.281 33.8787 885.852 37.668C880.422 41.4576 876.376 47.1162 873.676 54.5631L875.556 55.2449C878.147 48.0998 881.973 42.8144 886.996 39.308C892.021 35.8013 898.326 34.016 905.976 34.016V32.016ZM873.677 54.5604C872.349 58.1899 871.696 62.3204 871.696 66.936H873.696C873.696 62.5062 874.323 58.6154 875.555 55.2476L873.677 54.5604ZM871.696 66.936C871.696 72.7836 872.873 79.3738 875.199 86.6947L877.105 86.0893C874.823 78.9035 873.696 72.523 873.696 66.936H871.696ZM875.2 86.697C877.003 92.3261 879.966 96.6231 884.127 99.5023C888.282 102.377 893.542 103.776 899.832 103.776V101.776C893.834 101.776 889.003 100.444 885.265 97.8577C881.533 95.2756 878.8 91.3806 877.104 86.087L875.2 86.697ZM899.832 103.776C901.495 103.776 903.917 103.645 907.081 103.389L906.919 101.395C903.769 101.651 901.412 101.776 899.832 101.776V103.776ZM907.105 103.387C910.34 103.046 912.729 102.88 914.296 102.88V100.88C912.62 100.88 910.145 101.055 906.895 101.397L907.105 103.387ZM914.296 102.88C924.759 102.88 930.934 105.749 933.492 111.021L935.292 110.147C932.218 103.813 924.996 100.88 914.296 100.88V102.88ZM933.498 111.031C934.193 112.422 934.544 113.932 934.544 115.576H936.544C936.544 113.636 936.127 111.818 935.286 110.137L933.498 111.031ZM934.544 115.576C934.544 119.954 930.791 124.151 922.209 127.975L923.023 129.801C931.679 125.945 936.544 121.267 936.544 115.576H934.544ZM922.367 127.919C913.064 130.309 906.552 131.518 902.754 131.6L902.798 133.6C906.851 133.512 913.565 132.245 922.865 129.857L922.367 127.919ZM902.748 131.6C893.699 131.852 884.112 129.884 873.977 125.661L873.207 127.507C883.552 131.817 893.421 133.86 902.804 133.6L902.748 131.6ZM873.975 125.66C860.496 120.071 852.259 105.365 849.626 80.909L847.638 81.123C850.296 105.819 858.699 121.491 873.209 127.508L873.975 125.66ZM849.627 80.9131C849.118 75.9972 848.864 71.1249 848.864 66.296H846.864C846.864 71.1951 847.122 76.1362 847.637 81.1189L849.627 80.9131ZM848.864 66.296C848.864 60.0265 849.288 53.7133 850.135 47.3562L848.153 47.0918C847.294 53.5347 846.864 59.9361 846.864 66.296H848.864ZM850.135 47.3601C851.66 36.2559 854.567 28.3302 858.738 23.4236L857.214 22.1283C852.681 27.4618 849.7 35.8348 848.153 47.0879L850.135 47.3601ZM858.734 23.4285C863.953 17.3679 869.429 13.0762 875.154 10.5042L874.334 8.67983C868.283 11.3985 862.581 15.8961 857.218 22.1235L858.734 23.4285ZM875.146 10.5078C879.881 8.43082 886.812 6.78183 895.993 5.5917L895.735 3.6083C886.484 4.8075 879.335 6.4865 874.342 8.67621L875.146 10.5078ZM895.995 5.59139C900.485 4.99832 904.494 4.70399 908.024 4.70399V2.70399C904.386 2.70399 900.288 3.007 895.733 3.60861L895.995 5.59139ZM908.024 4.70399C913.247 4.70399 917.57 5.2946 921.02 6.44468L921.652 4.54731C917.935 3.30806 913.383 2.70399 908.024 2.70399V4.70399ZM921.128 6.47418C925.787 7.46355 929.297 9.40088 931.748 12.2307C934.201 15.0627 935.67 18.8771 936.084 23.7564L938.076 23.5876C937.637 18.3976 936.055 14.1479 933.26 10.9213C930.463 7.69244 926.528 5.57644 921.544 4.51781L921.128 6.47418ZM936.084 23.7586C936.413 27.5434 935.703 30.1606 934.193 31.8341C932.687 33.5041 930.19 34.448 926.456 34.448V36.448C930.487 36.448 933.644 35.4292 935.678 33.1739C937.71 30.922 938.43 27.6513 938.076 23.5854L936.084 23.7586ZM926.456 34.448C924.578 34.448 922.474 34.2029 920.138 33.7022L919.718 35.6578C922.161 36.1811 924.408 36.448 926.456 36.448V34.448ZM1046.37 93.816L1047.37 93.7561L1047.37 93.7484L1047.37 93.7407L1046.37 93.816ZM1044.07 107.64L1043.13 107.3L1043.13 107.309L1043.12 107.319L1044.07 107.64ZM1039.33 116.984L1038.7 116.212L1038.69 116.216L1039.33 116.984ZM1033.45 121.592L1034.01 122.419L1034.01 122.416L1033.45 121.592ZM1026.79 125.176L1026.44 124.24L1026.43 124.242L1026.79 125.176ZM999.397 130.936L999.268 129.944L999.262 129.945L999.397 130.936ZM986.853 131.576L986.977 130.584L986.966 130.582L986.954 130.581L986.853 131.576ZM973.541 130.168L973.386 131.156L973.407 131.159L973.427 131.162L973.541 130.168ZM961.381 124.28L962.035 123.523L962.032 123.521L961.381 124.28ZM957.669 108.408L956.701 108.159L956.699 108.165L957.669 108.408ZM974.437 99.704L974.313 100.696L974.314 100.696L974.437 99.704ZM991.589 102.264L991.393 103.245L991.528 103.272L991.666 103.261L991.589 102.264ZM997.733 102.008L997.747 101.008H997.733V102.008ZM1012.33 100.6L1012.05 99.6395L1012.04 99.6422L1012.33 100.6ZM1020.52 90.488L1021.51 90.4035L1021.51 90.3947L1020.52 90.488ZM1006.44 79.48L1006.22 80.4568L1006.23 80.4584L1006.44 79.48ZM986.597 77.816L986.558 78.8152L986.562 78.8154L986.597 77.816ZM962.021 71.672L962.573 70.838L962.571 70.8367L962.021 71.672ZM950.245 49.912L949.25 50.0167L949.251 50.0215L950.245 49.912ZM954.469 26.232L955.355 26.695L955.358 26.6896L954.469 26.232ZM964.965 13.432L965.528 14.2587L965.537 14.2521L964.965 13.432ZM980.709 7.672L980.531 6.68797L980.525 6.68913L980.709 7.672ZM1009.77 5.11199L1009.86 4.11676L1009.84 4.11504L1009.83 4.11394L1009.77 5.11199ZM1022.82 6.392L1022.93 5.39741L1022.92 5.39677L1022.82 6.392ZM1032.68 23.544L1033.61 23.8951L1032.68 23.544ZM1013.6 28.28L1013.5 29.2748L1013.51 29.275L1013.6 28.28ZM986.085 29.176L985.856 28.2026L985.853 28.2032L986.085 29.176ZM974.437 41.592L973.441 41.5015L973.441 41.5054L974.437 41.592ZM979.045 54.392L979.657 53.6013L979.648 53.5942L979.639 53.5874L979.045 54.392ZM992.613 58.488L992.507 59.4824L992.537 59.4855L992.567 59.4869L992.613 58.488ZM1007.46 59.128L1007.42 60.1272L1007.43 60.1274L1007.46 59.128ZM1034.6 66.424L1035.21 65.6322L1035.2 65.6254L1034.6 66.424ZM1042.66 78.968L1041.73 79.3349L1041.73 79.3368L1042.66 78.968ZM1045.37 93.8759C1045.62 97.979 1044.88 102.449 1043.13 107.3L1045.01 107.98C1046.84 102.932 1047.64 98.1864 1047.37 93.7561L1045.37 93.8759ZM1043.12 107.319C1042.28 109.812 1041.47 111.801 1040.71 113.3C1039.94 114.822 1039.26 115.749 1038.7 116.212L1039.97 117.756C1040.86 117.025 1041.69 115.797 1042.5 114.204C1043.32 112.589 1044.15 110.503 1045.02 107.961L1043.12 107.319ZM1038.69 116.216C1036.14 118.345 1034.2 119.857 1032.88 120.768L1034.01 122.416C1035.42 121.45 1037.41 119.89 1039.97 117.752L1038.69 116.216ZM1032.88 120.765C1030.54 122.355 1028.39 123.507 1026.44 124.24L1027.14 126.112C1029.28 125.309 1031.57 124.072 1034.01 122.419L1032.88 120.765ZM1026.43 124.242C1020.74 126.417 1011.71 128.325 999.268 129.944L999.526 131.928C1012 130.304 1021.23 128.373 1027.15 126.11L1026.43 124.242ZM999.262 129.945C993.645 130.711 989.572 130.908 986.977 130.584L986.729 132.568C989.596 132.927 993.885 132.697 999.532 131.927L999.262 129.945ZM986.954 130.581C981.067 129.984 976.635 129.515 973.655 129.174L973.427 131.162C976.421 131.504 980.863 131.973 986.752 132.571L986.954 130.581ZM973.696 129.18C969.551 128.53 965.666 126.66 962.035 123.523L960.727 125.037C964.605 128.386 968.827 130.441 973.386 131.156L973.696 129.18ZM962.032 123.521C959.287 121.168 957.901 118.043 957.901 114.04H955.901C955.901 118.571 957.502 122.272 960.73 125.039L962.032 123.521ZM957.901 114.04C957.901 112.432 958.143 110.637 958.639 108.651L956.699 108.165C956.172 110.275 955.901 112.235 955.901 114.04H957.901ZM958.638 108.657C959.358 105.857 960.691 103.839 962.594 102.507C964.511 101.166 967.106 100.448 970.469 100.448V98.448C966.834 98.448 963.798 99.2235 961.448 100.869C959.084 102.523 957.516 104.986 956.701 108.159L958.638 108.657ZM970.469 100.448C971.705 100.448 972.986 100.53 974.313 100.696L974.561 98.7117C973.158 98.5363 971.793 98.448 970.469 98.448V100.448ZM974.314 100.696C981.903 101.634 987.59 102.484 991.393 103.245L991.785 101.283C987.908 100.508 982.16 99.651 974.56 98.7115L974.314 100.696ZM991.666 103.261C993.863 103.092 995.885 103.008 997.733 103.008V101.008C995.826 101.008 993.752 101.095 991.512 101.267L991.666 103.261ZM997.719 103.008C1004.07 103.094 1009.05 102.625 1012.61 101.558L1012.04 99.6422C1008.77 100.623 1004.03 101.093 997.747 101.008L997.719 103.008ZM1012.6 101.56C1015.67 100.673 1018.03 99.3187 1019.57 97.4215C1021.12 95.5025 1021.74 93.1327 1021.51 90.4036L1019.52 90.5724C1019.72 92.8779 1019.19 94.7108 1018.01 96.1625C1016.82 97.636 1014.87 98.8204 1012.05 99.6395L1012.6 101.56ZM1021.51 90.3947C1020.94 84.2394 1015.62 80.401 1006.64 78.5016L1006.23 80.4584C1015 82.3137 1019.07 85.8139 1019.52 90.5813L1021.51 90.3947ZM1006.65 78.5033C1003.05 77.7131 996.351 77.1576 986.632 76.8166L986.562 78.8154C996.299 79.157 1002.83 79.7109 1006.22 80.4567L1006.65 78.5033ZM986.636 76.8168C975.878 76.3932 967.899 74.3615 962.573 70.838L961.469 72.506C967.236 76.3212 975.641 78.3854 986.558 78.8152L986.636 76.8168ZM962.571 70.8367C956.14 66.6037 952.325 59.658 951.239 49.8025L949.251 50.0215C950.384 60.3046 954.419 67.8656 961.471 72.5073L962.571 70.8367ZM951.24 49.8073C951.073 48.2255 950.989 46.5115 950.989 44.664H948.989C948.989 46.5712 949.076 48.3558 949.25 50.0167L951.24 49.8073ZM950.989 44.664C950.989 38.2514 952.445 32.2667 955.355 26.695L953.583 25.769C950.52 31.632 948.989 37.9352 948.989 44.664H950.989ZM955.358 26.6896C958.294 20.9862 961.694 16.8686 965.528 14.2586L964.402 12.6054C960.214 15.4567 956.618 19.8725 953.58 25.7744L955.358 26.6896ZM965.537 14.2521C969.044 11.8056 974.137 9.92169 980.893 8.65487L980.525 6.68913C973.628 7.9823 968.225 9.93836 964.393 12.6119L965.537 14.2521ZM980.887 8.656C990.755 6.86952 998.883 5.98399 1005.29 5.98399V3.98399C998.717 3.98399 990.46 4.89047 980.531 6.68799L980.887 8.656ZM1005.29 5.98399C1006.89 5.98399 1008.36 6.02622 1009.7 6.11004L1009.83 4.11394C1008.44 4.0271 1006.92 3.98399 1005.29 3.98399V5.98399ZM1009.67 6.10722L1022.72 7.38723L1022.92 5.39677L1009.86 4.11676L1009.67 6.10722ZM1022.72 7.38657C1026.25 7.75657 1028.75 8.81082 1030.37 10.4271C1031.97 12.0275 1032.83 14.3056 1032.83 17.4H1034.83C1034.83 13.9237 1033.85 11.0818 1031.78 9.01289C1029.73 6.95984 1026.73 5.79543 1022.93 5.39743L1022.72 7.38657ZM1032.83 17.4C1032.83 19.3201 1032.47 21.2495 1031.74 23.1929L1033.61 23.8951C1034.42 21.7425 1034.83 19.5759 1034.83 17.4H1032.83ZM1031.74 23.1929C1031.22 24.5746 1030.1 25.6803 1028.17 26.4568C1026.23 27.2425 1023.53 27.664 1020.01 27.664V29.664C1023.65 29.664 1026.64 29.2322 1028.92 28.3112C1031.23 27.381 1032.85 25.9267 1033.61 23.8951L1031.74 23.1929ZM1020.01 27.664C1018.34 27.664 1016.25 27.5391 1013.7 27.285L1013.51 29.275C1016.08 29.5329 1018.25 29.664 1020.01 29.664V27.664ZM1013.71 27.2852C1009.49 26.8553 1005.41 26.64 1001.45 26.64V28.64C1005.33 28.64 1009.35 28.8514 1013.5 29.2748L1013.71 27.2852ZM1001.45 26.64C995.503 26.64 990.302 27.1564 985.856 28.2026L986.314 30.1494C990.572 29.1476 995.611 28.64 1001.45 28.64V26.64ZM985.853 28.2032C982.135 29.0885 979.178 30.6266 977.068 32.8758C974.95 35.1334 973.757 38.0317 973.441 41.5015L975.433 41.6825C975.715 38.5816 976.762 36.1253 978.526 34.2442C980.299 32.3547 982.867 30.9701 986.317 30.1488L985.853 28.2032ZM973.441 41.5054C972.91 47.6124 974.497 52.2782 978.451 55.1966L979.639 53.5874C976.425 51.2151 974.94 47.3476 975.433 41.6786L973.441 41.5054ZM978.433 55.1827C981.307 57.408 986.065 58.7952 992.507 59.4824L992.719 57.4936C986.361 56.8154 982.074 55.472 979.657 53.6013L978.433 55.1827ZM992.567 59.4869C998.115 59.743 1003.07 59.9565 1007.42 60.1272L1007.5 58.1288C1003.15 57.9582 998.204 57.745 992.659 57.4891L992.567 59.4869ZM1007.43 60.1274C1019.55 60.5511 1028.35 62.9661 1034 67.2226L1035.2 65.6254C1029.07 61.0073 1019.78 58.5582 1007.5 58.1286L1007.43 60.1274ZM1033.99 67.2158C1036.76 69.3559 1039.37 73.3372 1041.73 79.3349L1043.59 78.6011C1041.18 72.4814 1038.41 68.1001 1035.21 65.6322L1033.99 67.2158ZM1041.73 79.3368C1043.84 84.6435 1045.04 89.4926 1045.38 93.8913L1047.37 93.7407C1047.02 89.0941 1045.75 84.0445 1043.59 78.5992L1041.73 79.3368Z" fill="black" mask="url(#path-2-outside-1_113_281)"/>
</svg>
